v 2.66371 6 -3.250002
v 2.663711 6 -3.750003
v 2.663711 6.5 -3.750003
v 2.66371 6.5 -3.250002
v -3.999979 6.5 -3.750004
v -3.999842 6 -3.250002
v -3.999842 6.5 -3.250002
v -3.999979 6 -3.750004
v -3.999842 6 -3.250002
v -3.410277 6 -3.250002
v -3.410277 6.5 -3.250002
v -3.999842 6.5 -3.250002
v -3.409505 6.5 -8.999842
v -4.000002 6 -9.000006
v -4.000002 6.5 -9.000006
v -3.409505 6 -8.999842
v -3.409947 6.5 -3.750003
v -3.999842 6.5 -3.250002
v -3.410277 6.5 -3.250002
v -3.999979 6.5 -3.750004
v -3.999839 -11.43 -3.250001
v -3.999975 -11.43 -3.750002
v -3.409944 -11.43 -3.750001
v -3.410274 -11.43 -3.250001
v 2.16371 6 -3.250002
v 2.16371 6.5 -3.250002
v 2.66371 6 -3.250002
v 2.66371 6.5 -3.250002
v 2.163736 6.5 -13.92266
v 2.163736 6 -13.92266
v -3.409478 6.5 -13.85338
v -3.409478 6 -13.85338
v 2.663708 6.5 -8.999681
v 2.663708 6 -8.999681
v 2.163708 6.5 -8.999764
v 2.163708 6 -8.999764
v 2.163709 6.5 -3.750003
v 2.66371 6.5 -3.250002
v 2.663711 6.5 -3.750003
v 2.16371 6.5 -3.250002
v 2.663709 -11.43 -3.250001
v 2.163709 -11.43 -3.250001
v 2.163708 -11.43 -3.750001
v 2.663709 -11.43 -3.750001
v 2.16371 6 -3.250002
v -3.410277 6 -3.250002
v -3.409947 6 -3.750003
v 2.163709 6 -3.750003
v 2.663709 6 -8.449677
v 2.663708 6 -8.999681
v 2.663708 6.5 -8.999681
v 2.663709 6.5 -8.449677
v -4.000002 6.5 -9.000006
v -3.999988 6 -8.450226
v -3.999988 6.5 -8.450226
v -4.000002 6 -9.000006
v -3.409505 6.5 -8.999842
v -3.999988 6.5 -8.450226
v -3.409724 6.5 -8.450193
v -4.000002 6.5 -9.000006
v -3.999984 -11.43 -8.45022
v -4 -11.43 -9.000002
v -3.409502 -11.43 -8.999836
v -3.409721 -11.43 -8.450188
v 2.663708 6.5 -8.999681
v 2.163708 6.5 -8.999764
v 2.163708 6.5 -8.4497
v 2.663709 6.5 -8.449677
v 2.663707 -11.43 -8.449673
v 2.163707 -11.43 -8.449696
v 2.663707 -11.43 -8.999677
v 2.163707 -11.43 -8.99976
v -3.409724 6 -8.450193
v -3.409505 6 -8.999842
v 2.163708 6 -8.4497
v 2.163708 6 -8.999764
v -3.999842 6 -3.250002
v -3.999979 6 -3.750004
v -3.999839 -11.43 -3.250001
v -3.999975 -11.43 -3.750002
v -3.999979 6 -3.750004
v -3.409947 6 -3.750003
v -3.999975 -11.43 -3.750002
v -3.409944 -11.43 -3.750001
v -3.410274 -11.43 -3.250001
v -3.999839 -11.43 -3.250001
v -3.409947 6 -3.750003
v -3.410277 6 -3.250002
v -3.409944 -11.43 -3.750001
v -3.410274 -11.43 -3.250001
v 2.663709 -11.43 -3.250001
v 2.163709 -11.43 -3.250001
v 2.16371 6 -3.250002
v 2.163709 6 -3.750003
v 2.163709 -11.43 -3.250001
v 2.163708 -11.43 -3.750001
v 2.663709 -11.43 -3.750001
v 2.663709 -11.43 -3.250001
v 2.163709 6 -3.750003
v 2.663711 6 -3.750003
v 2.163708 -11.43 -3.750001
v 2.663709 -11.43 -3.750001
v -3.999988 6 -8.450226
v -4.000002 6 -9.000006
v -3.999984 -11.43 -8.45022
v -4 -11.43 -9.000002
v -4.000002 6 -9.000006
v -3.409505 6 -8.999842
v -4 -11.43 -9.000002
v -3.409502 -11.43 -8.999836
v -3.409724 6 -8.450193
v -3.999988 6 -8.450226
v -3.409721 -11.43 -8.450188
v -3.999984 -11.43 -8.45022
v -3.409505 6 -8.999842
v -3.409724 6 -8.450193
v -3.409502 -11.43 -8.999836
v -3.409721 -11.43 -8.450188
v 2.663709 6 -8.449677
v 2.163708 6 -8.4497
v 2.663707 -11.43 -8.449673
v 2.163707 -11.43 -8.449696
v 2.663707 -11.43 -8.999677
v 2.663707 -11.43 -8.449673
v 2.163708 6 -8.4497
v 2.163708 6 -8.999764
v 2.163707 -11.43 -8.449696
v 2.163707 -11.43 -8.99976
v 2.163708 6 -8.999764
v 2.663708 6 -8.999681
v 2.163707 -11.43 -8.99976
v 2.663707 -11.43 -8.999677
v 2.66371 6 -6.000003
v 2.66371 6.5 -6.000003
v -3.999983 6.5 -6.000004
v -3.999979 6 -3.750004
v -3.999979 6.5 -3.750004
v -3.999983 6 -6.000004
v -3.409835 6.5 -6.000004
v -3.999983 6.5 -6.000004
v -3.999979 6 -3.750004
v -3.999983 6 -6.000004
v -3.409835 6 -6.000004
v -3.999988 6 -8.450226
v 2.163709 6.5 -6.000003
v 2.66371 6.5 -6.000003
v 2.663711 6 -3.750003
v 2.66371 6 -6.000003
v 2.163709 6 -6.000003
v 2.663709 6 -8.449677
v 2.163708 6.5 -8.999764
v 2.163708 6 -8.999764
v 2.163736 6.5 -13.92266
v 2.163736 6 -13.92266
v -3.409478 6.5 -13.85338
v 2.163736 6.5 -13.92266
v 2.163736 6 -13.92266
v -3.409478 6 -13.85338
v -3.409505 6 -8.999842
v -3.409505 6.5 -8.999842
v -3.409478 6 -13.85338
v -3.409478 6.5 -13.85338
vn 1 0 1.430509E-06
vn 1 0 1.430509E-06
vn 1 0 1.430509E-06
vn 1 0 1.430509E-06
vn -1 0 0.0002741807
vn -1 0 0.0002741807
vn -1 0 0.0002741807
vn -1 0 0.0002741807
vn 0 0 1
vn 0 0 1
vn 0 0 1
vn 0 0 1
vn 0.0002777862 0 -1
vn 0.0002777862 0 -1
vn 0.0002777862 0 -1
vn 0.0002777862 0 -1
vn 0 1 0
vn 0 1 0
vn 0 1 0
vn 0 1 0
vn 0 -1 0
vn 0 -1 0
vn 0 -1 0
vn 0 -1 0
vn -1.283203E-07 0 1
vn -1.283203E-07 0 1
vn 0 0 1
vn 0 0 1
vn -0.01242918 0 -0.9999228
vn -0.01242918 0 -0.9999228
vn -0.01242918 0 -0.9999228
vn -0.01242918 0 -0.9999228
vn 0.0001659392 0 -1
vn 0.0001659392 0 -1
vn 0.0001659392 0 -1
vn 0.0001659392 0 -1
vn 0 1 0
vn 0 1 0
vn 0 1 0
vn 0 1 0
vn 0 -1 0
vn 0 -1 0
vn 0 -1 0
vn 0 -1 0
vn 0 -1 0
vn 0 -1 0
vn 0 -1 0
vn 0 -1 0
vn 1 0 -8.669703E-07
vn 1 0 -8.669703E-07
vn 1 0 -8.669703E-07
vn 1 0 -8.669703E-07
vn -1 0 2.645337E-05
vn -1 0 2.645337E-05
vn -1 0 2.645337E-05
vn -1 0 2.645337E-05
vn 0 1 0
vn 0 1 0
vn 0 1 0
vn 0 1 0
vn 0 -1 0
vn 0 -1 0
vn 0 -1 0
vn 0 -1 0
vn 0 1 0
vn 0 1 0
vn 0 1 0
vn 0 1 0
vn 0 -1 0
vn 0 -1 0
vn 0 -1 0
vn 0 -1 0
vn 0 -1 0
vn 0 -1 0
vn 0 -1 0
vn 0 -1 0
vn -1 -1.5045E-07 0.0002741807
vn -1 -1.914785E-07 0.0002727504
vn -1 -1.914785E-07 0.0002727504
vn -1 -2.325071E-07 0.0002713202
vn 4.040776E-07 -1.09429E-07 -1
vn 4.040778E-07 -1.09429E-07 -1
vn 4.040778E-07 -1.09429E-07 -1
vn 4.04078E-07 -1.09429E-07 -1
vn 0 5.471453E-08 1
vn 0 5.471453E-08 1
vn 0.9999998 2.052517E-07 0.0006604181
vn 0.9999998 2.052336E-07 0.0006604188
vn 0.9999998 2.052336E-07 0.0006604188
vn 0.9999998 2.052156E-07 0.0006604193
vn 0 5.471453E-08 1
vn 0 5.471453E-08 1
vn -1 8.20719E-08 1.907344E-06
vn -1 6.839327E-08 1.430509E-06
vn -1 6.839327E-08 1.430509E-06
vn -1 5.471464E-08 9.536739E-07
vn 1 -8.207168E-08 1.43051E-06
vn 1 -8.207172E-08 1.430511E-06
vn 4.768355E-07 -1.094291E-07 -1
vn 4.768358E-07 -1.094291E-07 -1
vn 4.768358E-07 -1.094291E-07 -1
vn 4.76836E-07 -1.094291E-07 -1
vn -1 -2.051708E-07 2.645337E-05
vn -1 -1.778148E-07 2.732065E-05
vn -1 -1.778148E-07 2.732065E-05
vn -1 -1.504588E-07 2.818793E-05
vn 0.0002777862 -2.188163E-07 -1
vn 0.0002794011 -2.735249E-07 -1
vn 0.0002794011 -2.735249E-07 -1
vn 0.0002810159 -3.282334E-07 -1
vn -5.493296E-05 3.282759E-07 1
vn -5.493296E-05 3.282759E-07 1
vn -5.493296E-05 3.282759E-07 1
vn -5.493296E-05 3.282759E-07 1
vn 0.9999999 1.916317E-07 0.0003986307
vn 0.9999999 1.98471E-07 0.0003984138
vn 0.9999999 1.98471E-07 0.0003984138
vn 0.9999999 2.053102E-07 0.0003981969
vn -4.577628E-05 2.735771E-07 1
vn -4.577632E-05 2.735758E-07 1
vn -4.577632E-05 2.735758E-07 1
vn -4.577637E-05 2.735745E-07 1
vn 1 -8.207192E-08 -4.334852E-07
vn 1 -9.575044E-08 0
vn -1 4.10359E-08 0
vn -1 4.10359E-08 0
vn -1 4.10359E-08 0
vn -1 4.10359E-08 0
vn 0.0001659392 -2.735795E-07 -1
vn 0.0001659392 -2.735817E-07 -1
vn 0.0001659392 -2.735817E-07 -1
vn 0.0001659393 -2.73584E-07 -1
vn 1 0 -5.29819E-07
vn 1 0 -5.29819E-07
vn -1 0 1.907348E-06
vn -1 0 1.907348E-06
vn -1 0 1.907348E-06
vn -1 0 1.907348E-06
vn 0 1 0
vn 0 1 0
vn 0 -1 0
vn 0 -1 0
vn 0 -1 0
vn 0 -1 0
vn 0 1 0
vn 0 1 0
vn 0 -1 0
vn 0 -1 0
vn 0 -1 0
vn 0 -1 0
vn 1 0 5.617946E-06
vn 1 0 5.617946E-06
vn 1 0 5.617946E-06
vn 1 0 5.617946E-06
vn 0 1 0
vn 0 1 0
vn 0 -1 0
vn 0 -1 0
vn -1 0 -5.501731E-06
vn -1 0 -5.501731E-06
vn -1 0 -5.501731E-06
vn -1 0 -5.501731E-06
vt -3.250001 6
vt -3.750002 6
vt -3.750002 6.5
vt -3.250001 6.5
vt 3.750308 6.5
vt 3.250307 6
vt 3.250307 6.5
vt 3.750308 6
vt 3.999842 6
vt 3.410278 6
vt 3.410278 6.5
vt 3.999842 6.5
vt -3.411502 6.5
vt -4.001999 6
vt -4.001999 6.5
vt -3.411502 6
vt -3.409947 -3.750003
vt -3.999842 -3.250002
vt -3.410277 -3.250002
vt -3.999979 -3.750004
vt 3.999839 -3.250001
vt 3.999975 -3.750002
vt 3.409944 -3.750001
vt 3.410274 -3.250001
vt -2.16371 6
vt -2.16371 6.5
vt -2.66371 6
vt -2.66371 6.5
vt 2.336616 6.5
vt 2.336616 6
vt -3.237029 6.5
vt -3.237029 6
vt 2.661712 6.5
vt 2.661712 6
vt 2.161711 6.5
vt 2.161711 6
vt 2.163709 -3.750003
vt 2.66371 -3.250002
vt 2.663711 -3.750003
vt 2.16371 -3.250002
vt -2.663709 -3.250001
vt -2.163709 -3.250001
vt -2.163708 -3.750001
vt -2.663709 -3.750001
vt -2.16371 -3.250002
vt 3.410277 -3.250002
vt 3.409947 -3.750003
vt -2.163709 -3.750003
vt -8.449677 6
vt -8.999681 6
vt -8.999681 6.5
vt -8.449677 6.5
vt 9.00031 6.5
vt 8.45053 6
vt 8.45053 6.5
vt 9.00031 6
vt -3.409505 -8.999842
vt -3.999988 -8.450226
vt -3.409724 -8.450193
vt -4.000002 -9.000006
vt 3.999984 -8.45022
vt 4 -9.000002
vt 3.409502 -8.999836
vt 3.409721 -8.450188
vt 2.663708 -8.999681
vt 2.163708 -8.999764
vt 2.163708 -8.4497
vt 2.663709 -8.449677
vt -2.663707 -8.449673
vt -2.163707 -8.449696
vt -2.663707 -8.999677
vt -2.163707 -8.99976
vt 3.409724 -8.450193
vt 3.409505 -8.999842
vt -2.163708 -8.4497
vt -2.163708 -8.999764
vt 3.251099 6
vt 3.7511 6
vt 3.251098 -11.43
vt 3.751098 -11.43
vt -3.99998 6
vt -3.409949 6
vt -3.999976 -11.43
vt -3.409945 -11.43
vt 3.410274 -11.43
vt 3.999839 -11.43
vt -3.747751 6
vt -3.247749 6
vt -3.747749 -11.43
vt -3.247748 -11.43
vt -2.663709 -11.43
vt -2.163709 -11.43
vt 3.249998 6
vt 3.749999 6
vt 3.249997 -11.43
vt 3.749997 -11.43
vt -3.750005 -11.43
vt -3.250005 -11.43
vt 2.163707 6
vt 2.663709 6
vt 2.163707 -11.43
vt 2.663708 -11.43
vt 8.450332 6.000001
vt 9.000112 6.000001
vt 8.450326 -11.43
vt 9.000108 -11.43
vt -4.002502 6.000002
vt -3.412005 6.000002
vt -4.0025 -11.43
vt -3.412002 -11.43
vt 3.410188 6.000003
vt 4.000452 6.000003
vt 3.410185 -11.43
vt 4.000448 -11.43
vt -8.998482 6
vt -8.448833 6
vt -8.998476 -11.43
vt -8.448828 -11.43
vt -2.663322 6.000002
vt -2.163321 6.000002
vt -2.663321 -11.43
vt -2.163321 -11.43
vt -8.999675 -11.43
vt -8.449671 -11.43
vt 8.4497 6
vt 8.999764 6
vt 8.449696 -11.43
vt 8.99976 -11.43
vt 2.162215 6.000002
vt 2.662215 6.000002
vt 2.162214 -11.43
vt 2.662214 -11.43
vt -6.000003 6
vt -6.000003 6.5
vt 6.000309 6.5
vt 3.750308 6
vt 3.750308 6.5
vt 6.000309 6
vt -3.409835 -6.000004
vt -3.999983 -6.000004
vt 3.999979 -3.750004
vt 3.999983 -6.000004
vt 3.409835 -6.000004
vt 3.999988 -8.450226
vt 2.163709 -6.000003
vt 2.66371 -6.000003
vt -2.663711 -3.750003
vt -2.66371 -6.000003
vt -2.163709 -6.000003
vt -2.663709 -8.449677
vt -8.999777 6.5
vt -8.999777 6
vt -13.92267 6.5
vt -13.92267 6
vt -3.409478 -13.85338
vt 2.163736 -13.92266
vt -2.163736 -13.92266
vt 3.409478 -13.85338
vt 8.999823 6
vt 8.999823 6.5
vt 13.85336 6
vt 13.85336 6.5
g submesh0
f 1/1/1 2/2/2 3/3/3
f 4/4/4 1/1/1 3/3/3
f 5/5/5 6/6/6 7/7/7
f 5/5/5 8/8/8 6/6/6
f 9/9/9 10/10/10 11/11/11
f 12/12/12 9/9/9 11/11/11
f 13/13/13 14/14/14 15/15/15
f 13/13/13 16/16/16 14/14/14
f 17/17/17 18/18/18 19/19/19
f 17/17/17 20/20/20 18/18/18
f 21/21/21 22/22/22 23/23/23
f 24/24/24 21/21/21 23/23/23
f 11/11/11 10/10/10 25/25/25
f 11/11/11 25/25/25 26/26/26
f 26/26/26 25/25/25 27/27/27
f 26/26/26 27/27/27 28/28/28
f 29/29/29 30/30/30 31/31/31
f 30/30/30 32/32/32 31/31/31
f 33/33/33 34/34/34 35/35/35
f 34/34/34 36/36/36 35/35/35
f 37/37/37 38/38/38 39/39/39
f 37/37/37 40/40/40 38/38/38
f 17/17/17 40/40/40 37/37/37
f 17/17/17 19/19/19 40/40/40
f 41/41/41 42/42/42 43/43/43
f 44/44/44 41/41/41 43/43/43
f 45/45/45 46/46/46 47/47/47
f 48/48/48 45/45/45 47/47/47
f 49/49/49 50/50/50 51/51/51
f 52/52/52 49/49/49 51/51/51
f 53/53/53 54/54/54 55/55/55
f 53/53/53 56/56/56 54/54/54
f 57/57/57 58/58/58 59/59/59
f 57/57/57 60/60/60 58/58/58
f 61/61/61 62/62/62 63/63/63
f 64/64/64 61/61/61 63/63/63
f 65/65/65 66/66/66 67/67/67
f 65/65/65 67/67/67 68/68/68
f 66/66/66 57/57/57 67/67/67
f 67/67/67 57/57/57 59/59/59
f 69/69/69 70/70/70 71/71/71
f 70/70/70 72/72/72 71/71/71
f 73/73/73 74/74/74 75/75/75
f 75/75/75 74/74/74 76/76/76
f 77/77/77 78/78/78 79/79/79
f 78/78/78 80/80/80 79/79/79
f 81/81/81 82/82/82 83/83/83
f 82/82/82 84/84/84 83/83/83
f 10/10/10 9/9/9 85/85/85
f 9/9/9 86/86/86 85/85/85
f 87/87/87 88/88/88 89/89/89
f 88/88/88 90/90/90 89/89/89
f 27/27/27 25/25/25 91/91/91
f 25/25/25 92/92/92 91/91/91
f 93/93/93 94/94/94 95/95/95
f 94/94/94 96/96/96 95/95/95
f 2/2/2 1/1/1 97/97/97
f 1/1/1 98/98/98 97/97/97
f 99/99/99 100/100/100 101/101/101
f 100/100/100 102/102/102 101/101/101
f 103/103/103 104/104/104 105/105/105
f 104/104/104 106/106/106 105/105/105
f 107/107/107 108/108/108 109/109/109
f 108/108/108 110/110/110 109/109/109
f 111/111/111 112/112/112 113/113/113
f 112/112/112 114/114/114 113/113/113
f 115/115/115 116/116/116 117/117/117
f 116/116/116 118/118/118 117/117/117
f 119/119/119 120/120/120 121/121/121
f 120/120/120 122/122/122 121/121/121
f 50/50/50 49/49/49 123/123/123
f 49/49/49 124/124/124 123/123/123
f 125/125/125 126/126/126 127/127/127
f 126/126/126 128/128/128 127/127/127
f 129/129/129 130/130/130 131/131/131
f 130/130/130 132/132/132 131/131/131
f 2/2/2 133/133/133 3/3/3
f 133/133/133 134/134/134 3/3/3
f 133/133/133 49/49/49 134/134/134
f 49/49/49 52/52/52 134/134/134
f 135/135/135 136/136/136 137/137/137
f 135/135/135 138/138/138 136/136/136
f 55/55/55 138/138/138 135/135/135
f 55/55/55 54/54/54 138/138/138
f 139/139/139 20/20/20 17/17/17
f 139/139/139 140/140/140 20/20/20
f 59/59/59 140/140/140 139/139/139
f 59/59/59 58/58/58 140/140/140
f 141/141/141 142/142/142 143/143/143
f 47/47/47 141/141/141 143/143/143
f 142/142/142 144/144/144 73/73/73
f 143/143/143 142/142/142 73/73/73
f 68/68/68 67/67/67 145/145/145
f 146/146/146 68/68/68 145/145/145
f 146/146/146 145/145/145 37/37/37
f 146/146/146 37/37/37 39/39/39
f 67/67/67 59/59/59 139/139/139
f 67/67/67 139/139/139 145/145/145
f 145/145/145 139/139/139 17/17/17
f 145/145/145 17/17/17 37/37/37
f 147/147/147 48/48/48 148/148/148
f 48/48/48 149/149/149 148/148/148
f 149/149/149 150/150/150 148/148/148
f 149/149/149 75/75/75 150/150/150
f 48/48/48 47/47/47 149/149/149
f 47/47/47 143/143/143 149/149/149
f 149/149/149 143/143/143 75/75/75
f 143/143/143 73/73/73 75/75/75
f 151/151/151 152/152/152 153/153/153
f 152/152/152 154/154/154 153/153/153
f 57/57/57 66/66/66 155/155/155
f 66/66/66 156/156/156 155/155/155
f 76/76/76 74/74/74 157/157/157
f 74/74/74 158/158/158 157/157/157
f 159/159/159 160/160/160 161/161/161
f 160/160/160 162/162/162 161/161/161
