v 9.000004 -2.662665 4.000002
v 12.00001 -3.658211 7.526922E-06
v 11.00001 -3.722114 7.000002
v 8.000005 -2.605498 1.880535E-06
v 12.00001 -3.658211 7.526922E-06
v 8.000005 -2.605498 1.880535E-06
v 8.000005 -2.572479 -2.999999
v 11.00001 -3.568025 -7.000001
v -6 -3.443679 2.000001
v 7.728175E-07 -2.467348 -2.999999
v -0.9999971 -2.487226 -6.951013E-07
v -3.999999 -3.370905 -7.000001
v -2.999998 -3.571153 10
v -6 -3.443679 2.000001
v -0.9999977 -2.542258 5.000003
v -0.9999971 -2.487226 -6.951013E-07
v -2.999998 -3.571153 10
v -0.9999977 -2.542258 5.000003
v 4.000002 -2.640983 8.000004
v 5.000003 -2.632112 6.000003
v 4.000002 -2.640983 8.000004
v 9.000004 -2.662665 4.000002
v 11.00001 -3.722114 7.000002
v 8.000005 -2.572479 -2.999999
v 4.000004 -2.508908 -4
v 4.000005 -2.464882 -8.000001
v 11.00001 -3.568025 -7.000001
v 7.728175E-07 -2.467348 -2.999999
v -3.999999 -3.370905 -7.000001
v 4.000005 -2.464882 -8.000001
v 4.000003 -2.552933 -1.426066E-07
v 8.000005 -2.572479 -2.999999
v 8.000005 -2.605498 1.880535E-06
v 4.000004 -2.508908 -4
v -0.9999971 -2.487226 -6.951013E-07
v 7.728175E-07 -2.467348 -2.999999
v 5.000003 -2.632112 6.000003
v 9.000004 -2.662665 4.000002
v -0.9999977 -2.542258 5.000003
v 11 3 -7
v 8 3 -3
v 12 3 0
v 8 3 0
v 9 3 4
v 11 3 7
v -1 3 5
v -1 3 0
v -6 3 2
v -3 3 10
v 0 3 -3
v -4 3 -7
v 5 3 6
v 4 3 8
v 4 3 -4
v 4 3 -8
v 8.000006 10.89649 4.134022E-06
v 4.000003 10.94905 2.11088E-06
v 5.000003 10.86987 6.000008
v 9.000008 10.83932 4.000007
v 4 6 0
v -1 6 0
v -1 6 5
v 5 6 6
v 8 6 -3
v 4 6 -4
v 8 6 0
v 0 6 -3
v 4.000002 8.474525 1.05544E-06
v 8.000003 8.448243 2.067011E-06
v 4.000004 8.474527 -3.043505
v 8.000008 8.448245 -2.925673
v 4.000002 8.474525 1.05544E-06
v 4.000004 8.474527 -3.043505
v 2.36042 8.474528 0.1655253
v 2.204585 8.47453 -3.043509
v 5.000002 8.434937 6.000004
v 4.000002 8.474525 1.05544E-06
v 3.429434 8.434938 6.328802
v 2.36042 8.474528 0.1655253
v 11.00001 -3.722114 7.000002
v 12.00001 -3.658211 7.526922E-06
v 12 3 0
v 11 3 7
v 12.00001 -3.658211 7.526922E-06
v 11.00001 -3.568025 -7.000001
v 11 3 -7
v 12 3 0
v 9 3 4
v 8 3 0
v 8 6 0
v 9 6 4
v 8 3 0
v 8 3 -3
v 8 6 -3
v 8 6 0
v -6 3 2
v -2.999998 -3.571153 10
v -3 3 10
v -6 -3.443679 2.000001
v -4 3 -7
v -6 -3.443679 2.000001
v -6 3 2
v -3.999999 -3.370905 -7.000001
v -1 6 0
v -1 3 5
v -1 6 5
v -1 3 0
v 0 6 -3
v -1 3 0
v -1 6 0
v 0 3 -3
v -2.999998 -3.571153 10
v 4.000002 -2.640983 8.000004
v 4 3 8
v -3 3 10
v 4.000002 -2.640983 8.000004
v 11.00001 -3.722114 7.000002
v 11 3 7
v 4 3 8
v -1 3 5
v 5 3 6
v 5 6 6
v -1 6 5
v 5 3 6
v 9 3 4
v 9 6 4
v 5 6 6
v 4 3 -8
v -3.999999 -3.370905 -7.000001
v -4 3 -7
v 4.000005 -2.464882 -8.000001
v 11 3 -7
v 4.000005 -2.464882 -8.000001
v 4 3 -8
v 11.00001 -3.568025 -7.000001
v 4 6 -4
v 0 3 -3
v 0 6 -3
v 4 3 -4
v 8 6 -3
v 4 3 -4
v 4 6 -4
v 8 3 -3
v 4.000004 8.474527 -3.043505
v 8.000008 8.448245 -2.925673
v 4.000002 6.000001 -3.06978
v 8.000002 6.000001 -2.951669
v 4.000003 10.94905 2.11088E-06
v 8.000006 10.89649 4.134022E-06
v 4.000002 8.474525 1.05544E-06
v 8.000003 8.448243 2.067011E-06
v 3.429434 8.434938 6.328802
v 2.36042 8.474528 0.1655253
v 2.327101 6.000002 0.1655243
v 3.396648 6.000002 6.3288
v 4.000003 10.94905 2.11088E-06
v 4.000002 8.474525 1.05544E-06
v 5.000003 10.86987 6.000008
v 5.000002 8.434937 6.000004
v 9 6 4
v 8 6 0
v 9.000004 8.419661 4.000003
v 8.000003 8.448243 2.067011E-06
v 9.000008 10.83932 4.000007
v 8.000006 10.89649 4.134022E-06
v 5 6 6
v 9 6 4
v 9.000004 8.419661 4.000003
v 5.000002 8.434937 6.000004
v 9.000008 10.83932 4.000007
v 5.000003 10.86987 6.000008
v 2.327101 6.000002 0.1655243
v 2.36042 8.474528 0.1655253
v 2.172038 6.000003 -3.069783
v 2.204585 8.47453 -3.043509
v 8.000003 8.448243 2.067011E-06
v 8 6 0
v 8.000008 8.448245 -2.925673
v 8.000002 6.000001 -2.951669
v 8 6 0
v 4 6 0
v 8.000002 6.000001 -2.951669
v 4.000002 6.000001 -3.06978
v 4 6 0
v 5 6 6
v 2.327101 6.000002 0.1655243
v 3.396648 6.000002 6.3288
v 4.000002 6.000001 -3.06978
v 2.172038 6.000003 -3.069783
v 4.000004 8.474527 -3.043505
v 4.000002 6.000001 -3.06978
v 2.204585 8.47453 -3.043509
v 2.172038 6.000003 -3.069783
v 5 6 6
v 5.000002 8.434937 6.000004
v 3.396648 6.000002 6.3288
v 3.429434 8.434938 6.328802
vn -0.3222527 -0.9421597 -0.007198881
vn -0.3222527 -0.9421597 -0.007198881
vn -0.3903088 -0.9184469 -0.06414291
vn -0.2541965 -0.9658725 0.04974515
vn -0.2678642 -0.9631258 0.008587077
vn -0.2544971 -0.967015 -0.01064323
vn -0.2678642 -0.9631258 0.008587077
vn -0.2812313 -0.9592367 0.02781739
vn 0.2000771 -0.9783518 0.04905369
vn 0.2000771 -0.9783518 0.04905369
vn 0.2122419 -0.9751003 0.0642863
vn 0.1879124 -0.9816033 0.03382109
vn 0.2366331 -0.966003 -0.10413
vn 0.2101648 -0.9744632 -0.05747418
vn 0.2101648 -0.9744632 -0.05747418
vn 0.1836965 -0.9829235 -0.01081833
vn 0.08215348 -0.9821444 -0.1692434
vn 0.03450703 -0.9909987 -0.09012406
vn 0.03450703 -0.9909987 -0.09012406
vn -0.01313942 -0.9998531 -0.01100472
vn -0.09628093 -0.9794607 -0.1150421
vn -0.09628093 -0.9794607 -0.1150421
vn -0.1794224 -0.9590682 -0.2190794
vn -0.09192437 -0.9891902 0.05225265
vn -0.0131394 -0.9998531 -0.01100474
vn -0.09192437 -0.9891902 0.05225265
vn -0.1707093 -0.9785274 0.11551
vn 0.05551708 -0.9935887 0.04392366
vn 0.1241737 -0.9873243 0.09885207
vn 0.05551708 -0.9935887 0.04392366
vn -0.01313944 -0.9998531 -0.01100464
vn -0.01313944 -0.9998531 -0.01100464
vn -0.01313945 -0.9998531 -0.01100466
vn -0.01313943 -0.9998531 -0.01100462
vn -0.01313947 -0.9998531 -0.01100469
vn -0.01313952 -0.9998531 -0.01100476
vn -0.01313945 -0.9998531 -0.01100469
vn -0.01313944 -0.9998531 -0.01100469
vn -0.01313942 -0.9998531 -0.01100469
vn 0 1 0
vn 0 1 0
vn 0 1 0
vn 0 1 0
vn 0 1 0
vn 0 1 0
vn 0 1 0
vn 0 1 0
vn 0 1 0
vn 0 1 0
vn 0 1 0
vn 0 1 0
vn 0 1 0
vn 0 1 0
vn 0 1 0
vn 0 1 0
vn 0.01313941 0.9998531 0.01100459
vn 0.01313945 0.9998531 0.01100461
vn 0.01313941 0.9998531 0.01100459
vn 0.01313937 0.9998531 0.01100457
vn 0 1 0
vn 0 1 0
vn 0 1 0
vn 0 1 0
vn 0 1 0
vn 0 1 0
vn 0 1 0
vn 0 1 0
vn 0.006570434 0.9999784 6.307988E-07
vn 0.006570422 0.9999784 6.467139E-07
vn 0.006570422 0.9999784 6.467139E-07
vn 0.00657041 0.9999784 6.626291E-07
vn 1.808239E-06 1 6.266957E-07
vn 1.700875E-06 1 5.718407E-07
vn 1.700875E-06 1 5.718407E-07
vn 1.593512E-06 1 5.169857E-07
vn 0.001335896 0.9999788 0.006375363
vn 0.0009874622 0.9999793 0.006343953
vn 0.0009874622 0.9999793 0.006343953
vn 0.0006390287 0.9999799 0.006312543
vn 0.9899495 1.088923E-06 0.1414214
vn 0.9899495 1.154602E-06 0.1414215
vn 0.9899495 1.088923E-06 0.1414214
vn 0.9899495 1.023245E-06 0.1414214
vn 0.9899495 9.348315E-07 -0.1414213
vn 0.9899495 1.036983E-06 -0.1414212
vn 0.9899495 9.348315E-07 -0.1414213
vn 0.9899495 8.3268E-07 -0.1414214
vn 0.9701425 0 -0.2425356
vn 0.9701425 0 -0.2425356
vn 0.9701425 0 -0.2425356
vn 0.9701425 0 -0.2425356
vn 1 0 0
vn 1 0 0
vn 1 0 0
vn 1 0 0
vn -0.9363291 -8.90937E-08 0.3511235
vn -0.9363291 -8.90937E-08 0.3511235
vn -0.9363292 -1.868486E-07 0.3511235
vn -0.9363291 8.66117E-09 0.3511236
vn -0.9761871 -1.615846E-07 -0.2169305
vn -0.9761871 -1.615846E-07 -0.2169305
vn -0.9761871 -1.364507E-07 -0.2169305
vn -0.9761871 -1.867185E-07 -0.2169305
vn -1 0 0
vn -1 0 0
vn -1 0 0
vn -1 0 0
vn -0.9486833 0 -0.3162278
vn -0.9486833 0 -0.3162278
vn -0.9486833 0 -0.3162278
vn -0.9486833 0 -0.3162278
vn 0.274721 6.423273E-07 0.961524
vn 0.2747209 7.663396E-07 0.961524
vn 0.274721 6.423273E-07 0.961524
vn 0.2747211 5.183151E-07 0.961524
vn 0.1414215 5.752793E-07 0.9899495
vn 0.1414216 4.213362E-07 0.9899494
vn 0.1414215 5.752793E-07 0.9899495
vn 0.1414213 7.292225E-07 0.9899495
vn -0.164399 0 0.9863939
vn -0.164399 0 0.9863939
vn -0.164399 0 0.9863939
vn -0.164399 0 0.9863939
vn 0.4472136 0 0.8944272
vn 0.4472136 0 0.8944272
vn 0.4472136 0 0.8944272
vn 0.4472136 0 0.8944272
vn -0.1240347 8.739941E-08 -0.9922779
vn -0.1240347 8.739941E-08 -0.9922779
vn -0.1240347 1.206857E-07 -0.9922779
vn -0.1240347 5.411317E-08 -0.9922779
vn 0.1414213 3.339214E-07 -0.9899495
vn 0.1414213 3.339214E-07 -0.9899495
vn 0.1414213 3.084922E-07 -0.9899495
vn 0.1414213 3.593505E-07 -0.9899495
vn -0.2425356 0 -0.9701425
vn -0.2425356 0 -0.9701425
vn -0.2425356 0 -0.9701425
vn -0.2425356 0 -0.9701425
vn 0.2425356 0 -0.9701425
vn 0.2425356 0 -0.9701425
vn 0.2425356 0 -0.9701425
vn 0.2425356 0 -0.9701425
vn 0.02951314 0.01061301 -0.9995081
vn 0.02951314 0.01061301 -0.9995081
vn 0.02951314 0.01061301 -0.9995081
vn 0.02951314 0.01061302 -0.9995081
vn 5.113903E-07 4.265218E-07 -1
vn 3.849152E-07 6.354024E-07 -1
vn 3.849152E-07 6.354024E-07 -1
vn 2.584401E-07 8.442831E-07 -1
vn -0.9851878 0.01326525 0.170965
vn -0.9851878 0.01326529 0.170965
vn -0.9851878 0.01326525 0.170965
vn -0.9851878 0.01326521 0.1709651
vn -0.9863939 5.001097E-07 0.1643988
vn -0.9863939 4.110274E-07 0.1643989
vn -0.9863939 4.110274E-07 0.1643989
vn -0.9863939 3.21945E-07 0.1643989
vn 0.9701425 -1.194899E-06 -0.2425356
vn 0.9701425 -1.061921E-06 -0.2425357
vn 0.9701425 -1.061921E-06 -0.2425357
vn 0.9701425 -9.28942E-07 -0.2425358
vn 0.9701425 -1.04621E-06 -0.2425359
vn 0.9701424 -8.975207E-07 -0.2425359
vn 0.4472136 -1.84523E-06 0.8944272
vn 0.4472136 -1.938891E-06 0.8944272
vn 0.4472136 -1.84523E-06 0.8944272
vn 0.4472135 -1.75157E-06 0.8944272
vn 0.4472134 -1.801441E-06 0.8944273
vn 0.4472134 -1.663991E-06 0.8944273
vn -0.9987631 0.01344812 0.04786884
vn -0.9987533 0.01303472 0.04818445
vn -0.9987533 0.01303472 0.04818445
vn -0.9987434 0.01262132 0.04850007
vn 1 -1.168604E-06 1.629835E-06
vn 1 -1.756335E-06 1.138014E-06
vn 1 -1.756335E-06 1.138014E-06
vn 1 -2.344066E-06 6.46192E-07
vn 0 -1 -4.846449E-07
vn 6.879917E-09 -1 -4.753215E-07
vn 6.879917E-09 -1 -4.753215E-07
vn 1.375983E-08 -1 -4.65998E-07
vn -1.121649E-06 -1 1.869414E-07
vn -1.135185E-06 -1 1.931427E-07
vn -1.135185E-06 -1 1.931427E-07
vn -1.148721E-06 -1 1.993439E-07
vn -1.043427E-06 -1 -4.659987E-07
vn -1.110867E-06 -1 -4.258405E-07
vn 2.274269E-06 0.01061766 -0.9999437
vn 2.055622E-06 0.0106175 -0.9999436
vn 2.055622E-06 0.0106175 -0.9999436
vn 1.836975E-06 0.01061734 -0.9999436
vn 0.2008899 -1.692076E-06 0.9796138
vn 0.2028984 -0.001380743 0.9791957
vn 0.2028984 -0.001380743 0.9791957
vn 0.204907 -0.002759795 0.9787776
vt -9.377393 3.982453
vt -12.53814 -0.01580702
vt -11.61262 6.993666
vt -8.412697 -0.004625894
vt -12.53814 -0.01580702
vt -8.412697 -0.004625894
vt -8.402013 -3.003688
vt -11.56276 -7.001956
vt 6.6216 2.039657
vt 0.5558971 -2.951334
vt 1.534662 0.04394691
vt 4.656625 -6.950954
vt 3.727452 10.05406
vt 6.6216 2.039657
vt 1.547062 5.044023
vt 1.534662 0.04394691
vt 2.817522 10.5344
vt 0.8715186 5.41036
vt -4.127157 8.322516
vt -5.125461 6.349735
vt -4.127157 8.322516
vt -9.121979 4.355253
vt -11.17249 7.48481
vt -7.844031 -3.130018
vt -3.853806 -4.116408
vt -3.856264 -8.110579
vt -10.78382 -7.177341
vt 0.1376485 -3.10571
vt 4.181826 -7.131762
vt -3.856264 -8.110579
vt -4.033204 0.02751319
vt -8.033117 -2.972667
vt -8.033551 0.02751521
vt -4.032626 -3.972729
vt 0.9672281 0.02751264
vt -0.03242229 -2.972667
vt -5.034158 6.02788
vt -9.034215 4.027758
vt 0.9665055 5.027819
vt 11 -7
vt 8 -3
vt 12 0
vt 8 0
vt 9 4
vt 11 7
vt -1 5
vt -1 0
vt -6 2
vt -3 10
vt 0 -3
vt -4 -7
vt 5 6
vt 4 8
vt 4 -4
vt 4 -8
vt 7.856133 -0.1210539
vt 3.855785 -0.121056
vt 4.856739 5.879313
vt 8.856799 3.879191
vt 4 0
vt -1 0
vt -1 5
vt 5 6
vt 8 -3
vt 4 -4
vt 8 0
vt 0 -3
vt 3.944234 -4.306743E-06
vt 7.944322 -3.295172E-06
vt 3.944236 -3.04351
vt 7.944326 -2.925678
vt 3.999987 -4.255513E-06
vt 3.999989 -3.04351
vt 2.360404 0.16552
vt 2.20457 -3.043514
vt 4.988729 5.946064
vt 3.988677 -0.05406113
vt 3.418162 6.274868
vt 2.349096 0.1114737
vt 7 -3.722126
vt 5.630312E-06 -3.658224
vt -1.896608E-06 2.999987
vt 6.999998 2.999988
vt 5.630312E-06 -3.658224
vt -7.000003 -3.568038
vt -7.000002 2.999988
vt -1.896608E-06 2.999987
vt 5.069679 3
vt 0.977466 3
vt 0.977466 6
vt 5.069679 6
vt 0.977466 3
vt -2.000057 3
vt -2.000057 6
vt 0.977466 6
vt -1.575133 3.000001
vt -9.765497 -3.571152
vt -9.765493 3.000001
vt -1.575135 -3.443678
vt 7.262806 3
vt -1.575135 -3.443678
vt -1.575133 3.000001
vt 7.262807 -3.370904
vt -0.1601823 6
vt -5.09562 3
vt -5.09562 6
vt -0.1601823 3
vt 2.961262 6
vt -0.1601823 3
vt -0.1601823 6
vt 2.961262 3
vt 5.01959 -3.571159
vt -2.243594 -2.640989
vt -2.243593 2.999995
vt 5.019592 2.999995
vt -2.243594 -2.640989
vt -9.298227 -3.722119
vt -9.298222 2.999995
vt -2.243593 2.999995
vt 1.732363 3
vt -4.052239 3
vt -4.052239 6
vt 1.732363 6
vt -4.052239 3
vt -8.305162 3
vt -8.305162 6
vt -4.052239 6
vt 3.929679 2.999998
vt -4.061241 -3.370906
vt -4.061243 2.999999
vt 3.929684 -2.464884
vt 10.93818 2.999999
vt 3.929684 -2.464884
vt 3.929679 2.999998
vt 10.93819 -3.568027
vt 4 6
vt 0 3
vt 0 6
vt 4 3
vt 8 6
vt 4 3
vt 4 6
vt 8 3
vt 3.908433 8.440511
vt 7.910172 8.414227
vt 3.907655 5.965845
vt 7.909399 5.965845
vt 4.000003 10.94905
vt 8.000006 10.89649
vt 4.000002 8.474525
vt 8.000003 8.448243
vt -6.821972 8.464664
vt -0.5666726 8.504258
vt -0.5609747 6.029514
vt -6.816364 6.029514
vt -0.657598 10.94905
vt -0.6575967 8.474527
vt -6.740366 10.86987
vt -6.740362 8.434938
vt 6.063391 6.000009
vt 1.940286 6.000009
vt 6.063396 8.41967
vt 1.940288 8.448253
vt 6.063399 10.83933
vt 1.940291 10.8965
vt -1.788855 6.000015
vt -6.260991 6.000015
vt -6.260993 8.419675
vt -1.788855 8.434951
vt -6.260995 10.83933
vt -1.788855 10.86989
vt -0.2767402 6.030612
vt -0.2783363 8.505363
vt 2.962281 6.030613
vt 2.934479 8.505337
vt -1.097168E-05 8.448253
vt -1.303868E-05 6.00001
vt -2.925686 8.448255
vt -2.951683 6.000011
vt -8 -2.907869E-06
vt -4 -2.907869E-06
vt -8.000002 -2.951672
vt -4.000002 -3.069783
vt -3.999993 1.121649E-06
vt -4.999993 6.000001
vt -2.327094 0.1655254
vt -3.396641 6.328801
vt -3.999996 -3.069783
vt -2.172032 -3.069786
vt 3.999997 8.441734
vt 3.999995 5.967069
vt 2.204578 8.441737
vt 2.172031 5.967071
vt -3.69273 6.000011
vt -3.692731 8.434948
vt -2.056011 6.000013
vt -2.088129 8.43495
g submesh0
f 1/1/1 2/2/2 3/3/3
f 1/1/1 4/4/4 2/2/2
f 5/5/5 6/6/6 7/7/7
f 5/5/5 7/7/7 8/8/8
f 9/9/9 10/10/10 11/11/11
f 9/9/9 12/12/12 10/10/10
f 13/13/13 14/14/14 15/15/15
f 14/14/14 16/16/16 15/15/15
f 17/17/17 18/18/18 19/19/19
f 18/18/18 20/20/20 19/19/19
f 21/21/21 22/22/22 23/23/23
f 21/21/21 20/20/20 22/22/22
f 24/24/24 25/25/25 26/26/26
f 27/27/27 24/24/24 26/26/26
f 28/28/28 29/29/29 30/30/30
f 28/28/28 30/30/30 25/25/25
f 31/31/31 32/32/32 33/33/33
f 31/31/31 34/34/34 32/32/32
f 35/35/35 34/34/34 31/31/31
f 35/35/35 36/36/36 34/34/34
f 37/37/37 33/33/33 38/38/38
f 37/37/37 31/31/31 33/33/33
f 39/39/39 31/31/31 37/37/37
f 39/39/39 35/35/35 31/31/31
g submesh1
f 40/40/40 41/41/41 42/42/42
f 41/41/41 43/43/43 42/42/42
f 42/42/42 43/43/43 44/44/44
f 45/45/45 42/42/42 44/44/44
f 46/46/46 47/47/47 48/48/48
f 46/46/46 48/48/48 49/49/49
f 50/50/50 51/51/51 48/48/48
f 47/47/47 50/50/50 48/48/48
f 44/44/44 52/52/52 53/53/53
f 45/45/45 44/44/44 53/53/53
f 53/53/53 52/52/52 46/46/46
f 53/53/53 46/46/46 49/49/49
f 54/54/54 55/55/55 50/50/50
f 55/55/55 51/51/51 50/50/50
f 55/55/55 41/41/41 40/40/40
f 55/55/55 54/54/54 41/41/41
f 56/56/56 57/57/57 58/58/58
f 59/59/59 56/56/56 58/58/58
f 60/60/60 61/61/61 62/62/62
f 63/63/63 60/60/60 62/62/62
f 64/64/64 65/65/65 60/60/60
f 66/66/66 64/64/64 60/60/60
f 65/65/65 67/67/67 61/61/61
f 60/60/60 65/65/65 61/61/61
f 68/68/68 69/69/69 70/70/70
f 69/69/69 71/71/71 70/70/70
f 72/72/72 73/73/73 74/74/74
f 73/73/73 75/75/75 74/74/74
f 76/76/76 77/77/77 78/78/78
f 77/77/77 79/79/79 78/78/78
g submesh2
f 80/80/80 81/81/81 82/82/82
f 83/83/83 80/80/80 82/82/82
f 84/84/84 85/85/85 86/86/86
f 87/87/87 84/84/84 86/86/86
f 88/88/88 89/89/89 90/90/90
f 91/91/91 88/88/88 90/90/90
f 92/92/92 93/93/93 94/94/94
f 95/95/95 92/92/92 94/94/94
f 96/96/96 97/97/97 98/98/98
f 96/96/96 99/99/99 97/97/97
f 100/100/100 101/101/101 102/102/102
f 100/100/100 103/103/103 101/101/101
f 104/104/104 105/105/105 106/106/106
f 104/104/104 107/107/107 105/105/105
f 108/108/108 109/109/109 110/110/110
f 108/108/108 111/111/111 109/109/109
f 112/112/112 113/113/113 114/114/114
f 115/115/115 112/112/112 114/114/114
f 116/116/116 117/117/117 118/118/118
f 119/119/119 116/116/116 118/118/118
f 120/120/120 121/121/121 122/122/122
f 123/123/123 120/120/120 122/122/122
f 124/124/124 125/125/125 126/126/126
f 127/127/127 124/124/124 126/126/126
f 128/128/128 129/129/129 130/130/130
f 128/128/128 131/131/131 129/129/129
f 132/132/132 133/133/133 134/134/134
f 132/132/132 135/135/135 133/133/133
f 136/136/136 137/137/137 138/138/138
f 136/136/136 139/139/139 137/137/137
f 140/140/140 141/141/141 142/142/142
f 140/140/140 143/143/143 141/141/141
f 144/144/144 145/145/145 146/146/146
f 146/146/146 145/145/145 147/147/147
f 148/148/148 149/149/149 150/150/150
f 149/149/149 151/151/151 150/150/150
f 152/152/152 153/153/153 154/154/154
f 152/152/152 154/154/154 155/155/155
f 156/156/156 157/157/157 158/158/158
f 157/157/157 159/159/159 158/158/158
f 160/160/160 161/161/161 162/162/162
f 161/161/161 163/163/163 162/162/162
f 164/164/164 162/162/162 163/163/163
f 164/164/164 163/163/163 165/165/165
f 166/166/166 167/167/167 168/168/168
f 166/166/166 168/168/168 169/169/169
f 169/169/169 168/168/168 170/170/170
f 171/171/171 169/169/169 170/170/170
f 172/172/172 173/173/173 174/174/174
f 173/173/173 175/175/175 174/174/174
f 176/176/176 177/177/177 178/178/178
f 177/177/177 179/179/179 178/178/178
f 180/180/180 181/181/181 182/182/182
f 181/181/181 183/183/183 182/182/182
f 184/184/184 185/185/185 186/186/186
f 185/185/185 187/187/187 186/186/186
f 188/188/188 184/184/184 189/189/189
f 184/184/184 186/186/186 189/189/189
f 190/190/190 191/191/191 192/192/192
f 191/191/191 193/193/193 192/192/192
f 194/194/194 195/195/195 196/196/196
f 195/195/195 197/197/197 196/196/196
