v -1.25 -3.199741E-07 2.02071
v 2.5 -3.199741E-07 2.02071
v -1.25 0.2500009 2.165044
v 2.5 0.2500009 2.165044
v 2.5 -3.199741E-07 2.02071
v 2.499996 1.38908E-06 -8.202609
v 2.5 0.2500009 2.165044
v 2.499998 0.2499987 -8.058878
v 2.499996 1.38908E-06 -8.202609
v -1.250004 -1.175152E-06 -8.021041
v 2.499998 0.2499987 -8.058878
v -1.250006 0.2499993 -7.877308
v -1.250004 -1.175152E-06 -8.021041
v -1.25 -3.199741E-07 2.02071
v -1.250006 0.2499993 -7.877308
v -1.25 0.2500009 2.165044
v -1.25 0.2500009 2.165044
v 2.5 0.2500009 2.165044
v -1.250006 0.2499993 -7.877308
v 2.499998 0.2499987 -8.058878
v -1.250004 -1.175152E-06 -8.021041
v 2.499996 1.38908E-06 -8.202609
v -1.25 -3.199741E-07 2.02071
v 2.5 -3.199741E-07 2.02071
vn 0 -0.4999886 0.8660321
vn 0 -0.4999886 0.8660321
vn 0 -0.4999886 0.8660321
vn 0 -0.4999886 0.8660321
vn 1 2.15424E-07 -3.731368E-07
vn 1 -2.686306E-06 -3.031662E-07
vn 1 -2.686306E-06 -3.031662E-07
vn 1 -5.588036E-06 -2.331956E-07
vn -0.04193868 0.4979876 -0.8661695
vn -0.04193868 0.4979875 -0.8661695
vn -0.04193868 0.4979875 -0.8661695
vn -0.04193867 0.4979874 -0.8661696
vn -1 -9.741484E-06 3.561418E-07
vn -1 -5.042075E-06 4.748373E-07
vn -1 -5.042075E-06 4.748373E-07
vn -1 -3.426658E-07 5.935328E-07
vn 0 1 -1.5877E-07
vn 7.038287E-08 1 -1.850523E-07
vn 7.038287E-08 1 -1.850523E-07
vn 1.407657E-07 1 -2.113346E-07
vn 6.879189E-07 -1 8.516202E-08
vn 3.439595E-07 -1 -4.100508E-08
vn 3.439595E-07 -1 -4.100508E-08
vn 0 -1 -1.671722E-07
vt 1.25 1.010332
vt -2.5 1.010332
vt 1.25 1.299006
vt -2.5 1.299006
vt 2.020711 -8.585341E-07
vt -8.202608 8.505205E-07
vt 2.165045 0.2500003
vt -8.058877 0.2499982
vt 2.893765 -4.019808
vt -0.8606281 -4.019811
vt 2.886815 -3.731521
vt -0.8675817 -3.731521
vt 8.021041 1.100171E-05
vt -2.02071 1.185689E-05
vt 7.877308 0.2500114
vt -2.165044 0.2500131
vt -1.25 2.165044
vt 2.5 2.165044
vt -1.250006 -7.877308
vt 2.499998 -8.058878
vt 1.250004 -8.021041
vt -2.499996 -8.202609
vt 1.25 2.02071
vt -2.5 2.02071
g submesh0
f 1/1/1 2/2/2 3/3/3
f 2/2/2 4/4/4 3/3/3
f 5/5/5 6/6/6 7/7/7
f 6/6/6 8/8/8 7/7/7
f 9/9/9 10/10/10 11/11/11
f 10/10/10 12/12/12 11/11/11
f 13/13/13 14/14/14 15/15/15
f 14/14/14 16/16/16 15/15/15
f 17/17/17 18/18/18 19/19/19
f 18/18/18 20/20/20 19/19/19
f 21/21/21 22/22/22 23/23/23
f 22/22/22 24/24/24 23/23/23
