v 0.7499996 -3 0.2499999
v 0.9999996 -3 0.2499998
v 0.7499996 18 0.2499983
v 0.9999996 18 0.2499986
v 0.9999996 -3 0.2499998
v 0.9999995 -3 -2.384186E-07
v 0.9999996 18 0.2499986
v 0.9999994 18 -1.400706E-06
v 0.9999995 -3 -2.384186E-07
v 0.7499995 -3 -1.490116E-07
v 0.9999994 18 -1.400706E-06
v 0.7499994 18 -1.691279E-06
v -1 -3 4.768372E-07
v -1 -3 0.2500005
v -1.000001 18 8.941005E-08
v -1 18 0.2500001
v 0.7499996 18 0.2499983
v 0.9999996 18 0.2499986
v 0.7499994 18 -1.691279E-06
v 0.9999994 18 -1.400706E-06
v 0.7499995 -3 -1.490116E-07
v 0.9999995 -3 -2.384186E-07
v 0.7499996 -3 0.2499999
v 0.9999996 -3 0.2499998
v -0.7500005 -3 3.874302E-07
v -0.7500004 -3 0.2500004
v -1 -3 4.768372E-07
v -1 -3 0.2500005
v -0.7500007 18 3.799827E-07
v -0.7500005 -3 3.874302E-07
v -1.000001 18 8.941005E-08
v -1 -3 4.768372E-07
v -0.7500004 -3 0.2500004
v -0.7500004 18 0.2500004
v -1 -3 0.2500005
v -1 18 0.2500001
v -0.7500004 18 0.2500004
v -0.7500007 18 3.799827E-07
v -1 18 0.2500001
v -1.000001 18 8.941005E-08
v 0.7499996 -3 0.2499999
v 0.7499996 18 0.2499983
v 0.7499995 -3 -1.490116E-07
v 0.7499994 18 -1.691279E-06
v -0.7500004 18 0.2500004
v -0.7500004 -3 0.2500004
v -0.7500007 18 3.799827E-07
v -0.7500005 -3 3.874302E-07
v 0.7499996 -3 0.1249999
v 0.7499992 18 0.1249983
v -0.7500004 -3 0.1250004
v -0.7500008 18 0.1250004
vn 3.576279E-07 7.308665E-08 1
vn -3.874302E-07 6.421691E-08 1
vn -3.874302E-07 6.421691E-08 1
vn -1.132488E-06 5.534717E-08 1
vn 1 2.83829E-09 -4.768372E-07
vn 1 4.257442E-09 -5.960464E-07
vn 1 4.257442E-09 -5.960464E-07
vn 1 5.676593E-09 -7.152557E-07
vn -3.576279E-07 -5.534702E-08 -1
vn 4.023314E-07 -6.439416E-08 -1
vn 4.023314E-07 -6.439416E-08 -1
vn 1.162291E-06 -7.344129E-08 -1
vn -1 -5.676624E-09 4.768372E-07
vn -1 -5.676624E-09 4.768372E-07
vn -1 -5.676624E-09 4.768372E-07
vn -1 -5.676624E-09 4.768372E-07
vn 0 1 0
vn 0 1 0
vn 0 1 0
vn 0 1 0
vn 0 -1 0
vn 0 -1 0
vn 0 -1 0
vn 0 -1 0
vn 0 -1 0
vn 0 -1 0
vn 0 -1 0
vn 0 -1 0
vn 1.162291E-06 -3.546335E-10 -1
vn 4.023315E-07 -9.401774E-09 -1
vn 4.023315E-07 -9.401774E-09 -1
vn -3.576279E-07 -1.844891E-08 -1
vn 3.576279E-07 1.015061E-15 1
vn -4.172323E-07 9.224525E-09 1
vn -4.172323E-07 9.224525E-09 1
vn -1.192093E-06 1.844905E-08 1
vn 0 1 0
vn 0 1 0
vn 0 1 0
vn 0 1 0
vn -1 -2.838282E-09 4.768372E-07
vn -1 -4.257431E-09 5.960464E-07
vn -1 -4.257431E-09 5.960464E-07
vn -1 -5.676581E-09 7.152557E-07
vn 1 2.838316E-09 -9.536743E-07
vn 1 5.676633E-09 -7.152557E-07
vn 1 5.676633E-09 -7.152557E-07
vn 1 8.51495E-09 -4.768372E-07
vn 3.576279E-07 7.344144E-08 1
vn 8.717179E-07 3.672073E-08 1
vn 8.717179E-07 3.672073E-08 1
vn 1.385808E-06 2.360017E-14 1
vt -0.7499996 -3
vt -0.9999996 -3
vt -0.7499995 18
vt -0.9999995 18
vt -1.875 -3
vt -2.125 -3
vt -1.875001 18
vt -2.125001 18
vt 0.9999995 -3
vt 0.7499995 -3
vt 0.9999994 18
vt 0.7499994 18
vt 2.125 -3
vt 1.875 -3
vt 2.125 18
vt 1.875 18
vt 0.7499996 -1.875002
vt 0.9999996 -1.875001
vt 0.7499994 -2.125002
vt 0.9999994 -2.125001
vt -0.7499995 -2.125
vt -0.9999995 -2.125
vt -0.7499996 -1.875
vt -0.9999996 -1.875
vt 0.7500005 -2.125
vt 0.7500004 -1.875
vt 1 -2.125
vt 1 -1.875
vt -0.7500007 18
vt -0.7500005 -3
vt -1.000001 18
vt -1 -3
vt 0.7500005 -3
vt 0.7500005 18
vt 1 -3
vt 1.000001 18
vt -0.7500004 -1.875
vt -0.7500007 -2.125
vt -1 -1.875
vt -1.000001 -2.125
vt 1.875 -3
vt 1.875001 18
vt 2.125 -3
vt 2.125001 18
vt -1.875 18
vt -1.875 -3
vt -2.125 18
vt -2.125 -3
vt -0.7499995 -3
vt -0.7499992 18
vt 0.7500005 -3
vt 0.7500008 18
g submesh0
f 1/1/1 2/2/2 3/3/3
f 2/2/2 4/4/4 3/3/3
f 5/5/5 6/6/6 7/7/7
f 6/6/6 8/8/8 7/7/7
f 9/9/9 10/10/10 11/11/11
f 10/10/10 12/12/12 11/11/11
f 13/13/13 14/14/14 15/15/15
f 14/14/14 16/16/16 15/15/15
f 17/17/17 18/18/18 19/19/19
f 18/18/18 20/20/20 19/19/19
f 21/21/21 22/22/22 23/23/23
f 22/22/22 24/24/24 23/23/23
f 25/25/25 26/26/26 27/27/27
f 26/26/26 28/28/28 27/27/27
f 29/29/29 30/30/30 31/31/31
f 30/30/30 32/32/32 31/31/31
f 33/33/33 34/34/34 35/35/35
f 34/34/34 36/36/36 35/35/35
f 37/37/37 38/38/38 39/39/39
f 38/38/38 40/40/40 39/39/39
f 41/41/41 42/42/42 43/43/43
f 42/42/42 44/44/44 43/43/43
f 45/45/45 46/46/46 47/47/47
f 46/46/46 48/48/48 47/47/47
g submesh1
f 49/49/49 50/50/50 51/51/51
f 50/50/50 52/52/52 51/51/51
