v 0.7499996 -4 0.2499999
v 0.9999996 -4 0.2499997
v 0.7499996 7 0.2499999
v 0.9999996 7 0.2499997
v 0.9999996 -4 0.2499997
v 1 -4 -2.980222E-07
v 0.9999996 7 0.2499997
v 0.9999995 7 -2.980215E-07
v 1 -4 -2.980222E-07
v 0.7500004 -4 -1.043071E-07
v 0.9999995 7 -2.980215E-07
v 0.7499995 7 -1.043064E-07
v -1 -4 5.364429E-07
v -0.9999999 -4 0.2500005
v -1 7 5.364429E-07
v -0.9999999 7 0.2500005
v 0.7499996 7 0.2499999
v 0.9999996 7 0.2499997
v 0.7499995 7 -1.043064E-07
v 0.9999995 7 -2.980215E-07
v 0.7500004 -4 -1.043071E-07
v 1 -4 -2.980222E-07
v 0.7499996 -4 0.2499999
v 0.9999996 -4 0.2499997
v -0.7500001 -4 3.427279E-07
v -0.7499999 -4 0.2500004
v -1 -4 5.364429E-07
v -0.9999999 -4 0.2500005
v -0.7500001 7 3.427279E-07
v -0.7500001 -4 3.427279E-07
v -1 7 5.364429E-07
v -1 -4 5.364429E-07
v -0.7499999 -4 0.2500004
v -0.7499999 7 0.2500004
v -0.9999999 -4 0.2500005
v -0.9999999 7 0.2500005
v -0.7499999 7 0.2500004
v -0.7500001 7 3.427279E-07
v -0.9999999 7 0.2500005
v -1 7 5.364429E-07
v 0.7499996 -4 0.2499999
v 0.7499996 7 0.2499999
v 0.7500004 -4 -1.043071E-07
v 0.7499995 7 -1.043064E-07
v -0.7499999 7 0.2500004
v -0.7499999 -4 0.2500004
v -0.7500001 7 3.427279E-07
v -0.7500001 -4 3.427279E-07
v 0.7499996 -4 0.1249999
v 0.7499996 7 0.1249999
v -0.7499999 -4 0.1250003
v -0.7499999 7 0.1250003
vn 7.748604E-07 0 1
vn 7.748604E-07 0 1
vn 7.748604E-07 0 1
vn 7.748604E-07 0 1
vn 1 0 3.33786E-06
vn 1 4.605813E-08 1.311302E-06
vn 1 4.605813E-08 1.311302E-06
vn 1 9.211627E-08 -7.152557E-07
vn -7.748601E-07 -4.198634E-15 -1
vn -7.748602E-07 -2.099312E-15 -1
vn -7.748602E-07 -2.099312E-15 -1
vn -7.748603E-07 9.856384E-21 -1
vn -1 0 9.536743E-07
vn -1 0 9.536743E-07
vn -1 0 9.536743E-07
vn -1 0 9.536743E-07
vn 0 1 0
vn 0 1 0
vn 0 1 0
vn 0 1 0
vn 0 -1 0
vn 0 -1 0
vn 0 -1 0
vn 0 -1 0
vn 0 -1 0
vn 0 -1 0
vn 0 -1 0
vn 0 -1 0
vn -7.748599E-07 0 -1
vn -7.748599E-07 0 -1
vn -7.748599E-07 0 -1
vn -7.748599E-07 0 -1
vn 7.152557E-07 0 1
vn 7.152557E-07 0 1
vn 7.152557E-07 0 1
vn 7.152557E-07 0 1
vn 0 1 0
vn 0 1 0
vn 0 1 0
vn 0 1 0
vn -1 0 -3.099442E-06
vn -1 -4.334883E-08 -1.192093E-06
vn -1 -4.334883E-08 -1.192093E-06
vn -1 -8.669767E-08 7.152557E-07
vn 1 0 -7.152557E-07
vn 1 0 -7.152557E-07
vn 1 0 -7.152557E-07
vn 1 0 -7.152557E-07
vn 2.980233E-07 0 1
vn 2.980233E-07 0 1
vn 2.980233E-07 0 1
vn 2.980233E-07 0 1
vt -0.7499995 -4
vt -0.9999995 -4
vt -0.7499995 7
vt -0.9999995 7
vt -1.875004 -4
vt -2.125004 -4
vt -1.875004 7
vt -2.125004 7
vt 1 -4
vt 0.7500004 -4
vt 0.9999995 7
vt 0.7499995 7
vt 2.125 -4
vt 1.875 -4
vt 2.125 7
vt 1.875 7
vt 0.7499996 -1.875
vt 0.9999996 -1.875
vt 0.7499995 -2.125
vt 0.9999995 -2.125
vt -0.7500004 -2.125
vt -1 -2.125
vt -0.7499996 -1.875
vt -0.9999996 -1.875
vt 0.7500001 -2.125
vt 0.7499999 -1.875
vt 1 -2.125
vt 0.9999999 -1.875
vt -0.7500001 7
vt -0.7500001 -4
vt -1 7
vt -1 -4
vt 0.7500001 -4
vt 0.7500001 7
vt 1 -4
vt 1 7
vt -0.7499999 -1.875
vt -0.7500001 -2.125
vt -0.9999999 -1.875
vt -1 -2.125
vt 1.875002 -4
vt 1.875002 7
vt 2.125002 -4
vt 2.125002 7
vt -1.875 7
vt -1.875 -4
vt -2.125 7
vt -2.125 -4
vt -0.7499995 -4
vt -0.7499995 7
vt 0.75 -4
vt 0.75 7
g submesh0
f 1/1/1 2/2/2 3/3/3
f 2/2/2 4/4/4 3/3/3
f 5/5/5 6/6/6 7/7/7
f 6/6/6 8/8/8 7/7/7
f 9/9/9 10/10/10 11/11/11
f 10/10/10 12/12/12 11/11/11
f 13/13/13 14/14/14 15/15/15
f 14/14/14 16/16/16 15/15/15
f 17/17/17 18/18/18 19/19/19
f 18/18/18 20/20/20 19/19/19
f 21/21/21 22/22/22 23/23/23
f 22/22/22 24/24/24 23/23/23
f 25/25/25 26/26/26 27/27/27
f 26/26/26 28/28/28 27/27/27
f 29/29/29 30/30/30 31/31/31
f 30/30/30 32/32/32 31/31/31
f 33/33/33 34/34/34 35/35/35
f 34/34/34 36/36/36 35/35/35
f 37/37/37 38/38/38 39/39/39
f 38/38/38 40/40/40 39/39/39
f 41/41/41 42/42/42 43/43/43
f 42/42/42 44/44/44 43/43/43
f 45/45/45 46/46/46 47/47/47
f 46/46/46 48/48/48 47/47/47
g submesh1
f 49/49/49 50/50/50 51/51/51
f 50/50/50 52/52/52 51/51/51
