v 10 0 6
v 10 0 -2
v 10 1 -2
v 10 1 6
v -1 4.5 -2
v 0 0 4
v -1 4.5 4
v 0 0 -2
v 10 1.5 -2
v 10 1.5 6
v 10 2 -2
v 10 2 6
v -3 6.75 -2
v -1 4.5 4
v -3 6.75 4
v -1 4.5 -2
v -3 9 -2
v -3 6.75 4
v -3 9 4
v -3 6.75 -2
v 3.5 5.5 -2
v -3 9 -2
v -3 9 4
v 3.5 5.5 5
v 10 2 -2
v 10 2 6
v 0 0 4
v 5 0 -2
v 4 0 7
v 0 0 -2
v 10 0 -2
v 10 0 6
v -1 4.5 4
v 0 0 4
v 4 2 7
v 4 0 7
v 4 0 7
v 10 0 6
v 10 1 6
v 4 2 7
v 4.5 2.75 -2
v 5 0 -2
v 0 0 -2
v -1 4.5 -2
v 10 1 -2
v 10 0 -2
v 10 1.5 6
v 4 2 7
v 3.5 4.125 5
v -3 6.75 4
v -1 4.5 4
v 3.5 4.125 5
v 4 2 7
v 10 1.5 6
v 10 2 6
v 3.5 4.125 5
v 3.5 5.5 5
v -3 6.75 4
v -3 9 4
v 3.5 4.125 -2
v -3 6.75 -2
v 10 1.5 -2
v 3.5 5.5 -2
v -3 9 -2
v 10 2 -2
vn 1 0 0
vn 1 0 0
vn 1 0 0
vn 1 0 0
vn -0.9761871 -0.2169304 0
vn -0.9761871 -0.2169304 0
vn -0.9761871 -0.2169304 0
vn -0.9761871 -0.2169304 0
vn 1 0 0
vn 1 0 0
vn 1 0 0
vn 1 0 0
vn -0.7474093 -0.6643639 0
vn -0.7474093 -0.6643639 0
vn -0.7474093 -0.6643639 0
vn -0.7474093 -0.6643639 0
vn -1 0 0
vn -1 0 0
vn -1 0 0
vn -1 0 0
vn 0.4740998 0.8804711 0
vn 0.4740998 0.8804711 0
vn 0.4740998 0.8804711 0
vn 0.4740998 0.8804711 0
vn 0.4740998 0.8804711 0
vn 0.4740998 0.8804711 0
vn 0 -1 0
vn 0 -1 0
vn 0 -1 0
vn 0 -1 0
vn 0 -1 0
vn 0 -1 0
vn -0.5551984 -0.1233774 0.8225161
vn -0.5775992 -0.06168871 0.8112581
vn -0.5775992 -0.06168871 0.8112581
vn -0.6 0 0.8
vn 0.164399 0 0.9863939
vn 0.164399 0 0.9863939
vn 0.164399 0 0.9863939
vn 0.164399 0 0.9863939
vn 0 0 -1
vn 0 0 -1
vn 0 0 -1
vn 0 0 -1
vn 0 0 -1
vn 0 0 -1
vn 0.1692383 0.3481553 0.8413523
vn 0.1692383 0.3481553 0.8413523
vn 0.1740777 0.6963106 0.6963106
vn -0.2285081 -0.2031183 0.9521171
vn -0.1682639 0.2323202 0.8443078
vn -0.1682639 0.2323202 0.8443078
vn -0.1080198 0.6677586 0.7364985
vn -0.1520572 0 0.9883717
vn -0.1520572 0 0.9883717
vn -0.1520572 0 0.9883717
vn -0.1520572 0 0.9883717
vn -0.1520572 0 0.9883717
vn -0.1520572 0 0.9883717
vn 0 0 -1
vn 0 0 -1
vn 0 0 -1
vn 0 0 -1
vn 0 0 -1
vn 0 0 -1
vt 6 0
vt -2 0
vt -2 1
vt 6 1
vt 2 4.589302
vt -4 0
vt -4 4.589302
vt 2 0
vt -2 1.5
vt 6 1.5
vt -2 2
vt 6 2
vt 2 7.345745
vt -4 4.589302
vt -4 7.345745
vt 2 4.589302
vt 2 9.486465
vt -4 7.345745
vt -4 9.486465
vt 2 7.345745
vt 0.4740998 -2
vt -6.908312 -2
vt -6.908312 4
vt 0.4740998 5
vt 7.856512 -2
vt 7.856512 6
vt 0 4
vt -5 -2
vt -4 7
vt 0 -2
vt -10 -2
vt -10 6
vt 0.4655262 4.724097
vt -0.5257968 0.2238528
vt -4.885436 2.35887
vt -4.885436 0.3620596
vt -4.885436 0.3620596
vt -10.70192 0.2615722
vt -10.70192 1.259977
vt -4.885436 2.35887
vt 4.5 2.75
vt 5 0
vt 0 0
vt -1 4.5
vt 10 1
vt 10 0
vt -10.70192 1.75918
vt -4.885436 2.35887
vt -4.126876 4.372265
vt 2.448172 6.985351
vt 0.4655262 4.724097
vt -4.126876 4.372265
vt -4.885436 2.35887
vt -10.70192 1.75918
vt -10.70192 2.258383
vt -4.126876 4.372265
vt -4.126876 5.745072
vt 2.448172 6.985351
vt 2.448172 9.231763
vt 3.5 4.125
vt -3 6.75
vt 10 1.5
vt 3.5 5.5
vt -3 9
vt 10 2
g submesh0
f 1/1/1 2/2/2 3/3/3
f 4/4/4 1/1/1 3/3/3
f 5/5/5 6/6/6 7/7/7
f 5/5/5 8/8/8 6/6/6
f 4/4/4 3/3/3 9/9/9
f 10/10/10 4/4/4 9/9/9
f 10/10/10 9/9/9 11/11/11
f 12/12/12 10/10/10 11/11/11
f 13/13/13 14/14/14 15/15/15
f 13/13/13 16/16/16 14/14/14
f 17/17/17 18/18/18 19/19/19
f 17/17/17 20/20/20 18/18/18
f 21/21/21 22/22/22 23/23/23
f 24/24/24 21/21/21 23/23/23
f 25/25/25 21/21/21 24/24/24
f 26/26/26 25/25/25 24/24/24
f 27/27/27 28/28/28 29/29/29
f 27/27/27 30/30/30 28/28/28
f 29/29/29 31/31/31 32/32/32
f 29/29/29 28/28/28 31/31/31
f 33/33/33 34/34/34 35/35/35
f 34/34/34 36/36/36 35/35/35
f 37/37/37 38/38/38 39/39/39
f 40/40/40 37/37/37 39/39/39
f 41/41/41 42/42/42 43/43/43
f 41/41/41 43/43/43 44/44/44
f 45/45/45 42/42/42 41/41/41
f 45/45/45 46/46/46 42/42/42
f 39/39/39 47/47/47 48/48/48
f 49/49/49 48/48/48 47/47/47
f 50/50/50 51/51/51 52/52/52
f 53/53/53 52/52/52 51/51/51
f 54/54/54 55/55/55 56/56/56
f 57/57/57 56/56/56 55/55/55
f 56/56/56 57/57/57 58/58/58
f 59/59/59 58/58/58 57/57/57
f 44/44/44 60/60/60 41/41/41
f 60/60/60 44/44/44 61/61/61
f 62/62/62 41/41/41 60/60/60
f 41/41/41 62/62/62 45/45/45
f 63/63/63 61/61/61 64/64/64
f 61/61/61 63/63/63 60/60/60
f 65/65/65 60/60/60 63/63/63
f 60/60/60 65/65/65 62/62/62
