v -1.000002 -4.768372E-07 3.285401
v 4.185261 -4.768372E-07 4.210885
v -1.000005 3 3.285402
v 4.185261 3 4.210885
v 4.185259 0 1.000002
v 4.651986 0 -2.000003
v 4.185257 3 0.9999991
v 4.651986 3 -2.000003
v 4.651986 0 -2.000003
v -1 0 -2
v 4.651986 3 -2.000003
v -1.000004 3 -2
v -1 0 -2
v -1 0 1
v -1.000004 3 -2
v -1.000003 3 1.000001
v -1.000003 3 1.000001
v 4.185257 3 0.9999991
v -1.000004 3 -2
v 4.651986 3 -2.000003
v -1 0 -2
v 4.651986 0 -2.000003
v -1 0 1
v 4.185259 0 1.000002
v -1.000002 -4.768372E-07 3.285401
v 4.185261 -4.768372E-07 4.210885
v -1.000005 3 3.285402
v -1.000002 -4.768372E-07 3.285401
v 4.185259 0 1.000002
v 4.185257 3 0.9999991
v 4.185261 -4.768372E-07 4.210885
v 4.185261 3 4.210885
v 4.185257 3 0.9999991
v -1.000003 3 1.000001
v 4.185254 12 1
v -1.000004 12 1.000001
v 4.185261 3 4.210885
v 4.185257 3 0.9999991
v 4.185261 12 4.210885
v 4.185254 12 1
v -1.000004 12 1.000001
v -1.000009 12 3.285403
v -1.000009 12 3.285403
v 4.185261 12 4.210885
v -1.000004 12 1.000001
v -3.011132 12 -4.46465
v 6.419512 12 -3.433635
v 4.185254 12 1
v -3.011132 12 -4.46465
v -4.6555 11 -12.07285
v 6.895604 11 -10.69816
v 6.419512 12 -3.433635
v -4.6555 11 -12.07285
v -0.3922356 10 -16.01576
v 3.67322 10 -15.11716
v 6.895604 11 -10.69816
v 4.4394 11 -17.32894
v -0.3922356 10 -16.01576
v -1.8477 11 -18.01628
v 3.67322 10 -15.11716
v 4.4394 12 -17.32894
v -1.8477 11 -18.01628
v -1.8477 12 -18.01628
v 4.4394 11 -17.32894
v 4.185254 13 1
v 4.185261 13 4.210885
v 4.185254 14 1
v 4.185261 14 4.210885
v -1.000006 13 1.000001
v -1.000011 13 3.285403
v -1.000008 14 1.000002
v -1.000013 14 3.285403
v 4.185261 13 4.210885
v -1.000011 13 3.285403
v 4.185261 14 4.210885
v -1.000013 14 3.285403
v 4.185254 12 1
v 6.419512 12 -3.433635
v 7.54697 13 -2.950742
v 4.185254 13 1
v 7.54697 13 -2.950742
v 7.54697 14 -2.950742
v 4.185254 14 1
v -1.000008 14 1.000002
v -4.930134 14 -3.876225
v -4.930134 13 -3.876225
v -1.000006 13 1.000001
v -1.000006 13 1.000001
v -4.930134 13 -3.876225
v -3.011132 12 -4.46465
v -1.000004 12 1.000001
v 6.419512 12 -3.433635
v 6.895604 11 -10.69816
v 7.873036 12 -10.90941
v 7.54697 13 -2.950742
v 7.54697 13 -2.950742
v 7.873036 12 -10.90941
v 7.873036 13 -10.90941
v 7.54697 14 -2.950742
v 6.895604 11 -10.69816
v 3.67322 10 -15.11716
v 4.4394 11 -17.32894
v 7.873036 12 -10.90941
v 7.873036 12 -10.90941
v 4.4394 11 -17.32894
v 4.4394 12 -17.32894
v 7.873036 13 -10.90941
v -6.101099 12 -14.02771
v -3.011132 12 -4.46465
v -4.930134 13 -3.876225
v -4.6555 11 -12.07285
v -6.101099 13 -14.02771
v -4.930134 13 -3.876225
v -4.930134 14 -3.876225
v -6.101099 12 -14.02771
v -1.8477 11 -18.01628
v -4.6555 11 -12.07285
v -6.101099 12 -14.02771
v -0.3922356 10 -16.01576
v -1.8477 12 -18.01628
v -6.101099 12 -14.02771
v -6.101099 13 -14.02771
v -1.8477 11 -18.01628
v 4.185254 14 1
v -1.000008 14 1.000002
v 4.185261 14 4.210885
v -1.000013 14 3.285403
v 4.185254 14 1
v 7.54697 14 -2.950742
v -1.000008 14 1.000002
v -4.930134 14 -3.876225
v 7.54697 14 -2.950742
v 7.873036 13 -10.90941
v -4.930134 14 -3.876225
v -6.101099 13 -14.02771
v 7.873036 13 -10.90941
v 4.4394 12 -17.32894
v -6.101099 13 -14.02771
v -1.8477 12 -18.01628
vn -0.1757067 -4.5115E-07 0.9844426
vn -0.1757066 -2.25575E-07 0.9844426
vn -0.1757066 -2.25575E-07 0.9844426
vn -0.1757064 0 0.9844426
vn 0.9881135 7.962101E-07 0.1537261
vn 0.9881135 3.981051E-07 0.1537265
vn 0.9881135 3.981051E-07 0.1537265
vn 0.9881134 0 0.1537269
vn -4.640147E-07 0 -1
vn -5.061976E-07 7.947249E-08 -1
vn -5.061976E-07 7.947249E-08 -1
vn -5.483806E-07 1.58945E-07 -1
vn -1 -1.390775E-06 0
vn -1 -1.152357E-06 2.384185E-07
vn -1 -1.152357E-06 2.384185E-07
vn -1 -9.139381E-07 4.76837E-07
vn 0 1 0
vn 0 1 0
vn 0 1 0
vn 0 1 0
vn 0 -1 0
vn 0 -1 0
vn 0 -1 0
vn 0 -1 0
vn 1.325303E-08 -1 -1.785757E-07
vn 2.650597E-08 -1 -1.485066E-07
vn -1 -1.072883E-06 -8.867408E-07
vn -1 -1.231829E-06 -6.78096E-07
vn 1 6.357821E-07 -7.425328E-07
vn 1 3.178911E-07 -1.039545E-06
vn 1 3.178911E-07 -1.039545E-06
vn 1 0 -1.336558E-06
vn -4.253156E-07 1.258319E-07 -1
vn -2.931229E-07 4.967046E-08 -1
vn -2.931229E-07 4.967046E-08 -1
vn -1.609303E-07 -2.649097E-08 -1
vn 1 0 -1.336558E-06
vn 1 1.589459E-07 -1.782078E-06
vn 1 1.589459E-07 -1.782078E-06
vn 1 3.178917E-07 -2.227597E-06
vn -1 -2.715322E-07 -1.643078E-06
vn -1 -4.106095E-07 -2.19077E-06
vn -0.1757063 -8.823104E-08 0.9844427
vn -0.1757061 0 0.9844427
vn 0 -1 0
vn 0 -1 0
vn 0 -1 0
vn 0 -1 0
vn -0.01535603 -0.9907886 0.1345406
vn -0.01590908 -0.990897 0.1336791
vn -0.01535603 -0.9907886 0.1345406
vn -0.01480298 -0.9906802 0.1354022
vn -0.03644786 -0.9744849 0.2203853
vn -0.04428259 -0.9787245 0.2003434
vn -0.03644786 -0.9744849 0.2203853
vn -0.02861312 -0.9702454 0.2404272
vn 0.06868874 -0.8981086 -0.4311913
vn 0.06868874 -0.8981086 -0.4311913
vn 0.05210326 -0.8775832 -0.4765847
vn 0.0852742 -0.9186339 -0.3857978
vn 0.1086788 0 -0.9940769
vn 0.1086788 0 -0.9940769
vn 0.1086788 0 -0.9940769
vn 0.1086788 0 -0.9940769
vn 1 0 -2.227597E-06
vn 1 0 -2.227597E-06
vn 1 0 -2.227597E-06
vn 1 0 -2.227597E-06
vn -1 -1.847743E-06 -2.16469E-06
vn -1 -1.788138E-06 -2.138609E-06
vn -1 -1.907348E-06 -2.138609E-06
vn -1 -1.907348E-06 -2.138609E-06
vn -0.1757061 -3.918028E-07 0.9844427
vn -0.175706 -7.836057E-07 0.9844427
vn -0.1757059 -2.849209E-07 0.9844427
vn -0.1757059 -5.698418E-07 0.9844427
vn 0.663278 -0.3872234 0.4663754
vn 0.5649579 -0.7744468 0.2847012
vn 0.663278 -0.3872234 0.4663754
vn 0.7615981 0 0.6480495
vn 0.7615981 0 0.6480495
vn 0.7615981 0 0.6480495
vn 0.7615981 0 0.6480495
vn -0.7785934 -8.92139E-07 0.6275287
vn -0.7785935 0 0.6275285
vn -0.7785934 -8.92139E-07 0.6275287
vn -0.7785934 -1.784278E-06 0.6275288
vn -0.6533181 -0.4405674 0.3210584
vn -0.3681725 -0.8811328 0.2967388
vn -0.6533181 -0.4405674 0.3210584
vn -0.9384637 -1.913494E-06 0.345378
vn 0.6757342 -0.7223236 0.1313838
vn 0.7227107 -0.6767156 0.1405175
vn 0.6757342 -0.7223236 0.1313838
vn 0.6287575 -0.7679316 0.1222501
vn 0.9991618 0 0.04093557
vn 0.9991618 0 0.04093557
vn 0.9991618 0 0.04093557
vn 0.9991618 0 0.04093557
vn 0.5948864 -0.7666475 -0.2203607
vn 0.5233557 -0.8297684 -0.193864
vn 0.5948864 -0.7666475 -0.2203607
vn 0.6664171 -0.7035266 -0.2468574
vn 0.8817882 0 -0.4716456
vn 0.8817882 0 -0.4716456
vn 0.8817882 0 -0.4716456
vn 0.8817882 0 -0.4716456
vn -0.5883337 -0.7536927 0.1900994
vn -0.5883337 -0.7536927 0.1900994
vn -0.4243678 -0.8950476 0.1371196
vn -0.7522997 -0.6123379 0.2430793
vn -0.993413 0 0.1145893
vn -0.993413 0 0.1145893
vn -0.993413 0 0.1145893
vn -0.993413 0 0.1145893
vn -0.380411 -0.9071847 -0.179714
vn -0.380411 -0.9071847 -0.179714
vn -0.3824745 -0.9061263 -0.1806888
vn -0.3783476 -0.9082431 -0.1787392
vn -0.6840332 0 -0.7294509
vn -0.6840332 0 -0.7294509
vn -0.6840332 0 -0.7294509
vn -0.6840332 0 -0.7294509
vn 0 1 0
vn 0 1 0
vn 0 1 0
vn 0 1 0
vn 0 1 0
vn 0 1 0
vn 0 1 0
vn 0 1 0
vn 0.009219274 0.9922029 -0.1242917
vn 0.01583086 0.9934398 -0.1124319
vn 0.01583086 0.9934398 -0.1124319
vn 0.02244244 0.9946766 -0.1005721
vn 0.03883931 0.9839702 -0.1740519
vn 0.03139203 0.9796983 -0.1965364
vn 0.03139203 0.9796983 -0.1965364
vn 0.02394474 0.9754264 -0.2190208
vt 0.4071772 1.061582E-06
vt -4.86003 1.061582E-06
vt 0.4071807 3.000001
vt -4.86003 3.000001
vt 0.3447324 -3.415134E-06
vt -2.691361 -3.415134E-06
vt 0.3447295 2.999997
vt -2.691361 2.999997
vt 4.651987 0
vt -0.999999 0
vt 4.651987 3
vt -1.000003 3
vt 2 1.390775E-06
vt -1 1.390775E-06
vt 2 3.000001
vt -1.000001 3.000001
vt -1.000003 1.000001
vt 4.185257 0.9999991
vt -1.000004 -2
vt 4.651986 -2.000003
vt 1 -2
vt -4.651986 -2.000003
vt 1 1
vt -4.185259 1.000002
vt 1.000002 3.285401
vt -4.185261 4.210885
vt -3.285403 3.000001
vt -3.285402 4.370984E-07
vt 1.000005 -2.660912E-06
vt 1.000002 2.999997
vt 4.210888 -3.137749E-06
vt 4.210888 2.999997
vt 4.185256 3
vt -1.000003 3
vt 4.185254 12
vt -1.000004 12
vt 4.21089 3
vt 1.000005 3
vt 4.21089 12
vt 1.000006 12
vt -1.000002 12
vt -3.285404 12
vt 0.407185 12
vt -4.860029 12
vt 1.242978 2.332225
vt 3.253693 -3.102751
vt -6.175014 -2.056837
vt -3.941215 2.343967
vt 3.253693 -3.102751
vt 4.877459 -10.77875
vt -6.671273 -9.386507
vt -6.175014 -2.056837
vt 4.877459 -10.77875
vt 0.5948049 -14.79903
vt -3.469816 -13.89685
vt -6.671273 -9.386507
vt 2.529818 18.49545
vt -2.130486 16.70149
vt -3.794744 18.49545
vt 2.008549 16.47117
vt 2.529818 19.35551
vt -3.794744 18.49545
vt -3.794744 19.35551
vt 2.529818 18.49545
vt 1.00001 13
vt 4.210894 13
vt 1.00001 14
vt 4.210894 14
vt -1.000004 13
vt -3.285405 13
vt -1.000004 14
vt -3.285406 14
vt -4.860028 13
vt 0.407188 13
vt -4.860028 14
vt 0.4071898 14
vt 0.5754259 12.62801
vt -4.059844 13.43553
vt -3.692401 14.85782
vt 0.5754259 13.519
vt -3.692401 14.85782
vt -3.692401 15.7488
vt 0.5754259 14.40999
vt -0.9243156 11.9062
vt 4.225859 14.01993
vt 4.225859 13.21484
vt -0.9243152 11.10111
vt -0.9243152 11.10111
vt 4.225859 13.21484
vt 4.672595 11.24905
vt -0.924315 10.29601
vt -4.059844 13.43553
vt -11.3355 12.42899
vt -11.64367 13.75191
vt -3.692401 14.85782
vt -3.692401 14.85782
vt -11.64367 13.75191
vt -11.64367 14.64289
vt -3.692401 15.7488
vt -11.3355 12.42899
vt -15.40923 9.881199
vt -17.68666 11.01764
vt -11.64367 13.75191
vt -11.64367 13.75191
vt -17.68666 11.01764
vt -17.68666 11.90862
vt -11.64367 14.64289
vt 14.43575 12.66279
vt 4.672595 11.24905
vt 4.225859 13.21484
vt 12.38055 11.08719
vt 14.43575 13.46788
vt 4.225859 13.21484
vt 4.225859 14.01993
vt 14.43575 12.66279
vt 18.1031 9.168797
vt 12.38055 11.08719
vt 14.43575 12.66279
vt 16.00165 7.589345
vt 18.1031 9.973892
vt 14.43575 12.66279
vt 14.43575 13.46788
vt 18.1031 9.168797
vt 4.185254 1
vt -1.000008 1.000002
vt 4.185261 4.210885
vt -1.000013 3.285403
vt 3.958669 2.39781
vt 7.319947 -1.527822
vt -1.225917 2.389462
vt -5.155531 -2.468782
vt 7.319947 -1.527822
vt 7.662117 -9.546007
vt -5.155531 -2.468782
vt -6.310198 -12.67126
vt 7.662117 -9.546007
vt 4.245073 -16.03877
vt -6.310198 -12.67126
vt -2.041208 -16.73281
g submesh0
f 1/1/1 2/2/2 3/3/3
f 2/2/2 4/4/4 3/3/3
f 5/5/5 6/6/6 7/7/7
f 6/6/6 8/8/8 7/7/7
f 9/9/9 10/10/10 11/11/11
f 10/10/10 12/12/12 11/11/11
f 13/13/13 14/14/14 15/15/15
f 14/14/14 16/16/16 15/15/15
f 17/17/17 18/18/18 19/19/19
f 18/18/18 20/20/20 19/19/19
f 21/21/21 22/22/22 23/23/23
f 22/22/22 24/24/24 23/23/23
f 23/23/23 24/24/24 25/25/25
f 24/24/24 26/26/26 25/25/25
f 16/16/16 14/14/14 27/27/27
f 14/14/14 28/28/28 27/27/27
f 29/29/29 30/30/30 31/31/31
f 30/30/30 32/32/32 31/31/31
f 33/33/33 34/34/34 35/35/35
f 34/34/34 36/36/36 35/35/35
f 37/37/37 38/38/38 39/39/39
f 38/38/38 40/40/40 39/39/39
f 16/16/16 27/27/27 41/41/41
f 27/27/27 42/42/42 41/41/41
f 3/3/3 4/4/4 43/43/43
f 4/4/4 44/44/44 43/43/43
f 45/45/45 46/46/46 47/47/47
f 45/45/45 47/47/47 48/48/48
f 49/49/49 50/50/50 51/51/51
f 49/49/49 51/51/51 52/52/52
f 53/53/53 54/54/54 55/55/55
f 53/53/53 55/55/55 56/56/56
f 57/57/57 58/58/58 59/59/59
f 57/57/57 60/60/60 58/58/58
f 61/61/61 62/62/62 63/63/63
f 61/61/61 64/64/64 62/62/62
f 39/39/39 40/40/40 65/65/65
f 66/66/66 39/39/39 65/65/65
f 66/66/66 65/65/65 67/67/67
f 68/68/68 66/66/66 67/67/67
f 69/69/69 41/41/41 42/42/42
f 69/69/69 42/42/42 70/70/70
f 71/71/71 69/69/69 70/70/70
f 71/71/71 70/70/70 72/72/72
f 43/43/43 44/44/44 73/73/73
f 74/74/74 43/43/43 73/73/73
f 74/74/74 73/73/73 75/75/75
f 76/76/76 74/74/74 75/75/75
f 77/77/77 78/78/78 79/79/79
f 80/80/80 77/77/77 79/79/79
f 80/80/80 81/81/81 82/82/82
f 83/83/83 80/80/80 82/82/82
f 84/84/84 85/85/85 86/86/86
f 87/87/87 84/84/84 86/86/86
f 88/88/88 89/89/89 90/90/90
f 91/91/91 88/88/88 90/90/90
f 92/92/92 93/93/93 94/94/94
f 95/95/95 92/92/92 94/94/94
f 96/96/96 97/97/97 98/98/98
f 99/99/99 96/96/96 98/98/98
f 100/100/100 101/101/101 102/102/102
f 103/103/103 100/100/100 102/102/102
f 104/104/104 105/105/105 106/106/106
f 107/107/107 104/104/104 106/106/106
f 108/108/108 109/109/109 110/110/110
f 108/108/108 111/111/111 109/109/109
f 112/112/112 113/113/113 114/114/114
f 112/112/112 115/115/115 113/113/113
f 116/116/116 117/117/117 118/118/118
f 116/116/116 119/119/119 117/117/117
f 120/120/120 121/121/121 122/122/122
f 120/120/120 123/123/123 121/121/121
g submesh1
f 124/124/124 125/125/125 126/126/126
f 125/125/125 127/127/127 126/126/126
f 128/128/128 129/129/129 130/130/130
f 129/129/129 131/131/131 130/130/130
f 132/132/132 133/133/133 134/134/134
f 133/133/133 135/135/135 134/134/134
f 136/136/136 137/137/137 138/138/138
f 137/137/137 139/139/139 138/138/138
