v 6.429705 6 5.436696
v 6.429706 4.865856 5.436694
v 7.852413 5.207298 6.506897
v 7.852411 6 6.506896
v 8.301774 6 0.7108097
v 8.301778 4.504418 0.7108144
v 5.587871 6 0.8807383
v 5.587871 4 0.8807383
v 7.852413 5.207298 6.506897
v 13.02334 5.103358 6.000011
v 7.852411 6 6.506896
v 13.02334 6 6.000018
v 13.02334 5.103358 6.000011
v 18.23553 5.534915 5.476851
v 13.02334 6 6.000018
v 18.32455 5.980254 5.474802
v 18.21554 5.947578 0.2709573
v 18.1886 5.056901 0.2750642
v 14.155 6 0.7569676
v 14.41269 5.056691 0.8174941
v 14.155 6 0.7569676
v 14.41269 5.056691 0.8174941
v 8.301774 6 0.7108097
v 8.301778 4.504418 0.7108144
v 18.32455 5.980254 5.474802
v 18.23553 5.534915 5.476851
v 19.02296 5.942796 3.091122
v 17.84982 4.174861 2.109033
v 19.02296 5.942796 3.091122
v 17.84982 4.174861 2.109033
v 18.1886 5.056901 0.2750642
v 18.21554 5.947578 0.2709573
v 5.587871 6 0.8807383
v 5.587871 4 0.8807383
v 5.299356 4.441252 3.883353
v 5.299356 6 3.883354
v 5.299356 6 3.883354
v 5.299356 4.441252 3.883353
v 6.429706 4.865856 5.436694
v 6.429705 6 5.436696
v 5.587871 6 0.8807383
v 7.871541 6 3.355409
v 8.301774 6 0.7108097
v 5.299356 6 3.883354
v 7.852411 6 6.506896
v 6.429705 6 5.436696
v 7.871541 3.319394 3.355406
v 5.299356 4.441252 3.883353
v 5.587871 4 0.8807383
v 8.301778 4.504418 0.7108144
v 7.852413 5.207298 6.506897
v 6.429706 4.865856 5.436694
v 5.299356 4.441252 3.883353
v 7.871541 3.319394 3.355406
v 19.02296 5.942796 3.091122
v 18.21554 5.947578 0.2709573
v 14.155 6 0.7569676
v 13.58917 6 3.378493
v 19.02296 5.942796 3.091122
v 13.58917 6 3.378493
v 18.32455 5.980254 5.474802
v 13.02334 6 6.000018
v 14.155 6 0.7569676
v 13.58917 6 3.378493
v 13.02334 6 6.000018
v 7.852413 5.207298 6.506897
v 7.871541 3.319394 3.355406
v 13.02334 5.103358 6.000011
v 14.31469 4.587673 3.285741
v 7.871541 3.319394 3.355406
v 8.301778 4.504418 0.7108144
v 14.31469 4.587673 3.285741
v 14.41269 5.056691 0.8174941
v 18.23553 5.534915 5.476851
v 13.02334 5.103358 6.000011
v 14.31469 4.587673 3.285741
v 17.84982 4.174861 2.109033
v 14.31469 4.587673 3.285741
v 14.41269 5.056691 0.8174941
v 17.84982 4.174861 2.109033
v 18.1886 5.056901 0.2750642
vn -0.6011395 -1.208846E-06 0.7991441
vn -0.6011398 -1.932694E-06 0.7991439
vn -0.6011395 -1.208846E-06 0.7991441
vn -0.6011392 -4.849979E-07 0.7991443
vn -0.06249169 -3.261915E-06 -0.9980455
vn -0.0624908 -1.630958E-06 -0.9980456
vn -0.0624908 -1.630958E-06 -0.9980456
vn -0.0624899 0 -0.9980456
vn 0.09755854 1.432069E-06 0.9952298
vn 0.09755781 -2.82796E-06 0.9952299
vn 0.09755781 -2.82796E-06 0.9952299
vn 0.09755708 -7.087989E-06 0.99523
vn 0.09987129 -7.091324E-06 0.9950004
vn 0.09919816 -0.007561738 0.9950101
vn 0.09919816 -0.007561738 0.9950101
vn 0.09852504 -0.01511639 0.9950198
vn -0.1188551 -0.0009824048 -0.9929111
vn -0.1301532 -0.0514033 -0.9888028
vn -0.1301532 -0.0514033 -0.9888028
vn -0.1414513 -0.1018242 -0.9846945
vn 0.007870532 -0.0618889 -0.998052
vn 0.01266269 -0.03094598 -0.9989498
vn 0.01266269 -0.03094598 -0.9989498
vn 0.01745486 -3.063602E-06 -0.9998477
vn 0.9419305 -0.1870013 0.2789218
vn 0.8617133 -0.3957271 0.2167601
vn 0.8617133 -0.3957271 0.2167601
vn 0.781496 -0.6044529 0.1545984
vn 0.9065755 -0.2728172 -0.1827827
vn 0.8522325 -0.5152934 -0.09040167
vn 0.9065755 -0.2728172 -0.1827827
vn 0.9609185 -0.03034097 -0.2751637
vn -0.9954153 -1.449391E-07 -0.09564731
vn -0.9954153 0 -0.09564724
vn -0.9954153 -1.449391E-07 -0.09564731
vn -0.9954153 -2.898781E-07 -0.09564739
vn -0.8085759 -9.571082E-07 0.588392
vn -0.8085756 -3.373493E-07 0.5883923
vn -0.8085759 -9.571082E-07 0.588392
vn -0.808576 -1.576867E-06 0.5883917
vn 0 1 0
vn 0 1 0
vn 0 1 0
vn 0 1 0
vn 0 1 0
vn 0 1 0
vn -0.1177273 -0.9154477 -0.1431339
vn -0.3807755 -0.9194036 0.09852397
vn -0.1177273 -0.9154477 -0.1431339
vn 0.1453209 -0.9114918 -0.3847917
vn -0.09298965 -0.9017031 0.3537787
vn 0.07399721 -0.9743569 0.2124925
vn -0.09298965 -0.9017031 0.3537787
vn -0.2599765 -0.8290493 0.495065
vn 0.01166293 0.9999292 0.0001820737
vn 0.01267753 0.9999178 -0.001934186
vn 0.01166293 0.9999292 0.0001820737
vn 0.01064834 0.9999407 0.002298334
vn 0.009847681 0.9998692 -0.01282674
vn 0.006826957 0.9999309 -0.0060026
vn 0.006826957 0.9999309 -0.0060026
vn 0.003806232 0.9999924 0.0008215378
vn 0 1 0
vn 0 1 0
vn 0 1 0
vn 0.0331298 -0.8572923 0.513763
vn 0.1109672 -0.9008371 0.3915066
vn 0.1109672 -0.9008371 0.3915066
vn 0.1888046 -0.9443819 0.2692502
vn 0.1747979 -0.9088215 -0.3787997
vn 0.1332269 -0.943884 -0.2805903
vn 0.1332269 -0.943884 -0.2805903
vn 0.09165595 -0.9789466 -0.1823809
vn 0.05960756 -0.9473655 0.3028937
vn 0.1034432 -0.966976 0.2329309
vn 0.05960756 -0.9473655 0.3028937
vn 0.01577193 -0.9277549 0.3728566
vn -0.1761867 -0.965746 -0.1905071
vn -0.1198195 -0.9302458 -0.3162763
vn -0.1198195 -0.9302458 -0.3162763
vn -0.06345242 -0.8947455 -0.4420455
vt -7.142149 6.000012
vt -7.14215 4.865868
vt -8.703481 5.207313
vt -8.703479 6.000014
vt 8.246643 5.97368
vt 8.246646 4.478428
vt 5.527453 5.97342
vt 5.527453 3.973861
vt -8.703481 5.207313
vt -13.74848 5.103369
vt -8.703479 6.000014
vt -13.74848 6.000011
vt -13.74848 5.103369
vt -18.83199 5.534923
vt -13.74848 6.000011
vt -18.91979 5.980261
vt 18.16924 5.918429
vt 18.1421 5.027896
vt 14.08736 5.965592
vt 14.34112 5.020909
vt 14.08736 5.965592
vt 14.34112 5.020909
vt 8.246643 5.97368
vt 8.246646 4.478428
vt 3.529932 12.39163
vt 3.541273 11.94459
vt 1.08632 12.51834
vt 0.2321996 10.41036
vt 1.08632 12.51834
vt 0.2321996 10.41036
vt -1.62713 11.28501
vt -1.63403 12.12458
vt -2.32196 5.999999
vt -2.32196 3.999999
vt -5.142449 4.441251
vt -5.142449 5.999999
vt -5.142449 5.999999
vt -5.142449 4.441251
vt -6.938733 4.865855
vt -6.938735 5.999999
vt 5.565305 0.8955483
vt 7.848959 3.370233
vt 8.279189 0.7256454
vt 5.276792 3.898152
vt 7.829829 6.521709
vt 6.407134 5.4515
vt -7.766039 3.652202
vt -5.160659 4.268799
vt -5.462571 1.239975
vt -8.159732 1.121775
vt -7.689022 6.955796
vt -6.277456 5.856175
vt -5.160659 4.268799
vt -7.766039 3.652202
vt 19.00051 3.105909
vt 18.19308 0.2857569
vt 14.13237 0.7718572
vt 13.56655 3.393369
vt 19.00051 3.105909
vt 13.56655 3.393369
vt 18.30197 5.489666
vt 13.00072 6.014881
vt 14.13237 0.7718572
vt 13.56655 3.393369
vt 13.00072 6.014881
vt -7.689022 6.955796
vt -7.766039 3.652202
vt -12.8607 6.455586
vt -14.16727 3.710219
vt -7.766039 3.652202
vt -8.159732 1.121775
vt -14.16727 3.710219
vt -14.25084 1.29235
vt -18.05721 5.985817
vt -12.8607 6.455586
vt -14.16727 3.710219
vt -17.71339 2.511516
vt -14.16727 3.710219
vt -14.25084 1.29235
vt -17.71339 2.511516
vt -18.02496 0.7620627
g submesh0
f 1/1/1 2/2/2 3/3/3
f 1/1/1 3/3/3 4/4/4
f 5/5/5 6/6/6 7/7/7
f 6/6/6 8/8/8 7/7/7
f 9/9/9 10/10/10 11/11/11
f 11/11/11 10/10/10 12/12/12
f 13/13/13 14/14/14 15/15/15
f 15/15/15 14/14/14 16/16/16
f 17/17/17 18/18/18 19/19/19
f 19/19/19 18/18/18 20/20/20
f 21/21/21 22/22/22 23/23/23
f 22/22/22 24/24/24 23/23/23
f 25/25/25 26/26/26 27/27/27
f 26/26/26 28/28/28 27/27/27
f 29/29/29 30/30/30 31/31/31
f 29/29/29 31/31/31 32/32/32
f 33/33/33 34/34/34 35/35/35
f 33/33/33 35/35/35 36/36/36
f 37/37/37 38/38/38 39/39/39
f 37/37/37 39/39/39 40/40/40
f 41/41/41 42/42/42 43/43/43
f 41/41/41 44/44/44 42/42/42
f 44/44/44 45/45/45 42/42/42
f 44/44/44 46/46/46 45/45/45
f 47/47/47 48/48/48 49/49/49
f 50/50/50 47/47/47 49/49/49
f 51/51/51 52/52/52 53/53/53
f 54/54/54 51/51/51 53/53/53
f 55/55/55 56/56/56 57/57/57
f 55/55/55 57/57/57 58/58/58
f 59/59/59 60/60/60 61/61/61
f 60/60/60 62/62/62 61/61/61
f 63/63/63 43/43/43 64/64/64
f 64/64/64 43/43/43 42/42/42
f 64/64/64 42/42/42 65/65/65
f 65/65/65 42/42/42 45/45/45
f 66/66/66 67/67/67 68/68/68
f 68/68/68 67/67/67 69/69/69
f 70/70/70 71/71/71 72/72/72
f 72/72/72 71/71/71 73/73/73
f 74/74/74 75/75/75 76/76/76
f 74/74/74 76/76/76 77/77/77
f 78/78/78 79/79/79 80/80/80
f 79/79/79 81/81/81 80/80/80
