v 6.429705 6 5.436696
v 6.429706 4.865856 5.436694
v 7.852413 5.207298 6.506897
v 7.852411 6 6.506896
v 8.301774 6 0.7108097
v 8.301778 4.504418 0.7108144
v 5.587871 6 0.8807383
v 5.587871 4 0.8807383
v 7.852413 5.207298 6.506897
v 13.02334 5.103358 6.000011
v 7.852411 6 6.506896
v 13.02334 6 6.000018
v 14.155 6 0.7569676
v 14.155 4.030245 0.7569726
v 8.301774 6 0.7108097
v 8.301778 4.504418 0.7108144
v 33.34621 5.98025 5.4748
v 35.43545 5.534909 5.476849
v 35.75919 5.942791 3.091118
v 34.50224 3.975125 3.097977
v 35.75919 5.942791 3.091118
v 35.26798 5.056896 0.2750603
v 33.46325 5.947572 0.2709535
v 5.587871 6 0.8807383
v 5.587871 4 0.8807383
v 5.299356 4.441252 3.883353
v 5.299356 6 3.883354
v 5.299356 6 3.883354
v 5.299356 4.441252 3.883353
v 6.429706 4.865856 5.436694
v 6.429705 6 5.436696
v 5.587871 6 0.8807383
v 7.871541 6 3.355409
v 8.301774 6 0.7108097
v 5.299356 6 3.883354
v 7.852411 6 6.506896
v 6.429705 6 5.436696
v 7.871541 3.319394 3.355406
v 5.299356 4.441252 3.883353
v 5.587871 4 0.8807383
v 8.301778 4.504418 0.7108144
v 7.852413 5.207298 6.506897
v 6.429706 4.865856 5.436694
v 5.299356 4.441252 3.883353
v 7.871541 3.319394 3.355406
v 14.155 6 0.7569676
v 13.58917 6 3.378493
v 13.02334 6 6.000018
v 7.852413 5.207298 6.506897
v 7.871541 3.319394 3.355406
v 13.02334 5.103358 6.000011
v 13.58917 2.909698 3.37849
v 7.871541 3.319394 3.355406
v 8.301778 4.504418 0.7108144
v 13.58917 2.909698 3.37849
v 14.155 4.030245 0.7569726
v 13.02334 5.103358 6.000011
v 19.10317 5.990123 5.737409
v 13.02334 6 6.000018
v 19.86144 5.319131 5.738431
v 19.10317 5.990123 5.737409
v 19.86144 5.319131 5.738431
v 33.34621 5.98025 5.4748
v 35.43545 5.534909 5.476849
v 33.46325 5.947572 0.2709535
v 35.26798 5.056896 0.2750603
v 20.69135 4.543565 -1.218126
v 19.23116 5.973783 -1.278267
v 19.23116 5.973783 -1.278267
v 20.69135 4.543565 -1.218126
v 14.155 4.030245 0.7569726
v 14.155 6 0.7569676
v 35.75919 5.942791 3.091118
v 33.46325 5.947572 0.2709535
v 20.34439 5.971395 3.234806
v 19.23116 5.973783 -1.278267
v 19.23116 5.973783 -1.278267
v 14.155 6 0.7569676
v 13.58917 6 3.378493
v 20.34439 5.971395 3.234806
v 35.75919 5.942791 3.091118
v 20.34439 5.971395 3.234806
v 33.34621 5.98025 5.4748
v 19.10317 5.990123 5.737409
v 20.34439 5.971395 3.234806
v 13.58917 6 3.378493
v 19.10317 5.990123 5.737409
v 13.02334 6 6.000018
v 19.86144 5.319131 5.738431
v 19.91588 3.44241 3.238234
v 34.50224 3.975125 3.097977
v 35.43545 5.534909 5.476849
v 19.86144 5.319131 5.738431
v 13.02334 5.103358 6.000011
v 13.58917 2.909698 3.37849
v 19.91588 3.44241 3.238234
v 13.58917 2.909698 3.37849
v 14.155 4.030245 0.7569726
v 19.91588 3.44241 3.238234
v 20.69135 4.543565 -1.218126
v 19.91588 3.44241 3.238234
v 20.69135 4.543565 -1.218126
v 34.50224 3.975125 3.097977
v 35.26798 5.056896 0.2750603
vn -0.6011395 -1.208846E-06 0.7991441
vn -0.6011398 -1.932694E-06 0.7991439
vn -0.6011395 -1.208846E-06 0.7991441
vn -0.6011392 -4.849979E-07 0.7991443
vn -0.06249169 -3.261915E-06 -0.9980455
vn -0.0624908 -1.630958E-06 -0.9980456
vn -0.0624908 -1.630958E-06 -0.9980456
vn -0.0624899 0 -0.9980456
vn 0.09755854 1.432069E-06 0.9952298
vn 0.09755781 -2.82796E-06 0.9952299
vn 0.09755781 -2.82796E-06 0.9952299
vn 0.09755708 -7.087989E-06 0.99523
vn 0.007885648 -2.518848E-06 -0.9999689
vn 0.007885552 -2.803618E-06 -0.9999689
vn 0.007885552 -2.803618E-06 -0.9999689
vn 0.007885456 -3.088388E-06 -0.9999689
vn 0.204424 0.9598979 0.1918513
vn 0.5234896 0.2108755 0.1070892
vn 0.5234896 0.2108755 0.1070892
vn 0.8425553 -0.5381469 0.02232709
vn 0.6298324 0.1527314 -0.1579095
vn 0.6298324 0.1527314 -0.1579095
vn 0.4171096 0.8436097 -0.3381454
vn -0.9954153 -1.449391E-07 -0.09564731
vn -0.9954153 0 -0.09564724
vn -0.9954153 -1.449391E-07 -0.09564731
vn -0.9954153 -2.898781E-07 -0.09564739
vn -0.8085759 -9.571082E-07 0.588392
vn -0.8085756 -3.373493E-07 0.5883923
vn -0.8085759 -9.571082E-07 0.588392
vn -0.808576 -1.576867E-06 0.5883917
vn 0 1 0
vn 0 1 0
vn 0 1 0
vn 0 1 0
vn 0 1 0
vn 0 1 0
vn -0.1177273 -0.9154477 -0.1431339
vn -0.3807755 -0.9194036 0.09852397
vn -0.1177273 -0.9154477 -0.1431339
vn 0.1453209 -0.9114918 -0.3847917
vn -0.09298965 -0.9017031 0.3537787
vn 0.07399721 -0.9743569 0.2124925
vn -0.09298965 -0.9017031 0.3537787
vn -0.2599765 -0.8290493 0.495065
vn 0 1 0
vn 0 1 0
vn 0 1 0
vn 0.0331298 -0.8572923 0.513763
vn -0.01236306 -0.8145174 0.5735304
vn -0.01236306 -0.8145174 0.5735304
vn -0.05785592 -0.7717426 0.6332977
vn -0.06329861 -0.9068583 -0.4166549
vn -0.06697811 -0.9092391 -0.4107853
vn -0.06697811 -0.9092391 -0.4107853
vn -0.07065761 -0.9116199 -0.4049156
vn 0.03999181 0.0215673 0.9987292
vn 0.03999181 0.0215673 0.9987292
vn 0.04315316 -6.998797E-06 0.9990685
vn 0.03683046 0.0431416 0.9983898
vn 0.01844545 0.02236699 0.9995797
vn 0.01705335 0.05021249 0.9982027
vn 0.01705335 0.05021249 0.9982027
vn 0.01566125 0.07805799 0.9968258
vn 0.1008816 0.1269759 -0.9849871
vn 0.09367868 0.1853062 -0.9782054
vn 0.1008816 0.1269759 -0.9849871
vn 0.1080845 0.06864555 -0.9917689
vn -0.3133248 -0.1492616 -0.9240096
vn -0.2545072 -0.2985198 -0.9198435
vn -0.3133248 -0.1492616 -0.9240096
vn -0.3721425 -3.440325E-06 -0.9281756
vn 0.001857264 0.9999983 0.0001831787
vn 0.001845261 0.9999983 0.0001300508
vn 0.001845261 0.9999983 0.0001300508
vn 0.001833258 0.9999983 7.692294E-05
vn 0.004938829 0.9999871 0.0003538277
vn 0.005654029 0.9999833 0.001220364
vn 0.004938829 0.9999871 0.0003538277
vn 0.004223628 0.999991 -0.0005127083
vn 0.001725186 0.999901 -0.01396678
vn 0.001142744 0.9999374 -0.0105862
vn 0.001142744 0.9999374 -0.0105862
vn 0.0005603014 0.9999739 -0.007205613
vn 0.004118746 0.9999768 -0.005440748
vn 0.002879269 0.9999877 -0.002543407
vn 0.002879269 0.9999877 -0.002543407
vn 0.001639792 0.9999986 0.0003539331
vn 0.02784901 -0.8193512 0.5714719
vn 0.03495076 -0.7989041 0.6004421
vn 0.02784901 -0.8193512 0.5714719
vn 0.02074727 -0.8397983 0.5425019
vn 0.0645521 -0.7785656 0.6233265
vn 0.0487625 -0.7607991 0.647153
vn 0.0645521 -0.7785656 0.6233265
vn 0.0803417 -0.7963323 0.5994999
vn 0.06927431 -0.9226285 -0.3794178
vn 0.03661884 -0.9467915 -0.3093243
vn 0.03661884 -0.9467915 -0.3093243
vn 0.003963356 -0.9709547 -0.2392309
vn 0.03323123 -0.9715971 -0.2342966
vn 0.0505854 -0.9546217 -0.2875917
vn 0.0505854 -0.9546217 -0.2875917
vn 0.06793958 -0.9376462 -0.3408868
vt -7.015747 5.972636
vt -7.015748 4.838511
vt -8.55276 5.174688
vt -8.552758 5.967376
vt 8.249866 5.963598
vt 8.24987 4.468645
vt 5.530721 5.963023
vt 5.530721 3.963864
vt -8.55276 5.174688
vt -13.63026 5.077201
vt -8.552758 5.967376
vt -13.63027 5.973828
vt 14.09161 5.952888
vt 14.09162 3.983962
vt 8.249866 5.963598
vt 8.24987 4.468645
vt -1.319422 -6.833083
vt -1.736132 -7.998878
vt -4.13834 -7.56038
vt -3.879708 -8.93911
vt -4.13834 -7.56038
vt -6.798817 -8.000575
vt -6.441141 -6.522708
vt -2.32196 5.999999
vt -2.32196 3.999999
vt -5.142449 4.441251
vt -5.142449 5.999999
vt -5.142449 5.999999
vt -5.142449 4.441251
vt -6.938733 4.865855
vt -6.938735 5.999999
vt 5.577847 0.8942602
vt 7.861514 3.368933
vt 8.291746 0.7243423
vt 5.289331 3.896867
vt 7.842383 6.520412
vt 6.41968 5.45021
vt -7.799438 3.825147
vt -5.20406 4.502182
vt -5.501859 1.468219
vt -8.204469 1.381516
vt -7.740311 7.216868
vt -6.325159 6.104119
vt -5.20406 4.502182
vt -7.799438 3.825147
vt 14.14496 0.7705221
vt 13.57913 3.392039
vt 13.0133 6.013555
vt -7.740311 7.216868
vt -7.799438 3.825147
vt -12.91228 6.716154
vt -13.52446 3.80618
vt -7.799438 3.825147
vt -8.204469 1.381516
vt -13.52446 3.80618
vt -14.06643 1.376453
vt -13.63026 5.077201
vt -19.63884 5.969599
vt -13.63027 5.973828
vt -20.39213 5.299127
vt -19.63884 5.969599
vt -20.39213 5.299127
vt -33.75577 5.970906
vt -35.8312 5.526976
vt 33.39724 5.883638
vt 35.199 4.990328
vt 20.72704 4.543797
vt 19.2724 5.977492
vt 19.2724 5.977492
vt 20.72704 4.543797
vt 14.09162 3.983962
vt 14.09161 5.952888
vt 35.74921 3.104619
vt 33.45327 0.2844637
vt 20.33439 3.248313
vt 19.22116 -1.264747
vt 19.22116 -1.264747
vt 14.14496 0.7705221
vt 13.57913 3.392039
vt 20.33439 3.248313
vt 35.74921 3.104619
vt 20.33439 3.248313
vt 33.33619 5.48837
vt 19.09314 5.750947
vt 20.33439 3.248313
vt 13.57913 3.392039
vt 19.09314 5.750947
vt 13.0133 6.013555
vt -19.74427 6.509603
vt -19.83846 3.764026
vt -34.41026 3.74724
vt -35.31021 6.329879
vt -19.74427 6.509603
vt -12.91228 6.716154
vt -13.52446 3.80618
vt -19.83846 3.764026
vt -13.52446 3.80618
vt -14.06643 1.376453
vt -19.83846 3.764026
vt -20.59043 -0.4833339
vt -19.83846 3.764026
vt -20.59043 -0.4833339
vt -34.41026 3.74724
vt -35.15291 1.113236
g submesh0
f 1/1/1 2/2/2 3/3/3
f 1/1/1 3/3/3 4/4/4
f 5/5/5 6/6/6 7/7/7
f 6/6/6 8/8/8 7/7/7
f 9/9/9 10/10/10 11/11/11
f 11/11/11 10/10/10 12/12/12
f 13/13/13 14/14/14 15/15/15
f 14/14/14 16/16/16 15/15/15
f 17/17/17 18/18/18 19/19/19
f 18/18/18 20/20/20 19/19/19
f 21/21/21 20/20/20 22/22/22
f 21/21/21 22/22/22 23/23/23
f 24/24/24 25/25/25 26/26/26
f 24/24/24 26/26/26 27/27/27
f 28/28/28 29/29/29 30/30/30
f 28/28/28 30/30/30 31/31/31
f 32/32/32 33/33/33 34/34/34
f 32/32/32 35/35/35 33/33/33
f 35/35/35 36/36/36 33/33/33
f 35/35/35 37/37/37 36/36/36
f 38/38/38 39/39/39 40/40/40
f 41/41/41 38/38/38 40/40/40
f 42/42/42 43/43/43 44/44/44
f 45/45/45 42/42/42 44/44/44
f 46/46/46 34/34/34 47/47/47
f 47/47/47 34/34/34 33/33/33
f 47/47/47 33/33/33 48/48/48
f 48/48/48 33/33/33 36/36/36
f 49/49/49 50/50/50 51/51/51
f 51/51/51 50/50/50 52/52/52
f 53/53/53 54/54/54 55/55/55
f 55/55/55 54/54/54 56/56/56
f 57/57/57 58/58/58 59/59/59
f 57/57/57 60/60/60 58/58/58
f 61/61/61 62/62/62 63/63/63
f 62/62/62 64/64/64 63/63/63
f 65/65/65 66/66/66 67/67/67
f 65/65/65 67/67/67 68/68/68
f 69/69/69 70/70/70 71/71/71
f 69/69/69 71/71/71 72/72/72
f 73/73/73 74/74/74 75/75/75
f 74/74/74 76/76/76 75/75/75
f 77/77/77 78/78/78 79/79/79
f 80/80/80 77/77/77 79/79/79
f 81/81/81 82/82/82 83/83/83
f 83/83/83 82/82/82 84/84/84
f 85/85/85 86/86/86 87/87/87
f 87/87/87 86/86/86 88/88/88
f 89/89/89 90/90/90 91/91/91
f 89/89/89 91/91/91 92/92/92
f 93/93/93 94/94/94 95/95/95
f 93/93/93 95/95/95 96/96/96
f 97/97/97 98/98/98 99/99/99
f 99/99/99 98/98/98 100/100/100
f 101/101/101 102/102/102 103/103/103
f 103/103/103 102/102/102 104/104/104
