v 5.672096 10 5.227509
v 8.327904 10 5.227508
v 5.672097 10 2.772499
v 8.327907 10 2.772498
v 4.917876 0 2.939233
v 10 0 2
v 4.416103 0 5.722796
v 9.412783 0 5.905007
v 9.412783 0 5.905007
v 4.257029 5 6.045551
v 4.416103 0 5.722796
v 9.742964 5 6.045552
v 9.412783 0 5.905007
v 9.742966 5 1.954452
v 9.742964 5 6.045552
v 10 0 2
v 4.257028 5 1.954452
v 9.742966 5 1.954452
v 10 0 2
v 4.917876 0 2.939233
v 4.257028 5 1.954452
v 4.917876 0 2.939233
v 4.416103 0 5.722796
v 4.257029 5 6.045551
v 9.412783 7 5.905007
v 5.672096 10 5.227509
v 4.125203 7.5 6.311385
v 8.327904 10 5.227508
v 9.742964 5 6.045552
v 4.125203 7.5 6.311385
v 4.257029 5 6.045551
v 9.412783 7 5.905007
v 9.412783 7 5.905007
v 8.327907 10 2.772498
v 8.327904 10 5.227508
v 8.522773 7 2.870558
v 9.742964 5 6.045552
v 8.522773 7 2.870558
v 9.412783 7 5.905007
v 9.742966 5 1.954452
v 5.672097 10 2.772499
v 8.327907 10 2.772498
v 8.522773 7 2.870558
v 4.125202 7.5 1.688615
v 4.125202 7.5 1.688615
v 8.522773 7 2.870558
v 9.742966 5 1.954452
v 4.257028 5 1.954452
v 5.672097 10 2.772499
v 4.125202 7.5 1.688615
v 4.125203 7.5 6.311385
v 5.672096 10 5.227509
v 4.125202 7.5 1.688615
v 4.257028 5 1.954452
v 4.257029 5 6.045551
v 4.125203 7.5 6.311385
vn 0 1 0
vn 0 1 0
vn 0 1 0
vn 0 1 0
vn 0 -1 0
vn 0 -1 0
vn 0 -1 0
vn 0 -1 0
vn -0.01818206 -0.04681207 0.9983966
vn -0.01818206 -0.04681207 0.9983966
vn -0.03636386 -0.06552628 0.9971881
vn -2.606569E-07 -0.02809786 0.9996052
vn 0.9926823 -0.006886849 0.07425097
vn 0.9926823 -0.006886849 0.07425097
vn 0.9978268 -0.06589272 4.652057E-07
vn 0.9875378 0.05211902 0.1485015
vn -0.08878729 -0.1109117 -0.9804009
vn 0 -0.00910931 -0.9999585
vn -0.08878729 -0.1109117 -0.9804009
vn -0.1775746 -0.2127142 -0.9608433
vn -0.9852507 -0.09730546 -0.08751796
vn -0.971007 -0.1628121 -0.1750363
vn -0.9852507 -0.09730546 -0.08751796
vn -0.9994943 -0.0317988 3.494875E-07
vn 0.05201644 0.2805093 0.954911
vn 0.05201644 0.2805093 0.954911
vn 0.1040325 0.3407328 0.9343866
vn 3.502692E-07 0.2202857 0.9754354
vn 0.04211209 -0.01102879 0.9936605
vn 0.04211209 -0.01102879 0.9936605
vn -2.59298E-07 -0.1057376 0.9943941
vn 0.08422445 0.08368007 0.992927
vn 0.9493123 0.1965643 -0.1405241
vn 0.9493123 0.1965643 -0.1405241
vn 0.9403989 0.3400732 1.095923E-06
vn 0.9582256 0.05305536 -0.2810494
vn 0.9020766 0.3290724 -0.1393895
vn 0.9020766 0.3290724 -0.1393895
vn 0.9504861 0.1373258 -0.2787794
vn 0.8536671 0.5208191 3.979958E-07
vn 0.1385127 0.100048 -0.9658546
vn -2.691736E-07 -0.03266921 -0.9994662
vn 0.1385127 0.100048 -0.9658546
vn 0.2770258 0.2327652 -0.932243
vn 0.1377697 0.2142224 -0.8967987
vn 0.2755395 0.5341833 -0.7992035
vn 0.1377697 0.2142224 -0.8967987
vn 0 -0.1057384 -0.994394
vn -0.8503755 0.5261763 -3.872634E-08
vn -0.8503754 0.5261764 8.771594E-08
vn -0.8503755 0.5261763 -3.872634E-08
vn -0.8503756 0.5261762 -1.651686E-07
vn -0.9986126 -0.0526572 2.260929E-07
vn -0.9986127 -0.05265699 3.491792E-07
vn -0.9986126 -0.0526572 2.260929E-07
vn -0.9986126 -0.05265741 1.030066E-07
vt 5.672096 5.227509
vt 8.327904 5.227508
vt 5.672097 2.772499
vt 8.327907 2.772498
vt -4.917876 2.939233
vt -10 2
vt -4.416103 5.722796
vt -9.412783 5.905007
vt -9.273738 -0.3538375
vt -4.116114 4.63657
vt -4.282608 -0.3366292
vt -9.600581 4.629238
vt 6.781889 -1.235717
vt 2.881319 3.615347
vt 6.953501 3.67052
vt 2.951348 -1.370438
vt 4.428044 5.188601
vt 9.887585 5.095892
vt 10.14785 0.1742963
vt 5.182202 0.4213948
vt -1.686973 5.447714
vt -2.628924 0.5564418
vt -5.438225 0.5205483
vt -5.770215 5.475418
vt -9.273738 6.634457
vt -5.549716 9.673594
vt -3.978176 7.117203
vt -8.204814 9.670044
vt -9.600581 4.629238
vt -3.978176 7.117203
vt -4.116114 4.63657
vt -9.273738 6.634457
vt 6.781889 5.694956
vt 3.559653 8.774602
vt 6.00331 8.807711
vt 3.675978 5.778405
vt 6.953501 3.67052
vt 3.675978 5.778405
vt 6.781889 5.694956
vt 2.881319 3.615347
vt 5.916457 10.23017
vt 8.559487 10.18529
vt 8.763024 7.243785
vt 4.270805 7.607734
vt 4.270805 7.607734
vt 8.763024 7.243785
vt 9.887585 5.095892
vt 4.428044 5.188601
vt -2.415785 10.57768
vt -1.429814 7.916551
vt -6.043705 7.947855
vt -4.86608 10.5943
vt -1.429814 7.916551
vt -1.686973 5.447714
vt -5.770215 5.475418
vt -6.043705 7.947855
g submesh0
f 1/1/1 2/2/2 3/3/3
f 2/2/2 4/4/4 3/3/3
f 5/5/5 6/6/6 7/7/7
f 6/6/6 8/8/8 7/7/7
f 9/9/9 10/10/10 11/11/11
f 9/9/9 12/12/12 10/10/10
f 13/13/13 14/14/14 15/15/15
f 13/13/13 16/16/16 14/14/14
f 17/17/17 18/18/18 19/19/19
f 20/20/20 17/17/17 19/19/19
f 21/21/21 22/22/22 23/23/23
f 24/24/24 21/21/21 23/23/23
f 25/25/25 26/26/26 27/27/27
f 25/25/25 28/28/28 26/26/26
f 29/29/29 30/30/30 31/31/31
f 29/29/29 32/32/32 30/30/30
f 33/33/33 34/34/34 35/35/35
f 33/33/33 36/36/36 34/34/34
f 37/37/37 38/38/38 39/39/39
f 37/37/37 40/40/40 38/38/38
f 41/41/41 42/42/42 43/43/43
f 44/44/44 41/41/41 43/43/43
f 45/45/45 46/46/46 47/47/47
f 48/48/48 45/45/45 47/47/47
f 49/49/49 50/50/50 51/51/51
f 52/52/52 49/49/49 51/51/51
f 53/53/53 54/54/54 55/55/55
f 56/56/56 53/53/53 55/55/55
