v 6 0 3
v 9 0 1.000016
v 9 0 3
v 7 0 1
v 6.53548 0 6.26798
v 9 0 6
v 11 0 1
v 12 0 3
v 11 0 6.000017
v 5.000181 0 7.54972
v 8.999991 -3.178861E-07 8
v 8.999995 6 8.000001
v 3.464882 6 8.83146
v 8.999991 -3.178861E-07 8
v 12.44113 0.04003048 8.000029
v 8.999995 6 8.000001
v 12.44114 6.04003 7.500022
v 9.000004 5.828829 -1.554006
v 12.37829 5.902243 -0.7155661
v 9 -0.1711708 -1.053997
v 12.37829 -0.09775711 -0.715565
v 9.000004 5.828829 -1.554006
v 9 -0.1711708 -1.053997
v 5.621714 5.902244 -0.7155649
v 5.621714 -0.0977559 -0.7155646
v 12.44113 0.04003048 8.000029
v 14.15926 0.03086562 2.846389
v 12.44114 6.04003 7.500022
v 14.15927 6.030866 2.846389
v 14.15926 0.03086562 2.846389
v 12.37829 -0.09775711 -0.715565
v 14.15927 6.030866 2.846389
v 12.37829 5.902243 -0.7155661
v 5.621714 5.902244 -0.7155649
v 5.621714 -0.0977559 -0.7155646
v 4.000001 6 2.527865
v 4 1.443523E-07 2.527864
v 4.000001 6 2.527865
v 4 1.443523E-07 2.527864
v 3.464882 6 8.83146
v 5.000181 0 7.54972
v 5.000181 0 7.54972
v 8.999991 -3.178861E-07 8
v 11 0 1
v 9 0 1.000016
v 12.37829 -0.09775711 -0.715565
v 9 -0.1711708 -1.053997
v 11 0 6.000017
v 8.999991 -3.178861E-07 8
v 12.44113 0.04003048 8.000029
v 11 0 6.000017
v 12 0 3
v 12.44113 0.04003048 8.000029
v 14.15926 0.03086562 2.846389
v 12 0 3
v 11 0 1
v 14.15926 0.03086562 2.846389
v 12.37829 -0.09775711 -0.715565
v 9 0 1.000016
v 7 0 1
v 9 -0.1711708 -1.053997
v 5.621714 -0.0977559 -0.7155646
v 7 0 1
v 6 0 3
v 5.621714 -0.0977559 -0.7155646
v 4 1.443523E-07 2.527864
v 4 1.443523E-07 2.527864
v 6.53548 6 6.26798
v 9.000004 6 6.000001
v 6.429646 13 6.141209
v 7.944 13 6.39476
v 6.429646 13 6.141209
v 7.944 13 6.39476
v 6.408701 20 7.6765
v 9.000009 20 13.67365
v 7.944 13 6.39476
v 9.000004 6 6.000001
v 10.12017 13 5.88067
v 11 6 5.50001
v 9.000009 20 13.67365
v 7.944 13 6.39476
v 11.00001 20 12.75876
v 10.12017 13 5.88067
v 11.00001 20 0.9999964
v 11.00001 13 0.9999976
v 9.000004 13 0.2500006
v 9.000005 20 -5.496021E-06
v 11.00001 13 0.9999976
v 11.00001 6 0.9999989
v 9.000004 6 0.5000066
v 9.000004 13 0.2500006
v 9.000005 20 -5.496021E-06
v 9.000004 13 0.2500006
v 7 20 0.9999971
v 7 13 0.9999985
v 9.000004 13 0.2500006
v 9.000004 6 0.5000066
v 7 13 0.9999985
v 7 6 0.9999997
v 11 6 5.50001
v 12 6 3
v 12.00001 13 2.999997
v 10.12017 13 5.88067
v 10.12017 13 5.88067
v 12.00001 13 2.999997
v 16.48768 20 5.606033
v 11.00001 20 12.75876
v 12 6 3
v 11.00001 6 0.9999989
v 12.00001 13 2.999997
v 11.00001 13 0.9999976
v 12.00001 13 2.999997
v 11.00001 13 0.9999976
v 16.48768 20 5.606033
v 11.00001 20 0.9999964
v 7 20 0.9999971
v 7 13 0.9999985
v 6.412572 20 2.999998
v 6.412574 13 3.000001
v 7 6 0.9999997
v 6.412576 6 3.000003
v 6.408701 20 7.6765
v 6.412572 20 2.999998
v 6.429646 13 6.141209
v 6.412574 13 3.000001
v 6.429646 13 6.141209
v 6.412574 13 3.000001
v 6.53548 6 6.26798
v 6.412576 6 3.000003
v 9.000005 20 -5.496021E-06
v 7 20 0.9999971
v 6.412572 20 2.999998
v 9.000002 20 2.999994
v 6.408701 20 7.6765
v 9.000009 20 13.67365
v 11.00001 20 0.9999964
v 16.48768 20 5.606033
v 11.00001 20 12.75876
v 9.000004 6 6.000001
v 6.53548 6 6.26798
v 8.999995 6 8.000001
v 3.464882 6 8.83146
v 11 6 5.50001
v 9.000004 6 6.000001
v 12.44114 6.04003 7.500022
v 8.999995 6 8.000001
v 12 6 3
v 11 6 5.50001
v 14.15927 6.030866 2.846389
v 12.44114 6.04003 7.500022
v 11.00001 6 0.9999989
v 12 6 3
v 12.37829 5.902243 -0.7155661
v 14.15927 6.030866 2.846389
v 9.000004 6 0.5000066
v 11.00001 6 0.9999989
v 9.000004 5.828829 -1.554006
v 12.37829 5.902243 -0.7155661
v 7 6 0.9999997
v 9.000004 6 0.5000066
v 5.621714 5.902244 -0.7155649
v 9.000004 5.828829 -1.554006
v 6.412576 6 3.000003
v 7 6 0.9999997
v 4.000001 6 2.527865
v 5.621714 5.902244 -0.7155649
v 4.000001 6 2.527865
vn 0 -1 0
vn 0 -1 0
vn 0 -1 0
vn 0 -1 0
vn 0 -1 0
vn 0 -1 0
vn 0 -1 0
vn 0 -1 0
vn 0 -1 0
vn 0.01724993 -0.08534975 0.9840571
vn -0.1118686 -8.682385E-08 0.993723
vn 0.01724993 -0.08534975 0.9840571
vn 0.1463685 -0.1706994 0.9743911
vn -8.31232E-06 -1.589404E-07 1
vn 0.07117661 0.04110021 0.9931978
vn 0.07117661 0.04110021 0.9931978
vn 0.1423615 0.08220058 0.9863956
vn 0.2417431 -0.08058398 -0.9669884
vn 0.1707114 -0.04029213 -0.981004
vn 0.1707114 -0.04029213 -0.981004
vn 0.09967972 -2.8287E-07 -0.9950196
vn -0.2417433 -0.08058368 -0.9669884
vn -0.1707115 -0.04029186 -0.981004
vn -0.1707115 -0.04029186 -0.981004
vn -0.09967979 -4.942316E-08 -0.9950196
vn 0.9483544 0.02634241 0.3161173
vn 0.9432299 0.01317083 0.3312336
vn 0.9432299 0.01317083 0.3312336
vn 0.9381054 -7.455392E-07 0.3463499
vn 0.8944272 -7.285975E-07 -0.4472136
vn 0.8944273 -8.352216E-07 -0.4472135
vn 0.8944273 -8.352216E-07 -0.4472135
vn 0.8944274 -9.418457E-07 -0.4472133
vn -0.8944275 -2.221331E-08 -0.447213
vn -0.8944274 8.663204E-08 -0.4472132
vn -0.8944274 8.663204E-08 -0.4472132
vn -0.8944274 1.954774E-07 -0.4472133
vn -0.9964161 1.684596E-07 -0.08458689
vn -0.9688336 -0.1404485 0.05143896
vn -0.9688336 -0.1404485 0.05143896
vn -0.9412512 -0.2808972 0.1874648
vn -3.079111E-08 -1 -7.947166E-08
vn -6.158221E-08 -1 -1.589433E-07
vn 4.476041E-07 -0.9983804 0.05689053
vn 0.006667863 -0.9974188 0.06996506
vn 0.006667863 -0.9974188 0.06996506
vn 0.01333528 -0.996457 0.0830396
vn 0.005815666 -0.9999323 0.005815571
vn 0.005815666 -0.9999323 0.005815571
vn 0.01163133 -0.9998647 0.0116313
vn 0.01898775 -0.9997997 0.006329234
vn 0.01687858 -0.9998341 0.006515592
vn 0.01687858 -0.9998341 0.006515592
vn 0.01476942 -0.9998685 0.006701951
vn 0.01380188 -0.9998809 -0.00690094
vn -0.001097121 -0.9993907 0.01858379
vn -0.001097121 -0.9993907 0.01858379
vn -0.01599612 -0.9989004 0.04406852
vn -6.533981E-07 -0.9965456 0.08304698
vn -0.007396742 -0.9970357 0.07588618
vn -0.007396742 -0.9970357 0.07588618
vn -0.01479283 -0.9975259 0.06872536
vn 0.04366563 -0.9988077 0.02183281
vn 0.01865207 -0.9992121 0.02439012
vn 0.01865207 -0.9992121 0.02439012
vn -0.006361495 -0.9996166 0.02694742
vn -4.782831E-08 -1 -6.172153E-09
vn 0.1080767 0.01963458 0.9939486
vn -0.02826164 -0.03031849 0.9885187
vn -0.02826164 -0.03031849 0.9885187
vn -0.1646 -0.08027156 0.9830887
vn -0.1613834 -0.2118874 0.9638771
vn -0.5233652 -0.2380581 0.6732132
vn -0.5233652 -0.2380581 0.6732132
vn -0.885347 -0.2642288 0.3825492
vn 0.2298611 -0.02019593 0.9730139
vn 0.2361662 -0.02123141 0.9714584
vn 0.2361662 -0.02123141 0.9714584
vn 0.2424714 -0.0222669 0.969903
vn 0.2929232 -0.7100425 0.6403402
vn 0.2283517 -0.7059219 0.6668152
vn 0.2283517 -0.7059219 0.6668152
vn 0.1637802 -0.7018012 0.6932901
vn 0.399054 -0.01596427 -0.9151503
vn 0.3511219 -1.674288E-07 -0.9363297
vn 0.399054 -0.01596427 -0.9151503
vn 0.4469861 -0.03192837 -0.8939709
vn 0.2967288 -0.01671132 -0.952975
vn 0.2425319 -1.734752E-07 -0.9701434
vn 0.2967288 -0.01671132 -0.952975
vn 0.3509257 -0.03342247 -0.9358066
vn -0.4469856 -0.03192826 -0.8939712
vn -0.3990538 -0.01596423 -0.9151505
vn -0.3990538 -0.01596423 -0.9151505
vn -0.351122 -1.993199E-07 -0.9363297
vn -0.3509258 -0.03342247 -0.9358066
vn -0.2967289 -0.01671132 -0.952975
vn -0.2967289 -0.01671132 -0.952975
vn -0.242532 -1.734752E-07 -0.9701434
vn 0.8817786 0.03766378 0.4581683
vn 0.9284771 3.794797E-08 0.3713897
vn 0.8817786 0.03766378 0.4581683
vn 0.83508 0.07532753 0.5449468
vn 0.6618558 -0.5836451 0.469203
vn 0.6730726 -0.5950244 0.4392259
vn 0.6618558 -0.5836451 0.469203
vn 0.6506391 -0.5722657 0.4991801
vn 0.8944274 -3.198719E-07 -0.4472131
vn 0.8944273 -1.98016E-07 -0.4472134
vn 0.8944273 -1.98016E-07 -0.4472134
vn 0.8944271 -7.616005E-08 -0.4472138
vn 0.828463 -0.3769101 -0.4142317
vn 0.7356797 -0.1884551 -0.5900924
vn 0.7356797 -0.1884551 -0.5900924
vn 0.6428965 -1.565292E-07 -0.765953
vn -0.9594703 -1.181498E-07 -0.2818096
vn -0.9594705 -2.84861E-07 -0.281809
vn -0.9594705 -2.84861E-07 -0.281809
vn -0.9594707 -4.515722E-07 -0.2818085
vn -0.9594707 -1.520287E-07 -0.2818081
vn -0.9594709 -2.536662E-07 -0.2818078
vn -0.9999957 -0.002810593 -0.0008277443
vn -0.9999905 -0.001405466 0.00230347
vn -0.9999905 -0.001405466 0.00230347
vn -0.9999853 -3.381866E-07 0.005434684
vn -0.9998724 -0.01501887 0.005434071
vn -0.999583 -0.007509534 0.02150816
vn -0.999583 -0.007509534 0.02150816
vn -0.9992936 -1.965341E-07 0.03758225
vn 0 1 0
vn 0 1 0
vn 0 1 0
vn 0 1 0
vn 0 1 0
vn 0 1 0
vn 0 1 0
vn 0 1 0
vn 0 1 0
vn 2.592438E-08 1 2.384187E-07
vn 6.548689E-08 1 1.821247E-07
vn 6.548689E-08 1 1.821247E-07
vn 1.050494E-07 1 1.258307E-07
vn -0.004239273 0.9998472 -0.0169574
vn -0.007935748 0.9998898 -0.008478605
vn -0.007935748 0.9998898 -0.008478605
vn -0.01163222 0.9999323 1.884824E-07
vn -0.01471137 0.9998745 -0.005884531
vn -0.01563393 0.9998524 -0.006983131
vn -0.01563393 0.9998524 -0.006983131
vn -0.01655648 0.9998303 -0.00808173
vn 0.0436663 0.9988075 -0.02183312
vn 0.01369531 0.9991422 -0.02489331
vn 0.01369531 0.9991422 -0.02489331
vn -0.01627569 0.9994767 -0.0279535
vn 0.02075692 0.9963309 -0.08302902
vn 0.007221024 0.9971952 -0.07248721
vn 0.007221024 0.9971952 -0.07248721
vn -0.006314866 0.9980596 -0.06194539
vn -0.01184848 0.9988059 -0.04739466
vn -0.005401602 0.9976755 -0.06522077
vn -0.005401602 0.9976755 -0.06522077
vn 0.001045274 0.9965451 -0.08304688
vn 0 1 0
vn -0.01028637 0.999486 -0.02019752
vn -0.01028637 0.999486 -0.02019752
vn -0.02057273 0.998972 -0.04039504
vn 0 1 0
vt -6 3
vt -9 1.000016
vt -9 3
vt -7 1
vt -6.53548 6.26798
vt -9 6
vt -11 1
vt -12 3
vt -11 6.000017
vt -5.813372 6.028151E-07
vt -9.838448 2.84929E-07
vt -9.838451 6
vt -4.431097 6.000001
vt -9.000058 9.536255E-07
vt -12.4412 0.04003175
vt -9.000062 6.000001
vt -12.4412 6.040031
vt 8.354399 6.10726
vt 11.83517 6.180913
vt 8.475663 0.08768287
vt 11.83517 0.2004257
vt 9.108191 5.755465
vt 8.986918 -0.2641122
vt 5.627416 5.829119
vt 5.627416 -0.1513682
vt 3.655273 -0.3375365
vt -1.777219 -0.3467046
vt 3.180923 5.664546
vt -1.777221 5.651213
vt 8.878102 0.03087392
vt 4.895717 -0.09774881
vt 8.878104 6.030874
vt 4.895718 5.902251
vt 3.154124 5.902244
vt 3.154124 -0.09775601
vt -0.4721392 6
vt -0.472139 3.976749E-08
vt -2.180458 6
vt -2.180457 8.517966E-07
vt -8.506725 6
vt -7.099713 9.468894E-07
vt -5.000181 7.54972
vt -8.999991 8
vt -11 0.9983801
vt -9 0.9983959
vt -12.37829 -0.7199678
vt -9 -1.062028
vt -11 6.000017
vt -8.999991 8
vt -12.44113 8.000029
vt -10.99801 5.998575
vt -11.99784 2.998498
vt -12.43965 7.998627
vt -14.1573 2.844826
vt -11.99886 3.001072
vt -10.99895 1.001024
vt -14.15834 2.847457
vt -12.37576 -0.7136944
vt -9 0.9965618
vt -7 0.996546
vt -9 -1.064571
vt -5.621714 -0.7212108
vt -6.99332 0.9930866
vt -5.994274 2.993563
vt -5.61208 -0.722887
vt -3.996183 2.523448
vt -4 2.527864
vt -5.66275 7.565592
vt -8.141178 7.57937
vt -5.574342 14.31212
vt -7.042729 14.42346
vt -5.574342 14.31212
vt -7.042729 14.42346
vt -5.353464 21.47024
vt -7.140988 23.02926
vt -7.042729 14.42346
vt -8.141178 7.57937
vt -9.267342 14.36737
vt -10.18929 7.521055
vt -7.140988 23.02926
vt -7.042729 14.42346
vt -9.243174 22.86889
vt -9.267342 14.36737
vt 10.92902 19.96903
vt 10.92902 12.9701
vt 8.972938 12.98508
vt 8.986586 19.98837
vt 10.92902 12.9701
vt 10.92902 5.971163
vt 8.95929 5.981788
vt 8.972938 12.98508
vt 8.986586 19.98837
vt 8.972938 12.98508
vt 6.934975 19.97284
vt 6.934975 12.97391
vt 8.972938 12.98508
vt 8.95929 5.981788
vt 6.934975 12.97391
vt 6.934975 5.974976
vt 5.667533 8.821444
vt 3.183102 9.112718
vt 3.1831 15.83153
vt 6.034697 15.29178
vt 6.034697 15.29178
vt 3.1831 15.83153
vt 5.857438 23.79817
vt 12.92543 22.22792
vt 3.183102 9.112718
vt 1.168048 8.840747
vt 3.1831 15.83153
vt 1.168046 15.55955
vt 3.1831 15.83153
vt 1.168046 15.55955
vt 5.857438 23.79817
vt 1.168045 22.27836
vt -0.001444093 19.96795
vt -0.001445324 12.96802
vt -2.064358 19.96929
vt -2.06436 12.96937
vt -0.001446563 5.96809
vt -2.064362 5.969437
vt -6.69454 19.96634
vt -2.064358 19.96929
vt -5.171678 12.96729
vt -2.06436 12.96937
vt -5.171678 12.96729
vt -2.06436 12.96937
vt -5.282232 5.96681
vt -2.064362 5.969437
vt 9.000005 -5.496021E-06
vt 7 0.9999971
vt 6.412572 2.999998
vt 9.000002 2.999994
vt 6.408701 7.6765
vt 9.000009 13.67365
vt 11.00001 0.9999964
vt 16.48768 5.606033
vt 11.00001 12.75876
vt 9.000004 6
vt 6.53548 6.267979
vt 8.999995 8
vt 3.464882 8.831458
vt 11.02534 5.600172
vt 9.025362 6.100235
vt 12.46664 7.600471
vt 9.025353 8.099947
vt 12.08698 3.034212
vt 11.08708 5.534266
vt 14.24646 2.880599
vt 12.52865 7.534354
vt 10.72745 1.141124
vt 11.72649 3.141602
vt 12.10869 -0.5748502
vt 13.88235 2.99076
vt 8.873078 1.011911
vt 10.87265 1.513636
vt 8.876643 -1.049219
vt 12.25267 -0.2017372
vt 7.070679 1.279289
vt 9.070541 0.778733
vt 5.691329 -0.4382061
vt 9.068511 -1.281084
vt 6.412576 3.000003
vt 7 0.9999997
vt 4.000001 2.527865
vt 5.621714 -0.7155649
vt 4.000001 2.527865
g submesh0
f 1/1/1 2/2/2 3/3/3
f 1/1/1 4/4/4 2/2/2
f 5/5/5 3/3/3 6/6/6
f 5/5/5 1/1/1 3/3/3
f 3/3/3 7/7/7 8/8/8
f 3/3/3 2/2/2 7/7/7
f 6/6/6 8/8/8 9/9/9
f 6/6/6 3/3/3 8/8/8
f 10/10/10 11/11/11 12/12/12
f 10/10/10 12/12/12 13/13/13
f 14/14/14 15/15/15 16/16/16
f 16/16/16 15/15/15 17/17/17
f 18/18/18 19/19/19 20/20/20
f 19/19/19 21/21/21 20/20/20
f 22/22/22 23/23/23 24/24/24
f 23/23/23 25/25/25 24/24/24
f 26/26/26 27/27/27 28/28/28
f 28/28/28 27/27/27 29/29/29
f 30/30/30 31/31/31 32/32/32
f 32/32/32 31/31/31 33/33/33
f 34/34/34 35/35/35 36/36/36
f 36/36/36 35/35/35 37/37/37
f 38/38/38 39/39/39 40/40/40
f 40/40/40 39/39/39 41/41/41
f 5/5/5 6/6/6 42/42/42
f 6/6/6 43/43/43 42/42/42
f 44/44/44 45/45/45 46/46/46
f 45/45/45 47/47/47 46/46/46
f 6/6/6 48/48/48 49/49/49
f 48/48/48 50/50/50 49/49/49
f 51/51/51 52/52/52 53/53/53
f 52/52/52 54/54/54 53/53/53
f 55/55/55 56/56/56 57/57/57
f 56/56/56 58/58/58 57/57/57
f 59/59/59 60/60/60 61/61/61
f 60/60/60 62/62/62 61/61/61
f 63/63/63 64/64/64 65/65/65
f 64/64/64 66/66/66 65/65/65
f 1/1/1 5/5/5 67/67/67
f 5/5/5 42/42/42 67/67/67
f 68/68/68 69/69/69 70/70/70
f 70/70/70 69/69/69 71/71/71
f 72/72/72 73/73/73 74/74/74
f 74/74/74 73/73/73 75/75/75
f 76/76/76 77/77/77 78/78/78
f 77/77/77 79/79/79 78/78/78
f 80/80/80 81/81/81 82/82/82
f 81/81/81 83/83/83 82/82/82
f 84/84/84 85/85/85 86/86/86
f 84/84/84 86/86/86 87/87/87
f 88/88/88 89/89/89 90/90/90
f 88/88/88 90/90/90 91/91/91
f 92/92/92 93/93/93 94/94/94
f 93/93/93 95/95/95 94/94/94
f 96/96/96 97/97/97 98/98/98
f 98/98/98 97/97/97 99/99/99
f 100/100/100 101/101/101 102/102/102
f 100/100/100 102/102/102 103/103/103
f 104/104/104 105/105/105 106/106/106
f 104/104/104 106/106/106 107/107/107
f 108/108/108 109/109/109 110/110/110
f 110/110/110 109/109/109 111/111/111
f 112/112/112 113/113/113 114/114/114
f 114/114/114 113/113/113 115/115/115
f 116/116/116 117/117/117 118/118/118
f 118/118/118 117/117/117 119/119/119
f 117/117/117 120/120/120 119/119/119
f 119/119/119 120/120/120 121/121/121
f 122/122/122 123/123/123 124/124/124
f 123/123/123 125/125/125 124/124/124
f 126/126/126 127/127/127 128/128/128
f 127/127/127 129/129/129 128/128/128
g submesh1
f 130/130/130 131/131/131 132/132/132
f 133/133/133 130/130/130 132/132/132
f 133/133/133 132/132/132 134/134/134
f 135/135/135 133/133/133 134/134/134
f 136/136/136 130/130/130 133/133/133
f 137/137/137 136/136/136 133/133/133
f 137/137/137 133/133/133 135/135/135
f 138/138/138 137/137/137 135/135/135
f 139/139/139 140/140/140 141/141/141
f 140/140/140 142/142/142 141/141/141
f 143/143/143 144/144/144 145/145/145
f 144/144/144 146/146/146 145/145/145
f 147/147/147 148/148/148 149/149/149
f 148/148/148 150/150/150 149/149/149
f 151/151/151 152/152/152 153/153/153
f 152/152/152 154/154/154 153/153/153
f 155/155/155 156/156/156 157/157/157
f 156/156/156 158/158/158 157/157/157
f 159/159/159 160/160/160 161/161/161
f 160/160/160 162/162/162 161/161/161
f 163/163/163 164/164/164 165/165/165
f 164/164/164 166/166/166 165/165/165
f 140/140/140 163/163/163 142/142/142
f 163/163/163 167/167/167 142/142/142
