v 0 14 -1
v -4 14 -1
v -4 14 3
v -0.2805455 14 3.59462
v 0 14 -5
v -4 14 -5
v -2 0 3
v 4 0 -3
v 4 0 2
v -1 0 -2
v -1 0 8
v 6 0 9
v 8 0 5
v 9 0 2
v 6 7 4
v 6.5 7 0.5
v 6 7 4
v 6.5 7 0.5
v 4 14 3
v 4 14 -1
v 9 0 2
v 9 0 -3
v 6.5 7 0.5
v 5.897053 10 -4.269048
v 6.5 7 0.5
v 5.897053 10 -4.269048
v 4 14 -1
v 4 14 -5
v -2.527707 10 -3.257406
v -1 0 -2
v -3 7 1
v -2 0 3
v -4 14 -5
v -2.527707 10 -3.257406
v -4 14 -1
v -3 7 1
v -3 7 1
v -2 0 3
v -2.5 7 5.5
v -1 0 8
v -4 14 -1
v -3 7 1
v -4 14 3
v -2.5 7 5.5
v -2.5 7 5.5
v -1 0 8
v 3 7 7
v 6 0 9
v -4 14 3
v -2.5 7 5.5
v -0.2805455 14 3.59462
v 3 7 7
v 1.684673 10 -3.763227
v 4 0 -3
v -1 0 -2
v -2.527707 10 -3.257406
v 0 14 -5
v 1.684673 10 -3.763227
v -2.527707 10 -3.257406
v -4 14 -5
v 4 14 3
v 4 14 -1
v 2 14 -1
v 1.909948 14 4.043773
v 4 14 -5
v 2 14 -5
v 6.5 0 2
v 9 0 -3
v 9 0 2
v 6.5 0 -3
v 7 0 7
v 8 0 5
v 3 7 7
v 6 0 9
v 4.5 7 5.5
v 7 0 7
v 4.5 7 5.5
v 7 0 7
v 6 7 4
v 8 0 5
v -0.2805455 14 3.59462
v 3 7 7
v 1.909948 14 4.043773
v 4.5 7 5.5
v 1.909948 14 4.043773
v 4.5 7 5.5
v 4 14 3
v 6 7 4
v 9 0 -3
v 6.5 0 -3
v 5.897053 10 -4.269048
v 3.790863 10 -4.016137
v 6.5 0 -3
v 4 0 -3
v 3.790863 10 -4.016137
v 1.684673 10 -3.763227
v 4 14 -5
v 5.897053 10 -4.269048
v 3.790863 10 -4.016137
v 2 14 -5
v 2 14 -5
v 3.790863 10 -4.016137
v 1.684673 10 -3.763227
v 0 14 -5
vn 0 1 0
vn 0 1 0
vn 0 1 0
vn 0 1 0
vn 0 1 0
vn 0 1 0
vn 0 -1 0
vn 0 -1 0
vn 0 -1 0
vn 0 -1 0
vn 0 -1 0
vn 0 -1 0
vn 0.904534 0.3015113 0.3015113
vn 0.9143667 0.3299372 0.2167699
vn 0.9143667 0.3299372 0.2167699
vn 0.9241993 0.358363 0.1320285
vn 0.9474018 0.2900209 0.1353431
vn 0.9445719 0.3131787 0.06767155
vn 0.9445719 0.3131787 0.06767155
vn 0.9417419 0.3363364 0
vn 0.9417419 0.3363364 0
vn 0.9459118 0.3200759 0.03549946
vn 0.9459118 0.3200759 0.03549946
vn 0.9500818 0.3038155 0.07099891
vn 0.9291128 0.354431 0.10549
vn 0.9163241 0.3914723 0.05274502
vn 0.9163241 0.3914723 0.05274502
vn 0.9035354 0.4285136 0
vn -0.9573945 -0.175134 -0.229617
vn -0.9598225 -0.1837921 -0.2110335
vn -0.9598225 -0.1837921 -0.2110335
vn -0.9622505 -0.1924501 -0.1924501
vn -0.9384489 -0.3454179 0
vn -0.9421111 -0.2760603 -0.1252864
vn -0.9421111 -0.2760603 -0.1252864
vn -0.9457734 -0.2067027 -0.2505728
vn -0.9878783 -0.1097643 0.1097643
vn -0.9794886 -0.1242463 0.151992
vn -0.9794886 -0.1242463 0.151992
vn -0.971099 -0.1387284 0.1942198
vn -0.9899495 -0.1414214 0
vn -0.9845989 -0.1562006 0.05440269
vn -0.9845989 -0.1562006 0.05440269
vn -0.9792483 -0.1709799 0.1088054
vn -0.2528286 0.2769075 0.9270383
vn -0.195441 0.2469243 0.9467059
vn -0.195441 0.2469243 0.9467059
vn -0.1380534 0.216941 0.9663736
vn -0.1504033 0.3037703 0.9407989
vn -0.1995275 0.3153887 0.9262609
vn -0.1995275 0.3153887 0.9262609
vn -0.2486517 0.3270071 0.911723
vn -0.1563675 -0.1305018 -0.9782141
vn -0.1947134 -0.1193878 -0.9735672
vn -0.1563675 -0.1305018 -0.9782141
vn -0.1180216 -0.1416158 -0.982861
vn -0.05613769 -0.3678893 -0.9258936
vn -0.1122754 -0.336385 -0.9350077
vn -0.05613769 -0.3678893 -0.9258936
vn 0 -0.3993937 -0.9167795
vn 0 1 0
vn 0 1 0
vn 0 1 0
vn 0 1 0
vn 0 1 0
vn 0 1 0
vn 0 -1 0
vn 0 -1 0
vn 0 -1 0
vn 0 -1 0
vn 0 -1 0
vn 0 -1 0
vn 0.6311687 0.4508348 0.6311687
vn 0.7286015 0.4171754 0.5220929
vn 0.7286015 0.4171754 0.5220929
vn 0.8260342 0.3835159 0.4130171
vn 0.6556101 0.3746343 0.6556101
vn 0.7538115 0.3394623 0.5408083
vn 0.7538115 0.3394623 0.5408083
vn 0.8520129 0.3042903 0.4260064
vn -0.1876155 0.3572013 0.9149905
vn 0.2334633 0.3677763 0.7847663
vn 0.2334633 0.3677763 0.7847663
vn 0.654542 0.3783513 0.654542
vn 0.4215133 0.3315504 0.8440385
vn 0.5491144 0.3107857 0.760377
vn 0.5491144 0.3107857 0.760377
vn 0.6767156 0.2900209 0.6767156
vn 0 -0.1258951 -0.9920436
vn -0.05908981 -0.1289587 -0.9881101
vn -0.05908981 -0.1289587 -0.9881101
vn -0.1181796 -0.1320223 -0.9841766
vn 0 -0.1010931 -0.994877
vn -0.05929552 -0.1019637 -0.9912404
vn -0.05929552 -0.1019637 -0.9912404
vn -0.118591 -0.1028343 -0.9876038
vn -0.05799207 -0.2351796 -0.9684752
vn -0.1159841 -0.2315125 -0.9658932
vn -0.05799207 -0.2351796 -0.9684752
vn 0 -0.2388468 -0.9710572
vn -0.05713528 -0.2903115 -0.9534993
vn -0.1142706 -0.2852275 -0.9516236
vn -0.05713528 -0.2903115 -0.9534993
vn 0 -0.2953956 -0.955375
vt 0 -1
vt -4 -1
vt -4 3
vt -0.2805455 3.59462
vt 0 -5
vt -4 -5
vt 2 3
vt -4 -3
vt -4 2
vt 1 -2
vt 1 8
vt -6 9
vt 3.794488 -2.786563
vt 0.6816642 -2.966287
vt 3.093254 4.524146
vt -0.442266 4.527303
vt 3.093254 4.524146
vt -0.442266 4.527303
vt 2.392021 11.83485
vt -1.566196 12.02089
vt 0.6816642 -2.966287
vt -4.266108 -2.73374
vt -0.442266 4.527303
vt -5.074577 7.781184
vt -0.442266 4.527303
vt -5.074577 7.781184
vt -1.566196 12.02089
vt -5.524414 12.20693
vt 3.177677 10.32053
vt 1.968118 0.2072826
vt -1.092298 7.44478
vt -3.060416 0.3722875
vt 4.873906 14.54143
vt 3.177677 10.32053
vt 0.8758195 14.51727
vt -1.092298 7.44478
vt -1.092298 7.44478
vt -3.060416 0.3722875
vt -5.574683 7.32
vt -8.027099 0.146886
vt 0.8758195 14.51727
vt -1.092298 7.44478
vt -3.122267 14.49311
vt -5.574683 7.32
vt 3.657406 4.61775
vt 2.749139 -2.909428
vt -1.373026 3.588075
vt -3.854824 -3.879633
vt 4.565674 12.14493
vt 3.657406 4.61775
vt 1.070684 11.60573
vt -1.373026 3.588075
vt 2.023848 10.51836
vt 4.259111 0.52715
vt -0.811699 0.4193486
vt -2.217206 10.49501
vt 0.4601432 14.71558
vt 2.023848 10.51836
vt -2.217206 10.49501
vt -3.522882 14.78967
vt 4 3
vt 4 -1
vt 2 -1
vt 1.909948 4.043773
vt 4 -5
vt 2 -5
vt -6.5 2
vt -9 -3
vt -9 2
vt -6.5 -3
vt -7 7
vt -8 5
vt -1.373026 3.588075
vt -3.854824 -3.879633
vt -3.168311 4.021864
vt -5.273436 -3.21612
vt -3.168311 4.021864
vt -5.273436 -3.21612
vt -4.963597 4.455654
vt -6.692047 -2.552608
vt 1.070684 11.60573
vt -1.373026 3.588075
vt -0.9656699 11.25113
vt -3.168311 4.021864
vt -0.9656699 11.25113
vt -3.168311 4.021864
vt -3.235146 11.46392
vt -4.963597 4.455654
vt 9.237893 0.4345382
vt 6.748502 0.4808441
vt 6.264902 10.54171
vt 4.144375 10.53004
vt 6.748502 0.4808441
vt 4.259111 0.52715
vt 4.144375 10.53004
vt 2.023848 10.51836
vt 4.443169 14.64149
vt 6.264902 10.54171
vt 4.144375 10.53004
vt 2.451656 14.67853
vt 2.451656 14.67853
vt 4.144375 10.53004
vt 2.023848 10.51836
vt 0.4601432 14.71558
g submesh0
f 1/1/1 2/2/2 3/3/3
f 4/4/4 1/1/1 3/3/3
f 5/5/5 6/6/6 2/2/2
f 1/1/1 5/5/5 2/2/2
f 7/7/7 8/8/8 9/9/9
f 7/7/7 10/10/10 8/8/8
f 11/11/11 9/9/9 12/12/12
f 11/11/11 7/7/7 9/9/9
f 13/13/13 14/14/14 15/15/15
f 15/15/15 14/14/14 16/16/16
f 17/17/17 18/18/18 19/19/19
f 19/19/19 18/18/18 20/20/20
f 21/21/21 22/22/22 23/23/23
f 23/23/23 22/22/22 24/24/24
f 25/25/25 26/26/26 27/27/27
f 27/27/27 26/26/26 28/28/28
f 29/29/29 30/30/30 31/31/31
f 31/31/31 30/30/30 32/32/32
f 33/33/33 34/34/34 35/35/35
f 35/35/35 34/34/34 36/36/36
f 37/37/37 38/38/38 39/39/39
f 39/39/39 38/38/38 40/40/40
f 41/41/41 42/42/42 43/43/43
f 43/43/43 42/42/42 44/44/44
f 45/45/45 46/46/46 47/47/47
f 46/46/46 48/48/48 47/47/47
f 49/49/49 50/50/50 51/51/51
f 50/50/50 52/52/52 51/51/51
f 53/53/53 54/54/54 55/55/55
f 53/53/53 55/55/55 56/56/56
f 57/57/57 58/58/58 59/59/59
f 57/57/57 59/59/59 60/60/60
f 61/61/61 62/62/62 63/63/63
f 61/61/61 63/63/63 64/64/64
f 64/64/64 63/63/63 1/1/1
f 64/64/64 1/1/1 4/4/4
f 65/65/65 66/66/66 63/63/63
f 62/62/62 65/65/65 63/63/63
f 66/66/66 5/5/5 1/1/1
f 63/63/63 66/66/66 1/1/1
f 67/67/67 68/68/68 69/69/69
f 67/67/67 70/70/70 68/68/68
f 9/9/9 70/70/70 67/67/67
f 9/9/9 8/8/8 70/70/70
f 71/71/71 67/67/67 72/72/72
f 72/72/72 67/67/67 69/69/69
f 71/71/71 12/12/12 9/9/9
f 71/71/71 9/9/9 67/67/67
f 73/73/73 74/74/74 75/75/75
f 74/74/74 76/76/76 75/75/75
f 77/77/77 78/78/78 79/79/79
f 78/78/78 80/80/80 79/79/79
f 81/81/81 82/82/82 83/83/83
f 82/82/82 84/84/84 83/83/83
f 85/85/85 86/86/86 87/87/87
f 86/86/86 88/88/88 87/87/87
f 89/89/89 90/90/90 91/91/91
f 91/91/91 90/90/90 92/92/92
f 93/93/93 94/94/94 95/95/95
f 95/95/95 94/94/94 96/96/96
f 97/97/97 98/98/98 99/99/99
f 97/97/97 99/99/99 100/100/100
f 101/101/101 102/102/102 103/103/103
f 101/101/101 103/103/103 104/104/104
