v 4 0 6
v 10 0 6
v 4 6 6.000004
v 10.00001 6 6.000005
v 10 0 2
v 4 0 2
v 10.00001 6 2.000007
v 4 6 2.000006
v 4 0 2
v -2.073599 6 2.00001
v -2.073605 0 2
v 4 0 6
v 4 6 6.000004
v -1.921139 0 6.000001
v -1.921134 6 6.000008
v -1.921134 6 6.000008
v 4 6 6.000004
v -2.079166 12 5.748658
v 4 12 6.000005
v -2.073599 6 2.00001
v 4 12 2.000009
v -1.98282 12 2.144394
v 10.00001 6 6.000005
v 10 0 6
v 10.00001 6 4.000006
v 10 0 4
v 10.00001 6 2.000007
v 10 0 2
v -2.073599 6 2.00001
v -2.073605 0 2
v -1.997372 0 4.000001
v -1.997367 6 4.000009
v -1.921139 0 6.000001
v -1.921134 6 6.000008
v 4 0 4
v 10 0 2
v 10 0 4
v 4 0 2
v 4 0 6
v 10 0 6
v -1.997372 0 4.000001
v -2.073605 0 2
v -1.921139 0 6.000001
v 4 12 6.000005
v 4 6 6.000004
v 4 12 4.000007
v 4 6 4.000005
v 4 12 2.000009
v 4 6 2.000006
v -1.997367 6 4.000009
v -1.98282 12 2.144394
v -2.073599 6 2.00001
v -2.297127 12 3.523239
v -2.297127 12 3.523239
v -1.997367 6 4.000009
v -2.079166 12 5.748658
v -1.921134 6 6.000008
v 10.00001 6 4.000006
v 4 6 4.000005
v 4 6 6.000004
v 10.00001 6 6.000005
v 10.00001 6 2.000007
v 4 6 2.000006
v 4 12 4.000007
v -2.297127 12 3.523239
v -2.079166 12 5.748658
v 4 12 6.000005
v 4 12 2.000009
v -1.98282 12 2.144394
vn 0 -7.152557E-07 1
vn -3.973637E-08 -7.549921E-07 1
vn -3.973637E-08 -7.549921E-07 1
vn -7.947274E-08 -7.947284E-07 1
vn 0 1.152357E-06 -1
vn 3.973638E-08 1.11262E-06 -1
vn 3.973638E-08 1.11262E-06 -1
vn 7.947276E-08 1.072884E-06 -1
vn -2.944118E-07 1.33117E-06 -1
vn -2.944118E-07 1.33117E-06 -1
vn -3.925487E-08 1.589457E-06 -1
vn 2.41594E-07 -7.152557E-07 1
vn 4.429225E-07 -9.139382E-07 1
vn 4.429225E-07 -9.139382E-07 1
vn 6.442511E-07 -1.112621E-06 1
vn 6.436866E-07 0.04185496 0.9991238
vn -0.02065486 0.0209274 0.9991351
vn -0.02065486 0.0209274 0.9991351
vn -0.04131036 -1.5881E-07 0.9991464
vn -0.01205983 0.01220764 -0.9997054
vn -0.01205983 0.01220764 -0.9997054
vn -0.02411911 0.02441485 -0.9994109
vn 1 -1.430511E-06 -4.768374E-07
vn 1 -1.351038E-06 -2.384187E-07
vn 1 -1.351038E-06 -2.384187E-07
vn 1 -1.271566E-06 0
vn 1 -1.271566E-06 0
vn 1 -1.271566E-06 0
vn -0.9992744 8.572749E-07 0.03808868
vn -0.9992744 9.321492E-07 0.0380889
vn -0.9992744 8.572749E-07 0.03808868
vn -0.9992744 7.824005E-07 0.03808845
vn -0.9992744 7.075255E-07 0.03808868
vn -0.9992744 6.326512E-07 0.03808846
vn 0 -1 0
vn 0 -1 0
vn 0 -1 0
vn 0 -1 0
vn 0 -1 0
vn 0 -1 0
vn 0 -1 0
vn 0 -1 0
vn 0 -1 0
vn 1 0 0
vn 1 0 0
vn 1 0 0
vn 1 0 0
vn 1 -5.960466E-08 5.960472E-08
vn 1 -1.192092E-07 -1.192094E-07
vn -0.9860116 -0.02601212 -0.09183811
vn -0.9860116 -0.02601212 -0.09183811
vn -0.9991736 0.01420087 0.03808461
vn -0.9728496 -0.06622512 -0.2217608
vn -0.9943623 -0.04193967 0.0973894
vn -0.9966657 -0.033328 0.06773311
vn -0.9966657 -0.033328 0.06773311
vn -0.9989691 -0.02471632 0.03807682
vn 0 1 0
vn 0 1 0
vn 0 1 0
vn 0 1 0
vn 0 1 0
vn 0 1 0
vn 0 1 0
vn 0 1 0
vn 0 1 0
vn 0 1 0
vn 0 1 0
vn 0 1 0
vt -4 4.291534E-06
vt -10 4.291534E-06
vt -4 6.000004
vt -10.00001 6.000004
vt 10 2.304713E-06
vt 4 2.304713E-06
vt 10.00001 6.000002
vt 4 6.000002
vt 3.999999 2.145769E-06
vt -2.0736 6.000002
vt -2.073606 2.145766E-06
vt -3.999999 4.291535E-06
vt -3.999999 6.000004
vt 1.92114 4.291535E-06
vt 1.921136 6.000004
vt 1.921138 5.743612
vt -3.999996 5.743612
vt 2.07917 11.74887
vt -3.999996 11.73835
vt -2.0736 6.000001
vt 3.999999 12
vt -1.982821 12
vt 6.000007 6.000013
vt 6.000002 1.351038E-05
vt 4.000008 6.000013
vt 4.000002 1.351038E-05
vt 2.000009 6.000013
vt 2.000002 1.351038E-05
vt -1.919577 5.999998
vt -1.919568 -1.841664E-06
vt -3.921021 -1.841664E-06
vt -3.921029 5.999998
vt -5.922473 -1.841664E-06
vt -5.922481 5.999998
vt -4 4
vt -10 2
vt -10 4
vt -4 2
vt -4 6
vt -10 6
vt 1.997372 4.000001
vt 2.073605 2
vt 1.921139 6.000001
vt 6.000005 12
vt 6.000004 6
vt 4.000007 12
vt 4.000005 6
vt 2.000009 12
vt 2.000006 6
vt -3.855383 6.030848
vt -2.005024 12.02832
vt -1.854817 6.030021
vt -3.359385 12.03397
vt -3.359385 12.03397
vt -3.855383 6.030848
vt -5.594462 12.03305
vt -5.855948 6.031674
vt 10.00001 4.000006
vt 4 4.000005
vt 4 6.000004
vt 10.00001 6.000005
vt 10.00001 2.000007
vt 4 2.000006
vt 4 4.000007
vt -2.297127 3.523239
vt -2.079166 5.748658
vt 4 6.000005
vt 4 2.000009
vt -1.98282 2.144394
g submesh0
f 1/1/1 2/2/2 3/3/3
f 2/2/2 4/4/4 3/3/3
f 5/5/5 6/6/6 7/7/7
f 6/6/6 8/8/8 7/7/7
f 8/8/8 9/9/9 10/10/10
f 9/9/9 11/11/11 10/10/10
f 12/12/12 13/13/13 14/14/14
f 13/13/13 15/15/15 14/14/14
f 16/16/16 17/17/17 18/18/18
f 17/17/17 19/19/19 18/18/18
f 8/8/8 20/20/20 21/21/21
f 20/20/20 22/22/22 21/21/21
f 23/23/23 24/24/24 25/25/25
f 24/24/24 26/26/26 25/25/25
f 25/25/25 26/26/26 27/27/27
f 26/26/26 28/28/28 27/27/27
f 29/29/29 30/30/30 31/31/31
f 29/29/29 31/31/31 32/32/32
f 32/32/32 31/31/31 33/33/33
f 32/32/32 33/33/33 34/34/34
f 35/35/35 36/36/36 37/37/37
f 35/35/35 38/38/38 36/36/36
f 39/39/39 37/37/37 40/40/40
f 39/39/39 35/35/35 37/37/37
f 41/41/41 42/42/42 38/38/38
f 35/35/35 41/41/41 38/38/38
f 43/43/43 41/41/41 35/35/35
f 39/39/39 43/43/43 35/35/35
f 44/44/44 45/45/45 46/46/46
f 45/45/45 47/47/47 46/46/46
f 46/46/46 47/47/47 48/48/48
f 47/47/47 49/49/49 48/48/48
f 50/50/50 51/51/51 52/52/52
f 53/53/53 51/51/51 50/50/50
f 54/54/54 55/55/55 56/56/56
f 56/56/56 55/55/55 57/57/57
g submesh1
f 58/58/58 59/59/59 60/60/60
f 61/61/61 58/58/58 60/60/60
f 58/58/58 62/62/62 59/59/59
f 62/62/62 63/63/63 59/59/59
f 64/64/64 65/65/65 66/66/66
f 64/64/64 66/66/66 67/67/67
f 68/68/68 69/69/69 64/64/64
f 64/64/64 69/69/69 65/65/65
