v 4 2 -4
v 0 2 -4
v 0 2 0
v 4 2 0
v 8 2 -4
v 8 2 0
v 0 0 0
v 4 0 -4
v 4 0 0
v 0 0 -4
v 8 0 -4
v 8 0 0
v 8 0 0
v 8 0 -4
v 8.346275 1 -4.228737
v 8.346275 1 0.2287388
v 8.346275 1 0.2287388
v 8.346275 1 -4.228737
v 8 2 -4
v 8 2 0
v -0.3462753 1 -4.228737
v 0 0 0
v -0.3462753 1 0.2287388
v 0 0 -4
v 0 2 -4
v -0.3462753 1 0.2287388
v 0 2 0
v -0.3462753 1 -4.228737
v 0 0 0
v 4 0 0
v 4 1 0.2287388
v -0.3462753 1 0.2287388
v -0.3462753 1 0.2287388
v 4 1 0.2287388
v 4 2 0
v 0 2 0
v 8 0 0
v 8.346275 1 0.2287388
v 8.346275 1 0.2287388
v 8 2 0
v 8.346275 1 -4.228737
v 4 0 -4
v 4 1 -4.228737
v 8 0 -4
v 8 2 -4
v 4 1 -4.228737
v 4 2 -4
v 8.346275 1 -4.228737
v 0 0 -4
v -0.3462753 1 -4.228737
v -0.3462753 1 -4.228737
v 0 2 -4
vn 0 1 0
vn 0 1 0
vn 0 1 0
vn 0 1 0
vn 0 1 0
vn 0 1 0
vn 0 -1 0
vn 0 -1 0
vn 0 -1 0
vn 0 -1 0
vn 0 -1 0
vn 0 -1 0
vn 0.9449506 -0.3272131 0
vn 0.9449506 -0.3272131 0
vn 0.9449506 -0.3272131 0
vn 0.9449506 -0.3272131 0
vn 0.9449506 0.3272131 0
vn 0.9449506 0.3272131 0
vn 0.9449506 0.3272131 0
vn 0.9449506 0.3272131 0
vn -0.9449506 -0.3272131 0
vn -0.9449506 -0.3272131 0
vn -0.9449506 -0.3272131 0
vn -0.9449506 -0.3272131 0
vn -0.9449506 0.3272131 0
vn -0.9449506 0.3272131 0
vn -0.9449506 0.3272131 0
vn -0.9449506 0.3272131 0
vn 0 -0.2229798 0.9748231
vn 0 -0.2229798 0.9748231
vn 0 -0.2229798 0.9748231
vn 0 -0.2229798 0.9748231
vn 0 0.2229798 0.9748231
vn 0 0.2229798 0.9748231
vn 0 0.2229798 0.9748231
vn 0 0.2229798 0.9748231
vn 0 -0.2229798 0.9748231
vn 0 -0.2229798 0.9748231
vn 0 0.2229798 0.9748231
vn 0 0.2229798 0.9748231
vn 0 -0.2229781 -0.9748235
vn 0 -0.2229781 -0.9748235
vn 0 -0.2229781 -0.9748235
vn 0 -0.2229781 -0.9748235
vn 0 0.2229781 -0.9748235
vn 0 0.2229781 -0.9748235
vn 0 0.2229781 -0.9748235
vn 0 0.2229781 -0.9748235
vn 0 -0.2229781 -0.9748235
vn 0 -0.2229781 -0.9748235
vn 0 0.2229781 -0.9748235
vn 0 0.2229781 -0.9748235
vt 4 -4
vt 0 -4
vt 0 0
vt 4 0
vt 8 -4
vt 8 0
vt 0 0
vt -4 -4
vt -4 0
vt 0 -4
vt -8 -4
vt -8 0
vt 0 0
vt -4 0
vt -4.228737 1
vt 0.2287388 1
vt 0.2287388 1
vt -4.228737 1
vt -4 2
vt 0 2
vt 4.228737 1
vt 0 0
vt -0.2287388 1
vt 4 0
vt 4 2
vt -0.2287388 1
vt 0 2
vt 4.228737 1
vt 0 0
vt -4 0
vt -4 1
vt 0.3462753 1
vt 0.3462753 1
vt -4 1
vt -4 2
vt 0 2
vt -8 0
vt -8.346275 1
vt -8.346275 1
vt -8 2
vt 8.346275 1
vt 4 0
vt 4 1
vt 8 0
vt 8 2
vt 4 1
vt 4 2
vt 8.346275 1
vt 0 0
vt -0.3462753 1
vt -0.3462753 1
vt 0 2
g submesh0
f 1/1/1 2/2/2 3/3/3
f 4/4/4 1/1/1 3/3/3
f 5/5/5 1/1/1 4/4/4
f 6/6/6 5/5/5 4/4/4
f 7/7/7 8/8/8 9/9/9
f 7/7/7 10/10/10 8/8/8
f 9/9/9 11/11/11 12/12/12
f 9/9/9 8/8/8 11/11/11
f 13/13/13 14/14/14 15/15/15
f 16/16/16 13/13/13 15/15/15
f 17/17/17 18/18/18 19/19/19
f 20/20/20 17/17/17 19/19/19
f 21/21/21 22/22/22 23/23/23
f 21/21/21 24/24/24 22/22/22
f 25/25/25 26/26/26 27/27/27
f 25/25/25 28/28/28 26/26/26
f 29/29/29 30/30/30 31/31/31
f 32/32/32 29/29/29 31/31/31
f 33/33/33 34/34/34 35/35/35
f 36/36/36 33/33/33 35/35/35
f 30/30/30 37/37/37 38/38/38
f 31/31/31 30/30/30 38/38/38
f 34/34/34 39/39/39 40/40/40
f 35/35/35 34/34/34 40/40/40
f 41/41/41 42/42/42 43/43/43
f 41/41/41 44/44/44 42/42/42
f 45/45/45 46/46/46 47/47/47
f 45/45/45 48/48/48 46/46/46
f 43/43/43 49/49/49 50/50/50
f 43/43/43 42/42/42 49/49/49
f 47/47/47 51/51/51 52/52/52
f 47/47/47 46/46/46 51/51/51
