v -1 0 1
v 2 0 1
v -1.45678 3 0.3191624
v 1.31916 3 1.456778
v 2 0 1
v 2 0 -2
v 1.31916 3 1.456778
v 2.456773 3 -1.31916
v 2 0 -2
v -1 0 -2
v 2.456773 3 -1.31916
v -0.3191624 3 -2.456777
v -1 0 -2
v -1 0 1
v -0.3191624 3 -2.456777
v -1.45678 3 0.3191624
v -1.45678 3 0.3191624
v 1.31916 3 1.456778
v -0.3191624 3 -2.456777
v 2.456773 3 -1.31916
v -1 0 -2
v 2 0 -2
v -1 0 1
v 2 0 1
vn 0 0.221318 0.9752017
vn -0.1849006 -4.097819E-07 0.938784
vn -0.1849006 -4.097819E-07 0.938784
vn -0.3698013 -0.2213188 0.9023663
vn 0.9752015 0.2213188 0
vn 0.9387842 7.227063E-07 0.1849005
vn 0.9387842 7.227063E-07 0.1849005
vn 0.9023669 -0.2213174 0.3698009
vn 0 0.2213187 -0.9752015
vn 0.184901 1.862645E-07 -0.9387839
vn 0.184901 1.862645E-07 -0.9387839
vn 0.369802 -0.2213183 -0.9023662
vn -0.9752017 0.221318 0
vn -0.9387839 -5.587935E-07 -0.1849009
vn -0.9387839 -5.587935E-07 -0.1849009
vn -0.9023661 -0.2213191 -0.3698018
vn 0 1 0
vn 0 1 0
vn 0 1 0
vn 0 1 0
vn 0 -1 0
vn 0 -1 0
vn 0 -1 0
vn 0 -1 0
vt 1 -0.221318
vt -2 -0.221318
vt 1.45678 2.854969
vt -1.31916 2.603194
vt 1 -0.4426376
vt -2 -0.4426376
vt 1.456778 2.63365
vt -1.31916 2.381875
vt 2 -0.4426373
vt -1 -0.4426373
vt 2.456773 2.63365
vt -0.3191624 2.381874
vt 2 -0.221318
vt -1 -0.221318
vt 2.456777 2.854969
vt -0.3191624 2.603194
vt -1.45678 0.3191624
vt 1.31916 1.456778
vt -0.3191624 -2.456777
vt 2.456773 -1.31916
vt 1 -2
vt -2 -2
vt 1 1
vt -2 1
g submesh0
f 1/1/1 2/2/2 3/3/3
f 2/2/2 4/4/4 3/3/3
f 5/5/5 6/6/6 7/7/7
f 6/6/6 8/8/8 7/7/7
f 9/9/9 10/10/10 11/11/11
f 10/10/10 12/12/12 11/11/11
f 13/13/13 14/14/14 15/15/15
f 14/14/14 16/16/16 15/15/15
f 17/17/17 18/18/18 19/19/19
f 18/18/18 20/20/20 19/19/19
f 21/21/21 22/22/22 23/23/23
f 22/22/22 24/24/24 23/23/23
