v -1.368356 0 -1.645767E-07
v 4 0 -10
v 4 0 0
v -2.498461 0 -10
v 8 0 -10
v 8 0 0
v 8 0 0
v 8 0 -10
v 8.346277 7 -10
v 8.346279 7 0
v 8.346279 7 0
v 8.346277 7 -10
v 8.000002 9 -10
v 8.000004 9 0
v 0.238252 7 -10
v -1.368356 0 -1.645767E-07
v 1.788139E-06 7 -4.768372E-07
v -2.498461 0 -10
v 0.2382546 9 -10
v 1.788139E-06 7 -4.768372E-07
v 0 9 0
v 0.238252 7 -10
v -1.368356 0 -1.645767E-07
v 4 0 0
v 4 7 0
v 1.788139E-06 7 -4.768372E-07
v 4 9 0
v 0 9 0
v 8 0 0
v 8.346279 7 0
v 8.000004 9 0
v 8.346277 7 -10
v 4 0 -10
v 4.000004 7 -10
v 8 0 -10
v 8.000002 9 -10
v 4 9 -10
v -2.498461 0 -10
v 0.238252 7 -10
v 0.2382546 9 -10
v 4 9 -10
v 0.2382546 9 -10
v 0 9 0
v 4 9 0
v 8.000002 9 -10
v 8.000004 9 0
vn 0 -1 0
vn 0 -1 0
vn 0 -1 0
vn 0 -1 0
vn 0 -1 0
vn 0 -1 0
vn 0.9987787 -0.0494079 -9.525096E-08
vn 0.9987787 -0.04940776 0
vn 0.9987787 -0.0494079 -9.525096E-08
vn 0.9987787 -0.04940803 -1.905019E-07
vn 0.9853405 0.1705996 -1.879388E-07
vn 0.9853405 0.1705996 -1.879388E-07
vn 0.9853405 0.1705996 -1.879388E-07
vn 0.9853405 0.1705996 -1.879388E-07
vn -0.953696 0.2769581 0.04064912
vn -0.953696 0.2769581 0.04064912
vn -0.9811563 0.1917961 -0.02337607
vn -0.9262356 0.3621201 0.1046743
vn -0.9997163 2.181447E-07 -0.02381848
vn -0.9997163 2.181447E-07 -0.02381848
vn -0.9997163 -8.93816E-07 -0.0238187
vn -0.9997163 1.330105E-06 -0.02381826
vn -7.493308E-08 3.395582E-08 1
vn -3.065682E-08 0 1
vn -7.493308E-08 3.395582E-08 1
vn -1.192093E-07 6.791164E-08 1
vn -5.960467E-08 -1.192093E-07 1
vn 0 -2.384186E-07 1
vn 0 0 1
vn 0 0 1
vn 0 0 1
vn 0 0 -1
vn 0 0 -1
vn 0 0 -1
vn 0 0 -1
vn 0 0 -1
vn 0 0 -1
vn 3.80278E-07 -3.530319E-07 -1
vn 7.60556E-07 -7.060637E-07 -1
vn 0 1.430511E-06 -1
vn 0 1 0
vn 0 1 0
vn 0 1 0
vn 0 1 0
vn 0 1 0
vn 0 1 0
vt 1.368356 -1.645767E-07
vt -4 -10
vt -4 0
vt 2.498461 -10
vt -8 -10
vt -8 0
vt 7.577721E-07 -0.4877382
vt -9.999999 -0.4877382
vt -9.999999 6.478129
vt 7.905722E-07 6.478129
vt 7.905722E-07 6.478129
vt -9.999999 6.478129
vt -9.999999 8.49552
vt 7.577725E-07 8.49552
vt 10.00284 6.967435
vt -0.03259199 -0.1317979
vt 5.192927E-07 6.967435
vt 9.937654 -0.263596
vt 10.00284 8.958132
vt 5.192927E-07 6.967435
vt 0 8.958131
vt 10.00284 6.967435
vt 1.368356 0
vt -4 0
vt -4 7
vt -1.788139E-06 7
vt -4 9
vt 0 9
vt -8 0
vt -8.346279 7
vt -8.000004 9
vt 8.346275 6.999998
vt 3.999998 -1.81112E-06
vt 4.000002 6.999998
vt 7.999998 -1.81112E-06
vt 8 8.999998
vt 3.999998 8.999998
vt -2.498462 -1.811119E-06
vt 0.2382501 6.999998
vt 0.2382527 8.999998
vt 4 -10
vt 0.2382546 -10
vt 0 0
vt 4 0
vt 8.000002 -10
vt 8.000004 0
g submesh0
f 1/1/1 2/2/2 3/3/3
f 1/1/1 4/4/4 2/2/2
f 3/3/3 5/5/5 6/6/6
f 3/3/3 2/2/2 5/5/5
f 7/7/7 8/8/8 9/9/9
f 10/10/10 7/7/7 9/9/9
f 11/11/11 12/12/12 13/13/13
f 14/14/14 11/11/11 13/13/13
f 15/15/15 16/16/16 17/17/17
f 15/15/15 18/18/18 16/16/16
f 19/19/19 20/20/20 21/21/21
f 19/19/19 22/22/22 20/20/20
f 23/23/23 24/24/24 25/25/25
f 26/26/26 23/23/23 25/25/25
f 26/26/26 25/25/25 27/27/27
f 28/28/28 26/26/26 27/27/27
f 24/24/24 29/29/29 30/30/30
f 25/25/25 24/24/24 30/30/30
f 25/25/25 30/30/30 31/31/31
f 27/27/27 25/25/25 31/31/31
f 32/32/32 33/33/33 34/34/34
f 32/32/32 35/35/35 33/33/33
f 36/36/36 34/34/34 37/37/37
f 36/36/36 32/32/32 34/34/34
f 34/34/34 38/38/38 39/39/39
f 34/34/34 33/33/33 38/38/38
f 37/37/37 39/39/39 40/40/40
f 37/37/37 34/34/34 39/39/39
g submesh1
f 41/41/41 42/42/42 43/43/43
f 44/44/44 41/41/41 43/43/43
f 45/45/45 41/41/41 44/44/44
f 46/46/46 45/45/45 44/44/44
