v 3.806559 -1 4.182273
v 6.803326 -1 5.191923
v 3.806559 3 4.182273
v 6.803326 3 5.191923
v 6.803326 -1 5.191923
v 7.576859 -1 -2.755219
v 6.803326 3 5.191923
v 7.576859 3 -2.755219
v 7.576859 -1 -2.755219
v 2.822657 -1 -0.8209195
v 7.576859 3 -2.755219
v 2.822657 3 -0.8209195
v 2.822657 -1 -0.8209195
v 3.806559 -1 4.182273
v 2.822657 3 -0.8209195
v 3.806559 3 4.182273
v 2.822657 -1 -0.8209195
v 7.576859 -1 -2.755219
v 3.806559 -1 4.182273
v 6.803326 -1 5.191923
v 3.806559 3 4.182273
v 6.803326 3 5.191923
v 2.822657 3 -0.8209195
v 7.576859 3 -2.755219
vn -0.3192793 0 0.9476607
vn -0.3192793 0 0.9476607
vn -0.3192793 0 0.9476607
vn -0.3192793 0 0.9476607
vn 0.9952964 0 0.09687689
vn 0.9952964 0 0.09687689
vn 0.9952964 0 0.09687689
vn 0.9952964 0 0.09687689
vn -0.3768628 0 -0.9262691
vn -0.3768628 0 -0.9262691
vn -0.3768628 0 -0.9262691
vn -0.3768628 0 -0.9262691
vn -0.9812068 0 0.1929592
vn -0.9812068 0 0.1929592
vn -0.9812068 0 0.1929592
vn -0.9812068 0 0.1929592
vn 0 -1 0
vn 0 -1 0
vn 0 -1 0
vn 0 -1 0
vn 0 1 0
vn 0 1 0
vn 0 1 0
vn 0 1 0
vt -4.94264 -1
vt -8.104918 -1
vt -4.94264 3
vt -8.104918 3
vt 4.508417 -1
vt -3.476282 -1
vt 4.508417 3
vt -3.476282 3
vt 8.056549 -1
vt 2.923913 -1
vt 8.056549 3
vt 2.923913 3
vt 0.2608343 -1
vt -4.838185 -1
vt 0.2608343 3
vt -4.838185 3
vt -2.822657 -0.8209195
vt -7.576859 -2.755219
vt -3.806559 4.182273
vt -6.803326 5.191923
vt 3.806559 4.182273
vt 6.803326 5.191923
vt 2.822657 -0.8209195
vt 7.576859 -2.755219
g submesh0
f 1/1/1 2/2/2 3/3/3
f 2/2/2 4/4/4 3/3/3
f 5/5/5 6/6/6 7/7/7
f 6/6/6 8/8/8 7/7/7
f 9/9/9 10/10/10 11/11/11
f 10/10/10 12/12/12 11/11/11
f 13/13/13 14/14/14 15/15/15
f 14/14/14 16/16/16 15/15/15
f 17/17/17 18/18/18 19/19/19
f 18/18/18 20/20/20 19/19/19
g submesh1
f 21/21/21 22/22/22 23/23/23
f 22/22/22 24/24/24 23/23/23
