v -0.4868126 8 5.999997
v 1.031144 5.2 6.425367
v 4.693421 8 7.115311
v 5.705648 5.2 6.487422
v 1.031144 5.2 6.425367
v 0.5440257 0 10.07884
v 5.705648 5.2 6.487422
v 7.050054 0 9.118665
v 4.238186 8 -7.019498
v 6.040359 5.2 -7.372578
v 0.7413657 3.6 -5.132669
v -1.348953 8 -5.203792
v 6.040359 5.2 -7.372578
v 8.342058 0 -11.39651
v 0.681722 0 -7.61243
v 0.7413657 3.6 -5.132669
v 4.693421 8 7.115311
v 5.705648 5.2 6.487422
v 6.836404 8 7.753766
v 7.63891 5.2 6.764746
v 5.705648 5.2 6.487422
v 7.050054 0 9.118665
v 7.63891 5.2 6.764746
v 9.740219 0 9.173518
v 6.836404 8 7.753766
v 7.63891 5.2 6.764746
v 9.384686 8 6.921054
v 11.48215 5 6.146029
v 7.63891 5.2 6.764746
v 9.740219 0 9.173518
v 11.48215 5 6.146029
v 11.48215 0 6.146029
v 11.95694 0 -5.471828
v 8.61496 5.2 -6.896371
v 9.791037 3.6 -4.523962
v 11.77929 0 -8.791234
v 10.00001 8 -5.822652
v 9.791037 3.6 -4.523962
v 8.61496 5.2 -6.896371
v 7.119096 8 -6.421075
v 8.61496 5.2 -6.896371
v 11.77929 0 -8.791234
v 8.342058 0 -11.39651
v 6.040359 5.2 -7.372578
v 7.119096 8 -6.421075
v 8.61496 5.2 -6.896371
v 6.040359 5.2 -7.372578
v 4.238186 8 -7.019498
v 0.5440257 0 10.07884
v 0.1287746 0 5.096736
v 7.050054 0 9.118665
v 7.37306 0 4.623723
v 9.740219 0 9.173518
v 10.24999 0 5.264926
v 11.48215 0 6.146029
v 12.1206 0 2.632246
v 11.48215 0 6.146029
v 12.1206 0 2.632246
v 11.48215 5 6.146029
v 12.1206 4 2.632243
v 9.384686 8 6.921054
v 11.48215 5 6.146029
v 11.48215 8 6.146029
v 0.7672271 4 2.953753
v 0.1287746 0 5.096736
v 1.031144 5.2 6.425367
v 0.5440257 0 10.07884
v -0.7023467 8 3.769161
v 0.7672271 4 2.953753
v -0.4868126 8 5.999997
v 1.031144 5.2 6.425367
v 0.08325112 0 3.683255
v 7.534557 0 2.033546
v 10.50487 0 3.03646
v 10.75975 0 -2.893156
v 7.696056 0 -4.257786
v 11.6146 0 2.431988
v 11.68307 0 -2.712859
v 11.48215 8 6.146029
v 12.1206 4 2.632243
v 12.1206 8 2.632246
v 9.654108 5.2 1.964632
v 12.1206 8 2.632246
v 9.654108 5.2 1.964632
v 10 8 -2.920094
v 9.681492 5.2 -1.02545
v -0.9178869 8 -2.738601
v 0.886256 5.2 -2.417841
v -0.8101225 8 2.43439
v 0.7672271 4 2.953753
v -0.8101225 8 2.43439
v 0.7672271 4 2.953753
v -0.7023467 8 3.769161
v 12.1206 4 2.632243
v 12.1206 0 2.632246
v 0.7672271 4 2.953753
v 0.1287746 0 5.096736
v -0.09884298 0 -1.970668
v 0.5396122 0 -4.113651
v 8.019057 0 -7.827148
v 0.681722 0 -7.61243
v 8.342058 0 -11.39651
v 11.26952 0 -5.842195
v 11.77929 0 -8.791234
v 11.82 0 -4.092344
v 11.95694 0 -5.471828
v 9.681492 5.2 -1.02545
v 9.736263 4.4 -3.734266
v 10.00001 8 -4.371373
v 10 8 -2.920094
v 9.736263 4.4 -3.734266
v 9.791037 3.6 -4.523962
v 10.00001 8 -5.822652
v 10.00001 8 -4.371373
v 0.7413657 3.6 -5.132669
v 0.681722 0 -7.61243
v 0.5396122 0 -4.113651
v 1.269114 4 -3.429673
v -1.13342 8 -3.971197
v -1.348953 8 -5.203792
v 1.269114 4 -3.429673
v 0.7413657 3.6 -5.132669
v -0.9178869 8 -2.738601
v -1.13342 8 -3.971197
v 0.886256 5.2 -2.417841
v 1.269114 4 -3.429673
v 5.210668 5 2.459194
v 5.311094 5 -3.011985
v 9.654108 5.2 1.964632
v 9.681492 5.2 -1.02545
v 0.7672271 4 2.953753
v 0.9406953 5.551575 -3.079395
v 5.210668 5 2.459194
v 5.311094 5 -3.011985
v 5.527633 3.767242 -3.974213
v 6.248276 0 -4.79274
v 9.791037 3.6 -4.523962
v 11.95694 0 -5.471828
v 0.5396122 0 -4.113651
v 5.527633 3.767242 -3.974213
v 1.26423 3.934485 -3.424463
v 6.248276 0 -4.79274
v 9.654108 5.2 1.964632
v 12.1206 4 2.632243
v 5.210668 5 2.459194
v 0.7672271 4 2.953753
v 1.26423 3.934485 -3.424463
v 5.527633 3.767242 -3.974213
v 1.269114 4 -3.429673
v 5.502689 4.2 -3.581969
v 5.527633 3.767242 -3.974213
v 9.736263 4.4 -3.734266
v 9.791037 3.6 -4.523962
v 0.9406953 5.551575 -3.079395
v 1.269114 4 -3.429673
v 5.311094 5 -3.011985
v 5.502689 4.2 -3.581969
v 5.311094 5 -3.011985
v 5.502689 4.2 -3.581969
v 9.681492 5.2 -1.02545
v 9.736263 4.4 -3.734266
v 4.693421 8 7.115311
v 4.579616 8 4.197875
v -0.4868126 8 5.999997
v -0.7023467 8 3.769161
v 9.384686 8 6.921054
v 11.48215 8 6.146029
v 6.907079 8 4.735137
v 6.836404 8 7.753766
v 4.522706 8 2.362479
v -0.8101225 8 2.43439
v 4.465804 8 -3.036987
v -0.9178869 8 -2.738601
v 12.1206 8 2.632246
v 6.942414 8 2.986231
v 10 8 -2.920094
v 6.977747 8 -2.463835
v 4.351995 8 -5.028242
v -1.13342 8 -3.971197
v 4.238186 8 -7.019498
v -1.348953 8 -5.203792
v 10.00001 8 -5.822652
v 7.119096 8 -6.421075
v 7.048421 8 -4.442455
v 10.00001 8 -4.371373
vn -0.2103542 0.0343881 0.9770203
vn -0.1116465 -0.09442841 0.9758484
vn -0.1116465 -0.09442841 0.9758484
vn -0.01293886 -0.2232449 0.9746765
vn -0.01085509 0.5755314 0.8177077
vn 0.05885092 0.5247718 0.8443953
vn 0.05885092 0.5247718 0.8443953
vn 0.1285569 0.4740123 0.8710829
vn -0.3313538 -0.1366999 -0.9328691
vn -0.3576264 -0.1132895 -0.9269676
vn -0.3313538 -0.1366999 -0.9328691
vn -0.3050812 -0.1601103 -0.9387705
vn -0.4287276 0.4770896 -0.7649356
vn -0.3964905 0.4456081 -0.8026386
vn -0.4287276 0.4770896 -0.7649356
vn -0.4609647 0.5085711 -0.7272325
vn -0.272089 -0.3031599 0.9132698
vn -0.2021822 -0.3333899 0.9176891
vn -0.2021822 -0.3333899 0.9176891
vn -0.1322754 -0.3636198 0.9221084
vn -0.1287967 0.4210247 0.8978583
vn -0.07367659 0.4175443 0.9039586
vn -0.07367659 0.4175443 0.9039586
vn -0.01855642 0.4140638 0.9100587
vn 0.3015675 -0.2395431 0.922863
vn 0.2256273 -0.1937231 0.9502358
vn 0.2256273 -0.1937231 0.9502358
vn 0.1496871 -0.1479031 0.9776086
vn 0.1641335 0.4684553 0.868107
vn 0.5154506 0.2342277 0.6834095
vn 0.5154506 0.2342277 0.6834095
vn 0.8667677 0 0.498712
vn 0.8467137 0.5291023 -0.05501299
vn 0.8467137 0.5291023 -0.05501299
vn 0.8474516 0.5269091 -0.06475015
vn 0.8459758 0.5312956 -0.04527582
vn 0.5072932 0.03348482 -0.7417037
vn 0.81848 -0.1980555 -0.5393186
vn 0.5072932 0.03348482 -0.7417037
vn 0.1961063 0.2650252 -0.944089
vn 0.3218905 0.5967516 -0.7090786
vn 0.5046141 0.5496688 -0.6657544
vn 0.3218905 0.5967516 -0.7090786
vn 0.1391669 0.6438344 -0.7524027
vn 0.186476 0.2509231 -0.9498059
vn 0.1758498 0.2553303 -0.9507278
vn 0.186476 0.2509231 -0.9498059
vn 0.1971023 0.2465159 -0.9488839
vn 0 -1 0
vn 0 -1 0
vn 0 -1 0
vn 0 -1 0
vn 0 -1 0
vn 0 -1 0
vn 0 -1 0
vn 0 -1 0
vn 0.9838904 0 0.1787726
vn 0.9838905 4.104726E-07 0.1787721
vn 0.9838905 4.104726E-07 0.1787721
vn 0.9838906 8.209451E-07 0.1787715
vn 0.346602 0 0.9380123
vn 0.6652463 0 0.558392
vn 0.6652463 0 0.558392
vn -0.9858639 0.1666483 0.01734313
vn -0.9855672 0.1583213 0.04973196
vn -0.9855672 0.1583213 0.04973196
vn -0.9852704 0.1499943 0.08212078
vn -0.9288081 -0.3595312 0.08973759
vn -0.9001334 -0.3994197 0.1539193
vn -0.9001334 -0.3994197 0.1539193
vn -0.8714587 -0.4393083 0.2181011
vn 0 -1 0
vn 0 -1 0
vn 0 -1 0
vn 0 -1 0
vn 0 -1 0
vn 0 -1 0
vn 0 -1 0
vn 0.9838904 -8.209458E-07 0.1787726
vn 0.6225809 -1.874722E-07 -0.3932464
vn 0.6225809 -1.874722E-07 -0.3932464
vn 0.2612713 4.460015E-07 -0.9652654
vn 0.7517113 -0.5937204 -0.2870996
vn 0.8729677 -0.3503284 -0.1389971
vn 0.8729677 -0.3503284 -0.1389971
vn 0.9942242 -0.1069364 0.009105316
vn -0.8413962 -0.5401345 0.01752806
vn -0.8809386 -0.4583427 -0.04349464
vn -0.8809386 -0.4583427 -0.04349464
vn -0.9204812 -0.3765508 -0.1045173
vn -0.9309425 -0.3573455 0.07516877
vn -0.9309425 -0.3573455 0.07516877
vn -0.9309425 -0.3573455 0.07516877
vn -0.02830713 -6.756352E-07 -0.9995993
vn -0.1044448 -0.2209648 -0.9391426
vn -0.1044448 -0.2209648 -0.9391426
vn -0.1805824 -0.4419289 -0.8786858
vn 0 -1 0
vn 0 -1 0
vn 0 -1 0
vn 0 -1 0
vn 0 -1 0
vn 0 -1 0
vn 0 -1 0
vn 0 -1 0
vn 0 -1 0
vn 0.9953108 -0.08952539 0.01982987
vn 0.9970295 -0.06602554 0.03965909
vn 0.9953108 -0.08952539 0.01982987
vn 0.9935921 -0.1130252 6.529161E-07
vn 0.9965247 -0.04688909 0.04502287
vn 0.9957222 -0.02071221 0.09004574
vn 0.9965247 -0.04688909 0.04502287
vn 0.9973271 -0.07306596 0
vn -0.9767851 0.08662485 0.1126375
vn -0.998188 0.04446487 -0.0405434
vn -0.9767851 0.08662485 0.1126375
vn -0.9553822 0.1287848 0.2658184
vn -0.8564042 -0.4941116 0.149752
vn -0.8514457 -0.4452546 0.2525896
vn -0.8514457 -0.4452546 0.2525896
vn -0.8464871 -0.3963975 0.3554273
vn -0.8390829 -0.5238438 0.1467231
vn -0.8423781 -0.4994198 0.195033
vn -0.8423781 -0.4994198 0.195033
vn -0.8456733 -0.4749959 0.2433428
vn 0.04505645 -0.9989841 0.0008270335
vn 0.04529093 -0.9989736 0.0006219825
vn 0.04529093 -0.9989736 0.0006219825
vn 0.04552541 -0.9989631 0.0004169314
vn 0.187709 -0.9525588 -0.2395772
vn 0.03126525 -0.9723452 -0.1209374
vn 0.03126525 -0.9723452 -0.1209374
vn -0.1251785 -0.9921316 -0.002297713
vn 0.1182753 -0.1891733 0.9747946
vn 0.1171578 -0.1880991 0.975136
vn 0.1171578 -0.1880991 0.975136
vn 0.1160404 -0.1870249 0.9754775
vn 0.117026 -0.191021 0.9745834
vn 0.117026 -0.191021 0.9745834
vn 0.118071 -0.1923901 0.9741895
vn 0.1159809 -0.1896518 0.9749773
vn -0.06398576 -0.5823757 -0.8103977
vn -0.04527309 -0.4641062 -0.8741582
vn -0.04527309 -0.4641062 -0.8741582
vn -0.02656043 -0.3458367 -0.9379187
vn 0.1302427 0.06893715 0.9890826
vn 0.09424829 -0.299825 0.8652157
vn 0.09424829 -0.299825 0.8652157
vn 0.05825392 -0.6685871 0.7413486
vn 0.06135118 -0.6836987 0.7268733
vn 0.06135118 -0.6836987 0.7268733
vn 0.06444845 -0.6988102 0.7123979
vn -0.04387977 -0.2288307 0.9724768
vn 0.006271556 -0.3995862 0.8959721
vn 0.006271556 -0.3995862 0.8959721
vn 0.05642289 -0.5703418 0.8194674
vn -0.3081671 -0.599875 0.7383651
vn -0.1263669 -0.7785725 0.5110992
vn -0.1263669 -0.7785725 0.5110992
vn 0.05543323 -0.95727 0.2838333
vn 0 1 0
vn 0 1 0
vn 0 1 0
vn 0 1 0
vn 0 1 0
vn 0 1 0
vn 0 1 0
vn 0 1 0
vn 0 1 0
vn 0 1 0
vn 0 1 0
vn 0 1 0
vn 0 1 0
vn 0 1 0
vn 0 1 0
vn 0 1 0
vn 0 1 0
vn 0 1 0
vn 0 1 0
vn 0 1 0
vn 0 1 0
vn 0 1 0
vn 0 1 0
vn 0 1 0
vt 0.3128081 6.828401
vt -1.216834 4.004835
vt -4.897559 6.660067
vt -5.891173 4.017638
vt -1.216834 4.004835
vt -0.8357484 -1.755047
vt -5.891173 4.017638
vt -7.311233 -1.554706
vt 1.306528 4.929374
vt 2.846011 1.955952
vt -1.231305 1.764171
vt -3.196633 6.157456
vt 2.846011 1.955952
vt 3.476406 -4.455787
vt -2.213712 -2.381156
vt -1.231305 1.764171
vt -4.897559 6.660067
vt -5.891173 4.017638
vt -7.058137 6.559547
vt -7.831657 3.979042
vt -5.891173 4.017638
vt -7.311233 -1.554706
vt -7.831657 3.979042
vt -10.00186 -1.550677
vt -7.058137 6.559547
vt -7.831657 3.979042
vt -9.581228 6.717656
vt -11.65536 3.909441
vt -7.831657 3.979042
vt -10.00186 -1.550677
vt -11.65536 3.909441
vt -11.65536 -1.013865
vt 9.044166 -3.107032
vt 5.411949 1.786406
vt 7.389696 0.8466516
vt 7.638397 -4.087543
vt 7.09798 4.589525
vt 7.389696 0.8466516
vt 5.411949 1.786406
vt 4.202254 4.759449
vt 5.411949 1.786406
vt 7.638397 -4.087543
vt 3.476406 -4.455787
vt 2.846011 1.955952
vt 4.202254 4.759449
vt 5.411949 1.786406
vt 2.846011 1.955952
vt 1.306528 4.929374
vt -0.5440257 10.07884
vt -0.1287746 5.096736
vt -7.050054 9.118665
vt -7.37306 4.623723
vt -9.740219 9.173518
vt -10.24999 5.264926
vt -11.48215 6.146029
vt -12.1206 2.632246
vt 3.475837 1.63307
vt -0.09239395 1.613763
vt 3.475837 6.590566
vt -0.09239588 5.579759
vt 4.692351 9.320946
vt 3.475837 6.590566
vt 3.475837 9.565063
vt -3.000905 3.636411
vt -5.092961 0.07204452
vt -6.4825 4.773552
vt -10.09199 0.05384359
vt -3.709551 7.911106
vt -3.000905 3.636411
vt -5.950073 7.893892
vt -6.4825 4.773552
vt -0.08325112 3.683255
vt -7.534557 2.033546
vt -10.50487 3.03646
vt -10.75975 -2.893156
vt -7.696056 -4.257786
vt -11.6146 2.431988
vt -11.68307 -2.712859
vt 3.475837 9.565063
vt -0.09239588 5.579759
vt -0.09239395 9.545756
vt -0.202337 6.437396
vt -0.09239395 9.545756
vt -0.202337 6.437396
vt -5.043862 9.117996
vt -3.12551 6.355476
vt 2.797032 7.834771
vt 2.348563 4.624494
vt -2.370493 7.914918
vt -3.000905 3.636411
vt -2.370493 7.914918
vt -3.000905 3.636411
vt -3.709551 7.911106
vt 12.04123 3.999998
vt 12.04123 -2.009535E-06
vt 0.6833074 3.999998
vt -0.01555091 -3.444617E-06
vt 0.09884298 -1.970668
vt -0.5396122 -4.113651
vt -8.019057 -7.827148
vt -0.681722 -7.61243
vt -8.342058 -11.39651
vt -11.26952 -5.842195
vt -11.77929 -8.791234
vt -11.82 -4.092344
vt -11.95694 -5.471828
vt -3.12551 6.355476
vt -5.780289 5.491867
vt -6.459749 9.076549
vt -5.043862 9.117996
vt -5.780289 5.491867
vt -6.562749 4.683068
vt -7.875636 9.035101
vt -6.459749 9.076549
vt 5.066815 3.086775
vt 7.544524 -0.3752997
vt 4.064759 -0.2552454
vt 3.330549 3.343071
vt 4.041851 7.87382
vt 5.286669 7.912869
vt 3.330549 3.343071
vt 5.066815 3.086775
vt 2.797032 7.834771
vt 4.041851 7.87382
vt 2.348563 4.624494
vt 3.330549 3.343071
vt -5.76616 1.916952
vt -5.86588 -3.512865
vt -10.20201 1.465511
vt -10.22921 -1.502358
vt -1.23556 2.464183
vt -1.591565 -3.708249
vt -5.76616 1.916952
vt -5.86588 -3.512865
vt -5.965866 3.072308
vt -6.779806 -0.7642131
vt -10.26444 2.901936
vt -12.5287 -0.7617167
vt -1.030908 -0.7667094
vt -5.965866 3.072308
vt -1.667288 3.242679
vt -6.779806 -0.7642131
vt 9.469518 2.64404
vt 11.8758 1.16788
vt 5.000936 2.398014
vt 0.5323538 1.501653
vt -1.100237 2.301466
vt -5.332735 1.859151
vt -1.104868 2.359904
vt -5.326439 2.40942
vt -5.332735 1.859151
vt -9.548011 2.458937
vt -9.565233 1.416836
vt -0.7934481 3.933148
vt -1.104868 2.359904
vt -5.162119 3.369957
vt -5.326439 2.40942
vt -5.162119 3.369957
vt -5.326439 2.40942
vt -9.621896 4.235207
vt -9.548011 2.458937
vt 4.693421 7.115311
vt 4.579616 4.197875
vt -0.4868126 5.999997
vt -0.7023467 3.769161
vt 9.384686 6.921054
vt 11.48215 6.146029
vt 6.907079 4.735137
vt 6.836404 7.753766
vt 4.522706 2.362479
vt -0.8101225 2.43439
vt 4.465804 -3.036987
vt -0.9178869 -2.738601
vt 12.1206 2.632246
vt 6.942414 2.986231
vt 10 -2.920094
vt 6.977747 -2.463835
vt 4.351995 -5.028242
vt -1.13342 -3.971197
vt 4.238186 -7.019498
vt -1.348953 -5.203792
vt 10.00001 -5.822652
vt 7.119096 -6.421075
vt 7.048421 -4.442455
vt 10.00001 -4.371373
g submesh0
f 1/1/1 2/2/2 3/3/3
f 2/2/2 4/4/4 3/3/3
f 5/5/5 6/6/6 7/7/7
f 6/6/6 8/8/8 7/7/7
f 9/9/9 10/10/10 11/11/11
f 9/9/9 11/11/11 12/12/12
f 13/13/13 14/14/14 15/15/15
f 13/13/13 15/15/15 16/16/16
f 17/17/17 18/18/18 19/19/19
f 18/18/18 20/20/20 19/19/19
f 21/21/21 22/22/22 23/23/23
f 22/22/22 24/24/24 23/23/23
f 25/25/25 26/26/26 27/27/27
f 26/26/26 28/28/28 27/27/27
f 29/29/29 30/30/30 31/31/31
f 30/30/30 32/32/32 31/31/31
f 33/33/33 34/34/34 35/35/35
f 36/36/36 34/34/34 33/33/33
f 37/37/37 38/38/38 39/39/39
f 37/37/37 39/39/39 40/40/40
f 41/41/41 42/42/42 43/43/43
f 41/41/41 43/43/43 44/44/44
f 45/45/45 46/46/46 47/47/47
f 45/45/45 47/47/47 48/48/48
f 49/49/49 50/50/50 51/51/51
f 51/51/51 50/50/50 52/52/52
f 53/53/53 51/51/51 54/54/54
f 51/51/51 52/52/52 54/54/54
f 53/53/53 54/54/54 55/55/55
f 55/55/55 54/54/54 56/56/56
f 57/57/57 58/58/58 59/59/59
f 59/59/59 58/58/58 60/60/60
f 61/61/61 62/62/62 63/63/63
f 62/62/62 60/60/60 63/63/63
f 64/64/64 65/65/65 66/66/66
f 66/66/66 65/65/65 67/67/67
f 68/68/68 69/69/69 70/70/70
f 70/70/70 69/69/69 71/71/71
f 50/50/50 72/72/72 52/52/52
f 52/52/52 72/72/72 73/73/73
f 54/54/54 52/52/52 74/74/74
f 52/52/52 73/73/73 74/74/74
f 74/74/74 73/73/73 75/75/75
f 73/73/73 76/76/76 75/75/75
f 54/54/54 74/74/74 56/56/56
f 56/56/56 74/74/74 77/77/77
f 74/74/74 75/75/75 77/77/77
f 77/77/77 75/75/75 78/78/78
f 79/79/79 80/80/80 81/81/81
f 80/80/80 82/82/82 81/81/81
f 83/83/83 84/84/84 85/85/85
f 84/84/84 86/86/86 85/85/85
f 87/87/87 88/88/88 89/89/89
f 89/89/89 88/88/88 90/90/90
f 91/91/91 92/92/92 93/93/93
f 94/94/94 95/95/95 96/96/96
f 95/95/95 97/97/97 96/96/96
f 98/98/98 99/99/99 76/76/76
f 76/76/76 99/99/99 100/100/100
f 99/99/99 101/101/101 100/100/100
f 100/100/100 101/101/101 102/102/102
f 75/75/75 76/76/76 103/103/103
f 76/76/76 100/100/100 103/103/103
f 103/103/103 100/100/100 104/104/104
f 100/100/100 102/102/102 104/104/104
f 78/78/78 75/75/75 105/105/105
f 75/75/75 103/103/103 105/105/105
f 105/105/105 103/103/103 106/106/106
f 103/103/103 104/104/104 106/106/106
f 107/107/107 108/108/108 109/109/109
f 110/110/110 107/107/107 109/109/109
f 111/111/111 112/112/112 113/113/113
f 111/111/111 113/113/113 114/114/114
f 115/115/115 116/116/116 117/117/117
f 115/115/115 117/117/117 118/118/118
f 119/119/119 120/120/120 121/121/121
f 120/120/120 122/122/122 121/121/121
f 123/123/123 124/124/124 125/125/125
f 124/124/124 126/126/126 125/125/125
f 127/127/127 128/128/128 129/129/129
f 129/129/129 128/128/128 130/130/130
f 131/131/131 132/132/132 133/133/133
f 133/133/133 132/132/132 134/134/134
f 135/135/135 136/136/136 137/137/137
f 136/136/136 138/138/138 137/137/137
f 139/139/139 140/140/140 141/141/141
f 139/139/139 142/142/142 140/140/140
f 143/143/143 144/144/144 145/145/145
f 145/145/145 144/144/144 146/146/146
f 147/147/147 148/148/148 149/149/149
f 149/149/149 148/148/148 150/150/150
f 150/150/150 151/151/151 152/152/152
f 151/151/151 153/153/153 152/152/152
f 154/154/154 155/155/155 156/156/156
f 155/155/155 157/157/157 156/156/156
f 158/158/158 159/159/159 160/160/160
f 159/159/159 161/161/161 160/160/160
g submesh1
f 162/162/162 163/163/163 164/164/164
f 163/163/163 165/165/165 164/164/164
f 166/166/166 167/167/167 168/168/168
f 166/166/166 168/168/168 169/169/169
f 168/168/168 162/162/162 169/169/169
f 168/168/168 163/163/163 162/162/162
f 163/163/163 170/170/170 165/165/165
f 170/170/170 171/171/171 165/165/165
f 170/170/170 172/172/172 171/171/171
f 172/172/172 173/173/173 171/171/171
f 167/167/167 174/174/174 175/175/175
f 167/167/167 175/175/175 168/168/168
f 174/174/174 176/176/176 177/177/177
f 174/174/174 177/177/177 175/175/175
f 175/175/175 163/163/163 168/168/168
f 175/175/175 170/170/170 163/163/163
f 177/177/177 170/170/170 175/175/175
f 177/177/177 172/172/172 170/170/170
f 172/172/172 178/178/178 179/179/179
f 172/172/172 179/179/179 173/173/173
f 178/178/178 180/180/180 181/181/181
f 178/178/178 181/181/181 179/179/179
f 182/182/182 183/183/183 184/184/184
f 185/185/185 182/182/182 184/184/184
f 185/185/185 184/184/184 176/176/176
f 176/176/176 184/184/184 177/177/177
f 184/184/184 172/172/172 177/177/177
f 184/184/184 178/178/178 172/172/172
f 183/183/183 178/178/178 184/184/184
f 183/183/183 180/180/180 178/178/178
