v 3.999999 3 -4
v 6.329915E-07 3 -4
v -3.712018E-07 3 -1.546503E-07
v 3.999999 3 8.495431E-07
v 10.85352 1 -4.740892
v 3.999999 3 -4
v 3.999999 3 8.495431E-07
v 9.526822 1 -0.2688259
v 0 0 0
v 4 0 -4
v 4 0 0
v 0 0 -4
v 4 0 0
v 10.85352 -3 -4.740892
v 9.526822 -3 -0.2688259
v 4 0 -4
v 9.526822 -3 -0.2688259
v 10.85352 -3 -4.740892
v 10.85352 -1 -4.740892
v 9.526822 -1 -0.2688259
v 10.85352 1 -4.740892
v 9.526822 1 -0.2688259
v -0.3462753 1 -4.228737
v 0 0 0
v -0.3462753 1 0.2287388
v 0 0 -4
v 6.329915E-07 3 -4
v -0.3462753 1 0.2287388
v -3.712018E-07 3 -1.546503E-07
v -0.3462753 1 -4.228737
v 0 0 0
v 4 0 0
v 4 1 0.2287388
v -0.3462753 1 0.2287388
v -0.3462753 1 0.2287388
v 4 1 0.2287388
v 3.999999 3 8.495431E-07
v -3.712018E-07 3 -1.546503E-07
v 4 0 0
v 9.526822 -3 -0.2688259
v 9.526822 -1 -0.2688259
v 4 1 0.2287388
v 4 1 0.2287388
v 9.526822 -1 -0.2688259
v 9.526822 1 -0.2688259
v 3.999999 3 8.495431E-07
v 10.85352 -1 -4.740892
v 4 0 -4
v 4 1 -4.228737
v 10.85352 -3 -4.740892
v 10.85352 1 -4.740892
v 4 1 -4.228737
v 3.999999 3 -4
v 10.85352 -1 -4.740892
v 4 1 -4.228737
v 0 0 -4
v -0.3462753 1 -4.228737
v 4 0 -4
v 3.999999 3 -4
v -0.3462753 1 -4.228737
v 6.329915E-07 3 -4
v 4 1 -4.228737
vn 0 1 0
vn 0 1 0
vn 0 1 0
vn 0 1 0
vn 0.3115097 0.9469073 0.05086054
vn 0.2801363 0.9599603 0
vn 0.3115097 0.9469073 0.05086054
vn 0.3428831 0.9338544 0.1017211
vn 0 -1 0
vn 0 -1 0
vn 0 -1 0
vn 0 -1 0
vn -0.4392783 -0.8915904 -0.07083745
vn -0.4392783 -0.8915904 -0.07083745
vn -0.4775601 -0.8671013 -0.1416749
vn -0.4009965 -0.9160796 0
vn 0.958702 0 0.2844124
vn 0.958702 0 0.2844124
vn 0.958702 0 0.2844124
vn 0.958702 0 0.2844124
vn 0.958702 0 0.2844124
vn 0.958702 0 0.2844124
vn -0.9449506 -0.3272131 0
vn -0.9449506 -0.3272131 0
vn -0.9449506 -0.3272131 0
vn -0.9449506 -0.3272131 0
vn -0.9853405 0.1705996 -1.23684E-07
vn -0.9853405 0.1705996 -1.23684E-07
vn -0.9853405 0.1705993 -2.473681E-07
vn -0.9853404 0.1705998 0
vn 0 -0.2229798 0.9748231
vn 0 -0.2229798 0.9748231
vn 0 -0.2229798 0.9748231
vn 0 -0.2229798 0.9748231
vn -1.247112E-07 0.1136285 0.9935234
vn 0 0.1136282 0.9935234
vn -1.247112E-07 0.1136285 0.9935234
vn -2.494224E-07 0.1136288 0.9935233
vn 0.02782659 -0.1114871 0.9868089
vn 0.04858278 0 0.9988192
vn 0.02782659 -0.1114871 0.9868089
vn 0.007070397 -0.2229743 0.9747987
vn 0.08937658 0.05658823 0.9927725
vn 0.08966463 0 0.995972
vn 0.08937658 0.05658823 0.9927725
vn 0.08908854 0.1131765 0.9895728
vn -0.1220506 -0.1104436 -0.9799451
vn -0.1220506 -0.1104436 -0.9799451
vn -0.1366237 -0.2208872 -0.9656826
vn -0.1074776 0 -0.9942075
vn -0.07428095 0.05665778 -0.9940079
vn -0.07428095 0.05665778 -0.9940079
vn -0.07404095 0.1133156 -0.9907964
vn -0.07452094 0 -0.9972194
vn 0 -0.2229781 -0.9748235
vn 0 -0.2229781 -0.9748235
vn 0 -0.2229781 -0.9748235
vn 0 -0.2229781 -0.9748235
vn -5.921863E-08 0.1136276 -0.9935234
vn -5.921863E-08 0.1136276 -0.9935234
vn -1.184373E-07 0.1136277 -0.9935234
vn 0 0.1136275 -0.9935234
vt 3.535282 -4
vt -0.4244742 -4
vt -0.4244752 -1.546503E-07
vt 3.535282 8.495431E-07
vt 10.60284 -4.740892
vt 3.535282 -4
vt 3.535282 8.495431E-07
vt 9.289485 -0.2688259
vt 0 0
vt -3.875246 -4.061905
vt -3.875246 -0.07266971
vt 0 -3.989235
vt -3.875246 -0.07266971
vt -11.25842 -4.712228
vt -9.973092 -0.2280944
vt -3.875246 -4.061905
vt -2.967271 -3
vt -7.63198 -3
vt -7.63198 -1
vt -2.967271 -1
vt -7.63198 1
vt -2.967271 1
vt 4.228737 1.024728
vt 0 0
vt -0.2287388 1.024728
vt 4 4.145368E-08
vt 4 2.990174
vt -0.2287388 1.024728
vt 1.546502E-07 2.990174
vt 4.228737 1.024728
vt 0 0
vt -3.997568 0.003843887
vt -3.989594 1.009765
vt 0.3540391 1.005589
vt 0.3540391 1.005589
vt -3.989594 1.009765
vt -3.997568 3.002704
vt 3.655848E-07 2.99886
vt -3.997568 0.003843887
vt -9.530402 -2.997111
vt -9.530402 -0.9978707
vt -3.989594 1.009765
vt -3.989594 1.009765
vt -9.530402 -0.9978707
vt -9.530402 1.001369
vt -3.997568 3.002704
vt 11.09202 -0.7696614
vt 4.208642 0.2082925
vt 4.220901 1.21936
vt 11.09202 -2.766622
vt 11.09202 1.2273
vt 4.220901 1.21936
vt 4.208641 3.203734
vt 11.09202 -0.7696614
vt 4.220901 1.21936
vt 0.2143911 0.2201068
vt -0.1191267 1.232197
vt 4.208642 0.2082925
vt 4.208641 3.203734
vt -0.1191267 1.232197
vt 0.2143918 3.215548
vt 4.220901 1.21936
g submesh0
f 1/1/1 2/2/2 3/3/3
f 4/4/4 1/1/1 3/3/3
f 5/5/5 6/6/6 7/7/7
f 8/8/8 5/5/5 7/7/7
f 9/9/9 10/10/10 11/11/11
f 9/9/9 12/12/12 10/10/10
f 13/13/13 14/14/14 15/15/15
f 13/13/13 16/16/16 14/14/14
f 17/17/17 18/18/18 19/19/19
f 20/20/20 17/17/17 19/19/19
f 20/20/20 19/19/19 21/21/21
f 22/22/22 20/20/20 21/21/21
f 23/23/23 24/24/24 25/25/25
f 23/23/23 26/26/26 24/24/24
f 27/27/27 28/28/28 29/29/29
f 27/27/27 30/30/30 28/28/28
f 31/31/31 32/32/32 33/33/33
f 34/34/34 31/31/31 33/33/33
f 35/35/35 36/36/36 37/37/37
f 38/38/38 35/35/35 37/37/37
f 39/39/39 40/40/40 41/41/41
f 42/42/42 39/39/39 41/41/41
f 43/43/43 44/44/44 45/45/45
f 46/46/46 43/43/43 45/45/45
f 47/47/47 48/48/48 49/49/49
f 47/47/47 50/50/50 48/48/48
f 51/51/51 52/52/52 53/53/53
f 51/51/51 54/54/54 52/52/52
f 55/55/55 56/56/56 57/57/57
f 55/55/55 58/58/58 56/56/56
f 59/59/59 60/60/60 61/61/61
f 59/59/59 62/62/62 60/60/60
