v 4 0 6
v 8.179056 0 6.000002
v 4 3 5.999996
v 8.179058 3 6
v 8.179056 0 6.000002
v 8.237218 0 2.000003
v 8.179058 3 6
v 8.237218 3 2.000003
v 8.237218 0 2.000003
v 4 0 2
v 8.237218 3 2.000003
v 4 3 2
v 4 0 2
v 4 0 6
v 4 3 2
v 4 3 5.999996
v 4 3 5.999996
v 8.179058 3 6
v 4 3 2
v 8.237218 3 2.000003
v 4 0 2
v 8.237218 0 2.000003
v 4 0 6
v 8.179056 0 6.000002
vn -4.564066E-07 1.271566E-06 1
vn -6.275588E-07 1.033147E-06 1
vn -6.275588E-07 1.033147E-06 1
vn -7.987111E-07 7.947291E-07 1
vn 0.9998943 -6.241612E-07 0.0145389
vn 0.9998943 -3.120806E-07 0.01453867
vn 0.9998943 -3.120806E-07 0.01453867
vn 0.9998943 0 0.01453843
vn 6.752126E-07 0 -1
vn 6.752126E-07 0 -1
vn 6.752126E-07 0 -1
vn 6.752126E-07 0 -1
vn -1 0 0
vn -1 0 0
vn -1 0 0
vn -1 0 0
vn 0 1 0
vn 0 1 0
vn 0 1 0
vn 0 1 0
vn 0 -1 0
vn 0 -1 0
vn 0 -1 0
vn 0 -1 0
vt -4.000003 -7.629392E-06
vt -8.179059 -7.629392E-06
vt -4.000003 2.999992
vt -8.179061 2.999992
vt 5.880453 5.158958E-06
vt 1.880031 5.158958E-06
vt 5.880451 3.000005
vt 1.880031 3.000005
vt 8.237219 0
vt 4.000001 0
vt 8.237219 3
vt 4.000001 3
vt -2 0
vt -6 0
vt -2 3
vt -5.999996 3
vt 4 5.999996
vt 8.179058 6
vt 4 2
vt 8.237218 2.000003
vt -4 2
vt -8.237218 2.000003
vt -4 6
vt -8.179056 6.000002
g submesh0
f 1/1/1 2/2/2 3/3/3
f 2/2/2 4/4/4 3/3/3
f 5/5/5 6/6/6 7/7/7
f 6/6/6 8/8/8 7/7/7
f 9/9/9 10/10/10 11/11/11
f 10/10/10 12/12/12 11/11/11
f 13/13/13 14/14/14 15/15/15
f 14/14/14 16/16/16 15/15/15
f 17/17/17 18/18/18 19/19/19
f 18/18/18 20/20/20 19/19/19
f 21/21/21 22/22/22 23/23/23
f 22/22/22 24/24/24 23/23/23
