v 4 6 6.000004
v 10.00001 6 6.000005
v 4 6 2.000006
v 8.969115 6 2.134239
v 4.517282 0 2.000003
v 9.482718 0 2.000002
v 4.517282 0 6.000003
v 9.482718 0 6.000002
v 4.517282 0 6.000003
v 9.482718 0 6.000002
v 4.477551 3 5.681641
v 10.90913 3 6.163673
v 4 6 6.000004
v 4.477551 3 5.681641
v 10.90913 3 6.163673
v 10.00001 6 6.000005
v 10.90913 3 6.163673
v 9.482718 0 6.000002
v 9.969004 3 2.149179
v 9.482718 0 2.000002
v 10.00001 6 6.000005
v 10.90913 3 6.163673
v 8.969115 6 2.134239
v 9.969004 3 2.149179
v 9.969004 3 2.149179
v 9.482718 0 2.000002
v 4.954621 3 3.074368
v 4.517282 0 2.000003
v 8.969115 6 2.134239
v 9.969004 3 2.149179
v 4 6 2.000006
v 4.954621 3 3.074368
v 4.954621 3 3.074368
v 4.517282 0 2.000003
v 4.517282 0 6.000003
v 4.477551 3 5.681641
v 4 6 2.000006
v 4.954621 3 3.074368
v 4.477551 3 5.681641
v 4 6 6.000004
vn 0 1 0
vn 0 1 0
vn 0 1 0
vn 0 1 0
vn 0 -1 0
vn 0 -1 0
vn 0 -1 0
vn 0 -1 0
vn 1.909901E-07 0.1055284 0.9944163
vn -0.03736234 0.04333158 0.995721
vn -0.03736234 0.04333158 0.995721
vn -0.07472488 -0.01886519 0.9970257
vn -0.03711285 -0.03121951 0.9944398
vn -0.07422563 -0.1169142 0.9903644
vn -0.03711285 -0.03121951 0.9944398
vn -7.935473E-08 0.05447517 0.9985151
vn 0.887731 -0.4107488 -0.207892
vn 0.9374235 -0.2853779 -0.103946
vn 0.9374235 -0.2853779 -0.103946
vn 0.9871159 -0.1600069 0
vn 0.9307493 0.2685142 -0.2482052
vn 0.9285854 0.2881033 -0.232579
vn 0.9285854 0.2881033 -0.232579
vn 0.9264216 0.3076923 -0.2169527
vn -0.1808905 0.07807256 -0.9803995
vn -0.09044532 0.207613 -0.9609246
vn -0.09044532 0.207613 -0.9609246
vn -1.35613E-07 0.3371534 -0.9414497
vn 0.02700339 0.004021975 -0.9996272
vn -0.07044173 -0.1876312 -0.9547744
vn -0.07044173 -0.1876312 -0.9547744
vn -0.1678869 -0.3792843 -0.9099216
vn -0.986351 0.05607186 -0.08994797
vn -0.9895406 0.1442549 -2.359248E-07
vn -0.986351 0.05607186 -0.08994797
vn -0.9831614 -0.03211121 -0.1798957
vn -0.9539275 -0.2551757 -0.08419571
vn -0.9202889 -0.353147 -0.1683915
vn -0.9539275 -0.2551757 -0.08419571
vn -0.9875661 -0.1572044 5.886356E-08
vt 4 6.000004
vt 10.00001 6.000005
vt 4 2.000006
vt 8.969115 2.134239
vt -4.517282 2.000003
vt -9.482718 2.000002
vt -4.517282 6.000003
vt -9.482718 6.000002
vt -4.738353 0.03340308
vt -9.70032 0.03233933
vt -4.686753 3.031538
vt -11.13186 3.032922
vt -4.221433 6.033415
vt -4.686753 3.031538
vt -11.13186 3.032922
vt -10.21725 6.03213
vt 8.632439 3.67844
vt 8.126671 0.585384
vt 4.509841 3.683339
vt 4.246844 0.6589986
vt 8.252519 6.606148
vt 8.632439 3.67844
vt 4.2521 6.601649
vt 4.509841 3.683339
vt 9.7725 3.117841
vt 9.299234 0.1127019
vt 4.701504 3.13989
vt 4.348729 0.09681115
vt 8.776775 6.111466
vt 9.7725 3.117841
vt 3.833001 6.090036
vt 4.701504 3.13989
vt -2.627321 2.418524
vt -1.59552 -0.5064188
vt -5.580062 -0.5444716
vt -5.266419 2.445194
vt -1.640956 5.514094
vt -2.627321 2.418524
vt -5.266419 2.445194
vt -5.625496 5.476041
g submesh0
f 1/1/1 2/2/2 3/3/3
f 2/2/2 4/4/4 3/3/3
f 5/5/5 6/6/6 7/7/7
f 6/6/6 8/8/8 7/7/7
f 9/9/9 10/10/10 11/11/11
f 11/11/11 10/10/10 12/12/12
f 13/13/13 14/14/14 15/15/15
f 13/13/13 15/15/15 16/16/16
f 17/17/17 18/18/18 19/19/19
f 18/18/18 20/20/20 19/19/19
f 21/21/21 22/22/22 23/23/23
f 22/22/22 24/24/24 23/23/23
f 25/25/25 26/26/26 27/27/27
f 26/26/26 28/28/28 27/27/27
f 29/29/29 30/30/30 31/31/31
f 30/30/30 32/32/32 31/31/31
f 33/33/33 34/34/34 35/35/35
f 33/33/33 35/35/35 36/36/36
f 37/37/37 38/38/38 39/39/39
f 37/37/37 39/39/39 40/40/40
