v 12 0 -1
v 10 0 -4
v 10 6 -4
v 12 6 -1
v -6 6 -4
v -11 0 -1
v -6 6 -1
v -9 0 -4
v 10 0 6
v 12 0 3
v 12 6 3
v 10 6 6
v 12 0 3
v 12 0 -1
v 12 6 -1
v 12 6 3
v -6 6 3
v -9 0 6
v -5 6 4
v -11 0 3
v -11 0 3
v -6 6 3
v -11 0 -1
v 1 0 6
v 10 0 6
v 10 6 6
v 1 6 6
v 10 6 -4
v 1 0 -5
v 1 6 -5
v 10 0 -4
v 1 0 -1
v 1 0 -5
v 10 0 -4
v 12 0 -1
v 1 0 3
v 12 0 3
v 1 0 6
v 10 0 6
v -9 0 6
v -4 0 5
v -4 6 6
v -5 6 4
v -4 0 5
v 1 0 6
v 1 6 6
v -4 6 6
v -4 6 -5
v -9 0 -4
v -6 6 -4
v -4 0 -5
v 1 6 -5
v -4 0 -5
v -4 6 -5
v 1 0 -5
v -4 0 -1
v -4 0 -5
v -11 0 -1
v -9 0 -4
v -4 0 3
v -11 0 3
v -4 0 5
v -9 0 6
v 12 6 -1
v 10 6 -4
v 1 6 -1
v 1 6 -5
v 1 6 3
v 12 6 3
v 10 6 6
v 1 6 6
v -4 6 -5
v -4 6 -1
v -6 6 -4
v -6 6 -1
v -4 6 3
v -6 6 3
v -4 6 6
v -5 6 4
vn 0.8320503 0 -0.5547002
vn 0.8320503 0 -0.5547002
vn 0.8320503 0 -0.5547002
vn 0.8320503 0 -0.5547002
vn -0.7682213 0.5121475 -0.2560738
vn -0.7682213 0.5121475 -0.2560738
vn -0.7682213 0.6401844 0
vn -0.7682213 0.3841107 -0.5121475
vn 0.8320503 0 0.5547002
vn 0.8320503 0 0.5547002
vn 0.8320503 0 0.5547002
vn 0.8320503 0 0.5547002
vn 1 0 0
vn 1 0 0
vn 1 0 0
vn 1 0 0
vn -0.6305568 0.5735766 0.5165963
vn -0.6305568 0.5735766 0.5165963
vn -0.5773503 0.5773503 0.5773503
vn -0.6837634 0.5698029 0.4558423
vn -0.7682213 0.6401844 0
vn -0.7682213 0.6401844 0
vn -0.7682213 0.6401844 0
vn 0 0 1
vn 0 0 1
vn 0 0 1
vn 0 0 1
vn 0.1104315 0 -0.9938837
vn 0.1104315 0 -0.9938837
vn 0.1104315 0 -0.9938837
vn 0.1104315 0 -0.9938837
vn 0 -1 0
vn 0 -1 0
vn 0 -1 0
vn 0 -1 0
vn 0 -1 0
vn 0 -1 0
vn 0 -1 0
vn 0 -1 0
vn -0.2617944 0.218162 0.6631553
vn 0.1935484 -0.1612903 0.9677419
vn -0.2617944 0.218162 0.6631553
vn -0.7171372 0.5976143 0.3585686
vn -0.09805807 -0.08219949 0.9834873
vn -0.1961161 0 0.9805807
vn -0.09805807 -0.08219949 0.9834873
vn 0 -0.164399 0.9863939
vn -0.316276 0.1091089 -0.9267261
vn -0.316276 0.1091089 -0.9267261
vn -0.4364358 0.2182179 -0.8728716
vn -0.1961161 0 -0.9805807
vn 0 0 -1
vn 0 0 -1
vn 0 0 -1
vn 0 0 -1
vn 0 -1 0
vn 0 -1 0
vn 0 -1 0
vn 0 -1 0
vn 0 -1 0
vn 0 -1 0
vn 0 -1 0
vn 0 -1 0
vn 0 1 0
vn 0 1 0
vn 0 1 0
vn 0 1 0
vn 0 1 0
vn 0 1 0
vn 0 1 0
vn 0 1 0
vn 0 1 0
vn 0 1 0
vn 0 1 0
vn 0 1 0
vn 0 1 0
vn 0 1 0
vn 0 1 0
vn 0 1 0
vt -1 0
vt -4 0
vt -4 6
vt -1 6
vt 5.439556 1.515212
vt 3.86298 -6.691666
vt 2.545563 1.004049
vt 6.230005 -4.932857
vt 6 0
vt 3 0
vt 3 6
vt 6 6
vt 3 0
vt -1 0
vt -1 6
vt 3 6
vt -1.313092 0.3224977
vt -3.416635 -6.636734
vt -2.54124 0.775933
vt 0.00432387 -7.373217
vt 0.00432387 -7.373217
vt -1.313092 0.3224977
vt 3.86298 -6.691666
vt -1.005225 0.3276969
vt -10.00522 0.3272687
vt -10.00522 6.31831
vt -1.005225 6.318738
vt 10.38792 5.76839
vt 1.558549 -0.3661503
vt 1.558549 5.616762
vt 10.38792 -0.2145229
vt -1 -1
vt -1 -5
vt -10 -4
vt -12 -1
vt -1 3
vt -12 3
vt -1 6
vt -10 6
vt 8.994771 0.3281726
vt 3.995644 0.2733107
vt 3.994773 6.318976
vt 4.996514 6.209776
vt 3.995644 0.2733107
vt -1.005225 0.3276969
vt -1.005225 6.318738
vt 3.994773 6.318976
vt -3.409431 5.574155
vt -8.490401 -0.3764304
vt -5.509614 5.632047
vt -3.409431 -0.4087575
vt 1.558549 5.616762
vt -3.409431 -0.4087575
vt -3.409431 5.574155
vt 1.558549 -0.3661503
vt 4 -1
vt 4 -5
vt 11 -1
vt 9 -4
vt 4 3
vt 11 3
vt 4 5
vt 9 6
vt 12 -1
vt 10 -4
vt 1 -1
vt 1 -5
vt 1 3
vt 12 3
vt 10 6
vt 1 6
vt -4 -5
vt -4 -1
vt -6 -4
vt -6 -1
vt -4 3
vt -6 3
vt -4 6
vt -5 4
g submesh0
f 1/1/1 2/2/2 3/3/3
f 4/4/4 1/1/1 3/3/3
f 5/5/5 6/6/6 7/7/7
f 5/5/5 8/8/8 6/6/6
f 9/9/9 10/10/10 11/11/11
f 12/12/12 9/9/9 11/11/11
f 13/13/13 14/14/14 15/15/15
f 16/16/16 13/13/13 15/15/15
f 17/17/17 18/18/18 19/19/19
f 17/17/17 20/20/20 18/18/18
f 7/7/7 21/21/21 22/22/22
f 7/7/7 23/23/23 21/21/21
f 24/24/24 25/25/25 26/26/26
f 27/27/27 24/24/24 26/26/26
f 28/28/28 29/29/29 30/30/30
f 28/28/28 31/31/31 29/29/29
f 32/32/32 33/33/33 34/34/34
f 32/32/32 34/34/34 35/35/35
f 36/36/36 35/35/35 37/37/37
f 36/36/36 32/32/32 35/35/35
f 38/38/38 36/36/36 39/39/39
f 39/39/39 36/36/36 37/37/37
f 40/40/40 41/41/41 42/42/42
f 43/43/43 40/40/40 42/42/42
f 44/44/44 45/45/45 46/46/46
f 47/47/47 44/44/44 46/46/46
f 48/48/48 49/49/49 50/50/50
f 48/48/48 51/51/51 49/49/49
f 52/52/52 53/53/53 54/54/54
f 52/52/52 55/55/55 53/53/53
f 56/56/56 33/33/33 32/32/32
f 56/56/56 57/57/57 33/33/33
f 58/58/58 57/57/57 56/56/56
f 58/58/58 59/59/59 57/57/57
f 60/60/60 32/32/32 36/36/36
f 60/60/60 56/56/56 32/32/32
f 61/61/61 56/56/56 60/60/60
f 61/61/61 58/58/58 56/56/56
f 62/62/62 36/36/36 38/38/38
f 62/62/62 60/60/60 36/36/36
f 63/63/63 60/60/60 62/62/62
f 63/63/63 61/61/61 60/60/60
g submesh1
f 64/64/64 65/65/65 66/66/66
f 65/65/65 67/67/67 66/66/66
f 64/64/64 66/66/66 68/68/68
f 69/69/69 64/64/64 68/68/68
f 69/69/69 68/68/68 70/70/70
f 70/70/70 68/68/68 71/71/71
f 67/67/67 72/72/72 73/73/73
f 66/66/66 67/67/67 73/73/73
f 72/72/72 74/74/74 75/75/75
f 73/73/73 72/72/72 75/75/75
f 66/66/66 73/73/73 76/76/76
f 68/68/68 66/66/66 76/76/76
f 73/73/73 75/75/75 77/77/77
f 76/76/76 73/73/73 77/77/77
f 68/68/68 76/76/76 78/78/78
f 71/71/71 68/68/68 78/78/78
f 76/76/76 77/77/77 79/79/79
f 78/78/78 76/76/76 79/79/79
