v 4 0 6
v 10 0 6
v 4 3 5.999996
v 10.00001 3 5.999997
v 10 0 6
v 10 0 2
v 10.00001 3 5.999997
v 10.00001 3 2
v 10 0 2
v 4 0 2
v 10.00001 3 2
v 4 3 2
v 4 0 2
v 4 0 6
v 4 3 2
v 4 3 5.999996
v 4 3 5.999996
v 10.00001 3 5.999997
v 4 3 2
v 10.00001 3 2
v 4 0 2
v 10 0 2
v 4 0 6
v 10 0 6
vn 0 1.271566E-06 1
vn -7.947276E-08 1.11262E-06 1
vn -7.947276E-08 1.11262E-06 1
vn -1.589455E-07 9.536748E-07 1
vn 1 -2.543132E-06 0
vn 1 -2.384186E-06 -1.192094E-07
vn 1 -2.384186E-06 -1.192094E-07
vn 1 -2.22524E-06 -2.384187E-07
vn 0 0 -1
vn 0 0 -1
vn 0 0 -1
vn 0 0 -1
vn -1 0 0
vn -1 0 0
vn -1 0 0
vn -1 0 0
vn 0 1 0
vn 0 1 0
vn 0 1 0
vn 0 1 0
vn 0 -1 0
vn 0 -1 0
vn 0 -1 0
vn 0 -1 0
vt -4 -7.629395E-06
vt -10 -7.629395E-06
vt -4 2.999992
vt -10.00001 2.999992
vt 6 2.543132E-05
vt 2 2.543132E-05
vt 5.999997 3.000026
vt 2 3.000026
vt 10 0
vt 4 0
vt 10.00001 3
vt 4 3
vt -2 0
vt -6 0
vt -2 3
vt -5.999996 3
vt 4 5.999996
vt 10.00001 5.999997
vt 4 2
vt 10.00001 2
vt -4 2
vt -10 2
vt -4 6
vt -10 6
g submesh0
f 1/1/1 2/2/2 3/3/3
f 2/2/2 4/4/4 3/3/3
f 5/5/5 6/6/6 7/7/7
f 6/6/6 8/8/8 7/7/7
f 9/9/9 10/10/10 11/11/11
f 10/10/10 12/12/12 11/11/11
f 13/13/13 14/14/14 15/15/15
f 14/14/14 16/16/16 15/15/15
f 17/17/17 18/18/18 19/19/19
f 18/18/18 20/20/20 19/19/19
f 21/21/21 22/22/22 23/23/23
f 22/22/22 24/24/24 23/23/23
