v 6.429705 6 5.436696
v 6.429706 4.865856 5.436694
v 7.852413 5.207298 6.506897
v 7.852411 6 6.506896
v 8.301774 6 0.7108097
v 8.301778 4.504418 0.7108144
v 5.587871 6 0.8807383
v 5.587871 4 0.8807383
v 7.852413 5.207298 6.506897
v 13.02334 5.103358 6.000011
v 7.852411 6 6.506896
v 13.02334 6 6.000018
v 13.02334 5.103358 6.000011
v 19.6498 5.534914 5.476851
v 13.02334 6 6.000018
v 19.23479 5.980249 5.474801
v 19.0789 5.947574 0.270957
v 20.29125 4.665933 0.7801956
v 14.155 6 0.7569676
v 14.23635 4.717573 1.036075
v 14.155 6 0.7569676
v 14.23635 4.717573 1.036075
v 8.301774 6 0.7108097
v 8.301778 4.504418 0.7108144
v 19.23479 5.980249 5.474801
v 19.6498 5.534914 5.476851
v 19.60682 5.956273 3.786285
v 19.20172 4.623514 3.614115
v 19.60682 5.956273 3.786285
v 19.20172 4.623514 3.614115
v 20.29125 4.665933 0.7801956
v 19.0789 5.947574 0.270957
v 5.587871 6 0.8807383
v 5.587871 4 0.8807383
v 5.299356 4.441252 3.883353
v 5.299356 6 3.883354
v 5.299356 6 3.883354
v 5.299356 4.441252 3.883353
v 6.429706 4.865856 5.436694
v 6.429705 6 5.436696
v 5.587871 6 0.8807383
v 7.871541 6 3.355409
v 8.301774 6 0.7108097
v 5.299356 6 3.883354
v 7.852411 6 6.506896
v 6.429705 6 5.436696
v 9.065498 4.337985 3.305037
v 5.299356 4.441252 3.883353
v 5.587871 4 0.8807383
v 8.301778 4.504418 0.7108144
v 7.852413 5.207298 6.506897
v 6.429706 4.865856 5.436694
v 5.299356 4.441252 3.883353
v 9.065498 4.337985 3.305037
v 19.60682 5.956273 3.786285
v 19.0789 5.947574 0.270957
v 14.155 6 0.7569676
v 13.58917 6 3.378493
v 19.60682 5.956273 3.786285
v 13.58917 6 3.378493
v 19.23479 5.980249 5.474801
v 13.02334 6 6.000018
v 14.155 6 0.7569676
v 13.58917 6 3.378493
v 13.02334 6 6.000018
v 7.852413 5.207298 6.506897
v 9.065498 4.337985 3.305037
v 13.02334 5.103358 6.000011
v 13.47909 4.74052 3.395319
v 9.065498 4.337985 3.305037
v 8.301778 4.504418 0.7108144
v 13.47909 4.74052 3.395319
v 14.23635 4.717573 1.036075
v 19.6498 5.534914 5.476851
v 13.02334 5.103358 6.000011
v 13.47909 4.74052 3.395319
v 19.20172 4.623514 3.614115
v 13.47909 4.74052 3.395319
v 14.23635 4.717573 1.036075
v 19.20172 4.623514 3.614115
v 20.29125 4.665933 0.7801956
vn -0.6011395 -1.208846E-06 0.7991441
vn -0.6011398 -1.932694E-06 0.7991439
vn -0.6011395 -1.208846E-06 0.7991441
vn -0.6011392 -4.849979E-07 0.7991443
vn -0.06249169 -3.261915E-06 -0.9980455
vn -0.0624908 -1.630958E-06 -0.9980456
vn -0.0624908 -1.630958E-06 -0.9980456
vn -0.0624899 0 -0.9980456
vn 0.09755854 1.432069E-06 0.9952298
vn 0.09755781 -2.82796E-06 0.9952299
vn 0.09755781 -2.82796E-06 0.9952299
vn 0.09755708 -7.087989E-06 0.99523
vn 0.0787058 -7.059419E-06 0.9968979
vn 0.08146624 0.04152732 0.9949383
vn 0.08146624 0.04152732 0.9949383
vn 0.08422667 0.0830617 0.9929787
vn -0.09276262 -0.4422095 -0.8921019
vn -0.0679138 -0.3286406 -0.9338751
vn -0.0679138 -0.3286406 -0.9338751
vn -0.04306498 -0.2150718 -0.9756483
vn 0.007706082 -0.2121884 -0.9771984
vn 0.03121589 -0.1060957 -0.98785
vn 0.03121589 -0.1060957 -0.98785
vn 0.05472569 -2.964353E-06 -0.9985014
vn 0.7229879 0.6744424 0.1497198
vn 0.8394297 0.1979999 0.02801041
vn 0.8394297 0.1979999 0.02801041
vn 0.9558715 -0.2784425 -0.09369895
vn 0.815908 0.1726196 0.1116716
vn 0.8879347 -0.313391 0.3366868
vn 0.815908 0.1726196 0.1116716
vn 0.7438813 0.6586303 -0.1133436
vn -0.9954153 -1.449391E-07 -0.09564731
vn -0.9954153 0 -0.09564724
vn -0.9954153 -1.449391E-07 -0.09564731
vn -0.9954153 -2.898781E-07 -0.09564739
vn -0.8085759 -9.571082E-07 0.588392
vn -0.8085756 -3.373493E-07 0.5883923
vn -0.8085759 -9.571082E-07 0.588392
vn -0.808576 -1.576867E-06 0.5883917
vn 0 1 0
vn 0 1 0
vn 0 1 0
vn 0 1 0
vn 0 1 0
vn 0 1 0
vn 0.08487616 -0.9837123 0.01539079
vn -0.004874532 -0.9894293 0.1449342
vn 0.08487616 -0.9837123 0.01539079
vn 0.1746269 -0.9779952 -0.1141526
vn 0.04429875 -0.9689524 0.2398149
vn 0.07399721 -0.9743569 0.2124925
vn 0.04429875 -0.9689524 0.2398149
vn 0.01460029 -0.9635478 0.2671374
vn 0.008705989 0.9999563 -0.001233956
vn 0.0102504 0.9999394 -0.004013664
vn 0.008705989 0.9999563 -0.001233956
vn 0.007161575 0.9999732 0.001545752
vn 0.008106826 0.9998901 -0.01241191
vn 0.005672852 0.9999423 -0.005856413
vn 0.005672852 0.9999423 -0.005856413
vn 0.003238877 0.9999945 0.0006990798
vn 0 1 0
vn 0 1 0
vn 0 1 0
vn 0.006523912 -0.9644149 0.2643129
vn 0.0466002 -0.9744697 0.2083125
vn 0.0466002 -0.9744697 0.2083125
vn 0.08667649 -0.9845244 0.152312
vn 0.09229314 -0.9915845 -0.09078594
vn 0.06351861 -0.9953814 -0.03495769
vn 0.06351861 -0.9953814 -0.03495769
vn 0.03474408 -0.9991783 0.02087055
vn 0.02037182 -0.9399812 0.2983412
vn 0.07608344 -0.9856601 0.1506167
vn 0.02037182 -0.9399812 0.2983412
vn -0.03533979 -0.8943023 0.4460656
vn -0.02056131 -0.9997838 0.003124773
vn -0.01493586 -0.9997842 -0.007709989
vn -0.01493586 -0.9997842 -0.007709989
vn -0.009310414 -0.9997847 -0.01854475
vt -7.174615 6.000012
vt -7.174615 4.865868
vt -8.742168 5.207312
vt -8.742166 6.000014
vt 8.254276 5.597414
vt 8.25428 4.139228
vt 5.535226 5.590695
vt 5.535226 3.640704
vt -8.742168 5.207312
vt -13.77793 5.103368
vt -8.742166 6.000014
vt -13.77793 6.00001
vt -13.77793 5.103368
vt -20.25021 5.53492
vt -13.77793 6.00001
vt -19.83962 5.980256
vt 19.03977 5.52084
vt 20.22435 4.144385
vt 14.09739 5.520326
vt 14.1643 4.207094
vt 14.09739 5.520326
vt 14.1643 4.207094
vt 8.254276 5.597414
vt 8.25428 4.139228
vt -0.3187928 1.652261
vt -0.4367902 1.133365
vt -2.042768 1.656494
vt -2.090491 0.4451896
vt -2.042768 1.656494
vt -2.090491 0.4451896
vt -5.118373 0.4397
vt -5.255439 1.967178
vt -2.32196 5.999999
vt -2.32196 3.999999
vt -5.142449 4.441251
vt -5.142449 5.999999
vt -5.142449 5.999999
vt -5.142449 4.441251
vt -6.938733 4.865855
vt -6.938735 5.999999
vt 5.569487 0.8972076
vt 7.853146 3.371888
vt 8.283378 0.7273024
vt 5.280973 3.89981
vt 7.834016 6.523364
vt 6.411317 5.453156
vt -9.223052 3.742538
vt -5.463508 4.34528
vt -5.735131 1.310614
vt -8.466171 1.188022
vt -8.043707 7.028382
vt -6.609106 5.932213
vt -5.463508 4.34528
vt -9.223052 3.742538
vt 19.58851 3.802742
vt 19.06061 0.2873981
vt 14.13657 0.7735092
vt 13.57075 3.39502
vt 19.58851 3.802742
vt 13.57075 3.39502
vt 19.2164 5.491313
vt 13.00492 6.016531
vt 14.13657 0.7735092
vt 13.57075 3.39502
vt 13.00492 6.016531
vt -8.043707 7.028382
vt -9.223052 3.742538
vt -13.207 6.490406
vt -13.64871 3.859309
vt -9.223052 3.742538
vt -8.466171 1.188022
vt -13.64871 3.859309
vt -14.40456 1.509807
vt -19.84504 5.991516
vt -13.207 6.490406
vt -13.64871 3.859309
vt -19.36282 4.038288
vt -13.64871 3.859309
vt -14.40456 1.509807
vt -19.36282 4.038288
vt -20.45318 1.223337
g submesh0
f 1/1/1 2/2/2 3/3/3
f 1/1/1 3/3/3 4/4/4
f 5/5/5 6/6/6 7/7/7
f 6/6/6 8/8/8 7/7/7
f 9/9/9 10/10/10 11/11/11
f 11/11/11 10/10/10 12/12/12
f 13/13/13 14/14/14 15/15/15
f 15/15/15 14/14/14 16/16/16
f 17/17/17 18/18/18 19/19/19
f 19/19/19 18/18/18 20/20/20
f 21/21/21 22/22/22 23/23/23
f 22/22/22 24/24/24 23/23/23
f 25/25/25 26/26/26 27/27/27
f 26/26/26 28/28/28 27/27/27
f 29/29/29 30/30/30 31/31/31
f 29/29/29 31/31/31 32/32/32
f 33/33/33 34/34/34 35/35/35
f 33/33/33 35/35/35 36/36/36
f 37/37/37 38/38/38 39/39/39
f 37/37/37 39/39/39 40/40/40
f 41/41/41 42/42/42 43/43/43
f 41/41/41 44/44/44 42/42/42
f 44/44/44 45/45/45 42/42/42
f 44/44/44 46/46/46 45/45/45
f 47/47/47 48/48/48 49/49/49
f 50/50/50 47/47/47 49/49/49
f 51/51/51 52/52/52 53/53/53
f 54/54/54 51/51/51 53/53/53
f 55/55/55 56/56/56 57/57/57
f 55/55/55 57/57/57 58/58/58
f 59/59/59 60/60/60 61/61/61
f 60/60/60 62/62/62 61/61/61
f 63/63/63 43/43/43 64/64/64
f 64/64/64 43/43/43 42/42/42
f 64/64/64 42/42/42 65/65/65
f 65/65/65 42/42/42 45/45/45
f 66/66/66 67/67/67 68/68/68
f 68/68/68 67/67/67 69/69/69
f 70/70/70 71/71/71 72/72/72
f 72/72/72 71/71/71 73/73/73
f 74/74/74 75/75/75 76/76/76
f 74/74/74 76/76/76 77/77/77
f 78/78/78 79/79/79 80/80/80
f 79/79/79 81/81/81 80/80/80
