v -12.55092 6.01 0.4038775
v 1.207105 0 0.9142166
v -12.55092 7.01 0.4038775
v 1.060806 1.01 0.9336425
v 1.207105 0 0.9142166
v 1.707105 0 -0.9999993
v 1.060806 1.01 0.9336425
v 1.411362 1.01 -1.274776
v 1.707105 0 -0.9999993
v -11.75156 6.01 -2.309243
v 1.411362 1.01 -1.274776
v -11.75156 7.01 -2.309243
v -11.75156 6.01 -2.309243
v -12.55092 6.01 0.4038775
v -11.75156 7.01 -2.309243
v -12.55092 7.01 0.4038775
v -12.55092 7.01 0.4038775
v 1.060806 1.01 0.9336425
v -11.75156 7.01 -2.309243
v 1.411362 1.01 -1.274776
v -11.75156 6.01 -2.309243
v 1.707105 0 -0.9999993
v -12.55092 6.01 0.4038775
v 1.207105 0 0.9142166
vn -0.03706843 0 0.9993128
vn -0.04380822 -0.01326203 0.998841
vn -0.04380822 -0.01326203 0.998841
vn -0.05054801 -0.02652406 0.9983693
vn 0.9588037 0.1340661 0.2504431
vn 0.948087 0.2245111 0.1996189
vn 0.948087 0.2245111 0.1996189
vn 0.9373702 0.3149561 0.1487948
vn -0.02680727 -0.269721 -0.9625653
vn 0.02577034 -0.1348605 -0.9797457
vn 0.02577034 -0.1348605 -0.9797457
vn 0.07834796 0 -0.9969261
vn -0.9592329 0 -0.2826168
vn -0.9592329 0 -0.2826168
vn -0.9592329 0 -0.2826168
vn -0.9592329 0 -0.2826168
vn 0.3967705 0.9104436 0.1168997
vn 0.4032126 0.9101819 0.09096341
vn 0.4032126 0.9101819 0.09096341
vn 0.4096547 0.9099201 0.06502711
vn -0.3954949 -0.9110467 -0.1165238
vn -0.3952255 -0.911968 -0.1098439
vn -0.3952255 -0.911968 -0.1098439
vn -0.3949561 -0.9128893 -0.103164
vt 12.52732 6.01
vt -1.240164 0
vt 12.52732 7.01
vt -1.094686 1.01
vt 0.5794745 -0.1875538
vt -1.398965 -0.1875538
vt 0.6352431 0.8316472
vt -1.59008 0.8610002
vt 1.734282 0.256798
vt -11.68272 6.498111
vt 1.446304 1.305671
vt -11.68272 7.461049
vt -1.106086 6.01
vt -3.934513 6.01
vt -1.106086 7.01
vt -3.934513 7.01
vt -14.30635 0.2360394
vt 0.5689669 0.7694618
vt -13.57356 -2.495812
vt 0.890332 -1.440187
vt 13.17288 -2.390622
vt -1.56592 -1.072398
vt 13.90613 0.3411077
vt -1.107272 0.8519784
g submesh0
f 1/1/1 2/2/2 3/3/3
f 2/2/2 4/4/4 3/3/3
f 5/5/5 6/6/6 7/7/7
f 6/6/6 8/8/8 7/7/7
f 9/9/9 10/10/10 11/11/11
f 10/10/10 12/12/12 11/11/11
f 13/13/13 14/14/14 15/15/15
f 14/14/14 16/16/16 15/15/15
f 17/17/17 18/18/18 19/19/19
f 18/18/18 20/20/20 19/19/19
f 21/21/21 22/22/22 23/23/23
f 22/22/22 24/24/24 23/23/23
