v 4 0 6
v 10 0 6
v 4 3 5.999996
v 10.00001 3 5.999997
v 10 0 6
v 10 0 2
v 10.00001 3 5.999997
v 10.00001 3 2
v 10 0 2
v 5.078506 0.1267606 3.318999
v 10.00001 3 2
v 5.078506 2.943662 3.318999
v 5.078506 0.1267606 3.318999
v 4 0 6
v 5.078506 2.943662 3.318999
v 4 3 5.999996
v 4 3 5.999996
v 10.00001 3 5.999997
v 5.078506 2.943662 3.318999
v 10.00001 3 2
v 5.078506 0.1267606 3.318999
v 10 0 2
v 4 0 6
v 10 0 6
vn 0 1.271566E-06 1
vn -7.947276E-08 1.11262E-06 1
vn -7.947276E-08 1.11262E-06 1
vn -1.589455E-07 9.536748E-07 1
vn 1 -2.543132E-06 0
vn 1 -2.384186E-06 -1.192094E-07
vn 1 -2.384186E-06 -1.192094E-07
vn 1 -2.22524E-06 -2.384187E-07
vn -0.2588719 5.760521E-07 -0.9659117
vn -0.2588717 2.880261E-07 -0.9659117
vn -0.2588717 2.880261E-07 -0.9659117
vn -0.2588716 0 -0.9659118
vn -0.9277464 0 -0.3732112
vn -0.9277463 -2.372816E-07 -0.3732114
vn -0.9277463 -2.372816E-07 -0.3732114
vn -0.9277462 -4.745632E-07 -0.3732117
vn 3.339306E-09 0.9997793 -0.02100912
vn -0.005723266 0.9998569 -0.01050456
vn -0.005723266 0.9998569 -0.01050456
vn -0.01144654 0.9999345 2.729069E-09
vn -0.04294269 -0.9969988 -0.06441404
vn -0.02147135 -0.9984994 -0.03220702
vn -0.02147135 -0.9984994 -0.03220702
vn 0 -1 0
vt -4 -7.629395E-06
vt -10 -7.629395E-06
vt -4 2.999992
vt -10.00001 2.999992
vt 6 2.543132E-05
vt 2 2.543132E-05
vt 5.999997 3.000026
vt 2 3.000026
vt 9.141373 2.604068E-06
vt 4.046192 0.1267632
vt 9.141379 3.000003
vt 4.046192 2.943665
vt -1.183834 0.1267606
vt -4.073634 0
vt -1.183834 2.943662
vt -4.07363 3
vt 4 6.061699
vt 10.00001 6.0617
vt 5.078506 3.38011
vt 10.00001 2.062586
vt -5.068347 3.289872
vt -9.990737 1.968128
vt -3.996295 5.976452
vt -9.990737 5.959821
g submesh0
f 1/1/1 2/2/2 3/3/3
f 2/2/2 4/4/4 3/3/3
f 5/5/5 6/6/6 7/7/7
f 6/6/6 8/8/8 7/7/7
f 9/9/9 10/10/10 11/11/11
f 10/10/10 12/12/12 11/11/11
f 13/13/13 14/14/14 15/15/15
f 14/14/14 16/16/16 15/15/15
f 17/17/17 18/18/18 19/19/19
f 18/18/18 20/20/20 19/19/19
f 21/21/21 22/22/22 23/23/23
f 22/22/22 24/24/24 23/23/23
