v 0.5440257 0 10.07884
v 0.681722 0 -7.61243
v 7.702477 0 12.67819
v 8.342065 0 -12.7673
v 12.04749 0 11.69907
v 11.89764 0 -12.1752
v 17.7633 0 10.71995
v 16.7418 0 -11.58311
v 16.7418 0 -11.58311
v 13.19626 4 8.359974
v 17.7633 0 10.71995
v 12.72661 4 -8.017479
v 12.72661 4 -8.017479
v 10.00001 8 6
v 13.19626 4 8.359974
v 10.00001 8 -5.822652
v 0.9233584 4 -3.273478
v 0.681722 0 -7.61243
v 1.08538 4 8.039423
v 0.5440257 0 10.07884
v -1.348953 8 -5.203792
v 0.9233584 4 -3.273478
v -0.4868126 8 5.999997
v 1.08538 4 8.039423
v -0.4868126 8 5.999997
v 1.08538 4 8.039423
v 4.693421 8 7.115311
v 6.197949 4 9.896749
v 1.08538 4 8.039423
v 0.5440257 0 10.07884
v 6.197949 4 9.896749
v 7.702477 0 12.67819
v 4.238186 8 -7.019498
v 6.290126 4 -6.466404
v 0.9233584 4 -3.273478
v -1.348953 8 -5.203792
v 6.290126 4 -6.466404
v 8.342065 0 -12.7673
v 0.681722 0 -7.61243
v 0.9233584 4 -3.273478
v 4.693421 8 7.115311
v 6.197949 4 9.896749
v 6.836404 8 7.753766
v 9.441948 4 9.726418
v 6.197949 4 9.896749
v 7.702477 0 12.67819
v 9.441948 4 9.726418
v 12.04749 0 11.69907
v 6.836404 8 7.753766
v 9.441948 4 9.726418
v 10.00001 8 6
v 13.19626 4 8.359974
v 9.441948 4 9.726418
v 12.04749 0 11.69907
v 13.19626 4 8.359974
v 17.7633 0 10.71995
v 12.72661 4 -8.017479
v 16.7418 0 -11.58311
v 11.89764 0 -12.1752
v 9.508367 4 -8.612741
v 10.00001 8 -5.822652
v 12.72661 4 -8.017479
v 9.508367 4 -8.612741
v 7.119096 8 -6.421075
v 9.508367 4 -8.612741
v 11.89764 0 -12.1752
v 8.342065 0 -12.7673
v 6.290126 4 -6.466404
v 7.119096 8 -6.421075
v 9.508367 4 -8.612741
v 6.290126 4 -6.466404
v 4.238186 8 -7.019498
v 4.693421 8 7.115311
v 4.238186 8 -7.019498
v -0.4868126 8 5.999997
v -1.348953 8 -5.203792
v 10.00001 8 6
v 10.00001 8 -5.822652
v 6.836404 8 7.753766
v 7.119096 8 -6.421075
vn 0 -1 0
vn 0 -1 0
vn 0 -1 0
vn 0 -1 0
vn 0 -1 0
vn 0 -1 0
vn 0 -1 0
vn 0 -1 0
vn 0.6820561 0.730574 -0.02527382
vn 0.6820561 0.730574 -0.02527382
vn 0.6674471 0.7440295 -0.03056983
vn 0.696665 0.7171184 -0.01997781
vn 0.8068867 0.5895833 -0.01129112
vn 0.8068867 0.5895833 -0.01129112
vn 0.787482 0.6159238 -0.02258211
vn 0.8262915 0.5632428 -1.333056E-07
vn -0.9988925 0.0448239 0.01430602
vn -0.995172 0.08753561 0.003294632
vn -0.995172 0.08753561 0.003294632
vn -0.9914515 0.1302473 -0.007716759
vn -0.8811951 -0.4678645 0.0678087
vn -0.9070517 -0.4138651 0.04058485
vn -0.9070517 -0.4138651 0.04058485
vn -0.9329084 -0.3598658 0.013361
vn -0.1943542 0.3838599 0.902706
vn -0.2483293 0.4243943 0.8674219
vn -0.2483293 0.4243943 0.8674219
vn -0.3023043 0.4649288 0.8321378
vn -0.3022686 0.4651281 0.8320394
vn -0.3022181 0.4650593 0.8320962
vn -0.3022181 0.4650593 0.8320962
vn -0.3021676 0.4649906 0.8321529
vn -0.3693702 -0.4459517 -0.8030404
vn -0.4777743 -0.3561325 -0.8030575
vn -0.3693702 -0.4459517 -0.8030404
vn -0.2609661 -0.5357708 -0.8030232
vn -0.3795102 0.7039681 -0.5998348
vn -0.3907507 0.7142377 -0.5806707
vn -0.3795102 0.7039681 -0.5998348
vn -0.3682698 0.6936985 -0.618999
vn -0.2492274 0.4879501 0.8365347
vn -0.1014167 0.4769605 0.8600588
vn -0.1014167 0.4769605 0.8600588
vn 0.04639411 0.4659708 0.8835829
vn 0.042671 0.5811517 0.8126758
vn 0.1145732 0.5553598 0.8200965
vn 0.1145732 0.5553598 0.8200965
vn 0.1864754 0.529568 0.8275172
vn 0.388406 0.5985329 0.700642
vn 0.3259393 0.6180778 0.712267
vn 0.3259393 0.6180778 0.712267
vn 0.2634726 0.6376227 0.723892
vn 0.2820067 0.5658047 0.7748144
vn 0.2077531 0.5890151 0.777073
vn 0.2077531 0.5890151 0.777073
vn 0.1334995 0.6122255 0.7793316
vn 0.1075614 0.7054791 -0.7001625
vn 0.08550723 0.7094316 -0.699568
vn 0.1075614 0.7054791 -0.7001625
vn 0.1296155 0.7015265 -0.700757
vn 0.160727 0.5512692 -0.8186463
vn 0.151552 0.5528914 -0.8193552
vn 0.160727 0.5512692 -0.8186463
vn 0.1699021 0.549647 -0.8179373
vn -0.1348889 0.7073903 -0.6432061
vn 0.117518 0.6987 -0.7056968
vn -0.1348889 0.7073903 -0.6432061
vn -0.3872958 0.7160806 -0.5807155
vn -0.1736625 0.04621328 -0.9021064
vn -0.5506059 0.1234648 -0.8255844
vn -0.1736625 0.04621328 -0.9021064
vn 0.2032808 -0.03103822 -0.9786283
vn 0 1 0
vn 0 1 0
vn 0 1 0
vn 0 1 0
vn 0 1 0
vn 0 1 0
vn 0 1 0
vn 0 1 0
vt -0.5440257 10.07884
vt -0.681722 -7.61243
vt -7.702477 12.67819
vt -8.342065 -12.7673
vt -12.04749 11.69907
vt -11.89764 -12.1752
vt -17.7633 10.71995
vt -16.7418 -11.58311
vt -10.96418 -11.70928
vt 8.836169 -5.870539
vt 11.36131 -11.8503
vt -7.547511 -5.958307
vt -7.547511 -5.958307
vt 6.361079 -0.8258877
vt 8.836169 -5.870539
vt -5.45369 -1.120518
vt 3.23007 3.66896
vt 7.575433 -0.2222266
vt -8.079126 3.741724
vt -10.09298 -0.02274892
vt 5.257697 8.050993
vt 3.23007 3.66896
vt -5.973041 7.969306
vt -8.079126 3.741724
vt 0.4463451 3.540064
vt -1.139563 -0.9244173
vt -4.741291 2.961382
vt -6.264539 -1.900785
vt -1.139563 -0.9244173
vt -0.6119722 -5.396529
vt -6.264539 -1.900785
vt -7.787787 -6.762952
vt 5.75983 4.296264
vt 7.625944 1.250414
vt 1.662063 2.1248
vt -0.09681103 4.514022
vt 7.625944 1.250414
vt 11.09218 -4.94237
vt 2.440066 -3.420012
vt 1.662063 2.1248
vt -4.741291 2.961382
vt -6.264539 -1.900785
vt -6.88853 2.627148
vt -9.507316 -1.797835
vt -6.264539 -1.900785
vt -7.787787 -6.762952
vt -9.507316 -1.797835
vt -12.1261 -6.222817
vt -6.88853 2.627148
vt -9.507316 -1.797835
vt -10.04024 3.577938
vt -13.25233 -1.052372
vt -9.507316 -1.797835
vt -12.1261 -6.222817
vt -13.25233 -1.052372
vt -17.83518 -5.677732
vt 14.24668 1.247786
vt 18.98334 -3.472709
vt 14.41127 -4.278562
vt 11.25633 0.6197122
vt 11.08302 5.480941
vt 14.24668 1.247786
vt 11.25633 0.6197122
vt 8.421425 4.888602
vt 11.25633 0.6197122
vt 14.41127 -4.278562
vt 11.09218 -4.94237
vt 7.625944 1.250414
vt 8.421425 4.888602
vt 11.25633 0.6197122
vt 7.625944 1.250414
vt 5.75983 4.296264
vt 4.693421 7.115311
vt 4.238186 -7.019498
vt -0.4868126 5.999997
vt -1.348953 -5.203792
vt 10.00001 6
vt 10.00001 -5.822652
vt 6.836404 7.753766
vt 7.119096 -6.421075
g submesh0
f 1/1/1 2/2/2 3/3/3
f 3/3/3 2/2/2 4/4/4
f 5/5/5 3/3/3 4/4/4
f 5/5/5 4/4/4 6/6/6
f 7/7/7 5/5/5 6/6/6
f 7/7/7 6/6/6 8/8/8
f 9/9/9 10/10/10 11/11/11
f 9/9/9 12/12/12 10/10/10
f 13/13/13 14/14/14 15/15/15
f 13/13/13 16/16/16 14/14/14
f 17/17/17 18/18/18 19/19/19
f 19/19/19 18/18/18 20/20/20
f 21/21/21 22/22/22 23/23/23
f 23/23/23 22/22/22 24/24/24
f 25/25/25 26/26/26 27/27/27
f 26/26/26 28/28/28 27/27/27
f 29/29/29 30/30/30 31/31/31
f 30/30/30 32/32/32 31/31/31
f 33/33/33 34/34/34 35/35/35
f 33/33/33 35/35/35 36/36/36
f 37/37/37 38/38/38 39/39/39
f 37/37/37 39/39/39 40/40/40
f 41/41/41 42/42/42 43/43/43
f 42/42/42 44/44/44 43/43/43
f 45/45/45 46/46/46 47/47/47
f 46/46/46 48/48/48 47/47/47
f 49/49/49 50/50/50 51/51/51
f 50/50/50 52/52/52 51/51/51
f 53/53/53 54/54/54 55/55/55
f 54/54/54 56/56/56 55/55/55
f 57/57/57 58/58/58 59/59/59
f 57/57/57 59/59/59 60/60/60
f 61/61/61 62/62/62 63/63/63
f 61/61/61 63/63/63 64/64/64
f 65/65/65 66/66/66 67/67/67
f 65/65/65 67/67/67 68/68/68
f 69/69/69 70/70/70 71/71/71
f 69/69/69 71/71/71 72/72/72
g submesh1
f 73/73/73 74/74/74 75/75/75
f 74/74/74 76/76/76 75/75/75
f 77/77/77 78/78/78 79/79/79
f 78/78/78 80/80/80 79/79/79
f 79/79/79 80/80/80 73/73/73
f 80/80/80 74/74/74 73/73/73
