v 6.429705 6 5.436696
v 6.429706 4.865856 5.436694
v 7.852413 5.207298 6.506897
v 7.852411 6 6.506896
v 8.301778 6.000006 -3.755265
v 8.301782 4.504424 -4.081971
v 5.587871 6 0.8807383
v 8.030132 3.545302 -3.446501
v 7.852413 5.207298 6.506897
v 13.02334 5.103358 6.000011
v 7.852411 6 6.506896
v 13.02334 6 6.000018
v 13.02334 5.103358 6.000011
v 19.6498 5.534914 5.476851
v 13.02334 6 6.000018
v 19.23479 5.980249 5.474801
v 19.07891 5.947581 -4.463301
v 19.90893 5.056908 -4.11456
v 14.155 6.000006 -3.626874
v 14.15501 4.030252 -3.690243
v 14.155 6.000006 -3.626874
v 14.15501 4.030252 -3.690243
v 8.301778 6.000006 -3.755265
v 8.301782 4.504424 -4.081971
v 19.23479 5.980249 5.474801
v 19.6498 5.534914 5.476851
v 20.5516 5.942796 3.091121
v 19.65066 3.975127 3.097978
v 20.5516 5.942796 3.091121
v 19.65066 3.975127 3.097978
v 19.90893 5.056908 -4.11456
v 19.07891 5.947581 -4.463301
v 5.587871 6 0.8807383
v 8.030132 3.545302 -3.446501
v 5.299356 4.441252 3.883353
v 5.299356 6 3.883354
v 5.299356 6 3.883354
v 5.299356 4.441252 3.883353
v 6.429706 4.865856 5.436694
v 6.429705 6 5.436696
v 5.587871 6 0.8807383
v 7.871541 6 3.355409
v 8.301778 6.000006 -3.755265
v 5.299356 6 3.883354
v 7.852411 6 6.506896
v 6.429705 6 5.436696
v 7.871541 3.319394 3.355406
v 5.299356 4.441252 3.883353
v 8.030132 3.545302 -3.446501
v 8.301782 4.504424 -4.081971
v 7.852413 5.207298 6.506897
v 6.429706 4.865856 5.436694
v 5.299356 4.441252 3.883353
v 7.871541 3.319394 3.355406
v 20.5516 5.942796 3.091121
v 19.07891 5.947581 -4.463301
v 14.155 6.000006 -3.626874
v 13.58917 6 3.378493
v 20.5516 5.942796 3.091121
v 13.58917 6 3.378493
v 19.23479 5.980249 5.474801
v 13.02334 6 6.000018
v 14.155 6.000006 -3.626874
v 13.58917 6 3.378493
v 13.02334 6 6.000018
v 7.852413 5.207298 6.506897
v 7.871541 3.319394 3.355406
v 13.02334 5.103358 6.000011
v 13.58917 2.909698 3.37849
v 7.871541 3.319394 3.355406
v 8.301782 4.504424 -4.081971
v 13.58917 2.909698 3.37849
v 14.15501 4.030252 -3.690243
v 19.6498 5.534914 5.476851
v 13.02334 5.103358 6.000011
v 13.58917 2.909698 3.37849
v 19.65066 3.975127 3.097978
v 13.58917 2.909698 3.37849
v 14.15501 4.030252 -3.690243
v 19.65066 3.975127 3.097978
v 19.90893 5.056908 -4.11456
vn -0.6011395 -1.208846E-06 0.7991441
vn -0.6011398 -1.932694E-06 0.7991439
vn -0.6011395 -1.208846E-06 0.7991441
vn -0.6011392 -4.849979E-07 0.7991443
vn -0.8577948 0.1096914 -0.5021513
vn -0.8704828 0.02573076 -0.4837872
vn -0.8704828 0.02573076 -0.4837872
vn -0.8831708 -0.05822985 -0.4654232
vn 0.09755854 1.432069E-06 0.9952298
vn 0.09755781 -2.82796E-06 0.9952299
vn 0.09755781 -2.82796E-06 0.9952299
vn 0.09755708 -7.087989E-06 0.99523
vn 0.0787058 -7.059419E-06 0.9968979
vn 0.08146624 0.04152732 0.9949383
vn 0.08146624 0.04152732 0.9949383
vn 0.08422667 0.0830617 0.9929787
vn -0.1518922 -0.4798795 -0.8640859
vn -0.1155429 -0.2239133 -0.9302149
vn -0.1155429 -0.2239133 -0.9302149
vn -0.07919352 0.03205285 -0.9963438
vn 0.02191844 0.03214636 -0.9992428
vn 0.05215475 0.1224178 -0.9864414
vn 0.05215475 0.1224178 -0.9864414
vn 0.08239107 0.2126892 -0.9736401
vn 0.6800629 0.6354347 0.365701
vn 0.7787923 0.1172802 0.3144328
vn 0.7787923 0.1172802 0.3144328
vn 0.8775216 -0.4008744 0.2631647
vn 0.8301958 0.1135049 -0.08799966
vn 0.9087785 -0.4162073 -0.02988403
vn 0.8301958 0.1135049 -0.08799966
vn 0.751613 0.6432171 -0.1461153
vn -0.9382527 -0.1899026 -0.1887388
vn -0.8810902 -0.3798049 -0.2818301
vn -0.9382527 -0.1899026 -0.1887388
vn -0.9954153 -2.898781E-07 -0.09564739
vn -0.8085759 -9.571082E-07 0.588392
vn -0.8085756 -3.373493E-07 0.5883923
vn -0.8085759 -9.571082E-07 0.588392
vn -0.808576 -1.576867E-06 0.5883917
vn -4.091797E-07 1 3.775983E-07
vn -4.091797E-07 1 3.775983E-07
vn -8.183594E-07 1 7.551967E-07
vn 0 1 0
vn 0 1 0
vn 0 1 0
vn 0.2790474 -0.5884629 -0.01303807
vn -0.4063141 -0.9128667 -0.03979204
vn 0.2790474 -0.5884629 -0.01303807
vn 0.9644089 -0.2640592 0.0137159
vn -0.09298965 -0.9017031 0.3537787
vn 0.07399721 -0.9743569 0.2124925
vn -0.09298965 -0.9017031 0.3537787
vn -0.2599765 -0.8290493 0.495065
vn 0.009326349 0.9999553 -0.0003645427
vn 0.01040933 0.9999449 -0.001395801
vn 0.009326349 0.9999553 -0.0003645427
vn 0.008243368 0.9999658 0.0006667153
vn 0.007743449 0.9999046 -0.01143315
vn 0.005491164 0.9999496 -0.005367036
vn 0.005491164 0.9999496 -0.005367036
vn 0.003238877 0.9999945 0.0006990798
vn -1.006971E-07 1 8.767428E-07
vn -5.197261E-08 1 8.406291E-07
vn 0 1 0
vn 0.0331298 -0.8572923 0.513763
vn -0.01236306 -0.8145174 0.5735304
vn -0.01236306 -0.8145174 0.5735304
vn -0.05785592 -0.7717426 0.6332977
vn -0.06989396 -0.9844917 -0.1609067
vn -0.0694156 -0.9844706 -0.1612412
vn -0.0694156 -0.9844706 -0.1612412
vn -0.06893724 -0.9844496 -0.1615757
vn 0.1351298 -0.788177 0.5957806
vn 0.1004017 -0.7522691 0.6511611
vn 0.1351298 -0.788177 0.5957806
vn 0.1698578 -0.8240849 0.5404002
vn 0.165017 -0.9760845 -0.141522
vn 0.1644347 -0.9762505 -0.1410519
vn 0.1644347 -0.9762505 -0.1410519
vn 0.1638523 -0.9764165 -0.1405818
vt -7.174615 6.000012
vt -7.174615 4.865868
vt -8.742168 5.207312
vt -8.742166 6.000014
vt 9.107721 5.983329
vt 9.233614 4.539999
vt 4.816992 5.560742
vt 8.738076 3.526129
vt -8.742168 5.207312
vt -13.77793 5.103368
vt -8.742166 6.000014
vt -13.77793 6.00001
vt -13.77793 5.103368
vt -20.25021 5.53492
vt -13.77793 6.00001
vt -19.83962 5.980256
vt 19.32545 5.473847
vt 19.957 4.50693
vt 14.45948 5.672968
vt 14.4839 3.727765
vt 14.45948 5.672968
vt 14.4839 3.727765
vt 9.107721 5.983329
vt 9.233614 4.539999
vt 1.37888 3.257352
vt 1.295066 2.761642
vt -1.225581 3.113822
vt -1.032566 1.281577
vt -1.225581 3.113822
vt -1.032566 1.281577
vt -8.142612 2.519365
vt -8.312176 3.520322
vt -1.864132 4.705051
vt 1.957606 1.622514
vt -4.767009 3.360144
vt -4.767009 4.882111
vt -4.767009 4.882111
vt -4.767009 3.360144
vt -6.497186 3.594432
vt -6.497189 4.701815
vt 5.569693 0.8935999
vt 7.853353 3.36828
vt 8.283587 -3.742375
vt 5.281179 3.896206
vt 7.834222 6.519759
vt 6.411523 5.449553
vt -7.80708 3.942897
vt -5.214054 4.661496
vt -7.961353 -2.69724
vt -8.214738 -3.141936
vt -7.752101 7.390841
vt -6.336135 6.270735
vt -5.214054 4.661496
vt -7.80708 3.942897
vt 20.53353 3.103952
vt 19.06083 -4.450452
vt 14.13679 -3.613947
vt 13.57095 3.391401
vt 20.53353 3.103952
vt 13.57095 3.391401
vt 19.21661 5.487698
vt 13.00513 6.012916
vt 14.13679 -3.613947
vt 13.57095 3.391401
vt 13.00513 6.012916
vt -7.752101 7.390841
vt -7.80708 3.942897
vt -12.92407 6.891767
vt -13.53146 3.909484
vt -7.80708 3.942897
vt -8.214738 -3.141936
vt -13.53146 3.909484
vt -14.07591 -2.824693
vt -19.54114 6.481616
vt -12.92407 6.891767
vt -13.53146 3.909484
vt -19.57162 3.853822
vt -13.53146 3.909484
vt -14.07591 -2.824693
vt -19.57162 3.853822
vt -19.8093 -3.029953
g submesh0
f 1/1/1 2/2/2 3/3/3
f 1/1/1 3/3/3 4/4/4
f 5/5/5 6/6/6 7/7/7
f 6/6/6 8/8/8 7/7/7
f 9/9/9 10/10/10 11/11/11
f 11/11/11 10/10/10 12/12/12
f 13/13/13 14/14/14 15/15/15
f 15/15/15 14/14/14 16/16/16
f 17/17/17 18/18/18 19/19/19
f 19/19/19 18/18/18 20/20/20
f 21/21/21 22/22/22 23/23/23
f 22/22/22 24/24/24 23/23/23
f 25/25/25 26/26/26 27/27/27
f 26/26/26 28/28/28 27/27/27
f 29/29/29 30/30/30 31/31/31
f 29/29/29 31/31/31 32/32/32
f 33/33/33 34/34/34 35/35/35
f 33/33/33 35/35/35 36/36/36
f 37/37/37 38/38/38 39/39/39
f 37/37/37 39/39/39 40/40/40
f 41/41/41 42/42/42 43/43/43
f 41/41/41 44/44/44 42/42/42
f 44/44/44 45/45/45 42/42/42
f 44/44/44 46/46/46 45/45/45
f 47/47/47 48/48/48 49/49/49
f 50/50/50 47/47/47 49/49/49
f 51/51/51 52/52/52 53/53/53
f 54/54/54 51/51/51 53/53/53
f 55/55/55 56/56/56 57/57/57
f 55/55/55 57/57/57 58/58/58
f 59/59/59 60/60/60 61/61/61
f 60/60/60 62/62/62 61/61/61
f 63/63/63 43/43/43 64/64/64
f 64/64/64 43/43/43 42/42/42
f 64/64/64 42/42/42 65/65/65
f 65/65/65 42/42/42 45/45/45
f 66/66/66 67/67/67 68/68/68
f 68/68/68 67/67/67 69/69/69
f 70/70/70 71/71/71 72/72/72
f 72/72/72 71/71/71 73/73/73
f 74/74/74 75/75/75 76/76/76
f 74/74/74 76/76/76 77/77/77
f 78/78/78 79/79/79 80/80/80
f 79/79/79 81/81/81 80/80/80
