v -1.62 0 0
v -1.62 5 0
v -3.514719 0 8.485281
v -3.514719 5 8.485281
v -3.514719 0 8.485281
v -3.514719 5 8.485281
v -12 0 10.67
v -12 5 10.67
v -12 0 10.67
v -12 5 10.67
v -20.48528 0 8.485281
v -20.48528 5 8.485281
v -20.48528 0 8.485281
v -20.48528 5 8.485281
v -24.62 0 -9.536743E-07
v -24.62 5 -9.536743E-07
v -24.62 0 -9.536743E-07
v -24.62 5 -9.536743E-07
v -22.62 0 -6.33
v -22.62 5 -6.33
v -22.62 0 -6.33
v -22.62 5 -6.33
v -12 0 -12
v -12 5 -12
v -12 0 -12
v -12 5 -12
v -3.51472 0 -8.485283
v -3.51472 5 -8.485283
v -3.51472 0 -8.485283
v -3.51472 5 -8.485283
v -1.62 0 0
v -1.62 5 0
v -0.6199999 -5 10.67
v -12.62 -5 -2.33
v 6.38 -5 -1.33
v -11.62 -5 15.67
v -22.62 -5 10.67
v -27.62 -5 -0.3299999
v -22.62 -5 -11.33
v -11.62 -5 -16.33
v -0.6199999 -5 -11.33
v -11.62 0 15.67
v -22.62 0 10.67
v -11.62 -5 15.67
v -22.62 -5 10.67
v -0.6199999 0 10.67
v -11.62 0 15.67
v -0.6199999 -5 10.67
v -11.62 -5 15.67
v -22.62 0 10.67
v -27.62 0 -0.3299999
v -22.62 -5 10.67
v -27.62 -5 -0.3299999
v -27.62 0 -0.3299999
v -22.62 0 -11.33
v -27.62 -5 -0.3299999
v -22.62 -5 -11.33
v -22.62 0 -11.33
v -11.62 0 -16.33
v -22.62 -5 -11.33
v -11.62 -5 -16.33
v -7.7 -3 -19.6
v -0.8999996 -3 -17
v -7.7 -5 -19.6
v -0.8999996 -5 -17
v -0.6199999 0 -11.33
v 6.38 0 -1.33
v -0.6199999 -5 -11.33
v 6.38 -5 -1.33
v 6.38 0 -1.33
v -0.6199999 0 10.67
v 6.38 -5 -1.33
v -0.6199999 -5 10.67
v -20.62 5 -1.33
v -17.62 5 5.67
v -20.62 15 -1.33
v -17.62 15 5.67
v -17.62 5 -5.33
v -20.62 5 -1.33
v -17.62 15 -5.33
v -20.62 15 -1.33
v -17.62 5 5.67
v -12.62 5 5.67
v -17.62 15 5.67
v -12.62 15 5.67
v -12.62 5 5.67
v -7.62 5 1.67
v -12.62 15 5.67
v -7.62 15 1.67
v -7.62 5 1.67
v -6.62 5 -1.33
v -7.62 15 1.67
v -6.62 15 -1.33
v -6.62 5 -1.33
v -8 5 -5
v -6.62 15 -1.33
v -6.62 15 -5.33
v -8 5 -5
v -12 5 -7
v -6.62 15 -5.33
v -11 15 -9
v -12 5 -7
v -17.62 5 -5.33
v -11 15 -9
v -17.62 15 -5.33
v -11.62 -5 -16.33
v -11.62 0 -16.33
v -7.7 -5 -19.6
v -7.7 -3 -19.6
v -0.6199999 0 -11.33
v -0.6199999 -5 -11.33
v -0.8999996 -3 -17
v -0.8999996 -5 -17
v -0.8999996 -5 -17
v -7.7 -5 -19.6
v -6.62 15 -1.33
v -12.62 15 -1.33
v -7.62 15 1.67
v -12.62 15 5.67
v -17.62 15 5.67
v -20.62 15 -1.33
v -17.62 15 -5.33
v -11 15 -9
v -6.62 15 -5.33
v -12 0 10.67
v -20.48528 0 8.485281
v -11.62 0 15.67
v -22.62 0 10.67
v -3.514719 0 8.485281
v -0.6199999 0 10.67
v -24.62 0 -9.536743E-07
v -27.62 0 -0.3299999
v -22.62 0 -6.33
v -22.62 0 -11.33
v -12 0 -12
v -11.62 0 -16.33
v -3.51472 0 -8.485283
v -0.6199999 0 -11.33
v -1.62 0 0
v 6.38 0 -1.33
v -24.62 5 -9.536743E-07
v -20.48528 5 8.485281
v -20.62 5 -1.33
v -17.62 5 5.67
v -22.62 5 -6.33
v -17.62 5 -5.33
v -12 5 10.67
v -12.62 5 5.67
v -3.514719 5 8.485281
v -7.62 5 1.67
v -1.62 5 0
v -6.62 5 -1.33
v -3.51472 5 -8.485283
v -8 5 -5
v -12 5 -12
v -12 5 -7
v -11.62 0 -16.33
v -0.6199999 0 -11.33
v -7.7 -3 -19.6
v -0.8999996 -3 -17
vn 1 0 -2.29022E-08
vn 1 0 -2.29022E-08
vn 0.7184365 0 0.6955926
vn 0.7184365 0 0.6955926
vn 0.7184365 0 0.6955926
vn 0.7184365 0 0.6955926
vn -3.07743E-08 0 1
vn -3.07743E-08 0 1
vn -3.07743E-08 0 1
vn -3.07743E-08 0 1
vn -0.6324306 0 0.7746171
vn -0.6324306 0 0.7746171
vn -0.6324306 0 0.7746171
vn -0.6324306 0 0.7746171
vn -0.9972857 0 0.07362868
vn -0.9972857 0 0.07362868
vn -0.9972857 0 0.07362868
vn -0.9972857 0 0.07362868
vn -0.7691958 0 -0.6390132
vn -0.7691958 0 -0.6390132
vn -0.7691958 0 -0.6390132
vn -0.7691958 0 -0.6390132
vn -0.04882964 0 -0.9988071
vn -0.04882964 0 -0.9988071
vn -0.04882964 0 -0.9988071
vn -0.04882964 0 -0.9988071
vn 0.7655541 0 -0.6433715
vn 0.7655541 0 -0.6433715
vn 0.7655541 0 -0.6433715
vn 0.7655541 0 -0.6433715
vn 1 0 -2.29022E-08
vn 1 0 -2.29022E-08
vn 0 -1 0
vn 0 -1 0
vn 0 -1 0
vn 0 -1 0
vn 0 -1 0
vn 0 -1 0
vn 0 -1 0
vn 0 -1 0
vn 0 -1 0
vn -0.413803 0 0.9103665
vn -0.413803 0 0.9103665
vn -0.413803 0 0.9103665
vn -0.413803 0 0.9103665
vn 0.413803 0 0.9103665
vn 0.413803 0 0.9103665
vn 0.413803 0 0.9103665
vn 0.413803 0 0.9103665
vn -0.9103665 0 0.413803
vn -0.9103665 0 0.413803
vn -0.9103665 0 0.413803
vn -0.9103665 0 0.413803
vn -0.9103665 0 -0.413803
vn -0.9103665 0 -0.413803
vn -0.9103665 0 -0.413803
vn -0.9103665 0 -0.413803
vn -0.413803 0 -0.9103665
vn -0.413803 0 -0.9103665
vn -0.413803 0 -0.9103665
vn -0.413803 0 -0.9103665
vn 0.3571375 0 -0.9340518
vn 0.3571375 0 -0.9340518
vn 0.3571375 0 -0.9340518
vn 0.3571375 0 -0.9340518
vn 0.8192319 0 -0.5734623
vn 0.8192319 0 -0.5734623
vn 0.8192319 0 -0.5734623
vn 0.8192319 0 -0.5734623
vn 0.8637789 0 0.503871
vn 0.8637789 0 0.503871
vn 0.8637789 0 0.503871
vn 0.8637789 0 0.503871
vn -0.919145 0 0.3939193
vn -0.919145 0 0.3939193
vn -0.919145 0 0.3939193
vn -0.919145 0 0.3939193
vn -0.8 0 -0.6
vn -0.8 0 -0.6
vn -0.8 0 -0.6
vn -0.8 0 -0.6
vn 0 0 1
vn 0 0 1
vn 0 0 1
vn 0 0 1
vn 0.6246951 0 0.7808688
vn 0.6246951 0 0.7808688
vn 0.6246951 0 0.7808688
vn 0.6246951 0 0.7808688
vn 0.9486833 0 0.3162278
vn 0.9486833 0 0.3162278
vn 0.9486833 0 0.3162278
vn 0.9486833 0 0.3162278
vn 0.9360144 0 -0.3519618
vn 0.9633131 -0.06835222 -0.1759809
vn 0.9633131 -0.06835222 -0.1759809
vn 0.9906119 -0.1367044 0
vn 0.445364 -0.09085426 -0.8907281
vn 0.536468 -0.151704 -0.8198552
vn 0.536468 -0.151704 -0.8198552
vn 0.6275719 -0.2125537 -0.7489823
vn -0.2811227 -0.1610984 -0.9460536
vn -0.3829902 -0.08054922 -0.9103234
vn -0.3829902 -0.08054922 -0.9103234
vn -0.4848576 0 -0.8745931
vn -0.6405697 0 -0.7679
vn -0.6405697 0 -0.7679
vn -0.6405697 0 -0.7679
vn -0.6405697 0 -0.7679
vn 0.9987829 0 -0.04932257
vn 0.9987829 0 -0.04932257
vn 0.9987829 0 -0.04932257
vn 0.9987829 0 -0.04932256
vn 0 -1 0
vn 0 -1 0
vn 0 1 0
vn 0 1 0
vn 0 1 0
vn 0 1 0
vn 0 1 0
vn 0 1 0
vn 0 1 0
vn 0 1 0
vn 0 1 0
vn 0 1 0
vn 0 1 0
vn 0 1 0
vn 0 1 0
vn 0 1 0
vn 0 1 0
vn 0 1 0
vn 0 1 0
vn 0 1 0
vn 0 1 0
vn 0 1 0
vn 0 1 0
vn 0 1 0
vn 0 1 0
vn 0 1 0
vn 0 1 0
vn 0 1 0
vn 0 1 0
vn 0 1 0
vn 0 1 0
vn 0 1 0
vn 0 1 0
vn 0 1 0
vn 0 1 0
vn 0 1 0
vn 0 1 0
vn 0 1 0
vn 0 1 0
vn 0 1 0
vn 0 1 0
vn 0 1 0
vn 0 1 0
vn 0.2260815 0.8375566 -0.4973792
vn 0.2023261 0.8517894 -0.4822052
vn 0.2023261 0.8517894 -0.4822052
vn 0.1785707 0.8660222 -0.4670311
vt 0.3530431 0
vt 0.3530431 5
vt 9.047292 0
vt 9.047292 5
vt 5.519427 0
vt 5.519427 5
vt 14.28145 0
vt 14.28145 5
vt 8.96054 0
vt 8.96054 5
vt 17.72256 0
vt 17.72256 5
vt 1.345563 0
vt 1.345563 5
vt 10.78463 0
vt 10.78463 5
vt -7.417404 0
vt -7.417404 5
vt -0.7789642 0
vt -0.7789642 5
vt -16.97286 0
vt -16.97286 5
vt -4.934035 0
vt -4.934035 5
vt -15.67875 0
vt -15.67875 5
vt -6.494355 0
vt -6.494355 5
vt -9.047294 0
vt -9.047294 5
vt -0.3530432 0
vt -0.3530432 5
vt 0.6199999 10.67
vt 12.62 -2.33
vt -6.38 -1.33
vt 11.62 15.67
vt 22.62 10.67
vt 27.62 -0.3299999
vt 22.62 -11.33
vt 11.62 -16.33
vt 0.6199999 -11.33
vt 4.094166 0
vt 16.17721 0
vt 4.094166 -5
vt 16.17721 -5
vt 4.979705 0
vt 17.06275 0
vt 4.979705 -5
vt 17.06275 -5
vt -0.353388 0
vt 11.72966 0
vt -0.353388 -5
vt 11.72966 -5
vt -11.12882 0
vt 0.9542298 0
vt -11.12882 -5
vt 0.9542298 -5
vt -15.9041 0
vt -3.821056 0
vt -15.9041 -5
vt -3.821056 -5
vt -14.19209 -3
vt -6.911984 -3
vt -14.19209 -5
vt -6.911984 -5
vt -9.637444 0
vt 2.569111 0
vt -9.637444 -5
vt 2.569111 -5
vt -4.363523 0
vt 9.528921 0
vt -4.363523 -5
vt 9.528921 -5
vt 9.345078 5
vt 1.729305 5
vt 9.345078 15
vt 1.729305 15
vt -6.308 5
vt -11.308 5
vt -6.308 15
vt -11.308 15
vt 17.62 5
vt 12.62 5
vt 17.62 15
vt 12.62 15
vt 13.39659 5
vt 6.993461 5
vt 13.39659 15
vt 6.993461 15
vt 3.993957 5
vt 0.831679 5
vt 3.993957 15
vt 0.831679 15
vt -3.574886 5
vt -7.495766 5
vt -3.574886 15
vt -7.318944 15
vt -9.391486 5.060584
vt -13.86362 5.060584
vt -8.304757 15.10211
vt -13.86362 15.22238
vt -9.508986 6.566319
vt -15.37186 6.566319
vt -7.980726 16.69866
vt -15.37186 16.4357
vt 1.537505 -5
vt 1.537505 0
vt 6.642337 -5
vt 6.642337 -3
vt -11.34679 0
vt -11.34679 -5
vt -17.0237 -3
vt -17.0237 -5
vt 0.8999996 -17
vt 7.7 -19.6
vt -6.62 -1.33
vt -12.62 -1.33
vt -7.62 1.67
vt -12.62 5.67
vt -17.62 5.67
vt -20.62 -1.33
vt -17.62 -5.33
vt -11 -9
vt -6.62 -5.33
vt -12 10.67
vt -20.48528 8.485281
vt -11.62 15.67
vt -22.62 10.67
vt -3.514719 8.485281
vt -0.6199999 10.67
vt -24.62 -9.536743E-07
vt -27.62 -0.3299999
vt -22.62 -6.33
vt -22.62 -11.33
vt -12 -12
vt -11.62 -16.33
vt -3.51472 -8.485283
vt -0.6199999 -11.33
vt -1.62 0
vt 6.38 -1.33
vt -24.62 -9.536743E-07
vt -20.48528 8.485281
vt -20.62 -1.33
vt -17.62 5.67
vt -22.62 -6.33
vt -17.62 -5.33
vt -12 10.67
vt -12.62 5.67
vt -3.514719 8.485281
vt -7.62 1.67
vt -1.62 0
vt -6.62 -1.33
vt -3.51472 -8.485283
vt -8 -5
vt -12 -12
vt -12 -7
vt -11.21848 -15.67298
vt -0.5985765 -9.909515
vt -6.652127 -19.44229
vt -0.08709314 -16.3053
g submesh0
f 1/1/1 2/2/2 3/3/3
f 2/2/2 4/4/4 3/3/3
f 5/5/5 6/6/6 7/7/7
f 6/6/6 8/8/8 7/7/7
f 9/9/9 10/10/10 11/11/11
f 10/10/10 12/12/12 11/11/11
f 13/13/13 14/14/14 15/15/15
f 14/14/14 16/16/16 15/15/15
f 17/17/17 18/18/18 19/19/19
f 18/18/18 20/20/20 19/19/19
f 21/21/21 22/22/22 23/23/23
f 22/22/22 24/24/24 23/23/23
f 25/25/25 26/26/26 27/27/27
f 26/26/26 28/28/28 27/27/27
f 29/29/29 30/30/30 31/31/31
f 30/30/30 32/32/32 31/31/31
f 33/33/33 34/34/34 35/35/35
f 36/36/36 34/34/34 33/33/33
f 37/37/37 34/34/34 36/36/36
f 38/38/38 34/34/34 37/37/37
f 39/39/39 34/34/34 38/38/38
f 40/40/40 34/34/34 39/39/39
f 41/41/41 34/34/34 40/40/40
f 35/35/35 34/34/34 41/41/41
f 42/42/42 43/43/43 44/44/44
f 43/43/43 45/45/45 44/44/44
f 46/46/46 47/47/47 48/48/48
f 47/47/47 49/49/49 48/48/48
f 50/50/50 51/51/51 52/52/52
f 51/51/51 53/53/53 52/52/52
f 54/54/54 55/55/55 56/56/56
f 55/55/55 57/57/57 56/56/56
f 58/58/58 59/59/59 60/60/60
f 59/59/59 61/61/61 60/60/60
f 62/62/62 63/63/63 64/64/64
f 63/63/63 65/65/65 64/64/64
f 66/66/66 67/67/67 68/68/68
f 67/67/67 69/69/69 68/68/68
f 70/70/70 71/71/71 72/72/72
f 71/71/71 73/73/73 72/72/72
f 74/74/74 75/75/75 76/76/76
f 75/75/75 77/77/77 76/76/76
f 78/78/78 79/79/79 80/80/80
f 79/79/79 81/81/81 80/80/80
f 82/82/82 83/83/83 84/84/84
f 83/83/83 85/85/85 84/84/84
f 86/86/86 87/87/87 88/88/88
f 87/87/87 89/89/89 88/88/88
f 90/90/90 91/91/91 92/92/92
f 91/91/91 93/93/93 92/92/92
f 94/94/94 95/95/95 96/96/96
f 95/95/95 97/97/97 96/96/96
f 98/98/98 99/99/99 100/100/100
f 99/99/99 101/101/101 100/100/100
f 102/102/102 103/103/103 104/104/104
f 103/103/103 105/105/105 104/104/104
f 106/106/106 107/107/107 108/108/108
f 107/107/107 109/109/109 108/108/108
f 110/110/110 111/111/111 112/112/112
f 111/111/111 113/113/113 112/112/112
f 41/41/41 40/40/40 114/114/114
f 40/40/40 115/115/115 114/114/114
g submesh1
f 116/116/116 117/117/117 118/118/118
f 118/118/118 117/117/117 119/119/119
f 119/119/119 117/117/117 120/120/120
f 120/120/120 117/117/117 121/121/121
f 121/121/121 117/117/117 122/122/122
f 122/122/122 117/117/117 123/123/123
f 123/123/123 117/117/117 124/124/124
f 124/124/124 117/117/117 116/116/116
f 125/125/125 126/126/126 127/127/127
f 126/126/126 128/128/128 127/127/127
f 129/129/129 125/125/125 130/130/130
f 125/125/125 127/127/127 130/130/130
f 126/126/126 131/131/131 128/128/128
f 131/131/131 132/132/132 128/128/128
f 131/131/131 133/133/133 132/132/132
f 133/133/133 134/134/134 132/132/132
f 133/133/133 135/135/135 134/134/134
f 135/135/135 136/136/136 134/134/134
f 135/135/135 137/137/137 136/136/136
f 137/137/137 138/138/138 136/136/136
f 137/137/137 139/139/139 138/138/138
f 139/139/139 140/140/140 138/138/138
f 139/139/139 129/129/129 140/140/140
f 129/129/129 130/130/130 140/140/140
f 141/141/141 142/142/142 143/143/143
f 142/142/142 144/144/144 143/143/143
f 145/145/145 141/141/141 146/146/146
f 141/141/141 143/143/143 146/146/146
f 142/142/142 147/147/147 144/144/144
f 147/147/147 148/148/148 144/144/144
f 147/147/147 149/149/149 148/148/148
f 149/149/149 150/150/150 148/148/148
f 149/149/149 151/151/151 150/150/150
f 151/151/151 152/152/152 150/150/150
f 151/151/151 153/153/153 152/152/152
f 153/153/153 154/154/154 152/152/152
f 153/153/153 155/155/155 154/154/154
f 155/155/155 156/156/156 154/154/154
f 155/155/155 145/145/145 156/156/156
f 145/145/145 146/146/146 156/156/156
f 157/157/157 158/158/158 159/159/159
f 158/158/158 160/160/160 159/159/159
