v 0.7500035 -5 0.1249998
v 1.000004 -5 0.1249997
v 0.7499965 5 0.1249999
v 0.9999966 5 0.1249998
v 1.000004 -5 0.1249997
v 1.000003 -5 -0.1250003
v 0.9999966 5 0.1249998
v 0.9999967 5 -0.1250005
v 1.000003 -5 -0.1250003
v 0.7500034 -5 -0.1250002
v 0.9999967 5 -0.1250005
v 0.7499967 5 -0.1250004
v -0.9999966 -5 -0.1249995
v -0.9999965 -5 0.1250005
v -1.000003 5 -0.1249995
v -1.000004 5 0.1250005
v 0.7499965 5 0.1249999
v 0.9999966 5 0.1249998
v 0.7499967 5 -0.1250004
v 0.9999967 5 -0.1250005
v 0.7500034 -5 -0.1250002
v 1.000003 -5 -0.1250003
v 0.7500035 -5 0.1249998
v 1.000004 -5 0.1249997
v -0.7499966 -5 -0.1249996
v -0.7499965 -5 0.1250004
v -0.9999966 -5 -0.1249995
v -0.9999965 -5 0.1250005
v -0.7500035 5 -0.1249997
v -0.7499966 -5 -0.1249996
v -1.000003 5 -0.1249995
v -0.9999966 -5 -0.1249995
v -0.7499965 -5 0.1250004
v -0.7500036 5 0.1250004
v -0.9999965 -5 0.1250005
v -1.000004 5 0.1250005
v -0.7500036 5 0.1250004
v -0.7500035 5 -0.1249997
v -1.000004 5 0.1250005
v -1.000003 5 -0.1249995
v 0.7500035 -5 0.1249998
v 0.7499965 5 0.1249999
v 0.7500034 -5 -0.1250002
v 0.7499967 5 -0.1250004
v -0.7500036 5 0.1250004
v -0.7499965 -5 0.1250004
v -0.7500035 5 -0.1249997
v -0.7499966 -5 -0.1249996
v 0.7500035 -5 -1.639128E-07
v 0.7499966 5 -1.192093E-07
v -0.7499965 -5 3.72529E-07
v -0.7500036 5 3.576279E-07
vn 3.576278E-07 -5.960215E-09 1
vn 4.172325E-07 -4.470058E-09 1
vn 4.172325E-07 -4.470058E-09 1
vn 4.768371E-07 -2.9799E-09 1
vn 1 6.973743E-07 -4.768372E-07
vn 1 6.854534E-07 -2.557954E-13
vn 1 6.854534E-07 -2.557954E-13
vn 1 6.735325E-07 4.768366E-07
vn -3.576278E-07 -2.38421E-08 -1
vn -4.172325E-07 -2.235202E-08 -1
vn -4.172325E-07 -2.235202E-08 -1
vn -4.768371E-07 -2.086195E-08 -1
vn -1 -6.854534E-07 4.768372E-07
vn -1 -6.973744E-07 2.842171E-14
vn -1 -6.973744E-07 2.842171E-14
vn -1 -7.092953E-07 -4.768371E-07
vn 0 1 0
vn 0 1 0
vn 0 1 0
vn 0 1 0
vn 0 -1 0
vn 0 -1 0
vn 0 -1 0
vn 0 -1 0
vn 0 -1 0
vn 0 -1 0
vn 0 -1 0
vn 0 -1 0
vn -4.768373E-07 -2.980562E-09 -1
vn -4.172326E-07 -1.490403E-09 -1
vn -4.172326E-07 -1.490403E-09 -1
vn -3.576279E-07 -2.451372E-13 -1
vn 3.576279E-07 2.557954E-13 1
vn 4.172326E-07 -1.489819E-09 1
vn 4.172326E-07 -1.489819E-09 1
vn 4.768373E-07 -2.979894E-09 1
vn 0 1 0
vn 0 1 0
vn 0 1 0
vn 0 1 0
vn -1 -6.973743E-07 4.768372E-07
vn -1 -6.854534E-07 2.557954E-13
vn -1 -6.854534E-07 2.557954E-13
vn -1 -6.735325E-07 -4.768366E-07
vn 1 7.152557E-07 4.768371E-07
vn 1 7.033348E-07 -2.842171E-14
vn 1 7.033348E-07 -2.842171E-14
vn 1 6.914139E-07 -4.768372E-07
vn 3.576279E-07 -4.470103E-09 1
vn 3.377596E-07 -1.48988E-09 1
vn 3.377596E-07 -1.48988E-09 1
vn 3.178914E-07 1.490344E-09 1
vt -0.7500035 -5
vt -1.000004 -5
vt -0.7499965 5
vt -0.9999965 5
vt -2 -5
vt -2.25 -5
vt -2 5
vt -2.25 5
vt 1.000003 -5
vt 0.7500035 -5
vt 0.9999968 5
vt 0.7499967 5
vt 2.25 -5
vt 2 -5
vt 2.25 5
vt 2 5
vt 0.7499965 -2
vt 0.9999966 -2
vt 0.7499967 -2.25
vt 0.9999967 -2.25
vt -0.7500034 -2.25
vt -1.000003 -2.25
vt -0.7500035 -2
vt -1.000004 -2
vt 0.7499966 -2.25
vt 0.7499965 -2
vt 0.9999966 -2.25
vt 0.9999965 -2
vt -0.7500035 5
vt -0.7499965 -5
vt -1.000003 5
vt -0.9999965 -5
vt 0.7499965 -5
vt 0.7500037 5
vt 0.9999965 -5
vt 1.000004 5
vt -0.7500036 -2
vt -0.7500035 -2.25
vt -1.000004 -2
vt -1.000003 -2.25
vt 2 -5
vt 2 5
vt 2.25 -5
vt 2.25 5
vt -1.999999 5
vt -1.999999 -5
vt -2.249999 5
vt -2.249999 -5
vt -0.7500035 -5
vt -0.7499966 5
vt 0.7499965 -5
vt 0.7500036 5
g submesh0
f 1/1/1 2/2/2 3/3/3
f 2/2/2 4/4/4 3/3/3
f 5/5/5 6/6/6 7/7/7
f 6/6/6 8/8/8 7/7/7
f 9/9/9 10/10/10 11/11/11
f 10/10/10 12/12/12 11/11/11
f 13/13/13 14/14/14 15/15/15
f 14/14/14 16/16/16 15/15/15
f 17/17/17 18/18/18 19/19/19
f 18/18/18 20/20/20 19/19/19
f 21/21/21 22/22/22 23/23/23
f 22/22/22 24/24/24 23/23/23
f 25/25/25 26/26/26 27/27/27
f 26/26/26 28/28/28 27/27/27
f 29/29/29 30/30/30 31/31/31
f 30/30/30 32/32/32 31/31/31
f 33/33/33 34/34/34 35/35/35
f 34/34/34 36/36/36 35/35/35
f 37/37/37 38/38/38 39/39/39
f 38/38/38 40/40/40 39/39/39
f 41/41/41 42/42/42 43/43/43
f 42/42/42 44/44/44 43/43/43
f 45/45/45 46/46/46 47/47/47
f 46/46/46 48/48/48 47/47/47
g submesh1
f 49/49/49 50/50/50 51/51/51
f 50/50/50 52/52/52 51/51/51
