v 0.7500002 -5 0.1249995
v 1 -5 0.1249994
v 0.7499999 5 0.125
v 0.9999999 5 0.1249999
v 1 -5 0.1249994
v 1 -5 -0.1250006
v 0.9999999 5 0.1249999
v 0.9999999 5 -0.1249999
v 1 -5 -0.1250006
v 0.7500001 -5 -0.1250005
v 0.9999999 5 -0.1249999
v 0.7499999 5 -0.1249998
v -0.9999999 -5 -0.1249999
v -0.9999998 -5 0.1250001
v -1 5 -0.1249992
v -0.9999996 5 0.1250011
v 0.7499999 5 0.125
v 0.9999999 5 0.1249999
v 0.7499999 5 -0.1249998
v 0.9999999 5 -0.1249999
v 0.7500001 -5 -0.1250005
v 1 -5 -0.1250006
v 0.7500002 -5 0.1249995
v 1 -5 0.1249994
v -0.7499999 -5 -0.125
v -0.7499998 -5 0.125
v -0.9999999 -5 -0.1249999
v -0.9999998 -5 0.1250001
v -0.7499999 5 -0.1249993
v -0.7499999 -5 -0.125
v -1 5 -0.1249992
v -0.9999999 -5 -0.1249999
v -0.7499998 -5 0.125
v -0.7499995 5 0.1250008
v -0.9999998 -5 0.1250001
v -0.9999996 5 0.1250011
v -0.7499995 5 0.1250008
v -0.7499999 5 -0.1249993
v -0.9999996 5 0.1250011
v -1 5 -0.1249992
v 0.7500002 -5 0.1249995
v 0.7499999 5 0.125
v 0.7500001 -5 -0.1250005
v 0.7499999 5 -0.1249998
v -0.7499995 5 0.1250008
v -0.7499998 -5 0.125
v -0.7499999 5 -0.1249993
v -0.7499999 -5 -0.125
v 0.7500002 -5 -4.917383E-07
v 0.7499999 5 1.043081E-07
v -0.7499998 -5 4.470348E-08
v -0.7499995 5 8.642673E-07
vn 3.576279E-07 -5.066394E-08 1
vn 4.172325E-07 -4.917382E-08 1
vn 4.172325E-07 -4.917382E-08 1
vn 4.768372E-07 -4.76837E-08 1
vn 1 3.576281E-08 -4.768372E-07
vn 1 2.980234E-08 -2.384186E-07
vn 1 2.980234E-08 -2.384186E-07
vn 1 2.384186E-08 0
vn -3.576279E-07 6.332992E-08 -1
vn -4.470348E-07 6.55651E-08 -1
vn -4.470348E-07 6.55651E-08 -1
vn -5.364418E-07 6.780027E-08 -1
vn -1 -1.192096E-08 4.768372E-07
vn -1 -8.304468E-14 9.536737E-07
vn -1 -8.304468E-14 9.536737E-07
vn -1 1.19208E-08 1.43051E-06
vn 0 1 0
vn 0 1 0
vn 0 1 0
vn 0 1 0
vn 0 -1 0
vn 0 -1 0
vn 0 -1 0
vn 0 -1 0
vn 0 -1 0
vn 0 -1 0
vn 0 -1 0
vn 0 -1 0
vn -5.364417E-07 6.631016E-08 -1
vn -4.470348E-07 6.854533E-08 -1
vn -4.470348E-07 6.854533E-08 -1
vn -3.576279E-07 7.078051E-08 -1
vn 3.576279E-07 -7.450582E-08 1
vn 7.152553E-07 -8.344652E-08 1
vn 7.152553E-07 -8.344652E-08 1
vn 1.072883E-06 -9.238721E-08 1
vn 0 1 0
vn 0 1 0
vn 0 1 0
vn 0 1 0
vn -1 -3.576281E-08 4.768372E-07
vn -1 -2.980233E-08 2.384186E-07
vn -1 -2.980233E-08 2.384186E-07
vn -1 -2.384186E-08 0
vn 1 -2.980218E-08 -1.907348E-06
vn 1 -1.192084E-08 -1.192093E-06
vn 1 -1.192084E-08 -1.192093E-06
vn 1 5.960496E-09 -4.768372E-07
vn 3.576279E-07 -5.960463E-08 1
vn 4.321338E-07 -7.078052E-08 1
vn 4.321338E-07 -7.078052E-08 1
vn 5.066398E-07 -8.195641E-08 1
vt -0.7500002 -5
vt -1 -5
vt -0.7499998 5
vt -0.9999998 5
vt -2 -5
vt -2.25 -5
vt -2 5
vt -2.25 5
vt 1 -5
vt 0.7500002 -5
vt 0.9999999 5
vt 0.7499999 5
vt 2.25 -5
vt 2 -5
vt 2.25 5
vt 1.999999 5
vt 0.7499999 -2
vt 0.9999999 -2
vt 0.7499999 -2.25
vt 0.9999999 -2.25
vt -0.7500001 -2.25
vt -1 -2.25
vt -0.7500002 -2
vt -1 -2
vt 0.7499999 -2.25
vt 0.7499998 -2
vt 0.9999999 -2.25
vt 0.9999998 -2
vt -0.7499999 5
vt -0.7499998 -5
vt -0.9999999 5
vt -0.9999998 -5
vt 0.7499998 -5
vt 0.7499995 5
vt 0.9999998 -5
vt 0.9999997 5
vt -0.7499995 -1.999999
vt -0.7499999 -2.249999
vt -0.9999996 -1.999999
vt -1 -2.249999
vt 2 -5
vt 2 5
vt 2.25 -5
vt 2.25 5
vt -2.000001 5
vt -2.000001 -5
vt -2.250001 5
vt -2.250001 -5
vt -0.7500002 -5
vt -0.7499999 5
vt 0.7499998 -5
vt 0.7499995 5
g submesh0
f 1/1/1 2/2/2 3/3/3
f 2/2/2 4/4/4 3/3/3
f 5/5/5 6/6/6 7/7/7
f 6/6/6 8/8/8 7/7/7
f 9/9/9 10/10/10 11/11/11
f 10/10/10 12/12/12 11/11/11
f 13/13/13 14/14/14 15/15/15
f 14/14/14 16/16/16 15/15/15
f 17/17/17 18/18/18 19/19/19
f 18/18/18 20/20/20 19/19/19
f 21/21/21 22/22/22 23/23/23
f 22/22/22 24/24/24 23/23/23
f 25/25/25 26/26/26 27/27/27
f 26/26/26 28/28/28 27/27/27
f 29/29/29 30/30/30 31/31/31
f 30/30/30 32/32/32 31/31/31
f 33/33/33 34/34/34 35/35/35
f 34/34/34 36/36/36 35/35/35
f 37/37/37 38/38/38 39/39/39
f 38/38/38 40/40/40 39/39/39
f 41/41/41 42/42/42 43/43/43
f 42/42/42 44/44/44 43/43/43
f 45/45/45 46/46/46 47/47/47
f 46/46/46 48/48/48 47/47/47
g submesh1
f 49/49/49 50/50/50 51/51/51
f 50/50/50 52/52/52 51/51/51
