v 0 0 0
v 8 0 0
v 0 0 6
v 8 0 6
v 0 0 6
v 8 0 6
v 8 12 6
v 0 12 6
v 8 0 6
v 8 0 0
v 8 12 0
v 8 12 6
v 8 12 0
v 0 0 0
v 0 12 0
v 8 0 0
v 0 12 0
v 0 0 6
v 0 12 6
v 0 0 0
v 0 14 6
v 8 14 6
v 0 14 0
v 8 14 0
v 0 12 6
v 8 12 6
v 8 14 6
v 0 14 6
v 8 12 6
v 8 12 0
v 8 14 0
v 8 14 6
v 8 14 0
v 0 12 0
v 0 14 0
v 8 12 0
v 0 14 0
v 0 12 6
v 0 14 6
v 0 12 0
vn 0 -1 0
vn 0 -1 0
vn 0 -1 0
vn 0 -1 0
vn 0 0 1
vn 0 0 1
vn 0 0 1
vn 0 0 1
vn 1 0 0
vn 1 0 0
vn 1 0 0
vn 1 0 0
vn 0 0 -1
vn 0 0 -1
vn 0 0 -1
vn 0 0 -1
vn -1 0 0
vn -1 0 0
vn -1 0 0
vn -1 0 0
vn 0 1 0
vn 0 1 0
vn 0 1 0
vn 0 1 0
vn 0 0 1
vn 0 0 1
vn 0 0 1
vn 0 0 1
vn 1 0 0
vn 1 0 0
vn 1 0 0
vn 1 0 0
vn 0 0 -1
vn 0 0 -1
vn 0 0 -1
vn 0 0 -1
vn -1 0 0
vn -1 0 0
vn -1 0 0
vn -1 0 0
vt 0 0
vt -8 0
vt 0 6
vt -8 6
vt 0 0
vt -8 0
vt -8 12
vt 0 12
vt 6 0
vt 0 0
vt 0 12
vt 6 12
vt 8 12
vt 0 0
vt 0 12
vt 8 0
vt 0 12
vt -6 0
vt -6 12
vt 0 0
vt 0 6
vt 8 6
vt 0 0
vt 8 0
vt 0 12
vt -8 12
vt -8 14
vt 0 14
vt 6 12
vt 0 12
vt 0 14
vt 6 14
vt 8 14
vt 0 12
vt 0 14
vt 8 12
vt 0 14
vt -6 12
vt -6 14
vt 0 12
g submesh0
f 1/1/1 2/2/2 3/3/3
f 2/2/2 4/4/4 3/3/3
f 5/5/5 6/6/6 7/7/7
f 8/8/8 5/5/5 7/7/7
f 9/9/9 10/10/10 11/11/11
f 12/12/12 9/9/9 11/11/11
f 13/13/13 14/14/14 15/15/15
f 13/13/13 16/16/16 14/14/14
f 17/17/17 18/18/18 19/19/19
f 17/17/17 20/20/20 18/18/18
g submesh1
f 21/21/21 22/22/22 23/23/23
f 22/22/22 24/24/24 23/23/23
f 25/25/25 26/26/26 27/27/27
f 28/28/28 25/25/25 27/27/27
f 29/29/29 30/30/30 31/31/31
f 32/32/32 29/29/29 31/31/31
f 33/33/33 34/34/34 35/35/35
f 33/33/33 36/36/36 34/34/34
f 37/37/37 38/38/38 39/39/39
f 37/37/37 40/40/40 38/38/38
