v -2 4 -2
v 8 4 -2
v -2 -2 -7
v 8 -2 -7
v 8 -4 -2
v -2 -4 -2
v 8 -4 -7
v -2 -4 -7
v -14 -4 -2
v -2 -4 -6
v -14 -4 -6
v -2 -4 8
v 8 -4 8
v -2 -4 18
v 8 -4 18
v -14 -4 8
v -14 -4 18
v -14 4 18
v -14 4 8
v -18 -2 18
v -18 -2 8
v -18 -4 8
v -18 -4 18
v -14 -4 35
v -14 -4 26.5
v -3 -4 31
v -2.5 -4 24.5
v 7 -4 25
v 7.5 -4 21.5
v -19 -4 26.5
v -19 -4 35
v -28 -4 26.5
v -28 -4 35
v -14 -4 22
v -2.25 -4 21
v 7.75 -4 20
v -19 -4 22
v -19 -4 18
v -14 4 22
v -14 4 18
v -14 6 22
v -14 6 18
v -22 -4 22
v -22 -4 26.5
v -22 -4 18
v -3 4 31
v 7 4 25
v 7 6 25
v -3 6 31
v 8 6 -2
v -2 4 -2
v -2 6 -2
v 8 4 -2
v -14 4 -2
v -14 6 -2
v -14 4 35
v -3 4 31
v -3 6 31
v -14 6 35
v 8 4 18
v 8 4 8
v 8 6 8
v 8 6 18
v 8 4 -2
v 8 6 -2
v -14 6 8
v -14 4 18
v -14 6 18
v -14 4 8
v -14 6 -2
v -14 4 -2
v 7 4 25
v 7.5 4 21.5
v 7.5 6 21.5
v 7 6 25
v -14 6 26.5
v -14 4 35
v -14 6 35
v -14 4 26.5
v 7.5 4 21.5
v 7.75 4 20
v 7.75 6 20
v 7.5 6 21.5
v 7.75 4 20
v 8 4 18
v 8 6 18
v 7.75 6 20
v -14 6 22
v -14 4 22
v -3 -4 31
v 7 -4 25
v 7 0 25
v -3 0 31
v 8 -3 -7
v -2 -4 -7
v -2 -3 -7
v 8 -4 -7
v 8 -2 -7
v -2 -2 -7
v -2 2 -6
v -14 -4 -6
v -14 2 -6
v -2 -4 -6
v -14 -4 35
v -3 -4 31
v -3 0 31
v -14 0 35
v -2 -3 -7
v -2 -4 -2
v -2 0 -2
v -2 -4 -7
v -2 -2 -7
v -2 4 -2
v 8 -3 -7
v 8 -2 -7
v 8 0 -2
v 8 -4 -2
v 8 -4 -7
v -14 2 -6
v -14 -4 -2
v -14 2 -2
v -14 -4 -6
v -2 -4 -2
v -2 -4 -6
v -2 2 -6
v -2 0 -2
v 8 -4 18
v 8 -4 8
v 8 0 8
v 8 0 18
v -18 -3 8
v -18 -4 18
v -18 -3 18
v -18 -4 8
v -18 -2 8
v -18 -2 18
v -14 -4 8
v -14 0 8
v -18 -3 18
v -18 -4 18
v -14 -4 18
v -14 1 18
v -18 -2 18
v -14 4 18
v -14 4 8
v -14 0 8
v -18 -2 8
v -18 -3 8
v -14 -4 8
v -18 -4 8
v -14 0 26.5
v -14 -4 35
v -14 0 35
v -14 -4 26.5
v 7 -4 25
v 7.5 -4 21.5
v 7.5 0 21.5
v 7 0 25
v -19 -4 35
v -14 -4 35
v -14 0 35
v -19 0 35
v -14 4 35
v -19 4 35
v -14 1 18
v -19 -4 18
v -19 1 18
v -14 -4 18
v -14 -4 35
v -14 -4 26.5
v -14 0 26.5
v -14 0 35
v -14 4 26.5
v -14 4 35
v -28 -2 26.5
v -28 -3 35
v -28 -2 35
v -28 -3 26.5
v -28 -4 35
v -28 -4 26.5
v -19 4 26.5
v -19 0 26.5
v -28 -2 26.5
v -28 -3 26.5
v -19 -4 26.5
v -28 -4 26.5
v -28 -3 35
v -28 -4 35
v -28 -2 35
v -22 1 22
v -22 -4 26.5
v -22 1 26.5
v -22 -4 22
v -22 1 18
v -22 -4 18
v 7.5 -4 21.5
v 7.75 -4 20
v 7.75 0 20
v 7.5 0 21.5
v 7.75 -4 20
v 8 -4 18
v 8 0 18
v 7.75 0 20
v -22 -4 26.5
v -19 -4 26.5
v -19 0 26.5
v -22 1 26.5
v -22 -4 18
v -22 1 18
v -14 4 -2
v -2 4 -2
v -14 4 -6
v -2 4 -6
v 8 8 8
v -2 8 8
v -2 8 18
v 8 8 18
v 8 8 -2
v -2 8 -2
v -14 8 8
v -14 8 18
v -14 8 -2
v -2.5 8 24.5
v -14 8 26.5
v -3 8 31
v -14 8 35
v 7.5 8 21.5
v 7 8 25
v -14 4 26.5
v -19 4 26.5
v -14 4 35
v -19 4 35
v -19 4 35
v -19 4 26.5
v -28 -2 35
v -28 -2 26.5
v -2.25 8 21
v -14 8 22
v 7.75 8 20
v -14 4 22
v -19 4 22
v -14 6 18
v -19 6 18
v -19 6 22
v -14 6 22
v -22 4 26.5
v -22 4 22
v -19 4 18
v -22 4 18
v -3 6 31
v 7 6 25
v 7 8 25
v -3 8 31
v 8 8 -2
v -2 6 -2
v -2 8 -2
v 8 6 -2
v -14 6 -2
v -14 8 -2
v -14 6 35
v -3 6 31
v -3 8 31
v -14 8 35
v 8 6 18
v 8 6 8
v 8 8 8
v 8 8 18
v 8 6 -2
v 8 8 -2
v -14 8 8
v -14 6 18
v -14 8 18
v -14 6 8
v -14 8 -2
v -14 6 -2
v 7 6 25
v 7.5 6 21.5
v 7.5 8 21.5
v 7 8 25
v -14 8 26.5
v -14 6 35
v -14 8 35
v -14 6 26.5
v 7.5 6 21.5
v 7.75 6 20
v 7.75 8 20
v 7.5 8 21.5
v 7.75 6 20
v 8 6 18
v 8 8 18
v 7.75 8 20
v -14 8 22
v -14 6 22
v -2 4 -6
v -14 2 -6
v -14 4 -6
v -2 2 -6
v -14 4 -6
v -14 2 -2
v -14 4 -2
v -14 2 -6
v -2 0 -2
v -2 2 -6
v -2 4 -6
v -2 4 -2
v -14 4 18
v -19 4 18
v -14 6 18
v -19 6 18
v -19 4 18
v -19 4 22
v -19 6 18
v -19 6 22
v -19 4 22
v -14 4 22
v -19 6 22
v -14 6 22
v -19 1 18
v -14 1 18
v -22 4 22
v -22 1 26.5
v -22 4 26.5
v -22 1 22
v -22 4 18
v -22 1 18
v -22 1 26.5
v -19 0 26.5
v -19 4 26.5
v -22 4 26.5
v -22 1 18
v -22 4 18
vn 0 0.6401844 -0.7682213
vn 0 0.6401844 -0.7682213
vn 0 0.6401844 -0.7682213
vn 0 0.6401844 -0.7682213
vn 0 -1 0
vn 0 -1 0
vn 0 -1 0
vn 0 -1 0
vn 0 -1 0
vn 0 -1 0
vn 0 -1 0
vn 0 -1 0
vn 0 -1 0
vn 0 -1 0
vn 0 -1 0
vn 0 -1 0
vn 0 -1 0
vn -0.8320503 0.5547002 0
vn -0.8320503 0.5547002 0
vn -0.8320503 0.5547002 0
vn -0.8320503 0.5547002 0
vn 0 -1 0
vn 0 -1 0
vn 0 -1 0
vn 0 -1 0
vn 0 -1 0
vn 0 -1 0
vn 0 -1 0
vn 0 -1 0
vn 0 -1 0
vn 0 -1 0
vn 0 -1 0
vn 0 -1 0
vn 0 -1 0
vn 0 -1 0
vn 0 -1 0
vn 0 -1 0
vn 0 -1 0
vn 1 0 0
vn 1 0 0
vn 1 0 0
vn 1 0 0
vn 0 -1 0
vn 0 -1 0
vn 0 -1 0
vn 0.5144957 0 0.8574929
vn 0.5144957 0 0.8574929
vn 0.5144957 0 0.8574929
vn 0.5144957 0 0.8574929
vn 0 0 -1
vn 0 0 -1
vn 0 0 -1
vn 0 0 -1
vn 0 0 -1
vn 0 0 -1
vn 0.3417431 0 0.9397935
vn 0.3417431 0 0.9397935
vn 0.3417431 0 0.9397935
vn 0.3417431 0 0.9397935
vn 1 0 0
vn 1 0 0
vn 1 0 0
vn 1 0 0
vn 1 0 0
vn 1 0 0
vn -1 0 0
vn -1 0 0
vn -1 0 0
vn -1 0 0
vn -1 0 0
vn -1 0 0
vn 0.9899495 0 0.1414214
vn 0.9899495 0 0.1414214
vn 0.9899495 0 0.1414214
vn 0.9899495 0 0.1414214
vn -1 0 0
vn -1 0 0
vn -1 0 0
vn -1 0 0
vn 0.9863939 0 0.164399
vn 0.9863939 0 0.164399
vn 0.9863939 0 0.164399
vn 0.9863939 0 0.164399
vn 0.9922779 0 0.1240347
vn 0.9922779 0 0.1240347
vn 0.9922779 0 0.1240347
vn 0.9922779 0 0.1240347
vn -1 0 0
vn -1 0 0
vn 0.5144957 0 0.8574929
vn 0.5144957 0 0.8574929
vn 0.5144957 0 0.8574929
vn 0.5144957 0 0.8574929
vn 0 0 -1
vn 0 0 -1
vn 0 0 -1
vn 0 0 -1
vn 0 0 -1
vn 0 0 -1
vn 0 0 -1
vn 0 0 -1
vn 0 0 -1
vn 0 0 -1
vn 0.3417431 0 0.9397935
vn 0.3417431 0 0.9397935
vn 0.3417431 0 0.9397935
vn 0.3417431 0 0.9397935
vn -1 0 0
vn -1 0 0
vn -1 0 0
vn -1 0 0
vn -1 0 0
vn -1 0 0
vn 1 0 0
vn 1 0 0
vn 1 0 0
vn 1 0 0
vn 1 0 0
vn -1 0 0
vn -1 0 0
vn -1 0 0
vn -1 0 0
vn 1 0 0
vn 1 0 0
vn 1 0 0
vn 1 0 0
vn 1 0 0
vn 1 0 0
vn 1 0 0
vn 1 0 0
vn -1 0 0
vn -1 0 0
vn -1 0 0
vn -1 0 0
vn -1 0 0
vn -1 0 0
vn -1 0 0
vn -1 0 0
vn 0 0 1
vn 0 0 1
vn 0 0 1
vn 0 0 1
vn 0 0 1
vn 0 0 1
vn 0 0 -1
vn 0 0 -1
vn 0 0 -1
vn 0 0 -1
vn 0 0 -1
vn 0 0 -1
vn -1 0 0
vn -1 0 0
vn -1 0 0
vn -1 0 0
vn 0.9899495 0 0.1414214
vn 0.9899495 0 0.1414214
vn 0.9899495 0 0.1414214
vn 0.9899495 0 0.1414214
vn 0 0 1
vn 0 0 1
vn 0 0 1
vn 0 0 1
vn 0 0 1
vn 0 0 1
vn 0 0 -1
vn 0 0 -1
vn 0 0 -1
vn 0 0 -1
vn 1 0 0
vn 1 0 0
vn 1 0 0
vn 1 0 0
vn 1 0 0
vn 1 0 0
vn -1 0 0
vn -1 0 0
vn -1 0 0
vn -1 0 0
vn -1 0 0
vn -1 0 0
vn 0 0 -1
vn 0 0 -1
vn 0 0 -1
vn 0 0 -1
vn 0 0 -1
vn 0 0 -1
vn 0 0 1
vn 0 0 1
vn 0 0 1
vn -1 0 0
vn -1 0 0
vn -1 0 0
vn -1 0 0
vn -1 0 0
vn -1 0 0
vn 0.9863939 0 0.164399
vn 0.9863939 0 0.164399
vn 0.9863939 0 0.164399
vn 0.9863939 0 0.164399
vn 0.9922779 0 0.1240347
vn 0.9922779 0 0.1240347
vn 0.9922779 0 0.1240347
vn 0.9922779 0 0.1240347
vn 0 0 1
vn 0 0 1
vn 0 0 1
vn 0 0 1
vn 0 0 -1
vn 0 0 -1
vn 0 1 0
vn 0 1 0
vn 0 1 0
vn 0 1 0
vn 0 1 0
vn 0 1 0
vn 0 1 0
vn 0 1 0
vn 0 1 0
vn 0 1 0
vn 0 1 0
vn 0 1 0
vn 0 1 0
vn 0 1 0
vn 0 1 0
vn 0 1 0
vn 0 1 0
vn 0 1 0
vn 0 1 0
vn 0 1 0
vn 0 1 0
vn 0 1 0
vn 0 1 0
vn -0.5547002 0.8320503 0
vn -0.5547002 0.8320503 0
vn -0.5547002 0.8320503 0
vn -0.5547002 0.8320503 0
vn 0 1 0
vn 0 1 0
vn 0 1 0
vn 0 1 0
vn 0 1 0
vn 0 1 0
vn 0 1 0
vn 0 1 0
vn 0 1 0
vn 0 1 0
vn 0 1 0
vn 0 1 0
vn 0 1 0
vn 0.5144957 0 0.8574929
vn 0.5144957 0 0.8574929
vn 0.5144957 0 0.8574929
vn 0.5144957 0 0.8574929
vn 0 0 -1
vn 0 0 -1
vn 0 0 -1
vn 0 0 -1
vn 0 0 -1
vn 0 0 -1
vn 0.3417431 0 0.9397935
vn 0.3417431 0 0.9397935
vn 0.3417431 0 0.9397935
vn 0.3417431 0 0.9397935
vn 1 0 0
vn 1 0 0
vn 1 0 0
vn 1 0 0
vn 1 0 0
vn 1 0 0
vn -1 0 0
vn -1 0 0
vn -1 0 0
vn -1 0 0
vn -1 0 0
vn -1 0 0
vn 0.9899495 0 0.1414214
vn 0.9899495 0 0.1414214
vn 0.9899495 0 0.1414214
vn 0.9899495 0 0.1414214
vn -1 0 0
vn -1 0 0
vn -1 0 0
vn -1 0 0
vn 0.9863939 0 0.164399
vn 0.9863939 0 0.164399
vn 0.9863939 0 0.164399
vn 0.9863939 0 0.164399
vn 0.9922779 0 0.1240347
vn 0.9922779 0 0.1240347
vn 0.9922779 0 0.1240347
vn 0.9922779 0 0.1240347
vn -1 0 0
vn -1 0 0
vn 0 0 -1
vn 0 0 -1
vn 0 0 -1
vn 0 0 -1
vn -1 0 0
vn -1 0 0
vn -1 0 0
vn -1 0 0
vn 1 0 0
vn 1 0 0
vn 1 0 0
vn 1 0 0
vn 0 0 -1
vn 0 0 -1
vn 0 0 -1
vn 0 0 -1
vn -1 0 0
vn -1 0 0
vn -1 0 0
vn -1 0 0
vn 0 0 1
vn 0 0 1
vn 0 0 1
vn 0 0 1
vn 0 0 -1
vn 0 0 -1
vn -1 0 0
vn -1 0 0
vn -1 0 0
vn -1 0 0
vn -1 0 0
vn -1 0 0
vn 0 0 1
vn 0 0 1
vn 0 0 1
vn 0 0 1
vn 0 0 -1
vn 0 0 -1
vt -2 1.792516
vt 8 1.792516
vt -2 -6.017733
vt 8 -6.017733
vt -8 -2
vt 2 -2
vt -8 -7
vt 2 -7
vt 14 -2
vt 2 -6
vt 14 -6
vt 2 8
vt -8 8
vt 2 18
vt -8 18
vt 14 8
vt 14 18
vt -18 -4.437601
vt -8 -4.437601
vt -18 -11.6487
vt -8 -11.6487
vt 18 8
vt 18 18
vt 14 35
vt 14 26.5
vt 3 31
vt 2.5 24.5
vt -7 25
vt -7.5 21.5
vt 19 26.5
vt 19 35
vt 28 26.5
vt 28 35
vt 14 22
vt 2.25 21
vt -7.75 20
vt 19 22
vt 19 18
vt 22 4
vt 18 4
vt 22 6
vt 18 6
vt 22 22
vt 22 26.5
vt 22 18
vt 18.52185 4
vt 6.859943 4
vt 6.859943 6
vt 18.52185 6
vt 8 6
vt -2 4
vt -2 6
vt 8 4
vt -14 4
vt -14 6
vt 25.11812 4
vt 13.41342 4
vt 13.41342 6
vt 25.11812 6
vt 18 4
vt 8 4
vt 8 6
vt 18 6
vt -2 4
vt -2 6
vt -8 6
vt -18 4
vt -18 6
vt -8 4
vt 2 6
vt 2 4
vt 23.73883 4
vt 20.2033 4
vt 20.2033 6
vt 23.73883 6
vt -26.5 6
vt -35 4
vt -35 6
vt -26.5 4
vt 20.2033 4
vt 18.68296 4
vt 18.68296 6
vt 20.2033 6
vt 18.68296 4
vt 16.66777 4
vt 16.66777 6
vt 18.68296 6
vt -22 6
vt -22 4
vt 18.52185 -4
vt 6.859943 -4
vt 6.859943 0
vt 18.52185 0
vt 8 -3
vt -2 -4
vt -2 -3
vt 8 -4
vt 8 -2
vt -2 -2
vt -2 2
vt -14 -4
vt -14 2
vt -2 -4
vt 25.11812 -4
vt 13.41342 -4
vt 13.41342 0
vt 25.11812 0
vt 7 -3
vt 2 -4
vt 2 0
vt 7 -4
vt 7 -2
vt 2 4
vt -7 -3
vt -7 -2
vt -2 0
vt -2 -4
vt -7 -4
vt 6 2
vt 2 -4
vt 2 2
vt 6 -4
vt -2 -4
vt -6 -4
vt -6 2
vt -2 0
vt 18 -4
vt 8 -4
vt 8 0
vt 18 0
vt -8 -3
vt -18 -4
vt -18 -3
vt -8 -4
vt -8 -2
vt -18 -2
vt -8 -4
vt -8 0
vt 18 -3
vt 18 -4
vt 14 -4
vt 14 1
vt 18 -2
vt 14 4
vt -14 4
vt -14 0
vt -18 -2
vt -18 -3
vt -14 -4
vt -18 -4
vt -26.5 0
vt -35 -4
vt -35 0
vt -26.5 -4
vt 23.73883 -4
vt 20.2033 -4
vt 20.2033 0
vt 23.73883 0
vt 19 -4
vt 14 -4
vt 14 0
vt 19 0
vt 14 4
vt 19 4
vt -14 1
vt -19 -4
vt -19 1
vt -14 -4
vt 35 -4
vt 26.5 -4
vt 26.5 0
vt 35 0
vt 26.5 4
vt 35 4
vt -26.5 -2
vt -35 -3
vt -35 -2
vt -26.5 -3
vt -35 -4
vt -26.5 -4
vt -19 4
vt -19 0
vt -28 -2
vt -28 -3
vt -19 -4
vt -28 -4
vt 28 -3
vt 28 -4
vt 28 -2
vt -22 1
vt -26.5 -4
vt -26.5 1
vt -22 -4
vt -18 1
vt -18 -4
vt 20.2033 -4
vt 18.68296 -4
vt 18.68296 0
vt 20.2033 0
vt 18.68296 -4
vt 16.66777 -4
vt 16.66777 0
vt 18.68296 0
vt 22 -4
vt 19 -4
vt 19 0
vt 22 1
vt -22 -4
vt -22 1
vt -14 -2
vt -2 -2
vt -14 -6
vt -2 -6
vt 8 8
vt -2 8
vt -2 18
vt 8 18
vt 8 -2
vt -2 -2
vt -14 8
vt -14 18
vt -14 -2
vt -2.5 24.5
vt -14 26.5
vt -3 31
vt -14 35
vt 7.5 21.5
vt 7 25
vt -14 26.5
vt -19 26.5
vt -14 35
vt -19 35
vt -13.59015 35
vt -13.59015 26.5
vt -24.40681 35
vt -24.40681 26.5
vt -2.25 21
vt -14 22
vt 7.75 20
vt -14 22
vt -19 22
vt -14 18
vt -19 18
vt -19 22
vt -14 22
vt -22 26.5
vt -22 22
vt -19 18
vt -22 18
vt 18.52185 6
vt 6.859943 6
vt 6.859943 8
vt 18.52185 8
vt 8 8
vt -2 6
vt -2 8
vt 8 6
vt -14 6
vt -14 8
vt 25.11812 6
vt 13.41342 6
vt 13.41342 8
vt 25.11812 8
vt 18 6
vt 8 6
vt 8 8
vt 18 8
vt -2 6
vt -2 8
vt -8 8
vt -18 6
vt -18 8
vt -8 6
vt 2 8
vt 2 6
vt 23.73883 6
vt 20.2033 6
vt 20.2033 8
vt 23.73883 8
vt -26.5 8
vt -35 6
vt -35 8
vt -26.5 6
vt 20.2033 6
vt 18.68296 6
vt 18.68296 8
vt 20.2033 8
vt 18.68296 6
vt 16.66777 6
vt 16.66777 8
vt 18.68296 8
vt -22 8
vt -22 6
vt -2 4
vt -14 2
vt -14 4
vt -2 2
vt 6 4
vt 2 2
vt 2 4
vt 6 2
vt -2 0
vt -6 2
vt -6 4
vt -2 4
vt -14 4
vt -19 4
vt -14 6
vt -19 6
vt -18 4
vt -22 4
vt -18 6
vt -22 6
vt 19 4
vt 14 4
vt 19 6
vt 14 6
vt -19 1
vt -14 1
vt -22 4
vt -26.5 1
vt -26.5 4
vt -22 1
vt -18 4
vt -18 1
vt 22 1
vt 19 0
vt 19 4
vt 22 4
vt -22 1
vt -22 4
g submesh0
f 1/1/1 2/2/2 3/3/3
f 2/2/2 4/4/4 3/3/3
f 5/5/5 6/6/6 7/7/7
f 6/6/6 8/8/8 7/7/7
f 6/6/6 9/9/9 10/10/10
f 9/9/9 11/11/11 10/10/10
f 12/12/12 5/5/5 13/13/13
f 12/12/12 6/6/6 5/5/5
f 14/14/14 13/13/13 15/15/15
f 14/14/14 12/12/12 13/13/13
f 16/16/16 6/6/6 12/12/12
f 16/16/16 9/9/9 6/6/6
f 17/17/17 12/12/12 14/14/14
f 17/17/17 16/16/16 12/12/12
f 18/18/18 19/19/19 20/20/20
f 19/19/19 21/21/21 20/20/20
f 16/16/16 17/17/17 22/22/22
f 17/17/17 23/23/23 22/22/22
f 24/24/24 25/25/25 26/26/26
f 26/26/26 25/25/25 27/27/27
f 26/26/26 27/27/27 28/28/28
f 28/28/28 27/27/27 29/29/29
f 30/30/30 25/25/25 31/31/31
f 25/25/25 24/24/24 31/31/31
f 30/30/30 31/31/31 32/32/32
f 31/31/31 33/33/33 32/32/32
f 25/25/25 34/34/34 27/27/27
f 27/27/27 34/34/34 35/35/35
f 34/34/34 17/17/17 35/35/35
f 35/35/35 17/17/17 14/14/14
f 27/27/27 35/35/35 29/29/29
f 29/29/29 35/35/35 36/36/36
f 35/35/35 14/14/14 36/36/36
f 36/36/36 14/14/14 15/15/15
f 37/37/37 17/17/17 34/34/34
f 37/37/37 38/38/38 17/17/17
f 30/30/30 34/34/34 25/25/25
f 30/30/30 37/37/37 34/34/34
f 39/39/39 40/40/40 41/41/41
f 40/40/40 42/42/42 41/41/41
f 37/37/37 30/30/30 43/43/43
f 30/30/30 44/44/44 43/43/43
f 38/38/38 37/37/37 45/45/45
f 37/37/37 43/43/43 45/45/45
f 46/46/46 47/47/47 48/48/48
f 49/49/49 46/46/46 48/48/48
f 50/50/50 51/51/51 52/52/52
f 50/50/50 53/53/53 51/51/51
f 52/52/52 54/54/54 55/55/55
f 52/52/52 51/51/51 54/54/54
f 56/56/56 57/57/57 58/58/58
f 59/59/59 56/56/56 58/58/58
f 60/60/60 61/61/61 62/62/62
f 63/63/63 60/60/60 62/62/62
f 61/61/61 64/64/64 65/65/65
f 62/62/62 61/61/61 65/65/65
f 66/66/66 67/67/67 68/68/68
f 66/66/66 69/69/69 67/67/67
f 70/70/70 69/69/69 66/66/66
f 70/70/70 71/71/71 69/69/69
f 72/72/72 73/73/73 74/74/74
f 75/75/75 72/72/72 74/74/74
f 76/76/76 77/77/77 78/78/78
f 76/76/76 79/79/79 77/77/77
f 80/80/80 81/81/81 82/82/82
f 83/83/83 80/80/80 82/82/82
f 84/84/84 85/85/85 86/86/86
f 87/87/87 84/84/84 86/86/86
f 88/88/88 79/79/79 76/76/76
f 88/88/88 89/89/89 79/79/79
f 68/68/68 89/89/89 88/88/88
f 68/68/68 67/67/67 89/89/89
f 90/90/90 91/91/91 92/92/92
f 93/93/93 90/90/90 92/92/92
f 93/93/93 92/92/92 47/47/47
f 46/46/46 93/93/93 47/47/47
f 94/94/94 95/95/95 96/96/96
f 94/94/94 97/97/97 95/95/95
f 98/98/98 96/96/96 99/99/99
f 98/98/98 94/94/94 96/96/96
f 100/100/100 101/101/101 102/102/102
f 100/100/100 103/103/103 101/101/101
f 104/104/104 105/105/105 106/106/106
f 107/107/107 104/104/104 106/106/106
f 107/107/107 106/106/106 57/57/57
f 56/56/56 107/107/107 57/57/57
f 108/108/108 109/109/109 110/110/110
f 108/108/108 111/111/111 109/109/109
f 112/112/112 110/110/110 113/113/113
f 110/110/110 112/112/112 108/108/108
f 114/114/114 115/115/115 116/116/116
f 64/64/64 116/116/116 115/115/115
f 117/117/117 118/118/118 114/114/114
f 116/116/116 117/117/117 114/114/114
f 119/119/119 120/120/120 121/121/121
f 119/119/119 122/122/122 120/120/120
f 123/123/123 124/124/124 125/125/125
f 126/126/126 123/123/123 125/125/125
f 127/127/127 128/128/128 129/129/129
f 130/130/130 127/127/127 129/129/129
f 130/130/130 129/129/129 61/61/61
f 60/60/60 130/130/130 61/61/61
f 128/128/128 117/117/117 116/116/116
f 129/129/129 128/128/128 116/116/116
f 129/129/129 116/116/116 64/64/64
f 61/61/61 129/129/129 64/64/64
f 131/131/131 132/132/132 133/133/133
f 131/131/131 134/134/134 132/132/132
f 135/135/135 133/133/133 136/136/136
f 135/135/135 131/131/131 133/133/133
f 121/121/121 137/137/137 138/138/138
f 121/121/121 120/120/120 137/137/137
f 71/71/71 138/138/138 69/69/69
f 71/71/71 121/121/121 138/138/138
f 139/139/139 140/140/140 141/141/141
f 139/139/139 141/141/141 142/142/142
f 139/139/139 142/142/142 143/143/143
f 143/143/143 142/142/142 144/144/144
f 145/145/145 146/146/146 147/147/147
f 147/147/147 146/146/146 148/148/148
f 146/146/146 149/149/149 148/148/148
f 149/149/149 150/150/150 148/148/148
f 151/151/151 152/152/152 153/153/153
f 151/151/151 154/154/154 152/152/152
f 79/79/79 153/153/153 77/77/77
f 79/79/79 151/151/151 153/153/153
f 155/155/155 156/156/156 157/157/157
f 158/158/158 155/155/155 157/157/157
f 158/158/158 157/157/157 73/73/73
f 72/72/72 158/158/158 73/73/73
f 159/159/159 160/160/160 161/161/161
f 162/162/162 159/159/159 161/161/161
f 162/162/162 161/161/161 163/163/163
f 164/164/164 162/162/162 163/163/163
f 165/165/165 166/166/166 167/167/167
f 165/165/165 168/168/168 166/166/166
f 169/169/169 170/170/170 171/171/171
f 172/172/172 169/169/169 171/171/171
f 172/172/172 171/171/171 173/173/173
f 174/174/174 172/172/172 173/173/173
f 175/175/175 176/176/176 177/177/177
f 175/175/175 178/178/178 176/176/176
f 178/178/178 179/179/179 176/176/176
f 178/178/178 180/180/180 179/179/179
f 181/181/181 182/182/182 183/183/183
f 183/183/183 182/182/182 184/184/184
f 182/182/182 185/185/185 184/184/184
f 185/185/185 186/186/186 184/184/184
f 187/187/187 188/188/188 159/159/159
f 187/187/187 159/159/159 162/162/162
f 187/187/187 162/162/162 189/189/189
f 189/189/189 162/162/162 164/164/164
f 190/190/190 191/191/191 192/192/192
f 190/190/190 193/193/193 191/191/191
f 194/194/194 193/193/193 190/190/190
f 194/194/194 195/195/195 193/193/193
f 196/196/196 197/197/197 198/198/198
f 199/199/199 196/196/196 198/198/198
f 199/199/199 198/198/198 81/81/81
f 80/80/80 199/199/199 81/81/81
f 200/200/200 201/201/201 202/202/202
f 203/203/203 200/200/200 202/202/202
f 203/203/203 202/202/202 85/85/85
f 84/84/84 203/203/203 85/85/85
f 204/204/204 205/205/205 206/206/206
f 207/207/207 204/204/204 206/206/206
f 167/167/167 208/208/208 209/209/209
f 167/167/167 166/166/166 208/208/208
g submesh1
f 210/210/210 211/211/211 212/212/212
f 211/211/211 213/213/213 212/212/212
f 214/214/214 215/215/215 216/216/216
f 217/217/217 214/214/214 216/216/216
f 218/218/218 219/219/219 215/215/215
f 214/214/214 218/218/218 215/215/215
f 215/215/215 220/220/220 221/221/221
f 216/216/216 215/215/215 221/221/221
f 219/219/219 222/222/222 220/220/220
f 215/215/215 219/219/219 220/220/220
f 223/223/223 224/224/224 225/225/225
f 225/225/225 224/224/224 226/226/226
f 227/227/227 223/223/223 228/228/228
f 228/228/228 223/223/223 225/225/225
f 229/229/229 230/230/230 231/231/231
f 230/230/230 232/232/232 231/231/231
f 233/233/233 234/234/234 235/235/235
f 234/234/234 236/236/236 235/235/235
f 216/216/216 221/221/221 237/237/237
f 237/237/237 221/221/221 238/238/238
f 237/237/237 238/238/238 223/223/223
f 223/223/223 238/238/238 224/224/224
f 217/217/217 216/216/216 239/239/239
f 239/239/239 216/216/216 237/237/237
f 239/239/239 237/237/237 227/227/227
f 227/227/227 237/237/237 223/223/223
f 240/240/240 241/241/241 230/230/230
f 229/229/229 240/240/240 230/230/230
f 242/242/242 243/243/243 244/244/244
f 245/245/245 242/242/242 244/244/244
f 230/230/230 241/241/241 246/246/246
f 241/241/241 247/247/247 246/246/246
f 241/241/241 248/248/248 247/247/247
f 248/248/248 249/249/249 247/247/247
f 250/250/250 251/251/251 252/252/252
f 253/253/253 250/250/250 252/252/252
f 254/254/254 255/255/255 256/256/256
f 254/254/254 257/257/257 255/255/255
f 256/256/256 258/258/258 259/259/259
f 256/256/256 255/255/255 258/258/258
f 260/260/260 261/261/261 262/262/262
f 263/263/263 260/260/260 262/262/262
f 264/264/264 265/265/265 266/266/266
f 267/267/267 264/264/264 266/266/266
f 265/265/265 268/268/268 269/269/269
f 266/266/266 265/265/265 269/269/269
f 270/270/270 271/271/271 272/272/272
f 270/270/270 273/273/273 271/271/271
f 274/274/274 273/273/273 270/270/270
f 274/274/274 275/275/275 273/273/273
f 276/276/276 277/277/277 278/278/278
f 279/279/279 276/276/276 278/278/278
f 280/280/280 281/281/281 282/282/282
f 280/280/280 283/283/283 281/281/281
f 284/284/284 285/285/285 286/286/286
f 287/287/287 284/284/284 286/286/286
f 288/288/288 289/289/289 290/290/290
f 291/291/291 288/288/288 290/290/290
f 292/292/292 283/283/283 280/280/280
f 292/292/292 293/293/293 283/283/283
f 272/272/272 293/293/293 292/292/292
f 272/272/272 271/271/271 293/293/293
f 294/294/294 295/295/295 296/296/296
f 294/294/294 297/297/297 295/295/295
f 298/298/298 299/299/299 300/300/300
f 298/298/298 301/301/301 299/299/299
f 302/302/302 303/303/303 304/304/304
f 305/305/305 302/302/302 304/304/304
g submesh2
f 306/306/306 307/307/307 308/308/308
f 307/307/307 309/309/309 308/308/308
f 310/310/310 311/311/311 312/312/312
f 311/311/311 313/313/313 312/312/312
f 314/314/314 315/315/315 316/316/316
f 315/315/315 317/317/317 316/316/316
f 306/306/306 318/318/318 307/307/307
f 306/306/306 319/319/319 318/318/318
f 320/320/320 321/321/321 322/322/322
f 320/320/320 323/323/323 321/321/321
f 324/324/324 323/323/323 320/320/320
f 324/324/324 325/325/325 323/323/323
f 326/326/326 327/327/327 328/328/328
f 329/329/329 326/326/326 328/328/328
f 307/307/307 330/330/330 331/331/331
f 307/307/307 318/318/318 330/330/330
