v 2 -1 -6
v 8 -1 -4
v 2 -1 10
v 8 -1 8
v 8 -1 -18
v 2 -1 -18
v 2 -1 22
v 8 -1 22
v 8 -1 8
v 8 -1 -4
v 14 0 6
v 14 -1 -4
v 14 -1 -4
v 8 -1 -4
v 12 -1 -7
v 8 -0.9209442 -8
v 14 0 6
v 8 -1 12
v 14 -1 12
v 14 -1 12
v 14 0 6
v 22 -1 12
v 20 0 6
v 2 5 7
v 8 5 7
v 8 12 7
v 2 12 7
v 8 5 7
v 8 12 -3
v 8 12 7
v 8 5 -3
v 8 12 -3
v 2 5 -3
v 2 12 -3
v 8 5 -3
v 2 12 -3
v 2 5 -3
v 2 5 7
v 2 12 7
v 14 0 6
v 14 -1 -4
v 14 2 -4
v 14 2 6
v -2 2 -5
v -1 -1 -6
v -1 -1 10
v -2 2 9
v -2 2.046425 -13
v -1 -1 -18
v -1 -1 -6
v -2 2 -5
v 8 -1 -4
v 8 2.046425 -13
v 8 2 -4
v 8 -1 -18
v 8 -1 8
v 8 2 17
v 8 -1 22
v 8 2 8
v -1 -1 10
v -2 2 17
v -2 -1 22
v 8 -1 12
v 14 -1 12
v 14 2 12
v 8 2 12
v 12 2 -7
v 8 -0.9209442 -8
v 8 3 -8
v 12 -1 -7
v 8 3 -8
v 8 -0.9209442 -8
v 8 2 -4
v 8 -1 -4
v 14 -1 -4
v 12 -1 -7
v 12 2 -7
v 14 2 -4
v 8 2 8
v 8 -1 12
v 8 2 12
v 8 -1 8
v 20 -0.5 12
v 22 -1 12
v 20 0 6
v 20 0 6
v 14 0 6
v 14 2 6
v 22 -1 12
v 20 -0.5 12
v -1 -1 10
v -2 -1 22
v -1 -1 -18
v -1 -1 -6
v 14 3.5 -4
v 14 3.5 6
v -2 3.5 -4.5
v -2 2 -5
v -2 2 9
v -2 3.5 8.5
v -2 3.569637 -10.5
v -2 2.046425 -13
v 8 3.5 -3.5
v 8 5.09285 -8
v 8 3.569637 -10.5
v 8 3.546425 14.5
v 8 3.5 7.5
v -2 3.546425 14.5
v -2 2 17
v 14 3.5 12
v 8 3.5 12
v 12 3.5 -7
v 8 4.039528 -8
v 8 5.079056 -8
v 8 3.5 -3.5
v 8 5 -3
v 8 4.039528 -8
v 12 3.5 -7
v 14 3.5 -4
v 8 3.5 7.5
v 8 3.5 12
v 8 5 7
v 8 5 12
v 21 -0.25 12
v 20 -0.5 12
v 20 0 6
v 21 -0.25 6
v 21 -0.25 12
v 22 0 6
v 22 0 12
v 21 -0.25 6
v 21 -0.25 6
v 14 3.5 6
v 21 -0.25 12
v 2 14 6
v 8 14 6
v 2 14 -2
v 8 14 -2
v 2 5 -3
v 8 5 -3
v 2 5.09285 -8
v 8 5.09285 -8
v 8 5 7
v 2 5 7
v 8 5 12
v 2 5 12
v 8 5 -3
v 14 5 -4
v 14 5 6
v 8 5 -3
v 14 5 -4
v 8 5.079056 -8
v 12 5 -7
v 14 5 12
v 14 5 6
v 14 5 12
v 22 0 6
v 22 0 12
v 2 12 7
v 8 12 7
v 8 14 6
v 2 14 6
v 8 12 7
v 8 14 -2
v 8 14 6
v 8 12 -3
v 8 14 -2
v 2 12 -3
v 2 14 -2
v 8 12 -3
v 2 14 -2
v 2 12 -3
v 2 12 7
v 2 14 6
v 8 2 17
v 2 2 17
v 2 -1 22
v 8 -1 22
v 8 -1 -18
v 2 -1 -18
v 2 2.046425 -13
v 8 2.046425 -13
v 2 5 -3
v 2 5.09285 -8
v -2 5 -4
v -2 5.09285 -8
v 2 5 -3
v -2 5 8
v -2 5 -4
v 2 5 12
v 2 5 7
v -2 5.09285 12
v -2 5 8
v -2 2.046425 -13
v -1 -1 -18
v 2 -1 22
v 2 2 17
v -2 -1 22
v -2 2 17
v 8 5 12
v 2 5 12
v 2 3.546425 14.5
v 8 3.546425 14.5
v 8 3.546425 14.5
v 2 3.546425 14.5
v 2 2 17
v 8 2 17
v 14 3.5 6
v 14 3.5 -4
v 14 5 -4
v 14 5 6
v 2 3.569637 -10.5
v 8 3.569637 -10.5
v 2 5.09285 -8
v 8 5.09285 -8
v -2 5 -4
v -2 3.5 -4.5
v -2 3.5 8.5
v -2 5 8
v -2 5.09285 -8
v -2 3.569637 -10.5
v 8 3.546425 14.5
v 8 3.5 7.5
v 8 5 12
v 8 5 7
v -2 5.09285 12
v -2 3.546425 14.5
v 8 3.5 12
v 14 3.5 12
v 14 5 12
v 8 5 12
v 12 5 -7
v 8 4.039528 -8
v 8 5.079056 -8
v 12 3.5 -7
v 14 3.5 -4
v 12 3.5 -7
v 12 5 -7
v 14 5 -4
v 22 0 6
v 21 -0.25 6
v 14 5 6
v 14 3.5 6
v 21 -0.25 12
v 22 0 12
v 2 3.546425 14.5
v -2 3.546425 14.5
v -2 2 17
v 2 2 17
v 2 5 12
v -2 5.09285 12
v -2 3.546425 14.5
v 2 3.546425 14.5
v -2 3.569637 -10.5
v -2 5.09285 -8
vn 0 -1 0
vn 0 -1 0
vn 0 -1 0
vn 0 -1 0
vn 0 -1 0
vn 0 -1 0
vn 0 -1 0
vn 0 -1 0
vn 0.164399 -0.9863939 0
vn 0.0821995 -0.9907156 0.04975186
vn 0.0821995 -0.9907156 0.04975186
vn 0 -0.9950372 0.09950373
vn 0 -1 0
vn -0.007409219 -0.9998475 -0.009878959
vn -0.007409219 -0.9998475 -0.009878959
vn -0.01481844 -0.9996949 -0.01975792
vn 0.0821995 -0.9863939 -0.0821995
vn 0.0821995 -0.9863939 -0.0821995
vn 0 -0.9863939 -0.164399
vn 0 -0.9863939 -0.164399
vn 0 -0.9863939 -0.164399
vn 0 -0.9863939 -0.164399
vn 0 -0.9863939 -0.164399
vn 0 0 1
vn 0 0 1
vn 0 0 1
vn 0 0 1
vn 1 0 0
vn 1 0 0
vn 1 0 0
vn 1 0 0
vn 0 0 -1
vn 0 0 -1
vn 0 0 -1
vn 0 0 -1
vn -1 0 0
vn -1 0 0
vn -1 0 0
vn -1 0 0
vn 1 0 0
vn 1 0 0
vn 1 0 0
vn 1 0 0
vn -0.9486833 -0.3162278 0
vn -0.9486833 -0.3162278 0
vn -0.9486833 -0.3162278 0
vn -0.9486833 -0.3162278 0
vn -0.9494931 -0.3137792 -0.0009159557
vn -0.9501213 -0.3118808 0
vn -0.9494931 -0.3137792 -0.0009159557
vn -0.9488648 -0.3156776 -0.001831911
vn 1 0 0
vn 1 0 0
vn 1 0 0
vn 1 0 0
vn 1 0 0
vn 1 0 0
vn 1 0 0
vn 1 0 0
vn -0.9679093 -0.226665 -0.04113064
vn -0.9679093 -0.226665 -0.04113064
vn -0.9871353 -0.1371021 -0.08226127
vn 0 0 1
vn 0 0 1
vn 0 0 1
vn 0 0 1
vn 0.2425356 0 -0.9701425
vn 0.2425356 0 -0.9701425
vn 0.2425356 0 -0.9701425
vn 0.2425356 0 -0.9701425
vn -1 0 0
vn -1 0 0
vn -1 0 0
vn -1 0 0
vn 0.8320503 0 -0.5547002
vn 0.8320503 0 -0.5547002
vn 0.8320503 0 -0.5547002
vn 0.8320503 0 -0.5547002
vn -1 0 0
vn -1 0 0
vn -1 0 0
vn -1 0 0
vn 0.2417469 0.9669876 0.0805823
vn 0.2417469 0.9669876 0.0805823
vn 0.2417469 0.9669876 0.0805823
vn 0 0 -1
vn 0 0 -1
vn 0 0 -1
vn 0 0 1
vn 0 0 1
vn 0 -1 0
vn 0 -1 0
vn 0 -1 0
vn 0 -1 0
vn 1 0 0
vn 1 0 0
vn -1 0 0
vn -1 0 0
vn -1 0 0
vn -1 0 0
vn -1 0 0
vn -1 0 0
vn 1 0 0
vn 1 0 0
vn 1 0 0
vn 1 0 0
vn 1 0 0
vn -1 0 0
vn -1 0 0
vn 0 0 1
vn 0 0 1
vn 0.2425356 0 -0.9701425
vn 0.2425356 0 -0.9701425
vn -1 0 0
vn -1 0 0
vn -1 0 0
vn -1 0 0
vn 0.8320503 0 -0.5547002
vn 0.8320503 0 -0.5547002
vn -1 0 0
vn -1 0 0
vn -1 0 0
vn -1 0 0
vn -0.0003943667 -0.968565 -0.04029115
vn 0.2417469 -0.9669876 -0.0805823
vn -0.0003943667 -0.968565 -0.04029115
vn -0.2425356 -0.9701425 0
vn 0.2425356 -0.9701425 0
vn 0.2425356 -0.9701425 0
vn 0.2425356 -0.9701425 0
vn 0.2425356 -0.9701425 0
vn 0 0 -1
vn 0 0 -1
vn 0 0 1
vn 0 1 0
vn 0 1 0
vn 0 1 0
vn 0 1 0
vn 0 0.9998276 0.01856674
vn 0 0.9998276 0.01856674
vn 0 0.9998276 0.01856674
vn 0 0.9998276 0.01856674
vn 0 1 0
vn 0 1 0
vn 0 1 0
vn 0 1 0
vn 0 1 0
vn 0 1 0
vn 0 1 0
vn 0.002634854 0.9998716 0.01580913
vn 0.01317098 0.9997328 2.193265E-06
vn 0.01317098 0.9997328 2.193265E-06
vn 0.02370711 0.999594 -0.01580474
vn 0 1 0
vn 0.529999 0.8479983 0
vn 0.529999 0.8479983 0
vn 0.529999 0.8479983 0
vn 0.529999 0.8479983 0
vn 0 0.4472136 0.8944272
vn 0 0.4472136 0.8944272
vn 0 0.4472136 0.8944272
vn 0 0.4472136 0.8944272
vn 1 0 0
vn 1 0 0
vn 1 0 0
vn 1 0 0
vn 0 0.4472136 -0.8944272
vn 0 0.4472136 -0.8944272
vn 0 0.4472136 -0.8944272
vn 0 0.4472136 -0.8944272
vn -1 0 0
vn -1 0 0
vn -1 0 0
vn -1 0 0
vn 0 0.8574929 0.5144957
vn 0 0.8574929 0.5144957
vn 0 0.8574929 0.5144957
vn 0 0.8574929 0.5144957
vn 0 0.8539749 -0.5203141
vn 0 0.8539749 -0.5203141
vn 0 0.8539749 -0.5203141
vn 0 0.8539749 -0.5203141
vn -0.004641636 0.9998168 0.01856655
vn -0.002320818 0.9997737 0.02088636
vn -0.002320818 0.9997737 0.02088636
vn 0 0.9997307 0.02320618
vn 0 1 0
vn 0 1 0
vn 0 1 0
vn 0.02320618 0.9997307 0
vn 0.008702367 0.9997223 -0.0116029
vn 0.008702367 0.9997223 -0.0116029
vn -0.005801448 0.9997139 -0.02320579
vn 0 0.8539749 -0.5203141
vn 0 0.8539749 -0.5203141
vn 0 0.8574929 0.5144957
vn 0 0.8574929 0.5144957
vn 0 0.8574929 0.5144957
vn 0 0.8574929 0.5144957
vn 0 0.8644942 0.5026429
vn 0 0.8644942 0.5026429
vn 0 0.8644942 0.5026429
vn 0 0.8644942 0.5026429
vn 0 0.8504469 0.5260609
vn 0 0.8504469 0.5260609
vn 0 0.8504469 0.5260609
vn 0 0.8504469 0.5260609
vn 1 0 0
vn 1 0 0
vn 1 0 0
vn 1 0 0
vn 0 0.8539749 -0.5203141
vn 0 0.8539749 -0.5203141
vn 0 0.8539749 -0.5203141
vn 0 0.8539749 -0.5203141
vn -1 0 0
vn -1 0 0
vn -1 0 0
vn -1 0 0
vn -1 0 0
vn -1 0 0
vn 1 0 0
vn 1 0 0
vn 1 0 0
vn 1 0 0
vn -1 0 0
vn -1 0 0
vn 0 0 1
vn 0 0 1
vn 0 0 1
vn 0 0 1
vn 0.2425356 0 -0.9701425
vn 0.2425356 0 -0.9701425
vn 0.2425356 0 -0.9701425
vn 0.2425356 0 -0.9701425
vn 0.8320503 0 -0.5547002
vn 0.8320503 0 -0.5547002
vn 0.8320503 0 -0.5547002
vn 0.8320503 0 -0.5547002
vn 0 0 -1
vn 0 0 -1
vn 0 0 -1
vn 0 0 -1
vn 0 0 1
vn 0 0 1
vn 0 0.8504469 0.5260609
vn 0 0.8504469 0.5260609
vn 0 0.8504469 0.5260609
vn 0 0.8504469 0.5260609
vn 0.009868548 0.8573877 0.5143006
vn 0.0197371 0.8502812 0.5259584
vn 0.009868548 0.8573877 0.5143006
vn 0 0.8644941 0.5026429
vn 0 0.8539749 -0.5203141
vn 0 0.8539749 -0.5203141
vt -2 -6
vt -8 -4
vt -2 10
vt -8 8
vt -8 -18
vt -2 -18
vt -2 22
vt -8 22
vt -7.726752 8
vt -7.726752 -4
vt -13.80951 6
vt -13.64512 -4
vt -14 -4
vt -8 -4
vt -12 -7
vt -8 -8
vt -13.80951 6
vt -7.726752 12
vt -13.64512 12
vt -14 12.00113
vt -14 5.918364
vt -22 12.00113
vt -20 5.918364
vt -2 3.257975
vt -8 3.257975
vt -8 10.07072
vt -2 10.07072
vt 7 5
vt -3 12
vt 7 12
vt -3 5
vt 8 10.98973
vt 2 4.176986
vt 2 10.98973
vt 8 4.176986
vt 3 12
vt 3 5
vt -7 5
vt -7 12
vt 6 0
vt -4 -1
vt -4 2
vt 6 2
vt 5 2.529822
vt 6 -0.6324555
vt -10 -0.6324555
vt -9 2.529822
vt 13 2.568113
vt 18 -0.6382405
vt 6 -0.6382405
vt 5 2.524004
vt -4 -1
vt -13 2.046425
vt -4 2
vt -18 -1
vt 8 -1
vt 17 2
vt 22 -1
vt 8 2
vt -10 -0.6324555
vt -17 2.529822
vt -22 -0.3162277
vt -8 -1
vt -14 -1
vt -14 2
vt -8 2
vt 9.943961 2
vt 5.820855 -0.9209442
vt 5.820855 3
vt 9.943961 -1
vt 8 3
vt 8 -0.9209442
vt 4 2
vt 4 -1
vt 4.437602 -1
vt 0.8320505 -1
vt 0.8320505 2
vt 4.437602 2
vt -8 2
vt -12 -1
vt -12 2
vt -8 -1
vt -15.7129 12
vt -17.01457 12
vt -16.01249 6
vt 20 0
vt 14 0
vt 14 2
vt -22 -1
vt -20 -0.5
vt 1 10
vt 2 22
vt 1 -18
vt 1 -6
vt -4 3.5
vt 6 3.5
vt 4.5 3.5
vt 5 2
vt -9 2
vt -8.5 3.5
vt 10.5 3.569637
vt 13 2.046425
vt -3.5 3.5
vt -8 5.09285
vt -10.5 3.569637
vt 14.5 3.546425
vt 7.5 3.5
vt -14.5 3.546425
vt -17 2
vt -14 3.5
vt -8 3.5
vt 9.943961 3.5
vt 5.820855 4.039528
vt 8 5.079056
vt 3.5 3.5
vt 3 5
vt 8 4.039528
vt 0.8320505 3.5
vt 4.437602 3.5
vt -7.5 3.5
vt -12 3.5
vt -7 5
vt -12 5
vt -16.66332 12
vt -15.7129 12
vt -16.01249 6
vt -16.66332 6
vt -16.66332 12
vt -17.61374 6
vt -17.61374 12
vt -16.66332 6
vt 21 -0.25
vt 14 3.5
vt -21 -0.25
vt 2 6
vt 8 6
vt 2 -2
vt 8 -2
vt 2 -3.092317
vt 8 -3.092317
vt 2 -8.093179
vt 8 -8.093179
vt 8 7
vt 2 7
vt 8 12
vt 2 12
vt 8 -3
vt 14 -4
vt 14 6
vt 7.986796 -3.079004
vt 13.98678 -4.079129
vt 7.986588 -8.079629
vt 11.98678 -7.078671
vt 14 12
vt 9.221982 6
vt 9.221982 12
vt 18.65596 6
vt 18.65596 12
vt -2 10.07072
vt -8 10.07072
vt -8 12.24697
vt -2 12.24697
vt 7 12
vt -2 14
vt 6 14
vt -3 12
vt 8 13.16598
vt 2 10.98973
vt 2 13.16598
vt 8 10.98973
vt 2 14
vt 3 12
vt -7 12
vt -6 14
vt 8 13.54917
vt 2 13.54917
vt 2 19.38012
vt 8 19.38012
vt 8 -15.89186
vt 2 -15.89186
vt 2 -10.03689
vt 8 -10.03689
vt 2.02319 -3.092142
vt 2.023622 -8.093004
vt -1.976766 -4.092315
vt -1.976335 -8.093349
vt 2 -3
vt -2 8
vt -2 -4
vt 1.88343 12
vt 1.88343 7
vt -2.117647 12
vt -2.115492 8
vt -2 -10.03689
vt -1 -15.89186
vt 2 19.37934
vt 2 13.54839
vt -2 19.37934
vt -2 13.54839
vt 8 7.718216
vt 2 7.718216
vt 2 10.60981
vt 8 10.60981
vt 8 10.60981
vt 2 10.60981
vt 2 13.54917
vt 8 13.54917
vt 6 3.5
vt -4 3.5
vt -4 5
vt 6 5
vt 2 -7.109405
vt 8 -7.109405
vt 2 -4.181919
vt 8 -4.181919
vt 4 5
vt 4.5 3.5
vt -8.5 3.5
vt -8 5
vt 8 5.09285
vt 10.5 3.569637
vt 14.5 3.546425
vt 7.5 3.5
vt 12 5
vt 7 5
vt -12 5.09285
vt -14.5 3.546425
vt -8 3.5
vt -14 3.5
vt -14 5
vt -8 5
vt 9.943961 5
vt 5.820855 4.039528
vt 5.820855 5.079056
vt 9.943961 3.5
vt 4.437602 3.5
vt 0.8320505 3.5
vt 0.8320505 5
vt 4.437602 5
vt 22 0
vt 21 -0.25
vt 14 5
vt 14 3.5
vt -21 -0.25
vt -22 0
vt 1.958712 10.45408
vt -2.041019 10.4785
vt -2.023074 13.41808
vt 1.976657 13.39366
vt 1.941844 7.563345
vt -2.058964 7.538923
vt -2.041019 10.4785
vt 1.958712 10.45408
vt -2 -7.109404
vt -2 -4.181918
g submesh0
f 1/1/1 2/2/2 3/3/3
f 2/2/2 4/4/4 3/3/3
f 2/2/2 1/1/1 5/5/5
f 1/1/1 6/6/6 5/5/5
f 3/3/3 4/4/4 7/7/7
f 4/4/4 8/8/8 7/7/7
f 9/9/9 10/10/10 11/11/11
f 10/10/10 12/12/12 11/11/11
f 13/13/13 14/14/14 15/15/15
f 14/14/14 16/16/16 15/15/15
f 9/9/9 17/17/17 18/18/18
f 17/17/17 19/19/19 18/18/18
f 20/20/20 21/21/21 22/22/22
f 21/21/21 23/23/23 22/22/22
f 24/24/24 25/25/25 26/26/26
f 27/27/27 24/24/24 26/26/26
f 28/28/28 29/29/29 30/30/30
f 28/28/28 31/31/31 29/29/29
f 32/32/32 33/33/33 34/34/34
f 32/32/32 35/35/35 33/33/33
f 36/36/36 37/37/37 38/38/38
f 39/39/39 36/36/36 38/38/38
f 40/40/40 41/41/41 42/42/42
f 43/43/43 40/40/40 42/42/42
f 44/44/44 45/45/45 46/46/46
f 47/47/47 44/44/44 46/46/46
f 48/48/48 49/49/49 50/50/50
f 48/48/48 50/50/50 51/51/51
f 52/52/52 53/53/53 54/54/54
f 52/52/52 55/55/55 53/53/53
f 56/56/56 57/57/57 58/58/58
f 56/56/56 59/59/59 57/57/57
f 47/47/47 60/60/60 61/61/61
f 61/61/61 60/60/60 62/62/62
f 63/63/63 64/64/64 65/65/65
f 66/66/66 63/63/63 65/65/65
f 67/67/67 68/68/68 69/69/69
f 67/67/67 70/70/70 68/68/68
f 71/71/71 72/72/72 73/73/73
f 72/72/72 74/74/74 73/73/73
f 75/75/75 76/76/76 77/77/77
f 78/78/78 75/75/75 77/77/77
f 79/79/79 80/80/80 81/81/81
f 79/79/79 82/82/82 80/80/80
f 83/83/83 84/84/84 85/85/85
f 86/86/86 87/87/87 88/88/88
f 64/64/64 89/89/89 90/90/90
f 65/65/65 64/64/64 90/90/90
f 3/3/3 7/7/7 91/91/91
f 7/7/7 92/92/92 91/91/91
f 6/6/6 1/1/1 93/93/93
f 1/1/1 94/94/94 93/93/93
f 1/1/1 3/3/3 94/94/94
f 3/3/3 91/91/91 94/94/94
f 43/43/43 42/42/42 95/95/95
f 96/96/96 43/43/43 95/95/95
f 97/97/97 98/98/98 99/99/99
f 100/100/100 97/97/97 99/99/99
f 101/101/101 102/102/102 98/98/98
f 101/101/101 98/98/98 97/97/97
f 31/31/31 103/103/103 104/104/104
f 103/103/103 105/105/105 104/104/104
f 103/103/103 54/54/54 105/105/105
f 54/54/54 53/53/53 105/105/105
f 57/57/57 59/59/59 106/106/106
f 106/106/106 59/59/59 107/107/107
f 100/100/100 99/99/99 108/108/108
f 108/108/108 99/99/99 109/109/109
f 66/66/66 65/65/65 110/110/110
f 111/111/111 66/66/66 110/110/110
f 112/112/112 69/69/69 113/113/113
f 112/112/112 67/67/67 69/69/69
f 114/114/114 115/115/115 116/116/116
f 114/114/114 117/117/117 115/115/115
f 115/115/115 117/117/117 71/71/71
f 115/115/115 71/71/71 73/73/73
f 78/78/78 77/77/77 118/118/118
f 119/119/119 78/78/78 118/118/118
f 120/120/120 79/79/79 121/121/121
f 79/79/79 81/81/81 121/121/121
f 122/122/122 120/120/120 123/123/123
f 120/120/120 121/121/121 123/123/123
f 124/124/124 125/125/125 126/126/126
f 124/124/124 126/126/126 127/127/127
f 128/128/128 129/129/129 130/130/130
f 128/128/128 131/131/131 129/129/129
f 132/132/132 86/86/86 133/133/133
f 86/86/86 88/88/88 133/133/133
f 110/110/110 65/65/65 90/90/90
f 110/110/110 90/90/90 134/134/134
g submesh1
f 135/135/135 136/136/136 137/137/137
f 136/136/136 138/138/138 137/137/137
f 139/139/139 140/140/140 141/141/141
f 140/140/140 142/142/142 141/141/141
f 143/143/143 144/144/144 145/145/145
f 144/144/144 146/146/146 145/145/145
f 147/147/147 143/143/143 148/148/148
f 143/143/143 149/149/149 148/148/148
f 150/150/150 151/151/151 152/152/152
f 151/151/151 153/153/153 152/152/152
f 149/149/149 143/143/143 154/154/154
f 143/143/143 145/145/145 154/154/154
f 155/155/155 156/156/156 157/157/157
f 156/156/156 158/158/158 157/157/157
f 159/159/159 160/160/160 161/161/161
f 162/162/162 159/159/159 161/161/161
f 163/163/163 164/164/164 165/165/165
f 163/163/163 166/166/166 164/164/164
f 167/167/167 168/168/168 169/169/169
f 167/167/167 170/170/170 168/168/168
f 171/171/171 172/172/172 173/173/173
f 174/174/174 171/171/171 173/173/173
f 175/175/175 176/176/176 177/177/177
f 178/178/178 175/175/175 177/177/177
f 179/179/179 180/180/180 181/181/181
f 182/182/182 179/179/179 181/181/181
f 183/183/183 184/184/184 185/185/185
f 184/184/184 186/186/186 185/185/185
f 144/144/144 187/187/187 188/188/188
f 187/187/187 189/189/189 188/188/188
f 190/190/190 191/191/191 192/192/192
f 191/191/191 193/193/193 192/192/192
f 181/181/181 180/180/180 194/194/194
f 180/180/180 195/195/195 194/194/194
f 196/196/196 197/197/197 198/198/198
f 197/197/197 199/199/199 198/198/198
f 200/200/200 201/201/201 202/202/202
f 203/203/203 200/200/200 202/202/202
f 204/204/204 205/205/205 206/206/206
f 207/207/207 204/204/204 206/206/206
f 208/208/208 209/209/209 210/210/210
f 211/211/211 208/208/208 210/210/210
f 182/182/182 181/181/181 212/212/212
f 213/213/213 182/182/182 212/212/212
f 213/213/213 212/212/212 214/214/214
f 215/215/215 213/213/213 214/214/214
f 216/216/216 217/217/217 218/218/218
f 219/219/219 216/216/216 218/218/218
f 220/220/220 221/221/221 217/217/217
f 220/220/220 217/217/217 216/216/216
f 222/222/222 223/223/223 224/224/224
f 224/224/224 223/223/223 225/225/225
f 219/219/219 218/218/218 226/226/226
f 226/226/226 218/218/218 227/227/227
f 228/228/228 229/229/229 230/230/230
f 231/231/231 228/228/228 230/230/230
f 232/232/232 233/233/233 234/234/234
f 232/232/232 235/235/235 233/233/233
f 236/236/236 237/237/237 238/238/238
f 239/239/239 236/236/236 238/238/238
f 240/240/240 241/241/241 242/242/242
f 241/241/241 243/243/243 242/242/242
f 230/230/230 229/229/229 244/244/244
f 230/230/230 244/244/244 245/245/245
f 246/246/246 247/247/247 248/248/248
f 249/249/249 246/246/246 248/248/248
f 250/250/250 251/251/251 252/252/252
f 253/253/253 250/250/250 252/252/252
f 212/212/212 254/254/254 255/255/255
f 214/214/214 212/212/212 255/255/255
f 181/181/181 194/194/194 254/254/254
f 212/212/212 181/181/181 254/254/254
