v 0 -1 6
v 8 -1 6
v 0 0 6
v 8 6 6
v 8 -1 6
v 8 -1 -2
v 8 6 6
v 8 0 -2
v 8 -1 -2
v 4 -1 2
v 8 0 -2
v 4 0 2
v 0 -1 6
v 0 0 6
v 0 0 6
v 8 6 6
v 4 0 2
v 8 0 -2
v 4 -1 2
v 8 -1 -2
v 0 -1 6
v 8 -1 -2
v 8 -1 6
v 0 -1 6
vn 0 0 1
vn 0 0 1
vn 0 0 1
vn 0 0 1
vn 1 0 0
vn 1 0 0
vn 1 0 0
vn 1 0 0
vn -0.7071068 0 -0.7071068
vn -0.7071068 0 -0.7071068
vn -0.7071068 0 -0.7071068
vn -0.7071068 0 -0.7071068
vn -0.7071068 0 -0.7071068
vn -0.7071068 0 -0.7071068
vn -0.5144957 0.6859943 -0.5144957
vn -0.5144957 0.6859943 -0.5144957
vn -0.5144957 0.6859943 -0.5144957
vn -0.5144957 0.6859943 -0.5144957
vn 0 0 0
vn 0 -0.5 0
vn 0 -0.5 0
vn 0 -0.5 0
vn 0 -1 0
vn 0 -0.5 0
vt 0 -1
vt -8 -1
vt 0 0
vt -8 6
vt 6 -1
vt -2 -1
vt 6 6
vt -2 0
vt 7.071068 -1
vt 1.414214 -1
vt 7.071068 0
vt 1.414214 0
vt -4.24264 -1
vt -4.24264 0
vt 0 5.144958
vt 10 5.144958
vt 3.2 0.480196
vt 6.4 -4.184566
vt 0 0
vt 0 0
vt 0 0
vt 0 0
vt 0 0
vt 0 0
g submesh0
f 1/1/1 2/2/2 3/3/3
f 2/2/2 4/4/4 3/3/3
f 5/5/5 6/6/6 7/7/7
f 6/6/6 8/8/8 7/7/7
f 9/9/9 10/10/10 11/11/11
f 10/10/10 12/12/12 11/11/11
f 10/10/10 13/13/13 12/12/12
f 13/13/13 14/14/14 12/12/12
f 15/15/15 16/16/16 17/17/17
f 16/16/16 18/18/18 17/17/17
f 19/19/19 20/20/20 21/21/21
f 22/22/22 23/23/23 24/24/24
