v 0.7499996 -3 0.2499999
v 0.9999996 -3 0.2499998
v 0.7500001 18 0.2499986
v 1 18 0.2499986
v 0.9999996 -3 0.2499998
v 0.9999995 -3 -2.384186E-07
v 1 18 0.2499986
v 1 18 -1.490094E-06
v 0.9999995 -3 -2.384186E-07
v 0.7499995 -3 -1.490116E-07
v 1 18 -1.490094E-06
v 0.75 18 -1.445396E-06
v -1 -3 4.768372E-07
v -1 -3 0.2500005
v -1.000001 18 -1.132335E-06
v -1.000001 18 0.2499989
v 0.7500001 18 0.2499986
v 1 18 0.2499986
v 0.75 18 -1.445396E-06
v 1 18 -1.490094E-06
v 0.7499995 -3 -1.490116E-07
v 0.9999995 -3 -2.384186E-07
v 0.7499996 -3 0.2499999
v 0.9999996 -3 0.2499998
v -0.7500005 -3 3.874302E-07
v -0.7500004 -3 0.2500004
v -1 -3 4.768372E-07
v -1 -3 0.2500005
v -0.7500017 18 -1.176946E-06
v -0.7500005 -3 3.874302E-07
v -1.000001 18 -1.132335E-06
v -1 -3 4.768372E-07
v -0.7500004 -3 0.2500004
v -0.7500016 18 0.2499989
v -1 -3 0.2500005
v -1.000001 18 0.2499989
v -0.7500016 18 0.2499989
v -0.7500017 18 -1.176946E-06
v -1.000001 18 0.2499989
v -1.000001 18 -1.132335E-06
v 0.7499996 -3 0.2499999
v 0.7500001 18 0.2499986
v 0.7499995 -3 -1.490116E-07
v 0.75 18 -1.445396E-06
v -0.7500016 18 0.2499989
v -0.7500004 -3 0.2500004
v -0.7500017 18 -1.176946E-06
v -0.7500005 -3 3.874302E-07
v 0.7499996 -3 0.1249999
v 0.75 18 0.1249986
v -0.7500004 -3 0.1250004
v -0.7500017 18 0.1249988
vn 3.576279E-07 5.960464E-08 1
vn 2.682209E-07 5.854027E-08 1
vn 2.682209E-07 5.854027E-08 1
vn 1.788139E-07 5.74759E-08 1
vn 1 -2.270656E-08 -4.768372E-07
vn 1 -2.270656E-08 -4.768371E-07
vn 1 -2.270656E-08 -4.768371E-07
vn 1 -2.270656E-08 -4.768371E-07
vn -3.576279E-07 -5.960359E-08 -1
vn -2.6821E-07 -6.06681E-08 -1
vn -2.6821E-07 -6.06681E-08 -1
vn -1.787921E-07 -6.17326E-08 -1
vn -1 -3.405976E-08 4.768372E-07
vn -1 -3.68981E-08 2.384186E-07
vn -1 -3.68981E-08 2.384186E-07
vn -1 -3.973643E-08 0
vn 0 1 0
vn 0 1 0
vn 0 1 0
vn 0 1 0
vn 0 -1 0
vn 0 -1 0
vn 0 -1 0
vn 0 -1 0
vn 0 -1 0
vn 0 -1 0
vn 0 -1 0
vn 0 -1 0
vn -1.784432E-07 -7.449411E-08 -1
vn -2.680355E-07 -7.556069E-08 -1
vn -2.680355E-07 -7.556069E-08 -1
vn -3.576279E-07 -7.662727E-08 -1
vn 3.576279E-07 7.237709E-08 1
vn 2.68221E-07 7.344145E-08 1
vn 2.68221E-07 7.344145E-08 1
vn 1.788142E-07 7.450581E-08 1
vn 0 1 0
vn 0 1 0
vn 0 1 0
vn 0 1 0
vn -1 1.986824E-08 4.768372E-07
vn -1 2.128739E-08 3.576279E-07
vn -1 2.128739E-08 3.576279E-07
vn -1 2.270655E-08 2.384186E-07
vn 1 5.960463E-08 -2.384186E-07
vn 1 5.818546E-08 -3.576279E-07
vn 1 5.818546E-08 -3.576279E-07
vn 1 5.67663E-08 -4.768372E-07
vn 3.576279E-07 6.066901E-08 1
vn 2.682208E-07 6.705523E-08 1
vn 2.682208E-07 6.705523E-08 1
vn 1.788137E-07 7.344145E-08 1
vt -0.7499996 -3
vt -0.9999996 -3
vt -0.75 18
vt -1 18
vt -1.875 -3
vt -2.125 -3
vt -1.875001 18
vt -2.125001 18
vt 0.9999995 -3
vt 0.7499995 -3
vt 1 18
vt 0.75 18
vt 2.125 -3
vt 1.875 -3
vt 2.125002 18
vt 1.875002 18
vt 0.7500001 -1.875001
vt 1 -1.875001
vt 0.75 -2.125001
vt 1 -2.125001
vt -0.7499995 -2.125
vt -0.9999995 -2.125
vt -0.7499996 -1.875
vt -0.9999996 -1.875
vt 0.7500005 -2.125
vt 0.7500004 -1.875
vt 1 -2.125
vt 1 -1.875
vt -0.7500017 18
vt -0.7500005 -3
vt -1.000001 18
vt -1 -3
vt 0.7500005 -3
vt 0.7500017 18
vt 1 -3
vt 1.000001 18
vt -0.7500016 -1.875001
vt -0.7500017 -2.125001
vt -1.000001 -1.875001
vt -1.000001 -2.125001
vt 1.875 -3
vt 1.875001 18
vt 2.125 -3
vt 2.125001 18
vt -1.875001 18
vt -1.875 -3
vt -2.125001 18
vt -2.125 -3
vt -0.7499995 -3
vt -0.7499999 18
vt 0.7500005 -3
vt 0.7500017 18
g submesh0
f 1/1/1 2/2/2 3/3/3
f 2/2/2 4/4/4 3/3/3
f 5/5/5 6/6/6 7/7/7
f 6/6/6 8/8/8 7/7/7
f 9/9/9 10/10/10 11/11/11
f 10/10/10 12/12/12 11/11/11
f 13/13/13 14/14/14 15/15/15
f 14/14/14 16/16/16 15/15/15
f 17/17/17 18/18/18 19/19/19
f 18/18/18 20/20/20 19/19/19
f 21/21/21 22/22/22 23/23/23
f 22/22/22 24/24/24 23/23/23
f 25/25/25 26/26/26 27/27/27
f 26/26/26 28/28/28 27/27/27
f 29/29/29 30/30/30 31/31/31
f 30/30/30 32/32/32 31/31/31
f 33/33/33 34/34/34 35/35/35
f 34/34/34 36/36/36 35/35/35
f 37/37/37 38/38/38 39/39/39
f 38/38/38 40/40/40 39/39/39
f 41/41/41 42/42/42 43/43/43
f 42/42/42 44/44/44 43/43/43
f 45/45/45 46/46/46 47/47/47
f 46/46/46 48/48/48 47/47/47
g submesh1
f 49/49/49 50/50/50 51/51/51
f 50/50/50 52/52/52 51/51/51
