v 0.7499996 -3 0.2499999
v 0.9999996 -3 0.2499998
v 0.7500005 19 0.2500006
v 1 19 0.2500015
v 0.9999996 -3 0.2499998
v 0.9999995 -3 -2.384186E-07
v 1 19 0.2500015
v 1 19 1.430497E-06
v 0.9999995 -3 -2.384186E-07
v 0.7499995 -3 -1.490116E-07
v 1 19 1.430497E-06
v 0.7500005 19 5.662332E-07
v -1 -3 4.768372E-07
v -1 -3 0.2500005
v -1.000001 19 2.145663E-06
v -1.000001 19 0.2500022
v 0.7500005 19 0.2500006
v 1 19 0.2500015
v 0.7500005 19 5.662332E-07
v 1 19 1.430497E-06
v 0.7499995 -3 -1.490116E-07
v 0.9999995 -3 -2.384186E-07
v 0.7499996 -3 0.2499999
v 0.9999996 -3 0.2499998
v -0.7500005 -3 3.874302E-07
v -0.7500004 -3 0.2500004
v -1 -3 4.768372E-07
v -1 -3 0.2500005
v -0.7500007 19 -4.619469E-06
v -0.7500005 -3 3.874302E-07
v -1.000001 19 2.145663E-06
v -1 -3 4.768372E-07
v -0.7500004 -3 0.2500004
v -0.7500006 19 0.2499954
v -1 -3 0.2500005
v -1.000001 19 0.2500022
v -0.7500006 19 0.2499954
v -0.7500007 19 -4.619469E-06
v -1.000001 19 0.2500022
v -1.000001 19 2.145663E-06
v 0.7499996 -3 0.2499999
v 0.7500005 19 0.2500006
v 0.7499995 -3 -1.490116E-07
v 0.7500005 19 5.662332E-07
v -0.7500006 19 0.2499954
v -0.7500004 -3 0.2500004
v -0.7500007 19 -4.619469E-06
v -0.7500005 -3 3.874302E-07
v 0.7499996 -3 0.1249999
v 0.75 19 0.1250006
v -0.7500004 -3 0.1250004
v -0.7500002 19 0.1249954
vn 3.576279E-07 -3.386629E-08 1
vn -1.549724E-06 -5.554066E-08 1
vn -1.549724E-06 -5.554066E-08 1
vn -3.457075E-06 -7.721503E-08 1
vn 1 -2.167438E-08 -4.768372E-07
vn 1 -3.251166E-08 4.768371E-07
vn 1 -3.251166E-08 4.768371E-07
vn 1 -4.334894E-08 1.430511E-06
vn -3.576279E-07 7.585981E-08 -1
vn 1.549713E-06 5.418539E-08 -1
vn 1.549713E-06 5.418539E-08 -1
vn 3.457055E-06 3.251098E-08 -1
vn -1 -1.083724E-08 4.768372E-07
vn -1 -1.083724E-08 4.768372E-07
vn -1 -1.083724E-08 4.768372E-07
vn -1 -1.083725E-08 4.768371E-07
vn 0 1 0
vn 0 1 0
vn 0 1 0
vn 0 1 0
vn 0 -1 0
vn 0 -1 0
vn 0 -1 0
vn 0 -1 0
vn 0 -1 0
vn 0 -1 0
vn 0 -1 0
vn 0 -1 0
vn -2.706053E-05 -2.275866E-07 -1
vn -1.370908E-05 -7.586544E-08 -1
vn -1.370908E-05 -7.586544E-08 -1
vn -3.576279E-07 7.585572E-08 -1
vn 3.576279E-07 2.262267E-07 1
vn 1.370907E-05 7.450595E-08 1
vn 1.370907E-05 7.450595E-08 1
vn 2.706051E-05 -7.721481E-08 1
vn 0 1 0
vn 0 1 0
vn 0 1 0
vn 0 1 0
vn -1 4.063952E-08 4.768372E-07
vn -1 4.199417E-08 3.576279E-07
vn -1 4.199417E-08 3.576279E-07
vn -1 4.334883E-08 2.384186E-07
vn 1 1.08371E-08 -4.768371E-07
vn 1 1.08371E-08 -4.768372E-07
vn 1 1.08371E-08 -4.768372E-07
vn 1 1.08371E-08 -4.768372E-07
vn 3.576279E-07 -3.318896E-08 1
vn -1.549721E-06 9.685757E-08 1
vn -1.549721E-06 9.685757E-08 1
vn -3.457069E-06 2.269041E-07 1
vt -0.7499996 -3
vt -0.9999996 -3
vt -0.7500004 19
vt -1 19
vt -1.875 -3
vt -2.125 -3
vt -1.874998 19
vt -2.124998 19
vt 0.9999995 -3
vt 0.7499995 -3
vt 1 19
vt 0.7500005 19
vt 2.125 -3
vt 1.875 -3
vt 2.124998 19
vt 1.874998 19
vt 0.7500005 -1.874999
vt 1 -1.874999
vt 0.7500005 -2.125
vt 1 -2.124999
vt -0.7499995 -2.125
vt -0.9999995 -2.125
vt -0.7499996 -1.875
vt -0.9999996 -1.875
vt 0.7500005 -2.125
vt 0.7500004 -1.875
vt 1 -2.125
vt 1 -1.875
vt -0.7500007 19
vt -0.7500005 -3
vt -1.000001 19
vt -1 -3
vt 0.7500005 -3
vt 0.7500007 19
vt 1 -3
vt 1.000001 19
vt -0.7500006 -1.875005
vt -0.7500007 -2.125005
vt -1.000001 -1.874998
vt -1.000001 -2.124998
vt 1.875 -3
vt 1.874999 19
vt 2.125 -3
vt 2.124999 19
vt -1.875005 19
vt -1.875 -3
vt -2.125005 19
vt -2.125 -3
vt -0.7499995 -3
vt -0.7499999 19
vt 0.7500005 -3
vt 0.7500002 19
g submesh0
f 1/1/1 2/2/2 3/3/3
f 2/2/2 4/4/4 3/3/3
f 5/5/5 6/6/6 7/7/7
f 6/6/6 8/8/8 7/7/7
f 9/9/9 10/10/10 11/11/11
f 10/10/10 12/12/12 11/11/11
f 13/13/13 14/14/14 15/15/15
f 14/14/14 16/16/16 15/15/15
f 17/17/17 18/18/18 19/19/19
f 18/18/18 20/20/20 19/19/19
f 21/21/21 22/22/22 23/23/23
f 22/22/22 24/24/24 23/23/23
f 25/25/25 26/26/26 27/27/27
f 26/26/26 28/28/28 27/27/27
f 29/29/29 30/30/30 31/31/31
f 30/30/30 32/32/32 31/31/31
f 33/33/33 34/34/34 35/35/35
f 34/34/34 36/36/36 35/35/35
f 37/37/37 38/38/38 39/39/39
f 38/38/38 40/40/40 39/39/39
f 41/41/41 42/42/42 43/43/43
f 42/42/42 44/44/44 43/43/43
f 45/45/45 46/46/46 47/47/47
f 46/46/46 48/48/48 47/47/47
g submesh1
f 49/49/49 50/50/50 51/51/51
f 50/50/50 52/52/52 51/51/51
