v 0.7499996 -3 0.2499999
v 0.9999996 -3 0.2499998
v 0.7500013 7 0.2499985
v 1.000001 7 0.2499983
v 0.9999996 -3 0.2499998
v 0.9999995 -3 -2.384186E-07
v 1.000001 7 0.2499983
v 1.000001 7 -1.728529E-06
v 0.9999995 -3 -2.384186E-07
v 0.7499995 -3 -1.490116E-07
v 1.000001 7 -1.728529E-06
v 0.7500011 7 -1.534814E-06
v -1 -3 4.768372E-07
v -1 -3 0.2500005
v -0.9999989 7 -1.788086E-07
v -0.9999987 7 0.2499998
v 0.7500013 7 0.2499985
v 1.000001 7 0.2499983
v 0.7500011 7 -1.534814E-06
v 1.000001 7 -1.728529E-06
v 0.7499995 -3 -1.490116E-07
v 0.9999995 -3 -2.384186E-07
v 0.7499996 -3 0.2499999
v 0.9999996 -3 0.2499998
v -0.7500005 -3 3.874302E-07
v -0.7500004 -3 0.2500004
v -1 -3 4.768372E-07
v -1 -3 0.2500005
v -0.7499989 7 -3.725237E-07
v -0.7500005 -3 3.874302E-07
v -0.9999989 7 -1.788086E-07
v -1 -3 4.768372E-07
v -0.7500004 -3 0.2500004
v -0.7499987 7 0.2499996
v -1 -3 0.2500005
v -0.9999987 7 0.2499998
v -0.7499987 7 0.2499996
v -0.7499989 7 -3.725237E-07
v -0.9999987 7 0.2499998
v -0.9999989 7 -1.788086E-07
v 0.7499996 -3 0.2499999
v 0.7500013 7 0.2499985
v 0.7499995 -3 -1.490116E-07
v 0.7500011 7 -1.534814E-06
v -0.7499987 7 0.2499996
v -0.7500004 -3 0.2500004
v -0.7499989 7 -3.725237E-07
v -0.7500005 -3 3.874302E-07
v 0.7499996 -3 0.1249999
v 0.7500013 7 0.1249985
v -0.7500004 -3 0.1250004
v -0.7499987 7 0.1249996
vn 3.576279E-07 1.385807E-07 1
vn 5.662441E-07 1.437961E-07 1
vn 5.662441E-07 1.437961E-07 1
vn 7.748604E-07 1.490115E-07 1
vn 1 -1.668931E-07 -4.768372E-07
vn 1 -1.609326E-07 -7.152557E-07
vn 1 -1.609326E-07 -7.152557E-07
vn 1 -1.549722E-07 -9.536743E-07
vn -3.576279E-07 -1.49011E-07 -1
vn -5.662442E-07 -1.437955E-07 -1
vn -5.662442E-07 -1.437955E-07 -1
vn -7.748606E-07 -1.385801E-07 -1
vn -1 1.609326E-07 4.768372E-07
vn -1 1.639128E-07 5.960464E-07
vn -1 1.639128E-07 5.960464E-07
vn -1 1.66893E-07 7.152557E-07
vn 0 1 0
vn 0 1 0
vn 0 1 0
vn 0 1 0
vn 0 -1 0
vn 0 -1 0
vn 0 -1 0
vn 0 -1 0
vn 0 -1 0
vn 0 -1 0
vn 0 -1 0
vn 0 -1 0
vn -7.748603E-07 -7.599526E-08 -1
vn -5.662441E-07 -7.077989E-08 -1
vn -5.662441E-07 -7.077989E-08 -1
vn -3.576279E-07 -6.556452E-08 -1
vn 3.576279E-07 7.599586E-08 1
vn 5.662441E-07 7.078042E-08 1
vn 5.662441E-07 7.078042E-08 1
vn 7.748604E-07 6.556498E-08 1
vn 0 1 0
vn 0 1 0
vn 0 1 0
vn 0 1 0
vn -1 1.668931E-07 4.768372E-07
vn -1 1.639129E-07 5.960464E-07
vn -1 1.639129E-07 5.960464E-07
vn -1 1.609326E-07 7.152557E-07
vn 1 -1.668931E-07 -7.152557E-07
vn 1 -1.639128E-07 -5.960464E-07
vn 1 -1.639128E-07 -5.960464E-07
vn 1 -1.609326E-07 -4.768372E-07
vn 3.576279E-07 1.385807E-07 1
vn 5.662441E-07 1.072883E-07 1
vn 5.662441E-07 1.072883E-07 1
vn 7.748604E-07 7.599579E-08 1
vt -0.7499996 -3
vt -0.9999996 -3
vt -0.7500013 7
vt -1.000001 7
vt -1.875 -3
vt -2.125 -3
vt -1.875001 7
vt -2.125001 7
vt 0.9999995 -3
vt 0.7499995 -3
vt 1.000001 7
vt 0.7500011 7
vt 2.125 -3
vt 1.875 -3
vt 2.125001 7
vt 1.875001 7
vt 0.7500013 -1.875002
vt 1.000001 -1.875002
vt 0.7500011 -2.125001
vt 1.000001 -2.125002
vt -0.7499995 -2.125
vt -0.9999995 -2.125
vt -0.7499996 -1.875
vt -0.9999996 -1.875
vt 0.7500005 -2.125
vt 0.7500004 -1.875
vt 1 -2.125
vt 1 -1.875
vt -0.7499989 7
vt -0.7500005 -3
vt -0.9999989 7
vt -1 -3
vt 0.7500005 -3
vt 0.7499987 7
vt 1 -3
vt 0.9999987 7
vt -0.7499987 -1.875
vt -0.7499989 -2.125
vt -0.9999987 -1.875
vt -0.9999989 -2.125
vt 1.875 -3
vt 1.875001 7
vt 2.125 -3
vt 2.125001 7
vt -1.875001 7
vt -1.875 -3
vt -2.125001 7
vt -2.125 -3
vt -0.7499995 -3
vt -0.7500012 7
vt 0.7500005 -3
vt 0.7499988 7
g submesh0
f 1/1/1 2/2/2 3/3/3
f 2/2/2 4/4/4 3/3/3
f 5/5/5 6/6/6 7/7/7
f 6/6/6 8/8/8 7/7/7
f 9/9/9 10/10/10 11/11/11
f 10/10/10 12/12/12 11/11/11
f 13/13/13 14/14/14 15/15/15
f 14/14/14 16/16/16 15/15/15
f 17/17/17 18/18/18 19/19/19
f 18/18/18 20/20/20 19/19/19
f 21/21/21 22/22/22 23/23/23
f 22/22/22 24/24/24 23/23/23
f 25/25/25 26/26/26 27/27/27
f 26/26/26 28/28/28 27/27/27
f 29/29/29 30/30/30 31/31/31
f 30/30/30 32/32/32 31/31/31
f 33/33/33 34/34/34 35/35/35
f 34/34/34 36/36/36 35/35/35
f 37/37/37 38/38/38 39/39/39
f 38/38/38 40/40/40 39/39/39
f 41/41/41 42/42/42 43/43/43
f 42/42/42 44/44/44 43/43/43
f 45/45/45 46/46/46 47/47/47
f 46/46/46 48/48/48 47/47/47
g submesh1
f 49/49/49 50/50/50 51/51/51
f 50/50/50 52/52/52 51/51/51
