v 0.7499996 -3 0.2499999
v 0.9999996 -3 0.2499998
v 0.7500024 5 0.2500025
v 1.000003 5 0.2500016
v 0.9999996 -3 0.2499998
v 0.9999995 -3 -2.384186E-07
v 1.000003 5 0.2500016
v 1.000002 5 1.549719E-06
v 0.9999995 -3 -2.384186E-07
v 0.7499995 -3 -1.490116E-07
v 1.000002 5 1.549719E-06
v 0.7500015 5 5.66243E-07
v -1 -3 4.768372E-07
v -1 -3 0.2500005
v -0.9999987 5 1.311304E-06
v -0.9999978 5 0.2500013
v 0.7500024 5 0.2500025
v 1.000003 5 0.2500016
v 0.7500015 5 5.66243E-07
v 1.000002 5 1.549719E-06
v 0.7499995 -3 -1.490116E-07
v 0.9999995 -3 -2.384186E-07
v 0.7499996 -3 0.2499999
v 0.9999996 -3 0.2499998
v -0.7500005 -3 3.874302E-07
v -0.7500004 -3 0.2500004
v -1 -3 4.768372E-07
v -1 -3 0.2500005
v -0.7499987 5 3.874311E-07
v -0.7500005 -3 3.874302E-07
v -0.9999987 5 1.311304E-06
v -1 -3 4.768372E-07
v -0.7500004 -3 0.2500004
v -0.7499977 5 0.2500004
v -1 -3 0.2500005
v -0.9999978 5 0.2500013
v -0.7499977 5 0.2500004
v -0.7499987 5 3.874311E-07
v -0.9999978 5 0.2500013
v -0.9999987 5 1.311304E-06
v 0.7499996 -3 0.2499999
v 0.7500024 5 0.2500025
v 0.7499995 -3 -1.490116E-07
v 0.7500015 5 5.66243E-07
v -0.7499977 5 0.2500004
v -0.7500004 -3 0.2500004
v -0.7499987 5 3.874311E-07
v -0.7500005 -3 3.874302E-07
v 0.7499996 -3 0.1249999
v 0.7500001 5 0.1250025
v -0.7500004 -3 0.1250004
v -0.7500001 5 0.1250004
vn 3.576279E-07 -3.31551E-07 1
vn 2.026557E-06 -2.793975E-07 1
vn 2.026557E-06 -2.793975E-07 1
vn 3.695487E-06 -2.27244E-07 1
vn 1 -3.576278E-07 -4.768372E-07
vn 1 -3.054733E-07 -2.145767E-06
vn 1 -3.054733E-07 -2.145767E-06
vn 1 -2.533189E-07 -3.814697E-06
vn -3.576279E-07 2.235173E-07 -1
vn 1.788139E-06 1.564616E-07 -1
vn 1.788139E-06 1.564616E-07 -1
vn 3.933906E-06 8.940583E-08 -1
vn -1 2.235174E-07 4.768372E-07
vn -1 2.71946E-07 2.026558E-06
vn -1 2.71946E-07 2.026558E-06
vn -1 3.203746E-07 3.576278E-06
vn 0 1 0
vn 0 1 0
vn 0 1 0
vn 0 1 0
vn 0 -1 0
vn 0 -1 0
vn 0 -1 0
vn 0 -1 0
vn 0 -1 0
vn 0 -1 0
vn 0 -1 0
vn 0 -1 0
vn -3.69549E-06 9.396932E-13 -1
vn -2.026559E-06 5.215466E-08 -1
vn -2.026559E-06 5.215466E-08 -1
vn -3.576279E-07 1.043084E-07 -1
vn 3.576279E-07 -3.725408E-09 1
vn 2.026557E-06 -5.588E-08 1
vn 2.026557E-06 -5.588E-08 1
vn 3.695487E-06 -1.080346E-07 1
vn 0 1 0
vn 0 1 0
vn 0 1 0
vn 0 1 0
vn -1 3.501771E-07 4.768372E-07
vn -1 3.017483E-07 2.026544E-06
vn -1 3.017483E-07 2.026544E-06
vn -1 2.533194E-07 3.576251E-06
vn 1 -3.278255E-07 -3.814697E-06
vn 1 -2.756715E-07 -2.145767E-06
vn 1 -2.756715E-07 -2.145767E-06
vn 1 -2.235174E-07 -4.768372E-07
vn 3.576279E-07 -3.296882E-07 1
vn -5.165735E-07 -1.657754E-07 1
vn -5.165735E-07 -1.657754E-07 1
vn -1.390775E-06 -1.862604E-09 1
vt -0.7499996 -3
vt -0.9999996 -3
vt -0.7500023 5
vt -1.000002 5
vt -1.875 -3
vt -2.125 -3
vt -1.874998 5
vt -2.124998 5
vt 0.9999995 -3
vt 0.7499995 -3
vt 1.000002 5
vt 0.7500015 5
vt 2.125 -3
vt 1.875 -3
vt 2.124999 5
vt 1.874999 5
vt 0.7500024 -1.874997
vt 1.000003 -1.874998
vt 0.7500015 -2.125
vt 1.000002 -2.124999
vt -0.7499995 -2.125
vt -0.9999995 -2.125
vt -0.7499996 -1.875
vt -0.9999996 -1.875
vt 0.7500005 -2.125
vt 0.7500004 -1.875
vt 1 -2.125
vt 1 -1.875
vt -0.7499987 5
vt -0.7500005 -3
vt -0.9999987 5
vt -1 -3
vt 0.7500005 -3
vt 0.7499979 5
vt 1 -3
vt 0.9999979 5
vt -0.7499977 -1.875
vt -0.7499987 -2.125
vt -0.9999978 -1.874999
vt -0.9999987 -2.124999
vt 1.875 -3
vt 1.874997 5
vt 2.125 -3
vt 2.124999 5
vt -1.875002 5
vt -1.875003 -3
vt -2.125002 5
vt -2.125002 -3
vt -0.7499995 -3
vt -0.75 5
vt 0.7500005 -3
vt 0.7500002 5
g submesh0
f 1/1/1 2/2/2 3/3/3
f 2/2/2 4/4/4 3/3/3
f 5/5/5 6/6/6 7/7/7
f 6/6/6 8/8/8 7/7/7
f 9/9/9 10/10/10 11/11/11
f 10/10/10 12/12/12 11/11/11
f 13/13/13 14/14/14 15/15/15
f 14/14/14 16/16/16 15/15/15
f 17/17/17 18/18/18 19/19/19
f 18/18/18 20/20/20 19/19/19
f 21/21/21 22/22/22 23/23/23
f 22/22/22 24/24/24 23/23/23
f 25/25/25 26/26/26 27/27/27
f 26/26/26 28/28/28 27/27/27
f 29/29/29 30/30/30 31/31/31
f 30/30/30 32/32/32 31/31/31
f 33/33/33 34/34/34 35/35/35
f 34/34/34 36/36/36 35/35/35
f 37/37/37 38/38/38 39/39/39
f 38/38/38 40/40/40 39/39/39
f 41/41/41 42/42/42 43/43/43
f 42/42/42 44/44/44 43/43/43
f 45/45/45 46/46/46 47/47/47
f 46/46/46 48/48/48 47/47/47
g submesh1
f 49/49/49 50/50/50 51/51/51
f 50/50/50 52/52/52 51/51/51
