v 0.7499996 -3 0.2499999
v 0.9999996 -3 0.2499998
v 0.7500095 17 0.24998
v 1.00001 17 0.24998
v 0.9999996 -3 0.2499998
v 0.9999995 -3 -2.384186E-07
v 1.00001 17 0.24998
v 1.00001 17 -2.002716E-05
v 0.9999995 -3 -2.384186E-07
v 0.7499995 -3 -1.490116E-07
v 1.00001 17 -2.002716E-05
v 0.7500095 17 -2.005696E-05
v -1 -3 4.768372E-07
v -1 -3 0.2500005
v -0.9999983 17 -2.026558E-05
v -0.9999983 17 0.2499798
v 0.7500095 17 0.24998
v 1.00001 17 0.24998
v 0.7500095 17 -2.005696E-05
v 1.00001 17 -2.002716E-05
v 0.7499995 -3 -1.490116E-07
v 0.9999995 -3 -2.384186E-07
v 0.7499996 -3 0.2499999
v 0.9999996 -3 0.2499998
v -0.7500005 -3 3.874302E-07
v -0.7500004 -3 0.2500004
v -1 -3 4.768372E-07
v -1 -3 0.2500005
v -0.7499983 17 -2.023578E-05
v -0.7500005 -3 3.874302E-07
v -0.9999983 17 -2.026558E-05
v -1 -3 4.768372E-07
v -0.7500004 -3 0.2500004
v -0.7499983 17 0.2499798
v -1 -3 0.2500005
v -0.9999983 17 0.2499798
v -0.7499983 17 0.2499798
v -0.7499983 17 -2.023578E-05
v -0.9999983 17 0.2499798
v -0.9999983 17 -2.026558E-05
v 0.7499996 -3 0.2499999
v 0.7500095 17 0.24998
v 0.7499995 -3 -1.490116E-07
v 0.7500095 17 -2.005696E-05
v -0.7499983 17 0.2499798
v -0.7500004 -3 0.2500004
v -0.7499983 17 -2.023578E-05
v -0.7500005 -3 3.874302E-07
v 0.7499996 -3 0.1249999
v 0.7500095 17 0.12498
v -0.7500004 -3 0.1250004
v -0.7499983 17 0.1249798
vn 3.576279E-07 9.939073E-07 1
vn 1.192093E-07 9.909272E-07 1
vn 1.192093E-07 9.909272E-07 1
vn -1.192093E-07 9.87947E-07 1
vn 1 -4.94719E-07 -4.768372E-07
vn 1 -4.97699E-07 -2.384186E-07
vn 1 -4.97699E-07 -2.384186E-07
vn 1 -5.00679E-07 0
vn -3.576279E-07 -9.894369E-07 -1
vn -1.192093E-07 -9.924172E-07 -1
vn -1.192093E-07 -9.924172E-07 -1
vn 1.192093E-07 -9.953976E-07 -1
vn -1 1.072889E-07 4.768372E-07
vn -1 1.043084E-07 2.384186E-07
vn -1 1.043084E-07 2.384186E-07
vn -1 1.013279E-07 0
vn 0 1 0
vn 0 1 0
vn 0 1 0
vn 0 1 0
vn 0 -1 0
vn 0 -1 0
vn 0 -1 0
vn 0 -1 0
vn 0 -1 0
vn 0 -1 0
vn 0 -1 0
vn 0 -1 0
vn 1.192093E-07 -1.031161E-06 -1
vn -1.192093E-07 -1.034141E-06 -1
vn -1.192093E-07 -1.034141E-06 -1
vn -3.576279E-07 -1.037121E-06 -1
vn 3.576279E-07 1.02967E-06 1
vn 1.192093E-07 1.032651E-06 1
vn 1.192093E-07 1.032651E-06 1
vn -1.192093E-07 1.035631E-06 1
vn 0 1 0
vn 0 1 0
vn 0 1 0
vn 0 1 0
vn -1 4.917388E-07 4.768372E-07
vn -1 4.962088E-07 1.192093E-07
vn -1 4.962088E-07 1.192093E-07
vn -1 5.006788E-07 -2.384186E-07
vn 1 -1.013277E-07 2.384186E-07
vn 1 -1.057984E-07 -1.192093E-07
vn 1 -1.057984E-07 -1.192093E-07
vn 1 -1.102691E-07 -4.768372E-07
vn 3.576279E-07 9.946523E-07 1
vn 1.192096E-07 1.012534E-06 1
vn 1.192096E-07 1.012534E-06 1
vn -1.192087E-07 1.030415E-06 1
vt -0.7499996 -3
vt -0.9999996 -3
vt -0.7500094 17
vt -1.000009 17
vt -1.875 -3
vt -2.125 -3
vt -1.87502 17
vt -2.12502 17
vt 0.9999995 -3
vt 0.7499995 -3
vt 1.00001 17
vt 0.7500095 17
vt 2.125 -3
vt 1.875 -3
vt 2.125021 17
vt 1.875021 17
vt 0.7500095 -1.87502
vt 1.00001 -1.87502
vt 0.7500095 -2.12502
vt 1.00001 -2.12502
vt -0.7499995 -2.125
vt -0.9999995 -2.125
vt -0.7499996 -1.875
vt -0.9999996 -1.875
vt 0.7500005 -2.125
vt 0.7500004 -1.875
vt 1 -2.125
vt 1 -1.875
vt -0.7499983 17
vt -0.7500005 -3
vt -0.9999983 17
vt -1 -3
vt 0.7500005 -3
vt 0.7499984 17
vt 1 -3
vt 0.9999984 17
vt -0.7499983 -1.87502
vt -0.7499983 -2.12502
vt -0.9999983 -1.87502
vt -0.9999983 -2.12502
vt 1.875 -3
vt 1.87502 17
vt 2.125 -3
vt 2.12502 17
vt -1.87502 17
vt -1.874999 -3
vt -2.12502 17
vt -2.125 -3
vt -0.7499995 -3
vt -0.7500094 17
vt 0.7500005 -3
vt 0.7499984 17
g submesh0
f 1/1/1 2/2/2 3/3/3
f 2/2/2 4/4/4 3/3/3
f 5/5/5 6/6/6 7/7/7
f 6/6/6 8/8/8 7/7/7
f 9/9/9 10/10/10 11/11/11
f 10/10/10 12/12/12 11/11/11
f 13/13/13 14/14/14 15/15/15
f 14/14/14 16/16/16 15/15/15
f 17/17/17 18/18/18 19/19/19
f 18/18/18 20/20/20 19/19/19
f 21/21/21 22/22/22 23/23/23
f 22/22/22 24/24/24 23/23/23
f 25/25/25 26/26/26 27/27/27
f 26/26/26 28/28/28 27/27/27
f 29/29/29 30/30/30 31/31/31
f 30/30/30 32/32/32 31/31/31
f 33/33/33 34/34/34 35/35/35
f 34/34/34 36/36/36 35/35/35
f 37/37/37 38/38/38 39/39/39
f 38/38/38 40/40/40 39/39/39
f 41/41/41 42/42/42 43/43/43
f 42/42/42 44/44/44 43/43/43
f 45/45/45 46/46/46 47/47/47
f 46/46/46 48/48/48 47/47/47
g submesh1
f 49/49/49 50/50/50 51/51/51
f 50/50/50 52/52/52 51/51/51
