v 0.7499996 -3 0.2499999
v 0.9999996 -3 0.2499998
v 0.7499996 6 0.2500003
v 0.9999997 6 0.25
v 0.9999996 -3 0.2499998
v 0.9999995 -3 -2.384186E-07
v 0.9999997 6 0.25
v 0.9999995 6 -1.192035E-08
v 0.9999995 -3 -2.384186E-07
v 0.7499995 -3 -1.490116E-07
v 0.9999995 6 -1.192035E-08
v 0.7499995 6 2.861029E-07
v -1 -3 4.768372E-07
v -1 -3 0.2500005
v -1 6 4.649168E-07
v -1 6 0.2500005
v 0.7499996 6 0.2500003
v 0.9999997 6 0.25
v 0.7499995 6 2.861029E-07
v 0.9999995 6 -1.192035E-08
v 0.7499995 -3 -1.490116E-07
v 0.9999995 -3 -2.384186E-07
v 0.7499996 -3 0.2499999
v 0.9999996 -3 0.2499998
v -0.7500005 -3 3.874302E-07
v -0.7500004 -3 0.2500004
v -1 -3 4.768372E-07
v -1 -3 0.2500005
v -0.7500005 6 6.437307E-07
v -0.7500005 -3 3.874302E-07
v -1 6 4.649168E-07
v -1 -3 4.768372E-07
v -0.7500004 -3 0.2500004
v -0.7500004 6 0.2500007
v -1 -3 0.2500005
v -1 6 0.2500005
v -0.7500004 6 0.2500007
v -0.7500005 6 6.437307E-07
v -1 6 0.2500005
v -1 6 4.649168E-07
v 0.7499996 -3 0.2499999
v 0.7499996 6 0.2500003
v 0.7499995 -3 -1.490116E-07
v 0.7499995 6 2.861029E-07
v -0.7500004 6 0.2500007
v -0.7500004 -3 0.2500004
v -0.7500005 6 6.437307E-07
v -0.7500005 -3 3.874302E-07
v 0.7499996 -3 0.1249999
v 0.7499997 6 0.1250003
v -0.7500004 -3 0.1250004
v -0.7500004 6 0.1250006
vn 3.576279E-07 -4.967053E-08 1
vn 8.046624E-07 -3.725291E-08 1
vn 8.046624E-07 -3.725291E-08 1
vn 1.251697E-06 -2.483528E-08 1
vn 1 -6.622726E-09 -4.768372E-07
vn 1 -3.311354E-09 -5.960464E-07
vn 1 -3.311354E-09 -5.960464E-07
vn 1 1.800046E-14 -7.152557E-07
vn -3.576279E-07 2.516647E-08 -1
vn -7.748604E-07 3.675626E-08 -1
vn -7.748604E-07 3.675626E-08 -1
vn -1.192093E-06 4.834605E-08 -1
vn -1 6.315628E-16 4.768372E-07
vn -1 -6.622738E-09 2.384186E-07
vn -1 -6.622738E-09 2.384186E-07
vn -1 -1.324548E-08 0
vn 0 1 0
vn 0 1 0
vn 0 1 0
vn 0 1 0
vn 0 -1 0
vn 0 -1 0
vn 0 -1 0
vn 0 -1 0
vn 0 -1 0
vn 0 -1 0
vn 0 -1 0
vn 0 -1 0
vn 7.152557E-07 2.847784E-08 -1
vn 1.788139E-07 1.357668E-08 -1
vn 1.788139E-07 1.357668E-08 -1
vn -3.576279E-07 -1.324483E-09 -1
vn 3.576279E-07 -2.980232E-08 1
vn -1.788138E-07 -1.490116E-08 1
vn -1.788138E-07 -1.490116E-08 1
vn -7.152556E-07 -9.473901E-15 1
vn 0 1 0
vn 0 1 0
vn 0 1 0
vn 0 1 0
vn -1 -6.622762E-09 4.768372E-07
vn -1 -3.311387E-09 3.576279E-07
vn -1 -3.311387E-09 3.576279E-07
vn -1 -1.184238E-14 2.384186E-07
vn 1 6.622745E-09 -2.384186E-07
vn 1 3.311379E-09 -3.576279E-07
vn 1 3.311379E-09 -3.576279E-07
vn 1 1.342136E-14 -4.768372E-07
vn 3.576279E-07 -4.801486E-08 1
vn 2.980232E-07 -3.808075E-08 1
vn 2.980232E-07 -3.808075E-08 1
vn 2.384186E-07 -2.814664E-08 1
vt -0.7499996 -3
vt -0.9999996 -3
vt -0.7499995 6
vt -0.9999996 6
vt -1.875 -3
vt -2.125 -3
vt -1.875 6
vt -2.125 6
vt 0.9999995 -3
vt 0.7499995 -3
vt 0.9999995 6
vt 0.7499995 6
vt 2.125 -3
vt 1.875 -3
vt 2.125 6
vt 1.875 6
vt 0.7499996 -1.875
vt 0.9999997 -1.875
vt 0.7499995 -2.125
vt 0.9999995 -2.125
vt -0.7499995 -2.125
vt -0.9999995 -2.125
vt -0.7499996 -1.875
vt -0.9999996 -1.875
vt 0.7500005 -2.125
vt 0.7500004 -1.875
vt 1 -2.125
vt 1 -1.875
vt -0.7500005 6
vt -0.7500005 -3
vt -1 6
vt -1 -3
vt 0.7500005 -3
vt 0.7500005 6
vt 1 -3
vt 1.000001 6
vt -0.7500004 -1.874999
vt -0.7500005 -2.124999
vt -1 -1.875
vt -1 -2.125
vt 1.875 -3
vt 1.874999 6
vt 2.125 -3
vt 2.124999 6
vt -1.875 6
vt -1.875 -3
vt -2.125 6
vt -2.125 -3
vt -0.7499995 -3
vt -0.7499996 6
vt 0.7500005 -3
vt 0.7500004 6
g submesh0
f 1/1/1 2/2/2 3/3/3
f 2/2/2 4/4/4 3/3/3
f 5/5/5 6/6/6 7/7/7
f 6/6/6 8/8/8 7/7/7
f 9/9/9 10/10/10 11/11/11
f 10/10/10 12/12/12 11/11/11
f 13/13/13 14/14/14 15/15/15
f 14/14/14 16/16/16 15/15/15
f 17/17/17 18/18/18 19/19/19
f 18/18/18 20/20/20 19/19/19
f 21/21/21 22/22/22 23/23/23
f 22/22/22 24/24/24 23/23/23
f 25/25/25 26/26/26 27/27/27
f 26/26/26 28/28/28 27/27/27
f 29/29/29 30/30/30 31/31/31
f 30/30/30 32/32/32 31/31/31
f 33/33/33 34/34/34 35/35/35
f 34/34/34 36/36/36 35/35/35
f 37/37/37 38/38/38 39/39/39
f 38/38/38 40/40/40 39/39/39
f 41/41/41 42/42/42 43/43/43
f 42/42/42 44/44/44 43/43/43
f 45/45/45 46/46/46 47/47/47
f 46/46/46 48/48/48 47/47/47
g submesh1
f 49/49/49 50/50/50 51/51/51
f 50/50/50 52/52/52 51/51/51
