v 0.7499996 -3 0.2499999
v 0.9999996 -3 0.2499998
v 0.7499995 7 0.2500015
v 0.9999995 7 0.2500002
v 0.9999996 -3 0.2499998
v 0.9999995 -3 -2.384186E-07
v 0.9999995 7 0.2500002
v 0.9999995 7 1.810658E-07
v 0.9999995 -3 -2.384186E-07
v 0.7499995 -3 -1.490116E-07
v 0.9999995 7 1.810658E-07
v 0.7499995 7 1.52217E-06
v -1 -3 4.768372E-07
v -1 -3 0.2500005
v -1 7 3.280507E-06
v -1 7 0.2500033
v 0.7499995 7 0.2500015
v 0.9999995 7 0.2500002
v 0.7499995 7 1.52217E-06
v 0.9999995 7 1.810658E-07
v 0.7499995 -3 -1.490116E-07
v 0.9999995 -3 -2.384186E-07
v 0.7499996 -3 0.2499999
v 0.9999996 -3 0.2499998
v -0.7500005 -3 3.874302E-07
v -0.7500004 -3 0.2500004
v -1 -3 4.768372E-07
v -1 -3 0.2500005
v -0.7500005 7 1.939403E-06
v -0.7500005 -3 3.874302E-07
v -1 7 3.280507E-06
v -1 -3 4.768372E-07
v -0.7500004 -3 0.2500004
v -0.7500004 7 0.2500019
v -1 -3 0.2500005
v -1 7 0.2500033
v -0.7500004 7 0.2500019
v -0.7500005 7 1.939403E-06
v -1 7 0.2500033
v -1 7 3.280507E-06
v 0.7499996 -3 0.2499999
v 0.7499995 7 0.2500015
v 0.7499995 -3 -1.490116E-07
v 0.7499995 7 1.52217E-06
v -0.7500004 7 0.2500019
v -0.7500004 -3 0.2500004
v -0.7500005 7 1.939403E-06
v -0.7500005 -3 3.874302E-07
v 0.7499996 -3 0.1249999
v 0.7499997 7 0.1250015
v -0.7500004 -3 0.1250004
v -0.7500005 7 0.1250019
vn 3.576279E-07 -1.66893E-07 1
vn 2.861023E-06 -1.043081E-07 1
vn 2.861023E-06 -1.043081E-07 1
vn 5.364418E-06 -4.172315E-08 1
vn 1 1.788141E-08 -4.768372E-07
vn 1 8.940702E-09 -1.192093E-07
vn 1 8.940702E-09 -1.192093E-07
vn 1 -1.000129E-14 2.384186E-07
vn -3.576279E-07 4.194844E-08 -1
vn -2.861023E-06 1.045333E-07 -1
vn -2.861023E-06 1.045333E-07 -1
vn -5.364418E-06 1.671182E-07 -1
vn -1 -1.336894E-13 4.768372E-07
vn -1 -1.336357E-13 4.768372E-07
vn -1 -1.336357E-13 4.768372E-07
vn -1 -1.33582E-13 4.768372E-07
vn 0 1 0
vn 0 1 0
vn 0 1 0
vn 0 1 0
vn 0 -1 0
vn 0 -1 0
vn 0 -1 0
vn 0 -1 0
vn 0 -1 0
vn 0 -1 0
vn 0 -1 0
vn 0 -1 0
vn -5.364418E-06 1.551973E-07 -1
vn -2.861023E-06 2.177821E-07 -1
vn -2.861023E-06 2.177821E-07 -1
vn -3.576279E-07 2.80367E-07 -1
vn 3.576279E-07 -1.549721E-07 1
vn 2.861023E-06 -2.175569E-07 1
vn 2.861023E-06 -2.175569E-07 1
vn 5.364418E-06 -2.801418E-07 1
vn 0 1 0
vn 0 1 0
vn 0 1 0
vn 0 1 0
vn -1 -1.788147E-08 4.768372E-07
vn -1 -8.940717E-09 1.192093E-07
vn -1 -8.940717E-09 1.192093E-07
vn -1 3.979039E-14 -2.384186E-07
vn 1 7.389644E-14 -4.768372E-07
vn 1 7.389644E-14 -4.768372E-07
vn 1 7.389644E-14 -4.768372E-07
vn 1 7.389644E-14 -4.768372E-07
vn 3.576279E-07 -1.66893E-07 1
vn 3.178914E-07 -1.609325E-07 1
vn 3.178914E-07 -1.609325E-07 1
vn 2.78155E-07 -1.549721E-07 1
vt -0.7499996 -3
vt -0.9999996 -3
vt -0.7499993 7
vt -0.9999993 7
vt -1.875 -3
vt -2.125 -3
vt -1.874999 7
vt -2.124999 7
vt 0.9999995 -3
vt 0.7499995 -3
vt 0.9999995 7
vt 0.7499995 7
vt 2.125 -3
vt 1.875 -3
vt 2.124997 7
vt 1.874997 7
vt 0.7499995 -1.874998
vt 0.9999995 -1.875
vt 0.7499995 -2.124999
vt 0.9999995 -2.125
vt -0.7499995 -2.125
vt -0.9999995 -2.125
vt -0.7499996 -1.875
vt -0.9999996 -1.875
vt 0.7500005 -2.125
vt 0.7500004 -1.875
vt 1 -2.125
vt 1 -1.875
vt -0.7500005 7
vt -0.7500005 -3
vt -1 7
vt -1 -3
vt 0.7500005 -3
vt 0.7500005 7
vt 1 -3
vt 1 7
vt -0.7500004 -1.874998
vt -0.7500005 -2.124998
vt -1 -1.874997
vt -1 -2.124997
vt 1.875 -3
vt 1.874998 7
vt 2.125 -3
vt 2.124998 7
vt -1.874998 7
vt -1.875 -3
vt -2.124998 7
vt -2.125 -3
vt -0.7499995 -3
vt -0.7499996 7
vt 0.7500005 -3
vt 0.7500006 7
g submesh0
f 1/1/1 2/2/2 3/3/3
f 2/2/2 4/4/4 3/3/3
f 5/5/5 6/6/6 7/7/7
f 6/6/6 8/8/8 7/7/7
f 9/9/9 10/10/10 11/11/11
f 10/10/10 12/12/12 11/11/11
f 13/13/13 14/14/14 15/15/15
f 14/14/14 16/16/16 15/15/15
f 17/17/17 18/18/18 19/19/19
f 18/18/18 20/20/20 19/19/19
f 21/21/21 22/22/22 23/23/23
f 22/22/22 24/24/24 23/23/23
f 25/25/25 26/26/26 27/27/27
f 26/26/26 28/28/28 27/27/27
f 29/29/29 30/30/30 31/31/31
f 30/30/30 32/32/32 31/31/31
f 33/33/33 34/34/34 35/35/35
f 34/34/34 36/36/36 35/35/35
f 37/37/37 38/38/38 39/39/39
f 38/38/38 40/40/40 39/39/39
f 41/41/41 42/42/42 43/43/43
f 42/42/42 44/44/44 43/43/43
f 45/45/45 46/46/46 47/47/47
f 46/46/46 48/48/48 47/47/47
g submesh1
f 49/49/49 50/50/50 51/51/51
f 50/50/50 52/52/52 51/51/51
