v -2.000001 -2.000001 -4.666668
v -2 -2 2
v -2.000001 -1.500001 -4.000001
v -2 -1.5 1.5
v -2.000004 7.666666 -4.666668
v -2.000004 6.999999 -4.000001
v -2 -2 2
v -2.000001 7.666666 1.999999
v -2 -1.5 1.5
v -2.000001 6.999999 1.499999
v -2.000001 -1.500001 -4.000001
v -2 -1.5 1.5
v -1.750001 -1.500001 -4.000001
v -1.75 -1.5 1.5
v -2.000004 6.999999 -4.000001
v -2.000001 -1.500001 -4.000001
v -1.750004 6.999999 -4.000001
v -1.750001 -1.500001 -4.000001
v -2 -1.5 1.5
v -2.000001 6.999999 1.499999
v -1.75 -1.5 1.5
v -1.750001 6.999999 1.499999
v -2.000001 6.999999 1.499999
v -2.000004 6.999999 -4.000001
v -1.750001 6.999999 1.499999
v -1.750004 6.999999 -4.000001
v -2.000001 7.666666 1.999999
v 1.999999 7.666666 1.999999
v -1.500001 7.666666 1.499999
v 1.499999 7.666666 1.499999
v -2.000004 7.666666 -4.666668
v -1.500004 7.666666 -4.000001
v 1.999996 7.666666 -4.666668
v 1.499996 7.666666 -4.000001
v -1.500001 7.666666 1.499999
v 1.499999 7.666666 1.499999
v -1.500001 7.333333 1.499999
v 1.499999 7.333333 1.499999
v -1.500004 7.666666 -4.000001
v -1.500001 7.666666 1.499999
v -1.500004 7.333333 -4.000001
v -1.500001 7.333333 1.499999
v 1.499999 7.666666 1.499999
v 1.499996 7.666666 -4.000001
v 1.499999 7.333333 1.499999
v 1.499996 7.333333 -4.000001
v 1.499996 7.666666 -4.000001
v -1.500004 7.666666 -4.000001
v 1.499996 7.333333 -4.000001
v -1.500004 7.333333 -4.000001
v -2 -2 2
v 2 -2 2
v -1.5 -1.5 2
v 1.5 -1.5 2
v -2.000001 7.666666 1.999999
v -1.500001 6.999999 1.999999
v 2 -2 2
v 1.999999 7.666666 1.999999
v 1.5 -1.5 2
v 1.499999 6.999999 1.999999
v -1.5 -1.5 2
v 1.5 -1.5 2
v -1.5 -1.5 1.75
v 1.5 -1.5 1.75
v -1.500001 6.999999 1.999999
v -1.5 -1.5 2
v -1.500001 6.999999 1.749999
v -1.5 -1.5 1.75
v 1.5 -1.5 2
v 1.499999 6.999999 1.999999
v 1.5 -1.5 1.75
v 1.499999 6.999999 1.749999
v 1.499999 6.999999 1.999999
v -1.500001 6.999999 1.999999
v 1.499999 6.999999 1.749999
v -1.500001 6.999999 1.749999
v 2 -2 2
v 1.999999 -2.000001 -4.666668
v 2 -1.5 1.5
v 1.999999 -1.500001 -4.000001
v 1.999999 7.666666 1.999999
v 2 -2 2
v 1.999999 6.999999 1.499999
v 2 -1.5 1.5
v 1.999996 7.666666 -4.666668
v 1.999996 6.999999 -4.000001
v 1.999996 6.999999 -4.000001
v 1.999999 6.999999 1.499999
v 2 -1.5 1.5
v 1.999999 -1.500001 -4.000001
v 1.75 -1.5 1.5
v 1.749999 -1.500001 -4.000001
v 1.999999 6.999999 1.499999
v 2 -1.5 1.5
v 1.749999 6.999999 1.499999
v 1.75 -1.5 1.5
v 1.999999 -1.500001 -4.000001
v 1.999996 6.999999 -4.000001
v 1.749999 -1.500001 -4.000001
v 1.749996 6.999999 -4.000001
v 1.999996 6.999999 -4.000001
v 1.999999 6.999999 1.499999
v 1.749996 6.999999 -4.000001
v 1.749999 6.999999 1.499999
v 1.999999 -2.000001 -4.666668
v -2.000001 -2.000001 -4.666668
v 1.499999 -1.500001 -4.666668
v -1.500001 -1.500001 -4.666668
v 1.999996 7.666666 -4.666668
v 1.499996 6.999999 -4.666668
v -2.000004 7.666666 -4.666668
v -1.500004 6.999999 -4.666668
v 1.499999 -1.500001 -4.666668
v -1.500001 -1.500001 -4.666668
v 1.499999 -1.500001 -4.333334
v -1.500001 -1.500001 -4.333334
v 1.499996 6.999999 -4.666668
v 1.499999 -1.500001 -4.666668
v 1.499996 6.999999 -4.333334
v 1.499999 -1.500001 -4.333334
v -1.500001 -1.500001 -4.666668
v -1.500004 6.999999 -4.666668
v -1.500001 -1.500001 -4.333334
v -1.500004 6.999999 -4.333334
v -1.500004 6.999999 -4.666668
v 1.499996 6.999999 -4.666668
v -1.500004 6.999999 -4.333334
v 1.499996 6.999999 -4.333334
v -2.000001 -2.000001 -4.666668
v 1.999999 -2.000001 -4.666668
v -1.500001 -2.000001 -4.000001
v 1.499999 -2.000001 -4.000001
v -2 -2 2
v -1.5 -2 1.5
v 2 -2 2
v 1.5 -2 1.5
v 2 -2 2
v -2 -2 2
v 1.5 -2 1.5
v -1.5 -2 1.5
v -1.500001 -2.000001 -4.000001
v 1.499999 -2.000001 -4.000001
v -1.500001 -1.750001 -4.000001
v 1.499999 -1.750001 -4.000001
v -1.5 -2 1.5
v -1.500001 -2.000001 -4.000001
v -1.5 -1.75 1.5
v -1.500001 -1.750001 -4.000001
v 1.499999 -2.000001 -4.000001
v 1.5 -2 1.5
v 1.499999 -1.750001 -4.000001
v 1.5 -1.75 1.5
v 1.5 -2 1.5
v -1.5 -2 1.5
v 1.5 -1.75 1.5
v -1.5 -1.75 1.5
v -1.5 -1.5 1.75
v 1.5 -1.5 1.75
v -1.500001 6.999999 1.749999
v 1.499999 6.999999 1.749999
v 1.75 -1.5 1.5
v 1.749999 -1.500001 -4.000001
v 1.749999 6.999999 1.499999
v 1.749996 6.999999 -4.000001
v 1.499999 -1.500001 -4.333334
v -1.500001 -1.500001 -4.333334
v 1.499996 6.999999 -4.333334
v -1.500004 6.999999 -4.333334
v -1.750001 -1.500001 -4.000001
v -1.75 -1.5 1.5
v -1.750004 6.999999 -4.000001
v -1.750001 6.999999 1.499999
v -1.500001 7.333333 1.499999
v 1.499999 7.333333 1.499999
v -1.500004 7.333333 -4.000001
v 1.499996 7.333333 -4.000001
v -1.500001 -1.750001 -4.000001
v 1.499999 -1.750001 -4.000001
v -1.5 -1.75 1.5
v 1.5 -1.75 1.5
vn -1 -2.861024E-07 2.145767E-07
vn -1 -1.300477E-08 2.373348E-07
vn -1 -1.300477E-08 2.373348E-07
vn -1 2.600929E-07 2.600929E-07
vn -1 -2.713039E-07 -2.713037E-07
vn -1 -2.899228E-07 -1.994878E-08
vn -1 -1.47984E-07 -1.47984E-07
vn -1 -1.581397E-07 3.820495E-08
vn -1 -1.581397E-07 3.820495E-08
vn -1 -1.682954E-07 2.243939E-07
vn 0 1 -2.167441E-07
vn 0 1 -2.167441E-07
vn 0 1 -2.167441E-07
vn 0 1 -2.167441E-07
vn 0 0 1
vn 0 0 1
vn 0 0 1
vn 0 0 1
vn 0 -9.817236E-08 -1
vn 0 -9.817236E-08 -1
vn 0 -9.817236E-08 -1
vn 0 -9.817236E-08 -1
vn 0 -1 0
vn 0 -1 0
vn 0 -1 0
vn 0 -1 0
vn 0 1 0
vn 0 1 0
vn 0 1 0
vn 0 1 0
vn 0 1 0
vn 0 1 0
vn 0 1 0
vn 0 1 0
vn 0 0 -1
vn 0 0 -1
vn 0 0 -1
vn 0 0 -1
vn 1 0 -4.551627E-07
vn 1 0 -4.551627E-07
vn 1 0 -4.551627E-07
vn 1 0 -4.551627E-07
vn -1 0 4.551627E-07
vn -1 0 4.551627E-07
vn -1 0 4.551627E-07
vn -1 0 4.551627E-07
vn 0 0 1
vn 0 0 1
vn 0 0 1
vn 0 0 1
vn 0 0 1
vn 0 0 1
vn 0 0 1
vn 0 0 1
vn 1.150986E-07 8.632399E-08 1
vn 8.463136E-09 9.224817E-08 1
vn 8.632398E-08 8.632398E-08 1
vn -2.228622E-08 9.224816E-08 1
vn -2.228622E-08 9.224816E-08 1
vn -1.308964E-07 9.817234E-08 1
vn 0 1 0
vn 0 1 0
vn 0 1 0
vn 0 1 0
vn 1 1.682955E-07 0
vn 1 1.682955E-07 0
vn 1 1.682955E-07 0
vn 1 1.682955E-07 0
vn -1 -1.542709E-07 0
vn -1 -1.542709E-07 0
vn -1 -1.542709E-07 0
vn -1 -1.542709E-07 0
vn 0 -1 0
vn 0 -1 0
vn 0 -1 0
vn 0 -1 0
vn 1 -1.966953E-07 -1.966953E-07
vn 1 6.059818E-08 -2.175569E-07
vn 1 6.059818E-08 -2.175569E-07
vn 1 3.178916E-07 -2.384186E-07
vn 1 1.356519E-07 -1.808692E-07
vn 1 1.449614E-07 -1.329917E-08
vn 1 1.449614E-07 -1.329917E-08
vn 1 1.542709E-07 1.542709E-07
vn 1 2.767445E-07 5.014399E-08
vn 1 2.94517E-07 2.945168E-07
vn 1 -1.706869E-08 -4.15336E-07
vn 1 3.413721E-07 -4.551627E-07
vn 0 1 -2.167441E-07
vn 0 1 -2.167441E-07
vn 0 1 -2.167441E-07
vn 0 1 -2.167441E-07
vn 0 -9.817236E-08 -1
vn 0 -9.817236E-08 -1
vn 0 -9.817236E-08 -1
vn 0 -9.817236E-08 -1
vn 0 0 1
vn 0 0 1
vn 0 0 1
vn 0 0 1
vn 0 -1 0
vn 0 -1 0
vn 0 -1 0
vn 0 -1 0
vn 0 0 -1
vn 0 0 -1
vn 0 0 -1
vn 0 0 -1
vn 0 0 -1
vn 0 0 -1
vn 0 0 -1
vn 0 0 -1
vn 0 1 0
vn 0 1 0
vn 0 1 0
vn 0 1 0
vn -1 -2.945171E-07 0
vn -1 -2.945171E-07 0
vn -1 -2.945171E-07 0
vn -1 -2.945171E-07 0
vn 1 2.945171E-07 0
vn 1 2.945171E-07 0
vn 1 2.945171E-07 0
vn 1 2.945171E-07 0
vn 0 -1 0
vn 0 -1 0
vn 0 -1 0
vn 0 -1 0
vn 0 -1 0
vn 0 -1 0
vn 0 -1 0
vn 0 -1 0
vn 1.788139E-07 -1 1.788139E-07
vn -5.508927E-08 -1 1.97779E-07
vn 1.08372E-08 -1 1.97779E-07
vn -2.167442E-07 -1 2.167442E-07
vn 0 -1 0
vn 0 -1 0
vn 0 -1 0
vn 0 -1 0
vn 0 0 1
vn 0 0 1
vn 0 0 1
vn 0 0 1
vn 1 0 -2.600929E-07
vn 1 0 -2.600929E-07
vn 1 0 -2.600929E-07
vn 1 0 -2.600929E-07
vn -1 0 2.384185E-07
vn -1 0 2.384185E-07
vn -1 0 2.384185E-07
vn -1 0 2.384185E-07
vn 0 0 -1
vn 0 0 -1
vn 0 0 -1
vn 0 0 -1
vn 0 9.817237E-08 1
vn 0 9.817236E-08 1
vn 0 9.817236E-08 1
vn 0 9.817236E-08 1
vn 1 1.542708E-07 -2.384186E-07
vn 1 2.243939E-07 -3.467906E-07
vn 1 2.243939E-07 -3.467906E-07
vn 1 2.945171E-07 -4.551627E-07
vn 0 0 -1
vn 0 0 -1
vn 0 0 -1
vn 0 0 -1
vn -1 -2.945171E-07 2.60093E-07
vn -1 -2.314063E-07 3.576279E-07
vn -1 -2.314063E-07 3.576279E-07
vn -1 -1.682954E-07 4.551627E-07
vn 0 1 0
vn 0 1 0
vn 0 1 0
vn 0 1 0
vn 0 -1 2.167441E-07
vn 0 -1 2.167441E-07
vn 0 -1 2.167441E-07
vn 0 -1 2.167441E-07
vt 4.666668 -2.000001
vt -2 -1.999999
vt 4.000001 -1.500001
vt -1.5 -1.499999
vt 4.666667 7.666666
vt 4 7
vt -2 -2
vt -1.999999 7.666666
vt -1.5 -1.5
vt -1.499999 7
vt -2.000001 -4.000001
vt -2 1.5
vt -1.750001 -4.000001
vt -1.75 1.5
vt 2.000004 6.999999
vt 2.000001 -1.500001
vt 1.750004 6.999999
vt 1.750001 -1.500001
vt -2 -1.5
vt -2.000001 6.999999
vt -1.75 -1.5
vt -1.750001 6.999999
vt 2.000001 1.499999
vt 2.000004 -4.000001
vt 1.750001 1.499999
vt 1.750004 -4.000001
vt -2.000001 1.999999
vt 1.999999 1.999999
vt -1.500001 1.499999
vt 1.499999 1.499999
vt -2.000004 -4.666668
vt -1.500004 -4.000001
vt 1.999996 -4.666668
vt 1.499996 -4.000001
vt -1.500001 7.666666
vt 1.499999 7.666666
vt -1.500001 7.333333
vt 1.499999 7.333333
vt -4.000001 7.666666
vt 1.499998 7.666666
vt -4.000001 7.333333
vt 1.499998 7.333333
vt -1.5 7.666666
vt 4 7.666666
vt -1.5 7.333333
vt 4 7.333333
vt -1.499996 7.666666
vt 1.500004 7.666666
vt -1.499996 7.333333
vt 1.500004 7.333333
vt 2 -2
vt -2 -2
vt 1.5 -1.5
vt -1.5 -1.5
vt 2.000002 7.666666
vt 1.500002 6.999999
vt -2 -2
vt -1.999999 7.666666
vt -1.5 -1.5
vt -1.499999 6.999999
vt -1.5 2
vt 1.5 2
vt -1.5 1.75
vt 1.5 1.75
vt 1.999999 7
vt 2 -1.5
vt 1.749999 7
vt 1.75 -1.5
vt -2 -1.5
vt -1.999999 6.999999
vt -1.75 -1.5
vt -1.749999 6.999999
vt -1.499999 1.999999
vt 1.500001 1.999999
vt -1.499999 1.749999
vt 1.500001 1.749999
vt 2 -2
vt -4.666667 -2.000001
vt 1.5 -1.5
vt -4 -1.500001
vt 2 7.666665
vt 2 -2
vt 1.5 6.999999
vt 1.5 -1.5
vt -4.666667 7.666665
vt -4 6.999999
vt -4 7
vt 1.5 7
vt 2 1.5
vt 1.999999 -4.000001
vt 1.75 1.5
vt 1.749999 -4.000001
vt 1.999999 6.999999
vt 2 -1.5
vt 1.749999 6.999999
vt 1.75 -1.5
vt -1.999999 -1.500001
vt -1.999996 6.999999
vt -1.749999 -1.500001
vt -1.749996 6.999999
vt -1.999996 -4.000001
vt -1.999999 1.499999
vt -1.749996 -4.000001
vt -1.749999 1.499999
vt 1.999999 -2.000001
vt -2.000001 -2.000001
vt 1.499999 -1.500001
vt -1.500001 -1.500001
vt 1.999996 7.666666
vt 1.499996 6.999999
vt -2.000004 7.666666
vt -1.500004 6.999999
vt 1.499999 -4.666668
vt -1.500001 -4.666668
vt 1.499999 -4.333334
vt -1.500001 -4.333334
vt 4.666668 6.999999
vt 4.666668 -1.500002
vt 4.333334 6.999999
vt 4.333334 -1.500002
vt -4.666668 -1.500001
vt -4.666668 7
vt -4.333334 -1.500001
vt -4.333334 7
vt 1.500004 -4.666668
vt -1.499996 -4.666668
vt 1.500004 -4.333334
vt -1.499996 -4.333334
vt 2.000001 -4.666668
vt -1.999999 -4.666668
vt 1.500001 -4.000001
vt -1.499999 -4.000001
vt 2 2
vt 1.5 1.5
vt -2 2
vt -1.5 1.5
vt -2 2
vt 2 2
vt -1.5 1.5
vt 1.5 1.5
vt 1.500001 -2.000001
vt -1.499999 -2.000001
vt 1.500001 -1.750001
vt -1.499999 -1.750001
vt 1.5 -2
vt -4.000001 -2.000001
vt 1.5 -1.75
vt -4.000001 -1.750001
vt 4 -2.000001
vt -1.5 -2
vt 4 -1.750001
vt -1.5 -1.75
vt 1.5 -2
vt -1.5 -2
vt 1.5 -1.75
vt -1.5 -1.75
vt 1.5 -1.5
vt -1.5 -1.5
vt 1.500001 6.999999
vt -1.499999 6.999999
vt 1.5 -1.5
vt -4 -1.500001
vt 1.5 6.999999
vt -4 6.999999
vt 1.499999 -1.500001
vt -1.500001 -1.500001
vt 1.499996 6.999999
vt -1.500004 6.999999
vt 4.000001 -1.500001
vt -1.5 -1.5
vt 4.000001 7
vt -1.499999 7
vt -1.500001 1.499999
vt 1.499999 1.499999
vt -1.500004 -4.000001
vt 1.499996 -4.000001
vt 1.500001 -4.000001
vt -1.499999 -4.000001
vt 1.5 1.5
vt -1.5 1.5
g submesh0
f 1/1/1 2/2/2 3/3/3
f 2/2/2 4/4/4 3/3/3
f 5/5/5 1/1/1 6/6/6
f 1/1/1 3/3/3 6/6/6
f 7/7/7 8/8/8 9/9/9
f 8/8/8 10/10/10 9/9/9
f 8/8/8 5/5/5 10/10/10
f 5/5/5 6/6/6 10/10/10
f 11/11/11 12/12/12 13/13/13
f 12/12/12 14/14/14 13/13/13
f 15/15/15 16/16/16 17/17/17
f 16/16/16 18/18/18 17/17/17
f 19/19/19 20/20/20 21/21/21
f 20/20/20 22/22/22 21/21/21
f 23/23/23 24/24/24 25/25/25
f 24/24/24 26/26/26 25/25/25
f 27/27/27 28/28/28 29/29/29
f 28/28/28 30/30/30 29/29/29
f 31/31/31 27/27/27 32/32/32
f 27/27/27 29/29/29 32/32/32
f 28/28/28 33/33/33 30/30/30
f 33/33/33 34/34/34 30/30/30
f 33/33/33 31/31/31 34/34/34
f 31/31/31 32/32/32 34/34/34
f 35/35/35 36/36/36 37/37/37
f 36/36/36 38/38/38 37/37/37
f 39/39/39 40/40/40 41/41/41
f 40/40/40 42/42/42 41/41/41
f 43/43/43 44/44/44 45/45/45
f 44/44/44 46/46/46 45/45/45
f 47/47/47 48/48/48 49/49/49
f 48/48/48 50/50/50 49/49/49
f 51/51/51 52/52/52 53/53/53
f 52/52/52 54/54/54 53/53/53
f 55/55/55 51/51/51 56/56/56
f 51/51/51 53/53/53 56/56/56
f 57/57/57 58/58/58 59/59/59
f 58/58/58 60/60/60 59/59/59
f 58/58/58 55/55/55 60/60/60
f 55/55/55 56/56/56 60/60/60
f 61/61/61 62/62/62 63/63/63
f 62/62/62 64/64/64 63/63/63
f 65/65/65 66/66/66 67/67/67
f 66/66/66 68/68/68 67/67/67
f 69/69/69 70/70/70 71/71/71
f 70/70/70 72/72/72 71/71/71
f 73/73/73 74/74/74 75/75/75
f 74/74/74 76/76/76 75/75/75
f 77/77/77 78/78/78 79/79/79
f 78/78/78 80/80/80 79/79/79
f 81/81/81 82/82/82 83/83/83
f 82/82/82 84/84/84 83/83/83
f 78/78/78 85/85/85 80/80/80
f 85/85/85 86/86/86 80/80/80
f 85/85/85 81/81/81 87/87/87
f 81/81/81 88/88/88 87/87/87
f 89/89/89 90/90/90 91/91/91
f 90/90/90 92/92/92 91/91/91
f 93/93/93 94/94/94 95/95/95
f 94/94/94 96/96/96 95/95/95
f 97/97/97 98/98/98 99/99/99
f 98/98/98 100/100/100 99/99/99
f 101/101/101 102/102/102 103/103/103
f 102/102/102 104/104/104 103/103/103
f 105/105/105 106/106/106 107/107/107
f 106/106/106 108/108/108 107/107/107
f 109/109/109 105/105/105 110/110/110
f 105/105/105 107/107/107 110/110/110
f 106/106/106 111/111/111 108/108/108
f 111/111/111 112/112/112 108/108/108
f 111/111/111 109/109/109 112/112/112
f 109/109/109 110/110/110 112/112/112
f 113/113/113 114/114/114 115/115/115
f 114/114/114 116/116/116 115/115/115
f 117/117/117 118/118/118 119/119/119
f 118/118/118 120/120/120 119/119/119
f 121/121/121 122/122/122 123/123/123
f 122/122/122 124/124/124 123/123/123
f 125/125/125 126/126/126 127/127/127
f 126/126/126 128/128/128 127/127/127
f 129/129/129 130/130/130 131/131/131
f 130/130/130 132/132/132 131/131/131
f 133/133/133 129/129/129 134/134/134
f 129/129/129 131/131/131 134/134/134
f 130/130/130 135/135/135 132/132/132
f 135/135/135 136/136/136 132/132/132
f 137/137/137 138/138/138 139/139/139
f 138/138/138 140/140/140 139/139/139
f 141/141/141 142/142/142 143/143/143
f 142/142/142 144/144/144 143/143/143
f 145/145/145 146/146/146 147/147/147
f 146/146/146 148/148/148 147/147/147
f 149/149/149 150/150/150 151/151/151
f 150/150/150 152/152/152 151/151/151
f 153/153/153 154/154/154 155/155/155
f 154/154/154 156/156/156 155/155/155
g submesh1
f 157/157/157 158/158/158 159/159/159
f 158/158/158 160/160/160 159/159/159
f 161/161/161 162/162/162 163/163/163
f 162/162/162 164/164/164 163/163/163
f 165/165/165 166/166/166 167/167/167
f 166/166/166 168/168/168 167/167/167
f 169/169/169 170/170/170 171/171/171
f 170/170/170 172/172/172 171/171/171
f 173/173/173 174/174/174 175/175/175
f 174/174/174 176/176/176 175/175/175
f 177/177/177 178/178/178 179/179/179
f 178/178/178 180/180/180 179/179/179
