v 0 1.75 0
v 2 1.75 0
v 0 2 0
v 2 2 0
v 2 1.75 0
v 1.999972 3.75 -10.00001
v 2 2 0
v 1.999972 4 -10.00001
v 1.999972 3.75 -10.00001
v -2.813339E-05 3.75 -10
v 1.999972 4 -10.00001
v -2.813339E-05 4 -10
v -2.813339E-05 3.75 -10
v 0 1.75 0
v -2.813339E-05 4 -10
v 0 2 0
v 0 2 0
v 2 2 0
v -2.813339E-05 4 -10
v 1.999972 4 -10.00001
v -2.813339E-05 3.75 -10
v 1.999972 3.75 -10.00001
v 0 1.75 0
v 2 1.75 0
vn 0 0 1
vn 0 0 1
vn 0 0 1
vn 0 0 1
vn 1 0 -2.813338E-06
vn 1 0 -2.813338E-06
vn 1 0 -2.813338E-06
vn 1 0 -2.813338E-06
vn -2.861023E-06 0 -1
vn -2.861023E-06 0 -1
vn -2.861023E-06 0 -1
vn -2.861023E-06 0 -1
vn -1 0 2.813339E-06
vn -1 0 2.813339E-06
vn -1 0 2.813339E-06
vn -1 0 2.813339E-06
vn 0 0.9805807 0.1961161
vn 2.805462E-07 0.9805807 0.1961161
vn 2.805462E-07 0.9805807 0.1961161
vn 5.610925E-07 0.9805807 0.196116
vn -5.610927E-07 -0.9805807 -0.1961161
vn -2.805464E-07 -0.9805807 -0.1961161
vn -2.805464E-07 -0.9805807 -0.1961161
vn 0 -0.9805807 -0.196116
vt 0 1.75
vt -2 1.75
vt 0 2
vt -2 2
vt 5.626675E-06 1.75
vt -10 3.75
vt 5.626675E-06 2
vt -10 4
vt 2 3.75
vt 4.768372E-07 3.75
vt 2 4
vt 4.768372E-07 4
vt 10 3.75
vt 0 1.75
vt 10 4
vt 0 2
vt 0 -0.3922323
vt 2 -0.3922323
vt -2.813339E-05 -10.59027
vt 1.999972 -10.59028
vt 3.027916E-05 -10.54124
vt -1.99997 -10.54125
vt 1.001358E-06 -0.3432032
vt -1.999999 -0.3432035
g submesh0
f 1/1/1 2/2/2 3/3/3
f 2/2/2 4/4/4 3/3/3
f 5/5/5 6/6/6 7/7/7
f 6/6/6 8/8/8 7/7/7
f 9/9/9 10/10/10 11/11/11
f 10/10/10 12/12/12 11/11/11
f 13/13/13 14/14/14 15/15/15
f 14/14/14 16/16/16 15/15/15
f 17/17/17 18/18/18 19/19/19
f 18/18/18 20/20/20 19/19/19
f 21/21/21 22/22/22 23/23/23
f 22/22/22 24/24/24 23/23/23
