v -10 -14 -6
v -6 -14 -10
v -6 -14 -6
v -10 -14 -10
v -10 -14 6
v -6 -14 6
v -10 -14 10
v -6 -14 10
v 6 -14 -6
v 10 -14 -10
v 10 -14 -6
v 6 -14 -10
v 6 -14 6
v 10 -14 6
v 6 -14 10
v 10 -14 10
v 10 1 -5
v 10 1 5
v 15 1 -5
v 15 1 5
v -6 14 -10
v -10 14 -10
v -10 14 -6
v -6 14 -7
v -10 14 6
v -6 14 7
v -10 14 10
v -6 14 10
v 10 14 -10
v 6 14 -10
v 6 14 -7
v 10 14 -6
v 6 14 7
v 10 14 6
v 6 15 -6
v -6 15 -6
v -6 15 6
v 6 15 6
v 6 14 10
v 10 14 10
v 8 14 -8
v -8 14 -8
v 8 14 -8
v -8 14 -8
v -8 14 -8
v 8 14 -8
v -8 14 -8
v -8 14 8
v -8 14 -8
v -8 14 8
v -8 14 8
v -8 14 -8
v 8 14 8
v 8 14 -8
v 8 14 8
v 8 14 -8
v 8 14 -8
v 8 14 8
v -8 14 8
v 8 14 8
v -8 14 8
v 8 14 8
v 8 14 8
v -8 14 8
v 6 14 7
v 6 14 -7
v 8 14 8
v 8 14 -8
v 6 15 6
v -6 15 6
v 8 14 8
v -8 14 8
v 6 15 -6
v 6 15 6
v 8 14 -8
v 8 14 8
v -6 14 -7
v -8 14 -8
v -6 15 -6
v 6 15 -6
v -8 14 -8
v 8 14 -8
v -6 14 7
v -8 14 8
v -6 15 6
v -6 15 -6
v -8 14 8
v -8 14 -8
v 0 -6 -10
v -6 -6 -10
v 0 -6 -7.5
v -6 -6 -7.5
v 10 0 -6
v 10 0 -10
v 10 2 -10
v 10 2 -6
v 10 14 -10
v 10 14 -6
v -10 2 -10
v -10 0 -6
v -10 2 -6
v -10 0 -10
v -10 14 -10
v -10 14 -6
v 10 0 10
v 10 0 6
v 10 2 6
v 10 2 10
v 16 0 6
v 16 0 -6
v 16 2 -6
v 16 2 6
v 10 14 6
v 10 14 10
v -10 2 6
v -10 0 10
v -10 2 10
v -10 0 6
v -10 14 6
v -10 14 10
v 10 0 6
v 10 0 -6
v 16 0 6
v 16 0 -6
v 10 0 -6
v 10 2 -6
v 16 0 -6
v 16 2 -6
v 10 2 6
v 10 0 6
v 16 2 6
v 16 0 6
v 10 2 -6
v 10 2 6
v 10 2 -5
v 10 2 6
v 10 2 5
v 10 2 -5
v 16 2 -6
v 10 2 -6
v 15 2 -5
v 10 2 -5
v 10 2 6
v 16 2 6
v 10 2 5
v 15 2 5
v 10 2 -5
v 10 2 5
v 10 1 -5
v 10 1 5
v 15 2 -5
v 10 2 -5
v 15 1 -5
v 10 1 -5
v 10 2 5
v 15 2 5
v 10 1 5
v 15 1 5
v 15 2 5
v 15 2 -5
v 15 1 5
v 15 1 -5
v -10 0 10
v -6 0 10
v -6 2 10
v -10 2 10
v -6 14 10
v -10 14 10
v -6 2 -10
v -10 0 -10
v -10 2 -10
v -6 0 -10
v -6 14 -10
v -10 14 -10
v 6 0 10
v 6 2 10
v 10 0 10
v 10 2 10
v 6 14 10
v 10 14 10
v 6 2 -10
v 0 0 -10
v 10 2 -10
v 10 0 -10
v 6 14 -10
v 10 14 -10
v 10 -14 -6
v 10 -14 -10
v 10 -6 -10
v 10 -6 -6
v -10 -6 -10
v -10 -14 -6
v -10 -6 -6
v -10 -14 -10
v 10 -14 10
v 10 -14 6
v 10 -6 6
v 10 -6 10
v -10 -6 6
v -10 -14 10
v -10 -6 10
v -10 -14 6
v -10 -14 10
v -6 -14 10
v -6 -6 10
v -10 -6 10
v -6 -6 -10
v -10 -14 -10
v -10 -6 -10
v -6 -14 -10
v 6 -14 10
v 6 -6 10
v 10 -14 10
v 10 -6 10
v 0 -6 -10
v 6 -14 -10
v 0 0 -7.5
v -6 -6 -7.5
v -6 0 -7.5
v 0 -6 -7.5
v 10 -6 -10
v 10 -14 -10
v -6 -6 -10
v -6 0 -10
v -6 -6 -7.5
v -6 0 -7.5
v -6 0 -10
v 0 0 -10
v -6 0 -7.5
v 0 0 -7.5
v 0 0 -10
v 0 -6 -10
v 0 0 -7.5
v 0 -6 -7.5
vn 0 -1 0
vn 0 -1 0
vn 0 -1 0
vn 0 -1 0
vn 0 -1 0
vn 0 -1 0
vn 0 -1 0
vn 0 -1 0
vn 0 -1 0
vn 0 -1 0
vn 0 -1 0
vn 0 -1 0
vn 0 -1 0
vn 0 -1 0
vn 0 -1 0
vn 0 -1 0
vn 0 1 0
vn 0 1 0
vn 0 1 0
vn 0 1 0
vn 0 1 0
vn 0 1 0
vn 0 1 0
vn 0 1 0
vn 0 1 0
vn 0 1 0
vn 0 1 0
vn 0 1 0
vn 0 1 0
vn 0 1 0
vn 0 1 0
vn 0 1 0
vn 0 1 0
vn 0 1 0
vn 0 1 0
vn 0 1 0
vn 0 1 0
vn 0 1 0
vn 0 1 0
vn 0 1 0
vn 0 0 0
vn 0 0 0
vn 0 0 0
vn 0 0 0
vn 0 0 0
vn 0 0 0
vn 0 0 0
vn 0 0 0
vn 0 0 0
vn 0 0 0
vn 0 0 0
vn 0 0 0
vn 0 0 0
vn 0 0 0
vn 0 0 0
vn 0 0 0
vn 0 0 0
vn 0 0 0
vn 0 0 0
vn 0 0 0
vn 0 0 0
vn 0 0 0
vn 0 0 0
vn 0 0 0
vn 0 -1 0
vn 0 -1 0
vn 0 -1 0
vn 0 -1 0
vn 0 0.8944272 0.4472136
vn 0 0.8944272 0.4472136
vn 0 0.8944272 0.4472136
vn 0 0.8944272 0.4472136
vn 0.4472136 0.8944272 0
vn 0.4472136 0.8944272 0
vn 0.4472136 0.8944272 0
vn 0.4472136 0.8944272 0
vn 0 -1 0
vn 0 -1 0
vn 0 0.8944272 -0.4472136
vn 0 0.8944272 -0.4472136
vn 0 0.8944272 -0.4472136
vn 0 0.8944272 -0.4472136
vn 0 -1 0
vn 0 -1 0
vn -0.4472136 0.8944272 0
vn -0.4472136 0.8944272 0
vn -0.4472136 0.8944272 0
vn -0.4472136 0.8944272 0
vn 0 1 0
vn 0 1 0
vn 0 1 0
vn 0 1 0
vn 1 0 0
vn 1 0 0
vn 1 0 0
vn 1 0 0
vn 1 0 0
vn 1 0 0
vn -1 0 0
vn -1 0 0
vn -1 0 0
vn -1 0 0
vn -1 0 0
vn -1 0 0
vn 1 0 0
vn 1 0 0
vn 1 0 0
vn 1 0 0
vn 1 0 0
vn 1 0 0
vn 1 0 0
vn 1 0 0
vn 1 0 0
vn 1 0 0
vn -1 0 0
vn -1 0 0
vn -1 0 0
vn -1 0 0
vn -1 0 0
vn -1 0 0
vn 0 -1 0
vn 0 -1 0
vn 0 -1 0
vn 0 -1 0
vn 0 0 -1
vn 0 0 -1
vn 0 0 -1
vn 0 0 -1
vn 0 0 1
vn 0 0 1
vn 0 0 1
vn 0 0 1
vn 0 0 0
vn 0 0 0
vn 0 0 0
vn 0 0 0
vn 0 0 0
vn 0 0 0
vn 0 1 0
vn 0 1 0
vn 0 1 0
vn 0 1 0
vn 0 1 0
vn 0 1 0
vn 0 1 0
vn 0 1 0
vn 1 0 0
vn 1 0 0
vn 1 0 0
vn 1 0 0
vn 0 0 1
vn 0 0 1
vn 0 0 1
vn 0 0 1
vn 0 0 -1
vn 0 0 -1
vn 0 0 -1
vn 0 0 -1
vn -1 0 0
vn -1 0 0
vn -1 0 0
vn -1 0 0
vn 0 0 1
vn 0 0 1
vn 0 0 1
vn 0 0 1
vn 0 0 1
vn 0 0 1
vn 0 0 -1
vn 0 0 -1
vn 0 0 -1
vn 0 0 -1
vn 0 0 -1
vn 0 0 -1
vn 0 0 1
vn 0 0 1
vn 0 0 1
vn 0 0 1
vn 0 0 1
vn 0 0 1
vn 0 0 -1
vn 0 0 -1
vn 0 0 -1
vn 0 0 -1
vn 0 0 -1
vn 0 0 -1
vn 1 0 0
vn 1 0 0
vn 1 0 0
vn 1 0 0
vn -1 0 0
vn -1 0 0
vn -1 0 0
vn -1 0 0
vn 1 0 0
vn 1 0 0
vn 1 0 0
vn 1 0 0
vn -1 0 0
vn -1 0 0
vn -1 0 0
vn -1 0 0
vn 0 0 1
vn 0 0 1
vn 0 0 1
vn 0 0 1
vn 0 0 -1
vn 0 0 -1
vn 0 0 -1
vn 0 0 -1
vn 0 0 1
vn 0 0 1
vn 0 0 1
vn 0 0 1
vn 0 0 -1
vn 0 0 -1
vn 0 0 -1
vn 0 0 -1
vn 0 0 -1
vn 0 0 -1
vn 0 0 -1
vn 0 0 -1
vn 1 0 0
vn 1 0 0
vn 1 0 0
vn 1 0 0
vn 0 -1 0
vn 0 -1 0
vn 0 -1 0
vn 0 -1 0
vn -1 0 0
vn -1 0 0
vn -1 0 0
vn -1 0 0
vt 10 -6
vt 6 -10
vt 6 -6
vt 10 -10
vt 10 6
vt 6 6
vt 10 10
vt 6 10
vt -6 -6
vt -10 -10
vt -10 -6
vt -6 -10
vt -6 6
vt -10 6
vt -6 10
vt -10 10
vt 10 -5
vt 10 5
vt 15 -5
vt 15 5
vt -6 -10
vt -10 -10
vt -10 -6
vt -6 -7
vt -10 6
vt -6 7
vt -10 10
vt -6 10
vt 10 -10
vt 6 -10
vt 6 -7
vt 10 -6
vt 6 7
vt 10 6
vt 6 -6
vt -6 -6
vt -6 6
vt 6 6
vt 6 10
vt 10 10
vt 0 0
vt 0 0
vt 0 0
vt 0 0
vt 0 0
vt 0 0
vt 0 0
vt 0 0
vt 0 0
vt 0 0
vt 0 0
vt 0 0
vt 0 0
vt 0 0
vt 0 0
vt 0 0
vt 0 0
vt 0 0
vt 0 0
vt 0 0
vt 0 0
vt 0 0
vt 0 0
vt 0 0
vt -6 7
vt -6 -7
vt -8 8
vt -8 -8
vt 6 -1.341641
vt -6 -1.341641
vt 8 0.8944272
vt -8 0.8944272
vt -1.341641 -6
vt -1.341641 6
vt 0.8944272 -8
vt 0.8944272 8
vt 6 -7
vt 8 -8
vt -6 1.341641
vt 6 1.341641
vt -8 -0.8944272
vt 8 -0.8944272
vt 6 7
vt 8 8
vt 1.341641 6
vt 1.341641 -6
vt -0.8944272 8
vt -0.8944272 -8
vt 0 -10
vt -6 -10
vt 0 -7.5
vt -6 -7.5
vt -6 0
vt -10 0
vt -10 2
vt -6 2
vt -10 14
vt -6 14
vt 10 2
vt 6 0
vt 6 2
vt 10 0
vt 10 14
vt 6 14
vt 10 0
vt 6 0
vt 6 2
vt 10 2
vt 6 0
vt -6 0
vt -6 2
vt 6 2
vt 6 14
vt 10 14
vt -6 2
vt -10 0
vt -10 2
vt -6 0
vt -6 14
vt -10 14
vt -10 6
vt -10 -6
vt -16 6
vt -16 -6
vt 10 0
vt 10 2
vt 16 0
vt 16 2
vt -10 2
vt -10 0
vt -16 2
vt -16 0
vt 0 0
vt 0 0
vt 0 0
vt 0 0
vt 0 0
vt 0 0
vt 16 -6
vt 10 -6
vt 15 -5
vt 10 -5
vt 10 6
vt 16 6
vt 10 5
vt 15 5
vt -5 2
vt 5 2
vt -5 1
vt 5 1
vt -15 2
vt -10 2
vt -15 1
vt -10 1
vt 10 2
vt 15 2
vt 10 1
vt 15 1
vt -5 2
vt 5 2
vt -5 1
vt 5 1
vt 10 0
vt 6 0
vt 6 2
vt 10 2
vt 6 14
vt 10 14
vt -6 2
vt -10 0
vt -10 2
vt -6 0
vt -6 14
vt -10 14
vt -6 0
vt -6 2
vt -10 0
vt -10 2
vt -6 14
vt -10 14
vt 6 2
vt 0 0
vt 10 2
vt 10 0
vt 6 14
vt 10 14
vt -6 -14
vt -10 -14
vt -10 -6
vt -6 -6
vt 10 -6
vt 6 -14
vt 6 -6
vt 10 -14
vt 10 -14
vt 6 -14
vt 6 -6
vt 10 -6
vt -6 -6
vt -10 -14
vt -10 -6
vt -6 -14
vt 10 -14
vt 6 -14
vt 6 -6
vt 10 -6
vt -6 -6
vt -10 -14
vt -10 -6
vt -6 -14
vt -6 -14
vt -6 -6
vt -10 -14
vt -10 -6
vt 0 -6
vt 6 -14
vt 0 0
vt -6 -6
vt -6 0
vt 0 -6
vt 10 -6
vt 10 -14
vt -10 -6
vt -10 0
vt -7.5 -6
vt -7.5 0
vt 6 -10
vt 0 -10
vt 6 -7.5
vt 0 -7.5
vt 10 0
vt 10 -6
vt 7.5 0
vt 7.5 -6
g submesh0
f 1/1/1 2/2/2 3/3/3
f 1/1/1 4/4/4 2/2/2
f 5/5/5 3/3/3 6/6/6
f 5/5/5 1/1/1 3/3/3
f 7/7/7 6/6/6 8/8/8
f 7/7/7 5/5/5 6/6/6
f 9/9/9 10/10/10 11/11/11
f 9/9/9 12/12/12 10/10/10
f 3/3/3 12/12/12 9/9/9
f 3/3/3 2/2/2 12/12/12
f 13/13/13 11/11/11 14/14/14
f 13/13/13 9/9/9 11/11/11
f 6/6/6 9/9/9 13/13/13
f 6/6/6 3/3/3 9/9/9
f 15/15/15 14/14/14 16/16/16
f 15/15/15 13/13/13 14/14/14
f 8/8/8 13/13/13 15/15/15
f 8/8/8 6/6/6 13/13/13
g submesh1
f 17/17/17 18/18/18 19/19/19
f 18/18/18 20/20/20 19/19/19
f 21/21/21 22/22/22 23/23/23
f 24/24/24 21/21/21 23/23/23
f 24/24/24 23/23/23 25/25/25
f 26/26/26 24/24/24 25/25/25
f 26/26/26 25/25/25 27/27/27
f 28/28/28 26/26/26 27/27/27
f 29/29/29 30/30/30 31/31/31
f 32/32/32 29/29/29 31/31/31
f 30/30/30 21/21/21 24/24/24
f 31/31/31 30/30/30 24/24/24
f 32/32/32 31/31/31 33/33/33
f 34/34/34 32/32/32 33/33/33
f 35/35/35 36/36/36 37/37/37
f 38/38/38 35/35/35 37/37/37
f 34/34/34 33/33/33 39/39/39
f 40/40/40 34/34/34 39/39/39
f 33/33/33 26/26/26 28/28/28
f 39/39/39 33/33/33 28/28/28
f 41/41/41 42/42/42 43/43/43
f 44/44/44 45/45/45 46/46/46
f 47/47/47 48/48/48 49/49/49
f 50/50/50 51/51/51 52/52/52
f 53/53/53 54/54/54 55/55/55
f 56/56/56 57/57/57 58/58/58
f 59/59/59 60/60/60 61/61/61
f 62/62/62 63/63/63 64/64/64
f 65/65/65 66/66/66 67/67/67
f 66/66/66 68/68/68 67/67/67
f 69/69/69 70/70/70 71/71/71
f 70/70/70 72/72/72 71/71/71
f 73/73/73 74/74/74 75/75/75
f 74/74/74 76/76/76 75/75/75
f 66/66/66 77/77/77 68/68/68
f 77/77/77 78/78/78 68/68/68
f 79/79/79 80/80/80 81/81/81
f 80/80/80 82/82/82 81/81/81
f 77/77/77 83/83/83 78/78/78
f 83/83/83 84/84/84 78/78/78
f 85/85/85 86/86/86 87/87/87
f 86/86/86 88/88/88 87/87/87
f 83/83/83 65/65/65 84/84/84
f 65/65/65 67/67/67 84/84/84
f 89/89/89 90/90/90 91/91/91
f 90/90/90 92/92/92 91/91/91
g submesh2
f 93/93/93 94/94/94 95/95/95
f 96/96/96 93/93/93 95/95/95
f 96/96/96 95/95/95 97/97/97
f 98/98/98 96/96/96 97/97/97
f 99/99/99 100/100/100 101/101/101
f 99/99/99 102/102/102 100/100/100
f 103/103/103 101/101/101 104/104/104
f 103/103/103 99/99/99 101/101/101
f 105/105/105 106/106/106 107/107/107
f 108/108/108 105/105/105 107/107/107
f 109/109/109 110/110/110 111/111/111
f 112/112/112 109/109/109 111/111/111
f 108/108/108 107/107/107 113/113/113
f 114/114/114 108/108/108 113/113/113
f 107/107/107 96/96/96 98/98/98
f 113/113/113 107/107/107 98/98/98
f 115/115/115 116/116/116 117/117/117
f 115/115/115 118/118/118 116/116/116
f 101/101/101 118/118/118 115/115/115
f 101/101/101 100/100/100 118/118/118
f 119/119/119 117/117/117 120/120/120
f 119/119/119 115/115/115 117/117/117
f 104/104/104 115/115/115 119/119/119
f 104/104/104 101/101/101 115/115/115
f 121/121/121 122/122/122 123/123/123
f 122/122/122 124/124/124 123/123/123
f 125/125/125 126/126/126 127/127/127
f 126/126/126 128/128/128 127/127/127
f 129/129/129 130/130/130 131/131/131
f 130/130/130 132/132/132 131/131/131
f 133/133/133 134/134/134 135/135/135
f 136/136/136 137/137/137 138/138/138
f 139/139/139 140/140/140 141/141/141
f 140/140/140 142/142/142 141/141/141
f 143/143/143 144/144/144 145/145/145
f 144/144/144 146/146/146 145/145/145
f 144/144/144 139/139/139 146/146/146
f 139/139/139 141/141/141 146/146/146
f 147/147/147 148/148/148 149/149/149
f 148/148/148 150/150/150 149/149/149
f 151/151/151 152/152/152 153/153/153
f 152/152/152 154/154/154 153/153/153
f 155/155/155 156/156/156 157/157/157
f 156/156/156 158/158/158 157/157/157
f 159/159/159 160/160/160 161/161/161
f 160/160/160 162/162/162 161/161/161
f 163/163/163 164/164/164 165/165/165
f 166/166/166 163/163/163 165/165/165
f 166/166/166 165/165/165 167/167/167
f 168/168/168 166/166/166 167/167/167
f 169/169/169 170/170/170 171/171/171
f 169/169/169 172/172/172 170/170/170
f 173/173/173 171/171/171 174/174/174
f 173/173/173 169/169/169 171/171/171
f 164/164/164 175/175/175 176/176/176
f 165/165/165 164/164/164 176/176/176
f 175/175/175 177/177/177 178/178/178
f 176/176/176 175/175/175 178/178/178
f 165/165/165 176/176/176 179/179/179
f 167/167/167 165/165/165 179/179/179
f 176/176/176 178/178/178 180/180/180
f 179/179/179 176/176/176 180/180/180
f 181/181/181 172/172/172 169/169/169
f 181/181/181 182/182/182 172/172/172
f 183/183/183 182/182/182 181/181/181
f 183/183/183 184/184/184 182/182/182
f 185/185/185 169/169/169 173/173/173
f 185/185/185 181/181/181 169/169/169
f 186/186/186 181/181/181 185/185/185
f 186/186/186 183/183/183 181/181/181
f 187/187/187 188/188/188 189/189/189
f 190/190/190 187/187/187 189/189/189
f 190/190/190 189/189/189 94/94/94
f 93/93/93 190/190/190 94/94/94
f 191/191/191 192/192/192 193/193/193
f 191/191/191 194/194/194 192/192/192
f 102/102/102 193/193/193 100/100/100
f 102/102/102 191/191/191 193/193/193
f 195/195/195 196/196/196 197/197/197
f 198/198/198 195/195/195 197/197/197
f 198/198/198 197/197/197 106/106/106
f 105/105/105 198/198/198 106/106/106
f 196/196/196 187/187/187 190/190/190
f 197/197/197 196/196/196 190/190/190
f 197/197/197 190/190/190 93/93/93
f 106/106/106 197/197/197 93/93/93
f 199/199/199 200/200/200 201/201/201
f 199/199/199 202/202/202 200/200/200
f 118/118/118 201/201/201 116/116/116
f 118/118/118 199/199/199 201/201/201
f 193/193/193 202/202/202 199/199/199
f 193/193/193 192/192/192 202/202/202
f 100/100/100 199/199/199 118/118/118
f 100/100/100 193/193/193 199/199/199
f 203/203/203 204/204/204 205/205/205
f 206/206/206 203/203/203 205/205/205
f 206/206/206 205/205/205 164/164/164
f 163/163/163 206/206/206 164/164/164
f 207/207/207 208/208/208 209/209/209
f 207/207/207 210/210/210 208/208/208
f 172/172/172 209/209/209 170/170/170
f 172/172/172 207/207/207 209/209/209
f 204/204/204 211/211/211 212/212/212
f 205/205/205 204/204/204 212/212/212
f 205/205/205 212/212/212 175/175/175
f 164/164/164 205/205/205 175/175/175
f 211/211/211 213/213/213 214/214/214
f 212/212/212 211/211/211 214/214/214
f 212/212/212 214/214/214 177/177/177
f 175/175/175 212/212/212 177/177/177
f 215/215/215 210/210/210 207/207/207
f 215/215/215 216/216/216 210/210/210
f 217/217/217 218/218/218 219/219/219
f 217/217/217 220/220/220 218/218/218
f 221/221/221 216/216/216 215/215/215
f 221/221/221 222/222/222 216/216/216
f 184/184/184 215/215/215 182/182/182
f 184/184/184 221/221/221 215/215/215
f 223/223/223 224/224/224 225/225/225
f 224/224/224 226/226/226 225/225/225
f 227/227/227 228/228/228 229/229/229
f 228/228/228 230/230/230 229/229/229
f 231/231/231 232/232/232 233/233/233
f 232/232/232 234/234/234 233/233/233
