v -7.000254 2 0.497732
v 3.99997 2 0.500257
v -6.998983 4 -2.002017
v 4.000129 4 -1.99995
v -6.998983 -1 -2.002016
v 4.000129 -1 -1.999949
v -7.000254 -1 0.497732
v 3.999971 -1 0.500257
v -7.000254 -1 0.497732
v 3.999971 -1 0.500257
v 3.99997 2 0.500257
v -7.000254 2 0.497732
v 3.999971 -1 0.500257
v 4.000129 -1 -1.999949
v 4.000131 2 -1.999951
v 3.99997 2 0.500257
v 4.000129 4 -1.99995
v 4.000259 2 -3.999745
v -6.997967 -1 -4.00267
v -6.997967 2 -4.002671
v 4.000258 -1 -3.999744
v 4.000258 6 -3.999745
v -6.997967 6 -4.002671
v -6.998983 2 -2.002018
v -7.000254 -1 0.497732
v -7.000254 2 0.497732
v -6.998983 -1 -2.002016
v -6.998983 4 -2.002017
v -6.997967 2 -4.002671
v -6.997967 6 -4.002671
v -6.998983 4 -2.002017
v 4.000129 4 -1.99995
v -6.997967 6 -4.002671
v 4.000258 6 -3.999745
v 4.000258 6 -3.999745
v 4.000259 2 -3.999745
v 4.000131 2 -1.999951
v 4.000129 -1 -1.999949
v 4.000259 2 -3.999745
v 4.000258 -1 -3.999744
v -6.997967 -1 -4.00267
v 4.000258 -1 -3.999744
v -6.997967 -1 -4.00267
vn -0.0001434002 0.7808383 0.6247333
vn -0.0001304041 0.7808661 0.6246984
vn -0.0001304041 0.7808661 0.6246984
vn -0.000117408 0.780894 0.6246636
vn 0 -1 0
vn 0 -1 0
vn 0 -1 0
vn 0 -1 0
vn -0.0002295382 -3.648411E-11 1
vn -0.0002295382 -7.296823E-11 1
vn -0.0002295382 -3.648411E-11 1
vn -0.0002295382 0 1
vn 1 -7.945029E-08 6.360481E-05
vn 1 -4.76792E-07 6.312803E-05
vn 1 -7.945029E-08 6.360481E-05
vn 1 3.178914E-07 6.408158E-05
vn 1 7.152099E-07 6.408158E-05
vn 0.0002660097 -3.974066E-07 -1
vn 0.0002660097 -3.974066E-07 -1
vn 0.000265988 -3.178914E-07 -1
vn 0.0002660314 -4.769217E-07 -1
vn 0.0002660097 5.960464E-08 -1
vn 0.0002660314 -6.342682E-11 -1
vn -0.9999999 -1.615425E-10 -0.0005081687
vn -0.9999999 -1.615425E-10 -0.0005081687
vn -0.9999999 0 -0.0005081685
vn -0.9999999 -3.230851E-10 -0.0005081688
vn -0.9999999 2.423136E-10 -0.0005081685
vn -0.9999999 5.972573E-08 -0.0005079636
vn -0.9999999 1.192093E-07 -0.0005080231
vn -0.0001328742 0.7072223 0.7069912
vn -0.0001604944 0.7071464 0.7070671
vn -0.0001604944 0.7071464 0.7070671
vn -0.0001881145 0.7070705 0.707143
vn 1 4.7681E-07 6.485649E-05
vn 1 2.384109E-07 6.437964E-05
vn 1 -4.767911E-07 6.437964E-05
vn 1 -3.973259E-07 6.449885E-05
vn 1 -3.973259E-07 6.449885E-05
vn 1 -3.178606E-07 6.461806E-05
vn -0.9999999 -7.971512E-08 -0.0005080233
vn 0 -1 0
vn 0 -1 0
vt -6.999887 -0.8616215
vt 4.000338 -0.8583878
vt -6.998249 -4.062987
vt 4.000864 -4.060112
vt 6.998983 -2.002016
vt -4.000129 -1.999949
vt 7.000254 0.497732
vt -3.999971 0.500257
vt 7.000139 -1
vt -4.000086 -1
vt -4.000085 2
vt 7.000139 2
vt 0.5000026 -1
vt -2.000204 -1
vt -2.000206 2
vt 0.5000026 2
vt -2.000204 4
vt 3.999196 2.000001
vt -6.999032 -0.9999987
vt -6.999032 2.000001
vt 3.999195 -0.9999987
vt 3.999194 6
vt -6.999032 6
vt 1.998461 2
vt -0.5012892 -1
vt -0.5012892 2
vt 1.998459 -1
vt 1.99846 4
vt 3.999116 2
vt 3.999116 6
vt -6.998232 -4.244766
vt 4.000881 -4.241843
vt -6.99684 -7.073655
vt 4.001386 -7.070125
vt -4.000006 5.999997
vt -4.000007 1.999997
vt -2.000209 2.000002
vt -2.000207 -0.9999981
vt -4.000003 2.000002
vt -4.000001 -0.9999981
vt 3.999113 -1
vt -4.000258 -3.999744
vt 6.997967 -4.00267
g submesh0
f 1/1/1 2/2/2 3/3/3
f 2/2/2 4/4/4 3/3/3
f 5/5/5 6/6/6 7/7/7
f 6/6/6 8/8/8 7/7/7
f 9/9/9 10/10/10 11/11/11
f 12/12/12 9/9/9 11/11/11
f 13/13/13 14/14/14 15/15/15
f 16/16/16 13/13/13 15/15/15
f 16/16/16 15/15/15 17/17/17
f 18/18/18 19/19/19 20/20/20
f 18/18/18 21/21/21 19/19/19
f 22/22/22 20/20/20 23/23/23
f 22/22/22 18/18/18 20/20/20
f 24/24/24 25/25/25 26/26/26
f 24/24/24 27/27/27 25/25/25
f 28/28/28 24/24/24 26/26/26
f 24/24/24 28/28/28 29/29/29
f 28/28/28 30/30/30 29/29/29
f 31/31/31 32/32/32 33/33/33
f 32/32/32 34/34/34 33/33/33
f 17/17/17 15/15/15 35/35/35
f 15/15/15 36/36/36 35/35/35
f 37/37/37 38/38/38 39/39/39
f 38/38/38 40/40/40 39/39/39
f 27/27/27 24/24/24 41/41/41
f 24/24/24 29/29/29 41/41/41
f 6/6/6 5/5/5 42/42/42
f 5/5/5 43/43/43 42/42/42
