v -2.000065 1 1.000123
v 7.999977 1 1.000146
v -1.999871 4 -1.999879
v 8.000046 4 -1.99986
v -1.999871 -1 -1.999879
v 8.000046 -1 -1.99986
v -2.000194 -1 2.999871
v 7.99993 -1 3.00035
v -2.000194 -1 2.999871
v 7.99993 -1 3.00035
v 7.999977 1 1.000146
v -2.000065 1 1.000123
v 7.99993 -1 3.00035
v 8.000046 -1 -1.99986
v 8.000046 1 -1.99986
v 7.999977 1 1.000146
v 8.000046 4 -1.99986
v 8.000093 1 -3.999654
v -1.999743 -1 -4.000131
v -1.999743 1 -4.000131
v 8.000093 -1 -3.999654
v 8.000093 6 -3.999656
v -1.999743 6 -4.000132
v -1.999871 1 -1.999879
v -2.000194 -1 2.999871
v -2.000065 1 1.000123
v -1.999871 -1 -1.999879
v -1.999871 4 -1.999879
v -1.999871 1 -1.999879
v -1.999871 4 -1.999879
v -1.999743 1 -4.000131
v -1.999743 6 -4.000132
v -1.999743 6 -4.000132
v 8.000093 6 -3.999656
v 8.000093 6 -3.999656
v 8.000093 1 -3.999654
v 8.000093 -1 -3.999654
v -1.999743 -1 -4.000131
v 8.000093 -1 -3.999654
v -1.999743 -1 -4.000131
vn -1.626861E-06 0.7071071 0.7071065
vn -1.504644E-06 0.7071072 0.7071064
vn -1.504644E-06 0.7071072 0.7071064
vn -1.382427E-06 0.7071074 0.7071061
vn 0 -1 0
vn 0 -1 0
vn 0 -1 0
vn 0 -1 0
vn -1.773858E-05 0.7071026 0.707111
vn -3.38502E-05 0.7071429 0.7070707
vn -1.773858E-05 0.7071026 0.707111
vn -1.626964E-06 0.7070623 0.7071512
vn 1 -3.858251E-08 2.306252E-05
vn 1 0 2.307795E-05
vn 1 -3.858251E-08 2.306252E-05
vn 1 -7.716502E-08 2.304709E-05
vn 1 0 2.304709E-05
vn 4.773219E-05 0 -1
vn 4.773219E-05 0 -1
vn 4.773219E-05 0 -1
vn 4.773219E-05 0 -1
vn 4.76845E-05 -2.861023E-07 -1
vn 4.763682E-05 -1.907349E-07 -1
vn -1 1.630154E-07 -6.447794E-05
vn -1 1.630154E-07 -6.447794E-05
vn -1 3.260307E-07 -6.441272E-05
vn -1 0 -6.454314E-05
vn -1 -1.535719E-11 -6.441273E-05
vn -1 -1.535999E-11 -6.442448E-05
vn -1 -1.382399E-11 -6.442449E-05
vn -1 -1.382399E-11 -6.442449E-05
vn -1 -1.2288E-11 -6.442449E-05
vn -1.752997E-05 0.7071111 0.7071025
vn -3.368604E-05 0.7070707 0.7071428
vn 1 4.456983E-12 2.336742E-05
vn 1 8.913966E-12 2.336743E-05
vn 1 0 2.336743E-05
vn -1 0 -6.442448E-05
vn 0 -1 0
vn 0 -1 0
vt 2.000062 -9.069711E-05
vt -7.999979 -9.069711E-05
vt 1.999876 4.242552
vt -8.000041 4.242554
vt 1.999871 -1.999879
vt -8.000046 -1.99986
vt 2.000194 2.999871
vt -7.99993 3.00035
vt 2.000051 -2.828476
vt -8.000074 -2.828476
vt -8.000025 9.552612E-05
vt 2.000017 -0.0002267424
vt 3.000165 -1
vt -2.000044 -1
vt -2.000044 1
vt 0.9999614 1
vt -2.000044 4
vt 7.999902 1
vt -1.999933 -1
vt -1.999933 1
vt 7.999902 -1
vt 7.999902 6.000001
vt -1.999933 6.000001
vt 1.99975 0.9999997
vt -3 -1
vt -1.000252 0.9999997
vt 1.99975 -1
vt 1.99975 4
vt 1.99975 1
vt 1.99975 4
vt 4.000002 1
vt 4.000003 6
vt 1.99975 7.071069
vt -8.000085 7.070746
vt -3.999843 6
vt -3.999841 1
vt -3.999841 -1
vt 4.000002 -1
vt -8.000093 -3.999654
vt 1.999743 -4.000131
g submesh0
f 1/1/1 2/2/2 3/3/3
f 2/2/2 4/4/4 3/3/3
f 5/5/5 6/6/6 7/7/7
f 6/6/6 8/8/8 7/7/7
f 9/9/9 10/10/10 11/11/11
f 12/12/12 9/9/9 11/11/11
f 13/13/13 14/14/14 15/15/15
f 16/16/16 13/13/13 15/15/15
f 16/16/16 15/15/15 17/17/17
f 18/18/18 19/19/19 20/20/20
f 18/18/18 21/21/21 19/19/19
f 22/22/22 20/20/20 23/23/23
f 22/22/22 18/18/18 20/20/20
f 24/24/24 25/25/25 26/26/26
f 24/24/24 27/27/27 25/25/25
f 28/28/28 24/24/24 26/26/26
f 29/29/29 30/30/30 31/31/31
f 30/30/30 32/32/32 31/31/31
f 3/3/3 4/4/4 33/33/33
f 4/4/4 34/34/34 33/33/33
f 17/17/17 15/15/15 35/35/35
f 15/15/15 36/36/36 35/35/35
f 15/15/15 14/14/14 36/36/36
f 14/14/14 37/37/37 36/36/36
f 27/27/27 29/29/29 38/38/38
f 29/29/29 31/31/31 38/38/38
f 6/6/6 5/5/5 39/39/39
f 5/5/5 40/40/40 39/39/39
