v 2 -6 4
v -10 -6 4
v -10 -6 10
v 2 -6 10
v 2 -6 0
v -10 -6 0
v 2 -3 4
v 2 -3 10
v 4 -3 4
v 4 -3 10
v 4 0 4
v 4 0 10
v 8 0 4
v 8 0 10
v -10 -15 4
v 2 -15 0
v 2 -15 4
v -10 -15 0
v -10 -15 10
v 2 -15 10
v 4 -15 10
v 4 -15 4
v 8 -15 10
v 8 -15 4
v 2 -6 4
v 2 -6 10
v 2 -3 4
v 2 -3 10
v 4 -6 4
v 2 -6 4
v 4 -3 4
v 2 -3 4
v 2 -6 10
v 4 -6 10
v 2 -3 10
v 4 -3 10
v 4 -6 10
v 4 -6 4
v 4 -3 10
v 4 -3 4
v 4 -6 4
v 4 -6 10
v 4 0 4
v 4 0 10
v 8 -6 4
v 8 0 4
v 4 0 4
v 8 -6 10
v 4 0 10
v 8 0 10
v 8 -6 10
v 8 -6 4
v 8 0 10
v 8 0 4
v -10 -15 10
v 2 -15 10
v 2 -10 10
v -10 -10 10
v -10 -6 10
v 2 -10 0
v -10 -15 0
v -10 -10 0
v 2 -15 0
v 2 -6 0
v -10 -6 0
v 8 -15 10
v 8 -15 4
v 8 -10 4
v 8 -10 10
v 5 -15 4
v 5 -15 0
v 5 -13 0
v 5 -13 4
v 2 -10 4
v 2 -10 0
v 2 -6 0
v 2 -6 4
v -10 -10 0
v -10 -15 4
v -10 -10 4
v -10 -15 0
v -10 -6 0
v -10 -6 4
v -10 -15 10
v -10 -10 10
v -10 -6 10
v 4 -10 4
v 2 -15 4
v 2 -10 4
v 4 -15 4
v 4 -10 10
v 4 -15 10
v 8 -10 4
v 8 -15 4
v 8 -10 10
v 8 -15 10
v 5 -15 4
v 5 -15 0
v 5 -15 0
v 5 -13 0
v 2 -10 4
v 2 -15 4
v 5 -13 4
v 5 -15 4
v 2 -10 0
v 2 -10 4
v 5 -13 0
v 5 -13 4
vn 0 1 0
vn 0 1 0
vn 0 1 0
vn 0 1 0
vn 0 1 0
vn 0 1 0
vn 0 1 0
vn 0 1 0
vn 0 1 0
vn 0 1 0
vn 0 1 0
vn 0 1 0
vn 0 1 0
vn 0 1 0
vn 0 -1 0
vn 0 -1 0
vn 0 -1 0
vn 0 -1 0
vn 0 -1 0
vn 0 -1 0
vn 0 -1 0
vn 0 -1 0
vn 0 -1 0
vn 0 -1 0
vn -1 0 0
vn -1 0 0
vn -1 0 0
vn -1 0 0
vn 0 0 -1
vn 0 0 -1
vn 0 0 -1
vn 0 0 -1
vn 0 0 1
vn 0 0 1
vn 0 0 1
vn 0 0 1
vn 1 0 0
vn 1 0 0
vn 1 0 0
vn 1 0 0
vn -1 0 0
vn -1 0 0
vn -1 0 0
vn -1 0 0
vn 0 0 -1
vn 0 0 -1
vn 0 0 -1
vn 0 0 1
vn 0 0 1
vn 0 0 1
vn 1 0 0
vn 1 0 0
vn 1 0 0
vn 1 0 0
vn 0 0 1
vn 0 0 1
vn 0 0 1
vn 0 0 1
vn 0 0 1
vn 0 0 -1
vn 0 0 -1
vn 0 0 -1
vn 0 0 -1
vn 0 0 -1
vn 0 0 -1
vn 1 0 0
vn 1 0 0
vn 1 0 0
vn 1 0 0
vn 1 0 0
vn 1 0 0
vn 1 0 0
vn 1 0 0
vn 1 0 0
vn 1 0 0
vn 1 0 0
vn 1 0 0
vn -1 0 0
vn -1 0 0
vn -1 0 0
vn -1 0 0
vn -1 0 0
vn -1 0 0
vn -1 0 0
vn -1 0 0
vn -1 0 0
vn 0 0 -1
vn 0 0 -1
vn 0 0 -1
vn 0 0 -1
vn 0 0 1
vn 0 0 1
vn 0 0 -1
vn 0 0 -1
vn 0 0 1
vn 0 0 1
vn 0 -1 0
vn 0 -1 0
vn 0 0 -1
vn 0 0 -1
vn 0 0 1
vn 0 0 1
vn 0 0 1
vn 0 0 1
vn 0.7071068 0.7071068 0
vn 0.7071068 0.7071068 0
vn 0.7071068 0.7071068 0
vn 0.7071068 0.7071068 0
vt 2 4
vt -10 4
vt -10 10
vt 2 10
vt 2 0
vt -10 0
vt 2 4
vt 2 10
vt 4 4
vt 4 10
vt 4 4
vt 4 10
vt 8 4
vt 8 10
vt 10 4
vt -2 0
vt -2 4
vt 10 0
vt 10 10
vt -2 10
vt -4 10
vt -4 4
vt -8 10
vt -8 4
vt -4 -6
vt -10 -6
vt -4 -3
vt -10 -3
vt 4 -6
vt 2 -6
vt 4 -3
vt 2 -3
vt -2 -6
vt -4 -6
vt -2 -3
vt -4 -3
vt 10 -6
vt 4 -6
vt 10 -3
vt 4 -3
vt -4 -6
vt -10 -6
vt -4 0
vt -10 0
vt 8 -6
vt 8 0
vt 4 0
vt -8 -6
vt -4 0
vt -8 0
vt 10 -6
vt 4 -6
vt 10 0
vt 4 0
vt 10 -15
vt -2 -15
vt -2 -10
vt 10 -10
vt 10 -6
vt 2 -10
vt -10 -15
vt -10 -10
vt 2 -15
vt 2 -6
vt -10 -6
vt 10 -15
vt 4 -15
vt 4 -10
vt 10 -10
vt 4 -15
vt 0 -15
vt 0 -13
vt 4 -13
vt 4 -10
vt 0 -10
vt 0 -6
vt 4 -6
vt 0 -10
vt -4 -15
vt -4 -10
vt 0 -15
vt 0 -6
vt -4 -6
vt -10 -15
vt -10 -10
vt -10 -6
vt 4 -10
vt 2 -15
vt 2 -10
vt 4 -15
vt -4 -10
vt -4 -15
vt 8 -10
vt 8 -15
vt -8 -10
vt -8 -15
vt -5 4
vt -5 0
vt 5 -15
vt 5 -13
vt -2 -10
vt -2 -15
vt -5 -13
vt -5 -15
vt 8.485281 0
vt 8.485281 4
vt 12.72792 0
vt 12.72792 4
g submesh0
f 1/1/1 2/2/2 3/3/3
f 4/4/4 1/1/1 3/3/3
f 5/5/5 6/6/6 2/2/2
f 1/1/1 5/5/5 2/2/2
f 7/7/7 8/8/8 9/9/9
f 8/8/8 10/10/10 9/9/9
f 11/11/11 12/12/12 13/13/13
f 12/12/12 14/14/14 13/13/13
g submesh1
f 15/15/15 16/16/16 17/17/17
f 15/15/15 18/18/18 16/16/16
f 19/19/19 17/17/17 20/20/20
f 19/19/19 15/15/15 17/17/17
f 20/20/20 17/17/17 21/21/21
f 17/17/17 22/22/22 21/21/21
f 21/21/21 22/22/22 23/23/23
f 22/22/22 24/24/24 23/23/23
f 25/25/25 26/26/26 27/27/27
f 26/26/26 28/28/28 27/27/27
f 29/29/29 30/30/30 31/31/31
f 30/30/30 32/32/32 31/31/31
f 33/33/33 34/34/34 35/35/35
f 34/34/34 36/36/36 35/35/35
f 37/37/37 38/38/38 39/39/39
f 38/38/38 40/40/40 39/39/39
f 41/41/41 42/42/42 43/43/43
f 42/42/42 44/44/44 43/43/43
f 45/45/45 29/29/29 46/46/46
f 29/29/29 47/47/47 46/46/46
f 34/34/34 48/48/48 49/49/49
f 48/48/48 50/50/50 49/49/49
f 51/51/51 52/52/52 53/53/53
f 52/52/52 54/54/54 53/53/53
f 55/55/55 56/56/56 57/57/57
f 58/58/58 55/55/55 57/57/57
f 58/58/58 57/57/57 33/33/33
f 59/59/59 58/58/58 33/33/33
f 60/60/60 61/61/61 62/62/62
f 60/60/60 63/63/63 61/61/61
f 64/64/64 62/62/62 65/65/65
f 64/64/64 60/60/60 62/62/62
f 66/66/66 67/67/67 68/68/68
f 69/69/69 66/66/66 68/68/68
f 69/69/69 68/68/68 52/52/52
f 51/51/51 69/69/69 52/52/52
f 70/70/70 71/71/71 72/72/72
f 73/73/73 70/70/70 72/72/72
f 74/74/74 75/75/75 76/76/76
f 77/77/77 74/74/74 76/76/76
f 78/78/78 79/79/79 80/80/80
f 78/78/78 81/81/81 79/79/79
f 82/82/82 80/80/80 83/83/83
f 82/82/82 78/78/78 80/80/80
f 80/80/80 84/84/84 85/85/85
f 80/80/80 79/79/79 84/84/84
f 83/83/83 85/85/85 86/86/86
f 83/83/83 80/80/80 85/85/85
f 87/87/87 88/88/88 89/89/89
f 87/87/87 90/90/90 88/88/88
f 29/29/29 89/89/89 30/30/30
f 29/29/29 87/87/87 89/89/89
f 57/57/57 91/91/91 34/34/34
f 33/33/33 57/57/57 34/34/34
f 56/56/56 92/92/92 91/91/91
f 57/57/57 56/56/56 91/91/91
f 93/93/93 90/90/90 87/87/87
f 93/93/93 94/94/94 90/90/90
f 45/45/45 87/87/87 29/29/29
f 45/45/45 93/93/93 87/87/87
f 91/91/91 95/95/95 48/48/48
f 34/34/34 91/91/91 48/48/48
f 92/92/92 96/96/96 95/95/95
f 91/91/91 92/92/92 95/95/95
f 17/17/17 16/16/16 97/97/97
f 16/16/16 98/98/98 97/97/97
f 63/63/63 60/60/60 99/99/99
f 60/60/60 100/100/100 99/99/99
f 101/101/101 102/102/102 103/103/103
f 102/102/102 104/104/104 103/103/103
f 105/105/105 106/106/106 107/107/107
f 106/106/106 108/108/108 107/107/107
