v 0 -1 0
v 1 -1 0
v 0 1 0
v 2 1 0
v 1 -1 0
v 1 -1 -7
v 2 1 0
v 2 1 -7
v 1 -1 -8
v 0 -1 -8
v 2 1 -9
v 0 1 -9
v 0 -1 -7
v 0 -1 0
v 0 1 -7
v 0 1 0
v 0 1 0
v 2 1 0
v 0 1 -7
v 2 1 -7
v 0 -1 -7
v 1 -1 -7
v 0 -1 0
v 1 -1 0
v 1 -1 -8
v 0 -1 -8
v 2 1 -9
v 1 -1 -8
v -6 -1 -7
v -6 1 -7
v -6 -1 -8
v -6 1 -9
v 0 1 -9
v 2 1 -9
v 0 -1 -7
v 0 1 -7
v -6 -1 -7
v -6 1 -7
v -6 -1 -8
v -6 -1 -7
v -6 1 -7
v -6 1 -9
v -6 1 -9
v -6 -1 -8
vn 0 0 1
vn 0 0 1
vn 0 0 1
vn 0 0 1
vn 0.8944272 -0.4472136 0
vn 0.8944272 -0.4472136 0
vn 0.8944272 -0.4472136 0
vn 0.8944272 -0.4472136 0
vn 0 -0.4472136 -0.8944272
vn 0 -0.4472136 -0.8944272
vn 0 -0.4472136 -0.8944272
vn 0 -0.4472136 -0.8944272
vn -1 0 0
vn -1 0 0
vn -1 0 0
vn -1 0 0
vn 0 1 0
vn 0 1 0
vn 0 1 0
vn 0 1 0
vn 0 -1 0
vn 0 -1 0
vn 0 -1 0
vn 0 -1 0
vn 0 -1 0
vn 0 -1 0
vn 0.8944272 -0.4472136 0
vn 0.8944272 -0.4472136 0
vn -1 0 0
vn -1 0 0
vn -1 0 0
vn -1 0 0
vn 0 1 0
vn 0 1 0
vn 0 0 1
vn 0 0 1
vn 0 0 1
vn 0 0 1
vn 0 -1 0
vn 0 -1 0
vn 0 1 0
vn 0 1 0
vn 0 -0.4472136 -0.8944272
vn 0 -0.4472136 -0.8944272
vt 0 -1
vt -1 -1
vt 0 1
vt -2 1
vt 0 -0.4472136
vt -7 -0.4472136
vt 0 1.788854
vt -7 1.788854
vt 1 2.683281
vt 0 2.683281
vt 2 4.91935
vt 0 4.91935
vt 7 -1
vt 0 -1
vt 7 1
vt 0 1
vt 0 0
vt 2 0
vt 0 -7
vt 2 -7
vt 0 -7
vt -1 -7
vt 0 0
vt -1 0
vt -1 -8
vt 0 -8
vt -9 1.788854
vt -8 -0.4472136
vt 7 -1
vt 7 1
vt 8 -1
vt 9 1
vt 0 -9
vt 2 -9
vt 0 -1
vt 0 1
vt 6 -1
vt 6 1
vt 6 -8
vt 6 -7
vt -6 -7
vt -6 -9
vt -6 4.91935
vt -6 2.683281
g submesh0
f 1/1/1 2/2/2 3/3/3
f 2/2/2 4/4/4 3/3/3
f 5/5/5 6/6/6 7/7/7
f 6/6/6 8/8/8 7/7/7
f 9/9/9 10/10/10 11/11/11
f 10/10/10 12/12/12 11/11/11
f 13/13/13 14/14/14 15/15/15
f 14/14/14 16/16/16 15/15/15
f 17/17/17 18/18/18 19/19/19
f 18/18/18 20/20/20 19/19/19
f 21/21/21 22/22/22 23/23/23
f 22/22/22 24/24/24 23/23/23
f 22/22/22 21/21/21 25/25/25
f 21/21/21 26/26/26 25/25/25
f 8/8/8 6/6/6 27/27/27
f 6/6/6 28/28/28 27/27/27
f 29/29/29 30/30/30 31/31/31
f 30/30/30 32/32/32 31/31/31
f 19/19/19 20/20/20 33/33/33
f 20/20/20 34/34/34 33/33/33
f 35/35/35 36/36/36 37/37/37
f 36/36/36 38/38/38 37/37/37
f 26/26/26 21/21/21 39/39/39
f 21/21/21 40/40/40 39/39/39
f 19/19/19 33/33/33 41/41/41
f 33/33/33 42/42/42 41/41/41
f 12/12/12 10/10/10 43/43/43
f 10/10/10 44/44/44 43/43/43
