v -2 -1 0
v 6 -1 0
v -2 1 1
v 6 1 1
v 7 -1 0
v 7 -1 -1
v 8 1 1
v 8 1 -1
v 6 -1 -1
v -2 -1 -1
v 6 1 -1
v -2 1 -1
v -2 -1 -1
v -2 -1 0
v -2 1 -1
v -2 1 1
v -2 1 1
v 6 1 1
v -2 1 -1
v 6 1 -1
v -2 -1 -1
v 6 -1 -1
v -2 -1 0
v 6 -1 0
v 7 -1 0
v 7 -1 -1
v 8 1 1
v 7 -1 0
v 6 -1 -9
v 6 1 -9
v 7 -1 -9
v 8 1 -9
v 8 1 -1
v 8 1 1
v 6 -1 -1
v 6 1 -1
v 6 -1 -9
v 6 1 -9
v 7 -1 -9
v 6 -1 -9
v 6 1 -9
v 8 1 -9
v 8 1 -9
v 7 -1 -9
vn 0 -0.4472136 0.8944272
vn 0 -0.4472136 0.8944272
vn 0 -0.4472136 0.8944272
vn 0 -0.4472136 0.8944272
vn 0.8944272 -0.4472136 0
vn 0.8944272 -0.4472136 0
vn 0.8944272 -0.4472136 0
vn 0.8944272 -0.4472136 0
vn 0 0 -1
vn 0 0 -1
vn 0 0 -1
vn 0 0 -1
vn -1 0 0
vn -1 0 0
vn -1 0 0
vn -1 0 0
vn 0 1 0
vn 0 1 0
vn 0 1 0
vn 0 1 0
vn 0 -1 0
vn 0 -1 0
vn 0 -1 0
vn 0 -1 0
vn 0 -1 0
vn 0 -1 0
vn 0 -0.4472136 0.8944272
vn 0 -0.4472136 0.8944272
vn 0 0 -1
vn 0 0 -1
vn 0 0 -1
vn 0 0 -1
vn 0 1 0
vn 0 1 0
vn -1 0 0
vn -1 0 0
vn -1 0 0
vn -1 0 0
vn 0 -1 0
vn 0 -1 0
vn 0 1 0
vn 0 1 0
vn 0.8944272 -0.4472136 0
vn 0.8944272 -0.4472136 0
vt 2 -0.8944272
vt -6 -0.8944272
vt 2 1.341641
vt -6 1.341641
vt 0 2.236068
vt -1 2.236068
vt 1 4.472136
vt -1 4.472136
vt 6 -1
vt -2 -1
vt 6 1
vt -2 1
vt 1 -1
vt 0 -1
vt 1 1
vt -1 1
vt -2 1
vt 6 1
vt -2 -1
vt 6 -1
vt 2 -1
vt -6 -1
vt 2 0
vt -6 0
vt -7 0
vt -7 -1
vt -8 1.341641
vt -7 -0.8944272
vt 6 -1
vt 6 1
vt 7 -1
vt 8 1
vt 8 -1
vt 8 1
vt 1 -1
vt 1 1
vt 9 -1
vt 9 1
vt -7 -9
vt -6 -9
vt 6 -9
vt 8 -9
vt -9 4.472136
vt -9 2.236068
g submesh0
f 1/1/1 2/2/2 3/3/3
f 2/2/2 4/4/4 3/3/3
f 5/5/5 6/6/6 7/7/7
f 6/6/6 8/8/8 7/7/7
f 9/9/9 10/10/10 11/11/11
f 10/10/10 12/12/12 11/11/11
f 13/13/13 14/14/14 15/15/15
f 14/14/14 16/16/16 15/15/15
f 17/17/17 18/18/18 19/19/19
f 18/18/18 20/20/20 19/19/19
f 21/21/21 22/22/22 23/23/23
f 22/22/22 24/24/24 23/23/23
f 24/24/24 22/22/22 25/25/25
f 22/22/22 26/26/26 25/25/25
f 4/4/4 2/2/2 27/27/27
f 2/2/2 28/28/28 27/27/27
f 29/29/29 30/30/30 31/31/31
f 30/30/30 32/32/32 31/31/31
f 20/20/20 18/18/18 33/33/33
f 18/18/18 34/34/34 33/33/33
f 35/35/35 36/36/36 37/37/37
f 36/36/36 38/38/38 37/37/37
f 26/26/26 22/22/22 39/39/39
f 22/22/22 40/40/40 39/39/39
f 20/20/20 33/33/33 41/41/41
f 33/33/33 42/42/42 41/41/41
f 8/8/8 6/6/6 43/43/43
f 6/6/6 44/44/44 43/43/43
