v -2.000065 1 1.000123
v 3.999936 1 1.000054
v -1.999871 4 -1.999879
v 4.000129 4 -1.99995
v -1.999871 -1 -1.999879
v 4.000129 -1 -1.999949
v -2.000194 -1 2.999871
v 3.999808 -1 3.000258
v -2.000194 -1 2.999871
v 3.999808 -1 3.000258
v 3.999936 1 1.000054
v -2.000065 1 1.000123
v 3.999808 -1 3.000258
v 4.000129 -1 -1.999949
v 4.000129 1 -1.999949
v 3.999936 1 1.000054
v 4.000129 4 -1.99995
v 4.000258 1 -3.999744
v -1.999743 -1 -4.000131
v -1.999743 1 -4.000131
v 4.000258 -1 -3.999744
v 4.000258 6 -3.999745
v -1.999743 6 -4.000132
v -1.999871 1 -1.999879
v -2.000194 -1 2.999871
v -2.000065 1 1.000123
v -1.999871 -1 -1.999879
v -1.999871 4 -1.999879
v -1.999871 1 -1.999879
v -1.999871 4 -1.999879
v -1.999743 1 -4.000131
v -1.999743 6 -4.000132
v -1.999743 6 -4.000132
v 4.000258 6 -3.999745
v 4.000258 6 -3.999745
v 4.000258 1 -3.999744
v 4.000258 -1 -3.999744
v -1.999743 -1 -4.000131
v 4.000258 -1 -3.999744
v -1.999743 -1 -4.000131
vn 8.162435E-06 0.707107 0.7071065
vn 8.239704E-06 0.7071071 0.7071065
vn 8.239704E-06 0.7071071 0.7071065
vn 8.316973E-06 0.7071072 0.7071064
vn 0 -1 0
vn 0 -1 0
vn 0 -1 0
vn 0 -1 0
vn -1.870475E-05 0.7071026 0.707111
vn -4.557245E-05 0.7071429 0.7070706
vn -1.870475E-05 0.7071026 0.707111
vn 8.162952E-06 0.7070623 0.7071513
vn 1 1.820715E-07 6.430013E-05
vn 1 0 6.422731E-05
vn 1 1.820715E-07 6.430013E-05
vn 1 3.64143E-07 6.437296E-05
vn 1 1.023181E-11 6.437296E-05
vn 6.453195E-05 0 -1
vn 6.453195E-05 0 -1
vn 6.453195E-05 0 -1
vn 6.453195E-05 0 -1
vn 6.453195E-05 -1.907349E-07 -1
vn 6.453195E-05 -1.907349E-07 -1
vn -1 1.630154E-07 -6.447794E-05
vn -1 1.630154E-07 -6.447794E-05
vn -1 3.260307E-07 -6.441272E-05
vn -1 0 -6.454314E-05
vn -1 -1.535719E-11 -6.441273E-05
vn -1 -1.535999E-11 -6.442448E-05
vn -1 -1.382399E-11 -6.442449E-05
vn -1 -1.382399E-11 -6.442449E-05
vn -1 -1.2288E-11 -6.442449E-05
vn -1.865141E-05 0.707111 0.7071025
vn -4.561927E-05 0.7070706 0.707143
vn 1 1.386553E-11 6.461807E-05
vn 1 1.232492E-11 6.461806E-05
vn 1 0 6.461806E-05
vn -1 0 -6.442448E-05
vn 0 -1 0
vn 0 -1 0
vt 2.000076 -7.105826E-05
vt -3.999925 -7.105825E-05
vt 1.999848 4.242571
vt -4.000152 4.242572
vt 1.999871 -1.999879
vt -4.000129 -1.999949
vt 2.000194 2.999871
vt -3.999808 3.000258
vt 2.000001 -2.8285
vt -4.000001 -2.8285
vt -4 7.213056E-05
vt 2 -0.0002503092
vt 3.000001 -1
vt -2.000206 -1
vt -2.000206 1
vt 0.9997965 1
vt -2.000207 4
vt 4 1
vt -2.000001 -1
vt -2.000001 1
vt 4 -1
vt 4 6.000001
vt -2.000001 6.000001
vt 1.99975 0.9999997
vt -3 -1
vt -1.000252 0.9999997
vt 1.99975 -1
vt 1.99975 4
vt 1.99975 1
vt 1.99975 4
vt 4.000002 1
vt 4.000003 6
vt 1.999695 7.071088
vt -4.000306 7.070765
vt -4.000003 6
vt -4.000002 1
vt -4.000002 -1
vt 4.000002 -1
vt -4.000258 -3.999744
vt 1.999743 -4.000131
g submesh0
f 1/1/1 2/2/2 3/3/3
f 2/2/2 4/4/4 3/3/3
f 5/5/5 6/6/6 7/7/7
f 6/6/6 8/8/8 7/7/7
f 9/9/9 10/10/10 11/11/11
f 12/12/12 9/9/9 11/11/11
f 13/13/13 14/14/14 15/15/15
f 16/16/16 13/13/13 15/15/15
f 16/16/16 15/15/15 17/17/17
f 18/18/18 19/19/19 20/20/20
f 18/18/18 21/21/21 19/19/19
f 22/22/22 20/20/20 23/23/23
f 22/22/22 18/18/18 20/20/20
f 24/24/24 25/25/25 26/26/26
f 24/24/24 27/27/27 25/25/25
f 28/28/28 24/24/24 26/26/26
f 29/29/29 30/30/30 31/31/31
f 30/30/30 32/32/32 31/31/31
f 3/3/3 4/4/4 33/33/33
f 4/4/4 34/34/34 33/33/33
f 17/17/17 15/15/15 35/35/35
f 15/15/15 36/36/36 35/35/35
f 15/15/15 14/14/14 36/36/36
f 14/14/14 37/37/37 36/36/36
f 27/27/27 29/29/29 38/38/38
f 29/29/29 31/31/31 38/38/38
f 6/6/6 5/5/5 39/39/39
f 5/5/5 40/40/40 39/39/39
