v -2.000032 2 0.4998704
v 3.99997 2 0.500257
v -1.999871 4 -1.999879
v 4.000129 4 -1.99995
v -1.999871 -1 -1.999879
v 4.000129 -1 -1.999949
v -2.000033 -1 0.4998704
v 3.999971 -1 0.500257
v -2.000033 -1 0.4998704
v 3.999971 -1 0.500257
v 3.99997 2 0.500257
v -2.000032 2 0.4998704
v 3.999971 -1 0.500257
v 4.000129 -1 -1.999949
v 4.000131 2 -1.999951
v 3.99997 2 0.500257
v 4.000129 4 -1.99995
v 4.000259 2 -3.999745
v -1.999743 -1 -4.000131
v -1.999743 2 -4.000132
v 4.000258 -1 -3.999744
v 4.000258 6 -3.999745
v -1.999743 6 -4.000132
v -1.999871 2 -1.99988
v -2.000033 -1 0.4998704
v -2.000032 2 0.4998704
v -1.999871 -1 -1.999879
v -1.999871 4 -1.999879
v -1.999871 2 -1.99988
v -1.999871 4 -1.999879
v -1.999743 2 -4.000132
v -1.999743 6 -4.000132
v -1.999871 4 -1.999879
v 4.000129 4 -1.99995
v -1.999743 6 -4.000132
v 4.000258 6 -3.999745
v 4.000258 6 -3.999745
v 4.000259 2 -3.999745
v 4.000131 2 -1.999951
v 4.000129 -1 -1.999949
v 4.000259 2 -3.999745
v 4.000258 -1 -3.999744
v -1.999743 -1 -4.000131
v -1.999743 2 -4.000132
v 4.000258 -1 -3.999744
v -1.999743 -1 -4.000131
vn -4.025318E-05 0.7808383 0.6247332
vn -1.645295E-05 0.7808661 0.6246984
vn -1.645295E-05 0.7808661 0.6246984
vn 7.347282E-06 0.780894 0.6246636
vn 0 -1 0
vn 0 -1 0
vn 0 -1 0
vn 0 -1 0
vn -6.443258E-05 4.336809E-18 1
vn -6.443256E-05 -2.048256E-11 1
vn -6.443258E-05 4.336809E-18 1
vn -6.443259E-05 2.048257E-11 1
vn 1 -7.945029E-08 6.360481E-05
vn 1 -4.76792E-07 6.312803E-05
vn 1 -7.945029E-08 6.360481E-05
vn 1 3.178914E-07 6.408158E-05
vn 1 7.152099E-07 6.408158E-05
vn 6.44922E-05 -3.973643E-07 -1
vn 6.44922E-05 -3.973643E-07 -1
vn 6.445246E-05 -3.17871E-07 -1
vn 6.453195E-05 -4.768577E-07 -1
vn 6.44922E-05 5.960463E-08 -1
vn 6.453195E-05 -1.538562E-11 -1
vn -1 1.787972E-07 -6.464175E-05
vn -1 1.787972E-07 -6.464175E-05
vn -1 3.178914E-07 -6.447482E-05
vn -1 3.970295E-08 -6.480868E-05
vn -1 -5.957774E-08 -6.447481E-05
vn -1 -5.957796E-08 -6.394773E-05
vn -1 7.451915E-08 -6.408181E-05
vn -1 7.451915E-08 -6.408181E-05
vn -1 2.086163E-07 -6.421589E-05
vn 8.316452E-06 0.7071515 0.7070621
vn -1.865141E-05 0.707111 0.7071025
vn -1.865141E-05 0.707111 0.7071025
vn -4.561927E-05 0.7070706 0.707143
vn 1 4.7681E-07 6.485649E-05
vn 1 2.384109E-07 6.437964E-05
vn 1 -4.767911E-07 6.437964E-05
vn 1 -3.973259E-07 6.449885E-05
vn 1 -3.973259E-07 6.449885E-05
vn 1 -3.178606E-07 6.461806E-05
vn -1 -1.192361E-07 -6.41861E-05
vn -1 -2.781753E-07 -6.394772E-05
vn 0 -1 0
vn 0 -1 0
vt -1.999929 -0.8592129
vt 4.000073 -0.8587178
vt -1.999665 -4.06058
vt 4.000335 -4.060441
vt 1.999871 -1.999879
vt -4.000129 -1.999949
vt 2.000033 0.4998704
vt -3.999971 0.500257
vt 2.000001 -1
vt -4.000004 -1
vt -4.000003 2
vt 2 2
vt 0.5000026 -1
vt -2.000204 -1
vt -2.000206 2
vt 0.5000026 2
vt -2.000204 4
vt 4.000001 2.000001
vt -2 -0.9999987
vt -2.000001 2.000001
vt 4 -0.9999987
vt 4 6
vt -2.000001 6
vt 1.999751 2
vt -0.4999993 -1
vt -0.4999993 2
vt 1.99975 -1
vt 1.99975 4
vt 1.999752 2
vt 1.999751 4
vt 4.000004 2
vt 4.000004 6
vt 1.999848 4.242483
vt -4.000153 4.242483
vt 1.999695 7.071088
vt -4.000306 7.070765
vt -4.000006 5.999997
vt -4.000007 1.999997
vt -2.000209 2.000002
vt -2.000207 -0.9999981
vt -4.000003 2.000002
vt -4.000001 -0.9999981
vt 4.000002 -1
vt 4.000003 2
vt -4.000258 -3.999744
vt 1.999743 -4.000131
g submesh0
f 1/1/1 2/2/2 3/3/3
f 2/2/2 4/4/4 3/3/3
f 5/5/5 6/6/6 7/7/7
f 6/6/6 8/8/8 7/7/7
f 9/9/9 10/10/10 11/11/11
f 12/12/12 9/9/9 11/11/11
f 13/13/13 14/14/14 15/15/15
f 16/16/16 13/13/13 15/15/15
f 16/16/16 15/15/15 17/17/17
f 18/18/18 19/19/19 20/20/20
f 18/18/18 21/21/21 19/19/19
f 22/22/22 20/20/20 23/23/23
f 22/22/22 18/18/18 20/20/20
f 24/24/24 25/25/25 26/26/26
f 24/24/24 27/27/27 25/25/25
f 28/28/28 24/24/24 26/26/26
f 29/29/29 30/30/30 31/31/31
f 30/30/30 32/32/32 31/31/31
f 33/33/33 34/34/34 35/35/35
f 34/34/34 36/36/36 35/35/35
f 17/17/17 15/15/15 37/37/37
f 15/15/15 38/38/38 37/37/37
f 39/39/39 40/40/40 41/41/41
f 40/40/40 42/42/42 41/41/41
f 27/27/27 24/24/24 43/43/43
f 24/24/24 44/44/44 43/43/43
f 6/6/6 5/5/5 45/45/45
f 5/5/5 46/46/46 45/45/45
