v 0 0 0
v 18 0 -0.0008373559
v 0 1 0
v 18 1 -0.0008373559
v 18 0 -0.0008373559
v 17.99988 0 -2.000716
v 18 1 -0.0008373559
v 17.99988 3 -2.000716
v 15.99976 0 -4.000955
v 0 0 -4
v 15.99976 5 -4.000955
v 0 5 -4
v 0 0 -2
v 0 0 0
v 0 3 -2
v 0 1 0
v 0 0 -2
v 17.99988 0 -2.000716
v 0 0 0
v 18 0 -0.0008373559
v 15.99976 0 -4.000955
v 0 0 -4
v 17.99988 3 -2.000716
v 17.99988 0 -2.000716
v 15.99976 5 -4.000955
v 15.99976 0 -4.000955
v 0 0 -4
v 0 5 -4
v 0 3 -2
v 17.99988 3 -2.000716
v 0 5 -4
v 15.99976 5 -4.000955
v 0 1 0
v 18 1 -0.0008373559
v 0 3 -2
v 17.99988 3 -2.000716
vn 4.651977E-05 0 1
vn 4.651977E-05 0 1
vn 4.651977E-05 0 1
vn 4.651977E-05 0 1
vn 1 0 -5.913139E-05
vn 1 0 -5.913139E-05
vn 1 0 -5.913139E-05
vn 1 0 -5.913139E-05
vn -5.966514E-05 0 -1
vn -5.966514E-05 0 -1
vn -5.966514E-05 0 -1
vn -5.966514E-05 0 -1
vn -1 0 0
vn -1 0 0
vn -1 0 0
vn -1 0 0
vn 0 -1 0
vn 0 -1 0
vn 0 -1 0
vn 0 -1 0
vn 0 -1 0
vn 0 -1 0
vn 0.7071277 0 -0.7070859
vn 0.7071277 0 -0.7070859
vn 0.7071277 0 -0.7070859
vn 0.7071277 0 -0.7070859
vn -1 0 0
vn -1 0 0
vn 2.813555E-05 0.7071068 0.7071068
vn 3.51607E-05 0.7071384 0.7070751
vn 3.51607E-05 0.7071384 0.7070751
vn 4.218585E-05 0.70717 0.7070435
vn 3.289444E-05 0.7071068 0.7071068
vn 3.051542E-05 0.7070961 0.7071174
vn 3.051542E-05 0.7070961 0.7071174
vn 2.81364E-05 0.7070854 0.7071282
vt 0 0
vt -18 0
vt 0 1
vt -18 1
vt 0.0002270091 0
vt -1.999652 0
vt 0.0002270091 1
vt -1.999652 3
vt 16 0
vt 0.0002386605 0
vt 16 5
vt 0.0002386605 5
vt 2 0
vt 0 0
vt 2 3
vt 0 1
vt 0 -2
vt -17.99988 -2.000716
vt 0 0
vt -18 -0.0008373559
vt -15.99976 -4.000955
vt 0 -4
vt 11.3127 3
vt 11.3127 0
vt 8.48402 5
vt 8.48402 0
vt 4 0
vt 4 5
vt -7.957935E-05 3.535534
vt -17.99996 3.535534
vt -0.0001591587 6.363961
vt -15.99992 6.364186
vt 0 0.7071068
vt -18 0.7071068
vt -9.303954E-05 3.535534
vt -17.99998 3.535448
g submesh0
f 1/1/1 2/2/2 3/3/3
f 2/2/2 4/4/4 3/3/3
f 5/5/5 6/6/6 7/7/7
f 6/6/6 8/8/8 7/7/7
f 9/9/9 10/10/10 11/11/11
f 10/10/10 12/12/12 11/11/11
f 13/13/13 14/14/14 15/15/15
f 14/14/14 16/16/16 15/15/15
f 17/17/17 18/18/18 19/19/19
f 18/18/18 20/20/20 19/19/19
f 18/18/18 17/17/17 21/21/21
f 17/17/17 22/22/22 21/21/21
f 23/23/23 24/24/24 25/25/25
f 24/24/24 26/26/26 25/25/25
f 13/13/13 15/15/15 27/27/27
f 15/15/15 28/28/28 27/27/27
f 29/29/29 30/30/30 31/31/31
f 30/30/30 32/32/32 31/31/31
g submesh1
f 33/33/33 34/34/34 35/35/35
f 34/34/34 36/36/36 35/35/35
