v 0.75 -6.5 0.1249999
v 1 -6.5 0.1249998
v 0.75 6.5 0.1250001
v 1 6.5 0.1249999
v 1 -6.5 0.1249998
v 0.9999999 -6.5 -0.1250002
v 1 6.5 0.1249999
v 0.9999999 6.5 -0.1250001
v 0.9999999 -6.5 -0.1250002
v 0.7499999 -6.5 -0.1250001
v 0.9999999 6.5 -0.1250001
v 0.7499999 6.5 -0.1249999
v -1 -6.5 -0.1249995
v -1 -6.5 0.1250005
v -1 6.5 -0.1249999
v -1 6.5 0.1250001
v 0.75 6.5 0.1250001
v 1 6.5 0.1249999
v 0.7499999 6.5 -0.1249999
v 0.9999999 6.5 -0.1250001
v 0.7499999 -6.5 -0.1250001
v 0.9999999 -6.5 -0.1250002
v 0.75 -6.5 0.1249999
v 1 -6.5 0.1249998
v -0.7500001 -6.5 -0.1249996
v -0.75 -6.5 0.1250004
v -1 -6.5 -0.1249995
v -1 -6.5 0.1250005
v -0.7500001 6.5 -0.1249992
v -0.7500001 -6.5 -0.1249996
v -1 6.5 -0.1249999
v -1 -6.5 -0.1249995
v -0.75 -6.5 0.1250004
v -0.75 6.5 0.1250008
v -1 -6.5 0.1250005
v -1 6.5 0.1250001
v -0.75 6.5 0.1250008
v -0.7500001 6.5 -0.1249992
v -1 6.5 0.1250001
v -1 6.5 -0.1249999
v 0.75 -6.5 0.1249999
v 0.75 6.5 0.1250001
v 0.7499999 -6.5 -0.1250001
v 0.7499999 6.5 -0.1249999
v -0.75 6.5 0.1250008
v -0.75 -6.5 0.1250004
v -0.7500001 6.5 -0.1249992
v -0.7500001 -6.5 -0.1249996
v 0.75 -6.5 -1.490116E-07
v 0.75 6.5 1.490116E-07
v -0.75 -6.5 3.874302E-07
v -0.75 6.5 8.046627E-07
vn 3.576279E-07 -2.292486E-08 1
vn 7.152555E-07 -1.604741E-08 1
vn 7.152555E-07 -1.604741E-08 1
vn 1.072883E-06 -9.169955E-09 1
vn 1 -9.169941E-09 -4.768372E-07
vn 1 -4.584966E-09 -7.152557E-07
vn 1 -4.584966E-09 -7.152557E-07
vn 1 8.745142E-15 -9.536743E-07
vn -3.576279E-07 9.169946E-09 -1
vn -7.152557E-07 1.604741E-08 -1
vn -7.152557E-07 1.604741E-08 -1
vn -1.072884E-06 2.292486E-08 -1
vn -1 1.311771E-14 4.768372E-07
vn -1 1.311771E-14 4.768372E-07
vn -1 1.311771E-14 4.768372E-07
vn -1 1.311771E-14 4.768372E-07
vn 0 1 0
vn 0 1 0
vn 0 1 0
vn 0 1 0
vn 0 -1 0
vn 0 -1 0
vn 0 -1 0
vn 0 -1 0
vn 0 -1 0
vn 0 -1 0
vn 0 -1 0
vn 0 -1 0
vn 2.741814E-06 3.209481E-08 -1
vn 1.192093E-06 2.292487E-09 -1
vn 1.192093E-06 2.292487E-09 -1
vn -3.576279E-07 -2.750984E-08 -1
vn 3.576279E-07 -3.209481E-08 1
vn -1.192093E-06 -2.292487E-09 1
vn -1.192093E-06 -2.292487E-09 1
vn -2.741814E-06 2.750984E-08 1
vn 0 1 0
vn 0 1 0
vn 0 1 0
vn 0 1 0
vn -1 -1.093143E-14 4.768372E-07
vn -1 -1.093143E-14 4.768372E-07
vn -1 -1.093143E-14 4.768372E-07
vn -1 -1.093143E-14 4.768372E-07
vn 1 1.5304E-14 -4.768372E-07
vn 1 1.5304E-14 -4.768372E-07
vn 1 1.5304E-14 -4.768372E-07
vn 1 1.5304E-14 -4.768372E-07
vn 3.576279E-07 -2.292486E-08 1
vn 3.973643E-07 -2.750984E-08 1
vn 3.973643E-07 -2.750984E-08 1
vn 4.371007E-07 -3.209481E-08 1
vt -0.7499999 -6.5
vt -0.9999999 -6.5
vt -0.7499999 6.5
vt -1 6.5
vt -2 -6.5
vt -2.25 -6.5
vt -2 6.5
vt -2.25 6.5
vt 0.9999999 -6.5
vt 0.7499999 -6.5
vt 0.9999999 6.5
vt 0.7499999 6.5
vt 2.25 -6.5
vt 2 -6.5
vt 2.25 6.5
vt 2 6.5
vt 0.75 -2
vt 1 -2
vt 0.7499999 -2.25
vt 0.9999999 -2.25
vt -0.7499999 -2.25
vt -0.9999999 -2.25
vt -0.75 -2
vt -1 -2
vt 0.7500001 -2.25
vt 0.75 -2
vt 1 -2.25
vt 1 -2
vt -0.7500005 6.5
vt -0.7500005 -6.5
vt -1 6.5
vt -1 -6.5
vt 0.7500001 -6.5
vt 0.7500001 6.5
vt 1 -6.5
vt 1 6.5
vt -0.75 -1.999999
vt -0.7500001 -2.249999
vt -1 -2
vt -1 -2.25
vt 2 -6.5
vt 2 6.5
vt 2.25 -6.5
vt 2.25 6.5
vt -2 6.5
vt -2 -6.5
vt -2.25 6.5
vt -2.25 -6.5
vt -0.75 -6.5
vt -0.75 6.5
vt 0.75 -6.5
vt 0.75 6.5
g submesh0
f 1/1/1 2/2/2 3/3/3
f 2/2/2 4/4/4 3/3/3
f 5/5/5 6/6/6 7/7/7
f 6/6/6 8/8/8 7/7/7
f 9/9/9 10/10/10 11/11/11
f 10/10/10 12/12/12 11/11/11
f 13/13/13 14/14/14 15/15/15
f 14/14/14 16/16/16 15/15/15
f 17/17/17 18/18/18 19/19/19
f 18/18/18 20/20/20 19/19/19
f 21/21/21 22/22/22 23/23/23
f 22/22/22 24/24/24 23/23/23
f 25/25/25 26/26/26 27/27/27
f 26/26/26 28/28/28 27/27/27
f 29/29/29 30/30/30 31/31/31
f 30/30/30 32/32/32 31/31/31
f 33/33/33 34/34/34 35/35/35
f 34/34/34 36/36/36 35/35/35
f 37/37/37 38/38/38 39/39/39
f 38/38/38 40/40/40 39/39/39
f 41/41/41 42/42/42 43/43/43
f 42/42/42 44/44/44 43/43/43
f 45/45/45 46/46/46 47/47/47
f 46/46/46 48/48/48 47/47/47
g submesh1
f 49/49/49 50/50/50 51/51/51
f 50/50/50 52/52/52 51/51/51
