v 0.7500003 -6 0.1249998
v 1 -6 0.1249997
v 0.7500002 6 0.1249992
v 1 6 0.1249986
v 1 -6 0.1249997
v 1 -6 -0.1250003
v 1 6 0.1249986
v 1 6 -0.1250014
v 1 -6 -0.1250003
v 0.7500002 -6 -0.1250002
v 1 6 -0.1250014
v 0.7500001 6 -0.1250008
v -0.9999998 -6 -0.1249995
v -0.9999997 -6 0.1250005
v -1 6 -0.125
v -1 6 0.125
v 0.7500002 6 0.1249992
v 1 6 0.1249986
v 0.7500001 6 -0.1250008
v 1 6 -0.1250014
v 0.7500002 -6 -0.1250002
v 1 -6 -0.1250003
v 0.7500003 -6 0.1249998
v 1 -6 0.1249997
v -0.7499998 -6 -0.1249996
v -0.7499997 -6 0.1250004
v -0.9999998 -6 -0.1249995
v -0.9999997 -6 0.1250005
v -0.7500002 6 -0.1250007
v -0.7499998 -6 -0.1249996
v -1 6 -0.125
v -0.9999998 -6 -0.1249995
v -0.7499997 -6 0.1250004
v -0.75 6 0.1249994
v -0.9999997 -6 0.1250005
v -1 6 0.125
v -0.75 6 0.1249994
v -0.7500002 6 -0.1250007
v -1 6 0.125
v -1 6 -0.125
v 0.7500003 -6 0.1249998
v 0.7500002 6 0.1249992
v 0.7500002 -6 -0.1250002
v 0.7500001 6 -0.1250008
v -0.75 6 0.1249994
v -0.7499997 -6 0.1250004
v -0.7500002 6 -0.1250007
v -0.7499998 -6 -0.1249996
v 0.7500002 -6 -1.639128E-07
v 0.7500004 6 -7.748604E-07
v -0.7499998 -6 3.72529E-07
v -0.7500003 6 -6.556511E-07
vn 3.57628E-07 4.967054E-08 1
vn 1.490116E-06 7.326405E-08 1
vn 1.490116E-06 7.326405E-08 1
vn 2.622604E-06 9.685755E-08 1
vn 1 -4.618528E-14 -4.768372E-07
vn 1 4.966983E-09 -7.152556E-07
vn 1 4.966983E-09 -7.152556E-07
vn 1 9.934013E-09 -9.536741E-07
vn -3.57628E-07 -9.934108E-08 -1
vn -1.490116E-06 -7.574759E-08 -1
vn -1.490116E-06 -7.574759E-08 -1
vn -2.622605E-06 -5.215409E-08 -1
vn -1 -3.476936E-08 4.768372E-07
vn -1 -3.476936E-08 4.768371E-07
vn -1 -3.476936E-08 4.768371E-07
vn -1 -3.476936E-08 4.768371E-07
vn 0 1 0
vn 0 1 0
vn 0 1 0
vn 0 1 0
vn 0 -1 0
vn 0 -1 0
vn 0 -1 0
vn 0 -1 0
vn 0 -1 0
vn 0 -1 0
vn 0 -1 0
vn 0 -1 0
vn -2.622604E-06 -8.692351E-08 -1
vn -1.490116E-06 -6.332998E-08 -1
vn -1.490116E-06 -6.332998E-08 -1
vn -3.576279E-07 -3.973645E-08 -1
vn 3.576279E-07 8.443993E-08 1
vn 1.490116E-06 6.084646E-08 1
vn 1.490116E-06 6.084646E-08 1
vn 2.622603E-06 3.7253E-08 1
vn 0 1 0
vn 0 1 0
vn 0 1 0
vn 0 1 0
vn -1 -4.96703E-09 4.768372E-07
vn -1 -7.45055E-09 5.960464E-07
vn -1 -7.45055E-09 5.960464E-07
vn -1 -9.93407E-09 7.152556E-07
vn 1 2.483521E-08 -7.152556E-07
vn 1 2.731874E-08 -5.960464E-07
vn 1 2.731874E-08 -5.960464E-07
vn 1 2.980228E-08 -4.768372E-07
vn 3.576279E-07 5.09123E-08 1
vn 2.185504E-07 6.829699E-08 1
vn 2.185504E-07 6.829699E-08 1
vn 7.947283E-08 8.568168E-08 1
vt -0.7500002 -6
vt -1 -6
vt -0.7500002 6
vt -1 6
vt -2 -6
vt -2.25 -6
vt -2.000001 6
vt -2.250001 6
vt 1 -6
vt 0.7500002 -6
vt 1 6
vt 0.7500001 6
vt 2.25 -6
vt 2 -6
vt 2.25 6
vt 2 6
vt 0.7500002 -2.000001
vt 1 -2.000001
vt 0.7500001 -2.250001
vt 1 -2.250001
vt -0.7500002 -2.25
vt -1 -2.25
vt -0.7500003 -2
vt -1 -2
vt 0.7499998 -2.25
vt 0.7499997 -2
vt 0.9999998 -2.25
vt 0.9999997 -2
vt -0.7499998 6
vt -0.7499995 -6
vt -0.9999999 6
vt -0.9999995 -6
vt 0.7499998 -6
vt 0.7500001 6
vt 0.9999998 -6
vt 1 6
vt -0.75 -2.000001
vt -0.7500002 -2.250001
vt -1 -2
vt -1 -2.25
vt 2 -6
vt 2 6
vt 2.25 -6
vt 2.25 6
vt -2.000001 6
vt -2 -6
vt -2.250001 6
vt -2.25 -6
vt -0.7500002 -6
vt -0.7500004 6
vt 0.7499998 -6
vt 0.7500003 6
g submesh0
f 1/1/1 2/2/2 3/3/3
f 2/2/2 4/4/4 3/3/3
f 5/5/5 6/6/6 7/7/7
f 6/6/6 8/8/8 7/7/7
f 9/9/9 10/10/10 11/11/11
f 10/10/10 12/12/12 11/11/11
f 13/13/13 14/14/14 15/15/15
f 14/14/14 16/16/16 15/15/15
f 17/17/17 18/18/18 19/19/19
f 18/18/18 20/20/20 19/19/19
f 21/21/21 22/22/22 23/23/23
f 22/22/22 24/24/24 23/23/23
f 25/25/25 26/26/26 27/27/27
f 26/26/26 28/28/28 27/27/27
f 29/29/29 30/30/30 31/31/31
f 30/30/30 32/32/32 31/31/31
f 33/33/33 34/34/34 35/35/35
f 34/34/34 36/36/36 35/35/35
f 37/37/37 38/38/38 39/39/39
f 38/38/38 40/40/40 39/39/39
f 41/41/41 42/42/42 43/43/43
f 42/42/42 44/44/44 43/43/43
f 45/45/45 46/46/46 47/47/47
f 46/46/46 48/48/48 47/47/47
g submesh1
f 49/49/49 50/50/50 51/51/51
f 50/50/50 52/52/52 51/51/51
