v 0.7499995 -7 0.1249989
v 0.9999995 -7 0.1249988
v 0.7499983 7 0.1249989
v 0.9999983 7 0.1249997
v 0.9999995 -7 0.1249988
v 0.9999994 -7 -0.1250012
v 0.9999983 7 0.1249997
v 0.9999981 7 -0.1250003
v 0.9999994 -7 -0.1250012
v 0.7499994 -7 -0.1250011
v 0.9999981 7 -0.1250003
v 0.7499981 7 -0.1250011
v -1.000001 -7 -0.1250005
v -1 -7 0.1249995
v -1 7 -0.1249997
v -0.9999998 7 0.1250003
v 0.7499983 7 0.1249989
v 0.9999983 7 0.1249997
v 0.7499981 7 -0.1250011
v 0.9999981 7 -0.1250003
v 0.7499994 -7 -0.1250011
v 0.9999994 -7 -0.1250012
v 0.7499995 -7 0.1249989
v 0.9999995 -7 0.1249988
v -0.7500006 -7 -0.1250006
v -0.7500005 -7 0.1249994
v -1.000001 -7 -0.1250005
v -1 -7 0.1249995
v -0.75 7 -0.1249999
v -0.7500006 -7 -0.1250006
v -1 7 -0.1249997
v -1.000001 -7 -0.1250005
v -0.7500005 -7 0.1249994
v -0.7499998 7 0.1250001
v -1 -7 0.1249995
v -0.9999998 7 0.1250003
v -0.7499998 7 0.1250001
v -0.75 7 -0.1249999
v -0.9999998 7 0.1250003
v -1 7 -0.1249997
v 0.7499995 -7 0.1249989
v 0.7499983 7 0.1249989
v 0.7499994 -7 -0.1250011
v 0.7499981 7 -0.1250011
v -0.7499998 7 0.1250001
v -0.7500005 -7 0.1249994
v -0.75 7 -0.1249999
v -0.7500006 -7 -0.1250006
v 0.7499995 -7 -1.102686E-06
v 0.7499982 7 -1.087785E-06
v -0.7500005 -7 -5.662441E-07
v -0.7499999 7 7.450581E-08
vn 3.576279E-07 -1.064337E-09 1
vn -1.341105E-06 -3.139899E-08 1
vn -1.341105E-06 -3.139899E-08 1
vn -3.039837E-06 -6.173365E-08 1
vn 1 8.9407E-08 -4.768372E-07
vn 1 9.153574E-08 -5.960464E-07
vn 1 9.153574E-08 -5.960464E-07
vn 1 9.366448E-08 -7.152557E-07
vn -3.576279E-07 6.173335E-08 -1
vn 1.341105E-06 3.1399E-08 -1
vn 1.341105E-06 3.1399E-08 -1
vn 3.039837E-06 1.064653E-09 -1
vn -1 4.257472E-08 4.768372E-07
vn -1 4.470346E-08 5.960464E-07
vn -1 4.470346E-08 5.960464E-07
vn -1 4.683218E-08 7.152557E-07
vn 0 1 0
vn 0 1 0
vn 0 1 0
vn 0 1 0
vn 0 -1 0
vn 0 -1 0
vn 0 -1 0
vn 0 -1 0
vn 0 -1 0
vn 0 -1 0
vn 0 -1 0
vn 0 -1 0
vn -7.748604E-07 4.576788E-08 -1
vn -5.662441E-07 4.949317E-08 -1
vn -5.662441E-07 4.949317E-08 -1
vn -3.576279E-07 5.321845E-08 -1
vn 3.576279E-07 -4.683224E-08 1
vn 5.364418E-07 -5.002535E-08 1
vn 5.364418E-07 -5.002535E-08 1
vn 7.152557E-07 -5.321846E-08 1
vn 0 1 0
vn 0 1 0
vn 0 1 0
vn 0 1 0
vn -1 -8.940697E-08 4.768372E-07
vn -1 -9.15357E-08 5.960464E-07
vn -1 -9.15357E-08 5.960464E-07
vn -1 -9.366444E-08 7.152557E-07
vn 1 -4.683219E-08 -7.152557E-07
vn 1 -4.470346E-08 -5.960464E-07
vn 1 -4.470346E-08 -5.960464E-07
vn 1 -4.257473E-08 -4.768372E-07
vn 3.576279E-07 -1.064337E-09 1
vn 5.662446E-07 -2.341612E-08 1
vn 5.662446E-07 -2.341612E-08 1
vn 7.748613E-07 -4.576789E-08 1
vt -0.7499995 -7
vt -0.9999995 -7
vt -0.7499982 7
vt -0.9999982 7
vt -2.000001 -7
vt -2.250001 -7
vt -2 7
vt -2.25 7
vt 0.9999995 -7
vt 0.7499995 -7
vt 0.9999982 7
vt 0.7499982 7
vt 2.250001 -7
vt 2.000001 -7
vt 2.25 7
vt 2 7
vt 0.7499983 -2.000001
vt 0.9999983 -2
vt 0.7499981 -2.250001
vt 0.9999981 -2.25
vt -0.7499994 -2.250001
vt -0.9999994 -2.250001
vt -0.7499995 -2.000001
vt -0.9999995 -2.000001
vt 0.7500006 -2.25
vt 0.7500005 -2
vt 1.000001 -2.25
vt 1 -2
vt -0.7499999 7
vt -0.7500005 -7
vt -0.9999999 7
vt -1 -7
vt 0.7500005 -7
vt 0.7499999 7
vt 1 -7
vt 0.9999999 7
vt -0.7499998 -2
vt -0.75 -2.25
vt -0.9999998 -2
vt -1 -2.25
vt 2.000001 -7
vt 2.000001 7
vt 2.250001 -7
vt 2.250001 7
vt -2 7
vt -2.000001 -7
vt -2.25 7
vt -2.250001 -7
vt -0.7499995 -7
vt -0.7499982 7
vt 0.7500005 -7
vt 0.7499999 7
g submesh0
f 1/1/1 2/2/2 3/3/3
f 2/2/2 4/4/4 3/3/3
f 5/5/5 6/6/6 7/7/7
f 6/6/6 8/8/8 7/7/7
f 9/9/9 10/10/10 11/11/11
f 10/10/10 12/12/12 11/11/11
f 13/13/13 14/14/14 15/15/15
f 14/14/14 16/16/16 15/15/15
f 17/17/17 18/18/18 19/19/19
f 18/18/18 20/20/20 19/19/19
f 21/21/21 22/22/22 23/23/23
f 22/22/22 24/24/24 23/23/23
f 25/25/25 26/26/26 27/27/27
f 26/26/26 28/28/28 27/27/27
f 29/29/29 30/30/30 31/31/31
f 30/30/30 32/32/32 31/31/31
f 33/33/33 34/34/34 35/35/35
f 34/34/34 36/36/36 35/35/35
f 37/37/37 38/38/38 39/39/39
f 38/38/38 40/40/40 39/39/39
f 41/41/41 42/42/42 43/43/43
f 42/42/42 44/44/44 43/43/43
f 45/45/45 46/46/46 47/47/47
f 46/46/46 48/48/48 47/47/47
g submesh1
f 49/49/49 50/50/50 51/51/51
f 50/50/50 52/52/52 51/51/51
