v 0.7499998 -8 0.1249996
v 0.9999998 -8 0.1249995
v 0.75 8 0.1249997
v 1 8 0.1249995
v 0.9999998 -8 0.1249995
v 0.9999997 -8 -0.1250005
v 1 8 0.1249995
v 1 8 -0.1250005
v 0.9999997 -8 -0.1250005
v 0.7499997 -8 -0.1250004
v 1 8 -0.1250005
v 0.7500004 8 -0.1250004
v -1 -8 -0.1249998
v -1 -8 0.1250002
v -0.9999997 8 -0.1249998
v -1 8 0.1250005
v 0.75 8 0.1249997
v 1 8 0.1249995
v 0.7500004 8 -0.1250004
v 1 8 -0.1250005
v 0.7499997 -8 -0.1250004
v 0.9999997 -8 -0.1250005
v 0.7499998 -8 0.1249996
v 0.9999998 -8 0.1249995
v -0.7500003 -8 -0.1249999
v -0.7500002 -8 0.1250001
v -1 -8 -0.1249998
v -1 -8 0.1250002
v -0.7499997 8 -0.1249999
v -0.7500003 -8 -0.1249999
v -0.9999997 8 -0.1249998
v -1 -8 -0.1249998
v -0.7500002 -8 0.1250001
v -0.7500001 8 0.1250004
v -1 -8 0.1250002
v -1 8 0.1250005
v -0.7500001 8 0.1250004
v -0.7499997 8 -0.1249999
v -1 8 0.1250005
v -0.9999997 8 -0.1249998
v 0.7499998 -8 0.1249996
v 0.75 8 0.1249997
v 0.7499997 -8 -0.1250004
v 0.7500004 8 -0.1250004
v -0.7500001 8 0.1250004
v -0.7500002 -8 0.1250001
v -0.7499997 8 -0.1249999
v -0.7500003 -8 -0.1249999
v 0.7499998 -8 -3.874302E-07
v 0.7500002 8 -3.576279E-07
v -0.7500002 -8 1.490116E-07
v -0.7499999 8 3.576279E-07
vn 3.576279E-07 -2.793972E-09 1
vn 4.172324E-07 -1.862652E-09 1
vn 4.172324E-07 -1.862652E-09 1
vn 4.768369E-07 -9.313315E-10 1
vn 1 -1.862645E-08 -4.768372E-07
vn 1 -3.352761E-08 4.768372E-07
vn 1 -3.352761E-08 4.768372E-07
vn 1 -4.842877E-08 1.430511E-06
vn -3.576279E-07 1.731948E-14 -1
vn -4.172324E-07 9.31341E-10 -1
vn -4.172324E-07 9.31341E-10 -1
vn -4.768369E-07 1.862665E-09 -1
vn -1 3.352761E-08 4.768372E-07
vn -1 2.048911E-08 -3.576273E-07
vn -1 2.048911E-08 -3.576273E-07
vn -1 7.450598E-09 -1.192092E-06
vn 0 1 0
vn 0 1 0
vn 0 1 0
vn 0 1 0
vn 0 -1 0
vn 0 -1 0
vn 0 -1 0
vn 0 -1 0
vn 0 -1 0
vn 0 -1 0
vn 0 -1 0
vn 0 -1 0
vn -4.768372E-07 -1.862627E-09 -1
vn -4.172326E-07 -9.313077E-10 -1
vn -4.172326E-07 -9.313077E-10 -1
vn -3.57628E-07 1.199041E-14 -1
vn 3.57628E-07 -1.303852E-08 1
vn 4.172326E-07 -1.396984E-08 1
vn 4.172326E-07 -1.396984E-08 1
vn 4.768373E-07 -1.490116E-08 1
vn 0 1 0
vn 0 1 0
vn 0 1 0
vn 0 1 0
vn -1 1.117587E-08 4.768372E-07
vn -1 2.607704E-08 -4.768372E-07
vn -1 2.607704E-08 -4.768372E-07
vn -1 4.09782E-08 -1.430511E-06
vn 1 -7.450599E-09 1.43051E-06
vn 1 -2.235175E-08 4.768365E-07
vn 1 -2.235175E-08 4.768365E-07
vn 1 -3.72529E-08 -4.768372E-07
vn 3.576279E-07 -1.862654E-09 1
vn 4.172325E-07 -7.450592E-09 1
vn 4.172325E-07 -7.450592E-09 1
vn 4.768372E-07 -1.303853E-08 1
vt -0.7499998 -8
vt -0.9999998 -8
vt -0.7499999 8
vt -1 8
vt -2 -8
vt -2.25 -8
vt -2 8
vt -2.25 8
vt 0.9999998 -8
vt 0.7499998 -8
vt 1 8
vt 0.7500004 8
vt 2.25 -8
vt 2 -8
vt 2.25 8
vt 2 8
vt 0.75 -2
vt 1 -2
vt 0.7500004 -2.25
vt 1 -2.25
vt -0.7499997 -2.25
vt -0.9999997 -2.25
vt -0.7499998 -2
vt -0.9999998 -2
vt 0.7500003 -2.25
vt 0.7500002 -2
vt 1 -2.25
vt 1 -2
vt -0.7499996 8
vt -0.7500002 -8
vt -0.9999996 8
vt -1 -8
vt 0.7500002 -8
vt 0.7500001 8
vt 1 -8
vt 1 8
vt -0.7500001 -2
vt -0.7499997 -2.25
vt -1 -2
vt -0.9999997 -2.25
vt 2 -8
vt 2 8
vt 2.25 -8
vt 2.25 8
vt -1.999999 8
vt -1.999999 -8
vt -2.249999 8
vt -2.249999 -8
vt -0.7499998 -8
vt -0.7500002 8
vt 0.7500002 -8
vt 0.7499999 8
g submesh0
f 1/1/1 2/2/2 3/3/3
f 2/2/2 4/4/4 3/3/3
f 5/5/5 6/6/6 7/7/7
f 6/6/6 8/8/8 7/7/7
f 9/9/9 10/10/10 11/11/11
f 10/10/10 12/12/12 11/11/11
f 13/13/13 14/14/14 15/15/15
f 14/14/14 16/16/16 15/15/15
f 17/17/17 18/18/18 19/19/19
f 18/18/18 20/20/20 19/19/19
f 21/21/21 22/22/22 23/23/23
f 22/22/22 24/24/24 23/23/23
f 25/25/25 26/26/26 27/27/27
f 26/26/26 28/28/28 27/27/27
f 29/29/29 30/30/30 31/31/31
f 30/30/30 32/32/32 31/31/31
f 33/33/33 34/34/34 35/35/35
f 34/34/34 36/36/36 35/35/35
f 37/37/37 38/38/38 39/39/39
f 38/38/38 40/40/40 39/39/39
f 41/41/41 42/42/42 43/43/43
f 42/42/42 44/44/44 43/43/43
f 45/45/45 46/46/46 47/47/47
f 46/46/46 48/48/48 47/47/47
g submesh1
f 49/49/49 50/50/50 51/51/51
f 50/50/50 52/52/52 51/51/51
