v 0.7499998 -5 0.1249999
v 0.9999998 -5 0.1249998
v 0.7499999 5 0.1250001
v 0.9999999 5 0.1249985
v 0.9999998 -5 0.1249998
v 0.9999996 -5 -0.1250002
v 0.9999999 5 0.1249985
v 1 5 -0.1250015
v 0.9999996 -5 -0.1250002
v 0.7499996 -5 -0.1250001
v 1 5 -0.1250015
v 0.7500001 5 -0.1249999
v -1 -5 -0.1249995
v -1 -5 0.1250005
v -0.9999999 5 -0.1249996
v -1 5 0.1250004
v 0.7499999 5 0.1250001
v 0.9999999 5 0.1249985
v 0.7500001 5 -0.1249999
v 1 5 -0.1250015
v 0.7499996 -5 -0.1250001
v 0.9999996 -5 -0.1250002
v 0.7499998 -5 0.1249999
v 0.9999998 -5 0.1249998
v -0.7500004 -5 -0.1249996
v -0.7500002 -5 0.1250004
v -1 -5 -0.1249995
v -1 -5 0.1250005
v -0.7499999 5 -0.1249994
v -0.7500004 -5 -0.1249996
v -0.9999999 5 -0.1249996
v -1 -5 -0.1249995
v -0.7500002 -5 0.1250004
v -0.7500001 5 0.1250006
v -1 -5 0.1250005
v -1 5 0.1250004
v -0.7500001 5 0.1250006
v -0.7499999 5 -0.1249994
v -1 5 0.1250004
v -0.9999999 5 -0.1249996
v 0.7499998 -5 0.1249999
v 0.7499999 5 0.1250001
v 0.7499996 -5 -0.1250001
v 0.7500001 5 -0.1249999
v -0.7500001 5 0.1250006
v -0.7500002 -5 0.1250004
v -0.7499999 5 -0.1249994
v -0.7500004 -5 -0.1249996
v 0.7499997 -5 -1.490116E-07
v 0.75 5 1.192093E-07
v -0.7500003 -5 3.874302E-07
v -0.75 5 5.960464E-07
vn 3.576279E-07 -2.68221E-08 1
vn 3.516674E-06 5.215402E-08 1
vn 3.516674E-06 5.215402E-08 1
vn 6.67572E-06 1.311301E-07 1
vn 1 -1.192099E-08 -4.768372E-07
vn 1 -2.980229E-08 2.384186E-07
vn 1 -2.980229E-08 2.384186E-07
vn 1 -4.768359E-08 9.536743E-07
vn -3.576279E-07 -1.311302E-07 -1
vn -3.516674E-06 -5.215389E-08 -1
vn -3.516674E-06 -5.215389E-08 -1
vn -6.67572E-06 2.682241E-08 -1
vn -1 4.768372E-08 4.768372E-07
vn -1 2.980232E-08 -2.384186E-07
vn -1 2.980232E-08 -2.384186E-07
vn -1 1.192092E-08 -9.536743E-07
vn 0 1 0
vn 0 1 0
vn 0 1 0
vn 0 1 0
vn 0 -1 0
vn 0 -1 0
vn 0 -1 0
vn 0 -1 0
vn 0 -1 0
vn 0 -1 0
vn 0 -1 0
vn 0 -1 0
vn 9.536743E-07 2.086158E-08 -1
vn 2.980232E-07 4.470334E-09 -1
vn 2.980232E-07 4.470334E-09 -1
vn -3.576279E-07 -1.192091E-08 -1
vn 3.576279E-07 -2.086163E-08 1
vn -2.980232E-07 -4.470345E-09 1
vn -2.980232E-07 -4.470345E-09 1
vn -9.536743E-07 1.192094E-08 1
vn 0 1 0
vn 0 1 0
vn 0 1 0
vn 0 1 0
vn -1 1.192092E-08 4.768372E-07
vn -1 2.980233E-08 -2.384186E-07
vn -1 2.980233E-08 -2.384186E-07
vn -1 4.768374E-08 -9.536743E-07
vn 1 -1.192095E-08 9.536743E-07
vn 1 -2.980233E-08 2.384186E-07
vn 1 -2.980233E-08 2.384186E-07
vn 1 -4.768371E-08 -4.768372E-07
vn 3.576279E-07 -2.68221E-08 1
vn 3.377597E-07 -2.384187E-08 1
vn 3.377597E-07 -2.384187E-08 1
vn 3.178914E-07 -2.086163E-08 1
vt -0.7499997 -5
vt -0.9999997 -5
vt -0.7499998 5
vt -0.9999998 5
vt -2 -5
vt -2.25 -5
vt -2.000001 5
vt -2.250001 5
vt 0.9999997 -5
vt 0.7499997 -5
vt 1 5
vt 0.7500002 5
vt 2.25 -5
vt 2 -5
vt 2.25 5
vt 2 5
vt 0.7499999 -2
vt 0.9999999 -2.000001
vt 0.7500001 -2.25
vt 1 -2.250001
vt -0.7499996 -2.25
vt -0.9999996 -2.25
vt -0.7499998 -2
vt -0.9999998 -2
vt 0.7500004 -2.25
vt 0.7500002 -2
vt 1 -2.25
vt 1 -2
vt -0.75 5
vt -0.7500005 -5
vt -1 5
vt -1 -5
vt 0.7500003 -5
vt 0.7500002 5
vt 1 -5
vt 1 5
vt -0.7500001 -1.999999
vt -0.7499999 -2.25
vt -1 -2
vt -0.9999999 -2.25
vt 2 -5
vt 2 5
vt 2.25 -5
vt 2.25 5
vt -1.999999 5
vt -1.999999 -5
vt -2.249999 5
vt -2.249999 -5
vt -0.7499997 -5
vt -0.75 5
vt 0.7500003 -5
vt 0.75 5
g submesh0
f 1/1/1 2/2/2 3/3/3
f 2/2/2 4/4/4 3/3/3
f 5/5/5 6/6/6 7/7/7
f 6/6/6 8/8/8 7/7/7
f 9/9/9 10/10/10 11/11/11
f 10/10/10 12/12/12 11/11/11
f 13/13/13 14/14/14 15/15/15
f 14/14/14 16/16/16 15/15/15
f 17/17/17 18/18/18 19/19/19
f 18/18/18 20/20/20 19/19/19
f 21/21/21 22/22/22 23/23/23
f 22/22/22 24/24/24 23/23/23
f 25/25/25 26/26/26 27/27/27
f 26/26/26 28/28/28 27/27/27
f 29/29/29 30/30/30 31/31/31
f 30/30/30 32/32/32 31/31/31
f 33/33/33 34/34/34 35/35/35
f 34/34/34 36/36/36 35/35/35
f 37/37/37 38/38/38 39/39/39
f 38/38/38 40/40/40 39/39/39
f 41/41/41 42/42/42 43/43/43
f 42/42/42 44/44/44 43/43/43
f 45/45/45 46/46/46 47/47/47
f 46/46/46 48/48/48 47/47/47
g submesh1
f 49/49/49 50/50/50 51/51/51
f 50/50/50 52/52/52 51/51/51
