g Rock
v 1.068558 -0.7444908 0.2185947
v 1.009496 -0.1960617 -0.006782711
v 0.4358839 -1.262424 0.02090329
v -0.5236967 -1.178164 0.2044719
v -0.08996224 -1.301073 0.7651836
v 0.4358839 -1.262424 0.02090329
v -0.9022964 -0.4568856 -0.01670372
v -1.072526 0.4005108 0.7355363
v -1.061383 -0.3262553 0.4532929
v 0.7853405 0.07250845 1.159483
v -0.002371788 -0.1501734 1.448411
v -0.07024026 1.097573 1.145171
v 0.7853405 0.07250845 1.159483
v -0.07024026 1.097573 1.145171
v 0.5064453 1.013446 0.9676768
v -0.07024026 1.097573 1.145171
v -0.002371788 -0.1501734 1.448411
v -0.6995966 0.7512799 1.117261
v -0.6995966 0.7512799 1.117261
v -0.002371788 -0.1501734 1.448411
v -0.7631452 -0.419732 1.13023
v -0.6995966 0.7512799 1.117261
v -0.7631452 -0.419732 1.13023
v -1.072526 0.4005108 0.7355363
v -0.7631452 -0.419732 1.13023
v -0.002371788 -0.1501734 1.448411
v -0.08996224 -1.301073 0.7651836
v -0.08996224 -1.301073 0.7651836
v -0.002371788 -0.1501734 1.448411
v 0.6780664 -1.110426 0.8023154
v -0.002371788 -0.1501734 1.448411
v 0.7853405 0.07250845 1.159483
v 0.6780664 -1.110426 0.8023154
v 0.9018997 0.7633734 0.4444751
v 0.7853405 0.07250845 1.159483
v 0.5064453 1.013446 0.9676768
v -0.3002948 1.296485 0.3870627
v 0.5064453 1.013446 0.9676768
v -0.07024026 1.097573 1.145171
v -0.3002948 1.296485 0.3870627
v -0.07024026 1.097573 1.145171
v -0.6995966 0.7512799 1.117261
v -1.061383 -0.3262553 0.4532929
v -1.072526 0.4005108 0.7355363
v -0.7631452 -0.419732 1.13023
v -0.5236967 -1.178164 0.2044719
v -0.7631452 -0.419732 1.13023
v -0.08996224 -1.301073 0.7651836
v 1.068558 -0.7444908 0.2185947
v 0.6780664 -1.110426 0.8023154
v 0.7853405 0.07250845 1.159483
v 0.6002193 0.8415314 -0.003588617
v -0.3002948 1.296485 0.3870627
v -0.500396 0.9089755 -0.04807204
v -0.3002948 1.296485 0.3870627
v -0.6995966 0.7512799 1.117261
v -1.072526 0.4005108 0.7355363
v -0.3002948 1.296485 0.3870627
v -1.072526 0.4005108 0.7355363
v -0.500396 0.9089755 -0.04807204
v -0.500396 0.9089755 -0.04807204
v -1.072526 0.4005108 0.7355363
v -0.9022964 -0.4568856 -0.01670372
v -1.061383 -0.3262553 0.4532929
v -0.7631452 -0.419732 1.13023
v -0.5236967 -1.178164 0.2044719
v -1.061383 -0.3262553 0.4532929
v -0.5236967 -1.178164 0.2044719
v -0.9022964 -0.4568856 -0.01670372
v -0.08996224 -1.301073 0.7651836
v 0.6780664 -1.110426 0.8023154
v 0.4358839 -1.262424 0.02090329
v 0.4358839 -1.262424 0.02090329
v 0.6780664 -1.110426 0.8023154
v 1.068558 -0.7444908 0.2185947
v 1.068558 -0.7444908 0.2185947
v 0.7853405 0.07250845 1.159483
v 0.9018997 0.7633734 0.4444751
v 1.068558 -0.7444908 0.2185947
v 0.9018997 0.7633734 0.4444751
v 1.009496 -0.1960617 -0.006782711
v 1.009496 -0.1960617 -0.006782711
v 0.9018997 0.7633734 0.4444751
v 0.6002193 0.8415314 -0.003588617
v 1.009496 -0.1960617 -0.006782711
v 0.6002193 0.8415314 -0.003588617
v -0.500396 0.9089755 -0.04807204
v 0.4358839 -1.262424 0.02090329
v -0.9022964 -0.4568856 -0.01670372
v -0.5236967 -1.178164 0.2044719
v 0.4358839 -1.262424 0.02090329
v 1.009496 -0.1960617 -0.006782711
v -0.500396 0.9089755 -0.04807204
v -0.9022964 -0.4568856 -0.01670372
v 0.9018997 0.7633734 0.4444751
v 0.5064453 1.013446 0.9676768
v -0.3002948 1.296485 0.3870627
v 0.6002193 0.8415314 -0.003588617
vn 0.4909668 -0.2854004 -0.8232422
vn 0.4909668 -0.2854004 -0.8232422
vn 0.4909668 -0.2854004 -0.8232422
vn -0.1113281 -0.9853516 -0.1298828
vn -0.1113281 -0.9853516 -0.1298828
vn -0.1113281 -0.9853516 -0.1298828
vn -0.9296875 0.1209717 -0.3483887
vn -0.9296875 0.1209717 -0.3483887
vn -0.9296875 0.1209717 -0.3483887
vn 0.2734375 0.2412109 0.9311523
vn 0.2734375 0.2412109 0.9311523
vn 0.2734375 0.2412109 0.9311523
vn 0.3193359 0.2792969 0.9057617
vn 0.3193359 0.2792969 0.9057617
vn 0.3193359 0.2792969 0.9057617
vn -0.1660156 0.2243652 0.9604492
vn -0.1660156 0.2243652 0.9604492
vn -0.1660156 0.2243652 0.9604492
vn -0.3952637 0.03161621 0.9179688
vn -0.3952637 0.03161621 0.9179688
vn -0.3952637 0.03161621 0.9179688
vn -0.7358398 0.04742432 0.675293
vn -0.7358398 0.04742432 0.675293
vn -0.7358398 0.04742432 0.675293
vn -0.1818848 -0.4916992 0.8515625
vn -0.1818848 -0.4916992 0.8515625
vn -0.1818848 -0.4916992 0.8515625
vn 0.08618164 -0.5131836 0.8540039
vn 0.08618164 -0.5131836 0.8540039
vn 0.08618164 -0.5131836 0.8540039
vn 0.4018555 -0.2978516 0.8657227
vn 0.4018555 -0.2978516 0.8657227
vn 0.4018555 -0.2978516 0.8657227
vn 0.8212891 0.3371582 0.4597168
vn 0.8212891 0.3371582 0.4597168
vn 0.8212891 0.3371582 0.4597168
vn 0.1992188 0.9609375 0.1916504
vn 0.1992188 0.9609375 0.1916504
vn 0.1992188 0.9609375 0.1916504
vn -0.4628906 0.8129883 0.3537598
vn -0.4628906 0.8129883 0.3537598
vn -0.4628906 0.8129883 0.3537598
vn -0.9111328 -0.1612549 0.3791504
vn -0.9111328 -0.1612549 0.3791504
vn -0.9111328 -0.1612549 0.3791504
vn -0.659668 -0.6557617 0.3666992
vn -0.659668 -0.6557617 0.3666992
vn -0.659668 -0.6557617 0.3666992
vn 0.8686523 -0.2137451 0.4470215
vn 0.8686523 -0.2137451 0.4470215
vn 0.8686523 -0.2137451 0.4470215
vn 0.07214355 0.7280273 -0.6816406
vn 0.07214355 0.7280273 -0.6816406
vn 0.07214355 0.7280273 -0.6816406
vn -0.7338867 0.6713867 0.1000366
vn -0.7338867 0.6713867 0.1000366
vn -0.7338867 0.6713867 0.1000366
vn -0.7783203 0.6020508 -0.1779785
vn -0.7783203 0.6020508 -0.1779785
vn -0.7783203 0.6020508 -0.1779785
vn -0.8515625 0.2398682 -0.4660645
vn -0.8515625 0.2398682 -0.4660645
vn -0.8515625 0.2398682 -0.4660645
vn -0.7788086 -0.5688477 0.2646484
vn -0.7788086 -0.5688477 0.2646484
vn -0.7788086 -0.5688477 0.2646484
vn -0.8554688 -0.4953613 -0.1517334
vn -0.8554688 -0.4953613 -0.1517334
vn -0.8554688 -0.4953613 -0.1517334
vn 0.2340088 -0.965332 0.1152344
vn 0.2340088 -0.965332 0.1152344
vn 0.2340088 -0.965332 0.1152344
vn 0.6420898 -0.7651367 -0.05014038
vn 0.6420898 -0.7651367 -0.05014038
vn 0.6420898 -0.7651367 -0.05014038
vn 0.9707031 0.07299805 0.2287598
vn 0.9707031 0.07299805 0.2287598
vn 0.9707031 0.07299805 0.2287598
vn 0.9941406 0.1091309 0.005023956
vn 0.9941406 0.1091309 0.005023956
vn 0.9941406 0.1091309 0.005023956
vn 0.8105469 0.3212891 -0.4897461
vn 0.8105469 0.3212891 -0.4897461
vn 0.8105469 0.3212891 -0.4897461
vn 0.04156494 0.01947021 -0.9990234
vn 0.04156494 0.01947021 -0.9990234
vn 0.04156494 0.01947021 -0.9990234
vn -0.2059326 -0.3840332 -0.8999023
vn -0.2059326 -0.3840332 -0.8999023
vn -0.2059326 -0.3840332 -0.8999023
vn 0.00598526 -0.0291748 -0.9995117
vn 0.00598526 -0.0291748 -0.9995117
vn 0.00598526 -0.0291748 -0.9995117
vn 0.01212311 -0.02651978 -0.9995117
vn 0.4072266 0.9047852 -0.1246948
vn 0.4072266 0.9047852 -0.1246948
vn 0.4072266 0.9047852 -0.1246948
vn 0.4072266 0.9057617 -0.1162109
g Rock_0
f 3/3/3 2/2/2 1/1/1
f 6/6/6 5/5/5 4/4/4
f 9/9/9 8/8/8 7/7/7
f 12/12/12 11/11/11 10/10/10
f 15/15/15 14/14/14 13/13/13
f 18/18/18 17/17/17 16/16/16
f 21/21/21 20/20/20 19/19/19
f 24/24/24 23/23/23 22/22/22
f 27/27/27 26/26/26 25/25/25
f 30/30/30 29/29/29 28/28/28
f 33/33/33 32/32/32 31/31/31
f 36/36/36 35/35/35 34/34/34
f 39/39/39 38/38/38 37/37/37
f 42/42/42 41/41/41 40/40/40
f 45/45/45 44/44/44 43/43/43
f 48/48/48 47/47/47 46/46/46
f 51/51/51 50/50/50 49/49/49
f 54/54/54 53/53/53 52/52/52
f 57/57/57 56/56/56 55/55/55
f 60/60/60 59/59/59 58/58/58
f 63/63/63 62/62/62 61/61/61
f 66/66/66 65/65/65 64/64/64
f 69/69/69 68/68/68 67/67/67
f 72/72/72 71/71/71 70/70/70
f 75/75/75 74/74/74 73/73/73
f 78/78/78 77/77/77 76/76/76
f 81/81/81 80/80/80 79/79/79
f 84/84/84 83/83/83 82/82/82
f 87/87/87 86/86/86 85/85/85
f 90/90/90 89/89/89 88/88/88
f 93/93/93 92/92/92 91/91/91
f 91/91/91 94/94/94 93/93/93
f 97/97/97 96/96/96 95/95/95
f 98/98/98 97/97/97 95/95/95
