v 0 -2 6
v 2 -2 6
v 0 8 6
v 2 8 6
v 2 -2 6
v 2 -2 4
v 2 8 6
v 2 8 4
v 2 -2 4
v 0 -2 4
v 2 8 4
v 0 8 4
v 0 -2 4
v 0 -2 6
v 0 8 4
v 0 8 6
v 0 10 6
v 2 10 6
v 0 10 4
v 2 10 4
v 0 -2 4
v 2 -2 4
v 0 -2 6
v 2 -2 6
v -2 8 8
v 4 8 8
v -2 10 8
v 4 10 8
v -2 8 2
v -2 8 8
v -2 10 2
v -2 10 8
v 4 8 8
v 4 8 2
v 4 10 8
v 4 10 2
v 4 8 2
v -2 8 2
v 4 10 2
v -2 10 2
v 2 8 6
v 2 8 4
v 4 8 8
v 4 8 2
v 4 10 8
v -2 10 8
v 4 10 2
v 0 8 4
v -2 8 2
v -2 10 2
v 0 8 6
v -2 8 8
vn 0 0 1
vn 0 0 1
vn 0 0 1
vn 0 0 1
vn 1 0 0
vn 1 0 0
vn 1 0 0
vn 1 0 0
vn 0 0 -1
vn 0 0 -1
vn 0 0 -1
vn 0 0 -1
vn -1 0 0
vn -1 0 0
vn -1 0 0
vn -1 0 0
vn 0 1 0
vn 0 1 0
vn 0 1 0
vn 0 1 0
vn 0 -1 0
vn 0 -1 0
vn 0 -1 0
vn 0 -1 0
vn 0 0 1
vn 0 0 1
vn 0 0 1
vn 0 0 1
vn -1 0 0
vn -1 0 0
vn -1 0 0
vn -1 0 0
vn 1 0 0
vn 1 0 0
vn 1 0 0
vn 1 0 0
vn 0 0 -1
vn 0 0 -1
vn 0 0 -1
vn 0 0 -1
vn 0 -1 0
vn 0 -1 0
vn 0 -1 0
vn 0 -1 0
vn 0 1 0
vn 0 1 0
vn 0 1 0
vn 0 -1 0
vn 0 -1 0
vn 0 1 0
vn 0 -1 0
vn 0 -1 0
vt 0 -2
vt -2 -2
vt 0 8
vt -2 8
vt 6 -2
vt 4 -2
vt 6 8
vt 4 8
vt 2 -2
vt 0 -2
vt 2 8
vt 0 8
vt -4 -2
vt -6 -2
vt -4 8
vt -6 8
vt 0 6
vt 2 6
vt 0 4
vt 2 4
vt 0 4
vt -2 4
vt 0 6
vt -2 6
vt 2 8
vt -4 8
vt 2 10
vt -4 10
vt -2 8
vt -8 8
vt -2 10
vt -8 10
vt 8 8
vt 2 8
vt 8 10
vt 2 10
vt 4 8
vt -2 8
vt 4 10
vt -2 10
vt -2 6
vt -2 4
vt -4 8
vt -4 2
vt 4 8
vt -2 8
vt 4 2
vt 0 4
vt 2 2
vt -2 2
vt 0 6
vt 2 8
g submesh0
f 1/1/1 2/2/2 3/3/3
f 2/2/2 4/4/4 3/3/3
f 5/5/5 6/6/6 7/7/7
f 6/6/6 8/8/8 7/7/7
f 9/9/9 10/10/10 11/11/11
f 10/10/10 12/12/12 11/11/11
f 13/13/13 14/14/14 15/15/15
f 14/14/14 16/16/16 15/15/15
f 17/17/17 18/18/18 19/19/19
f 18/18/18 20/20/20 19/19/19
f 21/21/21 22/22/22 23/23/23
f 22/22/22 24/24/24 23/23/23
f 25/25/25 26/26/26 27/27/27
f 26/26/26 28/28/28 27/27/27
f 29/29/29 30/30/30 31/31/31
f 30/30/30 32/32/32 31/31/31
f 33/33/33 34/34/34 35/35/35
f 34/34/34 36/36/36 35/35/35
f 37/37/37 38/38/38 39/39/39
f 38/38/38 40/40/40 39/39/39
f 41/41/41 42/42/42 43/43/43
f 42/42/42 44/44/44 43/43/43
f 18/18/18 17/17/17 45/45/45
f 17/17/17 46/46/46 45/45/45
f 20/20/20 18/18/18 47/47/47
f 18/18/18 45/45/45 47/47/47
f 42/42/42 48/48/48 44/44/44
f 48/48/48 49/49/49 44/44/44
f 19/19/19 20/20/20 50/50/50
f 20/20/20 47/47/47 50/50/50
f 48/48/48 51/51/51 49/49/49
f 51/51/51 52/52/52 49/49/49
f 17/17/17 19/19/19 46/46/46
f 19/19/19 50/50/50 46/46/46
f 51/51/51 41/41/41 52/52/52
f 41/41/41 43/43/43 52/52/52
