v -2 -1.999997 3.999999
v 2 -1.999997 3.999999
v -2 2.000015 4.000003
v 2 2.000015 4.000003
v 2 -1.999997 3.999999
v 2 -2 -2
v 2 2.000015 4.000003
v 2 2 -2
v 2 -2 -2
v -2 -2 -2
v 2 2 -2
v -2 2 -2
v -2 -2 -2
v -2 -1.999997 3.999999
v -2 2 -2
v -2 2.000015 4.000003
v -2 2.000015 4.000003
v 2 2.000015 4.000003
v -2 2 -2
v 2 2 -2
v -2 -2 -2
v 2 -2 -2
v -2 -1.999997 3.999999
v 2 -1.999997 3.999999
vn 0 -8.94067E-07 1
vn 0 -8.94067E-07 1
vn 0 -8.94067E-07 1
vn 0 -8.94067E-07 1
vn 1 0 0
vn 1 0 0
vn 1 0 0
vn 1 0 0
vn 0 0 -1
vn 0 0 -1
vn 0 0 -1
vn 0 0 -1
vn -1 0 0
vn -1 0 0
vn -1 0 0
vn -1 0 0
vn 0 1 -2.423921E-06
vn 0 1 -2.423921E-06
vn 0 1 -2.423921E-06
vn 0 1 -2.423921E-06
vn 0 -1 4.371008E-07
vn 0 -1 4.371008E-07
vn 0 -1 4.371008E-07
vn 0 -1 4.371008E-07
vt 2 -1.999994
vt -2 -1.999994
vt 2 2.000018
vt -2 2.000018
vt 3.999999 -1.999997
vt -2 -2
vt 4.000003 2.000015
vt -2 2
vt 2 -2
vt -2 -2
vt 2 2
vt -2 2
vt 2 -2
vt -3.999999 -1.999997
vt 2 2
vt -4.000003 2.000015
vt -2 4.000008
vt 2 4.000008
vt -2 -1.999995
vt 2 -1.999995
vt 2 -2.000001
vt -2 -2.000001
vt 2 3.999998
vt -2 3.999998
g submesh0
f 1/1/1 2/2/2 3/3/3
f 2/2/2 4/4/4 3/3/3
f 5/5/5 6/6/6 7/7/7
f 6/6/6 8/8/8 7/7/7
f 9/9/9 10/10/10 11/11/11
f 10/10/10 12/12/12 11/11/11
f 13/13/13 14/14/14 15/15/15
f 14/14/14 16/16/16 15/15/15
f 17/17/17 18/18/18 19/19/19
f 18/18/18 20/20/20 19/19/19
f 21/21/21 22/22/22 23/23/23
f 22/22/22 24/24/24 23/23/23
