v 0.7499996 -3 0.2499999
v 0.9999996 -3 0.2499998
v 0.7499993 9 0.2499997
v 0.9999993 9 0.2500004
v 0.9999996 -3 0.2499998
v 0.9999995 -3 -2.384186E-07
v 0.9999993 9 0.2500004
v 1 9 4.17234E-07
v 0.9999995 -3 -2.384186E-07
v 0.7499995 -3 -1.490116E-07
v 1 9 4.17234E-07
v 0.7500001 9 -3.427253E-07
v -1 -3 4.768372E-07
v -1 -3 0.2500005
v -1.000001 9 1.013281E-06
v -1.000001 9 0.250001
v 0.7499993 9 0.2499997
v 0.9999993 9 0.2500004
v 0.7500001 9 -3.427253E-07
v 1 9 4.17234E-07
v 0.7499995 -3 -1.490116E-07
v 0.9999995 -3 -2.384186E-07
v 0.7499996 -3 0.2499999
v 0.9999996 -3 0.2499998
v -0.7500005 -3 3.874302E-07
v -0.7500004 -3 0.2500004
v -1 -3 4.768372E-07
v -1 -3 0.2500005
v -0.7500008 9 8.195659E-07
v -0.7500005 -3 3.874302E-07
v -1.000001 9 1.013281E-06
v -1 -3 4.768372E-07
v -0.7500004 -3 0.2500004
v -0.7500007 9 0.2500008
v -1 -3 0.2500005
v -1.000001 9 0.250001
v -0.7500007 9 0.2500008
v -0.7500008 9 8.195659E-07
v -1.000001 9 0.250001
v -1.000001 9 1.013281E-06
v 0.7499996 -3 0.2499999
v 0.7499993 9 0.2499997
v 0.7499995 -3 -1.490116E-07
v 0.7500001 9 -3.427253E-07
v -0.7500007 9 0.2500008
v -0.7500004 -3 0.2500004
v -0.7500008 9 8.195659E-07
v -0.7500005 -3 3.874302E-07
v 0.7499996 -3 0.1249999
v 0.7499993 9 0.1249997
v -0.7500004 -3 0.1250004
v -0.7500007 9 0.1250008
vn 3.576279E-07 1.614293E-08 1
vn -1.341105E-06 -1.924737E-08 1
vn -1.341105E-06 -1.924737E-08 1
vn -3.039837E-06 -5.463767E-08 1
vn 1 2.483529E-08 -4.768372E-07
vn 1 -1.241771E-08 1.311302E-06
vn 1 -1.241771E-08 1.311302E-06
vn 1 -4.967071E-08 3.099442E-06
vn -3.576279E-07 5.463773E-08 -1
vn 1.341105E-06 1.924739E-08 -1
vn 1.341105E-06 1.924739E-08 -1
vn 3.039837E-06 -1.614296E-08 -1
vn -1 -2.980234E-08 4.768372E-07
vn -1 -2.48353E-08 7.152557E-07
vn -1 -2.48353E-08 7.152557E-07
vn -1 -1.986826E-08 9.536743E-07
vn 0 1 0
vn 0 1 0
vn 0 1 0
vn 0 1 0
vn 0 -1 0
vn 0 -1 0
vn 0 -1 0
vn 0 -1 0
vn 0 -1 0
vn 0 -1 0
vn 0 -1 0
vn 0 -1 0
vn -7.748604E-07 3.601129E-08 -1
vn -5.662441E-07 4.035746E-08 -1
vn -5.662441E-07 4.035746E-08 -1
vn -3.576279E-07 4.470364E-08 -1
vn 3.576279E-07 -3.725289E-08 1
vn 5.364419E-07 -4.097818E-08 1
vn 5.364419E-07 -4.097818E-08 1
vn 7.152559E-07 -4.470347E-08 1
vn 0 1 0
vn 0 1 0
vn 0 1 0
vn 0 1 0
vn -1 -2.483526E-08 4.768372E-07
vn -1 1.241761E-08 -1.311302E-06
vn -1 1.241761E-08 -1.311302E-06
vn -1 4.967049E-08 -3.099442E-06
vn 1 2.483529E-08 -7.152557E-07
vn 1 2.731882E-08 -5.960464E-07
vn 1 2.731882E-08 -5.960464E-07
vn 1 2.980234E-08 -4.768372E-07
vn 3.576279E-07 1.614293E-08 1
vn 5.662441E-07 -9.934094E-09 1
vn 5.662441E-07 -9.934094E-09 1
vn 7.748604E-07 -3.601112E-08 1
vt -0.7499996 -3
vt -0.9999996 -3
vt -0.7499993 9
vt -0.9999992 9
vt -1.875 -3
vt -2.125 -3
vt -1.874999 9
vt -2.124999 9
vt 0.9999995 -3
vt 0.7499995 -3
vt 1 9
vt 0.7500001 9
vt 2.125 -3
vt 1.875 -3
vt 2.125 9
vt 1.875 9
vt 0.7499993 -1.875
vt 0.9999993 -1.875
vt 0.7500001 -2.125
vt 1 -2.125
vt -0.7499995 -2.125
vt -0.9999995 -2.125
vt -0.7499996 -1.875
vt -0.9999996 -1.875
vt 0.7500005 -2.125
vt 0.7500004 -1.875
vt 1 -2.125
vt 1 -1.875
vt -0.7500008 9
vt -0.7500005 -3
vt -1.000001 9
vt -1 -3
vt 0.7500005 -3
vt 0.7500008 9
vt 1 -3
vt 1.000001 9
vt -0.7500007 -1.874999
vt -0.7500008 -2.124999
vt -1.000001 -1.874999
vt -1.000001 -2.124999
vt 1.875 -3
vt 1.875 9
vt 2.125 -3
vt 2.125 9
vt -1.875 9
vt -1.875 -3
vt -2.125 9
vt -2.125 -3
vt -0.7499995 -3
vt -0.7499992 9
vt 0.7500005 -3
vt 0.7500008 9
g submesh0
f 1/1/1 2/2/2 3/3/3
f 2/2/2 4/4/4 3/3/3
f 5/5/5 6/6/6 7/7/7
f 6/6/6 8/8/8 7/7/7
f 9/9/9 10/10/10 11/11/11
f 10/10/10 12/12/12 11/11/11
f 13/13/13 14/14/14 15/15/15
f 14/14/14 16/16/16 15/15/15
f 17/17/17 18/18/18 19/19/19
f 18/18/18 20/20/20 19/19/19
f 21/21/21 22/22/22 23/23/23
f 22/22/22 24/24/24 23/23/23
f 25/25/25 26/26/26 27/27/27
f 26/26/26 28/28/28 27/27/27
f 29/29/29 30/30/30 31/31/31
f 30/30/30 32/32/32 31/31/31
f 33/33/33 34/34/34 35/35/35
f 34/34/34 36/36/36 35/35/35
f 37/37/37 38/38/38 39/39/39
f 38/38/38 40/40/40 39/39/39
f 41/41/41 42/42/42 43/43/43
f 42/42/42 44/44/44 43/43/43
f 45/45/45 46/46/46 47/47/47
f 46/46/46 48/48/48 47/47/47
g submesh1
f 49/49/49 50/50/50 51/51/51
f 50/50/50 52/52/52 51/51/51
