v -10 -4 6
v 2 -4 6
v -10 9 6
v 2 9 6
v 2 -4 0
v 2 -4 -3
v 2 2 0
v 2 -2 -3
v 2 -4 -3
v -10 -4 -3
v 2 -2 -3
v -10 -2 -3
v -10 -4 -3
v -10 -4 0
v -10 -2 -3
v -10 2 0
v -10 -4 -3
v 2 -4 -3
v -10 -4 0
v 2 -4 0
v -10 -4 6
v 2 -4 6
v -10 9 6
v -10 -4 6
v 2 -4 6
v 2 9 6
v 2 2 0
v -10 2 0
v 2 9 6
v -10 9 6
v -10 2 0
v 2 2 0
v -10 -2 -3
v 2 -2 -3
vn 0 0 1
vn 0 0 1
vn 0 0 1
vn 0 0 1
vn 1 0 0
vn 1 0 0
vn 1 0 0
vn 1 0 0
vn 0 0 -1
vn 0 0 -1
vn 0 0 -1
vn 0 0 -1
vn -1 0 0
vn -1 0 0
vn -1 0 0
vn -1 0 0
vn 0 -1 0
vn 0 -1 0
vn 0 -1 0
vn 0 -1 0
vn 0 -1 0
vn 0 -1 0
vn -1 0 0
vn -1 0 0
vn 1 0 0
vn 1 0 0
vn 0 0.6507913 -0.7592566
vn 0 0.6507913 -0.7592566
vn 0 0.6507913 -0.7592566
vn 0 0.6507913 -0.7592566
vn 0 0.6 -0.8
vn 0 0.6 -0.8
vn 0 0.6 -0.8
vn 0 0.6 -0.8
vt 10 -4
vt -2 -4
vt 10 9
vt -2 9
vt 0 -4
vt -3 -4
vt 0 2
vt -3 -2
vt 2 -4
vt -10 -4
vt 2 -2
vt -10 -2
vt 3 -4
vt 0 -4
vt 3 -2
vt 0 2
vt 10 -3
vt -2 -3
vt 10 0
vt -2 0
vt 10 6
vt -2 6
vt -6 9
vt -6 -4
vt 6 -4
vt 6 9
vt 2 1.518513
vt -10 1.518513
vt 2 10.73806
vt -10 10.73806
vt -10 1.6
vt 2 1.6
vt -10 -3.4
vt 2 -3.4
g submesh0
f 1/1/1 2/2/2 3/3/3
f 2/2/2 4/4/4 3/3/3
f 5/5/5 6/6/6 7/7/7
f 6/6/6 8/8/8 7/7/7
f 9/9/9 10/10/10 11/11/11
f 10/10/10 12/12/12 11/11/11
f 13/13/13 14/14/14 15/15/15
f 14/14/14 16/16/16 15/15/15
f 17/17/17 18/18/18 19/19/19
f 18/18/18 20/20/20 19/19/19
f 19/19/19 20/20/20 21/21/21
f 20/20/20 22/22/22 21/21/21
f 16/16/16 14/14/14 23/23/23
f 14/14/14 24/24/24 23/23/23
f 5/5/5 7/7/7 25/25/25
f 7/7/7 26/26/26 25/25/25
f 27/27/27 28/28/28 29/29/29
f 28/28/28 30/30/30 29/29/29
g submesh1
f 31/31/31 32/32/32 33/33/33
f 32/32/32 34/34/34 33/33/33
