v -2 -3 -12
v 4 -3 -12
v -2 -3 0
v 4 -3 0
v -2 -3 0
v 4 -3 0
v 4 4 0
v -2 4 0
v 14 -3 0
v 14 -3 -12
v 14 4 -12
v 14 4 0
v 4 4 -12
v -2 -3 -12
v -2 4 -12
v 4 -3 -12
v -6 0 -12
v -6 -3 0
v -6 0 0
v -6 -3 -12
v -6 -3 0
v -6 0 0
v -6 0 -12
v -6 -3 -12
v -6 -3 -12
v -6 -3 0
v 6 -3 -12
v 6 -3 0
v 14 -3 -12
v 14 -3 0
v 6 4 -12
v 6 -3 -12
v 14 4 -38
v 6 -3 -38
v 6 4 -38
v 14 -3 -38
v 6 -3 0
v 6 4 0
v 14 -3 0
v 14 4 0
v 14 -3 -15
v 14 4 -15
v 6 4 -15
v 6 -3 -12
v 6 4 -12
v 6 -3 -15
v 14 -3 -15
v 6 -3 -15
v 4 8 0
v -2 8 0
v 4 10 0
v -2 10 0
v 14 8 -12
v 14 8 0
v 14 10 -12
v 14 10 0
v 4 8 -12
v -2 8 -12
v 4 10 -12
v -2 10 -12
v -2 8 -12
v -2 4 0
v -2 8 0
v -2 4 -12
v -2 10 -12
v -2 10 0
v 6 8 -12
v 6 10 -12
v 14 6 -38
v 6 6 -38
v 14 8 -38
v 6 8 -38
v 6 8 0
v 6 10 0
v 14 8 0
v 14 10 0
v 6 6 -15
v 6 8 -12
v 6 8 -15
v 6 10 -12
v 14 6 -15
v 14 8 -15
v 14 8 -24
v 14 6 -24
v 14 8 -38
v 14 6 -38
v 14 4 -24
v 14 4 -38
v 14 -3 -24
v 14 -3 -38
v 6 -3 -24
v 6 4 -24
v 6 -3 -38
v 6 4 -38
v 14 -3 -24
v 6 -3 -24
v 14 -3 -38
v 6 -3 -38
v 14 8 -24
v 6 8 -24
v 14 8 -34
v 6 8 -34
v 0 6 -15
v 6 6 -15
v 6 8 -15
v 0 8 -15
v -2 6 -15
v -2 8 -15
v 0 6 -38
v 0 8 -38
v -2 6 -38
v -2 8 -38
v 6 8 -36
v 6 6 -24
v 6 8 -24
v 6 6 -36
v 6 8 -38
v 6 6 -38
v 6 6 -24
v 6 6 -36
v 6 8 -36
v 6 8 -24
v 6 6 -38
v 6 8 -38
v -2 8 -36
v -2 6 -24
v -2 8 -24
v -2 6 -36
v -2 8 -38
v -2 6 -38
v 0 6 -36
v 6 6 -38
v 6 6 -36
v 0 6 -38
v 0 6 -24
v 6 6 -24
v -2 0 -36
v 0 0 -38
v 0 0 -36
v -2 0 -38
v -2 6 -24
v -2 6 -36
v 0 6 -38
v 0 6 -36
v 0 0 -38
v 0 0 -36
v 0 6 -36
v -2 6 -36
v 0 0 -36
v -2 0 -36
v -2 0 -36
v -2 0 -38
v -2 0 -38
v 0 0 -38
v 14 -3 -16
v 14 4 -16
v 6 4 -16
v 6 -3 -16
v 6 -3 -16
v 14 -3 -16
v 6 6 -16
v -2 8 -16
v -2 6 -15
v -2 8 -15
v -2 6 -16
v 14 6 -16
v 14 8 -16
v 0 6 -16
v 6 6 -16
v 0 6 -15
v 6 6 -15
v -2 6 -16
v -2 6 -15
v 6 10 -12
v 14 10 -12
v 14 13 -12
v 6 13 -12
v 14 20 -12
v 6 20 -12
v 6 12 -15
v 6 13 -12
v 6 20 -16
v 6 20 -12
v 14 11 -15
v 14 13 -12
v 14 20 -16
v 14 20 -12
v 14 11 -24
v 14 8 -34
v 14 20 -24
v 6 8 -34
v 6 12 -24
v 6 20 -24
v 3 8 -16
v 4 8 -15
v 3 8 -15
v 4 8 -16
v 6 20 -18
v 6 12 -16
v 3 8 -24
v 4 8 -24
v 14 11 -16
v 14 20 -18
v 6 12 -15
v 4 8 -15
v 3 8 -15
v 6 8 -16
v 6 8 -15
v 6 12 -24
v 6 8 -24
v 3 8 -24
v -2 10 0
v 4 10 0
v -2 10 -12
v 4 10 -12
v -2 4 0
v -2 4 -12
v -6 0 0
v -6 0 -12
v 6 10 -12
v 6 10 0
v 14 10 -12
v 14 10 0
v 14 20 -16
v 6 20 -16
v 6 20 -12
v 14 20 -12
v 6 20 -24
v 14 20 -24
v 6 8 -34
v 14 8 -34
v 14 8 -38
v 6 8 -38
v 6 8 -36
v 14 8 -24
v 6 8 -24
v 0 8 -38
v -2 8 -38
v -2 8 -36
v 0 8 -36
v -2 8 -24
v 0 8 -24
v 14 20 -24
v 6 20 -24
v 6 20 -18
v 14 20 -18
v 0 8 -16
v 6 8 -16
v 0 8 -15
v 6 8 -15
v -2 8 -16
v -2 8 -15
v 6 12 -15
v 6 12 -16
v 3 8 -15
v 3 8 -16
v 6 12 -24
v 3 8 -24
vn 0 -1 0
vn 0 -1 0
vn 0 -1 0
vn 0 -1 0
vn 0 0 1
vn 0 0 1
vn 0 0 1
vn 0 0 1
vn 1 0 0
vn 1 0 0
vn 1 0 0
vn 1 0 0
vn 0 0 -1
vn 0 0 -1
vn 0 0 -1
vn 0 0 -1
vn -1 0 0
vn -1 0 0
vn -1 0 0
vn -1 0 0
vn 0 0 1
vn 0 0 1
vn 0 0 -1
vn 0 0 -1
vn 0 -1 0
vn 0 -1 0
vn 0 -1 0
vn 0 -1 0
vn 0 -1 0
vn 0 -1 0
vn 0 0 -1
vn 0 0 -1
vn 0 0 -1
vn 0 0 -1
vn 0 0 -1
vn 0 0 -1
vn 0 0 1
vn 0 0 1
vn 0 0 1
vn 0 0 1
vn 1 0 0
vn 1 0 0
vn -1 0 0
vn -1 0 0
vn -1 0 0
vn -1 0 0
vn 0 -1 0
vn 0 -1 0
vn 0 0 1
vn 0 0 1
vn 0 0 1
vn 0 0 1
vn 1 0 0
vn 1 0 0
vn 1 0 0
vn 1 0 0
vn 0 0 -1
vn 0 0 -1
vn 0 0 -1
vn 0 0 -1
vn -1 0 0
vn -1 0 0
vn -1 0 0
vn -1 0 0
vn -1 0 0
vn -1 0 0
vn 0 0 -1
vn 0 0 -1
vn 0 0 -1
vn 0 0 -1
vn 0 0 -1
vn 0 0 -1
vn 0 0 1
vn 0 0 1
vn 0 0 1
vn 0 0 1
vn -1 0 0
vn -1 0 0
vn -1 0 0
vn -1 0 0
vn 1 0 0
vn 1 0 0
vn 1 0 0
vn 1 0 0
vn 1 0 0
vn 1 0 0
vn 1 0 0
vn 1 0 0
vn 1 0 0
vn 1 0 0
vn -1 0 0
vn -1 0 0
vn -1 0 0
vn -1 0 0
vn 0 -1 0
vn 0 -1 0
vn 0 -1 0
vn 0 -1 0
vn 0 -1 0
vn 0 -1 0
vn 0 -1 0
vn 0 -1 0
vn 0 0 1
vn 0 0 1
vn 0 0 1
vn 0 0 1
vn 0 0 1
vn 0 0 1
vn 0 0 -1
vn 0 0 -1
vn 0 0 -1
vn 0 0 -1
vn -1 0 0
vn -1 0 0
vn -1 0 0
vn -1 0 0
vn -1 0 0
vn -1 0 0
vn 1 0 0
vn 1 0 0
vn 1 0 0
vn 1 0 0
vn 1 0 0
vn 1 0 0
vn -1 0 0
vn -1 0 0
vn -1 0 0
vn -1 0 0
vn -1 0 0
vn -1 0 0
vn 0 -1 0
vn 0 -1 0
vn 0 -1 0
vn 0 -1 0
vn 0 -1 0
vn 0 -1 0
vn 0 -1 0
vn 0 -1 0
vn 0 -1 0
vn 0 -1 0
vn 0 -1 0
vn 0 -1 0
vn 1 0 0
vn 1 0 0
vn 1 0 0
vn 1 0 0
vn 0 0 1
vn 0 0 1
vn 0 0 1
vn 0 0 1
vn -1 0 0
vn -1 0 0
vn 0 0 -1
vn 0 0 -1
vn 1 0 0
vn 1 0 0
vn -1 0 0
vn -1 0 0
vn 0 -1 0
vn 0 -1 0
vn -1 0 0
vn -1 0 0
vn -1 0 0
vn -1 0 0
vn -1 0 0
vn 1 0 0
vn 1 0 0
vn 0 -1 0
vn 0 -1 0
vn 0 -1 0
vn 0 -1 0
vn 0 -1 0
vn 0 -1 0
vn 0 0 1
vn 0 0 1
vn 0 0 1
vn 0 0 1
vn 0 0 1
vn 0 0 1
vn -1 0 0
vn -1 0 0
vn -1 0 0
vn -1 0 0
vn 1 0 0
vn 1 0 0
vn 1 0 0
vn 1 0 0
vn 1 0 0
vn 1 0 0
vn 1 0 0
vn -1 0 0
vn -1 0 0
vn -1 0 0
vn 0 -1 0
vn 0 -1 0
vn 0 -1 0
vn 0 -1 0
vn -1 0 0
vn -1 0 0
vn 0 -1 0
vn 0 -1 0
vn 1 0 0
vn 1 0 0
vn 0 0 1
vn 0 0 1
vn 0 0 1
vn 0 -1 0
vn 0 -1 0
vn 0 0 -1
vn 0 0 -1
vn 0 0 -1
vn 0 1 0
vn 0 1 0
vn 0 1 0
vn 0 1 0
vn -0.7071068 0.7071068 0
vn -0.7071068 0.7071068 0
vn -0.7071068 0.7071068 0
vn -0.7071068 0.7071068 0
vn 0 1 0
vn 0 1 0
vn 0 1 0
vn 0 1 0
vn 0 1 0
vn 0 1 0
vn 0 1 0
vn 0 1 0
vn 0 0.6401844 -0.7682213
vn 0 0.6401844 -0.7682213
vn 0 0.6401844 -0.7682213
vn 0 0.6401844 -0.7682213
vn 0 1 0
vn 0 1 0
vn 0 1 0
vn 0 1 0
vn 0 1 0
vn 0 1 0
vn 0 1 0
vn 0 1 0
vn 0 1 0
vn 0 1 0
vn 0 1 0
vn 0 1 0
vn 0 1 0
vn 0 1 0
vn 0 1 0
vn 0 1 0
vn 0 1 0
vn 0 1 0
vn 0 1 0
vn 0 1 0
vn 0 1 0
vn -0.8 0.6 0
vn -0.8 0.6 0
vn -0.8 0.6 0
vn -0.8 0.6 0
vn -0.8 0.6 0
vn -0.8 0.6 0
vt 2 -12
vt -4 -12
vt 2 0
vt -4 0
vt 2 -3
vt -4 -3
vt -4 4
vt 2 4
vt 0 -3
vt -12 -3
vt -12 4
vt 0 4
vt 4 4
vt -2 -3
vt -2 4
vt 4 -3
vt 12 0
vt 0 -3
vt 0 0
vt 12 -3
vt 6 -3
vt 6 0
vt -6 0
vt -6 -3
vt 6 -12
vt 6 0
vt -6 -12
vt -6 0
vt -14 -12
vt -14 0
vt 6 4
vt 6 -3
vt 14 4
vt 6 -3
vt 6 4
vt 14 -3
vt -6 -3
vt -6 4
vt -14 -3
vt -14 4
vt -15 -3
vt -15 4
vt 15 4
vt 12 -3
vt 12 4
vt 15 -3
vt -14 -15
vt -6 -15
vt -4 8
vt 2 8
vt -4 10
vt 2 10
vt -12 8
vt 0 8
vt -12 10
vt 0 10
vt 4 8
vt -2 8
vt 4 10
vt -2 10
vt 12 8
vt 0 4
vt 0 8
vt 12 4
vt 12 10
vt 0 10
vt 6 8
vt 6 10
vt 14 6
vt 6 6
vt 14 8
vt 6 8
vt -6 8
vt -6 10
vt -14 8
vt -14 10
vt 15 6
vt 12 8
vt 15 8
vt 12 10
vt -15 6
vt -15 8
vt -24 8
vt -24 6
vt -38 8
vt -38 6
vt -24 4
vt -38 4
vt -24 -3
vt -38 -3
vt 24 -3
vt 24 4
vt 38 -3
vt 38 4
vt -14 -24
vt -6 -24
vt -14 -38
vt -6 -38
vt -14 -24
vt -6 -24
vt -14 -34
vt -6 -34
vt 0 6
vt -6 6
vt -6 8
vt 0 8
vt 2 6
vt 2 8
vt 0 6
vt 0 8
vt -2 6
vt -2 8
vt 36 8
vt 24 6
vt 24 8
vt 36 6
vt 38 8
vt 38 6
vt -24 6
vt -36 6
vt -36 8
vt -24 8
vt -38 6
vt -38 8
vt 36 8
vt 24 6
vt 24 8
vt 36 6
vt 38 8
vt 38 6
vt 0 -36
vt -6 -38
vt -6 -36
vt 0 -38
vt 0 -24
vt -6 -24
vt 2 -36
vt 0 -38
vt 0 -36
vt 2 -38
vt 2 -24
vt 2 -36
vt -38 6
vt -36 6
vt -38 0
vt -36 0
vt 0 6
vt 2 6
vt 0 0
vt 2 0
vt 36 0
vt 38 0
vt -2 0
vt 0 0
vt -16 -3
vt -16 4
vt 16 4
vt 16 -3
vt -6 -16
vt -14 -16
vt 16 6
vt 16 8
vt 15 6
vt 15 8
vt 16 6
vt -16 6
vt -16 8
vt 0 -16
vt -6 -16
vt 0 -15
vt -6 -15
vt 2 -16
vt 2 -15
vt -6 10
vt -14 10
vt -14 13
vt -6 13
vt -14 20
vt -6 20
vt 15 12
vt 12 13
vt 16 20
vt 12 20
vt -15 11
vt -12 13
vt -16 20
vt -12 20
vt -24 11
vt -34 8
vt -24 20
vt 34 8
vt 24 12
vt 24 20
vt -3 -16
vt -4 -15
vt -3 -15
vt -4 -16
vt 18 20
vt 16 12
vt -3 -24
vt -4 -24
vt -16 11
vt -18 20
vt -6 12
vt -4 8
vt -3 8
vt -6 -16
vt -6 -15
vt 6 12
vt 6 8
vt 3 8
vt -2 0
vt 4 0
vt -2 -12
vt 4 -12
vt 1.414214 0
vt 1.414214 -12
vt -4.24264 0
vt -4.24264 -12
vt 6 -12
vt 6 0
vt 14 -12
vt 14 0
vt 14 -16
vt 6 -16
vt 6 -12
vt 14 -12
vt 6 -4.768372E-07
vt 14 -4.768372E-07
vt 6 -15.6205
vt 14 -15.6205
vt 14 -38
vt 6 -38
vt 6 -36
vt 14 -24
vt 6 -24
vt 0 -38
vt -2 -38
vt -2 -36
vt 0 -36
vt -2 -24
vt 0 -24
vt 14 -24
vt 6 -24
vt 6 -18
vt 14 -18
vt 0 -16
vt 6 -16
vt 0 -15
vt 6 -15
vt -2 -16
vt -2 -15
vt 15 13.2
vt 16 13.2
vt 15 8.2
vt 16 8.2
vt 24 13.2
vt 24 8.2
g submesh0
f 1/1/1 2/2/2 3/3/3
f 2/2/2 4/4/4 3/3/3
f 5/5/5 6/6/6 7/7/7
f 8/8/8 5/5/5 7/7/7
f 9/9/9 10/10/10 11/11/11
f 12/12/12 9/9/9 11/11/11
f 13/13/13 14/14/14 15/15/15
f 13/13/13 16/16/16 14/14/14
f 17/17/17 18/18/18 19/19/19
f 17/17/17 20/20/20 18/18/18
f 5/5/5 8/8/8 21/21/21
f 8/8/8 22/22/22 21/21/21
f 15/15/15 14/14/14 23/23/23
f 14/14/14 24/24/24 23/23/23
f 1/1/1 3/3/3 25/25/25
f 3/3/3 26/26/26 25/25/25
f 4/4/4 27/27/27 28/28/28
f 4/4/4 2/2/2 27/27/27
f 28/28/28 29/29/29 30/30/30
f 28/28/28 27/27/27 29/29/29
f 31/31/31 16/16/16 13/13/13
f 31/31/31 32/32/32 16/16/16
f 33/33/33 34/34/34 35/35/35
f 33/33/33 36/36/36 34/34/34
f 6/6/6 37/37/37 38/38/38
f 7/7/7 6/6/6 38/38/38
f 37/37/37 39/39/39 40/40/40
f 38/38/38 37/37/37 40/40/40
f 10/10/10 41/41/41 42/42/42
f 11/11/11 10/10/10 42/42/42
f 43/43/43 44/44/44 45/45/45
f 43/43/43 46/46/46 44/44/44
f 27/27/27 47/47/47 29/29/29
f 27/27/27 48/48/48 47/47/47
f 8/8/8 7/7/7 49/49/49
f 50/50/50 8/8/8 49/49/49
f 50/50/50 49/49/49 51/51/51
f 52/52/52 50/50/50 51/51/51
f 12/12/12 11/11/11 53/53/53
f 54/54/54 12/12/12 53/53/53
f 54/54/54 53/53/53 55/55/55
f 56/56/56 54/54/54 55/55/55
f 57/57/57 15/15/15 58/58/58
f 57/57/57 13/13/13 15/15/15
f 59/59/59 58/58/58 60/60/60
f 59/59/59 57/57/57 58/58/58
f 61/61/61 62/62/62 63/63/63
f 61/61/61 64/64/64 62/62/62
f 65/65/65 63/63/63 66/66/66
f 65/65/65 61/61/61 63/63/63
f 67/67/67 13/13/13 57/57/57
f 67/67/67 31/31/31 13/13/13
f 68/68/68 57/57/57 59/59/59
f 68/68/68 67/67/67 57/57/57
f 69/69/69 35/35/35 70/70/70
f 69/69/69 33/33/33 35/35/35
f 71/71/71 70/70/70 72/72/72
f 71/71/71 69/69/69 70/70/70
f 7/7/7 38/38/38 73/73/73
f 49/49/49 7/7/7 73/73/73
f 49/49/49 73/73/73 74/74/74
f 51/51/51 49/49/49 74/74/74
f 38/38/38 40/40/40 75/75/75
f 73/73/73 38/38/38 75/75/75
f 73/73/73 75/75/75 76/76/76
f 74/74/74 73/73/73 76/76/76
f 77/77/77 45/45/45 78/78/78
f 77/77/77 43/43/43 45/45/45
f 79/79/79 78/78/78 80/80/80
f 79/79/79 77/77/77 78/78/78
f 11/11/11 42/42/42 81/81/81
f 53/53/53 11/11/11 81/81/81
f 53/53/53 81/81/81 82/82/82
f 55/55/55 53/53/53 82/82/82
f 83/83/83 84/84/84 85/85/85
f 84/84/84 86/86/86 85/85/85
f 84/84/84 87/87/87 86/86/86
f 87/87/87 88/88/88 86/86/86
f 87/87/87 89/89/89 88/88/88
f 89/89/89 90/90/90 88/88/88
f 91/91/91 92/92/92 93/93/93
f 92/92/92 94/94/94 93/93/93
f 95/95/95 96/96/96 97/97/97
f 96/96/96 98/98/98 97/97/97
f 99/99/99 100/100/100 101/101/101
f 100/100/100 102/102/102 101/101/101
f 103/103/103 104/104/104 105/105/105
f 106/106/106 103/103/103 105/105/105
f 107/107/107 103/103/103 106/106/106
f 108/108/108 107/107/107 106/106/106
f 72/72/72 109/109/109 110/110/110
f 72/72/72 70/70/70 109/109/109
f 110/110/110 111/111/111 112/112/112
f 110/110/110 109/109/109 111/111/111
f 113/113/113 114/114/114 115/115/115
f 113/113/113 116/116/116 114/114/114
f 117/117/117 116/116/116 113/113/113
f 117/117/117 118/118/118 116/116/116
f 116/116/116 118/118/118 94/94/94
f 92/92/92 116/116/116 94/94/94
f 116/116/116 92/92/92 114/114/114
f 119/119/119 120/120/120 121/121/121
f 122/122/122 119/119/119 121/121/121
f 120/120/120 123/123/123 124/124/124
f 121/121/121 120/120/120 124/124/124
f 125/125/125 126/126/126 127/127/127
f 125/125/125 128/128/128 126/126/126
f 129/129/129 128/128/128 125/125/125
f 129/129/129 130/130/130 128/128/128
f 131/131/131 132/132/132 133/133/133
f 131/131/131 134/134/134 132/132/132
f 135/135/135 133/133/133 136/136/136
f 135/135/135 131/131/131 133/133/133
f 137/137/137 138/138/138 139/139/139
f 137/137/137 140/140/140 138/138/138
f 141/141/141 131/131/131 135/135/135
f 141/141/141 142/142/142 131/131/131
f 143/143/143 144/144/144 145/145/145
f 144/144/144 146/146/146 145/145/145
f 147/147/147 148/148/148 149/149/149
f 148/148/148 150/150/150 149/149/149
f 128/128/128 130/130/130 151/151/151
f 130/130/130 152/152/152 151/151/151
f 111/111/111 109/109/109 153/153/153
f 109/109/109 154/154/154 153/153/153
f 41/41/41 155/155/155 156/156/156
f 42/42/42 41/41/41 156/156/156
f 155/155/155 89/89/89 87/87/87
f 156/156/156 155/155/155 87/87/87
f 157/157/157 46/46/46 43/43/43
f 157/157/157 158/158/158 46/46/46
f 92/92/92 158/158/158 157/157/157
f 92/92/92 91/91/91 158/158/158
f 159/159/159 95/95/95 160/160/160
f 159/159/159 96/96/96 95/95/95
f 48/48/48 160/160/160 47/47/47
f 48/48/48 159/159/159 160/160/160
f 161/161/161 43/43/43 77/77/77
f 161/161/161 157/157/157 43/43/43
f 114/114/114 157/157/157 161/161/161
f 114/114/114 92/92/92 157/157/157
f 162/162/162 163/163/163 164/164/164
f 162/162/162 165/165/165 163/163/163
f 127/127/127 165/165/165 162/162/162
f 127/127/127 126/126/126 165/165/165
f 42/42/42 156/156/156 166/166/166
f 81/81/81 42/42/42 166/166/166
f 156/156/156 87/87/87 84/84/84
f 166/166/166 156/156/156 84/84/84
f 81/81/81 166/166/166 167/167/167
f 82/82/82 81/81/81 167/167/167
f 166/166/166 84/84/84 83/83/83
f 167/167/167 166/166/166 83/83/83
f 168/168/168 136/136/136 169/169/169
f 168/168/168 135/135/135 136/136/136
f 170/170/170 169/169/169 171/171/171
f 170/170/170 168/168/168 169/169/169
f 172/172/172 135/135/135 168/168/168
f 172/172/172 141/141/141 135/135/135
f 173/173/173 168/168/168 170/170/170
f 173/173/173 172/172/172 168/168/168
f 174/174/174 175/175/175 176/176/176
f 177/177/177 174/174/174 176/176/176
f 177/177/177 176/176/176 178/178/178
f 179/179/179 177/177/177 178/178/178
f 180/180/180 80/80/80 181/181/181
f 180/180/180 79/79/79 80/80/80
f 182/182/182 181/181/181 183/183/183
f 182/182/182 180/180/180 181/181/181
f 55/55/55 82/82/82 184/184/184
f 185/185/185 55/55/55 184/184/184
f 185/185/185 184/184/184 186/186/186
f 187/187/187 185/185/185 186/186/186
f 188/188/188 83/83/83 189/189/189
f 190/190/190 188/188/188 189/189/189
f 191/191/191 192/192/192 193/193/193
f 191/191/191 115/115/115 192/192/192
f 194/194/194 195/195/195 196/196/196
f 194/194/194 197/197/197 195/195/195
f 198/198/198 180/180/180 182/182/182
f 198/198/198 199/199/199 180/180/180
f 200/200/200 197/197/197 194/194/194
f 200/200/200 201/201/201 197/197/197
f 193/193/193 199/199/199 198/198/198
f 193/193/193 192/192/192 199/199/199
f 82/82/82 167/167/167 202/202/202
f 184/184/184 82/82/82 202/202/202
f 184/184/184 202/202/202 203/203/203
f 186/186/186 184/184/184 203/203/203
f 167/167/167 83/83/83 188/188/188
f 202/202/202 167/167/167 188/188/188
f 202/202/202 188/188/188 190/190/190
f 203/203/203 202/202/202 190/190/190
f 105/105/105 204/204/204 205/205/205
f 204/204/204 206/206/206 205/205/205
f 207/207/207 208/208/208 197/197/197
f 208/208/208 195/195/195 197/197/197
f 209/209/209 210/210/210 211/211/211
f 100/100/100 207/207/207 201/201/201
f 207/207/207 197/197/197 201/201/201
g submesh1
f 212/212/212 213/213/213 214/214/214
f 213/213/213 215/215/215 214/214/214
f 216/216/216 217/217/217 218/218/218
f 217/217/217 219/219/219 218/218/218
f 220/220/220 215/215/215 213/213/213
f 221/221/221 220/220/220 213/213/213
f 222/222/222 220/220/220 221/221/221
f 223/223/223 222/222/222 221/221/221
f 224/224/224 225/225/225 226/226/226
f 227/227/227 224/224/224 226/226/226
f 228/228/228 229/229/229 230/230/230
f 229/229/229 231/231/231 230/230/230
f 232/232/232 233/233/233 234/234/234
f 232/232/232 234/234/234 235/235/235
f 234/234/234 236/236/236 235/235/235
f 237/237/237 238/238/238 239/239/239
f 240/240/240 237/237/237 239/239/239
f 240/240/240 239/239/239 241/241/241
f 242/242/242 240/240/240 241/241/241
f 233/233/233 237/237/237 240/240/240
f 234/234/234 233/233/233 240/240/240
f 234/234/234 240/240/240 242/242/242
f 236/236/236 234/234/234 242/242/242
f 243/243/243 244/244/244 245/245/245
f 246/246/246 243/243/243 245/245/245
f 246/246/246 245/245/245 225/225/225
f 224/224/224 246/246/246 225/225/225
f 236/236/236 242/242/242 247/247/247
f 248/248/248 236/236/236 247/247/247
f 248/248/248 247/247/247 249/249/249
f 250/250/250 248/248/248 249/249/249
f 242/242/242 241/241/241 251/251/251
f 247/247/247 242/242/242 251/251/251
f 247/247/247 251/251/251 252/252/252
f 249/249/249 247/247/247 252/252/252
f 253/253/253 254/254/254 255/255/255
f 254/254/254 256/256/256 255/255/255
f 254/254/254 257/257/257 256/256/256
f 257/257/257 258/258/258 256/256/256
