v 4.000002 -4 12
v 12.00073 -4 12.00019
v 4.000002 6 12
v 12.00073 6 12.00019
v 12.00001 -4 4.000185
v 11.99912 -4 -6.001086
v 12.00001 6 4.000185
v 11.99912 6 -6.001084
v 11.99823 -4 -16.00109
v 7.998572 -4 -16.00072
v 11.99823 -2 -16.00109
v 7.998572 -2 -16.00072
v 7.999465 -4 -6.000729
v 8.000367 -4 3.99964
v 7.999461 6 -6.000727
v 8.000363 6 3.99964
v 7.999465 -4 -6.000729
v 11.99912 -4 -6.001086
v 8.000367 -4 3.99964
v 12.00001 -4 4.000185
v 4.000002 -4 12
v 12.00073 -4 12.00019
v -5.999638 6 4.000181
v -5.999638 -4 4.000181
v -5.998916 6 12.00019
v -5.998916 -4 12.00018
v 12.00073 -4 12.00019
v 12.00073 6 12.00019
v 8.000003 6 -0.0007226467
v 8.000007 -4 -0.0007226471
v -5.999999 6 0.0005407333
v -5.999999 -4 0.0005407333
v -5.999638 -4 4.000181
v -5.998916 -4 12.00018
v 4.000002 -4 12
v 4.000002 6 12
v -5.998916 -4 12.00018
v -5.998916 6 12.00019
v 12.00001 6 4.000185
v 8.000363 6 3.99964
v 12.00001 14 4.000185
v 4.000005 14 4.000001
v 12.00074 14 12.00019
v 12.00001 14 4.000185
v 4.000004 14 12.00001
v 12.00074 14 12.00019
v 8.000363 6 3.99964
v 4.000002 6 12
v -1.999637 6 4.000361
v -1.998915 6 12.00037
v 4.000005 14 4.000001
v 8.000363 6 3.99964
v -1.999637 6 4.000361
v 4.000002 6 12
v 4.000004 14 12.00001
v -1.998915 6 12.00037
v 4.000004 14 12.00001
v 4.000005 14 4.000001
v -1.998915 6 12.00037
v -1.999637 6 4.000361
v 8.000363 6 3.99964
v 8.000367 -4 3.99964
v 8.000003 6 -0.0007226467
v 8.000007 -4 -0.0007226471
v 8.000007 -4 -0.0007226471
v -5.999999 -4 0.0005407333
v -5.999999 -4 0.0005407333
v -5.999999 6 0.0005407333
v 11.99823 -4 -16.00109
v 7.998572 -4 -16.00072
v 11.99823 -2 -16.00109
v 11.99823 -4 -16.00109
v 7.998572 -4 -16.00072
v 7.998572 -2 -16.00072
v 8.000363 6 3.99964
v 12.00001 6 4.000185
v 7.999461 6 -6.000727
v 11.99912 6 -6.001084
v 12.00001 14 4.000185
v 4.000005 14 4.000001
v 12.00074 14 12.00019
v 4.000004 14 12.00001
v 4.000002 6 12
v -5.998916 6 12.00019
v -5.999638 6 4.000181
v -5.999999 6 0.0005407333
v 8.000003 6 -0.0007226467
v 7.999461 6 -6.000727
v 11.99912 6 -6.001084
v 7.998572 -2 -16.00072
v 11.99823 -2 -16.00109
vn -2.324369E-05 0 1
vn -2.324369E-05 0 1
vn -2.324369E-05 0 1
vn -2.324369E-05 0 1
vn 1 0 -8.915721E-05
vn 1 8.502695E-12 -8.915721E-05
vn 1 8.502695E-12 -8.915721E-05
vn 1 1.700539E-11 -8.915722E-05
vn -9.013E-05 1.719093E-10 -1
vn -9.012996E-05 8.595467E-11 -1
vn -9.012996E-05 8.595467E-11 -1
vn -9.012991E-05 0 -1
vn -1 -3.814869E-07 9.021426E-05
vn -1 -3.814783E-07 9.021426E-05
vn -1 -3.814783E-07 9.021426E-05
vn -1 -3.814697E-07 9.021428E-05
vn 0 -1 0
vn 0 -1 0
vn 0 -1 0
vn 0 -1 0
vn 0 -1 0
vn 0 -1 0
vn -1 0 9.024137E-05
vn -1 -1.721218E-11 9.024139E-05
vn -1 -1.721218E-11 9.024139E-05
vn -1 -3.442437E-11 9.024142E-05
vn 1 0 -9.024142E-05
vn 1 0 -9.024142E-05
vn -9.024142E-05 5.002268E-13 -1
vn -9.024142E-05 2.501134E-13 -1
vn -9.024142E-05 2.501134E-13 -1
vn -9.024142E-05 0 -1
vn 0 -1 0
vn 0 -1 0
vn 1.812177E-05 0 1
vn 1.831253E-05 -1.907349E-07 1
vn 1.831253E-05 -1.907349E-07 1
vn 1.850328E-05 -3.814697E-07 1
vn 0.0001363279 -6.50062E-11 -1
vn 7.966762E-05 2.832758E-05 -1
vn 7.966762E-05 2.832758E-05 -1
vn 2.300737E-05 5.665523E-05 -1
vn 1 -4.768156E-07 -9.024139E-05
vn 1 -4.768372E-07 -9.024137E-05
vn -2.324369E-05 -4.768289E-07 1
vn -2.324369E-05 -4.768261E-07 1
vn 0 -1 0
vn 0 -1 0
vn 0 -1 0
vn 0 -1 0
vn -7.212162E-05 9.086476E-06 -1
vn -7.212162E-05 9.086476E-06 -1
vn -7.212162E-05 9.086476E-06 -1
vn 6.104618E-05 -4.768517E-07 1
vn 6.104618E-05 -4.768517E-07 1
vn 6.104618E-05 -4.768517E-07 1
vn -0.8000519 0.5999308 -9.537358E-08
vn -0.8000345 0.5999539 3.604964E-05
vn -0.8000345 0.5999539 3.604964E-05
vn -0.8000172 0.5999771 7.219465E-05
vn 1 3.814697E-07 -9.011405E-05
vn 1 3.814697E-07 -9.011405E-05
vn 1 3.814697E-07 -9.011405E-05
vn 1 3.814697E-07 -9.011405E-05
vn 0 -1 0
vn 0 -1 0
vn -1 0 9.024956E-05
vn -1 0 9.024956E-05
vn 0 -1 0
vn 0 -1 0
vn 1 -9.536658E-07 -8.888246E-05
vn 1 -1.907349E-06 -8.907319E-05
vn -1 -1.907434E-07 8.90732E-05
vn -1 0 8.888247E-05
vn 0 1 0
vn 0 1 0
vn 0 1 0
vn 0 1 0
vn 0 1 0
vn 0 1 0
vn 0 1 0
vn 0 1 0
vn 0 1 0
vn 0 1 0
vn 0 1 0
vn 0 1 0
vn 0 1 0
vn -5.578242E-05 0.7808688 -0.6246952
vn -5.604306E-05 0.7808688 -0.6246951
vn -5.604306E-05 0.7808688 -0.6246951
vn -5.630371E-05 0.7808689 -0.624695
vt -4.000281 -4
vt -12.00101 -4
vt -4.000281 6
vt -12.00101 6
vt 4.001256 -4
vt -6.000016 -4
vt 4.001256 6
vt -6.000014 6
vt 11.99967 -4
vt 8.000014 -4
vt 11.99967 -2
vt 8.000014 -2
vt 6.000008 -4.000003
vt -4.000362 -4.000003
vt 6.000006 5.999997
vt -4.000362 5.999997
vt -7.999465 -6.000729
vt -11.99912 -6.001086
vt -8.000367 3.99964
vt -12.00001 4.000185
vt -4.000002 12
vt -12.00073 12.00019
vt -3.999639 6
vt -3.999639 -4
vt -11.99965 6
vt -11.99964 -4
vt 12.00127 -4
vt 12.00127 6
vt 8.000003 6
vt 8.000007 -4
vt -5.999999 6
vt -5.999999 -4
vt 5.999638 4.000181
vt 5.998916 12.00018
vt -3.999784 -4
vt -3.999784 6
vt 5.999134 -4
vt 5.999134 6
vt 12.00056 6
vt 8.000909 6
vt 12.00056 14
vt 4.00055 14
vt 12.00128 14.00001
vt 4.001268 14.00001
vt -4.000283 14.00001
vt -12.00101 14.00001
vt -8.000363 3.99964
vt -4.000002 12
vt 1.999637 4.000361
vt 1.998915 12.00037
vt 3.999716 14.00004
vt 8.000075 6.000036
vt -1.999925 6.000036
vt -3.999269 6.000006
vt -3.999271 14.00001
vt 1.999647 6.000006
vt -12 13.60045
vt -4.000001 13.60045
vt -12.00037 3.601102
vt -4.000361 3.600668
vt 4.000361 5.999997
vt 4.000361 -4.000003
vt -1.734039E-06 5.999997
vt -1.734045E-06 -4.000003
vt -8.000007 -0.0007226471
vt 5.999999 0.0005407333
vt 7.639331E-07 -4
vt 7.639331E-07 6
vt -11.99823 -16.00109
vt -7.998572 -16.00072
vt -16.00002 -2
vt -16.00002 -4
vt 16.00001 -4.000003
vt 16.00001 -2.000003
vt 8.000363 3.99964
vt 12.00001 4.000185
vt 7.999461 -6.000727
vt 11.99912 -6.001084
vt 12.00001 4.000185
vt 4.000005 4.000001
vt 12.00074 12.00019
vt 4.000004 12.00001
vt 4.000002 12
vt -5.998916 12.00019
vt -5.999638 4.000181
vt -5.999999 0.0005407333
vt 8.000003 -0.0007226467
vt 7.99989 -0.9379663
vt 11.99955 -0.9384237
vt 7.998429 -13.74421
vt 11.99809 -13.74467
g submesh0
f 1/1/1 2/2/2 3/3/3
f 2/2/2 4/4/4 3/3/3
f 5/5/5 6/6/6 7/7/7
f 6/6/6 8/8/8 7/7/7
f 9/9/9 10/10/10 11/11/11
f 10/10/10 12/12/12 11/11/11
f 13/13/13 14/14/14 15/15/15
f 14/14/14 16/16/16 15/15/15
f 17/17/17 18/18/18 19/19/19
f 18/18/18 20/20/20 19/19/19
f 19/19/19 20/20/20 21/21/21
f 20/20/20 22/22/22 21/21/21
f 23/23/23 24/24/24 25/25/25
f 24/24/24 26/26/26 25/25/25
f 5/5/5 7/7/7 27/27/27
f 7/7/7 28/28/28 27/27/27
f 29/29/29 30/30/30 31/31/31
f 30/30/30 32/32/32 31/31/31
f 19/19/19 21/21/21 33/33/33
f 21/21/21 34/34/34 33/33/33
f 35/35/35 36/36/36 37/37/37
f 36/36/36 38/38/38 37/37/37
f 39/39/39 40/40/40 41/41/41
f 40/40/40 42/42/42 41/41/41
f 28/28/28 7/7/7 43/43/43
f 7/7/7 44/44/44 43/43/43
f 3/3/3 4/4/4 45/45/45
f 4/4/4 46/46/46 45/45/45
f 47/47/47 48/48/48 49/49/49
f 48/48/48 50/50/50 49/49/49
f 51/51/51 52/52/52 53/53/53
f 54/54/54 55/55/55 56/56/56
f 57/57/57 58/58/58 59/59/59
f 58/58/58 60/60/60 59/59/59
f 61/61/61 62/62/62 63/63/63
f 62/62/62 64/64/64 63/63/63
f 19/19/19 33/33/33 65/65/65
f 33/33/33 66/66/66 65/65/65
f 24/24/24 23/23/23 67/67/67
f 23/23/23 68/68/68 67/67/67
f 18/18/18 17/17/17 69/69/69
f 17/17/17 70/70/70 69/69/69
f 8/8/8 6/6/6 71/71/71
f 6/6/6 72/72/72 71/71/71
f 13/13/13 15/15/15 73/73/73
f 15/15/15 74/74/74 73/73/73
g submesh1
f 75/75/75 76/76/76 77/77/77
f 76/76/76 78/78/78 77/77/77
f 79/79/79 80/80/80 81/81/81
f 80/80/80 82/82/82 81/81/81
f 83/83/83 75/75/75 84/84/84
f 75/75/75 85/85/85 84/84/84
f 85/85/85 75/75/75 86/86/86
f 75/75/75 87/87/87 86/86/86
f 88/88/88 89/89/89 90/90/90
f 89/89/89 91/91/91 90/90/90
