v -2 -4 -4
v 2 -4 -4
v -2 -4 2
v 2 -4 2
v -2 -4 13
v 2 -4 13
v 2 -2 13
v -2 -2 13
v -2 1 2
v 2 1 2
v 2 4 2
v -2 4 2
v 2 -4 2
v 2 -4 -4
v 2 1 -4
v 2 1 2
v 2 4 -4
v 2 4 2
v 2 1 -4
v -2 -4 -4
v -2 1 -4
v 2 -4 -4
v 2 4 -4
v -2 4 -4
v -2 1 -4
v -2 -4 2
v -2 1 2
v -2 -4 -4
v -2 4 -4
v -2 4 2
v -2 -4 8
v 2 -4 8
v 2 -4 8
v 2 1 8
v -2 1 8
v -2 -4 8
v -2 -4 13
v 2 -4 13
v 2 -4 13
v 2 -2 13
v -2 -2 13
v -2 -4 13
v -2 4 2
v 2 4 2
v -2 4 -4
v 2 4 -4
v 2 1 2
v -2 1 2
v 2 1 8
v -2 1 8
v 2 1 8
v -2 1 8
v 2 -2 13
v -2 -2 13
vn 0 -1 0
vn 0 -1 0
vn 0 -1 0
vn 0 -1 0
vn 0 0 1
vn 0 0 1
vn 0 0 1
vn 0 0 1
vn 0 0 1
vn 0 0 1
vn 0 0 1
vn 0 0 1
vn 1 0 0
vn 1 0 0
vn 1 0 0
vn 1 0 0
vn 1 0 0
vn 1 0 0
vn 0 0 -1
vn 0 0 -1
vn 0 0 -1
vn 0 0 -1
vn 0 0 -1
vn 0 0 -1
vn -1 0 0
vn -1 0 0
vn -1 0 0
vn -1 0 0
vn -1 0 0
vn -1 0 0
vn 0 -1 0
vn 0 -1 0
vn 1 0 0
vn 1 0 0
vn -1 0 0
vn -1 0 0
vn 0 -1 0
vn 0 -1 0
vn 1 0 0
vn 1 0 0
vn -1 0 0
vn -1 0 0
vn 0 1 0
vn 0 1 0
vn 0 1 0
vn 0 1 0
vn 0 1 0
vn 0 1 0
vn 0 1 0
vn 0 1 0
vn 0 0.8574929 0.5144957
vn 0 0.8574929 0.5144957
vn 0 0.8574929 0.5144957
vn 0 0.8574929 0.5144957
vt 2 -4
vt -2 -4
vt 2 2
vt -2 2
vt 2 -4
vt -2 -4
vt -2 -2
vt 2 -2
vt 2 1
vt -2 1
vt -2 4
vt 2 4
vt 2 -4
vt -4 -4
vt -4 1
vt 2 1
vt -4 4
vt 2 4
vt 2 1
vt -2 -4
vt -2 1
vt 2 -4
vt 2 4
vt -2 4
vt 4 1
vt -2 -4
vt -2 1
vt 4 -4
vt 4 4
vt -2 4
vt 2 8
vt -2 8
vt 8 -4
vt 8 1
vt -8 1
vt -8 -4
vt 2 13
vt -2 13
vt 13 -4
vt 13 -2
vt -13 -2
vt -13 -4
vt -2 2
vt 2 2
vt -2 -4
vt 2 -4
vt 2 2
vt -2 2
vt 2 8
vt -2 8
vt 2 6.345448
vt -2 6.345448
vt 2 12.1764
vt -2 12.1764
g submesh0
f 1/1/1 2/2/2 3/3/3
f 2/2/2 4/4/4 3/3/3
f 5/5/5 6/6/6 7/7/7
f 8/8/8 5/5/5 7/7/7
f 9/9/9 10/10/10 11/11/11
f 12/12/12 9/9/9 11/11/11
f 13/13/13 14/14/14 15/15/15
f 16/16/16 13/13/13 15/15/15
f 16/16/16 15/15/15 17/17/17
f 18/18/18 16/16/16 17/17/17
f 19/19/19 20/20/20 21/21/21
f 19/19/19 22/22/22 20/20/20
f 23/23/23 21/21/21 24/24/24
f 23/23/23 19/19/19 21/21/21
f 25/25/25 26/26/26 27/27/27
f 25/25/25 28/28/28 26/26/26
f 29/29/29 27/27/27 30/30/30
f 29/29/29 25/25/25 27/27/27
f 3/3/3 4/4/4 31/31/31
f 4/4/4 32/32/32 31/31/31
f 13/13/13 16/16/16 33/33/33
f 16/16/16 34/34/34 33/33/33
f 27/27/27 26/26/26 35/35/35
f 26/26/26 36/36/36 35/35/35
f 31/31/31 32/32/32 37/37/37
f 32/32/32 38/38/38 37/37/37
f 33/33/33 34/34/34 39/39/39
f 34/34/34 40/40/40 39/39/39
f 35/35/35 36/36/36 41/41/41
f 36/36/36 42/42/42 41/41/41
g submesh1
f 43/43/43 44/44/44 45/45/45
f 44/44/44 46/46/46 45/45/45
f 47/47/47 48/48/48 49/49/49
f 48/48/48 50/50/50 49/49/49
f 51/51/51 52/52/52 53/53/53
f 52/52/52 54/54/54 53/53/53
