v 4 6 6
v 4 0 6
v 8 0 6
v 4 0 -6
v 4 6 -6
v 8 0 -6
v -8 0 6
v 0 0 6
v 0 6 6
v -8 6 6
v 4 6 -10
v 0 0 -10
v 0 6 -10
v 4 0 -10
v -8 0 -10
v -8 6 -10
v 0 6 -6
v -8 6 -6
v 0 12 -6
v -8 12 -6
v -8 12 6
v 0 12 6
v 0 0 -6
v -8 0 -6
v 0 0 -10
v -8 0 -10
v 4 6 -6
v 4 0 -6
v 4 6 -10
v 4 0 -10
v 4 0 -6
v 4 0 -10
v -12 0 -6
v -12 6 -6
v -12 0 -10
v -12 6 -10
v -12 0 6
v -12 6 6
v -12 0 -10
v -12 0 -6
v -12 6 -10
v -12 0 -10
v -12 0 0
v -12 6 0
v -18 6 0
v -18 0 6
v -18 6 6
v -18 0 0
v 4 0 6
v 8 0 2
v 8 0 6
v 4 0 2
v 8 0 -6
v 8 0 2
v 8 0 -6
v 4 6 -6
v 4 6 2
v -8 0 2
v 0 0 2
v -8 0 6
v 0 0 6
v -8 12 -6
v -8 6 2
v -8 12 2
v -8 6 -6
v -8 6 6
v -8 12 6
v 0 6 6
v 0 6 2
v 0 12 2
v 0 12 6
v 0 6 -6
v 0 12 -6
v -12 0 0
v -12 0 6
v -18 0 6
v -18 6 6
v -12 -2 -10
v -18 0 -10
v -18 -2 -10
v -18 0 0
v -18 0 6
v -12 6 0
v -12 0 0
v -12 0 -10
v -12 -2 -10
v -12 0 0
v -18 0 0
v -12 -2 -10
v -18 -2 -10
v -18 -2 -10
v -18 0 -10
v 8 0 6
v 8 0 2
v 8 22 6
v 8 22 2
v 8 0 2
v 4 6 2
v 8 22 2
v 5.070368 22 2
v 5.070368 22 6
v 8 22 6
v 0 6 2
v 0 22 2
v 0 6 -6
v 4 6 -6
v 0 6 -10
v 4 6 -10
v -8 6 -6
v -8 6 -10
v -12 6 -6
v -12 6 -10
v 8 22 6
v 8 22 2
v 5.070368 22 2
v 5.070368 22 6
v 0 12 -6
v -8 12 -6
v -8 12 2
v 0 12 2
v -8 12 6
v 0 12 6
v 0 6 2
v 4 6 2
v 0 22 2
v 0 22 6
v -8 6 2
v -12 6 0
v -12 6 6
v -8 6 6
v -18 6 6
v -18 6 0
v -18 6 0
v -12 6 0
v -18 0 -10
v -12 0 -10
v 0 6 6
v 4 6 6
v 0 22 6
v 5.070368 22 6
v 0 6 2
v 0 6 6
v 0 22 2
v 0 22 6
vn 0 0 1
vn 0 0 1
vn 0 0 1
vn 0 0 -1
vn 0 0 -1
vn 0 0 -1
vn 0 0 1
vn 0 0 1
vn 0 0 1
vn 0 0 1
vn 0 0 -1
vn 0 0 -1
vn 0 0 -1
vn 0 0 -1
vn 0 0 -1
vn 0 0 -1
vn 0 0 -1
vn 0 0 -1
vn 0 0 -1
vn 0 0 -1
vn 0 0 1
vn 0 0 1
vn 0 -1 0
vn 0 -1 0
vn 0 -1 0
vn 0 -1 0
vn 1 0 0
vn 1 0 0
vn 1 0 0
vn 1 0 0
vn 0 -1 0
vn 0 -1 0
vn -1 0 0
vn -1 0 0
vn -1 0 0
vn -1 0 0
vn 0 0 1
vn 0 0 1
vn 0 -1 0
vn 0 -1 0
vn 0 0 -1
vn 0 0 -1
vn -1 0 0
vn -1 0 0
vn -1 0 0
vn -1 0 0
vn -1 0 0
vn -1 0 0
vn 0 -1 0
vn 0 -1 0
vn 0 -1 0
vn 0 -1 0
vn 0 -1 0
vn 0.8320503 0.5547002 0
vn 0.8320503 0.5547002 0
vn 0.8320503 0.5547002 0
vn 0.8320503 0.5547002 0
vn 0 -1 0
vn 0 -1 0
vn 0 -1 0
vn 0 -1 0
vn -1 0 0
vn -1 0 0
vn -1 0 0
vn -1 0 0
vn -1 0 0
vn -1 0 0
vn 1 0 0
vn 1 0 0
vn 1 0 0
vn 1 0 0
vn 1 0 0
vn 1 0 0
vn 0 -1 0
vn 0 -1 0
vn 0 0 1
vn 0 0 1
vn 0 0 -1
vn 0 0 -1
vn 0 0 -1
vn 0 -1 0
vn 0 -1 0
vn 1 0 0
vn 1 0 0
vn 1 0 0
vn 1 0 0
vn 0 -0.9805807 0.1961161
vn 0 -0.9805807 0.1961161
vn 0 -0.9805807 0.1961161
vn 0 -0.9805807 0.1961161
vn -1 0 0
vn -1 0 0
vn 1 0 0
vn 1 0 0
vn 1 0 0
vn 1 0 0
vn 0 0 -1
vn 0 0 -1
vn 0 0 -1
vn 0 0 -1
vn 0 0 1
vn 0 0 1
vn 0 0 -1
vn 0 0 -1
vn 0 1 0
vn 0 1 0
vn 0 1 0
vn 0 1 0
vn 0 1 0
vn 0 1 0
vn 0 1 0
vn 0 1 0
vn 0 1 0
vn 0 1 0
vn 0 1 0
vn 0 1 0
vn 0 1 0
vn 0 1 0
vn 0 1 0
vn 0 1 0
vn 0 1 0
vn 0 1 0
vn 0 1 0
vn 0 1 0
vn 0 1 0
vn 0 1 0
vn 0 1 0
vn 0 1 0
vn 0 1 0
vn 0 1 0
vn 0 1 0
vn 0 1 0
vn 0 0.8574929 -0.5144957
vn 0 0.8574929 -0.5144957
vn 0 0.8574929 -0.5144957
vn 0 0.8574929 -0.5144957
vn 0 0 1
vn 0 0 1
vn 0 0 1
vn 0 0 1
vn -1 0 0
vn -1 0 0
vn -1 0 0
vn -1 0 0
vt -4 6
vt -4 0
vt -8 0
vt 4 0
vt 4 6
vt 8 0
vt 8 0
vt 0 0
vt 0 6
vt 8 6
vt 4 6
vt 0 0
vt 0 6
vt 4 0
vt -8 0
vt -8 6
vt 0 6
vt -8 6
vt 0 12
vt -8 12
vt 8 12
vt 0 12
vt 0 -6
vt 8 -6
vt 0 -10
vt 8 -10
vt -6 6
vt -6 0
vt -10 6
vt -10 0
vt -4 -6
vt -4 -10
vt 6 0
vt 6 6
vt 10 0
vt 10 6
vt 12 0
vt 12 6
vt 12 -10
vt 12 -6
vt -12 6
vt -12 0
vt 0 0
vt 0 6
vt 0 6
vt -6 0
vt -6 6
vt 0 0
vt -4 6
vt -8 2
vt -8 6
vt -4 2
vt -8 -6
vt 2 -4.437601
vt -6 -4.437601
vt -6 2.773501
vt 2 2.773501
vt 8 2
vt 0 2
vt 8 6
vt 0 6
vt 6 12
vt -2 6
vt -2 12
vt 6 6
vt -6 6
vt -6 12
vt 6 6
vt 2 6
vt 2 12
vt 6 12
vt -6 6
vt -6 12
vt 12 0
vt 12 6
vt 18 0
vt 18 6
vt -12 -2
vt -18 0
vt -18 -2
vt 18 0
vt 18 6
vt 0 6
vt 0 0
vt -10 0
vt -10 -2
vt 12 0
vt 18 0
vt 12 -10.19804
vt 18 -10.19804
vt 10 -2
vt 10 0
vt 6 0
vt 2 0
vt 6 22
vt 2 22
vt 8 0
vt 4 6
vt 8 22
vt 5.070368 22
vt -5.070368 22
vt -8 22
vt 0 6
vt 0 22
vt 0 -6
vt 4 -6
vt 0 -10
vt 4 -10
vt -8 -6
vt -8 -10
vt -12 -6
vt -12 -10
vt 8 6
vt 8 2
vt 5.070368 2
vt 5.070368 6
vt 0 -6
vt -8 -6
vt -8 2
vt 0 2
vt -8 6
vt 0 6
vt 0 2
vt 4 2
vt 0 2
vt 0 6
vt -8 2
vt -12 0
vt -12 6
vt -8 6
vt -18 6
vt -18 0
vt -18 3.086974
vt -12 3.086974
vt -18 -8.574929
vt -12 -8.574929
vt 0 6
vt -4 6
vt 0 22
vt -5.070368 22
vt -2 6
vt -6 6
vt -2 22
vt -6 22
g submesh0
f 1/1/1 2/2/2 3/3/3
f 4/4/4 5/5/5 6/6/6
f 7/7/7 8/8/8 9/9/9
f 10/10/10 7/7/7 9/9/9
f 8/8/8 2/2/2 1/1/1
f 9/9/9 8/8/8 1/1/1
f 11/11/11 12/12/12 13/13/13
f 11/11/11 14/14/14 12/12/12
f 13/13/13 15/15/15 16/16/16
f 13/13/13 12/12/12 15/15/15
f 17/17/17 18/18/18 19/19/19
f 18/18/18 20/20/20 19/19/19
f 10/10/10 9/9/9 21/21/21
f 9/9/9 22/22/22 21/21/21
f 23/23/23 24/24/24 25/25/25
f 24/24/24 26/26/26 25/25/25
f 27/27/27 28/28/28 29/29/29
f 28/28/28 30/30/30 29/29/29
f 31/31/31 23/23/23 32/32/32
f 23/23/23 25/25/25 32/32/32
f 33/33/33 34/34/34 35/35/35
f 34/34/34 36/36/36 35/35/35
f 7/7/7 10/10/10 37/37/37
f 10/10/10 38/38/38 37/37/37
f 26/26/26 24/24/24 39/39/39
f 24/24/24 40/40/40 39/39/39
f 16/16/16 15/15/15 41/41/41
f 15/15/15 42/42/42 41/41/41
f 34/34/34 43/43/43 44/44/44
f 34/34/34 33/33/33 43/43/43
f 45/45/45 46/46/46 47/47/47
f 45/45/45 48/48/48 46/46/46
f 49/49/49 50/50/50 51/51/51
f 49/49/49 52/52/52 50/50/50
f 52/52/52 53/53/53 50/50/50
f 52/52/52 31/31/31 53/53/53
f 54/54/54 55/55/55 56/56/56
f 57/57/57 54/54/54 56/56/56
f 58/58/58 23/23/23 59/59/59
f 58/58/58 24/24/24 23/23/23
f 60/60/60 59/59/59 61/61/61
f 60/60/60 58/58/58 59/59/59
f 59/59/59 31/31/31 52/52/52
f 59/59/59 23/23/23 31/31/31
f 61/61/61 52/52/52 49/49/49
f 61/61/61 59/59/59 52/52/52
f 62/62/62 63/63/63 64/64/64
f 62/62/62 65/65/65 63/63/63
f 64/64/64 66/66/66 67/67/67
f 64/64/64 63/63/63 66/66/66
f 68/68/68 69/69/69 70/70/70
f 71/71/71 68/68/68 70/70/70
f 69/69/69 72/72/72 73/73/73
f 70/70/70 69/69/69 73/73/73
f 74/74/74 24/24/24 58/58/58
f 74/74/74 40/40/40 24/24/24
f 75/75/75 58/58/58 60/60/60
f 75/75/75 74/74/74 58/58/58
f 37/37/37 38/38/38 76/76/76
f 38/38/38 77/77/77 76/76/76
f 42/42/42 78/78/78 79/79/79
f 78/78/78 80/80/80 79/79/79
f 74/74/74 75/75/75 81/81/81
f 75/75/75 82/82/82 81/81/81
f 83/83/83 84/84/84 85/85/85
f 84/84/84 86/86/86 85/85/85
f 87/87/87 88/88/88 89/89/89
f 88/88/88 90/90/90 89/89/89
f 48/48/48 45/45/45 91/91/91
f 45/45/45 92/92/92 91/91/91
f 93/93/93 94/94/94 95/95/95
f 94/94/94 96/96/96 95/95/95
f 97/97/97 98/98/98 99/99/99
f 98/98/98 100/100/100 99/99/99
f 1/1/1 3/3/3 101/101/101
f 3/3/3 102/102/102 101/101/101
f 98/98/98 103/103/103 100/100/100
f 103/103/103 104/104/104 100/100/100
g submesh1
f 105/105/105 106/106/106 107/107/107
f 106/106/106 108/108/108 107/107/107
f 109/109/109 105/105/105 110/110/110
f 105/105/105 107/107/107 110/110/110
f 109/109/109 110/110/110 111/111/111
f 110/110/110 112/112/112 111/111/111
f 113/113/113 114/114/114 115/115/115
f 116/116/116 113/113/113 115/115/115
f 117/117/117 118/118/118 119/119/119
f 120/120/120 117/117/117 119/119/119
f 120/120/120 119/119/119 121/121/121
f 122/122/122 120/120/120 121/121/121
f 106/106/106 105/105/105 123/123/123
f 124/124/124 106/106/106 123/123/123
f 115/115/115 125/125/125 126/126/126
f 116/116/116 115/115/115 126/126/126
f 127/127/127 128/128/128 129/129/129
f 130/130/130 127/127/127 129/129/129
f 109/109/109 111/111/111 128/128/128
f 127/127/127 109/109/109 128/128/128
f 129/129/129 128/128/128 131/131/131
f 128/128/128 132/132/132 131/131/131
f 133/133/133 134/134/134 135/135/135
f 134/134/134 136/136/136 135/135/135
f 137/137/137 138/138/138 139/139/139
f 138/138/138 140/140/140 139/139/139
f 141/141/141 142/142/142 143/143/143
f 142/142/142 144/144/144 143/143/143
