v 0 0 -0.75
v 0.25 0 -0.75
v 0 6 -0.75
v 0.25 6 -0.75
v 0.25 0 -0.75
v 0.25 0 -1
v 0.25 6 -0.75
v 0.25 6 -1
v 0.25 0 -1
v 0 0 -1
v 0.25 6 -1
v 0 6 -1
v 0 0 -1
v 0 0 -0.75
v 0 6 -1
v 0 6 -0.75
v 0 6.25 -0.75
v 0.25 6.25 -0.75
v 0 6.25 -1
v 0.25 6.25 -1
v 0 0 -1
v 0.25 0 -1
v 0 0 -0.75
v 0.25 0 -0.75
v 0 6.25 -0.75
v 0.25 6.25 -0.75
v -6.25 6 -1
v -6.25 6 -0.75
v -6.25 6.25 -1
v -6.25 6.25 -0.75
v 0.25 6.25 -0.75
v 0.25 6.25 -1
v 0.25 6.25 -1
v 0 6.25 -1
v 0 6 -1
v 0 6 -0.75
v -6 6 -1
v -6 6 -0.75
v -6 6.25 -1
v -6 6 -1
v -6 6 -0.75
v -6 6.25 -0.75
v -6 6.25 -0.75
v -6 6.25 -1
v -6 0 -1
v -6 0 -0.75
v -6.25 0 -1
v -6.25 0 -0.75
v -6.25 6.25 -1
v -6.25 6 -1
v -6.25 6 -0.75
v -6.25 6.25 -0.75
v -6.25 6.25 -0.75
v -6.25 6.25 -1
v -6 6 -1
v -6 6 -0.75
v -6 0 -1
v -6 0 -0.75
v -6.25 0 -1
v -6 0 -1
v -6 0 -0.75
v -6.25 0 -0.75
v -6.25 0 -0.75
v -6.25 0 -1
vn 0 0 1
vn 0 0 1
vn 0 0 1
vn 0 0 1
vn 1 0 0
vn 1 0 0
vn 1 0 0
vn 1 0 0
vn 0 0 -1
vn 0 0 -1
vn 0 0 -1
vn 0 0 -1
vn -1 0 0
vn -1 0 0
vn -1 0 0
vn -1 0 0
vn 0 1 0
vn 0 1 0
vn 0 1 0
vn 0 1 0
vn 0 -1 0
vn 0 -1 0
vn 0 -1 0
vn 0 -1 0
vn 0 0 1
vn 0 0 1
vn -1 0 0
vn -1 0 0
vn -1 0 0
vn -1 0 0
vn 1 0 0
vn 1 0 0
vn 0 0 -1
vn 0 0 -1
vn 0 -1 0
vn 0 -1 0
vn 0 -1 0
vn 0 -1 0
vn 0 0 -1
vn 0 0 -1
vn 0 0 1
vn 0 0 1
vn 0 1 0
vn 0 1 0
vn 0 -1 0
vn 0 -1 0
vn 0 -1 0
vn 0 -1 0
vn 0 0 -1
vn 0 0 -1
vn 0 0 1
vn 0 0 1
vn 0 1 0
vn 0 1 0
vn 1 0 0
vn 1 0 0
vn 1 0 0
vn 1 0 0
vn 0 0 -1
vn 0 0 -1
vn 0 0 1
vn 0 0 1
vn -1 0 0
vn -1 0 0
vt 0 0
vt -0.25 0
vt 0 6
vt -0.25 6
vt -0.75 0
vt -1 0
vt -0.75 6
vt -1 6
vt 0.25 0
vt 0 0
vt 0.25 6
vt 0 6
vt 1 0
vt 0.75 0
vt 1 6
vt 0.75 6
vt 0 -0.75
vt 0.25 -0.75
vt 0 -1
vt 0.25 -1
vt 0 -1
vt -0.25 -1
vt 0 -0.75
vt -0.25 -0.75
vt 0 6.25
vt -0.25 6.25
vt 1 6
vt 0.75 6
vt 1 6.25
vt 0.75 6.25
vt -0.75 6.25
vt -1 6.25
vt 0.25 6.25
vt 0 6.25
vt 0 -1
vt 0 -0.75
vt 6 -1
vt 6 -0.75
vt -6 6.25
vt -6 6
vt 6 6
vt 6 6.25
vt -6 -0.75
vt -6 -1
vt 6 -1
vt 6 -0.75
vt 6.25 -1
vt 6.25 -0.75
vt -6.25 6.25
vt -6.25 6
vt 6.25 6
vt 6.25 6.25
vt -6.25 -0.75
vt -6.25 -1
vt -1 6
vt -0.75 6
vt -1 0
vt -0.75 0
vt -6.25 0
vt -6 0
vt 6 0
vt 6.25 0
vt 0.75 0
vt 1 0
g submesh0
f 1/1/1 2/2/2 3/3/3
f 2/2/2 4/4/4 3/3/3
f 5/5/5 6/6/6 7/7/7
f 6/6/6 8/8/8 7/7/7
f 9/9/9 10/10/10 11/11/11
f 10/10/10 12/12/12 11/11/11
f 13/13/13 14/14/14 15/15/15
f 14/14/14 16/16/16 15/15/15
f 17/17/17 18/18/18 19/19/19
f 18/18/18 20/20/20 19/19/19
f 21/21/21 22/22/22 23/23/23
f 22/22/22 24/24/24 23/23/23
f 3/3/3 4/4/4 25/25/25
f 4/4/4 26/26/26 25/25/25
f 27/27/27 28/28/28 29/29/29
f 28/28/28 30/30/30 29/29/29
f 7/7/7 8/8/8 31/31/31
f 8/8/8 32/32/32 31/31/31
f 11/11/11 12/12/12 33/33/33
f 12/12/12 34/34/34 33/33/33
f 35/35/35 36/36/36 37/37/37
f 36/36/36 38/38/38 37/37/37
f 34/34/34 12/12/12 39/39/39
f 12/12/12 40/40/40 39/39/39
f 3/3/3 25/25/25 41/41/41
f 25/25/25 42/42/42 41/41/41
f 17/17/17 19/19/19 43/43/43
f 19/19/19 44/44/44 43/43/43
f 45/45/45 46/46/46 47/47/47
f 46/46/46 48/48/48 47/47/47
f 39/39/39 40/40/40 49/49/49
f 40/40/40 50/50/50 49/49/49
f 41/41/41 42/42/42 51/51/51
f 42/42/42 52/52/52 51/51/51
f 43/43/43 44/44/44 53/53/53
f 44/44/44 54/54/54 53/53/53
f 55/55/55 56/56/56 57/57/57
f 56/56/56 58/58/58 57/57/57
f 50/50/50 40/40/40 59/59/59
f 40/40/40 60/60/60 59/59/59
f 41/41/41 51/51/51 61/61/61
f 51/51/51 62/62/62 61/61/61
f 28/28/28 27/27/27 63/63/63
f 27/27/27 64/64/64 63/63/63
