v 0 2 0
v 5 2 0
v 0 4 0
v 5 4 0
v 5 2 0
v 5 2 -2
v 5 4 0
v 5 4 -2
v 5 2 -12
v 0 2 -12
v 5 4 -12
v 0 4 -12
v 0 2 -2
v 0 2 0
v 0 4 -2
v 0 4 0
v 0 0 -2
v 5 0 -2
v 0 0 0
v 5 0 0
v 5 0 -4
v 0 0 -4
v 14 4 -2
v 14 2 -2
v 14 4 -12
v 14 2 -12
v 0 2 -12
v 0 4 -12
v 5 4 -2
v 5 2 -2
v 9 4 -2
v 9 2 -2
v 9 0 -2
v 9 0 -4
v 9 2 -12
v 9 4 -12
v 9 4 0
v 9 2 0
v 14 4 0
v 14 2 0
v 14 0 -2
v 14 0 -4
v 14 2 -12
v 14 4 -12
v 9 4 -2
v 9 2 -2
v 9 4 0
v 9 2 0
v 9 0 0
v 14 0 0
v 14 2 0
v 14 4 0
v 0 0 -2
v 0 0 -4
v 9 0 -2
v 5 0 -2
v 5 2 -12
v 9 2 -12
v 5 0 -4
v 9 0 -4
v 9 0 0
v 9 0 -2
v 0 0 0
v 0 2 -12
v 0 0 -4
v 5 0 -2
v 5 0 0
v 5 0 0
v 0 0 0
v 14 2 -12
v 14 0 -4
v 14 0 -4
v 14 0 -2
v 14 0 0
v 14 0 0
v 9 0 0
v 0 4 0
v 5 4 0
v 0 4 -2
v 5 4 -2
v 0 4 -12
v 5 4 -12
v 9 4 -12
v 9 4 -2
v 14 4 -12
v 14 4 -2
v 14 4 0
v 9 4 0
vn 0 0 1
vn 0 0 1
vn 0 0 1
vn 0 0 1
vn 1 0 0
vn 1 0 0
vn 1 0 0
vn 1 0 0
vn 0 0 -1
vn 0 0 -1
vn 0 0 -1
vn 0 0 -1
vn -1 0 0
vn -1 0 0
vn -1 0 0
vn -1 0 0
vn 0 -1 0
vn 0 -1 0
vn 0 -1 0
vn 0 -1 0
vn 0 -1 0
vn 0 -1 0
vn 1 0 0
vn 1 0 0
vn 1 0 0
vn 1 0 0
vn -1 0 0
vn -1 0 0
vn 0 0 1
vn 0 0 1
vn 0 0 1
vn 0 0 1
vn 0 -1 0
vn 0 -1 0
vn 0 0 -1
vn 0 0 -1
vn 0 0 1
vn 0 0 1
vn 0 0 1
vn 0 0 1
vn 0 -1 0
vn 0 -1 0
vn 0 0 -1
vn 0 0 -1
vn -1 0 0
vn -1 0 0
vn -1 0 0
vn -1 0 0
vn 0 -1 0
vn 0 -1 0
vn 1 0 0
vn 1 0 0
vn -1 0 0
vn -1 0 0
vn 0 0 1
vn 0 0 1
vn 0 -0.9701425 -0.2425356
vn 0 -0.9701425 -0.2425356
vn 0 -0.9701425 -0.2425356
vn 0 -0.9701425 -0.2425356
vn -1 0 0
vn -1 0 0
vn -1 0 0
vn 0 -0.9701425 -0.2425356
vn 0 -0.9701425 -0.2425356
vn 1 0 0
vn 1 0 0
vn 0 0 1
vn 0 0 1
vn 0 -0.9701425 -0.2425356
vn 0 -0.9701425 -0.2425356
vn 1 0 0
vn 1 0 0
vn 1 0 0
vn 0 0 1
vn 0 0 1
vn 0 1 0
vn 0 1 0
vn 0 1 0
vn 0 1 0
vn 0 1 0
vn 0 1 0
vn 0 1 0
vn 0 1 0
vn 0 1 0
vn 0 1 0
vn 0 1 0
vn 0 1 0
vt 0 2
vt -5 2
vt 0 4
vt -5 4
vt 0 2
vt -2 2
vt 0 4
vt -2 4
vt 5 2
vt 0 2
vt 5 4
vt 0 4
vt 2 2
vt 0 2
vt 2 4
vt 0 4
vt 0 -2
vt -5 -2
vt 0 0
vt -5 0
vt -5 -4
vt 0 -4
vt -2 4
vt -2 2
vt -12 4
vt -12 2
vt 12 2
vt 12 4
vt -5 4
vt -5 2
vt -9 4
vt -9 2
vt -9 -2
vt -9 -4
vt 9 2
vt 9 4
vt -9 4
vt -9 2
vt -14 4
vt -14 2
vt -14 -2
vt -14 -4
vt 14 2
vt 14 4
vt 2 4
vt 2 2
vt 0 4
vt 0 2
vt -9 0
vt -14 0
vt 0 2
vt 0 4
vt 2 0
vt 4 0
vt -9 0
vt -5 0
vt -5 -12.12678
vt -9 -12.12678
vt -5 -3.88057
vt -9 -3.88057
vt 0 0
vt 2 0
vt 0 0
vt 0 -12.12678
vt 0 -3.88057
vt -2 0
vt 0 0
vt -5 0
vt 0 0
vt -14 -12.12678
vt -14 -3.88057
vt -4 0
vt -2 0
vt 0 0
vt -14 0
vt -9 0
vt 0 0
vt 5 0
vt 0 -2
vt 5 -2
vt 0 -12
vt 5 -12
vt 9 -12
vt 9 -2
vt 14 -12
vt 14 -2
vt 14 0
vt 9 0
g submesh0
f 1/1/1 2/2/2 3/3/3
f 2/2/2 4/4/4 3/3/3
f 5/5/5 6/6/6 7/7/7
f 6/6/6 8/8/8 7/7/7
f 9/9/9 10/10/10 11/11/11
f 10/10/10 12/12/12 11/11/11
f 13/13/13 14/14/14 15/15/15
f 14/14/14 16/16/16 15/15/15
f 17/17/17 18/18/18 19/19/19
f 18/18/18 20/20/20 19/19/19
f 18/18/18 17/17/17 21/21/21
f 17/17/17 22/22/22 21/21/21
f 23/23/23 24/24/24 25/25/25
f 24/24/24 26/26/26 25/25/25
f 13/13/13 15/15/15 27/27/27
f 15/15/15 28/28/28 27/27/27
f 29/29/29 30/30/30 31/31/31
f 30/30/30 32/32/32 31/31/31
f 18/18/18 21/21/21 33/33/33
f 21/21/21 34/34/34 33/33/33
f 9/9/9 11/11/11 35/35/35
f 11/11/11 36/36/36 35/35/35
f 37/37/37 38/38/38 39/39/39
f 38/38/38 40/40/40 39/39/39
f 33/33/33 34/34/34 41/41/41
f 34/34/34 42/42/42 41/41/41
f 35/35/35 36/36/36 43/43/43
f 36/36/36 44/44/44 43/43/43
f 45/45/45 46/46/46 47/47/47
f 46/46/46 48/48/48 47/47/47
f 33/33/33 41/41/41 49/49/49
f 41/41/41 50/50/50 49/49/49
f 24/24/24 23/23/23 51/51/51
f 23/23/23 52/52/52 51/51/51
f 13/13/13 27/27/27 53/53/53
f 27/27/27 54/54/54 53/53/53
f 32/32/32 30/30/30 55/55/55
f 30/30/30 56/56/56 55/55/55
f 57/57/57 58/58/58 59/59/59
f 58/58/58 60/60/60 59/59/59
f 48/48/48 46/46/46 61/61/61
f 46/46/46 62/62/62 61/61/61
f 14/14/14 13/13/13 63/63/63
f 13/13/13 53/53/53 63/63/63
f 64/64/64 57/57/57 65/65/65
f 57/57/57 59/59/59 65/65/65
f 6/6/6 5/5/5 66/66/66
f 5/5/5 67/67/67 66/66/66
f 2/2/2 1/1/1 68/68/68
f 1/1/1 69/69/69 68/68/68
f 58/58/58 70/70/70 60/60/60
f 70/70/70 71/71/71 60/60/60
f 26/26/26 24/24/24 72/72/72
f 24/24/24 73/73/73 72/72/72
f 24/24/24 51/51/51 73/73/73
f 51/51/51 74/74/74 73/73/73
f 40/40/40 38/38/38 75/75/75
f 38/38/38 76/76/76 75/75/75
g submesh1
f 77/77/77 78/78/78 79/79/79
f 78/78/78 80/80/80 79/79/79
f 79/79/79 80/80/80 81/81/81
f 80/80/80 82/82/82 81/81/81
f 82/82/82 80/80/80 83/83/83
f 80/80/80 84/84/84 83/83/83
f 83/83/83 84/84/84 85/85/85
f 84/84/84 86/86/86 85/85/85
f 86/86/86 84/84/84 87/87/87
f 84/84/84 88/88/88 87/87/87
