v 0.7499996 -3 0.2499999
v 0.9999996 -3 0.2499998
v 0.7499996 15 0.2500002
v 0.9999996 15 0.25
v 0.9999996 -3 0.2499998
v 0.9999995 -3 -2.384186E-07
v 0.9999996 15 0.25
v 0.9999995 15 3.694822E-13
v 0.9999995 -3 -2.384186E-07
v 0.7499995 -3 -1.490116E-07
v 0.9999995 15 3.694822E-13
v 0.7499995 15 1.937154E-07
v -1 -3 4.768372E-07
v -1 -3 0.2500005
v -1 15 1.549721E-06
v -1 15 0.2500015
v 0.7499996 15 0.2500002
v 0.9999996 15 0.25
v 0.7499995 15 1.937154E-07
v 0.9999995 15 3.694822E-13
v 0.7499995 -3 -1.490116E-07
v 0.9999995 -3 -2.384186E-07
v 0.7499996 -3 0.2499999
v 0.9999996 -3 0.2499998
v -0.7500005 -3 3.874302E-07
v -0.7500004 -3 0.2500004
v -1 -3 4.768372E-07
v -1 -3 0.2500005
v -0.7500005 15 1.356006E-06
v -0.7500005 -3 3.874302E-07
v -1 15 1.549721E-06
v -1 -3 4.768372E-07
v -0.7500004 -3 0.2500004
v -0.7500004 15 0.2500014
v -1 -3 0.2500005
v -1 15 0.2500015
v -0.7500004 15 0.2500014
v -0.7500005 15 1.356006E-06
v -1 15 0.2500015
v -1 15 1.549721E-06
v 0.7499996 -3 0.2499999
v 0.7499996 15 0.2500002
v 0.7499995 -3 -1.490116E-07
v 0.7499995 15 1.937154E-07
v -0.7500004 15 0.2500014
v -0.7500004 -3 0.2500004
v -0.7500005 15 1.356006E-06
v -0.7500005 -3 3.874302E-07
v 0.7499996 -3 0.1249999
v 0.7499996 15 0.1250002
v -0.7500004 -3 0.1250004
v -0.7500004 15 0.1250014
vn 3.576279E-07 -1.986821E-08 1
vn 5.960463E-07 -1.655684E-08 1
vn 5.960463E-07 -1.655684E-08 1
vn 8.344649E-07 -1.324548E-08 1
vn 1 6.315935E-15 -4.768372E-07
vn 1 6.31594E-15 -4.768372E-07
vn 1 6.31594E-15 -4.768372E-07
vn 1 6.315945E-15 -4.768372E-07
vn -3.576279E-07 1.32455E-08 -1
vn -5.662441E-07 1.614294E-08 -1
vn -5.662441E-07 1.614294E-08 -1
vn -7.748603E-07 1.904039E-08 -1
vn -1 -2.842171E-14 4.768372E-07
vn -1 3.311327E-09 7.152557E-07
vn -1 3.311327E-09 7.152557E-07
vn -1 6.622682E-09 9.536743E-07
vn 0 1 0
vn 0 1 0
vn 0 1 0
vn 0 1 0
vn 0 -1 0
vn 0 -1 0
vn 0 -1 0
vn 0 -1 0
vn 0 -1 0
vn 0 -1 0
vn 0 -1 0
vn 0 -1 0
vn -7.748599E-07 5.380976E-08 -1
vn -5.662439E-07 5.670721E-08 -1
vn -5.662439E-07 5.670721E-08 -1
vn -3.576279E-07 5.960465E-08 -1
vn 3.576279E-07 -5.463759E-08 1
vn 5.36442E-07 -5.712112E-08 1
vn 5.36442E-07 -5.712112E-08 1
vn 7.152562E-07 -5.960465E-08 1
vn 0 1 0
vn 0 1 0
vn 0 1 0
vn 0 1 0
vn -1 -3.311379E-09 4.768372E-07
vn -1 -1.655692E-09 3.576279E-07
vn -1 -1.655692E-09 3.576279E-07
vn -1 -4.736952E-15 2.384186E-07
vn 1 3.311382E-09 -2.384186E-07
vn 1 1.655704E-09 -3.576279E-07
vn 1 1.655704E-09 -3.576279E-07
vn 1 2.565849E-14 -4.768372E-07
vn 3.576279E-07 -1.904037E-08 1
vn 5.662441E-07 -3.642506E-08 1
vn 5.662441E-07 -3.642506E-08 1
vn 7.748604E-07 -5.380975E-08 1
vt -0.7499996 -3
vt -0.9999996 -3
vt -0.7499995 15
vt -0.9999995 15
vt -1.875 -3
vt -2.125 -3
vt -1.875 15
vt -2.125 15
vt 0.9999995 -3
vt 0.7499995 -3
vt 0.9999995 15
vt 0.7499995 15
vt 2.125 -3
vt 1.875 -3
vt 2.124999 15
vt 1.874999 15
vt 0.7499996 -1.875
vt 0.9999996 -1.875
vt 0.7499995 -2.125
vt 0.9999995 -2.125
vt -0.7499995 -2.125
vt -0.9999995 -2.125
vt -0.7499996 -1.875
vt -0.9999996 -1.875
vt 0.7500005 -2.125
vt 0.7500004 -1.875
vt 1 -2.125
vt 1 -1.875
vt -0.7500005 15
vt -0.7500005 -3
vt -1 15
vt -1 -3
vt 0.7500005 -3
vt 0.7500005 15
vt 1 -3
vt 1 15
vt -0.7500004 -1.874999
vt -0.7500005 -2.124999
vt -1 -1.874998
vt -1 -2.124998
vt 1.875 -3
vt 1.874999 15
vt 2.125 -3
vt 2.125 15
vt -1.874999 15
vt -1.875 -3
vt -2.124999 15
vt -2.125 -3
vt -0.7499995 -3
vt -0.7499996 15
vt 0.7500005 -3
vt 0.7500004 15
g submesh0
f 1/1/1 2/2/2 3/3/3
f 2/2/2 4/4/4 3/3/3
f 5/5/5 6/6/6 7/7/7
f 6/6/6 8/8/8 7/7/7
f 9/9/9 10/10/10 11/11/11
f 10/10/10 12/12/12 11/11/11
f 13/13/13 14/14/14 15/15/15
f 14/14/14 16/16/16 15/15/15
f 17/17/17 18/18/18 19/19/19
f 18/18/18 20/20/20 19/19/19
f 21/21/21 22/22/22 23/23/23
f 22/22/22 24/24/24 23/23/23
f 25/25/25 26/26/26 27/27/27
f 26/26/26 28/28/28 27/27/27
f 29/29/29 30/30/30 31/31/31
f 30/30/30 32/32/32 31/31/31
f 33/33/33 34/34/34 35/35/35
f 34/34/34 36/36/36 35/35/35
f 37/37/37 38/38/38 39/39/39
f 38/38/38 40/40/40 39/39/39
f 41/41/41 42/42/42 43/43/43
f 42/42/42 44/44/44 43/43/43
f 45/45/45 46/46/46 47/47/47
f 46/46/46 48/48/48 47/47/47
g submesh1
f 49/49/49 50/50/50 51/51/51
f 50/50/50 52/52/52 51/51/51
