v 0.7500004 -2 0.2499995
v 1 -2 0.2499996
v 0.7500004 4 0.2499995
v 1 4 0.2499996
v 1 -2 0.2499996
v 1 -2 -4.225003E-07
v 1 4 0.2499996
v 1 4 -4.225003E-07
v 1 -2 -4.225003E-07
v 0.7500005 -2 -4.82105E-07
v 1 4 -4.225003E-07
v 0.7500005 4 -4.82105E-07
v -0.9999995 -2 -8.993375E-07
v -1.000002 -2 0.2499991
v -0.9999995 4 -8.993375E-07
v -1.000002 4 0.2499991
v 0.7500004 4 0.2499995
v 1 4 0.2499996
v 0.7500005 4 -4.82105E-07
v 1 4 -4.225003E-07
v 0.7500005 -2 -4.82105E-07
v 1 -2 -4.225003E-07
v 0.7500004 -2 0.2499995
v 1 -2 0.2499996
v -0.7499995 -2 -8.397328E-07
v -0.7500015 -2 0.2499992
v -0.9999995 -2 -8.993375E-07
v -1.000002 -2 0.2499991
v -0.7499995 4 -8.397328E-07
v -0.7499995 -2 -8.397328E-07
v -0.9999995 4 -8.993375E-07
v -0.9999995 -2 -8.993375E-07
v -0.7500015 -2 0.2499992
v -0.7500015 4 0.2499992
v -1.000002 -2 0.2499991
v -1.000002 4 0.2499991
v -0.7500015 4 0.2499992
v -0.7499995 4 -8.397328E-07
v -1.000002 4 0.2499991
v -0.9999995 4 -8.993375E-07
v 0.7500004 -2 0.2499995
v 0.7500004 4 0.2499995
v 0.7500005 -2 -4.82105E-07
v 0.7500005 4 -4.82105E-07
v -0.7500015 4 0.2499992
v -0.7500015 -2 0.2499992
v -0.7499995 4 -8.397328E-07
v -0.7499995 -2 -8.397328E-07
v 0.7499995 -2 0.1249995
v 0.7499995 4 0.1249995
v -0.7499986 -2 0.1249992
v -0.7499986 4 0.1249992
vn -2.384185E-07 0 1
vn -2.384185E-07 0 1
vn -2.384185E-07 0 1
vn -2.384185E-07 0 1
vn 1 0 0
vn 1 0 0
vn 1 0 0
vn 1 0 0
vn 2.384186E-07 0 -1
vn 2.384186E-07 0 -1
vn 2.384186E-07 0 -1
vn 2.384186E-07 0 -1
vn -1 0 -8.106232E-06
vn -1 0 -8.106232E-06
vn -1 0 -8.106232E-06
vn -1 0 -8.106232E-06
vn 0 1 0
vn 0 1 0
vn 0 1 0
vn 0 1 0
vn 0 -1 0
vn 0 -1 0
vn 0 -1 0
vn 0 -1 0
vn 0 -1 0
vn 0 -1 0
vn 0 -1 0
vn 0 -1 0
vn 2.384186E-07 0 -1
vn 2.384186E-07 0 -1
vn 2.384186E-07 0 -1
vn 2.384186E-07 0 -1
vn -2.384185E-07 0 1
vn -2.384185E-07 0 1
vn -2.384185E-07 0 1
vn -2.384185E-07 0 1
vn 0 1 0
vn 0 1 0
vn 0 1 0
vn 0 1 0
vn -1 0 -2.384186E-07
vn -1 0 -2.384186E-07
vn -1 0 -2.384186E-07
vn -1 0 -2.384186E-07
vn 1 0 7.867813E-06
vn 1 0 7.867813E-06
vn 1 0 7.867813E-06
vn 1 0 7.867813E-06
vn -2.384189E-07 0 1
vn -2.384189E-07 0 1
vn -2.384189E-07 0 1
vn -2.384189E-07 0 1
vt -0.7500005 -2
vt -1 -2
vt -0.7500005 4
vt -1 4
vt -1.875 -2
vt -2.125 -2
vt -1.875 4
vt -2.125 4
vt 1 -2
vt 0.7500005 -2
vt 1 4
vt 0.7500005 4
vt 2.124993 -2
vt 1.874993 -2
vt 2.124993 4
vt 1.874993 4
vt 0.7500004 -1.875
vt 1 -1.875
vt 0.7500005 -2.125
vt 1 -2.125
vt -0.7500005 -2.125
vt -1 -2.125
vt -0.7500004 -1.875
vt -1 -1.875
vt 0.7499995 -2.125001
vt 0.7500015 -1.875001
vt 0.9999995 -2.125001
vt 1.000002 -1.875001
vt -0.7499995 4
vt -0.7499995 -2
vt -0.9999995 4
vt -0.9999995 -2
vt 0.7500014 -2
vt 0.7500014 4
vt 1.000002 -2
vt 1.000002 4
vt -0.7500015 -1.875001
vt -0.7499995 -2.125001
vt -1.000002 -1.875001
vt -0.9999995 -2.125001
vt 1.875001 -2
vt 1.875001 4
vt 2.125001 -2
vt 2.125001 4
vt -1.874995 4
vt -1.874995 -2
vt -2.124995 4
vt -2.124995 -2
vt -0.7499995 -2
vt -0.7499995 4
vt 0.7499986 -2
vt 0.7499986 4
g submesh0
f 1/1/1 2/2/2 3/3/3
f 2/2/2 4/4/4 3/3/3
f 5/5/5 6/6/6 7/7/7
f 6/6/6 8/8/8 7/7/7
f 9/9/9 10/10/10 11/11/11
f 10/10/10 12/12/12 11/11/11
f 13/13/13 14/14/14 15/15/15
f 14/14/14 16/16/16 15/15/15
f 17/17/17 18/18/18 19/19/19
f 18/18/18 20/20/20 19/19/19
f 21/21/21 22/22/22 23/23/23
f 22/22/22 24/24/24 23/23/23
f 25/25/25 26/26/26 27/27/27
f 26/26/26 28/28/28 27/27/27
f 29/29/29 30/30/30 31/31/31
f 30/30/30 32/32/32 31/31/31
f 33/33/33 34/34/34 35/35/35
f 34/34/34 36/36/36 35/35/35
f 37/37/37 38/38/38 39/39/39
f 38/38/38 40/40/40 39/39/39
f 41/41/41 42/42/42 43/43/43
f 42/42/42 44/44/44 43/43/43
f 45/45/45 46/46/46 47/47/47
f 46/46/46 48/48/48 47/47/47
g submesh1
f 49/49/49 50/50/50 51/51/51
f 50/50/50 52/52/52 51/51/51
