v 0.7499996 -3 0.2499999
v 0.9999996 -3 0.2499998
v 0.7500001 5 0.2499999
v 1 5 0.2499995
v 0.9999996 -3 0.2499998
v 0.9999995 -3 -2.384186E-07
v 1 5 0.2499995
v 0.9999997 5 -5.065485E-07
v 0.9999995 -3 -2.384186E-07
v 0.7499995 -3 -1.490116E-07
v 0.9999997 5 -5.065485E-07
v 0.7499997 5 -8.186635E-08
v -1 -3 4.768372E-07
v -1 -3 0.2500005
v -1 5 -9.237883E-07
v -0.9999999 5 0.2499991
v 0.7500001 5 0.2499999
v 1 5 0.2499995
v 0.7499997 5 -8.186635E-08
v 0.9999997 5 -5.065485E-07
v 0.7499995 -3 -1.490116E-07
v 0.9999995 -3 -2.384186E-07
v 0.7499996 -3 0.2499999
v 0.9999996 -3 0.2499998
v -0.7500005 -3 3.874302E-07
v -0.7500004 -3 0.2500004
v -1 -3 4.768372E-07
v -1 -3 0.2500005
v -0.7500003 5 5.588781E-07
v -0.7500005 -3 3.874302E-07
v -1 5 -9.237883E-07
v -1 -3 4.768372E-07
v -0.7500004 -3 0.2500004
v -0.7499999 5 0.2500006
v -1 -3 0.2500005
v -0.9999999 5 0.2499991
v -0.7499999 5 0.2500006
v -0.7500003 5 5.588781E-07
v -0.9999999 5 0.2499991
v -1 5 -9.237883E-07
v 0.7499996 -3 0.2499999
v 0.7500001 5 0.2499999
v 0.7499995 -3 -1.490116E-07
v 0.7499997 5 -8.186635E-08
v -0.7499999 5 0.2500006
v -0.7500004 -3 0.2500004
v -0.7500003 5 5.588781E-07
v -0.7500005 -3 3.874302E-07
v 0.7499996 -3 0.1249999
v 0.749999 5 0.1249999
v -0.7500004 -3 0.1250004
v -0.750001 5 0.1250006
vn 3.576279E-07 -9.313247E-09 1
vn 1.043081E-06 1.210713E-08 1
vn 1.043081E-06 1.210713E-08 1
vn 1.728535E-06 3.352751E-08 1
vn 1 -5.960466E-08 -4.768372E-07
vn 1 -4.097823E-08 -1.072884E-06
vn 1 -4.097823E-08 -1.072884E-06
vn 1 -2.23518E-08 -1.66893E-06
vn -3.576279E-07 -3.351624E-08 -1
vn -1.028178E-06 -1.256152E-08 -1
vn -1.028178E-06 -1.256152E-08 -1
vn -1.698729E-06 8.393196E-09 -1
vn -1 1.490124E-08 4.768372E-07
vn -1 3.725311E-08 1.192093E-06
vn -1 3.725311E-08 1.192093E-06
vn -1 5.960498E-08 1.907349E-06
vn 0 1 0
vn 0 1 0
vn 0 1 0
vn 0 1 0
vn 0 -1 0
vn 0 -1 0
vn 0 -1 0
vn 0 -1 0
vn 0 -1 0
vn 0 -1 0
vn 0 -1 0
vn 0 -1 0
vn 5.930664E-06 2.143086E-08 -1
vn 2.786518E-06 -7.682366E-08 -1
vn 2.786518E-06 -7.682366E-08 -1
vn -3.576279E-07 -1.750782E-07 -1
vn 3.576279E-07 -2.235176E-08 1
vn -2.801418E-06 7.636862E-08 1
vn -2.801418E-06 7.636862E-08 1
vn -5.960464E-06 1.75089E-07 1
vn 0 1 0
vn 0 1 0
vn 0 1 0
vn 0 1 0
vn -1 5.960464E-08 4.768372E-07
vn -1 4.097819E-08 1.072884E-06
vn -1 4.097819E-08 1.072884E-06
vn -1 2.235173E-08 1.66893E-06
vn 1 -5.960461E-08 -1.66893E-06
vn 1 -4.097817E-08 -1.072884E-06
vn 1 -4.097817E-08 -1.072884E-06
vn 1 -2.235173E-08 -4.768372E-07
vn 3.576279E-07 -8.381877E-09 1
vn 3.948808E-07 -1.536679E-08 1
vn 3.948808E-07 -1.536679E-08 1
vn 4.321337E-07 -2.235171E-08 1
vt -0.7499996 -3
vt -0.9999996 -3
vt -0.7500001 5
vt -1 5
vt -1.875 -3
vt -2.125 -3
vt -1.875 5
vt -2.125 5
vt 0.9999995 -3
vt 0.7499995 -3
vt 0.9999997 5
vt 0.7499997 5
vt 2.125 -3
vt 1.875 -3
vt 2.125001 5
vt 1.875001 5
vt 0.7500001 -1.875
vt 1 -1.875
vt 0.7499997 -2.125
vt 0.9999997 -2.125
vt -0.7499995 -2.125
vt -0.9999995 -2.125
vt -0.7499996 -1.875
vt -0.9999996 -1.875
vt 0.7500005 -2.125
vt 0.7500004 -1.875
vt 1 -2.125
vt 1 -1.875
vt -0.7500003 5
vt -0.7500005 -3
vt -1 5
vt -1 -3
vt 0.7500005 -3
vt 0.75 5
vt 1 -3
vt 0.9999999 5
vt -0.7499999 -1.874999
vt -0.7500003 -2.125
vt -0.9999999 -1.875001
vt -1 -2.125001
vt 1.875 -3
vt 1.875 5
vt 2.125 -3
vt 2.125 5
vt -1.875001 5
vt -1.875001 -3
vt -2.125001 5
vt -2.125001 -3
vt -0.7499995 -3
vt -0.7499989 5
vt 0.7500005 -3
vt 0.7500011 5
g submesh0
f 1/1/1 2/2/2 3/3/3
f 2/2/2 4/4/4 3/3/3
f 5/5/5 6/6/6 7/7/7
f 6/6/6 8/8/8 7/7/7
f 9/9/9 10/10/10 11/11/11
f 10/10/10 12/12/12 11/11/11
f 13/13/13 14/14/14 15/15/15
f 14/14/14 16/16/16 15/15/15
f 17/17/17 18/18/18 19/19/19
f 18/18/18 20/20/20 19/19/19
f 21/21/21 22/22/22 23/23/23
f 22/22/22 24/24/24 23/23/23
f 25/25/25 26/26/26 27/27/27
f 26/26/26 28/28/28 27/27/27
f 29/29/29 30/30/30 31/31/31
f 30/30/30 32/32/32 31/31/31
f 33/33/33 34/34/34 35/35/35
f 34/34/34 36/36/36 35/35/35
f 37/37/37 38/38/38 39/39/39
f 38/38/38 40/40/40 39/39/39
f 41/41/41 42/42/42 43/43/43
f 42/42/42 44/44/44 43/43/43
f 45/45/45 46/46/46 47/47/47
f 46/46/46 48/48/48 47/47/47
g submesh1
f 49/49/49 50/50/50 51/51/51
f 50/50/50 52/52/52 51/51/51
