v 0.7500014 -14 0.2499997
v 1.000001 -14 0.2500007
v 0.7500014 10 0.2499997
v 1.000001 10 0.2500007
v 1.000001 -14 0.2500007
v 1 -14 7.152557E-07
v 1.000001 10 0.2500007
v 1 10 7.152557E-07
v 1 -14 7.152557E-07
v 0.7500014 -14 -2.98063E-07
v 1 10 7.152557E-07
v 0.7500014 10 -2.98063E-07
v -1 -14 2.384584E-07
v -0.9999996 -14 0.2500002
v -1 10 2.384584E-07
v -0.9999996 10 0.2500002
v 0.7500014 10 0.2499997
v 1.000001 10 0.2500007
v 0.7500014 10 -2.98063E-07
v 1 10 7.152557E-07
v 0.7500014 -14 -2.98063E-07
v 1 -14 7.152557E-07
v 0.7500014 -14 0.2499997
v 1.000001 -14 0.2500007
v -0.7500005 -14 1.251737E-06
v -0.7499996 -14 0.2500013
v -1 -14 2.384584E-07
v -0.9999996 -14 0.2500002
v -0.7500005 10 1.251737E-06
v -0.7500005 -14 1.251737E-06
v -1 10 2.384584E-07
v -1 -14 2.384584E-07
v -0.7499996 -14 0.2500013
v -0.7499996 10 0.2500013
v -0.9999996 -14 0.2500002
v -0.9999996 10 0.2500002
v -0.7499996 10 0.2500013
v -0.7500005 10 1.251737E-06
v -0.9999996 10 0.2500002
v -1 10 2.384584E-07
v 0.7500014 -14 0.2499997
v 0.7500014 10 0.2499997
v 0.7500014 -14 -2.98063E-07
v 0.7500014 10 -2.98063E-07
v -0.7499996 10 0.2500013
v -0.7499996 -14 0.2500013
v -0.7500005 10 1.251737E-06
v -0.7500005 -14 1.251737E-06
v 0.750001 -14 0.1249997
v 0.750001 10 0.1249997
v -0.7500001 -14 0.1250013
v -0.7500001 10 0.1250013
vn -4.053115E-06 0 1
vn -4.053115E-06 0 1
vn -4.053115E-06 0 1
vn -4.053115E-06 0 1
vn 1 0 -3.814697E-06
vn 1 0 -3.814697E-06
vn 1 0 -3.814697E-06
vn 1 0 -3.814697E-06
vn 4.05329E-06 0 -1
vn 4.05329E-06 0 -1
vn 4.05329E-06 0 -1
vn 4.05329E-06 0 -1
vn -1 0 3.576279E-06
vn -1 0 3.576279E-06
vn -1 0 3.576279E-06
vn -1 0 3.576279E-06
vn 0 1 0
vn 0 1 0
vn 0 1 0
vn 0 1 0
vn 0 -1 0
vn 0 -1 0
vn 0 -1 0
vn 0 -1 0
vn 0 -1 0
vn 0 -1 0
vn 0 -1 0
vn 0 -1 0
vn 4.053116E-06 0 -1
vn 4.053116E-06 0 -1
vn 4.053116E-06 0 -1
vn 4.053116E-06 0 -1
vn -4.053116E-06 0 1
vn -4.053116E-06 0 1
vn -4.053116E-06 0 1
vn -4.053116E-06 0 1
vn 0 1 0
vn 0 1 0
vn 0 1 0
vn 0 1 0
vn -1 0 -2.384186E-07
vn -1 0 -2.384186E-07
vn -1 0 -2.384186E-07
vn -1 0 -2.384186E-07
vn 1 0 -3.576279E-06
vn 1 0 -3.576279E-06
vn 1 0 -3.576279E-06
vn 1 0 -3.576279E-06
vn 1.033147E-06 0 1
vn 1.033147E-06 0 1
vn 1.033147E-06 0 1
vn 1.033147E-06 0 1
vt -0.7500024 -14
vt -1.000003 -14
vt -0.7500024 10
vt -1.000003 10
vt -1.874995 -14
vt -2.124995 -14
vt -1.874995 10
vt -2.124995 10
vt 1 -14
vt 0.7500014 -14
vt 1 10
vt 0.7500014 10
vt 2.125003 -14
vt 1.875003 -14
vt 2.125003 10
vt 1.875003 10
vt 0.7500014 -1.875
vt 1.000001 -1.874999
vt 0.7500014 -2.125
vt 1 -2.124999
vt -0.7500014 -2.125
vt -1 -2.124999
vt -0.7500014 -1.875
vt -1.000001 -1.874999
vt 0.7500005 -2.124999
vt 0.7499996 -1.874999
vt 1 -2.125
vt 0.9999996 -1.875
vt -0.7500005 10
vt -0.7500005 -14
vt -1 10
vt -1 -14
vt 0.7499986 -14
vt 0.7499986 10
vt 0.9999986 -14
vt 0.9999986 10
vt -0.7499996 -1.874999
vt -0.7500005 -2.124999
vt -0.9999996 -1.875
vt -1 -2.125
vt 1.875 -14
vt 1.875 10
vt 2.125 -14
vt 2.125 10
vt -1.875001 10
vt -1.875001 -14
vt -2.125001 10
vt -2.125001 -14
vt -0.7500008 -14
vt -0.7500008 10
vt 0.7500002 -14
vt 0.7500002 10
g submesh0
f 1/1/1 2/2/2 3/3/3
f 2/2/2 4/4/4 3/3/3
f 5/5/5 6/6/6 7/7/7
f 6/6/6 8/8/8 7/7/7
f 9/9/9 10/10/10 11/11/11
f 10/10/10 12/12/12 11/11/11
f 13/13/13 14/14/14 15/15/15
f 14/14/14 16/16/16 15/15/15
f 17/17/17 18/18/18 19/19/19
f 18/18/18 20/20/20 19/19/19
f 21/21/21 22/22/22 23/23/23
f 22/22/22 24/24/24 23/23/23
f 25/25/25 26/26/26 27/27/27
f 26/26/26 28/28/28 27/27/27
f 29/29/29 30/30/30 31/31/31
f 30/30/30 32/32/32 31/31/31
f 33/33/33 34/34/34 35/35/35
f 34/34/34 36/36/36 35/35/35
f 37/37/37 38/38/38 39/39/39
f 38/38/38 40/40/40 39/39/39
f 41/41/41 42/42/42 43/43/43
f 42/42/42 44/44/44 43/43/43
f 45/45/45 46/46/46 47/47/47
f 46/46/46 48/48/48 47/47/47
g submesh1
f 49/49/49 50/50/50 51/51/51
f 50/50/50 52/52/52 51/51/51
