v 0.6807721 -24.00005 -0.003400266
v 0.6825632 23.99995 0.003399433
v 0.4535034 -24.00007 0.4497476
v 0.455289 23.99993 0.4593457
v 0.4535034 -24.00007 0.4497476
v 0.455289 23.99993 0.4593457
v -0.001044991 -24.00004 0.6770192
v 0.0007406722 23.99996 0.6866199
v -0.001044991 -24.00004 0.6770192
v 0.0007406722 23.99996 0.6866199
v -0.455588 -23.99998 0.4497478
v -0.4538023 24.00002 0.4593458
v -0.455588 -23.99998 0.4497478
v -0.4538023 24.00002 0.4593458
v -0.6828622 -23.99993 -0.00340004
v -0.6810766 24.00007 0.003399658
v -0.6828622 -23.99993 -0.00340004
v -0.6810766 24.00007 0.003399658
v -0.4555881 -23.99991 -0.4593436
v -0.4538024 24.00009 -0.4497428
v -0.4555881 -23.99991 -0.4593436
v -0.4538024 24.00009 -0.4497428
v -0.001045196 -23.99994 -0.6866179
v 0.0007459164 24.00006 -0.6770171
v -0.001045196 -23.99994 -0.6866179
v 0.0007459164 24.00006 -0.6770171
v 0.4535033 -23.99999 -0.4593437
v 0.4552889 24.00001 -0.4497429
v 0.4535033 -23.99999 -0.4593437
v 0.4552889 24.00001 -0.4497429
v 0.6807721 -24.00005 -0.003400266
v 0.6825632 23.99995 0.003399433
v 0.4535034 -24.00007 0.4497476
v -0.001045093 -23.99999 -0.003400153
v 0.6807721 -24.00005 -0.003400266
v -0.001044991 -24.00004 0.6770192
v -0.001045093 -23.99999 -0.003400153
v 0.4535034 -24.00007 0.4497476
v -0.455588 -23.99998 0.4497478
v -0.6828622 -23.99993 -0.00340004
v -0.4555881 -23.99991 -0.4593436
v -0.001045196 -23.99994 -0.6866179
v 0.4535033 -23.99999 -0.4593437
v 0.6825632 23.99995 0.003399433
v 0.0007460189 24.00001 0.003399546
v 0.455289 23.99993 0.4593457
v 0.0007406722 23.99996 0.6866199
v -0.4538023 24.00002 0.4593458
v -0.6810766 24.00007 0.003399658
v -0.4538024 24.00009 -0.4497428
v 0.0007459164 24.00006 -0.6770171
v 0.4552889 24.00001 -0.4497429
vn 0.9999998 -3.009428E-05 0.0006114938
vn 0.9999998 -4.447042E-05 -0.0006208112
vn 0.7071053 -0.0001608379 0.7071083
vn 0.7075397 -0.000167641 0.7066736
vn 0.7071053 -0.0001608379 0.7071083
vn 0.7075397 -0.000167641 0.7066736
vn -1.06624E-06 -0.0002000018 1
vn -1.066241E-06 -0.0002000018 1
vn -1.06624E-06 -0.0002000018 1
vn -1.066241E-06 -0.0002000018 1
vn -0.7066706 -0.0001152043 0.7075427
vn -0.7071068 -0.000108234 0.7071068
vn -0.7066706 -0.0001152043 0.7075427
vn -0.7071068 -0.000108234 0.7071068
vn -0.9999998 2.981064E-05 0.0006144171
vn -0.9999998 4.45986E-05 -0.0006170821
vn -0.9999998 2.981064E-05 0.0006144171
vn -0.9999998 4.45986E-05 -0.0006170821
vn -0.7071058 0.0001608775 -0.7071078
vn -0.7066691 0.0001678225 -0.7075441
vn -0.7071058 0.0001608775 -0.7071078
vn -0.7066691 0.0001678225 -0.7075441
vn -1.366121E-06 0.0002000017 -1
vn 1.032921E-06 0.0002000302 -1
vn -1.366121E-06 0.0002000017 -1
vn 1.032921E-06 0.0002000302 -1
vn 0.7075438 0.0001150108 -0.7066695
vn 0.7071072 0.0001082067 -0.7071064
vn 0.7075438 0.0001150108 -0.7066695
vn 0.7071072 0.0001082067 -0.7071064
vn 0.9999998 -3.009428E-05 0.0006114938
vn 0.9999998 -4.447042E-05 -0.0006208112
vn -8.951838E-05 -1 -8.277841E-05
vn -8.951838E-05 -1 -8.277841E-05
vn -8.951838E-05 -1 -8.277841E-05
vn -9.37941E-05 -1 -7.848947E-05
vn -9.37941E-05 -1 -7.848947E-05
vn -9.37941E-05 -1 -7.848947E-05
vn -9.083717E-05 -1 -7.848947E-05
vn -9.231583E-05 -1 -7.997269E-05
vn -9.231583E-05 -1 -7.948306E-05
vn -9.083464E-05 -1 -8.09597E-05
vn -8.960049E-05 -1 -8.09597E-05
vn 9.231582E-05 1 7.948259E-05
vn 9.231582E-05 1 7.948259E-05
vn 9.231582E-05 1 7.948259E-05
vn 9.083375E-05 1 8.096011E-05
vn 8.960137E-05 1 8.09601E-05
vn 8.951766E-05 1 8.087664E-05
vn 8.951766E-05 1 7.857097E-05
vn 8.959859E-05 1 7.848978E-05
vn 9.083653E-05 1 7.848978E-05
vt -0.3082361 -23.99999
vt -0.302961 24.00001
vt 0.1987097 -24.00001
vt 0.2064887 23.99999
vt -0.2044953 -23.99995
vt -0.2018001 24.00005
vt 0.3037041 -23.99993
vt 0.3064005 24.00008
vt -0.3018374 -23.99994
vt -0.3077282 24.00006
vt 0.206357 -23.99989
vt 0.2004675 24.00011
vt -0.1977693 -23.99995
vt -0.2071493 24.00005
vt 0.3091789 -23.99989
vt 0.3023003 24.00011
vt -0.301594 -23.99999
vt -0.3068829 24.00001
vt 0.2078547 -23.99997
vt 0.2000589 24.00003
vt -0.2020626 -24.00003
vt -0.2047591 23.99997
vt 0.3061331 -24.00006
vt 0.3034415 23.99995
vt -0.3079996 -24.00003
vt -0.302104 23.99997
vt 0.200201 -24.00009
vt 0.2060917 23.99991
vt -0.2087906 -24.00003
vt -0.1994016 23.99997
vt 0.3006557 -24.00009
vt 0.3075403 23.99991
vt -0.4556518 0.4517343
vt -0.001103347 -0.001413472
vt -0.6829205 -0.001413585
vt -0.001206072 0.6789029
vt -0.001205964 -0.001516407
vt -0.4557544 0.4516314
vt 0.4534079 0.4516315
vt 0.6806467 -0.001480696
vt 0.4533725 -0.457436
vt -0.001134829 -0.6846748
vt -0.4556537 -0.4574007
vt 0.6803476 0.00149185
vt -0.001469562 0.001491963
vt 0.4530735 0.4574381
vt -0.001439334 0.6846769
vt -0.4559528 0.4574028
vt -0.683225 0.001458618
vt -0.4559509 -0.4516285
vt -0.001404456 -0.6789008
vt 0.4531088 -0.4516267
g submesh0
f 1/1/1 2/2/2 3/3/3
f 2/2/2 4/4/4 3/3/3
f 5/5/5 6/6/6 7/7/7
f 6/6/6 8/8/8 7/7/7
f 9/9/9 10/10/10 11/11/11
f 10/10/10 12/12/12 11/11/11
f 13/13/13 14/14/14 15/15/15
f 14/14/14 16/16/16 15/15/15
f 17/17/17 18/18/18 19/19/19
f 18/18/18 20/20/20 19/19/19
f 21/21/21 22/22/22 23/23/23
f 22/22/22 24/24/24 23/23/23
f 25/25/25 26/26/26 27/27/27
f 26/26/26 28/28/28 27/27/27
f 29/29/29 30/30/30 31/31/31
f 30/30/30 32/32/32 31/31/31
f 33/33/33 34/34/34 35/35/35
f 36/36/36 37/37/37 38/38/38
f 39/39/39 37/37/37 36/36/36
f 40/40/40 37/37/37 39/39/39
f 41/41/41 37/37/37 40/40/40
f 42/42/42 37/37/37 41/41/41
f 43/43/43 34/34/34 42/42/42
f 35/35/35 34/34/34 43/43/43
f 44/44/44 45/45/45 46/46/46
f 46/46/46 45/45/45 47/47/47
f 47/47/47 45/45/45 48/48/48
f 48/48/48 45/45/45 49/49/49
f 49/49/49 45/45/45 50/50/50
f 50/50/50 45/45/45 51/51/51
f 51/51/51 45/45/45 52/52/52
f 52/52/52 45/45/45 44/44/44
