v 0 0 0
v 8 0 0
v 0 4 0
v 8 4 0
v 12 0 0
v 10 2 -6
v 12 2 0
v 10 4 -6
v 8 2 -6
v 0 2 -6
v 8 4 -6
v 0 4 -6
v 0 2 -6
v 0 0 0
v 0 4 -6
v 0 4 0
v 0 2 -6
v 8 2 -6
v 0 0 0
v 8 0 0
v 12 0 0
v 10 2 -6
v 12 2 0
v 12 0 0
v 10 2 -6
v 10 4 -6
v 8 4 -6
v 8 4 0
v 8 12 -6
v 8 12 0
v 14 12 -6
v 8 12 -6
v 8 12 0
v 14 10 0
v 12 2 0
v 10 4 -6
v 14 10 0
v 14 12 -6
v 8 14 -6
v 8 14 0
v 10 14 -6
v 8 14 -6
v 8 14 0
v 10 14 0
v 40 18 0
v 38 18 -6
v 40 20 0
v 38 20 -6
v 14 10 0
v 14 12 -6
v 20 10 0
v 20 12 -6
v 20 14 0
v 20 10 0
v 20 12 -6
v 20 14 -6
v 20 10 0
v 20 12 -6
v 30 16 0
v 30 18 -6
v 30 20 0
v 30 16 0
v 30 18 -6
v 30 20 -6
v 30 16 0
v 30 18 -6
v 32 16 0
v 32 18 -6
v 32 20 0
v 32 16 0
v 32 18 -6
v 32 20 -6
v 32 20 0
v 32 16 18
v 32 20 18
v 32 16 0
v 32 16 32
v 32 20 32
v 42 18 18
v 40 18 0
v 40 20 0
v 42 20 18
v 42 18 32
v 42 18 18
v 42 20 18
v 42 20 32
v 32 16 54
v 32 20 54
v 32 16 56
v 32 20 56
v 42 18 54
v 42 18 32
v 42 20 32
v 42 20 54
v 42 18 56
v 42 20 56
v 42 36 54
v 42 36 56
v 42 36 32
v 32 36 32
v 32 36 54
v 32 36 56
v 32 38 54
v 32 38 56
v 42 38 56
v 42 38 54
v 32 16 0
v 38 18 -6
v 39 17 0
v 32 18 -6
v 39 17 0
v 38 18 -6
v 40 18 0
v 32 16 56
v 40 17 56
v 32 20 56
v 40 20 56
v 42 18 56
v 42 20 56
v 38 20 -6
v 38 18 -6
v 42 36 32
v 40 20 32
v 40 36 32
v 42 20 32
v 32 20 32
v 32 36 32
v 40 36 56
v 32 36 56
v 42 36 56
v 40 17 18
v 39 17 0
v 40 18 0
v 42 18 18
v 32 16 18
v 39 17 0
v 40 17 18
v 32 16 0
v 42 18 32
v 40 17 32
v 40 17 18
v 42 18 18
v 32 16 32
v 40 17 18
v 40 17 32
v 32 16 18
v 42 18 54
v 40 17 54
v 40 17 32
v 42 18 32
v 40 17 54
v 32 16 54
v 32 16 32
v 40 17 32
v 40 17 56
v 42 18 56
v 32 16 56
v 40 17 56
v 42 38 54
v 40 36 54
v 40 38 54
v 42 36 54
v 32 36 54
v 32 38 54
v 40 38 56
v 32 38 56
v 42 38 56
v 42 38 32
v 40 38 32
v 40 36 32
v 40 36 54
v 40 38 32
v 40 38 54
v 42 38 32
v 40 36 54
v 42 36 54
v 40 38 54
v 42 38 54
v 0 4 0
v 8 4 0
v 0 4 -6
v 8 4 -6
v 8 14 -6
v 8 14 0
v 10 14 -6
v 10 14 0
v 20 14 -6
v 20 14 0
v 20 14 -6
v 20 14 0
v 30 20 -6
v 30 20 0
v 30 20 -6
v 30 20 0
v 32 20 -6
v 32 20 0
v 38 20 -6
v 39 20 0
v 40 20 0
v 42 20 18
v 40 20 18
v 32 20 18
v 40 20 32
v 42 20 32
v 32 20 32
v 42 38 32
v 40 38 32
v 40 38 54
v 42 38 54
v 40 36 32
v 32 36 32
v 32 36 54
v 40 36 54
v 40 38 56
v 42 38 56
v 32 38 54
v 32 38 56
vn 0 0 1
vn 0 0 1
vn 0 0 1
vn 0 0 1
vn 0.9486833 0 -0.3162278
vn 0.9486833 0 -0.3162278
vn 0.9486833 0 -0.3162278
vn 0.9486833 0 -0.3162278
vn 0 0 -1
vn 0 0 -1
vn 0 0 -1
vn 0 0 -1
vn -1 0 0
vn -1 0 0
vn -1 0 0
vn -1 0 0
vn 0 -0.9486833 -0.3162278
vn 0 -0.9486833 -0.3162278
vn 0 -0.9486833 -0.3162278
vn 0 -0.9486833 -0.3162278
vn 0 -0.9486833 -0.3162278
vn 0 -0.9486833 -0.3162278
vn 0 0 1
vn 0 0 1
vn 0 0 -1
vn 0 0 -1
vn -1 0 0
vn -1 0 0
vn -1 0 0
vn -1 0 0
vn 0 0 -1
vn 0 0 -1
vn 0 0 1
vn 0 0 1
vn 0.899438 -0.2248595 -0.3747658
vn 0.8920449 -0.3335927 -0.2611039
vn 0.8920449 -0.3335927 -0.2611039
vn 0.8846517 -0.4423259 -0.147442
vn -1 0 0
vn -1 0 0
vn 0 0 -1
vn 0 0 -1
vn 0 0 1
vn 0 0 1
vn 0.9486833 0 -0.3162278
vn 0.9486833 0 -0.3162278
vn 0.9486833 0 -0.3162278
vn 0.9486833 0 -0.3162278
vn 0 -0.9486833 -0.3162278
vn 0 -0.9486833 -0.3162278
vn 0 -0.9486833 -0.3162278
vn 0 -0.9486833 -0.3162278
vn 0 0 1
vn 0 0 1
vn 0 0 -1
vn 0 0 -1
vn 0.4946848 -0.8244746 -0.2748249
vn 0.4946848 -0.8244746 -0.2748249
vn 0.4946848 -0.8244746 -0.2748249
vn 0.4946848 -0.8244746 -0.2748249
vn 0 0 1
vn 0 0 1
vn 0 0 -1
vn 0 0 -1
vn 0 -0.9486833 -0.3162278
vn 0 -0.9486833 -0.3162278
vn 0 -0.9486833 -0.3162278
vn 0 -0.9486833 -0.3162278
vn 0 0 1
vn 0 0 1
vn 0 0 -1
vn 0 0 -1
vn -1 0 0
vn -1 0 0
vn -1 0 0
vn -1 0 0
vn -1 0 0
vn -1 0 0
vn 0.9938837 0 -0.1104315
vn 0.9938837 0 -0.1104315
vn 0.9938837 0 -0.1104315
vn 0.9938837 0 -0.1104315
vn 1 0 0
vn 1 0 0
vn 1 0 0
vn 1 0 0
vn -1 0 0
vn -1 0 0
vn -1 0 0
vn -1 0 0
vn 1 0 0
vn 1 0 0
vn 1 0 0
vn 1 0 0
vn 1 0 0
vn 1 0 0
vn 1 0 0
vn 1 0 0
vn 1 0 0
vn -1 0 0
vn -1 0 0
vn -1 0 0
vn -1 0 0
vn -1 0 0
vn 1 0 0
vn 1 0 0
vn 0.06948616 -0.9607447 -0.2507621
vn 0.06948616 -0.9607447 -0.2507621
vn 0.1389723 -0.9728062 -0.1852964
vn 0 -0.9486833 -0.3162278
vn 0.6882472 -0.6882472 -0.2294157
vn 0.6882472 -0.6882472 -0.2294157
vn 0.6882472 -0.6882472 -0.2294157
vn 0 0 1
vn 0 0 1
vn 0 0 1
vn 0 0 1
vn 0 0 1
vn 0 0 1
vn 0 0 -1
vn 0 0 -1
vn 0 0 -1
vn 0 0 -1
vn 0 0 -1
vn 0 0 -1
vn 0 0 -1
vn 0 0 -1
vn 0 0 1
vn 0 0 1
vn 0 0 1
vn 0.5766122 -0.7999434 -0.0444413
vn 0.7065618 -0.7065618 -0.03925343
vn 0.5766122 -0.7999434 -0.0444413
vn 0.4466625 -0.893325 -0.04962917
vn 0.1327266 -0.9911019 -0.003445328
vn 0.1327266 -0.9911019 -0.003445328
vn 0.1240318 -0.9922543 -0.006890655
vn 0.1414214 -0.9899495 0
vn 0.4472136 -0.8944272 0
vn 0.4472136 -0.8944272 0
vn 0.4472136 -0.8944272 0
vn 0.4472136 -0.8944272 0
vn 0.1240347 -0.9922779 0
vn 0.1240347 -0.9922779 0
vn 0.1240347 -0.9922779 0
vn 0.1240347 -0.9922779 0
vn 0.4472136 -0.8944272 0
vn 0.4472136 -0.8944272 0
vn 0.4472136 -0.8944272 0
vn 0.4472136 -0.8944272 0
vn 0.1240347 -0.9922779 0
vn 0.1240347 -0.9922779 0
vn 0.1240347 -0.9922779 0
vn 0.1240347 -0.9922779 0
vn 0.4472136 -0.8944272 0
vn 0.4472136 -0.8944272 0
vn 0.1240347 -0.9922779 0
vn 0.1240347 -0.9922779 0
vn 0 0 -1
vn 0 0 -1
vn 0 0 -1
vn 0 0 -1
vn 0 0 -1
vn 0 0 -1
vn 0 0 1
vn 0 0 1
vn 0 0 1
vn 0 0 -1
vn 0 0 -1
vn -1 0 0
vn -1 0 0
vn -1 0 0
vn -1 0 0
vn 1 0 0
vn 0 0 1
vn 0 0 1
vn 0 0 1
vn 0 0 1
vn 0 1 0
vn 0 1 0
vn 0 1 0
vn 0 1 0
vn 0 1 0
vn 0 1 0
vn 0 1 0
vn 0 1 0
vn 0 1 0
vn 0 1 0
vn -0.5144957 0.8574929 0
vn -0.5144957 0.8574929 0
vn -0.5144957 0.8574929 0
vn -0.5144957 0.8574929 0
vn 0 1 0
vn 0 1 0
vn 0 1 0
vn 0 1 0
vn 0 1 0
vn 0 1 0
vn 0 1 0
vn 0 1 0
vn 0 1 0
vn 0 1 0
vn 0 1 0
vn 0 1 0
vn 0 1 0
vn 0 1 0
vn 0 1 0
vn 0 1 0
vn 0 1 0
vn 0 1 0
vn 0 1 0
vn 0 1 0
vn 0 1 0
vn 0 1 0
vn 0 1 0
vn 0 1 0
vn 0 1 0
vt 0 0
vt -8 0
vt 0 4
vt -8 4
vt 3.794734 0
vt -2.529822 2
vt 3.794734 2
vt -2.529822 4
vt 8 2
vt 0 2
vt 8 4
vt 0 4
vt 6 2
vt 0 0
vt 6 4
vt 0 4
vt 0 -6.324555
vt -8 -6.324555
vt 0 0
vt -8 0
vt -12 0
vt -10 -6.324555
vt -12 2
vt -12 0
vt 10 2
vt 10 4
vt 6 4
vt 0 4
vt 6 12
vt 0 12
vt 14 12
vt 8 12
vt -8 12
vt -14 10
vt 4.615384 4.439534
vt -1.692308 6.492097
vt 5.384615 12.64979
vt -0.1538461 15.11748
vt 6 14
vt 0 14
vt 10 14
vt 8 14
vt -8 14
vt -10 14
vt 12.64911 18
vt 6.324556 18
vt 12.64911 20
vt 6.324556 20
vt -14 -3.162278
vt -14 -9.486834
vt -20 -3.162278
vt -20 -9.486834
vt -20 14
vt -20 10
vt 20 12
vt 20 14
vt -22.29482 0.4713209
vt -23.32381 -5.768966
vt -33.95672 0.471321
vt -34.98571 -5.768966
vt -30 20
vt -30 16
vt 30 18
vt 30 20
vt -30 -5.059645
vt -30 -11.3842
vt -32 -5.059645
vt -32 -11.3842
vt -32 20
vt -32 16
vt 32 18
vt 32 20
vt 0 20
vt -18 16
vt -18 20
vt 0 16
vt -32 16
vt -32 20
vt 20.29507 18
vt 2.212016 18
vt 2.212016 20
vt 20.29507 20
vt 34.27365 18
vt 20.29507 18
vt 20.29507 20
vt 34.27365 20
vt -54 16
vt -54 20
vt -56 16
vt -56 20
vt 54 18
vt 32 18
vt 32 20
vt 54 20
vt 56 18
vt 56 20
vt 54 36
vt 56 36
vt 32 36
vt -32 36
vt -54 36
vt -56 36
vt -54 38
vt -56 38
vt 56 38
vt 54 38
vt -35.77704 -0.01243877
vt -42.03945 -5.675084
vt -42.4888 0.4729308
vt -36.66862 -6.25846
vt -42.4888 0.4729308
vt -42.03945 -5.675084
vt -43.82973 0.374924
vt -32 16
vt -40 17
vt -32 20
vt -40 20
vt -42 18
vt -42 20
vt 38 20
vt 38 18
vt 42 36
vt 40 20
vt 40 36
vt 42 20
vt 32 20
vt 32 36
vt -40 36
vt -32 36
vt -42 36
vt -43.44414 17.98351
vt -42.51279 -0.01955703
vt -43.80827 -0.02635521
vt -45.67096 17.98108
vt -35.62923 17.95976
vt -42.51279 -0.01955703
vt -43.44414 17.98351
vt -35.62923 -0.03894395
vt -45.67096 31.98007
vt -43.44414 31.98251
vt -43.44414 17.98351
vt -45.67096 17.98108
vt -35.62923 31.95876
vt -43.44414 17.98351
vt -43.44414 31.98251
vt -35.62923 17.95976
vt -45.41398 54
vt -43.21001 54
vt -43.21001 32
vt -45.41398 32
vt -43.21001 54
vt -35.26349 54
vt -35.26349 32
vt -43.21001 32
vt -43.21001 56
vt -45.41398 56
vt -35.26349 56
vt -43.21001 56
vt 42 38
vt 40 36
vt 40 38
vt 42 36
vt 32 36
vt 32 38
vt -40 38
vt -32 38
vt -42 38
vt 42 38
vt 40 38
vt -32 36
vt -54 36
vt -32 38
vt -54 38
vt 32 38
vt -40 36
vt -42 36
vt -40 38
vt -42 38
vt 0 0
vt 8 0
vt 0 -6
vt 8 -6
vt 8 -6
vt 8 0
vt 10 -6
vt 10 0
vt 20 -6
vt 20 0
vt 24.3528 -6
vt 24.3528 0
vt 36.0147 -6
vt 36.0147 0
vt 30 -6
vt 30 0
vt 32 -6
vt 32 0
vt 38 -6
vt 39 0
vt 40 0
vt 42 18
vt 40 18
vt 32 18
vt 40 32
vt 42 32
vt 32 32
vt 42 32
vt 40 32
vt 40 54
vt 42 54
vt 40 32
vt 32 32
vt 32 54
vt 40 54
vt 40 56
vt 42 56
vt 32 54
vt 32 56
g submesh0
f 1/1/1 2/2/2 3/3/3
f 2/2/2 4/4/4 3/3/3
f 5/5/5 6/6/6 7/7/7
f 6/6/6 8/8/8 7/7/7
f 9/9/9 10/10/10 11/11/11
f 10/10/10 12/12/12 11/11/11
f 13/13/13 14/14/14 15/15/15
f 14/14/14 16/16/16 15/15/15
f 17/17/17 18/18/18 19/19/19
f 18/18/18 20/20/20 19/19/19
f 20/20/20 18/18/18 21/21/21
f 18/18/18 22/22/22 21/21/21
f 4/4/4 2/2/2 23/23/23
f 2/2/2 24/24/24 23/23/23
f 9/9/9 11/11/11 25/25/25
f 11/11/11 26/26/26 25/25/25
f 27/27/27 28/28/28 29/29/29
f 28/28/28 30/30/30 29/29/29
f 26/26/26 11/11/11 31/31/31
f 11/11/11 32/32/32 31/31/31
f 4/4/4 23/23/23 33/33/33
f 23/23/23 34/34/34 33/33/33
f 35/35/35 36/36/36 37/37/37
f 36/36/36 38/38/38 37/37/37
f 29/29/29 30/30/30 39/39/39
f 30/30/30 40/40/40 39/39/39
f 31/31/31 32/32/32 41/41/41
f 32/32/32 42/42/42 41/41/41
f 33/33/33 34/34/34 43/43/43
f 34/34/34 44/44/44 43/43/43
f 45/45/45 46/46/46 47/47/47
f 46/46/46 48/48/48 47/47/47
f 49/49/49 50/50/50 51/51/51
f 50/50/50 52/52/52 51/51/51
f 44/44/44 34/34/34 53/53/53
f 34/34/34 54/54/54 53/53/53
f 31/31/31 41/41/41 55/55/55
f 41/41/41 56/56/56 55/55/55
f 57/57/57 58/58/58 59/59/59
f 58/58/58 60/60/60 59/59/59
f 53/53/53 54/54/54 61/61/61
f 54/54/54 62/62/62 61/61/61
f 55/55/55 56/56/56 63/63/63
f 56/56/56 64/64/64 63/63/63
f 65/65/65 66/66/66 67/67/67
f 66/66/66 68/68/68 67/67/67
f 61/61/61 62/62/62 69/69/69
f 62/62/62 70/70/70 69/69/69
f 63/63/63 64/64/64 71/71/71
f 64/64/64 72/72/72 71/71/71
f 73/73/73 74/74/74 75/75/75
f 73/73/73 76/76/76 74/74/74
f 75/75/75 77/77/77 78/78/78
f 75/75/75 74/74/74 77/77/77
f 79/79/79 80/80/80 81/81/81
f 82/82/82 79/79/79 81/81/81
f 83/83/83 84/84/84 85/85/85
f 86/86/86 83/83/83 85/85/85
f 78/78/78 87/87/87 88/88/88
f 78/78/78 77/77/77 87/87/87
f 88/88/88 89/89/89 90/90/90
f 88/88/88 87/87/87 89/89/89
f 91/91/91 92/92/92 93/93/93
f 94/94/94 91/91/91 93/93/93
f 95/95/95 91/91/91 94/94/94
f 96/96/96 95/95/95 94/94/94
f 96/96/96 94/94/94 97/97/97
f 98/98/98 96/96/96 97/97/97
f 94/94/94 93/93/93 99/99/99
f 97/97/97 94/94/94 99/99/99
f 100/100/100 88/88/88 101/101/101
f 100/100/100 78/78/78 88/88/88
f 101/101/101 90/90/90 102/102/102
f 101/101/101 88/88/88 90/90/90
f 101/101/101 102/102/102 103/103/103
f 102/102/102 104/104/104 103/103/103
f 98/98/98 97/97/97 105/105/105
f 97/97/97 106/106/106 105/105/105
f 107/107/107 108/108/108 109/109/109
f 107/107/107 110/110/110 108/108/108
f 111/111/111 112/112/112 113/113/113
f 114/114/114 115/115/115 116/116/116
f 115/115/115 117/117/117 116/116/116
f 115/115/115 118/118/118 117/117/117
f 118/118/118 119/119/119 117/117/117
f 120/120/120 71/71/71 72/72/72
f 120/120/120 121/121/121 71/71/71
f 122/122/122 123/123/123 124/124/124
f 122/122/122 125/125/125 123/123/123
f 124/124/124 126/126/126 127/127/127
f 124/124/124 123/123/123 126/126/126
f 116/116/116 117/117/117 128/128/128
f 129/129/129 116/116/116 128/128/128
f 117/117/117 119/119/119 130/130/130
f 128/128/128 117/117/117 130/130/130
f 131/131/131 132/132/132 133/133/133
f 131/131/131 133/133/133 134/134/134
f 135/135/135 136/136/136 137/137/137
f 135/135/135 138/138/138 136/136/136
f 139/139/139 140/140/140 141/141/141
f 139/139/139 141/141/141 142/142/142
f 143/143/143 144/144/144 145/145/145
f 143/143/143 146/146/146 144/144/144
f 147/147/147 148/148/148 149/149/149
f 147/147/147 149/149/149 150/150/150
f 151/151/151 152/152/152 153/153/153
f 151/151/151 153/153/153 154/154/154
f 155/155/155 147/147/147 156/156/156
f 155/155/155 148/148/148 147/147/147
f 157/157/157 151/151/151 158/158/158
f 157/157/157 152/152/152 151/151/151
f 159/159/159 160/160/160 161/161/161
f 159/159/159 162/162/162 160/160/160
f 161/161/161 163/163/163 164/164/164
f 161/161/161 160/160/160 163/163/163
f 129/129/129 128/128/128 165/165/165
f 166/166/166 129/129/129 165/165/165
f 128/128/128 130/130/130 167/167/167
f 165/165/165 128/128/128 167/167/167
f 122/122/122 124/124/124 168/168/168
f 124/124/124 169/169/169 168/168/168
f 170/170/170 171/171/171 172/172/172
f 171/171/171 173/173/173 172/172/172
f 97/97/97 99/99/99 106/106/106
f 99/99/99 174/174/174 106/106/106
f 175/175/175 176/176/176 177/177/177
f 176/176/176 178/178/178 177/177/177
g submesh1
f 179/179/179 180/180/180 181/181/181
f 180/180/180 182/182/182 181/181/181
f 183/183/183 184/184/184 185/185/185
f 184/184/184 186/186/186 185/185/185
f 185/185/185 186/186/186 187/187/187
f 186/186/186 188/188/188 187/187/187
f 189/189/189 190/190/190 191/191/191
f 190/190/190 192/192/192 191/191/191
f 193/193/193 194/194/194 195/195/195
f 194/194/194 196/196/196 195/195/195
f 197/197/197 195/195/195 196/196/196
f 198/198/198 197/197/197 196/196/196
f 199/199/199 197/197/197 198/198/198
f 200/200/200 199/199/199 201/201/201
f 199/199/199 198/198/198 201/201/201
f 198/198/198 196/196/196 202/202/202
f 201/201/201 198/198/198 202/202/202
f 200/200/200 201/201/201 203/203/203
f 204/204/204 200/200/200 203/203/203
f 201/201/201 202/202/202 205/205/205
f 203/203/203 201/201/201 205/205/205
f 206/206/206 207/207/207 208/208/208
f 209/209/209 206/206/206 208/208/208
f 210/210/210 211/211/211 212/212/212
f 213/213/213 210/210/210 212/212/212
f 209/209/209 208/208/208 214/214/214
f 215/215/215 209/209/209 214/214/214
f 208/208/208 216/216/216 217/217/217
f 214/214/214 208/208/208 217/217/217
