v 0 0 0
v 0 16 0
v -0.2679492 0 1
v -0.2679492 16 1
v -0.2679492 0 1
v -0.2679492 16 1
v -1 0 1.732051
v -1 16 1.732051
v -1 0 1.732051
v -1 16 1.732051
v -2 0 2
v -2 16 2
v -2 0 2
v -2 16 2
v -3 0 1.732051
v -3 16 1.732051
v -3 0 1.732051
v -3 16 1.732051
v -3.732051 0 1
v -3.732051 16 1
v -3.732051 0 1
v -3.732051 16 1
v -4 0 -1.748456E-07
v -4 16 -1.748456E-07
v -4 0 -1.748456E-07
v -4 16 -1.748456E-07
v -3.732051 0 -0.9999999
v -3.732051 16 -0.9999999
v -3.732051 0 -0.9999999
v -3.732051 16 -0.9999999
v -3 0 -1.732051
v -3 16 -1.732051
v -3 0 -1.732051
v -3 16 -1.732051
v -2 0 -2
v -2 16 -2
v -2 0 -2
v -2 16 -2
v -1 0 -1.732051
v -1 16 -1.732051
v -1 0 -1.732051
v -1 16 -1.732051
v -0.2679493 0 -1
v -0.2679493 16 -1
v -0.2679493 0 -1
v -0.2679493 16 -1
v 0 0 0
v 0 16 0
v -0.2679492 0 1
v -2 0 0
v 0 0 0
v -1 0 1.732051
v -2 0 2
v -3 0 1.732051
v -3.732051 0 1
v -4 0 -1.748456E-07
v -3.732051 0 -0.9999999
v -3 0 -1.732051
v -2 0 -2
v -1 0 -1.732051
v -0.2679493 0 -1
v -3 16 -1.732051
v -3.732051 16 -0.9999999
v -2.537415 16 -0.9308472
v -2.930828 16 -0.5374146
v -2 16 -2
v -2 16 -1.074829
v -4 16 -1.748456E-07
v -3.074825 16 0
v -3.732051 16 1
v -2.930828 16 0.5374146
v -3 16 1.732051
v -2.537415 16 0.9308472
v -2 16 2
v -2 16 1.074829
v -1 16 1.732051
v -1.462585 16 0.9308472
v -0.2679492 16 1
v -1.069172 16 0.5374146
v 0 16 0
v -0.9251747 16 0
v -0.2679493 16 -1
v -1.069172 16 -0.5374146
v -1 16 -1.732051
v -1.462585 16 -0.9308472
v -1.338058 18.75 0
v -2 18.75 0
v -1.426743 18.75 0.3309937
v -1.669029 18.75 0.5732422
v -2 18.75 0.6619263
v -2.330971 18.75 0.5732422
v -2.573257 18.75 0.3309937
v -2.661942 18.75 0
v -2.573257 18.75 -0.3309937
v -2.330971 18.75 -0.5732422
v -2 18.75 -0.6619263
v -1.669029 18.75 -0.5732422
v -1.426743 18.75 -0.3309937
v -2.537415 16 -0.9308472
v -2.930828 16 -0.5374146
v -2.537415 18.5 -0.9308472
v -2.930828 18.5 -0.5374146
v -2 16 -1.074829
v -2.537415 16 -0.9308472
v -2 18.5 -1.074829
v -2.537415 18.5 -0.9308472
v -2.930828 16 -0.5374146
v -3.074825 16 0
v -2.930828 18.5 -0.5374146
v -3.074825 18.5 0
v -3.074825 16 0
v -2.930828 16 0.5374146
v -3.074825 18.5 0
v -2.930828 18.5 0.5374146
v -2.930828 16 0.5374146
v -2.537415 16 0.9308472
v -2.930828 18.5 0.5374146
v -2.537415 18.5 0.9308472
v -2.537415 16 0.9308472
v -2 16 1.074829
v -2.537415 18.5 0.9308472
v -2 18.5 1.074829
v -2 16 1.074829
v -1.462585 16 0.9308472
v -2 18.5 1.074829
v -1.462585 18.5 0.9308472
v -1.462585 16 0.9308472
v -1.069172 16 0.5374146
v -1.462585 18.5 0.9308472
v -1.069172 18.5 0.5374146
v -1.069172 16 0.5374146
v -0.9251747 16 0
v -1.069172 18.5 0.5374146
v -0.9251747 18.5 0
v -0.9251747 16 0
v -1.069172 16 -0.5374146
v -0.9251747 18.5 0
v -1.069172 18.5 -0.5374146
v -1.069172 16 -0.5374146
v -1.462585 16 -0.9308472
v -1.069172 18.5 -0.5374146
v -1.462585 18.5 -0.9308472
v -1.462585 16 -0.9308472
v -2 16 -1.074829
v -1.462585 18.5 -0.9308472
v -2 18.5 -1.074829
v -2.537415 18.5 -0.9308472
v -2.930828 18.5 -0.5374146
v -2.330971 18.75 -0.5732422
v -2.573257 18.75 -0.3309937
v -2 18.5 -1.074829
v -2.537415 18.5 -0.9308472
v -2 18.75 -0.6619263
v -2.330971 18.75 -0.5732422
v -2.930828 18.5 -0.5374146
v -3.074825 18.5 0
v -2.573257 18.75 -0.3309937
v -2.661942 18.75 0
v -3.074825 18.5 0
v -2.930828 18.5 0.5374146
v -2.661942 18.75 0
v -2.573257 18.75 0.3309937
v -2.930828 18.5 0.5374146
v -2.537415 18.5 0.9308472
v -2.573257 18.75 0.3309937
v -2.330971 18.75 0.5732422
v -2.537415 18.5 0.9308472
v -2 18.5 1.074829
v -2.330971 18.75 0.5732422
v -2 18.75 0.6619263
v -2 18.5 1.074829
v -1.462585 18.5 0.9308472
v -2 18.75 0.6619263
v -1.669029 18.75 0.5732422
v -1.462585 18.5 0.9308472
v -1.069172 18.5 0.5374146
v -1.669029 18.75 0.5732422
v -1.426743 18.75 0.3309937
v -1.069172 18.5 0.5374146
v -0.9251747 18.5 0
v -1.426743 18.75 0.3309937
v -1.338058 18.75 0
v -0.9251747 18.5 0
v -1.069172 18.5 -0.5374146
v -1.338058 18.75 0
v -1.426743 18.75 -0.3309937
v -1.069172 18.5 -0.5374146
v -1.462585 18.5 -0.9308472
v -1.426743 18.75 -0.3309937
v -1.669029 18.75 -0.5732422
v -1.462585 18.5 -0.9308472
v -2 18.5 -1.074829
v -1.669029 18.75 -0.5732422
v -2 18.75 -0.6619263
vn 0.6947466 -0.7192546 -1.071773E-08
vn 0.6947466 0.7192546 -1.071773E-08
vn 0.6016682 -0.7192546 0.3473733
vn 0.6016682 0.7192546 0.3473733
vn 0.6016682 -0.7192546 0.3473733
vn 0.6016682 0.7192546 0.3473733
vn 0.3473733 -0.7192546 0.6016682
vn 0.3473733 0.7192546 0.6016682
vn 0.3473733 -0.7192546 0.6016682
vn 0.3473733 0.7192546 0.6016682
vn -3.215319E-08 -0.7192546 0.6947466
vn -3.215319E-08 0.7192546 0.6947466
vn -3.215319E-08 -0.7192546 0.6947466
vn -3.215319E-08 0.7192546 0.6947466
vn -0.3473732 -0.7192546 0.6016682
vn -0.3473732 0.7192546 0.6016682
vn -0.3473732 -0.7192546 0.6016682
vn -0.3473732 0.7192546 0.6016682
vn -0.6016682 -0.7192546 0.3473733
vn -0.6016682 0.7192546 0.3473733
vn -0.6016682 -0.7192546 0.3473733
vn -0.6016682 0.7192546 0.3473733
vn -0.6947466 -0.7192546 -3.215319E-08
vn -0.6947466 0.7192546 -3.215319E-08
vn -0.6947466 -0.7192546 -3.215319E-08
vn -0.6947466 0.7192546 -3.215319E-08
vn -0.6016682 -0.7192546 -0.3473733
vn -0.6016682 0.7192546 -0.3473733
vn -0.6016682 -0.7192546 -0.3473733
vn -0.6016682 0.7192546 -0.3473733
vn -0.3473732 -0.7192546 -0.6016682
vn -0.3473732 0.7192546 -0.6016682
vn -0.3473732 -0.7192546 -0.6016682
vn -0.3473732 0.7192546 -0.6016682
vn 0 -0.7192546 -0.6947466
vn 0 0.7192546 -0.6947466
vn 0 -0.7192546 -0.6947466
vn 0 0.7192546 -0.6947466
vn 0.3473732 -0.7192546 -0.6016682
vn 0.3473732 0.7192546 -0.6016682
vn 0.3473732 -0.7192546 -0.6016682
vn 0.3473732 0.7192546 -0.6016682
vn 0.6016682 -0.7192546 -0.3473734
vn 0.6016682 0.7192546 -0.3473734
vn 0.6016682 -0.7192546 -0.3473734
vn 0.6016682 0.7192546 -0.3473734
vn 0.6947466 -0.7192546 -1.071773E-08
vn 0.6947466 0.7192546 -1.071773E-08
vn 0.6016682 -0.7192546 0.3473733
vn 0 -1 0
vn 0.6947466 -0.7192546 -1.071773E-08
vn 0.3473733 -0.7192546 0.6016682
vn -3.215319E-08 -0.7192546 0.6947466
vn -0.3473732 -0.7192546 0.6016682
vn -0.6016682 -0.7192546 0.3473733
vn -0.6947466 -0.7192546 -3.215319E-08
vn -0.6016682 -0.7192546 -0.3473733
vn -0.3473732 -0.7192546 -0.6016682
vn 0 -0.7192546 -0.6947466
vn 0.3473732 -0.7192546 -0.6016682
vn 0.6016682 -0.7192546 -0.3473734
vn -0.3473732 0.7192546 -0.6016682
vn -0.6016682 0.7192546 -0.3473733
vn -0.3473699 0.7192572 -0.601667
vn -0.601674 0.7192537 -0.3473651
vn 0 0.7192546 -0.6947466
vn 0 0.7192517 -0.6947495
vn -0.6947466 0.7192546 -3.215319E-08
vn -0.694747 0.7192541 0
vn -0.6016682 0.7192546 0.3473733
vn -0.601674 0.7192537 0.3473651
vn -0.3473732 0.7192546 0.6016682
vn -0.3473699 0.7192572 0.601667
vn -3.215319E-08 0.7192546 0.6947466
vn 0 0.7192517 0.6947495
vn 0.3473733 0.7192546 0.6016682
vn 0.3473699 0.7192572 0.601667
vn 0.6016682 0.7192546 0.3473733
vn 0.601674 0.7192537 0.3473651
vn 0.6947466 0.7192546 -1.071773E-08
vn 0.694747 0.7192541 0
vn 0.6016682 0.7192546 -0.3473734
vn 0.601674 0.7192537 -0.3473651
vn 0.3473732 0.7192546 -0.6016682
vn 0.3473699 0.7192572 -0.601667
vn 0.2675943 0.9635316 -9.443374E-07
vn 0 1 0
vn 0.2317399 0.9635311 0.1338073
vn 0.1337911 0.9635345 0.2317353
vn -2.922382E-06 0.9635352 0.2675813
vn -0.1337783 0.9635358 0.231737
vn -0.2317393 0.9635329 0.1337953
vn -0.2675943 0.9635316 9.443374E-07
vn -0.2317399 0.9635311 -0.1338073
vn -0.1337911 0.9635345 -0.2317353
vn 2.922382E-06 0.9635352 -0.2675813
vn 0.1337783 0.9635358 -0.231737
vn 0.2317393 0.9635329 -0.1337953
vn -0.3473699 0.7192572 -0.601667
vn -0.601674 0.7192537 -0.3473651
vn -0.4338422 0.4971151 -0.751437
vn -0.7514477 0.4970987 -0.4338426
vn 0 0.7192517 -0.6947495
vn -0.3473699 0.7192572 -0.601667
vn 2.20746E-06 0.4971081 -0.8676887
vn -0.4338422 0.4971151 -0.751437
vn -0.601674 0.7192537 -0.3473651
vn -0.694747 0.7192541 0
vn -0.7514477 0.4970987 -0.4338426
vn -0.8676941 0.4970985 7.12505E-07
vn -0.694747 0.7192541 0
vn -0.601674 0.7192537 0.3473651
vn -0.8676941 0.4970985 7.12505E-07
vn -0.7514532 0.4970952 0.433837
vn -0.601674 0.7192537 0.3473651
vn -0.3473699 0.7192572 0.601667
vn -0.7514532 0.4970952 0.433837
vn -0.4338351 0.4971125 0.7514428
vn -0.3473699 0.7192572 0.601667
vn 0 0.7192517 0.6947495
vn -0.4338351 0.4971125 0.7514428
vn -2.20746E-06 0.4971081 0.8676887
vn 0 0.7192517 0.6947495
vn 0.3473699 0.7192572 0.601667
vn -2.20746E-06 0.4971081 0.8676887
vn 0.4338422 0.4971151 0.751437
vn 0.3473699 0.7192572 0.601667
vn 0.601674 0.7192537 0.3473651
vn 0.4338422 0.4971151 0.751437
vn 0.7514477 0.4970987 0.4338426
vn 0.601674 0.7192537 0.3473651
vn 0.694747 0.7192541 0
vn 0.7514477 0.4970987 0.4338426
vn 0.8676941 0.4970985 -7.12505E-07
vn 0.694747 0.7192541 0
vn 0.601674 0.7192537 -0.3473651
vn 0.8676941 0.4970985 -7.12505E-07
vn 0.7514532 0.4970952 -0.433837
vn 0.601674 0.7192537 -0.3473651
vn 0.3473699 0.7192572 -0.601667
vn 0.7514532 0.4970952 -0.433837
vn 0.4338351 0.4971125 -0.7514428
vn 0.3473699 0.7192572 -0.601667
vn 0 0.7192517 -0.6947495
vn 0.4338351 0.4971125 -0.7514428
vn 2.20746E-06 0.4971081 -0.8676887
vn -0.4338422 0.4971151 -0.751437
vn -0.7514477 0.4970987 -0.4338426
vn -0.1337911 0.9635345 -0.2317353
vn -0.2317399 0.9635311 -0.1338073
vn 2.20746E-06 0.4971081 -0.8676887
vn -0.4338422 0.4971151 -0.751437
vn 2.922382E-06 0.9635352 -0.2675813
vn -0.1337911 0.9635345 -0.2317353
vn -0.7514477 0.4970987 -0.4338426
vn -0.8676941 0.4970985 7.12505E-07
vn -0.2317399 0.9635311 -0.1338073
vn -0.2675943 0.9635316 9.443374E-07
vn -0.8676941 0.4970985 7.12505E-07
vn -0.7514532 0.4970952 0.433837
vn -0.2675943 0.9635316 9.443374E-07
vn -0.2317393 0.9635329 0.1337953
vn -0.7514532 0.4970952 0.433837
vn -0.4338351 0.4971125 0.7514428
vn -0.2317393 0.9635329 0.1337953
vn -0.1337783 0.9635358 0.231737
vn -0.4338351 0.4971125 0.7514428
vn -2.20746E-06 0.4971081 0.8676887
vn -0.1337783 0.9635358 0.231737
vn -2.922382E-06 0.9635352 0.2675813
vn -2.20746E-06 0.4971081 0.8676887
vn 0.4338422 0.4971151 0.751437
vn -2.922382E-06 0.9635352 0.2675813
vn 0.1337911 0.9635345 0.2317353
vn 0.4338422 0.4971151 0.751437
vn 0.7514477 0.4970987 0.4338426
vn 0.1337911 0.9635345 0.2317353
vn 0.2317399 0.9635311 0.1338073
vn 0.7514477 0.4970987 0.4338426
vn 0.8676941 0.4970985 -7.12505E-07
vn 0.2317399 0.9635311 0.1338073
vn 0.2675943 0.9635316 -9.443374E-07
vn 0.8676941 0.4970985 -7.12505E-07
vn 0.7514532 0.4970952 -0.433837
vn 0.2675943 0.9635316 -9.443374E-07
vn 0.2317393 0.9635329 -0.1337953
vn 0.7514532 0.4970952 -0.433837
vn 0.4338351 0.4971125 -0.7514428
vn 0.2317393 0.9635329 -0.1337953
vn 0.1337783 0.9635358 -0.231737
vn 0.4338351 0.4971125 -0.7514428
vn 2.20746E-06 0.4971081 -0.8676887
vn 0.1337783 0.9635358 -0.231737
vn 2.922382E-06 0.9635352 -0.2675813
vt 0 0
vt 0 16
vt 1.035276 0
vt 1.035276 16
vt 0.8965755 0
vt 0.8965755 16
vt 1.931852 0
vt 1.931852 16
vt 1.414214 0
vt 1.414214 16
vt 2.44949 0
vt 2.44949 16
vt 1.414213 0
vt 1.414213 16
vt 2.44949 0
vt 2.44949 16
vt 0.896576 0
vt 0.896576 16
vt 1.931852 0
vt 1.931852 16
vt -5.887435E-07 0
vt -5.887435E-07 16
vt 1.035276 0
vt 1.035276 16
vt -1.035276 0
vt -1.035276 16
vt 2.274657E-08 0
vt 2.274657E-08 16
vt -1.931852 0
vt -1.931852 16
vt -0.8965755 0
vt -0.8965755 16
vt -2.44949 0
vt -2.44949 16
vt -1.414214 0
vt -1.414214 16
vt -2.44949 0
vt -2.44949 16
vt -1.414214 0
vt -1.414214 16
vt -1.931852 0
vt -1.931852 16
vt -0.8965757 0
vt -0.8965757 16
vt -1.035277 0
vt -1.035277 16
vt 0 0
vt 0 16
vt 0.2679492 1
vt 2 0
vt 0 0
vt 1 1.732051
vt 2 2
vt 3 1.732051
vt 3.732051 1
vt 4 -1.748456E-07
vt 3.732051 -0.9999999
vt 3 -1.732051
vt 2 -2
vt 1 -1.732051
vt 0.2679493 -1
vt -3 -1.732051
vt -3.732051 -0.9999999
vt -2.537415 -0.9308472
vt -2.930828 -0.5374146
vt -2 -2
vt -2 -1.074829
vt -4 -1.748456E-07
vt -3.074825 0
vt -3.732051 1
vt -2.930828 0.5374146
vt -3 1.732051
vt -2.537415 0.9308472
vt -2 2
vt -2 1.074829
vt -1 1.732051
vt -1.462585 0.9308472
vt -0.2679492 1
vt -1.069172 0.5374146
vt 0 0
vt -0.9251747 0
vt -0.2679493 -1
vt -1.069172 -0.5374146
vt -1 -1.732051
vt -1.462585 -0.9308472
vt -1.338058 0
vt -2 0
vt -1.426743 0.3309937
vt -1.669029 0.5732422
vt -2 0.6619263
vt -2.330971 0.5732422
vt -2.573257 0.3309937
vt -2.661942 0
vt -2.573257 -0.3309937
vt -2.330971 -0.5732422
vt -2 -0.6619263
vt -1.669029 -0.5732422
vt -1.426743 -0.3309937
vt -1.135955 16
vt -1.69234 16
vt -1.135955 18.5
vt -1.69234 18.5
vt -1.653714 16
vt -2.210082 16
vt -1.653714 18.5
vt -2.210082 18.5
vt -0.2394381 16
vt -0.79581 16
vt -0.2394381 18.5
vt -0.79581 18.5
vt 0.79581 16
vt 0.2394381 16
vt 0.79581 18.5
vt 0.2394381 18.5
vt 1.69234 16
vt 1.135955 16
vt 1.69234 18.5
vt 1.135955 18.5
vt 2.210082 16
vt 1.653714 16
vt 2.210082 18.5
vt 1.653714 18.5
vt 2.210022 16
vt 1.653654 16
vt 2.210022 18.5
vt 1.653654 18.5
vt 1.692403 16
vt 1.136019 16
vt 1.692403 18.5
vt 1.136019 18.5
vt 0.7958207 16
vt 0.2394488 16
vt 0.7958207 18.5
vt 0.2394488 18.5
vt -0.2394488 16
vt -0.7958207 16
vt -0.2394488 18.5
vt -0.7958207 18.5
vt -1.136019 16
vt -1.692403 16
vt -1.136019 18.5
vt -1.692403 18.5
vt -1.653654 16
vt -2.210022 16
vt -1.653654 18.5
vt -2.210022 18.5
vt 5.176758 5.874946
vt 4.817092 6.299449
vt 5.466798 6.260792
vt 5.245295 6.52218
vt 0.9880601 8.610023
vt 0.4575797 8.77776
vt 1.028091 9.091048
vt 0.7013903 9.194361
vt 7.075068 1.851757
vt 6.951892 2.394322
vt 7.510426 2.060156
vt 7.434565 2.394322
vt 6.951821 -2.39431
vt 7.074998 -1.851745
vt 7.434494 -2.39431
vt 7.510355 -2.060144
vt 4.817685 -6.299826
vt 5.177347 -5.875319
vt 5.245891 -6.522552
vt 5.467391 -6.261161
vt 0.457496 -8.77756
vt 0.9879768 -8.609824
vt 0.7013056 -9.194162
vt 1.028006 -9.090851
vt -4.936449 -8.281442
vt -4.405969 -8.449179
vt -4.97648 -8.762468
vt -4.649779 -8.86578
vt -8.83364 -5.266246
vt -8.473974 -5.69075
vt -9.12368 -5.652092
vt -8.902177 -5.91348
vt -10.49671 -1.566955
vt -10.37353 -2.109521
vt -10.93206 -1.775355
vt -10.8562 -2.10952
vt -10.37347 2.109512
vt -10.49664 1.566947
vt -10.85614 2.109512
vt -10.932 1.775347
vt -8.474514 5.691043
vt -8.834176 5.266535
vt -8.902719 5.913768
vt -9.12422 5.652378
vt -4.405888 8.448996
vt -4.936369 8.28126
vt -4.649697 8.865598
vt -4.976398 8.762286
g submesh0
f 1/1/1 2/2/2 3/3/3
f 2/2/2 4/4/4 3/3/3
f 5/5/5 6/6/6 7/7/7
f 6/6/6 8/8/8 7/7/7
f 9/9/9 10/10/10 11/11/11
f 10/10/10 12/12/12 11/11/11
f 13/13/13 14/14/14 15/15/15
f 14/14/14 16/16/16 15/15/15
f 17/17/17 18/18/18 19/19/19
f 18/18/18 20/20/20 19/19/19
f 21/21/21 22/22/22 23/23/23
f 22/22/22 24/24/24 23/23/23
f 25/25/25 26/26/26 27/27/27
f 26/26/26 28/28/28 27/27/27
f 29/29/29 30/30/30 31/31/31
f 30/30/30 32/32/32 31/31/31
f 33/33/33 34/34/34 35/35/35
f 34/34/34 36/36/36 35/35/35
f 37/37/37 38/38/38 39/39/39
f 38/38/38 40/40/40 39/39/39
f 41/41/41 42/42/42 43/43/43
f 42/42/42 44/44/44 43/43/43
f 45/45/45 46/46/46 47/47/47
f 46/46/46 48/48/48 47/47/47
f 49/49/49 50/50/50 51/51/51
f 52/52/52 50/50/50 49/49/49
f 53/53/53 50/50/50 52/52/52
f 54/54/54 50/50/50 53/53/53
f 55/55/55 50/50/50 54/54/54
f 56/56/56 50/50/50 55/55/55
f 57/57/57 50/50/50 56/56/56
f 58/58/58 50/50/50 57/57/57
f 59/59/59 50/50/50 58/58/58
f 60/60/60 50/50/50 59/59/59
f 61/61/61 50/50/50 60/60/60
f 51/51/51 50/50/50 61/61/61
f 62/62/62 63/63/63 64/64/64
f 63/63/63 65/65/65 64/64/64
f 66/66/66 62/62/62 67/67/67
f 62/62/62 64/64/64 67/67/67
f 63/63/63 68/68/68 65/65/65
f 68/68/68 69/69/69 65/65/65
f 68/68/68 70/70/70 69/69/69
f 70/70/70 71/71/71 69/69/69
f 70/70/70 72/72/72 71/71/71
f 72/72/72 73/73/73 71/71/71
f 72/72/72 74/74/74 73/73/73
f 74/74/74 75/75/75 73/73/73
f 74/74/74 76/76/76 75/75/75
f 76/76/76 77/77/77 75/75/75
f 76/76/76 78/78/78 77/77/77
f 78/78/78 79/79/79 77/77/77
f 78/78/78 80/80/80 79/79/79
f 80/80/80 81/81/81 79/79/79
f 80/80/80 82/82/82 81/81/81
f 82/82/82 83/83/83 81/81/81
f 82/82/82 84/84/84 83/83/83
f 84/84/84 85/85/85 83/83/83
f 84/84/84 66/66/66 85/85/85
f 66/66/66 67/67/67 85/85/85
g submesh1
f 86/86/86 87/87/87 88/88/88
f 88/88/88 87/87/87 89/89/89
f 89/89/89 87/87/87 90/90/90
f 90/90/90 87/87/87 91/91/91
f 91/91/91 87/87/87 92/92/92
f 92/92/92 87/87/87 93/93/93
f 93/93/93 87/87/87 94/94/94
f 94/94/94 87/87/87 95/95/95
f 95/95/95 87/87/87 96/96/96
f 96/96/96 87/87/87 97/97/97
f 97/97/97 87/87/87 98/98/98
f 98/98/98 87/87/87 86/86/86
f 99/99/99 100/100/100 101/101/101
f 100/100/100 102/102/102 101/101/101
f 103/103/103 104/104/104 105/105/105
f 104/104/104 106/106/106 105/105/105
f 107/107/107 108/108/108 109/109/109
f 108/108/108 110/110/110 109/109/109
f 111/111/111 112/112/112 113/113/113
f 112/112/112 114/114/114 113/113/113
f 115/115/115 116/116/116 117/117/117
f 116/116/116 118/118/118 117/117/117
f 119/119/119 120/120/120 121/121/121
f 120/120/120 122/122/122 121/121/121
f 123/123/123 124/124/124 125/125/125
f 124/124/124 126/126/126 125/125/125
f 127/127/127 128/128/128 129/129/129
f 128/128/128 130/130/130 129/129/129
f 131/131/131 132/132/132 133/133/133
f 132/132/132 134/134/134 133/133/133
f 135/135/135 136/136/136 137/137/137
f 136/136/136 138/138/138 137/137/137
f 139/139/139 140/140/140 141/141/141
f 140/140/140 142/142/142 141/141/141
f 143/143/143 144/144/144 145/145/145
f 144/144/144 146/146/146 145/145/145
f 147/147/147 148/148/148 149/149/149
f 148/148/148 150/150/150 149/149/149
f 151/151/151 152/152/152 153/153/153
f 152/152/152 154/154/154 153/153/153
f 155/155/155 156/156/156 157/157/157
f 156/156/156 158/158/158 157/157/157
f 159/159/159 160/160/160 161/161/161
f 160/160/160 162/162/162 161/161/161
f 163/163/163 164/164/164 165/165/165
f 164/164/164 166/166/166 165/165/165
f 167/167/167 168/168/168 169/169/169
f 168/168/168 170/170/170 169/169/169
f 171/171/171 172/172/172 173/173/173
f 172/172/172 174/174/174 173/173/173
f 175/175/175 176/176/176 177/177/177
f 176/176/176 178/178/178 177/177/177
f 179/179/179 180/180/180 181/181/181
f 180/180/180 182/182/182 181/181/181
f 183/183/183 184/184/184 185/185/185
f 184/184/184 186/186/186 185/185/185
f 187/187/187 188/188/188 189/189/189
f 188/188/188 190/190/190 189/189/189
f 191/191/191 192/192/192 193/193/193
f 192/192/192 194/194/194 193/193/193
