v 0.7499996 -3 0.2499999
v 0.9999996 -3 0.2499998
v 0.7499998 13 0.2499948
v 0.9999998 13 0.2499946
v 0.9999996 -3 0.2499998
v 0.9999995 -3 -2.384186E-07
v 0.9999998 13 0.2499946
v 0.9999996 13 -5.424022E-06
v 0.9999995 -3 -2.384186E-07
v 0.7499995 -3 -1.490116E-07
v 0.9999996 13 -5.424022E-06
v 0.7499996 13 -5.230307E-06
v -1 -3 4.768372E-07
v -1 -3 0.2500005
v -1 13 -3.874301E-06
v -1 13 0.2499961
v 0.7499998 13 0.2499948
v 0.9999998 13 0.2499946
v 0.7499996 13 -5.230307E-06
v 0.9999996 13 -5.424022E-06
v 0.7499995 -3 -1.490116E-07
v 0.9999995 -3 -2.384186E-07
v 0.7499996 -3 0.2499999
v 0.9999996 -3 0.2499998
v -0.7500005 -3 3.874302E-07
v -0.7500004 -3 0.2500004
v -1 -3 4.768372E-07
v -1 -3 0.2500005
v -0.7500004 13 -4.068016E-06
v -0.7500005 -3 3.874302E-07
v -1 13 -3.874301E-06
v -1 -3 4.768372E-07
v -0.7500004 -3 0.2500004
v -0.7500002 13 0.2499959
v -1 -3 0.2500005
v -1 13 0.2499961
v -0.7500002 13 0.2499959
v -0.7500004 13 -4.068016E-06
v -1 13 0.2499961
v -1 13 -3.874301E-06
v 0.7499996 -3 0.2499999
v 0.7499998 13 0.2499948
v 0.7499995 -3 -1.490116E-07
v 0.7499996 13 -5.230307E-06
v -0.7500002 13 0.2499959
v -0.7500004 -3 0.2500004
v -0.7500004 13 -4.068016E-06
v -0.7500005 -3 3.874302E-07
v 0.7499996 -3 0.1249999
v 0.7499998 13 0.1249948
v -0.7500004 -3 0.1250004
v -0.7500002 13 0.1249959
vn 3.576279E-07 3.17581E-07 1
vn 5.662441E-07 3.208406E-07 1
vn 5.662441E-07 3.208406E-07 1
vn 7.748604E-07 3.241003E-07 1
vn 1 -1.117603E-08 -4.768372E-07
vn 1 -9.313419E-09 -5.960464E-07
vn 1 -9.313419E-09 -5.960464E-07
vn 1 -7.450812E-09 -7.152557E-07
vn -3.576279E-07 -3.241002E-07 -1
vn -5.662441E-07 -3.208406E-07 -1
vn -5.662441E-07 -3.208406E-07 -1
vn -7.748604E-07 -3.175809E-07 -1
vn -1 7.45071E-09 4.768372E-07
vn -1 1.117607E-08 7.152557E-07
vn -1 1.117607E-08 7.152557E-07
vn -1 1.490142E-08 9.536743E-07
vn 0 1 0
vn 0 1 0
vn 0 1 0
vn 0 1 0
vn 0 -1 0
vn 0 -1 0
vn 0 -1 0
vn 0 -1 0
vn 0 -1 0
vn 0 -1 0
vn 0 -1 0
vn 0 -1 0
vn -7.748604E-07 -2.784654E-07 -1
vn -5.662441E-07 -2.752058E-07 -1
vn -5.662441E-07 -2.752058E-07 -1
vn -3.576279E-07 -2.719461E-07 -1
vn 3.576279E-07 2.784654E-07 1
vn 5.662442E-07 2.752058E-07 1
vn 5.662442E-07 2.752058E-07 1
vn 7.748606E-07 2.719462E-07 1
vn 0 1 0
vn 0 1 0
vn 0 1 0
vn 0 1 0
vn -1 1.117602E-08 4.768372E-07
vn -1 9.313415E-09 5.960464E-07
vn -1 9.313415E-09 5.960464E-07
vn -1 7.450808E-09 7.152557E-07
vn 1 -1.117607E-08 -7.152557E-07
vn 1 -9.313391E-09 -5.960464E-07
vn 1 -9.313391E-09 -5.960464E-07
vn 1 -7.450713E-09 -4.768372E-07
vn 3.576279E-07 3.17581E-07 1
vn 5.662441E-07 2.980232E-07 1
vn 5.662441E-07 2.980232E-07 1
vn 7.748604E-07 2.784654E-07 1
vt -0.7499996 -3
vt -0.9999996 -3
vt -0.7499998 13
vt -0.9999998 13
vt -1.875 -3
vt -2.125 -3
vt -1.875005 13
vt -2.125005 13
vt 0.9999995 -3
vt 0.7499995 -3
vt 0.9999996 13
vt 0.7499996 13
vt 2.125 -3
vt 1.875 -3
vt 2.125004 13
vt 1.875004 13
vt 0.7499998 -1.875005
vt 0.9999998 -1.875005
vt 0.7499996 -2.125005
vt 0.9999996 -2.125005
vt -0.7499995 -2.125
vt -0.9999995 -2.125
vt -0.7499996 -1.875
vt -0.9999996 -1.875
vt 0.7500005 -2.125
vt 0.7500004 -1.875
vt 1 -2.125
vt 1 -1.875
vt -0.7500004 13
vt -0.7500005 -3
vt -1 13
vt -1 -3
vt 0.7500005 -3
vt 0.7500002 13
vt 1 -3
vt 1 13
vt -0.7500002 -1.875004
vt -0.7500004 -2.125004
vt -1 -1.875004
vt -1 -2.125004
vt 1.875 -3
vt 1.875005 13
vt 2.125 -3
vt 2.125005 13
vt -1.875005 13
vt -1.875 -3
vt -2.125005 13
vt -2.125 -3
vt -0.7499995 -3
vt -0.7499997 13
vt 0.7500005 -3
vt 0.7500003 13
g submesh0
f 1/1/1 2/2/2 3/3/3
f 2/2/2 4/4/4 3/3/3
f 5/5/5 6/6/6 7/7/7
f 6/6/6 8/8/8 7/7/7
f 9/9/9 10/10/10 11/11/11
f 10/10/10 12/12/12 11/11/11
f 13/13/13 14/14/14 15/15/15
f 14/14/14 16/16/16 15/15/15
f 17/17/17 18/18/18 19/19/19
f 18/18/18 20/20/20 19/19/19
f 21/21/21 22/22/22 23/23/23
f 22/22/22 24/24/24 23/23/23
f 25/25/25 26/26/26 27/27/27
f 26/26/26 28/28/28 27/27/27
f 29/29/29 30/30/30 31/31/31
f 30/30/30 32/32/32 31/31/31
f 33/33/33 34/34/34 35/35/35
f 34/34/34 36/36/36 35/35/35
f 37/37/37 38/38/38 39/39/39
f 38/38/38 40/40/40 39/39/39
f 41/41/41 42/42/42 43/43/43
f 42/42/42 44/44/44 43/43/43
f 45/45/45 46/46/46 47/47/47
f 46/46/46 48/48/48 47/47/47
g submesh1
f 49/49/49 50/50/50 51/51/51
f 50/50/50 52/52/52 51/51/51
