v 0.7499996 -3 0.2499999
v 0.9999996 -3 0.2499998
v 0.7500045 5 0.2499983
v 1.000005 5 0.2499986
v 0.9999996 -3 0.2499998
v 0.9999995 -3 -2.384186E-07
v 1.000005 5 0.2499986
v 1.000009 5 -1.404953E-06
v 0.9999995 -3 -2.384186E-07
v 0.7499995 -3 -1.490116E-07
v 1.000009 5 -1.404953E-06
v 0.7500086 5 -1.702976E-06
v -1 -3 4.768372E-07
v -1 -3 0.2500005
v -0.9999917 5 2.556249E-08
v -0.9999958 5 0.2500001
v 0.7500045 5 0.2499983
v 1.000005 5 0.2499986
v 0.7500086 5 -1.702976E-06
v 1.000009 5 -1.404953E-06
v 0.7499995 -3 -1.490116E-07
v 0.9999995 -3 -2.384186E-07
v 0.7499996 -3 0.2499999
v 0.9999996 -3 0.2499998
v -0.7500005 -3 3.874302E-07
v -0.7500004 -3 0.2500004
v -1 -3 4.768372E-07
v -1 -3 0.2500005
v -0.7499916 5 3.235853E-07
v -0.7500005 -3 3.874302E-07
v -0.9999917 5 2.556249E-08
v -1 -3 4.768372E-07
v -0.7500004 -3 0.2500004
v -0.7499957 5 0.2500004
v -1 -3 0.2500005
v -0.9999958 5 0.2500001
v -0.7499957 5 0.2500004
v -0.7499916 5 3.235853E-07
v -0.9999958 5 0.2500001
v -0.9999917 5 2.556249E-08
v 0.7499996 -3 0.2499999
v 0.7500045 5 0.2499983
v 0.7499995 -3 -1.490116E-07
v 0.7500086 5 -1.702976E-06
v -0.7499957 5 0.2500004
v -0.7500004 -3 0.2500004
v -0.7499916 5 3.235853E-07
v -0.7500005 -3 3.874302E-07
v 0.7499996 -3 0.1249999
v 0.7500065 5 0.1249983
v -0.7500004 -3 0.1250004
v -0.7499937 5 0.1250003
vn 3.576279E-07 1.899896E-07 1
vn -4.172324E-07 1.657757E-07 1
vn -4.172324E-07 1.657757E-07 1
vn -1.192093E-06 1.415618E-07 1
vn 1 -6.109477E-07 -4.768372E-07
vn 1 -8.717168E-07 7.867812E-06
vn 1 -8.717168E-07 7.867812E-06
vn 1 -1.132486E-06 1.621246E-05
vn -3.576279E-07 -1.458164E-07 -1
vn 4.172316E-07 -1.700317E-07 -1
vn 4.172316E-07 -1.700317E-07 -1
vn 1.192091E-06 -1.942469E-07 -1
vn -1 1.102686E-06 4.768372E-07
vn -1 8.381899E-07 -7.987021E-06
vn -1 8.381899E-07 -7.987021E-06
vn -1 5.736939E-07 -1.645088E-05
vn 0 1 0
vn 0 1 0
vn 0 1 0
vn 0 1 0
vn 0 -1 0
vn 0 -1 0
vn 0 -1 0
vn 0 -1 0
vn 0 -1 0
vn 0 -1 0
vn 0 -1 0
vn 0 -1 0
vn 1.192091E-06 -7.98194E-09 -1
vn 4.172315E-07 -3.219544E-08 -1
vn 4.172315E-07 -3.219544E-08 -1
vn -3.576279E-07 -5.640894E-08 -1
vn 3.576279E-07 3.725082E-09 1
vn -4.172324E-07 2.793992E-08 1
vn -4.172324E-07 2.793992E-08 1
vn -1.192093E-06 5.215475E-08 1
vn 0 1 0
vn 0 1 0
vn 0 1 0
vn 0 1 0
vn -1 6.034971E-07 4.768372E-07
vn -1 8.679911E-07 -7.987021E-06
vn -1 8.679911E-07 -7.987021E-06
vn -1 1.132485E-06 -1.645088E-05
vn 1 -5.811452E-07 1.645088E-05
vn 1 -8.456409E-07 7.987021E-06
vn 1 -8.456409E-07 7.987021E-06
vn 1 -1.110137E-06 -4.768372E-07
vn 3.576279E-07 1.927835E-07 1
vn 8.568167E-07 9.918514E-08 1
vn 8.568167E-07 9.918514E-08 1
vn 1.356005E-06 5.586803E-09 1
vt -0.7499996 -3
vt -0.9999996 -3
vt -0.7500044 5
vt -1.000004 5
vt -1.875 -2.999999
vt -2.125 -2.999999
vt -1.875001 5
vt -2.125001 5
vt 0.9999995 -3
vt 0.7499995 -3
vt 1.000009 5
vt 0.7500086 5
vt 2.125 -3.000001
vt 1.875 -3.000001
vt 2.125 4.999999
vt 1.875 4.999999
vt 0.7500045 -1.875002
vt 1.000005 -1.875001
vt 0.7500086 -2.125002
vt 1.000009 -2.125001
vt -0.7499995 -2.125
vt -0.9999995 -2.125
vt -0.7499996 -1.875
vt -0.9999996 -1.875
vt 0.7500005 -2.125
vt 0.7500004 -1.875
vt 1 -2.125
vt 1 -1.875
vt -0.7499916 5
vt -0.7500005 -3
vt -0.9999917 5
vt -1 -3
vt 0.7500005 -3
vt 0.7499958 5
vt 1 -3
vt 0.9999959 5
vt -0.7499957 -1.875
vt -0.7499916 -2.125
vt -0.9999958 -1.875
vt -0.9999917 -2.125
vt 1.875 -3
vt 1.875001 5
vt 2.125 -3
vt 2.125001 5
vt -1.874987 5
vt -1.874987 -3
vt -2.124987 5
vt -2.124987 -3
vt -0.7499995 -3
vt -0.7500064 5
vt 0.7500005 -3
vt 0.7499937 5
g submesh0
f 1/1/1 2/2/2 3/3/3
f 2/2/2 4/4/4 3/3/3
f 5/5/5 6/6/6 7/7/7
f 6/6/6 8/8/8 7/7/7
f 9/9/9 10/10/10 11/11/11
f 10/10/10 12/12/12 11/11/11
f 13/13/13 14/14/14 15/15/15
f 14/14/14 16/16/16 15/15/15
f 17/17/17 18/18/18 19/19/19
f 18/18/18 20/20/20 19/19/19
f 21/21/21 22/22/22 23/23/23
f 22/22/22 24/24/24 23/23/23
f 25/25/25 26/26/26 27/27/27
f 26/26/26 28/28/28 27/27/27
f 29/29/29 30/30/30 31/31/31
f 30/30/30 32/32/32 31/31/31
f 33/33/33 34/34/34 35/35/35
f 34/34/34 36/36/36 35/35/35
f 37/37/37 38/38/38 39/39/39
f 38/38/38 40/40/40 39/39/39
f 41/41/41 42/42/42 43/43/43
f 42/42/42 44/44/44 43/43/43
f 45/45/45 46/46/46 47/47/47
f 46/46/46 48/48/48 47/47/47
g submesh1
f 49/49/49 50/50/50 51/51/51
f 50/50/50 52/52/52 51/51/51
