v 0.7499996 -3 0.2499999
v 0.9999996 -3 0.2499998
v 0.7500088 5 0.2500009
v 1.000009 5 0.2500003
v 0.9999996 -3 0.2499998
v 0.9999995 -3 -2.384186E-07
v 1.000009 5 0.2500003
v 1 5 2.746237E-07
v 0.9999995 -3 -2.384186E-07
v 0.7499995 -3 -1.490116E-07
v 1 5 2.746237E-07
v 0.7500005 5 9.302748E-07
v -1 -3 4.768372E-07
v -1 -3 0.2500005
v -0.9999995 5 5.519832E-06
v -0.9999912 5 0.2500055
v 0.7500088 5 0.2500009
v 1.000009 5 0.2500003
v 0.7500005 5 9.302748E-07
v 1 5 2.746237E-07
v 0.7499995 -3 -1.490116E-07
v 0.9999995 -3 -2.384186E-07
v 0.7499996 -3 0.2499999
v 0.9999996 -3 0.2499998
v -0.7500005 -3 3.874302E-07
v -0.7500004 -3 0.2500004
v -1 -3 4.768372E-07
v -1 -3 0.2500005
v -0.7499995 5 4.864181E-06
v -0.7500005 -3 3.874302E-07
v -0.9999995 5 5.519832E-06
v -1 -3 4.768372E-07
v -0.7500004 -3 0.2500004
v -0.7499912 5 0.2500049
v -1 -3 0.2500005
v -0.9999912 5 0.2500055
v -0.7499912 5 0.2500049
v -0.7499995 5 4.864181E-06
v -0.9999912 5 0.2500055
v -0.9999995 5 5.519832E-06
v 0.7499996 -3 0.2499999
v 0.7500088 5 0.2500009
v 0.7499995 -3 -1.490116E-07
v 0.7500005 5 9.302748E-07
v -0.7499912 5 0.2500049
v -0.7500004 -3 0.2500004
v -0.7499995 5 4.864181E-06
v -0.7500005 -3 3.874302E-07
v 0.7499996 -3 0.1249999
v 0.7500046 5 0.1250009
v -0.7500004 -3 0.1250004
v -0.7499954 5 0.1250049
vn 3.576279E-07 -1.341109E-07 1
vn 1.490116E-06 -9.872191E-08 1
vn 1.490116E-06 -9.872191E-08 1
vn 2.622604E-06 -6.333295E-08 1
vn 1 -1.147389E-06 -4.768372E-07
vn 1 -6.332983E-07 -1.692772E-05
vn 1 -6.332983E-07 -1.692772E-05
vn 1 -1.192071E-07 -3.33786E-05
vn -3.576279E-07 6.413033E-08 -1
vn -1.490116E-06 9.952073E-08 -1
vn -1.490116E-06 9.952073E-08 -1
vn -2.622604E-06 1.349111E-07 -1
vn -1 1.19209E-07 4.768372E-07
vn -1 6.295634E-07 1.680851E-05
vn -1 6.295634E-07 1.680851E-05
vn -1 1.139918E-06 3.314018E-05
vn 0 1 0
vn 0 1 0
vn 0 1 0
vn 0 1 0
vn 0 -1 0
vn 0 -1 0
vn 0 -1 0
vn 0 -1 0
vn 0 -1 0
vn 0 -1 0
vn 0 -1 0
vn 0 -1 0
vn -2.622604E-06 5.595942E-07 -1
vn -1.490116E-06 5.949844E-07 -1
vn -1.490116E-06 5.949844E-07 -1
vn -3.576279E-07 6.303745E-07 -1
vn 3.576279E-07 -5.587939E-07 1
vn 1.490116E-06 -5.941855E-07 1
vn 1.490116E-06 -5.941855E-07 1
vn 2.622604E-06 -6.295771E-07 1
vn 0 1 0
vn 0 1 0
vn 0 1 0
vn 0 1 0
vn -1 1.139939E-06 4.768372E-07
vn -1 6.295718E-07 1.680851E-05
vn -1 6.295718E-07 1.680851E-05
vn -1 1.192048E-07 3.314018E-05
vn 1 -1.13992E-06 -3.314018E-05
vn 1 -6.295647E-07 -1.680851E-05
vn 1 -6.295647E-07 -1.680851E-05
vn 1 -1.19209E-07 -4.768372E-07
vn 3.576279E-07 -1.341107E-07 1
vn 1.490116E-06 -3.464529E-07 1
vn 1.490116E-06 -3.464529E-07 1
vn 2.622604E-06 -5.587952E-07 1
vt -0.7499996 -3
vt -0.9999996 -3
vt -0.7500086 5
vt -1.000009 5
vt -1.875 -2.999999
vt -2.125 -2.999999
vt -1.874999 5.000001
vt -2.124999 5.000001
vt 0.9999995 -3
vt 0.7499995 -3
vt 1 5
vt 0.7500005 5
vt 2.125 -3
vt 1.875 -3
vt 2.124995 5
vt 1.874995 5
vt 0.7500088 -1.874999
vt 1.000009 -1.875
vt 0.7500005 -2.124999
vt 1 -2.125
vt -0.7499995 -2.125
vt -0.9999995 -2.125
vt -0.7499996 -1.875
vt -0.9999996 -1.875
vt 0.7500005 -2.125
vt 0.7500004 -1.875
vt 1 -2.125
vt 1 -1.875
vt -0.7499995 5
vt -0.7500005 -3
vt -0.9999995 5
vt -1 -3
vt 0.7500005 -3
vt 0.7499914 5
vt 1 -3
vt 0.9999914 5
vt -0.7499912 -1.874995
vt -0.7499995 -2.124995
vt -0.9999912 -1.874995
vt -0.9999995 -2.124995
vt 1.875 -2.999999
vt 1.874999 5.000001
vt 2.125 -2.999999
vt 2.124999 5.000001
vt -1.87502 4.999999
vt -1.875024 -3.000001
vt -2.12502 4.999999
vt -2.125025 -3.000001
vt -0.7499995 -3
vt -0.7500046 5
vt 0.7500005 -3
vt 0.7499955 5
g submesh0
f 1/1/1 2/2/2 3/3/3
f 2/2/2 4/4/4 3/3/3
f 5/5/5 6/6/6 7/7/7
f 6/6/6 8/8/8 7/7/7
f 9/9/9 10/10/10 11/11/11
f 10/10/10 12/12/12 11/11/11
f 13/13/13 14/14/14 15/15/15
f 14/14/14 16/16/16 15/15/15
f 17/17/17 18/18/18 19/19/19
f 18/18/18 20/20/20 19/19/19
f 21/21/21 22/22/22 23/23/23
f 22/22/22 24/24/24 23/23/23
f 25/25/25 26/26/26 27/27/27
f 26/26/26 28/28/28 27/27/27
f 29/29/29 30/30/30 31/31/31
f 30/30/30 32/32/32 31/31/31
f 33/33/33 34/34/34 35/35/35
f 34/34/34 36/36/36 35/35/35
f 37/37/37 38/38/38 39/39/39
f 38/38/38 40/40/40 39/39/39
f 41/41/41 42/42/42 43/43/43
f 42/42/42 44/44/44 43/43/43
f 45/45/45 46/46/46 47/47/47
f 46/46/46 48/48/48 47/47/47
g submesh1
f 49/49/49 50/50/50 51/51/51
f 50/50/50 52/52/52 51/51/51
