v 0.7499996 -3 0.2499999
v 0.9999996 -3 0.2499998
v 0.7500017 8 0.2500163
v 1.000002 8 0.2500161
v 0.9999996 -3 0.2499998
v 0.9999995 -3 -2.384186E-07
v 1.000002 8 0.2500161
v 1.000002 8 1.609326E-05
v 0.9999995 -3 -2.384186E-07
v 0.7499995 -3 -1.490116E-07
v 1.000002 8 1.609326E-05
v 0.7500015 8 1.628698E-05
v -1 -3 4.768372E-07
v -1 -3 0.2500005
v -0.9999985 8 1.764298E-05
v -0.9999983 8 0.2500176
v 0.7500017 8 0.2500163
v 1.000002 8 0.2500161
v 0.7500015 8 1.628698E-05
v 1.000002 8 1.609326E-05
v 0.7499995 -3 -1.490116E-07
v 0.9999995 -3 -2.384186E-07
v 0.7499996 -3 0.2499999
v 0.9999996 -3 0.2499998
v -0.7500005 -3 3.874302E-07
v -0.7500004 -3 0.2500004
v -1 -3 4.768372E-07
v -1 -3 0.2500005
v -0.7499985 8 1.744927E-05
v -0.7500005 -3 3.874302E-07
v -0.9999985 8 1.764298E-05
v -1 -3 4.768372E-07
v -0.7500004 -3 0.2500004
v -0.7499983 8 0.2500175
v -1 -3 0.2500005
v -0.9999983 8 0.2500176
v -0.7499983 8 0.2500175
v -0.7499985 8 1.744927E-05
v -0.9999983 8 0.2500176
v -0.9999985 8 1.764298E-05
v 0.7499996 -3 0.2499999
v 0.7500017 8 0.2500163
v 0.7499995 -3 -1.490116E-07
v 0.7500015 8 1.628698E-05
v -0.7499983 8 0.2500175
v -0.7500004 -3 0.2500004
v -0.7499985 8 1.744927E-05
v -0.7500005 -3 3.874302E-07
v 0.7499996 -3 0.1249999
v 0.7500017 8 0.1250163
v -0.7500004 -3 0.1250004
v -0.7499983 8 0.1250174
vn 3.576279E-07 -1.495535E-06 1
vn 5.960463E-07 -1.490116E-06 1
vn 5.960463E-07 -1.490116E-06 1
vn 8.344648E-07 -1.484698E-06 1
vn 1 -1.95069E-07 -4.768372E-07
vn 1 -1.896501E-07 -7.152557E-07
vn 1 -1.896501E-07 -7.152557E-07
vn 1 -1.842311E-07 -9.536743E-07
vn -3.576279E-07 1.484698E-06 -1
vn -5.662441E-07 1.489439E-06 -1
vn -5.662441E-07 1.489439E-06 -1
vn -7.748604E-07 1.494181E-06 -1
vn -1 1.842318E-07 4.768372E-07
vn -1 1.869409E-07 5.960464E-07
vn -1 1.869409E-07 5.960464E-07
vn -1 1.8965E-07 7.152557E-07
vn 0 1 0
vn 0 1 0
vn 0 1 0
vn 0 1 0
vn 0 -1 0
vn 0 -1 0
vn 0 -1 0
vn 0 -1 0
vn 0 -1 0
vn 0 -1 0
vn 0 -1 0
vn 0 -1 0
vn -7.748604E-07 1.551076E-06 -1
vn -5.662441E-07 1.555817E-06 -1
vn -5.662441E-07 1.555817E-06 -1
vn -3.576279E-07 1.560559E-06 -1
vn 3.576279E-07 -1.55243E-06 1
vn 5.364418E-07 -1.556494E-06 1
vn 5.364418E-07 -1.556494E-06 1
vn 7.152557E-07 -1.560558E-06 1
vn 0 1 0
vn 0 1 0
vn 0 1 0
vn 0 1 0
vn -1 1.896504E-07 4.768372E-07
vn -1 1.86941E-07 5.960464E-07
vn -1 1.86941E-07 5.960464E-07
vn -1 1.842315E-07 7.152557E-07
vn 1 -1.8965E-07 -7.152557E-07
vn 1 -1.869409E-07 -5.960464E-07
vn 1 -1.869409E-07 -5.960464E-07
vn 1 -1.842318E-07 -4.768372E-07
vn 3.576279E-07 -1.49418E-06 1
vn 5.662441E-07 -1.522628E-06 1
vn 5.662441E-07 -1.522628E-06 1
vn 7.748604E-07 -1.551076E-06 1
vt -0.7499996 -3
vt -0.9999996 -3
vt -0.7500016 8
vt -1.000002 8
vt -1.875 -3
vt -2.125 -3
vt -1.874983 8
vt -2.124983 8
vt 0.9999995 -3
vt 0.7499995 -3
vt 1.000002 8
vt 0.7500015 8
vt 2.125 -3
vt 1.875 -3
vt 2.124983 8
vt 1.874983 8
vt 0.7500017 -1.874984
vt 1.000002 -1.874984
vt 0.7500015 -2.124984
vt 1.000002 -2.124984
vt -0.7499995 -2.125
vt -0.9999995 -2.125
vt -0.7499996 -1.875
vt -0.9999996 -1.875
vt 0.7500005 -2.125
vt 0.7500004 -1.875
vt 1 -2.125
vt 1 -1.875
vt -0.7499985 8
vt -0.7500005 -3
vt -0.9999985 8
vt -1 -3
vt 0.7500005 -3
vt 0.7499984 8
vt 1 -3
vt 0.9999984 8
vt -0.7499983 -1.874983
vt -0.7499985 -2.124983
vt -0.9999983 -1.874982
vt -0.9999985 -2.124982
vt 1.875 -3
vt 1.874983 8
vt 2.125 -3
vt 2.124983 8
vt -1.874983 8
vt -1.875 -3
vt -2.124983 8
vt -2.125 -3
vt -0.7499995 -3
vt -0.7500016 8
vt 0.7500005 -3
vt 0.7499984 8
g submesh0
f 1/1/1 2/2/2 3/3/3
f 2/2/2 4/4/4 3/3/3
f 5/5/5 6/6/6 7/7/7
f 6/6/6 8/8/8 7/7/7
f 9/9/9 10/10/10 11/11/11
f 10/10/10 12/12/12 11/11/11
f 13/13/13 14/14/14 15/15/15
f 14/14/14 16/16/16 15/15/15
f 17/17/17 18/18/18 19/19/19
f 18/18/18 20/20/20 19/19/19
f 21/21/21 22/22/22 23/23/23
f 22/22/22 24/24/24 23/23/23
f 25/25/25 26/26/26 27/27/27
f 26/26/26 28/28/28 27/27/27
f 29/29/29 30/30/30 31/31/31
f 30/30/30 32/32/32 31/31/31
f 33/33/33 34/34/34 35/35/35
f 34/34/34 36/36/36 35/35/35
f 37/37/37 38/38/38 39/39/39
f 38/38/38 40/40/40 39/39/39
f 41/41/41 42/42/42 43/43/43
f 42/42/42 44/44/44 43/43/43
f 45/45/45 46/46/46 47/47/47
f 46/46/46 48/48/48 47/47/47
g submesh1
f 49/49/49 50/50/50 51/51/51
f 50/50/50 52/52/52 51/51/51
