v 4.998856 15 -4.001392
v 5.998856 15 -4.001672
v 5.998856 17 -4.001672
v 4.998856 17 -4.001392
v 5.98371 17 -58.00167
v 4.98371 15 -58.00139
v 4.98371 17 -58.00139
v 5.98371 15 -58.00167
v 46.99886 15 -4.013178
v 46.99882 15 -5.013178
v 46.99882 17 -5.013178
v 46.99886 17 -4.013178
v 4.998576 17 -5.001391
v 4.998856 15 -4.001392
v 4.998856 17 -4.001392
v 4.998576 15 -5.001391
v 5.998576 17 -5.001672
v 4.998576 17 -5.001391
v 4.998856 17 -4.001392
v 5.998856 17 -4.001672
v 4.998856 15 -4.001392
v 5.998576 15 -5.001672
v 5.998856 15 -4.001672
v 4.998576 15 -5.001391
v 28.99886 15 -4.008127
v 45.99886 15 -4.012897
v 45.99886 17 -4.012897
v 28.99886 17 -4.008127
v 46.99886 15 -4.013178
v 46.99886 17 -4.013178
v 45.99913 17 -24.0012
v 28.99326 15 -24.00863
v 28.99326 17 -24.00863
v 45.99913 15 -24.0012
v 46.99913 17 -24.0012
v 45.99913 15 -24.0012
v 45.99913 17 -24.0012
v 46.99913 15 -24.0012
v 46.99882 17 -5.013178
v 45.99882 17 -5.012897
v 45.99886 17 -4.012897
v 46.99886 17 -4.013178
v 28.99857 17 -5.008126
v 28.99886 17 -4.008127
v 45.99886 15 -4.012897
v 46.99882 15 -5.013178
v 46.99886 15 -4.013178
v 45.99882 15 -5.012897
v 28.99886 15 -4.008127
v 28.99857 15 -5.008126
v 46.99916 15 -23.0012
v 46.99916 17 -23.0012
v 46.99913 15 -24.0012
v 46.99913 17 -24.0012
v 4.993539 17 -23.00864
v 4.998576 15 -5.001391
v 4.998576 17 -5.001391
v 4.993539 15 -23.00864
v 4.993258 17 -24.00864
v 4.993258 15 -24.00864
v 5.993259 17 -24.00863
v 4.993258 17 -24.00864
v 4.993539 17 -23.00864
v 5.993539 17 -23.00863
v 4.993539 15 -23.00864
v 5.993259 15 -24.00863
v 5.993539 15 -23.00863
v 4.993258 15 -24.00864
v 46.99913 17 -24.0012
v 45.99913 17 -24.0012
v 45.99916 17 -23.0012
v 46.99916 17 -23.0012
v 28.99326 17 -24.00863
v 28.99354 17 -23.00863
v 45.99916 15 -23.0012
v 28.99354 15 -23.00863
v 28.99857 15 -5.008126
v 45.99882 15 -5.012897
v 45.99916 15 -23.0012
v 46.99913 15 -24.0012
v 46.99916 15 -23.0012
v 45.99913 15 -24.0012
v 28.99354 15 -23.00863
v 28.99326 15 -24.00863
v 28.99801 -133 -7.008126
v 41.99926 -133 -20.1698
v 41.99895 -133 -7.011775
v 28.99434 -133 -20.17727
v 27.99886 15 -4.007846
v 27.99886 17 -4.007846
v 27.98371 17 -58.00784
v 27.98371 15 -58.00784
v 28.98371 17 -58.00812
v 28.98371 15 -58.00812
v 27.99858 17 -5.007846
v 27.99886 17 -4.007846
v 27.99886 15 -4.007846
v 27.99858 15 -5.007846
v 27.99326 17 -24.00864
v 27.99354 17 -23.00864
v 27.99326 15 -24.00864
v 5.993259 15 -24.00863
v 5.993539 15 -23.00863
v 27.99354 15 -23.00864
v 27.99858 15 -5.007846
v 5.998576 15 -5.001672
v 27.99354 15 -23.00864
v 27.99326 15 -24.00864
v 11.99433 -133 -20.1773
v 27.99413 -133 -20.91979
v 27.99434 -133 -20.1772
v 11.99413 -133 -20.91989
v 27.99801 -133 -7.007846
v 11.99801 -133 -7.003356
v 4.983991 17 -57.00139
v 4.983991 15 -57.00139
v 4.98371 17 -58.00139
v 4.98371 15 -58.00139
v 28.99326 15 -24.00863
v 28.98399 15 -57.00812
v 28.98399 17 -57.00812
v 28.99326 17 -24.00863
v 28.98371 15 -58.00812
v 28.98371 17 -58.00812
v 5.98371 17 -58.00167
v 4.98371 17 -58.00139
v 4.983991 17 -57.00139
v 5.983991 17 -57.00167
v 4.983991 15 -57.00139
v 5.98371 15 -58.00167
v 5.983991 15 -57.00167
v 4.98371 15 -58.00139
v 28.98371 17 -58.00812
v 27.98371 17 -58.00784
v 27.98399 17 -57.00784
v 28.98399 17 -57.00812
v 27.98399 15 -57.00784
v 5.983991 15 -57.00167
v 27.98399 15 -57.00784
v 28.98371 15 -58.00812
v 28.98399 15 -57.00812
v 27.98371 15 -58.00784
v 27.98595 -133 -50.00784
v 11.98596 -133 -50.00335
v 27.98399 17 -57.00784
v 5.983991 17 -57.00167
v 27.98399 15 -57.00784
v 5.983991 15 -57.00167
v 5.983991 17 -57.00167
v 5.993259 17 -24.00863
v 5.983991 15 -57.00167
v 5.993259 15 -24.00863
v 27.99326 17 -24.00864
v 27.98399 17 -57.00784
v 27.99326 15 -24.00864
v 27.98399 15 -57.00784
v 5.993539 17 -23.00863
v 5.993539 15 -23.00863
v 27.99354 17 -23.00864
v 27.99354 15 -23.00864
v 5.998576 17 -5.001672
v 5.998576 15 -5.001672
v 45.99882 17 -5.012897
v 45.99916 17 -23.0012
v 45.99882 15 -5.012897
v 45.99916 15 -23.0012
v 5.998576 17 -5.001672
v 27.99858 17 -5.007846
v 5.998576 15 -5.001672
v 27.99858 15 -5.007846
v 28.99354 17 -23.00863
v 27.99354 17 -23.00864
v 28.99354 15 -23.00863
v 27.99354 15 -23.00864
v 27.99858 17 -5.007846
v 28.99857 17 -5.008126
v 27.99858 15 -5.007846
v 28.99857 15 -5.008126
v 45.99916 17 -23.0012
v 28.99354 17 -23.00863
v 45.99916 15 -23.0012
v 28.99354 15 -23.00863
v 28.99857 17 -5.008126
v 45.99882 17 -5.012897
v 28.99857 15 -5.008126
v 45.99882 15 -5.012897
v 27.98399 15 -57.00784
v 27.99326 15 -24.00864
v 24.98595 7 -50.007
v 24.99413 7 -20.91983
v 27.99354 15 -23.00864
v 28.99354 15 -23.00863
v 24.99434 7 -20.17724
v 25.99434 7 -20.17724
v 5.993259 15 -24.00863
v 5.983991 15 -57.00167
v 8.994125 7 -20.91983
v 8.985955 7 -50.00251
v 5.983991 15 -57.00167
v 27.98399 15 -57.00784
v 8.985955 7 -50.00251
v 24.98595 7 -50.007
v 27.99354 15 -23.00864
v 24.99434 7 -20.17724
v 28.99354 15 -23.00863
v 45.99916 15 -23.0012
v 25.99434 7 -20.17724
v 38.99926 7 -20.1698
v 5.993539 15 -23.00863
v 8.994334 7 -20.17724
v 27.99858 15 -5.007846
v 5.998576 15 -5.001672
v 24.99801 7 -7.007004
v 8.998014 7 -7.002514
v 5.998576 15 -5.001672
v 8.998014 7 -7.002514
v 28.99857 15 -5.008126
v 25.99801 7 -7.007285
v 45.99916 15 -23.0012
v 45.99882 15 -5.012897
v 38.99926 7 -20.1698
v 38.99895 7 -7.010933
v 45.99882 15 -5.012897
v 38.99895 7 -7.010933
v 24.98595 7 -50.007
v 24.99413 7 -20.91983
v 27.98595 -133 -50.00784
v 27.99413 -133 -20.91979
v 24.99434 7 -20.17724
v 25.99434 7 -20.17724
v 27.99434 -133 -20.1772
v 28.99434 -133 -20.17727
v 8.994125 7 -20.91983
v 8.985955 7 -50.00251
v 11.99413 -133 -20.91989
v 11.98596 -133 -50.00335
v 8.985955 7 -50.00251
v 24.98595 7 -50.007
v 11.98596 -133 -50.00335
v 27.98595 -133 -50.00784
v 24.99434 7 -20.17724
v 27.99434 -133 -20.1772
v 25.99434 7 -20.17724
v 38.99926 7 -20.1698
v 28.99434 -133 -20.17727
v 41.99926 -133 -20.1698
v 8.994334 7 -20.17724
v 11.99433 -133 -20.1773
v 24.99801 7 -7.007004
v 8.998014 7 -7.002514
v 27.99801 -133 -7.007846
v 11.99801 -133 -7.003356
v 8.998014 7 -7.002514
v 11.99801 -133 -7.003356
v 25.99801 7 -7.007285
v 28.99801 -133 -7.008126
v 38.99926 7 -20.1698
v 38.99895 7 -7.010933
v 41.99926 -133 -20.1698
v 41.99895 -133 -7.011775
v 38.99895 7 -7.010933
v 25.99801 7 -7.007285
v 41.99895 -133 -7.011775
v 28.99801 -133 -7.008126
vn 0.0002803802 0 1
vn 0.0002803802 0 1
vn 0.0002803802 0 1
vn 0.0002803802 0 1
vn -0.0002822876 0 -1
vn -0.0002822876 0 -1
vn -0.0002822876 0 -1
vn -0.0002822876 0 -1
vn 1 0 -3.814697E-05
vn 1 0 -3.814697E-05
vn 1 0 -3.814697E-05
vn 1 0 -3.814697E-05
vn -0.9999999 0 0.0002803804
vn -0.9999999 0 0.0002803804
vn -0.9999999 0 0.0002803804
vn -0.9999999 0 0.0002803804
vn 0 1 0
vn 0 1 0
vn 0 1 0
vn 0 1 0
vn 0 -1 0
vn 0 -1 0
vn 0 -1 0
vn 0 -1 0
vn 0.0002806046 0 1
vn 0.0002806046 0 1
vn 0.0002806046 0 1
vn 0.0002806046 0 1
vn 0.0002808571 0 1
vn 0.0002808571 0 1
vn 0.0004371929 0 -0.9999999
vn 0.0004371929 0 -0.9999999
vn 0.0004371929 0 -0.9999999
vn 0.0004371929 0 -0.9999999
vn 0 0 -1
vn 0 0 -1
vn 0 0 -1
vn 0 0 -1
vn 0 1 0
vn 0 1 0
vn 0 1 0
vn 0 1 0
vn 0 1 0
vn 0 1 0
vn 0 -1 0
vn 0 -1 0
vn 0 -1 0
vn 0 -1 0
vn 0 -1 0
vn 0 -1 0
vn 1 0 1.887412E-05
vn 1 0 1.887412E-05
vn 1 0 -3.433228E-05
vn 1 0 -3.433228E-05
vn -1 0 0.0002796849
vn -1 0 0.0002796849
vn -1 0 0.0002796849
vn -1 0 0.0002796849
vn -1 0 0.0002808571
vn -1 0 0.0002808571
vn 0 1 0
vn 0 1 0
vn 0 1 0
vn 0 1 0
vn 0 -1 0
vn 0 -1 0
vn 0 -1 0
vn 0 -1 0
vn 0 1 0
vn 0 1 0
vn 0 1 0
vn 0 1 0
vn 0 1 0
vn 0 1 0
vn 0 1 0
vn 0 1 0
vn 0 1 0
vn 0 1 0
vn 0 -1 0
vn 0 -1 0
vn 0 -1 0
vn 0 -1 0
vn 0 -1 0
vn 0 -1 0
vn 0 -1 0
vn 0 -1 0
vn 0 -1 0
vn 0 -1 0
vn 0.0002806187 0 1
vn 0.0002806187 0 1
vn -0.0002805536 0 -1
vn -0.0002805536 0 -1
vn -0.0002784729 0 -1
vn -0.0002784729 0 -1
vn 0 1 0
vn 0 1 0
vn 0 -1 0
vn 0 -1 0
vn 0 1 0
vn 0 1 0
vn 0 1 0
vn 0 1 0
vn 0 1 0
vn 0 1 0
vn 0 1 0
vn 0 1 0
vn 0 -1 0
vn 0 -1 0
vn 0 -1 0
vn 0 -1 0
vn 0 -1 0
vn 0 -1 0
vn 0 -1 0
vn 0 -1 0
vn -1 0 0.0002808899
vn -1 0 0.0002808899
vn -1 0 0.0002808571
vn -1 0 0.0002808571
vn 1 0 -0.0002809048
vn 1 0 -0.0002809048
vn 1 0 -0.0002809048
vn 1 0 -0.0002809048
vn 1 0 -0.0002803802
vn 1 0 -0.0002803802
vn 0 1 0
vn 0 1 0
vn 0 1 0
vn 0 1 0
vn 0 -1 0
vn 0 -1 0
vn 0 -1 0
vn 0 -1 0
vn 0 1 0
vn 0 1 0
vn 0 1 0
vn 0 1 0
vn 0 1 0
vn 0 1 0
vn 0 -1 0
vn 0 -1 0
vn 0 -1 0
vn 0 -1 0
vn 0 -1 0
vn 0 -1 0
vn 0.0002805537 0 1
vn 0.0002805537 0 1
vn 0.0002805537 0 1
vn 0.0002805537 0 1
vn 1 0 -0.0002809019
vn 1 0 -0.0002809019
vn 1 0 -0.0002809019
vn 1 0 -0.0002809019
vn -1 0 0.0002809072
vn -1 0 0.0002809072
vn -1 0 0.0002809072
vn -1 0 0.0002809072
vn 1 0 -0.0002803802
vn 1 0 -0.0002803802
vn -1 0 0.0002803802
vn -1 0 0.0002803802
vn 1 0 -0.0002796893
vn 1 0 -0.0002796893
vn -1 0 -1.887382E-05
vn -1 0 -1.887382E-05
vn -1 0 -1.887382E-05
vn -1 0 -1.887382E-05
vn -0.0002806187 0 -1
vn -0.0002806187 0 -1
vn -0.0002806187 0 -1
vn -0.0002806187 0 -1
vn -1.907349E-06 0 1
vn -1.907349E-06 0 1
vn -1.907349E-06 0 1
vn -1.907349E-06 0 1
vn -0.0002803808 0 -0.9999999
vn -0.0002803808 0 -0.9999999
vn -0.0002803808 0 -0.9999999
vn -0.0002803808 0 -0.9999999
vn -0.0004371992 0 0.9999999
vn -0.0004371992 0 0.9999999
vn -0.0004371992 0 0.9999999
vn -0.0004371992 0 0.9999999
vn -0.0002806286 0 -1
vn -0.0002806286 0 -1
vn -0.0002806286 0 -1
vn -0.0002806286 0 -1
vn 0.9363291 -0.3511237 -0.0002630216
vn 0.9363291 -0.3511236 -0.0002630262
vn 0.9363291 -0.3511236 -0.0002630262
vn 0.9363291 -0.3511236 -0.0002630308
vn 1.798055E-06 -0.3336447 -0.9426989
vn 8.990277E-07 -0.3336443 -0.9426991
vn 8.990277E-07 -0.3336443 -0.9426991
vn 0 -0.3336439 -0.9426992
vn -0.9363292 -0.3511233 0.0002630167
vn -0.9363292 -0.3511233 0.0002630287
vn -0.9363292 -0.3511233 0.0002630287
vn -0.9363292 -0.3511232 0.0002630407
vn -0.0002111381 -0.6585047 -0.7525765
vn -0.0002111626 -0.6585047 -0.7525766
vn -0.0002111626 -0.6585047 -0.7525766
vn -0.000211187 -0.6585047 -0.7525766
vn 0.9363291 -0.3511237 -0.000263537
vn 0.936329 -0.3511239 -0.0002645459
vn 0.0004121261 -0.3337812 -0.9426505
vn 0.0004756958 -0.3339224 -0.9426004
vn 0.0004756958 -0.3339224 -0.9426004
vn 0.0005392655 -0.3340637 -0.9425503
vn -0.9363291 -0.3511235 0.0002625282
vn -0.9363292 -0.3511234 0.0002629358
vn 0.0002722401 -0.2425356 0.9701425
vn 0.0002722401 -0.2425356 0.9701425
vn 0.0002722401 -0.2425356 0.9701425
vn 0.0002722401 -0.2425356 0.9701424
vn -0.9363292 -0.3511232 0.0002618812
vn -0.9363291 -0.3511235 0.0002617178
vn 0.0002720093 -0.2425356 0.9701425
vn 0.0002722403 -0.2425356 0.9701425
vn 0.752584 -0.6584963 1.420414E-05
vn 0.7525823 -0.6584983 1.604703E-05
vn 0.7525823 -0.6584983 1.604703E-05
vn 0.7525806 -0.6585003 1.788992E-05
vn 0.0002722497 -0.2425357 0.9701425
vn 0.000272244 -0.2425357 0.9701425
vn 0.9997705 0.02142365 -0.0002808526
vn 0.9997705 0.02142365 -0.0002808483
vn 0.9997705 0.02142365 -0.0002808483
vn 0.9997705 0.02142365 -0.000280844
vn 0 -2.997262E-07 -1
vn -3.71933E-05 -8.310591E-07 -1
vn -3.71933E-05 -8.310591E-07 -1
vn -7.43866E-05 -1.362392E-06 -1
vn -0.9997705 -0.02142365 0.0002808631
vn -0.9997705 -0.02142365 0.0002808594
vn -0.9997705 -0.02142365 0.0002808594
vn -0.9997705 -0.02142365 0.0002808555
vn -0.0002806187 8.514592E-09 -1
vn -0.0002806187 8.514592E-09 -1
vn -0.0002806187 8.514592E-09 -1
vn -0.0002806187 8.514592E-09 -1
vn 0.9997705 0.02142365 -0.0002824704
vn 0.9997705 0.02142365 -0.0002824704
vn 0.0005721343 1.249163E-05 -0.9999999
vn 0.000573381 1.240254E-05 -0.9999999
vn 0.000573381 1.240254E-05 -0.9999999
vn 0.0005746276 1.231345E-05 -0.9999999
vn -0.9997705 -0.02142365 0.0002811864
vn -0.9997705 -0.02142365 0.0002811864
vn 0.0002806187 -1.702273E-09 1
vn 0.0002806187 -1.702273E-09 1
vn 0.0002806187 -1.702273E-09 1
vn 0.0002806187 -1.702273E-09 1
vn -0.9997705 -0.02142365 0.000279276
vn -0.9997705 -0.02142365 0.0002792843
vn 0.0002808571 6.811959E-09 1
vn 0.0002806187 0 1
vn 0.9997705 0.02142365 2.376598E-05
vn 0.9997705 0.02142365 2.376674E-05
vn 0.9997705 0.02142365 2.376674E-05
vn 0.9997705 0.02142365 2.37675E-05
vn 0.0002806167 1.661919E-09 0.9999999
vn 0.0002806167 1.661919E-09 0.9999999
vn 0.0002806167 1.661919E-09 0.9999999
vn 0.0002806167 1.661919E-09 0.9999999
vt -4.999979 15
vt -5.999979 15
vt -5.999979 17
vt -4.999979 17
vt 5.999976 17
vt 4.999976 15
vt 4.999976 17
vt 5.999976 15
vt -4.012338 15
vt -5.012338 15
vt -5.012338 17
vt -4.012338 17
vt 4.99999 17
vt 3.999991 15
vt 3.999991 17
vt 4.99999 15
vt 5.998576 -5.001672
vt 4.998576 -5.001391
vt 4.998856 -4.001392
vt 5.998856 -4.001672
vt -4.998856 -4.001392
vt -5.998576 -5.001672
vt -5.998856 -4.001672
vt -4.998576 -5.001391
vt -28.99998 15
vt -45.99998 15
vt -45.99998 17
vt -28.99998 17
vt -46.99998 15
vt -46.99998 17
vt 45.99388 17
vt 28.98801 15
vt 28.98801 17
vt 45.99388 15
vt 46.99388 17
vt 45.99388 15
vt 45.99388 17
vt 46.99388 15
vt 46.99882 -5.013178
vt 45.99882 -5.012897
vt 45.99886 -4.012897
vt 46.99886 -4.013178
vt 28.99857 -5.008126
vt 28.99886 -4.008127
vt -45.99886 -4.012897
vt -46.99882 -5.013178
vt -46.99886 -4.013178
vt -45.99882 -5.012897
vt -28.99886 -4.008127
vt -28.99857 -5.008126
vt -23.00036 15
vt -23.00036 17
vt -24.00036 15
vt -24.00036 17
vt 23.00724 17
vt 4.99999 15
vt 4.99999 17
vt 23.00724 15
vt 24.00724 17
vt 24.00724 15
vt 5.993259 -24.00863
vt 4.993258 -24.00864
vt 4.993539 -23.00864
vt 5.993539 -23.00863
vt -4.993539 -23.00864
vt -5.993259 -24.00863
vt -5.993539 -23.00863
vt -4.993258 -24.00864
vt 46.99913 -24.0012
vt 45.99913 -24.0012
vt 45.99916 -23.0012
vt 46.99916 -23.0012
vt 28.99326 -24.00863
vt 28.99354 -23.00863
vt 45.99916 -23.0012
vt 28.99354 -23.00863
vt 28.99857 -5.008126
vt 45.99882 -5.012897
vt -45.99916 -23.0012
vt -46.99913 -24.0012
vt -46.99916 -23.0012
vt -45.99913 -24.0012
vt -28.99354 -23.00863
vt -28.99326 -24.00863
vt -28.99801 -7.008126
vt -41.99926 -20.1698
vt -41.99895 -7.011775
vt -28.99434 -20.17727
vt -27.99998 15
vt -27.99998 17
vt 27.99998 17
vt 27.99998 15
vt 28.99998 17
vt 28.99998 15
vt 27.99858 -5.007846
vt 27.99886 -4.007846
vt -27.99886 -4.007846
vt -27.99858 -5.007846
vt 27.99326 -24.00864
vt 27.99354 -23.00864
vt 27.99326 -24.00864
vt 5.993259 -24.00863
vt 5.993539 -23.00863
vt 27.99354 -23.00864
vt 27.99858 -5.007846
vt 5.998576 -5.001672
vt -27.99354 -23.00864
vt -27.99326 -24.00864
vt -11.99433 -20.1773
vt -27.99413 -20.91979
vt -27.99434 -20.1772
vt -11.99413 -20.91989
vt -27.99801 -7.007846
vt -11.99801 -7.003356
vt 56.99999 17
vt 56.99999 15
vt 57.99999 17
vt 57.99999 15
vt -24.0005 15
vt -56.99999 15
vt -56.99999 17
vt -24.0005 17
vt -57.99999 15
vt -57.99999 17
vt 5.98371 -58.00167
vt 4.98371 -58.00139
vt 4.983991 -57.00139
vt 5.983991 -57.00167
vt -4.983991 -57.00139
vt -5.98371 -58.00167
vt -5.983991 -57.00167
vt -4.98371 -58.00139
vt 28.98371 -58.00812
vt 27.98371 -58.00784
vt 27.98399 -57.00784
vt 28.98399 -57.00812
vt 27.98399 -57.00784
vt 5.983991 -57.00167
vt -27.98399 -57.00784
vt -28.98371 -58.00812
vt -28.98399 -57.00812
vt -27.98371 -58.00784
vt -27.98595 -50.00784
vt -11.98596 -50.00335
vt -27.99998 17
vt -5.999983 17
vt -27.99998 15
vt -5.999983 15
vt -56.99999 17
vt -24.00695 17
vt -56.99999 15
vt -24.00695 15
vt 24.00077 17
vt 56.99998 17
vt 24.00077 15
vt 56.99998 15
vt -23.00695 17
vt -23.00695 15
vt 23.00079 17
vt 23.00079 15
vt -4.999995 17
vt -4.999995 15
vt 5.013765 17
vt 23.00207 17
vt 5.013765 15
vt 23.00207 15
vt 5.999979 17
vt 27.99998 17
vt 5.999979 15
vt 27.99998 15
vt -28.9935 17
vt -27.9935 17
vt -28.9935 15
vt -27.9935 15
vt 27.99998 17
vt 28.99998 17
vt 27.99998 15
vt 28.99998 15
vt -45.9891 17
vt -28.98348 17
vt -45.9891 15
vt -28.98348 15
vt 28.99998 17
vt 46.00023 17
vt 28.99998 15
vt 46.00023 15
vt -56.99998 23.8764
vt -24.00077 23.8764
vt -49.99998 15.3324
vt -20.91281 15.3324
vt 27.9935 21.81721
vt 28.9935 21.81721
vt 24.9943 13.33094
vt 25.9943 13.33094
vt 24.00695 11.9382
vt 56.99998 11.9382
vt 20.9173 3.394195
vt 49.99998 3.394195
vt 5.999983 48.82341
vt 27.99998 48.82341
vt 8.999984 38.19326
vt 24.99998 38.19326
vt -23.00079 23.87639
vt -20.17023 15.33239
vt 28.98348 21.82384
vt 45.9891 21.82384
vt 25.98551 13.33713
vt 38.99044 13.33654
vt 23.00695 11.9382
vt 20.17472 3.394196
vt -27.99998 13.33946
vt -5.999979 13.33946
vt -24.99998 5.093251
vt -8.999979 5.093251
vt 4.999994 11.93821
vt 6.999997 3.394205
vt -28.99998 13.33946
vt -25.99998 5.09325
vt -23.00207 41.57875
vt -5.013765 41.57875
vt -20.17054 30.9487
vt -7.011669 30.94866
vt -46.00023 13.33946
vt -39.00092 5.093251
vt -49.99998 6.462802
vt -20.91281 6.462802
vt -49.99998 -133.5693
vt -20.91193 -133.5693
vt 24.99434 7.000006
vt 25.99434 7.000006
vt 27.99434 -133
vt 28.99434 -133
vt 20.9173 6.80558
vt 49.99998 6.80558
vt 20.91652 -133.2266
vt 49.99998 -133.2266
vt 8.999987 7
vt 24.99999 7
vt 11.99999 -133
vt 27.99999 -133
vt -20.17018 6.462801
vt -20.16929 -133.5693
vt 25.98279 6.999748
vt 38.98772 6.999748
vt 28.98279 -133.0003
vt 41.98772 -133.0003
vt 20.17471 6.80558
vt 20.17392 -133.2266
vt -24.99998 7
vt -8.999979 7
vt -27.99998 -133
vt -11.99998 -133
vt 7 6.805581
vt 7.000004 -133.2265
vt -25.99998 7
vt -28.99998 -133
vt -20.17073 6.162897
vt -7.01186 6.162897
vt -20.1708 -133.8692
vt -7.012773 -133.8692
vt -39.00092 7
vt -25.99998 7
vt -42.00092 -133
vt -28.99998 -133
g submesh0
f 1/1/1 2/2/2 3/3/3
f 4/4/4 1/1/1 3/3/3
f 5/5/5 6/6/6 7/7/7
f 5/5/5 8/8/8 6/6/6
f 9/9/9 10/10/10 11/11/11
f 12/12/12 9/9/9 11/11/11
f 13/13/13 14/14/14 15/15/15
f 13/13/13 16/16/16 14/14/14
f 17/17/17 18/18/18 19/19/19
f 20/20/20 17/17/17 19/19/19
f 21/21/21 22/22/22 23/23/23
f 21/21/21 24/24/24 22/22/22
f 25/25/25 26/26/26 27/27/27
f 28/28/28 25/25/25 27/27/27
f 26/26/26 29/29/29 30/30/30
f 27/27/27 26/26/26 30/30/30
f 31/31/31 32/32/32 33/33/33
f 31/31/31 34/34/34 32/32/32
f 35/35/35 36/36/36 37/37/37
f 35/35/35 38/38/38 36/36/36
f 39/39/39 40/40/40 41/41/41
f 42/42/42 39/39/39 41/41/41
f 40/40/40 43/43/43 44/44/44
f 41/41/41 40/40/40 44/44/44
f 45/45/45 46/46/46 47/47/47
f 45/45/45 48/48/48 46/46/46
f 49/49/49 48/48/48 45/45/45
f 49/49/49 50/50/50 48/48/48
f 10/10/10 51/51/51 52/52/52
f 11/11/11 10/10/10 52/52/52
f 51/51/51 53/53/53 54/54/54
f 52/52/52 51/51/51 54/54/54
f 55/55/55 56/56/56 57/57/57
f 55/55/55 58/58/58 56/56/56
f 59/59/59 58/58/58 55/55/55
f 59/59/59 60/60/60 58/58/58
f 61/61/61 62/62/62 63/63/63
f 64/64/64 61/61/61 63/63/63
f 64/64/64 63/63/63 18/18/18
f 17/17/17 64/64/64 18/18/18
f 65/65/65 66/66/66 67/67/67
f 65/65/65 68/68/68 66/66/66
f 24/24/24 67/67/67 22/22/22
f 24/24/24 65/65/65 67/67/67
f 69/69/69 70/70/70 71/71/71
f 72/72/72 69/69/69 71/71/71
f 72/72/72 71/71/71 40/40/40
f 39/39/39 72/72/72 40/40/40
f 70/70/70 73/73/73 74/74/74
f 71/71/71 70/70/70 74/74/74
f 75/75/75 76/76/76 77/77/77
f 78/78/78 75/75/75 77/77/77
f 79/79/79 80/80/80 81/81/81
f 79/79/79 82/82/82 80/80/80
f 48/48/48 81/81/81 46/46/46
f 48/48/48 79/79/79 81/81/81
f 83/83/83 82/82/82 79/79/79
f 83/83/83 84/84/84 82/82/82
f 85/85/85 86/86/86 87/87/87
f 85/85/85 88/88/88 86/86/86
f 2/2/2 89/89/89 90/90/90
f 3/3/3 2/2/2 90/90/90
f 89/89/89 25/25/25 28/28/28
f 90/90/90 89/89/89 28/28/28
f 91/91/91 8/8/8 5/5/5
f 91/91/91 92/92/92 8/8/8
f 93/93/93 92/92/92 91/91/91
f 93/93/93 94/94/94 92/92/92
f 43/43/43 95/95/95 96/96/96
f 44/44/44 43/43/43 96/96/96
f 95/95/95 17/17/17 20/20/20
f 96/96/96 95/95/95 20/20/20
f 97/97/97 50/50/50 49/49/49
f 97/97/97 98/98/98 50/50/50
f 23/23/23 98/98/98 97/97/97
f 23/23/23 22/22/22 98/98/98
f 73/73/73 99/99/99 100/100/100
f 74/74/74 73/73/73 100/100/100
f 101/101/101 102/102/102 103/103/103
f 104/104/104 101/101/101 103/103/103
f 76/76/76 104/104/104 105/105/105
f 77/77/77 76/76/76 105/105/105
f 104/104/104 103/103/103 106/106/106
f 105/105/105 104/104/104 106/106/106
f 107/107/107 84/84/84 83/83/83
f 107/107/107 108/108/108 84/84/84
f 109/109/109 110/110/110 111/111/111
f 109/109/109 112/112/112 110/110/110
f 113/113/113 88/88/88 85/85/85
f 113/113/113 111/111/111 88/88/88
f 114/114/114 111/111/111 113/113/113
f 114/114/114 109/109/109 111/111/111
f 115/115/115 60/60/60 59/59/59
f 115/115/115 116/116/116 60/60/60
f 117/117/117 116/116/116 115/115/115
f 117/117/117 118/118/118 116/116/116
f 119/119/119 120/120/120 121/121/121
f 122/122/122 119/119/119 121/121/121
f 120/120/120 123/123/123 124/124/124
f 121/121/121 120/120/120 124/124/124
f 125/125/125 126/126/126 127/127/127
f 128/128/128 125/125/125 127/127/127
f 128/128/128 127/127/127 62/62/62
f 61/61/61 128/128/128 62/62/62
f 129/129/129 130/130/130 131/131/131
f 129/129/129 132/132/132 130/130/130
f 68/68/68 131/131/131 66/66/66
f 68/68/68 129/129/129 131/131/131
f 133/133/133 134/134/134 135/135/135
f 136/136/136 133/133/133 135/135/135
f 136/136/136 135/135/135 99/99/99
f 73/73/73 136/136/136 99/99/99
f 134/134/134 125/125/125 128/128/128
f 135/135/135 134/134/134 128/128/128
f 137/137/137 138/138/138 102/102/102
f 101/101/101 137/137/137 102/102/102
f 139/139/139 140/140/140 141/141/141
f 139/139/139 142/142/142 140/140/140
f 108/108/108 141/141/141 84/84/84
f 108/108/108 139/139/139 141/141/141
f 131/131/131 142/142/142 139/139/139
f 131/131/131 130/130/130 142/142/142
f 112/112/112 143/143/143 110/110/110
f 112/112/112 144/144/144 143/143/143
f 145/145/145 146/146/146 147/147/147
f 146/146/146 148/148/148 147/147/147
f 149/149/149 150/150/150 151/151/151
f 150/150/150 152/152/152 151/151/151
f 153/153/153 154/154/154 155/155/155
f 154/154/154 156/156/156 155/155/155
f 150/150/150 157/157/157 152/152/152
f 157/157/157 158/158/158 152/152/152
f 159/159/159 153/153/153 160/160/160
f 153/153/153 155/155/155 160/160/160
f 157/157/157 161/161/161 158/158/158
f 161/161/161 162/162/162 158/158/158
f 163/163/163 164/164/164 165/165/165
f 164/164/164 166/166/166 165/165/165
f 167/167/167 168/168/168 169/169/169
f 168/168/168 170/170/170 169/169/169
f 171/171/171 172/172/172 173/173/173
f 172/172/172 174/174/174 173/173/173
f 175/175/175 176/176/176 177/177/177
f 176/176/176 178/178/178 177/177/177
f 179/179/179 180/180/180 181/181/181
f 180/180/180 182/182/182 181/181/181
f 183/183/183 184/184/184 185/185/185
f 184/184/184 186/186/186 185/185/185
f 187/187/187 188/188/188 189/189/189
f 188/188/188 190/190/190 189/189/189
f 191/191/191 192/192/192 193/193/193
f 192/192/192 194/194/194 193/193/193
f 195/195/195 196/196/196 197/197/197
f 196/196/196 198/198/198 197/197/197
f 199/199/199 200/200/200 201/201/201
f 200/200/200 202/202/202 201/201/201
f 188/188/188 203/203/203 190/190/190
f 203/203/203 204/204/204 190/190/190
f 205/205/205 206/206/206 207/207/207
f 206/206/206 208/208/208 207/207/207
f 209/209/209 195/195/195 210/210/210
f 195/195/195 197/197/197 210/210/210
f 211/211/211 212/212/212 213/213/213
f 212/212/212 214/214/214 213/213/213
f 215/215/215 209/209/209 216/216/216
f 209/209/209 210/210/210 216/216/216
f 217/217/217 211/211/211 218/218/218
f 211/211/211 213/213/213 218/218/218
f 219/219/219 220/220/220 221/221/221
f 220/220/220 222/222/222 221/221/221
f 223/223/223 217/217/217 224/224/224
f 217/217/217 218/218/218 224/224/224
f 225/225/225 226/226/226 227/227/227
f 226/226/226 228/228/228 227/227/227
f 229/229/229 230/230/230 231/231/231
f 230/230/230 232/232/232 231/231/231
f 233/233/233 234/234/234 235/235/235
f 234/234/234 236/236/236 235/235/235
f 237/237/237 238/238/238 239/239/239
f 238/238/238 240/240/240 239/239/239
f 226/226/226 241/241/241 228/228/228
f 241/241/241 242/242/242 228/228/228
f 243/243/243 244/244/244 245/245/245
f 244/244/244 246/246/246 245/245/245
f 247/247/247 233/233/233 248/248/248
f 233/233/233 235/235/235 248/248/248
f 249/249/249 250/250/250 251/251/251
f 250/250/250 252/252/252 251/251/251
f 253/253/253 247/247/247 254/254/254
f 247/247/247 248/248/248 254/254/254
f 255/255/255 249/249/249 256/256/256
f 249/249/249 251/251/251 256/256/256
f 257/257/257 258/258/258 259/259/259
f 258/258/258 260/260/260 259/259/259
f 261/261/261 262/262/262 263/263/263
f 262/262/262 264/264/264 263/263/263
