v 0 0 8
v 8 0 -10
v 8 0 8
v 0 0 -10
v 12 0 8
v 16 0 -10
v 16 0 8
v 12 0 -10
v 20 0 -10
v 20 0 8
v 24 0 -10
v 24 0 8
v 28 0 8
v 32 0 -10
v 32 0 8
v 28 0 -10
v 36 0 8
v 46 0 -10
v 46 0 8
v 36 0 -10
v 46 0 8
v 46 0 -10
v 46 6 -10
v 46 6 8
v 0 7 -10
v 0 0 8
v 0 7 8
v 0 0 -10
v 0 0 8
v 8 0 8
v 8 6 8
v 0 7 8
v 8 6 -10
v 0 0 -10
v 0 7 -10
v 8 0 -10
v 12 0 8
v 12 6 8
v 12 6 -6
v 8 0 -6
v 8 6 -6
v 12 0 -6
v 16 0 8
v 16 6 8
v 16 6 -10
v 12 0 -10
v 12 6 -10
v 16 0 -10
v 20 0 8
v 20 6 8
v 20 6 -6
v 16 0 -6
v 16 6 -6
v 20 0 -6
v 24 0 8
v 24 6 8
v 24 6 -10
v 20 0 -10
v 20 6 -10
v 24 0 -10
v 28 0 8
v 28 6 8
v 28 6 -6
v 24 0 -6
v 24 6 -6
v 28 0 -6
v 32 0 8
v 32 6 8
v 32 6 -10
v 28 0 -10
v 28 6 -10
v 32 0 -10
v 36 0 8
v 36 6 8
v 46 0 8
v 46 6 8
v 36 6 -6
v 32 0 -6
v 32 6 -6
v 36 0 -6
v 46 6 -10
v 36 0 -10
v 36 6 -10
v 46 0 -10
v 8 0 -10
v 8 6 -10
v 8 0 -6
v 8 6 -6
v 8 6 -10
v 12 6 -10
v 8 6 -6
v 12 6 -6
v 12 6 -10
v 12 0 -10
v 12 6 -6
v 12 0 -6
v 16 0 -10
v 16 6 -10
v 16 0 -6
v 16 6 -6
v 16 6 -10
v 20 6 -10
v 16 6 -6
v 20 6 -6
v 20 6 -10
v 20 0 -10
v 20 6 -6
v 20 0 -6
v 24 0 -10
v 24 6 -10
v 24 0 -6
v 24 6 -6
v 24 6 -10
v 28 6 -10
v 24 6 -6
v 28 6 -6
v 28 6 -10
v 28 0 -10
v 28 6 -6
v 28 0 -6
v 32 0 -10
v 32 6 -10
v 32 0 -6
v 32 6 -6
v 32 6 -10
v 36 6 -10
v 32 6 -6
v 36 6 -6
v 36 6 -10
v 36 0 -10
v 36 6 -6
v 36 0 -6
v 46 14 8
v 46 14 -10
v 46 24 -10
v 46 24 8
v 36 16 8
v 46 14 8
v 46 24 8
v 36 24 8
v 46 24 -10
v 36 16 -10
v 36 24 -10
v 46 14 -10
v 36 24 8
v 36 24 -10
v 36 16 8
v 36 16 -10
v -18 19 -10
v -14 12 8
v -18 19 8
v -14 12 -10
v -18 24 -10
v -18 19 8
v -18 24 8
v -18 19 -10
v -18 19 8
v -14 12 8
v -8 16 8
v -8 20 8
v -18 24 8
v -8 24 8
v -8 20 -10
v -8 16 -10
v -18 19 -10
v -14 12 -10
v -18 24 -10
v -8 24 -10
v -8 20 8
v -8 20 -10
v -8 24 -10
v -8 24 8
v -8 16 8
v -8 16 -10
v 46 10 -10
v 46 10 8
v 0 7 8
v -7 11 8
v -7 11 -10
v 0 7 -10
v -7 11 8
v -14 12 8
v -14 12 -10
v -7 11 -10
v 0 11 8
v -7 11 8
v 0 11 -10
v -7 11 -10
v 12 11 8
v 12 16 8
v 12 11 -10
v 12 16 -10
v 16 11 8
v 16 16 8
v 16 11 -10
v 16 16 -10
v 20 11 8
v 20 16 8
v 20 11 -10
v 20 16 -10
v 24 11 8
v 24 16 8
v 24 11 -10
v 24 16 -10
v 28 11 8
v 28 16 8
v 28 11 -10
v 28 16 -10
v 32 11 8
v 32 16 8
v 32 11 -10
v 32 16 -10
v 36 11 8
v 46 10 8
v 36 11 -10
v 46 10 -10
v 46 24 -10
v 36 24 -10
v 36 24 8
v 46 24 8
v 36 16 -10
v 32 16 -10
v 32 16 8
v 36 16 8
v 28 16 -10
v 28 16 8
v 24 16 -10
v 24 16 8
v 20 16 -10
v 20 16 8
v 16 16 -10
v 16 16 8
v 12 16 -10
v 12 16 8
v -8 16 -10
v -8 16 8
v -8 24 -10
v -18 24 -10
v -18 24 8
v -8 24 8
vn 0 -1 0
vn 0 -1 0
vn 0 -1 0
vn 0 -1 0
vn 0 -1 0
vn 0 -1 0
vn 0 -1 0
vn 0 -1 0
vn 0 -1 0
vn 0 -1 0
vn 0 -1 0
vn 0 -1 0
vn 0 -1 0
vn 0 -1 0
vn 0 -1 0
vn 0 -1 0
vn 0 -1 0
vn 0 -1 0
vn 0 -1 0
vn 0 -1 0
vn 1 0 0
vn 1 0 0
vn 1 0 0
vn 1 0 0
vn -1 0 0
vn -1 0 0
vn -1 0 0
vn -1 0 0
vn 0 0 1
vn 0 0 1
vn 0 0 1
vn 0 0 1
vn 0 0 -1
vn 0 0 -1
vn 0 0 -1
vn 0 0 -1
vn 0 0 1
vn 0 0 1
vn 0 0 -1
vn 0 0 -1
vn 0 0 -1
vn 0 0 -1
vn 0 0 1
vn 0 0 1
vn 0 0 -1
vn 0 0 -1
vn 0 0 -1
vn 0 0 -1
vn 0 0 1
vn 0 0 1
vn 0 0 -1
vn 0 0 -1
vn 0 0 -1
vn 0 0 -1
vn 0 0 1
vn 0 0 1
vn 0 0 -1
vn 0 0 -1
vn 0 0 -1
vn 0 0 -1
vn 0 0 1
vn 0 0 1
vn 0 0 -1
vn 0 0 -1
vn 0 0 -1
vn 0 0 -1
vn 0 0 1
vn 0 0 1
vn 0 0 -1
vn 0 0 -1
vn 0 0 -1
vn 0 0 -1
vn 0 0 1
vn 0 0 1
vn 0 0 1
vn 0 0 1
vn 0 0 -1
vn 0 0 -1
vn 0 0 -1
vn 0 0 -1
vn 0 0 -1
vn 0 0 -1
vn 0 0 -1
vn 0 0 -1
vn 1 0 0
vn 1 0 0
vn 1 0 0
vn 1 0 0
vn 0 -1 0
vn 0 -1 0
vn 0 -1 0
vn 0 -1 0
vn -1 0 0
vn -1 0 0
vn -1 0 0
vn -1 0 0
vn 1 0 0
vn 1 0 0
vn 1 0 0
vn 1 0 0
vn 0 -1 0
vn 0 -1 0
vn 0 -1 0
vn 0 -1 0
vn -1 0 0
vn -1 0 0
vn -1 0 0
vn -1 0 0
vn 1 0 0
vn 1 0 0
vn 1 0 0
vn 1 0 0
vn 0 -1 0
vn 0 -1 0
vn 0 -1 0
vn 0 -1 0
vn -1 0 0
vn -1 0 0
vn -1 0 0
vn -1 0 0
vn 1 0 0
vn 1 0 0
vn 1 0 0
vn 1 0 0
vn 0 -1 0
vn 0 -1 0
vn 0 -1 0
vn 0 -1 0
vn -1 0 0
vn -1 0 0
vn -1 0 0
vn -1 0 0
vn 1 0 0
vn 1 0 0
vn 1 0 0
vn 1 0 0
vn 0 0 1
vn 0 0 1
vn 0 0 1
vn 0 0 1
vn 0 0 -1
vn 0 0 -1
vn 0 0 -1
vn 0 0 -1
vn -1 0 0
vn -1 0 0
vn -1 0 0
vn -1 0 0
vn -0.8682432 -0.496139 0
vn -0.8682432 -0.496139 0
vn -0.8682432 -0.496139 0
vn -0.8682432 -0.496139 0
vn -1 0 0
vn -1 0 0
vn -1 0 0
vn -1 0 0
vn 0 0 1
vn 0 0 1
vn 0 0 1
vn 0 0 1
vn 0 0 1
vn 0 0 1
vn 0 0 -1
vn 0 0 -1
vn 0 0 -1
vn 0 0 -1
vn 0 0 -1
vn 0 0 -1
vn 1 0 0
vn 1 0 0
vn 1 0 0
vn 1 0 0
vn 1 0 0
vn 1 0 0
vn 1 0 0
vn 1 0 0
vn -0.496139 -0.8682432 0
vn -0.496139 -0.8682432 0
vn -0.496139 -0.8682432 0
vn -0.496139 -0.8682432 0
vn -0.1414214 -0.9899495 0
vn -0.1414214 -0.9899495 0
vn -0.1414214 -0.9899495 0
vn -0.1414214 -0.9899495 0
vn 0 0 1
vn 0 0 1
vn 0 0 -1
vn 0 0 -1
vn 0 0 1
vn 0 0 1
vn 0 0 -1
vn 0 0 -1
vn 0 0 1
vn 0 0 1
vn 0 0 -1
vn 0 0 -1
vn 0 0 1
vn 0 0 1
vn 0 0 -1
vn 0 0 -1
vn 0 0 1
vn 0 0 1
vn 0 0 -1
vn 0 0 -1
vn 0 0 1
vn 0 0 1
vn 0 0 -1
vn 0 0 -1
vn 0 0 1
vn 0 0 1
vn 0 0 -1
vn 0 0 -1
vn 0 0 1
vn 0 0 1
vn 0 0 -1
vn 0 0 -1
vn 0 1 0
vn 0 1 0
vn 0 1 0
vn 0 1 0
vn 0 1 0
vn 0 1 0
vn 0 1 0
vn 0 1 0
vn 0 1 0
vn 0 1 0
vn 0 1 0
vn 0 1 0
vn 0 1 0
vn 0 1 0
vn 0 1 0
vn 0 1 0
vn 0 1 0
vn 0 1 0
vn 0 1 0
vn 0 1 0
vn 0 1 0
vn 0 1 0
vn 0 1 0
vn 0 1 0
vt 0 8
vt -8 -10
vt -8 8
vt 0 -10
vt -12 8
vt -16 -10
vt -16 8
vt -12 -10
vt -20 -10
vt -20 8
vt -24 -10
vt -24 8
vt -28 8
vt -32 -10
vt -32 8
vt -28 -10
vt -36 8
vt -46 -10
vt -46 8
vt -36 -10
vt 8 0
vt -10 0
vt -10 6
vt 8 6
vt 10 5.811214
vt -8 0
vt -8 5.811214
vt 10 0
vt 0 0
vt -8 0
vt -8 6
vt 0 7
vt 8 6
vt 0 0
vt 0 7
vt 8 0
vt -12 0
vt -12 6
vt 12 6
vt 8 0
vt 8 6
vt 12 0
vt -16 0
vt -16 6
vt 16 6
vt 12 0
vt 12 6
vt 16 0
vt -20 0
vt -20 6
vt 20 6
vt 16 0
vt 16 6
vt 20 0
vt -24 0
vt -24 6
vt 24 6
vt 20 0
vt 20 6
vt 24 0
vt -28 0
vt -28 6
vt 28 6
vt 24 0
vt 24 6
vt 28 0
vt -32 0
vt -32 6
vt 32 6
vt 28 0
vt 28 6
vt 32 0
vt -36 0
vt -36 6
vt -46 0
vt -46 6
vt 36 6
vt 32 0
vt 32 6
vt 36 0
vt 46 6
vt 36 0
vt 36 6
vt 46 0
vt -10 0
vt -10 6
vt -6 0
vt -6 6
vt -8 -10
vt -12 -10
vt -8 -6
vt -12 -6
vt 10 6
vt 10 0
vt 6 6
vt 6 0
vt -10 0
vt -10 6
vt -6 0
vt -6 6
vt -16 -10
vt -20 -10
vt -16 -6
vt -20 -6
vt 10 6
vt 10 0
vt 6 6
vt 6 0
vt -10 0
vt -10 6
vt -6 0
vt -6 6
vt -24 -10
vt -28 -10
vt -24 -6
vt -28 -6
vt 10 6
vt 10 0
vt 6 6
vt 6 0
vt -10 0
vt -10 6
vt -6 0
vt -6 6
vt -32 -10
vt -36 -10
vt -32 -6
vt -36 -6
vt 10 6
vt 10 0
vt 6 6
vt 6 0
vt 8 14
vt -10 14
vt -10 24
vt 8 24
vt -36 16
vt -46 14
vt -46 24
vt -36 24
vt 46 24
vt 36 16
vt 36 24
vt 46 14
vt -8 24
vt 10 24
vt -8 16
vt 10 16
vt 10 25.80839
vt -8 17.76715
vt -8 25.80839
vt 10 17.76715
vt 10 29.95926
vt -8 25.80839
vt -8 29.95926
vt 10 25.80839
vt 18 19
vt 14 12
vt 8 16
vt 8 20
vt 18 24
vt 8 24
vt -8 20
vt -8 16
vt -18 19
vt -14 12
vt -18 24
vt -8 24
vt 8 20
vt -10 20
vt -10 24
vt 8 24
vt 8 16
vt -10 16
vt -10 10
vt 8 10
vt -8 5.811214
vt -8 13.03444
vt 10 13.03444
vt 10 5.811214
vt -8 13.03444
vt -8 17.76715
vt 10 17.76715
vt 10 13.03444
vt 0 11
vt 7 11
vt 0 11
vt -7 11
vt -12 11
vt -12 16
vt 12 11
vt 12 16
vt -16 11
vt -16 16
vt 16 11
vt 16 16
vt -20 11
vt -20 16
vt 20 11
vt 20 16
vt -24 11
vt -24 16
vt 24 11
vt 24 16
vt -28 11
vt -28 16
vt 28 11
vt 28 16
vt -32 11
vt -32 16
vt 32 11
vt 32 16
vt -36 11
vt -46 10
vt 36 11
vt 46 10
vt 46 -10
vt 36 -10
vt 36 8
vt 46 8
vt 36 -10
vt 32 -10
vt 32 8
vt 36 8
vt 28 -10
vt 28 8
vt 24 -10
vt 24 8
vt 20 -10
vt 20 8
vt 16 -10
vt 16 8
vt 12 -10
vt 12 8
vt -8 -10
vt -8 8
vt -8 -10
vt -18 -10
vt -18 8
vt -8 8
g submesh0
f 1/1/1 2/2/2 3/3/3
f 1/1/1 4/4/4 2/2/2
f 5/5/5 6/6/6 7/7/7
f 5/5/5 8/8/8 6/6/6
f 7/7/7 9/9/9 10/10/10
f 7/7/7 6/6/6 9/9/9
f 10/10/10 11/11/11 12/12/12
f 10/10/10 9/9/9 11/11/11
f 13/13/13 14/14/14 15/15/15
f 13/13/13 16/16/16 14/14/14
f 17/17/17 18/18/18 19/19/19
f 17/17/17 20/20/20 18/18/18
f 15/15/15 20/20/20 17/17/17
f 15/15/15 14/14/14 20/20/20
f 21/21/21 22/22/22 23/23/23
f 24/24/24 21/21/21 23/23/23
f 25/25/25 26/26/26 27/27/27
f 25/25/25 28/28/28 26/26/26
f 29/29/29 30/30/30 31/31/31
f 32/32/32 29/29/29 31/31/31
f 33/33/33 34/34/34 35/35/35
f 33/33/33 36/36/36 34/34/34
f 30/30/30 37/37/37 38/38/38
f 31/31/31 30/30/30 38/38/38
f 39/39/39 40/40/40 41/41/41
f 39/39/39 42/42/42 40/40/40
f 37/37/37 43/43/43 44/44/44
f 38/38/38 37/37/37 44/44/44
f 45/45/45 46/46/46 47/47/47
f 45/45/45 48/48/48 46/46/46
f 43/43/43 49/49/49 50/50/50
f 44/44/44 43/43/43 50/50/50
f 51/51/51 52/52/52 53/53/53
f 51/51/51 54/54/54 52/52/52
f 49/49/49 55/55/55 56/56/56
f 50/50/50 49/49/49 56/56/56
f 57/57/57 58/58/58 59/59/59
f 57/57/57 60/60/60 58/58/58
f 55/55/55 61/61/61 62/62/62
f 56/56/56 55/55/55 62/62/62
f 63/63/63 64/64/64 65/65/65
f 63/63/63 66/66/66 64/64/64
f 61/61/61 67/67/67 68/68/68
f 62/62/62 61/61/61 68/68/68
f 69/69/69 70/70/70 71/71/71
f 69/69/69 72/72/72 70/70/70
f 67/67/67 73/73/73 74/74/74
f 68/68/68 67/67/67 74/74/74
f 73/73/73 75/75/75 76/76/76
f 74/74/74 73/73/73 76/76/76
f 77/77/77 78/78/78 79/79/79
f 77/77/77 80/80/80 78/78/78
f 81/81/81 82/82/82 83/83/83
f 81/81/81 84/84/84 82/82/82
f 85/85/85 86/86/86 87/87/87
f 86/86/86 88/88/88 87/87/87
f 89/89/89 90/90/90 91/91/91
f 90/90/90 92/92/92 91/91/91
f 93/93/93 94/94/94 95/95/95
f 94/94/94 96/96/96 95/95/95
f 97/97/97 98/98/98 99/99/99
f 98/98/98 100/100/100 99/99/99
f 101/101/101 102/102/102 103/103/103
f 102/102/102 104/104/104 103/103/103
f 105/105/105 106/106/106 107/107/107
f 106/106/106 108/108/108 107/107/107
f 109/109/109 110/110/110 111/111/111
f 110/110/110 112/112/112 111/111/111
f 113/113/113 114/114/114 115/115/115
f 114/114/114 116/116/116 115/115/115
f 117/117/117 118/118/118 119/119/119
f 118/118/118 120/120/120 119/119/119
f 121/121/121 122/122/122 123/123/123
f 122/122/122 124/124/124 123/123/123
f 125/125/125 126/126/126 127/127/127
f 126/126/126 128/128/128 127/127/127
f 129/129/129 130/130/130 131/131/131
f 130/130/130 132/132/132 131/131/131
f 133/133/133 134/134/134 135/135/135
f 136/136/136 133/133/133 135/135/135
f 137/137/137 138/138/138 139/139/139
f 140/140/140 137/137/137 139/139/139
f 141/141/141 142/142/142 143/143/143
f 141/141/141 144/144/144 142/142/142
f 145/145/145 146/146/146 147/147/147
f 146/146/146 148/148/148 147/147/147
f 149/149/149 150/150/150 151/151/151
f 149/149/149 152/152/152 150/150/150
f 153/153/153 154/154/154 155/155/155
f 153/153/153 156/156/156 154/154/154
f 157/157/157 158/158/158 159/159/159
f 157/157/157 159/159/159 160/160/160
f 157/157/157 160/160/160 161/161/161
f 160/160/160 162/162/162 161/161/161
f 163/163/163 164/164/164 165/165/165
f 164/164/164 166/166/166 165/165/165
f 167/167/167 168/168/168 163/163/163
f 167/167/167 163/163/163 165/165/165
f 169/169/169 170/170/170 171/171/171
f 172/172/172 169/169/169 171/171/171
f 173/173/173 174/174/174 170/170/170
f 169/169/169 173/173/173 170/170/170
f 24/24/24 23/23/23 175/175/175
f 176/176/176 24/24/24 175/175/175
f 176/176/176 175/175/175 134/134/134
f 133/133/133 176/176/176 134/134/134
f 177/177/177 178/178/178 179/179/179
f 177/177/177 179/179/179 180/180/180
f 181/181/181 182/182/182 183/183/183
f 181/181/181 183/183/183 184/184/184
f 32/32/32 185/185/185 186/186/186
f 185/185/185 32/32/32 31/31/31
f 158/158/158 186/186/186 159/159/159
f 159/159/159 186/186/186 185/185/185
f 33/33/33 35/35/35 187/187/187
f 188/188/188 187/187/187 35/35/35
f 187/187/187 188/188/188 164/164/164
f 164/164/164 188/188/188 166/166/166
f 31/31/31 38/38/38 189/189/189
f 185/185/185 31/31/31 189/189/189
f 185/185/185 189/189/189 190/190/190
f 159/159/159 185/185/185 190/190/190
f 191/191/191 33/33/33 187/187/187
f 191/191/191 47/47/47 33/33/33
f 192/192/192 187/187/187 164/164/164
f 192/192/192 191/191/191 187/187/187
f 38/38/38 44/44/44 193/193/193
f 189/189/189 38/38/38 193/193/193
f 189/189/189 193/193/193 194/194/194
f 190/190/190 189/189/189 194/194/194
f 195/195/195 47/47/47 191/191/191
f 195/195/195 45/45/45 47/47/47
f 196/196/196 191/191/191 192/192/192
f 196/196/196 195/195/195 191/191/191
f 44/44/44 50/50/50 197/197/197
f 193/193/193 44/44/44 197/197/197
f 193/193/193 197/197/197 198/198/198
f 194/194/194 193/193/193 198/198/198
f 199/199/199 45/45/45 195/195/195
f 199/199/199 59/59/59 45/45/45
f 200/200/200 195/195/195 196/196/196
f 200/200/200 199/199/199 195/195/195
f 50/50/50 56/56/56 201/201/201
f 197/197/197 50/50/50 201/201/201
f 197/197/197 201/201/201 202/202/202
f 198/198/198 197/197/197 202/202/202
f 203/203/203 59/59/59 199/199/199
f 203/203/203 57/57/57 59/59/59
f 204/204/204 199/199/199 200/200/200
f 204/204/204 203/203/203 199/199/199
f 56/56/56 62/62/62 205/205/205
f 201/201/201 56/56/56 205/205/205
f 201/201/201 205/205/205 206/206/206
f 202/202/202 201/201/201 206/206/206
f 207/207/207 57/57/57 203/203/203
f 207/207/207 71/71/71 57/57/57
f 208/208/208 203/203/203 204/204/204
f 208/208/208 207/207/207 203/203/203
f 62/62/62 68/68/68 209/209/209
f 205/205/205 62/62/62 209/209/209
f 205/205/205 209/209/209 210/210/210
f 206/206/206 205/205/205 210/210/210
f 211/211/211 71/71/71 207/207/207
f 211/211/211 69/69/69 71/71/71
f 212/212/212 207/207/207 208/208/208
f 212/212/212 211/211/211 207/207/207
f 68/68/68 74/74/74 213/213/213
f 209/209/209 68/68/68 213/213/213
f 209/209/209 213/213/213 137/137/137
f 210/210/210 209/209/209 137/137/137
f 74/74/74 76/76/76 214/214/214
f 213/213/213 74/74/74 214/214/214
f 213/213/213 214/214/214 138/138/138
f 137/137/137 213/213/213 138/138/138
f 215/215/215 69/69/69 211/211/211
f 215/215/215 83/83/83 69/69/69
f 142/142/142 211/211/211 212/212/212
f 142/142/142 215/215/215 211/211/211
f 216/216/216 83/83/83 215/215/215
f 216/216/216 81/81/81 83/83/83
f 144/144/144 215/215/215 142/142/142
f 144/144/144 216/216/216 215/215/215
g submesh1
f 217/217/217 218/218/218 219/219/219
f 220/220/220 217/217/217 219/219/219
f 221/221/221 222/222/222 223/223/223
f 224/224/224 221/221/221 223/223/223
f 222/222/222 225/225/225 226/226/226
f 223/223/223 222/222/222 226/226/226
f 225/225/225 227/227/227 228/228/228
f 226/226/226 225/225/225 228/228/228
f 227/227/227 229/229/229 230/230/230
f 228/228/228 227/227/227 230/230/230
f 229/229/229 231/231/231 232/232/232
f 230/230/230 229/229/229 232/232/232
f 231/231/231 233/233/233 234/234/234
f 232/232/232 231/231/231 234/234/234
f 233/233/233 235/235/235 236/236/236
f 234/234/234 233/233/233 236/236/236
f 237/237/237 238/238/238 239/239/239
f 240/240/240 237/237/237 239/239/239
