v 0.7499996 -3 0.2499999
v 0.9999996 -3 0.2499998
v 0.7500005 4 0.2500004
v 1 4 0.2499999
v 0.9999996 -3 0.2499998
v 0.9999995 -3 -2.384186E-07
v 1 4 0.2499999
v 1 4 -2.056361E-06
v 0.9999995 -3 -2.384186E-07
v 0.7499995 -3 -1.490116E-07
v 1 4 -2.056361E-06
v 0.75 4 3.650781E-07
v -1 -3 4.768372E-07
v -1 -3 0.2500005
v -1 4 1.490121E-07
v -0.9999995 4 0.2500001
v 0.7500005 4 0.2500004
v 1 4 0.2499999
v 0.75 4 3.650781E-07
v 1 4 -2.056361E-06
v 0.7499995 -3 -1.490116E-07
v 0.9999995 -3 -2.384186E-07
v 0.7499996 -3 0.2499999
v 0.9999996 -3 0.2499998
v -0.7500005 -3 3.874302E-07
v -0.7500004 -3 0.2500004
v -1 -3 4.768372E-07
v -1 -3 0.2500005
v -0.75 4 -3.650781E-07
v -0.7500005 -3 3.874302E-07
v -1 4 1.490121E-07
v -1 -3 4.768372E-07
v -0.7500004 -3 0.2500004
v -0.7499995 4 0.2499996
v -1 -3 0.2500005
v -0.9999995 4 0.2500001
v -0.7499995 4 0.2499996
v -0.75 4 -3.650781E-07
v -0.9999995 4 0.2500001
v -1 4 1.490121E-07
v 0.7499996 -3 0.2499999
v 0.7500005 4 0.2500004
v 0.7499995 -3 -1.490116E-07
v 0.75 4 3.650781E-07
v -0.7499995 4 0.2499996
v -0.7500004 -3 0.2500004
v -0.75 4 -3.650781E-07
v -0.7500005 -3 3.874302E-07
v 0.7499996 -3 0.1249999
v 0.7499993 4 0.1250004
v -0.7500004 -3 0.1250004
v -0.7500007 4 0.1249996
vn 3.576279E-07 -7.237712E-08 1
vn 1.192093E-06 -4.257489E-08 1
vn 1.192093E-06 -4.257489E-08 1
vn 2.026558E-06 -1.277267E-08 1
vn 1 -1.192093E-07 -4.768372E-07
vn 1 -9.366468E-08 -1.192086E-06
vn 1 -9.366468E-08 -1.192086E-06
vn 1 -6.812009E-08 -1.907334E-06
vn -3.576279E-07 -2.59706E-07 -1
vn -5.021691E-06 -9.313197E-08 -1
vn -5.021691E-06 -9.313197E-08 -1
vn -9.685755E-06 7.344205E-08 -1
vn -1 6.811962E-08 4.768372E-07
vn -1 9.792198E-08 1.311302E-06
vn -1 9.792198E-08 1.311302E-06
vn -1 1.277243E-07 2.145767E-06
vn 0 1 0
vn 0 1 0
vn 0 1 0
vn 0 1 0
vn 0 -1 0
vn 0 -1 0
vn 0 -1 0
vn 0 -1 0
vn 0 -1 0
vn 0 -1 0
vn 0 -1 0
vn 0 -1 0
vn -2.056361E-06 -1.07501E-07 -1
vn -1.206994E-06 -7.716659E-08 -1
vn -1.206994E-06 -7.716659E-08 -1
vn -3.576279E-07 -4.683213E-08 -1
vn 3.576279E-07 1.064368E-07 1
vn 1.192093E-06 7.663439E-08 1
vn 1.192093E-06 7.663439E-08 1
vn 2.026558E-06 4.683196E-08 1
vn 0 1 0
vn 0 1 0
vn 0 1 0
vn 0 1 0
vn -1 1.277242E-07 4.768372E-07
vn -1 9.792183E-08 1.311302E-06
vn -1 9.792183E-08 1.311302E-06
vn -1 6.811944E-08 2.145767E-06
vn 1 -1.277245E-07 -2.145767E-06
vn 1 -9.792205E-08 -1.311302E-06
vn 1 -9.792205E-08 -1.311302E-06
vn 1 -6.811964E-08 -4.768372E-07
vn 3.576279E-07 -7.237706E-08 1
vn -6.208816E-08 1.756208E-08 1
vn -6.208816E-08 1.756208E-08 1
vn -4.818042E-07 1.075012E-07 1
vt -0.7499996 -3
vt -0.9999996 -3
vt -0.7500004 4
vt -1 4
vt -1.875 -3
vt -2.125 -3
vt -1.875 4
vt -2.125002 4
vt 0.9999995 -3
vt 0.7499995 -3
vt 1 4
vt 0.75 4
vt 2.125 -3
vt 1.875 -3
vt 2.125 4
vt 1.875 4
vt 0.7500005 -1.875
vt 1 -1.875
vt 0.75 -2.125
vt 1 -2.125002
vt -0.7499995 -2.125
vt -0.9999995 -2.125
vt -0.7499996 -1.875
vt -0.9999996 -1.875
vt 0.7500005 -2.125
vt 0.7500004 -1.875
vt 1 -2.125
vt 1 -1.875
vt -0.75 4
vt -0.7500005 -3
vt -1 4
vt -1 -3
vt 0.7500005 -3
vt 0.7499995 4
vt 1 -3
vt 0.9999996 4
vt -0.7499995 -1.875
vt -0.75 -2.125
vt -0.9999995 -1.875
vt -1 -2.125
vt 1.875 -3
vt 1.874999 4
vt 2.125 -3
vt 2.124999 4
vt -1.875002 4
vt -1.875001 -3
vt -2.125002 4
vt -2.125001 -3
vt -0.7499995 -3
vt -0.7499992 4
vt 0.7500005 -3
vt 0.7500008 4
g submesh0
f 1/1/1 2/2/2 3/3/3
f 2/2/2 4/4/4 3/3/3
f 5/5/5 6/6/6 7/7/7
f 6/6/6 8/8/8 7/7/7
f 9/9/9 10/10/10 11/11/11
f 10/10/10 12/12/12 11/11/11
f 13/13/13 14/14/14 15/15/15
f 14/14/14 16/16/16 15/15/15
f 17/17/17 18/18/18 19/19/19
f 18/18/18 20/20/20 19/19/19
f 21/21/21 22/22/22 23/23/23
f 22/22/22 24/24/24 23/23/23
f 25/25/25 26/26/26 27/27/27
f 26/26/26 28/28/28 27/27/27
f 29/29/29 30/30/30 31/31/31
f 30/30/30 32/32/32 31/31/31
f 33/33/33 34/34/34 35/35/35
f 34/34/34 36/36/36 35/35/35
f 37/37/37 38/38/38 39/39/39
f 38/38/38 40/40/40 39/39/39
f 41/41/41 42/42/42 43/43/43
f 42/42/42 44/44/44 43/43/43
f 45/45/45 46/46/46 47/47/47
f 46/46/46 48/48/48 47/47/47
g submesh1
f 49/49/49 50/50/50 51/51/51
f 50/50/50 52/52/52 51/51/51
