v 0.7499996 -3 0.2499999
v 0.9999996 -3 0.2499998
v 0.7499993 5 0.2500038
v 0.9999993 5 0.2499949
v 0.9999996 -3 0.2499998
v 0.9999995 -3 -2.384186E-07
v 0.9999993 5 0.2499949
v 1 5 -5.066493E-06
v 0.9999995 -3 -2.384186E-07
v 0.7499995 -3 -1.490116E-07
v 1 5 -5.066493E-06
v 0.7500001 5 3.740094E-06
v -1 -3 4.768372E-07
v -1 -3 0.2500005
v -0.9999999 5 4.351048E-06
v -1.000001 5 0.2500044
v 0.7499993 5 0.2500038
v 0.9999993 5 0.2499949
v 0.7500001 5 3.740094E-06
v 1 5 -5.066493E-06
v 0.7499995 -3 -1.490116E-07
v 0.9999995 -3 -2.384186E-07
v 0.7499996 -3 0.2499999
v 0.9999996 -3 0.2499998
v -0.7500005 -3 3.874302E-07
v -0.7500004 -3 0.2500004
v -1 -3 4.768372E-07
v -1 -3 0.2500005
v -0.7499999 5 -4.455539E-06
v -0.7500005 -3 3.874302E-07
v -0.9999999 5 4.351048E-06
v -1 -3 4.768372E-07
v -0.7500004 -3 0.2500004
v -0.7500007 5 0.2499955
v -1 -3 0.2500005
v -1.000001 5 0.2500044
v -0.7500007 5 0.2499955
v -0.7499999 5 -4.455539E-06
v -1.000001 5 0.2500044
v -0.9999999 5 4.351048E-06
v 0.7499996 -3 0.2499999
v 0.7499993 5 0.2500038
v 0.7499995 -3 -1.490116E-07
v 0.7500001 5 3.740094E-06
v -0.7500007 5 0.2499955
v -0.7500004 -3 0.2500004
v -0.7499999 5 -4.455539E-06
v -0.7500005 -3 3.874302E-07
v 0.7499996 -3 0.1249999
v 0.7499987 5 0.1250037
v -0.7500004 -3 0.1250004
v -0.7500013 5 0.1249955
vn 3.576279E-07 -4.88013E-07 1
vn 1.782179E-05 5.774265E-08 1
vn 1.782179E-05 5.774265E-08 1
vn 3.528595E-05 6.034983E-07 1
vn 1 3.725262E-08 -4.768372E-07
vn 1 -1.862566E-08 1.311302E-06
vn 1 -1.862566E-08 1.311302E-06
vn 1 -7.450394E-08 3.099442E-06
vn -3.576279E-07 -6.035093E-07 -1
vn -1.779198E-05 -5.868435E-08 -1
vn -1.779198E-05 -5.868435E-08 -1
vn -3.522634E-05 4.861406E-07 -1
vn -1 6.7055E-08 4.768372E-07
vn -1 1.117651E-08 -1.311302E-06
vn -1 1.117651E-08 -1.311302E-06
vn -1 -4.470198E-08 -3.099442E-06
vn 0 1 0
vn 0 1 0
vn 0 1 0
vn 0 1 0
vn 0 -1 0
vn 0 -1 0
vn 0 -1 0
vn 0 -1 0
vn 0 -1 0
vn 0 -1 0
vn 0 -1 0
vn 0 -1 0
vn -3.522635E-05 -6.053688E-07 -1
vn -1.779199E-05 -6.05462E-08 -1
vn -1.779199E-05 -6.05462E-08 -1
vn -3.576279E-07 4.842764E-07 -1
vn 3.576279E-07 6.053597E-07 1
vn 1.779198E-05 6.053676E-08 1
vn 1.779198E-05 6.053676E-08 1
vn 3.522634E-05 -4.842861E-07 1
vn 0 1 0
vn 0 1 0
vn 0 1 0
vn 0 1 0
vn -1 -3.725314E-08 4.768372E-07
vn -1 1.490174E-08 -1.192093E-06
vn -1 1.490174E-08 -1.192093E-06
vn -1 6.705661E-08 -2.861023E-06
vn 1 3.725464E-08 2.861023E-06
vn 1 -1.490044E-08 1.192093E-06
vn 1 -1.490044E-08 1.192093E-06
vn 1 -6.705552E-08 -4.768372E-07
vn 3.576279E-07 -4.861503E-07 1
vn -2.553066E-06 5.960439E-08 1
vn -2.553066E-06 5.960439E-08 1
vn -5.463759E-06 6.053591E-07 1
vt -0.7499996 -3
vt -0.9999996 -3
vt -0.7499992 5
vt -0.9999993 5
vt -1.875 -3
vt -2.125 -3
vt -1.875005 5
vt -2.125005 5
vt 0.9999995 -3
vt 0.7499995 -3
vt 1 5
vt 0.7500001 5
vt 2.125 -3
vt 1.875 -3
vt 2.124996 5
vt 1.874996 5
vt 0.7499993 -1.874996
vt 0.9999993 -1.875005
vt 0.7500001 -2.124996
vt 1 -2.125005
vt -0.7499995 -2.125
vt -0.9999995 -2.125
vt -0.7499996 -1.875
vt -0.9999996 -1.875
vt 0.7500005 -2.125
vt 0.7500004 -1.875
vt 1 -2.125
vt 1 -1.875
vt -0.7499999 5
vt -0.7500005 -3
vt -0.9999999 5
vt -1 -3
vt 0.7500005 -3
vt 0.7500007 5
vt 1 -3
vt 1.000001 5
vt -0.7500007 -1.875004
vt -0.7499999 -2.125005
vt -1.000001 -1.874996
vt -0.9999999 -2.124996
vt 1.875 -3
vt 1.874996 5
vt 2.125 -3
vt 2.124996 5
vt -1.875002 5
vt -1.874997 -3
vt -2.125002 5
vt -2.124997 -3
vt -0.7499995 -3
vt -0.7499987 5
vt 0.7500005 -3
vt 0.7500013 5
g submesh0
f 1/1/1 2/2/2 3/3/3
f 2/2/2 4/4/4 3/3/3
f 5/5/5 6/6/6 7/7/7
f 6/6/6 8/8/8 7/7/7
f 9/9/9 10/10/10 11/11/11
f 10/10/10 12/12/12 11/11/11
f 13/13/13 14/14/14 15/15/15
f 14/14/14 16/16/16 15/15/15
f 17/17/17 18/18/18 19/19/19
f 18/18/18 20/20/20 19/19/19
f 21/21/21 22/22/22 23/23/23
f 22/22/22 24/24/24 23/23/23
f 25/25/25 26/26/26 27/27/27
f 26/26/26 28/28/28 27/27/27
f 29/29/29 30/30/30 31/31/31
f 30/30/30 32/32/32 31/31/31
f 33/33/33 34/34/34 35/35/35
f 34/34/34 36/36/36 35/35/35
f 37/37/37 38/38/38 39/39/39
f 38/38/38 40/40/40 39/39/39
f 41/41/41 42/42/42 43/43/43
f 42/42/42 44/44/44 43/43/43
f 45/45/45 46/46/46 47/47/47
f 46/46/46 48/48/48 47/47/47
g submesh1
f 49/49/49 50/50/50 51/51/51
f 50/50/50 52/52/52 51/51/51
