v 0.7499996 -3 0.2499999
v 0.9999996 -3 0.2499998
v 0.7500053 4 0.250001
v 1.000002 4 0.2500005
v 0.9999996 -3 0.2499998
v 0.9999995 -3 -2.384186E-07
v 1.000002 4 0.2500005
v 1.000003 4 -1.430494E-06
v 0.9999995 -3 -2.384186E-07
v 0.7499995 -3 -1.490116E-07
v 1.000003 4 -1.430494E-06
v 0.7500048 4 9.909559E-07
v -1 -3 4.768372E-07
v -1 -3 0.2500005
v -0.9999952 4 7.748898E-07
v -0.9999947 4 0.2500008
v 0.7500053 4 0.250001
v 1.000002 4 0.2500005
v 0.7500048 4 9.909559E-07
v 1.000003 4 -1.430494E-06
v 0.7499995 -3 -1.490116E-07
v 0.9999995 -3 -2.384186E-07
v 0.7499996 -3 0.2499999
v 0.9999996 -3 0.2499998
v -0.7500005 -3 3.874302E-07
v -0.7500004 -3 0.2500004
v -1 -3 4.768372E-07
v -1 -3 0.2500005
v -0.7499952 4 2.607997E-07
v -0.7500005 -3 3.874302E-07
v -0.9999952 4 7.748898E-07
v -1 -3 4.768372E-07
v -0.7500004 -3 0.2500004
v -0.7499947 4 0.2500003
v -1 -3 0.2500005
v -0.9999947 4 0.2500008
v -0.7499947 4 0.2500003
v -0.7499952 4 2.607997E-07
v -0.9999947 4 0.2500008
v -0.9999952 4 7.748898E-07
v 0.7499996 -3 0.2499999
v 0.7500053 4 0.250001
v 0.7499995 -3 -1.490116E-07
v 0.7500048 4 9.909559E-07
v -0.7499947 4 0.2500003
v -0.7500004 -3 0.2500004
v -0.7499952 4 2.607997E-07
v -0.7500005 -3 3.874302E-07
v 0.7499996 -3 0.1249999
v 0.7500002 4 0.125001
v -0.7500004 -3 0.1250004
v -0.7499998 4 0.1250003
vn 3.576279E-07 -1.617843E-07 1
vn 1.192105E-06 -1.319823E-07 1
vn 1.192105E-06 -1.319823E-07 1
vn 2.026582E-06 -1.021802E-07 1
vn 1 -3.916876E-07 -4.768372E-07
vn 1 -4.342622E-07 7.152485E-07
vn 1 -4.342622E-07 7.152485E-07
vn 1 -4.768368E-07 1.907334E-06
vn -3.576279E-07 -1.702963E-07 -1
vn -5.02175E-06 -3.718256E-09 -1
vn -5.02175E-06 -3.718256E-09 -1
vn -9.685871E-06 1.628597E-07 -1
vn -1 7.493155E-07 4.768372E-07
vn -1 7.791178E-07 1.311302E-06
vn -1 7.791178E-07 1.311302E-06
vn -1 8.089201E-07 2.145767E-06
vn 0 1 0
vn 0 1 0
vn 0 1 0
vn 0 1 0
vn 0 -1 0
vn 0 -1 0
vn 0 -1 0
vn 0 -1 0
vn 0 -1 0
vn 0 -1 0
vn 0 -1 0
vn 0 -1 0
vn -2.056361E-06 -1.808854E-08 -1
vn -1.206994E-06 1.224534E-08 -1
vn -1.206994E-06 1.224534E-08 -1
vn -3.576279E-07 4.257922E-08 -1
vn 3.576279E-07 1.702961E-08 1
vn 1.192093E-06 -1.277339E-08 1
vn 1.192093E-06 -1.277339E-08 1
vn 2.026558E-06 -4.257639E-08 1
vn 0 1 0
vn 0 1 0
vn 0 1 0
vn 0 1 0
vn -1 8.089201E-07 4.768372E-07
vn -1 7.791176E-07 1.311302E-06
vn -1 7.791176E-07 1.311302E-06
vn -1 7.493152E-07 2.145767E-06
vn 1 -8.089202E-07 -2.145767E-06
vn 1 -7.791178E-07 -1.311302E-06
vn 1 -7.791178E-07 -1.311302E-06
vn 1 -7.493155E-07 -4.768372E-07
vn 3.576279E-07 -1.639128E-07 1
vn -6.457171E-08 -7.344143E-08 1
vn -6.457171E-08 -7.344143E-08 1
vn -4.867713E-07 1.702995E-08 1
vt -0.7499996 -3
vt -0.9999996 -3
vt -0.7500052 4
vt -1.000002 4
vt -1.875 -3
vt -2.125 -3
vt -1.874999 4
vt -2.125001 4
vt 0.9999995 -3
vt 0.7499995 -3
vt 1.000003 4
vt 0.7500048 4
vt 2.125 -3.000001
vt 1.875 -3.000001
vt 2.125 3.999999
vt 1.875 3.999999
vt 0.7500053 -1.874999
vt 1.000002 -1.875
vt 0.7500048 -2.124999
vt 1.000003 -2.125001
vt -0.7499995 -2.125
vt -0.9999995 -2.125
vt -0.7499996 -1.875
vt -0.9999996 -1.875
vt 0.7500005 -2.125
vt 0.7500004 -1.875
vt 1 -2.125
vt 1 -1.875
vt -0.7499952 4
vt -0.7500005 -3
vt -0.9999952 4
vt -1 -3
vt 0.7500005 -3
vt 0.7499948 4
vt 1 -3
vt 0.9999948 4
vt -0.7499947 -1.875
vt -0.7499952 -2.125
vt -0.9999947 -1.874999
vt -0.9999952 -2.124999
vt 1.875 -2.999999
vt 1.874999 4
vt 2.125 -2.999999
vt 2.124999 4
vt -1.875001 3.999999
vt -1.875001 -3.000001
vt -2.125001 3.999999
vt -2.125001 -3.000001
vt -0.7499995 -3
vt -0.7500002 4
vt 0.7500005 -3
vt 0.7499998 4
g submesh0
f 1/1/1 2/2/2 3/3/3
f 2/2/2 4/4/4 3/3/3
f 5/5/5 6/6/6 7/7/7
f 6/6/6 8/8/8 7/7/7
f 9/9/9 10/10/10 11/11/11
f 10/10/10 12/12/12 11/11/11
f 13/13/13 14/14/14 15/15/15
f 14/14/14 16/16/16 15/15/15
f 17/17/17 18/18/18 19/19/19
f 18/18/18 20/20/20 19/19/19
f 21/21/21 22/22/22 23/23/23
f 22/22/22 24/24/24 23/23/23
f 25/25/25 26/26/26 27/27/27
f 26/26/26 28/28/28 27/27/27
f 29/29/29 30/30/30 31/31/31
f 30/30/30 32/32/32 31/31/31
f 33/33/33 34/34/34 35/35/35
f 34/34/34 36/36/36 35/35/35
f 37/37/37 38/38/38 39/39/39
f 38/38/38 40/40/40 39/39/39
f 41/41/41 42/42/42 43/43/43
f 42/42/42 44/44/44 43/43/43
f 45/45/45 46/46/46 47/47/47
f 46/46/46 48/48/48 47/47/47
g submesh1
f 49/49/49 50/50/50 51/51/51
f 50/50/50 52/52/52 51/51/51
