v 0 0 0
v 5 0 0
v 0 1 -1.907349E-06
v 5.000002 1 0
v 5 0 0
v 5 0 -7
v 5.000002 1 0
v 5 1 -7
v 5 0 -7
v 0 0 -7
v 5 1 -7
v 1.907349E-06 1 -7
v 0 0 -7
v 0 0 0
v 1.907349E-06 1 -7
v 0 1 -1.907349E-06
v 0 1 -1.907349E-06
v 5.000002 1 0
v 1.907349E-06 1 -7
v 5 1 -7
v 0 0 -7
v 5 0 -7
v 0 0 0
v 5 0 0
vn 0 1.907349E-06 1
vn -1.907348E-07 9.536747E-07 1
vn -1.907348E-07 9.536747E-07 1
vn -3.814696E-07 7.275955E-13 1
vn 1 -1.907349E-06 0
vn 1 -9.536743E-07 -1.362392E-07
vn 1 -9.536743E-07 -1.362392E-07
vn 1 0 -2.724784E-07
vn 0 0 -1
vn 0 0 -1
vn 0 0 -1
vn 0 0 -1
vn -1 1.907349E-06 0
vn -1 9.53674E-07 -1.362392E-07
vn -1 9.53674E-07 -1.362392E-07
vn -1 -5.197114E-13 -2.724784E-07
vn 0 1 0
vn 0 1 0
vn 0 1 0
vn 0 1 0
vn 0 -1 0
vn 0 -1 0
vn 0 -1 0
vn 0 -1 0
vt 0 0
vt -5 0
vt 0 1
vt -5.000002 1
vt 0 9.536743E-06
vt -7 9.536743E-06
vt 0 1.00001
vt -7 1.00001
vt 5 0
vt 0 0
vt 5 1
vt 1.907349E-06 1
vt 7 0
vt 0 0
vt 7 1
vt 1.907349E-06 1
vt 0 -1.907349E-06
vt 5.000002 0
vt 1.907349E-06 -7
vt 5 -7
vt 0 -7
vt -5 -7
vt 0 0
vt -5 0
g submesh0
f 1/1/1 2/2/2 3/3/3
f 2/2/2 4/4/4 3/3/3
f 5/5/5 6/6/6 7/7/7
f 6/6/6 8/8/8 7/7/7
f 9/9/9 10/10/10 11/11/11
f 10/10/10 12/12/12 11/11/11
f 13/13/13 14/14/14 15/15/15
f 14/14/14 16/16/16 15/15/15
f 17/17/17 18/18/18 19/19/19
f 18/18/18 20/20/20 19/19/19
f 21/21/21 22/22/22 23/23/23
f 22/22/22 24/24/24 23/23/23
