v 0 0 0
v 5 0 0
v 0 3 0
v 5 3 0
v 10 0 0
v 10 0 -10
v 10 3 0
v 10 3 -10
v 5 0 -20
v 0 0 -20
v 5 3 -20
v 0 3 -20
v 0 0 -10
v 0 0 0
v 0 3 -10
v 0 3 0
v 0 0 -10
v 5 0 -10
v 0 0 0
v 5 0 0
v 10 0 0
v 10 0 -10
v 10 3 0
v 10 0 0
v 10 0 -20
v 10 3 -20
v 0 3 -10
v 5 3 -10
v 0 6 -10
v 5 6 -10
v 5 6 -20
v 0 6 -20
v 10 3 -10
v 10 6 -10
v 10 6 -20
v 0 3 -15
v 0 0 -15
v 0 3 -20
v 0 0 -20
v 12 0 -15
v 5 0 -15
v 10 0 -20
v 5 0 -20
v 10 0 -10
v 12 0 -15
v 12 3 -15
v 10 3 -10
v 12 0 -15
v 10 0 -20
v 10 3 -20
v 12 3 -15
v 0 0 -15
v 0 0 -20
v 0 6 -20
v 0 6 -15
v 0 6 -10
v 12 6 -15
v 10 6 -10
v 10 6 -20
v 12 6 -15
v 0 3 0
v 5 3 0
v 0 3 -10
v 5 3 -10
v 10 3 -10
v 10 3 0
v 12 6 -15
v 5 6 -15
v 5 6 -10
v 10 6 -10
v 10 6 -20
v 5 6 -20
v 0 6 -15
v 0 6 -10
v 0 6 -20
vn 0 0 1
vn 0 0 1
vn 0 0 1
vn 0 0 1
vn 1 0 0
vn 1 0 0
vn 1 0 0
vn 1 0 0
vn 0 0 -1
vn 0 0 -1
vn 0 0 -1
vn 0 0 -1
vn -1 0 0
vn -1 0 0
vn -1 0 0
vn -1 0 0
vn 0 -1 0
vn 0 -1 0
vn 0 -1 0
vn 0 -1 0
vn 0 -1 0
vn 0 -1 0
vn 0 0 1
vn 0 0 1
vn 0 0 -1
vn 0 0 -1
vn 0 0 1
vn 0 0 1
vn 0 0 1
vn 0 0 1
vn 0 0 -1
vn 0 0 -1
vn 0 0 1
vn 0 0 1
vn 0 0 -1
vn -1 0 0
vn -1 0 0
vn -1 0 0
vn -1 0 0
vn 0 -1 0
vn 0 -1 0
vn 0 -1 0
vn 0 -1 0
vn 0.9284767 0 0.3713907
vn 0.9284767 0 0.3713907
vn 0.9284767 0 0.3713907
vn 0.9284767 0 0.3713907
vn 0.9284767 0 -0.3713907
vn 0.9284767 0 -0.3713907
vn 0.9284767 0 -0.3713907
vn 0.9284767 0 -0.3713907
vn 0 -1 0
vn 0 -1 0
vn -1 0 0
vn -1 0 0
vn -1 0 0
vn 0.9284767 0 0.3713907
vn 0.9284767 0 0.3713907
vn 0.9284767 0 -0.3713907
vn 0.9284767 0 -0.3713907
vn 0 1 0
vn 0 1 0
vn 0 1 0
vn 0 1 0
vn 0 1 0
vn 0 1 0
vn 0 1 0
vn 0 1 0
vn 0 1 0
vn 0 1 0
vn 0 1 0
vn 0 1 0
vn 0 1 0
vn 0 1 0
vn 0 1 0
vt 0 0
vt -5 0
vt 0 3
vt -5 3
vt 0 0
vt -10 0
vt 0 3
vt -10 3
vt 5 0
vt 0 0
vt 5 3
vt 0 3
vt 10 0
vt 0 0
vt 10 3
vt 0 3
vt 0 -10
vt -5 -10
vt 0 0
vt -5 0
vt -10 0
vt -10 -10
vt -10 3
vt -10 0
vt 10 0
vt 10 3
vt 0 3
vt -5 3
vt 0 6
vt -5 6
vt 5 6
vt 0 6
vt -10 3
vt -10 6
vt 10 6
vt 15 3
vt 15 0
vt 20 3
vt 20 0
vt -12 -15
vt -5 -15
vt -10 -20
vt -5 -20
vt -10 0
vt -15 0
vt -15 3
vt -10 3
vt -15 0
vt -20 0
vt -20 3
vt -15 3
vt 0 -15
vt 0 -20
vt 20 6
vt 15 6
vt 10 6
vt -15 6
vt -10 6
vt -20 6
vt -15 6
vt 0 0
vt 5 0
vt 0 -10
vt 5 -10
vt 10 -10
vt 10 0
vt 12 -15
vt 5 -15
vt 5 -10
vt 10 -10
vt 10 -20
vt 5 -20
vt 0 -15
vt 0 -10
vt 0 -20
g submesh0
f 1/1/1 2/2/2 3/3/3
f 2/2/2 4/4/4 3/3/3
f 5/5/5 6/6/6 7/7/7
f 6/6/6 8/8/8 7/7/7
f 9/9/9 10/10/10 11/11/11
f 10/10/10 12/12/12 11/11/11
f 13/13/13 14/14/14 15/15/15
f 14/14/14 16/16/16 15/15/15
f 17/17/17 18/18/18 19/19/19
f 18/18/18 20/20/20 19/19/19
f 20/20/20 18/18/18 21/21/21
f 18/18/18 22/22/22 21/21/21
f 4/4/4 2/2/2 23/23/23
f 2/2/2 24/24/24 23/23/23
f 9/9/9 11/11/11 25/25/25
f 11/11/11 26/26/26 25/25/25
f 27/27/27 28/28/28 29/29/29
f 28/28/28 30/30/30 29/29/29
f 11/11/11 12/12/12 31/31/31
f 12/12/12 32/32/32 31/31/31
f 28/28/28 33/33/33 30/30/30
f 33/33/33 34/34/34 30/30/30
f 26/26/26 11/11/11 35/35/35
f 11/11/11 31/31/31 35/35/35
f 36/36/36 13/13/13 15/15/15
f 36/36/36 37/37/37 13/13/13
f 38/38/38 37/37/37 36/36/36
f 38/38/38 39/39/39 37/37/37
f 18/18/18 40/40/40 22/22/22
f 18/18/18 41/41/41 40/40/40
f 41/41/41 42/42/42 40/40/40
f 41/41/41 43/43/43 42/42/42
f 44/44/44 45/45/45 46/46/46
f 47/47/47 44/44/44 46/46/46
f 48/48/48 49/49/49 50/50/50
f 51/51/51 48/48/48 50/50/50
f 17/17/17 41/41/41 18/18/18
f 17/17/17 52/52/52 41/41/41
f 52/52/52 43/43/43 41/41/41
f 52/52/52 53/53/53 43/43/43
f 54/54/54 36/36/36 55/55/55
f 54/54/54 38/38/38 36/36/36
f 55/55/55 15/15/15 56/56/56
f 55/55/55 36/36/36 15/15/15
f 47/47/47 46/46/46 57/57/57
f 58/58/58 47/47/47 57/57/57
f 51/51/51 50/50/50 59/59/59
f 60/60/60 51/51/51 59/59/59
g submesh1
f 61/61/61 62/62/62 63/63/63
f 62/62/62 64/64/64 63/63/63
f 64/64/64 62/62/62 65/65/65
f 62/62/62 66/66/66 65/65/65
f 67/67/67 68/68/68 69/69/69
f 70/70/70 67/67/67 69/69/69
f 71/71/71 72/72/72 68/68/68
f 67/67/67 71/71/71 68/68/68
f 68/68/68 73/73/73 74/74/74
f 69/69/69 68/68/68 74/74/74
f 72/72/72 75/75/75 73/73/73
f 68/68/68 72/72/72 73/73/73
