v 22 6 0
v 22 6 4
v 32 6 0
v 32 6 4
v 22 6 -8
v 32 6 -8
v 4 14 -8
v 1.907349E-06 14 -8
v 4 14 0
v 9.536743E-07 14 0
v 4 6 0
v 9.536743E-07 6 0
v 9.536743E-07 6 4
v 4 6 4
v 10 14 -8
v 10 14 0
v 10 6 0
v 10 6 4
v 22 14 -8
v 19 14 -8
v 19 14 0
v 22 14 0
v 19 6 0
v 19 6 4
v 13 14 -8
v 13 14 0
v 13 6 0
v 13 6 4
v 4 6 -5
v 10 6 -5
v 13 6 -5
v 19 6 -5
v -4 6 4
v -4 6 0
v -4 6 0
v 9.536743E-07 6 0
v -4 4 -4
v 9.536743E-07 4 -4
v -4 4 -4
v 9.536743E-07 4 -4
v -4 4 -8
v 9.536743E-07 4 -8
v -4 4 -4
v -4 4 -8
v -10 0 -4
v -10 0 -8
v 32 -2 0
v 32 -2 -8
v 32 6 0
v 32 6 -8
v 0 -2 -8
v 0 -2 0
v 1.907349E-06 6 -8
v 9.536743E-07 6 0
v -4 6 0
v -4 -2 0
v -4 6 4
v -4 -2 4
v 32 -2 4
v 32 6 4
v 22 -2 -8
v 22 6 -8
v 32 -2 -8
v 32 6 -8
v 22 -2 4
v 22 -2 0
v 32 -2 4
v 32 -2 0
v 22 6 4
v 22 -2 4
v 32 6 4
v 32 -2 4
v 22 -2 -8
v 32 -2 -8
v 4 -2 4
v 9.536743E-07 6 4
v 0 -2 4
v 4 6 4
v 4 6 -8
v 4 -2 -8
v 1.907349E-06 6 -8
v 0 -2 -8
v 0 -2 0
v 4 -2 -8
v 4 -2 0
v 0 -2 -8
v 0 -2 4
v 4 -2 4
v 10 -2 4
v 10 6 4
v 10 6 -8
v 10 -2 -8
v 10 -2 -8
v 10 -2 0
v 10 -2 4
v 19 -2 4
v 19 6 4
v 19 -2 -8
v 19 6 -8
v 19 -2 0
v 19 -2 -8
v 19 -2 4
v 13 -2 4
v 13 6 4
v 13 6 -8
v 13 -2 -8
v 13 -2 0
v 13 -2 -8
v 13 -2 4
v 1.907349E-06 11 -8
v 9.536743E-07 11 0
v 1.907349E-06 14 -8
v 9.536743E-07 14 0
v 22 6 0
v 22 6 -8
v 22 11 -8
v 22 11 0
v 22 14 -8
v 22 14 0
v 9.536743E-07 6 0
v 4 6 0
v 4 11 0
v 9.536743E-07 11 0
v 4 14 0
v 9.536743E-07 14 0
v 4 11 -8
v 1.907349E-06 11 -8
v 4 14 -8
v 1.907349E-06 14 -8
v 4 6 -5
v 10 6 -5
v 10 11 -5
v 4 11 -5
v 10 11 0
v 10 14 0
v 10 11 -8
v 10 14 -8
v 19 6 0
v 22 6 0
v 22 11 0
v 19 11 0
v 22 14 0
v 19 14 0
v 22 11 -8
v 19 11 -8
v 22 14 -8
v 19 14 -8
v 10 6 0
v 13 6 0
v 13 11 0
v 13 14 0
v 13 6 -5
v 19 6 -5
v 19 11 -5
v 13 11 -5
v 13 11 -8
v 13 14 -8
v 10 6 0
v 10 11 0
v 10 6 -5
v 10 11 -5
v 4 11 0
v 4 6 0
v 4 11 -5
v 4 6 -5
v 10 11 0
v 4 11 0
v 10 11 -5
v 4 11 -5
v 19 6 0
v 19 11 0
v 19 6 -5
v 19 11 -5
v 13 11 0
v 13 6 0
v 13 11 -5
v 13 6 -5
v 19 11 0
v 13 11 0
v 19 11 -5
v 13 11 -5
v 9.536743E-07 4 -8
v -4 4 -8
v -4 -2 -8
v -4 -2 0
v -4 -2 4
v -4 -2 4
v -4 6 4
v 9.536743E-07 6 0
v 0 -2 0
v 9.536743E-07 4 -4
v 0 -2 -4
v 0 -2 -4
v -4 -2 -4
v -4 -2 -4
v -4 4 -4
v 9.536743E-07 4 -8
v 0 -2 -8
v -4 -2 -8
v -10 -2 -4
v -10 0 -4
v -10 -2 -8
v -10 0 -8
v -4 -2 -4
v -4 4 -4
v -10 -2 -4
v -10 0 -4
v -10 -2 -8
v -10 -2 -4
v -10 0 -8
v -10 -2 -8
vn 0 1 0
vn 0 1 0
vn 0 1 0
vn 0 1 0
vn 0 1 0
vn 0 1 0
vn 0 1 0
vn 0 1 0
vn 0 1 0
vn 0 1 0
vn 0 1 0
vn 0 1 0
vn 0 1 0
vn 0 1 0
vn 0 1 0
vn 0 1 0
vn 0 1 0
vn 0 1 0
vn 0 1 0
vn 0 1 0
vn 0 1 0
vn 0 1 0
vn 0 1 0
vn 0 1 0
vn 0 1 0
vn 0 1 0
vn 0 1 0
vn 0 1 0
vn 0 1 0
vn 0 1 0
vn 0 1 0
vn 0 1 0
vn 0 1 0
vn 0 1 0
vn 0 0.8944272 -0.4472136
vn 0 0.8944272 -0.4472136
vn 0 0.8944272 -0.4472136
vn 0 0.8944272 -0.4472136
vn 0 1 0
vn 0 1 0
vn 0 1 0
vn 0 1 0
vn -0.5547002 0.8320503 0
vn -0.5547002 0.8320503 0
vn -0.5547002 0.8320503 0
vn -0.5547002 0.8320503 0
vn 1 0 0
vn 1 0 0
vn 1 0 0
vn 1 0 0
vn -1 2.384186E-07 0
vn -1 1.788139E-07 -5.960464E-08
vn -1 1.788139E-07 -5.960464E-08
vn -1 1.192093E-07 -1.192093E-07
vn -1 0 0
vn -1 0 0
vn -1 0 0
vn -1 0 0
vn 1 0 0
vn 1 0 0
vn 0 0 -1
vn 0 0 -1
vn 0 0 -1
vn 0 0 -1
vn 0 -1 0
vn 0 -1 0
vn 0 -1 0
vn 0 -1 0
vn 0 0 1
vn 0 0 1
vn 0 0 1
vn 0 0 1
vn 0 -1 0
vn 0 -1 0
vn 0 0 1
vn 0 0 1
vn 0 0 1
vn 0 0 1
vn 0 0 -1
vn 0 0 -1
vn 0 0 -1
vn 0 0 -1
vn 0 -1 0
vn 0 -1 0
vn 0 -1 0
vn 0 -1 0
vn 0 -1 0
vn 0 -1 0
vn 0 0 1
vn 0 0 1
vn 0 0 -1
vn 0 0 -1
vn 0 -1 0
vn 0 -1 0
vn 0 -1 0
vn 0 0 1
vn 0 0 1
vn 0 0 -1
vn 0 0 -1
vn 0 -1 0
vn 0 -1 0
vn 0 -1 0
vn 0 0 1
vn 0 0 1
vn 0 0 -1
vn 0 0 -1
vn 0 -1 0
vn 0 -1 0
vn 0 -1 0
vn -1 0 -1.192093E-07
vn -1 0 -1.192093E-07
vn -1 0 -1.192093E-07
vn -1 0 -1.192093E-07
vn 1 0 0
vn 1 0 0
vn 1 0 0
vn 1 0 0
vn 1 0 0
vn 1 0 0
vn 0 0 1
vn 0 0 1
vn 0 0 1
vn 0 0 1
vn 0 0 1
vn 0 0 1
vn 0 0 -1
vn 0 0 -1
vn 0 0 -1
vn 0 0 -1
vn 0 0 1
vn 0 0 1
vn 0 0 1
vn 0 0 1
vn 0 0 1
vn 0 0 1
vn 0 0 -1
vn 0 0 -1
vn 0 0 1
vn 0 0 1
vn 0 0 1
vn 0 0 1
vn 0 0 1
vn 0 0 1
vn 0 0 -1
vn 0 0 -1
vn 0 0 -1
vn 0 0 -1
vn 0 0 1
vn 0 0 1
vn 0 0 1
vn 0 0 1
vn 0 0 1
vn 0 0 1
vn 0 0 1
vn 0 0 1
vn 0 0 -1
vn 0 0 -1
vn -1 0 0
vn -1 0 0
vn -1 0 0
vn -1 0 0
vn 1 0 0
vn 1 0 0
vn 1 0 0
vn 1 0 0
vn 0 -1 0
vn 0 -1 0
vn 0 -1 0
vn 0 -1 0
vn -1 0 0
vn -1 0 0
vn -1 0 0
vn -1 0 0
vn 1 0 0
vn 1 0 0
vn 1 0 0
vn 1 0 0
vn 0 -1 0
vn 0 -1 0
vn 0 -1 0
vn 0 -1 0
vn 0 0 -1
vn 0 0 -1
vn 0 0 -1
vn 0 -1 0
vn 0 -1 0
vn 0 0 1
vn 0 0 1
vn 1 -1.192093E-07 5.960464E-08
vn 1 -1.390775E-07 2.980232E-08
vn 1 -1.390775E-07 2.980232E-08
vn 1 -1.589457E-07 0
vn 0 -1 0
vn 0 -1 0
vn -1 0 0
vn -1 0 0
vn 1 -1.589457E-07 0
vn 1 -1.589457E-07 0
vn 0 -1 0
vn -1 0 0
vn -1 0 0
vn -1 0 0
vn -1 0 0
vn 0 0 1
vn 0 0 1
vn 0 0 1
vn 0 0 1
vn 0 -1 0
vn 0 -1 0
vn 0 0 -1
vn 0 0 -1
vt 22 0
vt 22 4
vt 32 0
vt 32 4
vt 22 -8
vt 32 -8
vt 4 -8
vt 1.907349E-06 -8
vt 4 0
vt 9.536743E-07 0
vt 4 0
vt 9.536743E-07 0
vt 9.536743E-07 4
vt 4 4
vt 10 -8
vt 10 0
vt 10 0
vt 10 4
vt 22 -8
vt 19 -8
vt 19 0
vt 22 0
vt 19 0
vt 19 4
vt 13 -8
vt 13 0
vt 13 0
vt 13 4
vt 4 -5
vt 10 -5
vt 13 -5
vt 19 -5
vt -4 4
vt -4 0
vt -4 2.683281
vt 9.536743E-07 2.683281
vt -4 -1.788854
vt 9.536743E-07 -1.788854
vt -4 -4
vt 9.536743E-07 -4
vt -4 -8
vt 9.536743E-07 -8
vt -1.109401 -4
vt -1.109401 -8
vt -8.320503 -4
vt -8.320503 -8
vt 0 -2
vt -8 -2
vt 0 6
vt -8 6
vt 8 -2
vt 0 -2
vt 8 6
vt 0 6
vt 0 6
vt 0 -2
vt -4 6
vt -4 -2
vt 4 -2
vt 4 6
vt 22 -2
vt 22 6
vt 32 -2
vt 32 6
vt -22 4
vt -22 0
vt -32 4
vt -32 0
vt -22 6
vt -22 -2
vt -32 6
vt -32 -2
vt -22 -8
vt -32 -8
vt -4 -2
vt -9.536743E-07 6
vt 0 -2
vt -4 6
vt 4 6
vt 4 -2
vt 1.907349E-06 6
vt 0 -2
vt 0 0
vt -4 -8
vt -4 0
vt 0 -8
vt 0 4
vt -4 4
vt -10 -2
vt -10 6
vt 10 6
vt 10 -2
vt -10 -8
vt -10 0
vt -10 4
vt -19 -2
vt -19 6
vt 19 -2
vt 19 6
vt -19 0
vt -19 -8
vt -19 4
vt -13 -2
vt -13 6
vt 13 6
vt 13 -2
vt -13 0
vt -13 -8
vt -13 4
vt 8 11
vt 1.136868E-13 11
vt 8 14
vt 1.136868E-13 14
vt 0 6
vt -8 6
vt -8 11
vt 0 11
vt -8 14
vt 0 14
vt -9.536743E-07 6
vt -4 6
vt -4 11
vt -9.536743E-07 11
vt -4 14
vt -9.536743E-07 14
vt 4 11
vt 1.907349E-06 11
vt 4 14
vt 1.907349E-06 14
vt -4 6
vt -10 6
vt -10 11
vt -4 11
vt -10 11
vt -10 14
vt 10 11
vt 10 14
vt -19 6
vt -22 6
vt -22 11
vt -19 11
vt -22 14
vt -19 14
vt 22 11
vt 19 11
vt 22 14
vt 19 14
vt -10 6
vt -13 6
vt -13 11
vt -13 14
vt -13 6
vt -19 6
vt -19 11
vt -13 11
vt 13 11
vt 13 14
vt 0 6
vt 0 11
vt 5 6
vt 5 11
vt 0 11
vt 0 6
vt -5 11
vt -5 6
vt -10 0
vt -4 0
vt -10 -5
vt -4 -5
vt 0 6
vt 0 11
vt 5 6
vt 5 11
vt 0 11
vt 0 6
vt -5 11
vt -5 6
vt -19 0
vt -13 0
vt -19 -5
vt -13 -5
vt 9.536743E-07 4
vt -4 4
vt -4 -2
vt 4 0
vt 4 4
vt 4 -2
vt 4 6
vt -5.684342E-14 6
vt 0 -2
vt -4 4
vt -4 -2
vt 0 -4
vt 4 -4
vt 4 -2
vt 4 4
vt -8 4
vt -8 -2
vt 4 -8
vt 4 -2
vt 4 0
vt 8 -2
vt 8 0
vt 4 -2
vt 4 4
vt 10 -2
vt 10 0
vt 10 -8
vt 10 -4
vt -10 0
vt -10 -2
g submesh0
f 1/1/1 2/2/2 3/3/3
f 2/2/2 4/4/4 3/3/3
f 5/5/5 1/1/1 6/6/6
f 1/1/1 3/3/3 6/6/6
f 7/7/7 8/8/8 9/9/9
f 9/9/9 8/8/8 10/10/10
f 11/11/11 12/12/12 13/13/13
f 14/14/14 11/11/11 13/13/13
f 15/15/15 7/7/7 9/9/9
f 16/16/16 15/15/15 9/9/9
f 17/17/17 11/11/11 14/14/14
f 18/18/18 17/17/17 14/14/14
f 19/19/19 20/20/20 21/21/21
f 22/22/22 19/19/19 21/21/21
f 1/1/1 23/23/23 24/24/24
f 2/2/2 1/1/1 24/24/24
f 20/20/20 25/25/25 26/26/26
f 21/21/21 20/20/20 26/26/26
f 25/25/25 15/15/15 16/16/16
f 26/26/26 25/25/25 16/16/16
f 23/23/23 27/27/27 28/28/28
f 24/24/24 23/23/23 28/28/28
f 27/27/27 17/17/17 18/18/18
f 28/28/28 27/27/27 18/18/18
f 11/11/11 17/17/17 29/29/29
f 17/17/17 30/30/30 29/29/29
f 27/27/27 23/23/23 31/31/31
f 23/23/23 32/32/32 31/31/31
f 13/13/13 12/12/12 33/33/33
f 12/12/12 34/34/34 33/33/33
f 35/35/35 36/36/36 37/37/37
f 36/36/36 38/38/38 37/37/37
f 39/39/39 40/40/40 41/41/41
f 40/40/40 42/42/42 41/41/41
f 43/43/43 44/44/44 45/45/45
f 44/44/44 46/46/46 45/45/45
g submesh1
f 47/47/47 48/48/48 49/49/49
f 48/48/48 50/50/50 49/49/49
f 51/51/51 52/52/52 53/53/53
f 52/52/52 54/54/54 53/53/53
f 55/55/55 56/56/56 57/57/57
f 56/56/56 58/58/58 57/57/57
f 47/47/47 49/49/49 59/59/59
f 49/49/49 60/60/60 59/59/59
f 61/61/61 62/62/62 63/63/63
f 62/62/62 64/64/64 63/63/63
f 65/65/65 66/66/66 67/67/67
f 66/66/66 68/68/68 67/67/67
f 69/69/69 70/70/70 71/71/71
f 70/70/70 72/72/72 71/71/71
f 66/66/66 73/73/73 68/68/68
f 73/73/73 74/74/74 68/68/68
f 75/75/75 76/76/76 77/77/77
f 75/75/75 78/78/78 76/76/76
f 79/79/79 80/80/80 81/81/81
f 81/81/81 80/80/80 82/82/82
f 83/83/83 84/84/84 85/85/85
f 83/83/83 86/86/86 84/84/84
f 87/87/87 85/85/85 88/88/88
f 87/87/87 83/83/83 85/85/85
f 75/75/75 89/89/89 90/90/90
f 78/78/78 75/75/75 90/90/90
f 91/91/91 80/80/80 79/79/79
f 91/91/91 92/92/92 80/80/80
f 85/85/85 93/93/93 94/94/94
f 85/85/85 84/84/84 93/93/93
f 88/88/88 94/94/94 95/95/95
f 88/88/88 85/85/85 94/94/94
f 96/96/96 70/70/70 69/69/69
f 97/97/97 96/96/96 69/69/69
f 62/62/62 98/98/98 99/99/99
f 62/62/62 61/61/61 98/98/98
f 100/100/100 73/73/73 66/66/66
f 100/100/100 101/101/101 73/73/73
f 102/102/102 66/66/66 65/65/65
f 102/102/102 100/100/100 66/66/66
f 89/89/89 103/103/103 104/104/104
f 90/90/90 89/89/89 104/104/104
f 103/103/103 96/96/96 97/97/97
f 104/104/104 103/103/103 97/97/97
f 105/105/105 92/92/92 91/91/91
f 105/105/105 106/106/106 92/92/92
f 99/99/99 106/106/106 105/105/105
f 99/99/99 98/98/98 106/106/106
f 107/107/107 101/101/101 100/100/100
f 107/107/107 108/108/108 101/101/101
f 94/94/94 108/108/108 107/107/107
f 94/94/94 93/93/93 108/108/108
f 109/109/109 100/100/100 102/102/102
f 109/109/109 107/107/107 100/100/100
f 95/95/95 107/107/107 109/109/109
f 95/95/95 94/94/94 107/107/107
f 110/110/110 54/54/54 111/111/111
f 110/110/110 53/53/53 54/54/54
f 112/112/112 111/111/111 113/113/113
f 112/112/112 110/110/110 111/111/111
f 114/114/114 115/115/115 116/116/116
f 117/117/117 114/114/114 116/116/116
f 117/117/117 116/116/116 118/118/118
f 119/119/119 117/117/117 118/118/118
f 120/120/120 121/121/121 122/122/122
f 123/123/123 120/120/120 122/122/122
f 123/123/123 122/122/122 124/124/124
f 125/125/125 123/123/123 124/124/124
f 126/126/126 81/81/81 127/127/127
f 126/126/126 79/79/79 81/81/81
f 128/128/128 127/127/127 129/129/129
f 128/128/128 126/126/126 127/127/127
f 130/130/130 131/131/131 132/132/132
f 133/133/133 130/130/130 132/132/132
f 122/122/122 134/134/134 135/135/135
f 124/124/124 122/122/122 135/135/135
f 136/136/136 79/79/79 126/126/126
f 136/136/136 91/91/91 79/79/79
f 137/137/137 126/126/126 128/128/128
f 137/137/137 136/136/136 126/126/126
f 138/138/138 139/139/139 140/140/140
f 141/141/141 138/138/138 140/140/140
f 141/141/141 140/140/140 142/142/142
f 143/143/143 141/141/141 142/142/142
f 144/144/144 99/99/99 145/145/145
f 144/144/144 62/62/62 99/99/99
f 146/146/146 145/145/145 147/147/147
f 146/146/146 144/144/144 145/145/145
f 148/148/148 149/149/149 150/150/150
f 134/134/134 148/148/148 150/150/150
f 134/134/134 150/150/150 151/151/151
f 135/135/135 134/134/134 151/151/151
f 152/152/152 153/153/153 154/154/154
f 155/155/155 152/152/152 154/154/154
f 150/150/150 141/141/141 143/143/143
f 151/151/151 150/150/150 143/143/143
f 156/156/156 91/91/91 136/136/136
f 156/156/156 105/105/105 91/91/91
f 157/157/157 136/136/136 137/137/137
f 157/157/157 156/156/156 136/136/136
f 145/145/145 105/105/105 156/156/156
f 145/145/145 99/99/99 105/105/105
f 147/147/147 156/156/156 157/157/157
f 147/147/147 145/145/145 156/156/156
f 158/158/158 159/159/159 160/160/160
f 159/159/159 161/161/161 160/160/160
f 162/162/162 163/163/163 164/164/164
f 163/163/163 165/165/165 164/164/164
f 166/166/166 167/167/167 168/168/168
f 167/167/167 169/169/169 168/168/168
f 170/170/170 171/171/171 172/172/172
f 171/171/171 173/173/173 172/172/172
f 174/174/174 175/175/175 176/176/176
f 175/175/175 177/177/177 176/176/176
f 178/178/178 179/179/179 180/180/180
f 179/179/179 181/181/181 180/180/180
f 182/182/182 82/82/82 183/183/183
f 82/82/82 184/184/184 183/183/183
f 83/83/83 87/87/87 185/185/185
f 87/87/87 186/186/186 185/185/185
f 77/77/77 76/76/76 187/187/187
f 76/76/76 188/188/188 187/187/187
f 189/189/189 190/190/190 191/191/191
f 190/190/190 192/192/192 191/191/191
f 83/83/83 185/185/185 193/193/193
f 185/185/185 194/194/194 193/193/193
f 56/56/56 55/55/55 195/195/195
f 55/55/55 196/196/196 195/195/195
f 191/191/191 192/192/192 197/197/197
f 192/192/192 198/198/198 197/197/197
f 193/193/193 194/194/194 86/86/86
f 194/194/194 199/199/199 86/86/86
f 200/200/200 201/201/201 202/202/202
f 201/201/201 203/203/203 202/202/202
f 204/204/204 205/205/205 206/206/206
f 205/205/205 207/207/207 206/206/206
f 199/199/199 194/194/194 208/208/208
f 194/194/194 209/209/209 208/208/208
f 183/183/183 184/184/184 210/210/210
f 184/184/184 211/211/211 210/210/210
