v 0 0 0
v 5 0 0
v 1.50872E-06 14.66667 -2.782182E-06
v 5.000003 14.66667 9.206624E-07
v 5 0 0
v 5 0 -5
v 5.000003 14.66667 9.206624E-07
v 5.000006 14.66667 -5.000003
v 5 0 -5
v 0 0 -5
v 5.000006 14.66667 -5.000003
v 1.715075E-06 14.66667 -5.000004
v 0 0 -5
v 0 0 0
v 1.715075E-06 14.66667 -5.000004
v 1.50872E-06 14.66667 -2.782182E-06
v 1.50872E-06 14.66667 -2.782182E-06
v 5.000003 14.66667 9.206624E-07
v 1.715075E-06 14.66667 -5.000004
v 5.000006 14.66667 -5.000003
v 0 0 -5
v 5 0 -5
v 0 0 0
v 5 0 0
vn 0 1.896942E-07 1
vn -3.702843E-07 6.346097E-08 1
vn -3.702843E-07 6.346097E-08 1
vn -7.405686E-07 -6.277227E-08 1
vn 1 -2.275813E-07 0
vn 1 -3.251161E-07 2.861021E-07
vn 1 -3.251161E-07 2.861021E-07
vn 1 -4.226509E-07 5.722041E-07
vn 0 -2.275813E-07 -1
vn 4.768367E-08 -2.438372E-07 -1
vn 4.768367E-08 -2.438372E-07 -1
vn 9.536735E-08 -2.60093E-07 -1
vn -1 1.169369E-07 0
vn -1 1.099021E-07 -2.063548E-08
vn -1 1.099021E-07 -2.063548E-08
vn -1 1.028673E-07 -4.127095E-08
vn 0 1 0
vn 0 1 0
vn 0 1 0
vn 0 1 0
vn 0 -1 0
vn 0 -1 0
vn 0 -1 0
vn 0 -1 0
vt 0 0
vt -5 0
vt -1.50872E-06 14.66667
vt -5.000003 14.66667
vt 0 1.137907E-06
vt -5 1.137907E-06
vt 9.206624E-07 14.66667
vt -5.000003 14.66667
vt 5 1.137907E-06
vt 0 1.137907E-06
vt 5.000006 14.66667
vt 1.715075E-06 14.66667
vt 5 0
vt 0 0
vt 5.000004 14.66667
vt 2.782182E-06 14.66667
vt 1.50872E-06 -2.782182E-06
vt 5.000003 9.206624E-07
vt 1.715075E-06 -5.000004
vt 5.000006 -5.000003
vt 0 -5
vt -5 -5
vt 0 0
vt -5 0
g submesh0
f 1/1/1 2/2/2 3/3/3
f 2/2/2 4/4/4 3/3/3
f 5/5/5 6/6/6 7/7/7
f 6/6/6 8/8/8 7/7/7
f 9/9/9 10/10/10 11/11/11
f 10/10/10 12/12/12 11/11/11
f 13/13/13 14/14/14 15/15/15
f 14/14/14 16/16/16 15/15/15
f 17/17/17 18/18/18 19/19/19
f 18/18/18 20/20/20 19/19/19
f 21/21/21 22/22/22 23/23/23
f 22/22/22 24/24/24 23/23/23
