v 5 8 -8
v 4 8 -8
v 4 8 -7
v 5 8 -7
v 4 0 -7
v 5 0 -8
v 5 0 -7
v 4 0 -8
v 7 0 -8
v 7 0 -7
v 7 8 -8
v 7 8 -7
v 8 0 -8
v 8 0 -7
v 8 8 -8
v 8 8 -7
v 14 0 -8
v 14 0 -7
v 14 8 -8
v 14 8 -7
v 15 0 -8
v 15 0 -7
v 15 8 -8
v 15 8 -7
v 17 0 -8
v 17 0 -7
v 17 8 -8
v 17 8 -7
v 18 0 -8
v 18 0 -7
v 18 8 -8
v 18 8 -7
v 18 0 -7
v 18 0 -8
v 18 5 -8
v 18 5 -7
v 24 5 -7
v 24 5 -8
v 24 7 -8
v 24 7 -7
v 14 5 -8
v 15 3 -7
v 14 5 -7
v 15 3 -8
v 15 3 -8
v 15 0 -7
v 15 3 -7
v 15 0 -8
v 8 5 -7
v 14 5 -8
v 14 5 -7
v 8 5 -8
v 7 0 -7
v 7 0 -8
v 7 3 -8
v 7 3 -7
v 7 3 -7
v 7 3 -8
v 8 5 -8
v 8 5 -7
v 4 8 1
v 5 8 1
v 4 8 2
v 5 8 2
v 4 0 1
v 5 0 1
v 4 0 2
v 5 0 2
v 7 0 1
v 7 0 2
v 7 7 -7
v 5 7 -7
v 5 7 1
v 7 7 1
v 7 8 1
v 7 8 2
v 8 0 1
v 8 0 2
v 8 7 -7
v 8 7 1
v 8 8 1
v 8 8 2
v 14 0 1
v 14 0 2
v 14 7 -7
v 14 7 1
v 14 8 1
v 14 8 2
v 15 0 1
v 15 0 2
v 15 7 -7
v 15 7 1
v 15 8 1
v 15 8 2
v 17 0 1
v 17 0 2
v 17 7 -7
v 17 7 1
v 17 8 1
v 17 8 2
v 18 0 1
v 18 0 2
v 18 8 1
v 18 8 2
v 18 0 2
v 18 0 1
v 18 5 1
v 18 5 2
v 24 5 2
v 24 5 1
v 24 7 1
v 24 7 2
v 14 5 1
v 15 3 2
v 14 5 2
v 15 3 1
v 15 3 1
v 15 0 2
v 15 3 2
v 15 0 1
v 8 5 1
v 14 5 1
v 8 5 2
v 14 5 2
v 7 0 2
v 7 0 1
v 7 3 1
v 7 3 2
v 7 3 2
v 7 3 1
v 8 5 1
v 8 5 2
v 24 8 1
v 24 8 -7
v 24 8 -8
v 24 8 2
v 24 0 1
v 24 0 -7
v 18 9 -7
v 18 12 1
v 24 9 -7
v 24 12 1
v 18 12 1
v 18 12 2
v 24 12 1
v 24 12 2
v 24 0 -8
v 18 9 -8
v 18 9 -7
v 24 9 -8
v 24 9 -7
v 24 0 2
v 24 12 1
v 24 9 -7
v 24 12 2
v 24 9 -8
v 18 5 1
v 18 5 -7
v 18 0 1
v 18 0 -7
v 24 0 1
v 24 0 2
v 24 0 -7
v 18 5 -8
v 18 0 -8
v 24 0 -8
v 18 5 2
v 18 0 2
v 4 0 2
v 5 0 2
v 5 5 2
v 4 5 2
v 5 7 2
v 4 7 2
v 5 5 -8
v 4 0 -8
v 4 5 -8
v 5 0 -8
v 5 7 -8
v 4 7 -8
v 7 3 2
v 7 7 2
v 7 0 2
v 7 3 -8
v 7 0 -8
v 7 7 -8
v 8 5 2
v 8 7 2
v 8 7 -8
v 8 5 -8
v 14 5 2
v 14 7 2
v 14 7 -8
v 14 5 -8
v 15 3 2
v 15 7 2
v 15 7 -8
v 15 3 -8
v 17 5 2
v 17 7 2
v 15 0 2
v 17 0 2
v 17 5 -8
v 15 0 -8
v 17 0 -8
v 17 7 -8
v 18 5 2
v 18 7 2
v 18 0 2
v 18 5 -8
v 18 0 -8
v 18 7 -8
v 4 5 -8
v 4 0 -7
v 4 5 -7
v 4 0 -8
v 4 7 -8
v 4 7 -7
v 4 5 1
v 4 0 2
v 4 5 2
v 4 0 1
v 4 7 1
v 4 7 2
v 17 8 -8
v 15 8 -8
v 17 7 -7
v 17 7 1
v 17 8 -7
v 17 8 1
v 17 8 2
v 18 8 2
v 18 8 -8
v 15 7 -7
v 17 7 -7
v 15 8 -7
v 17 8 -7
v 14 7 -7
v 14 8 -7
v 14 8 -8
v 8 7 -7
v 8 8 -7
v 8 8 -8
v 7 7 -7
v 7 8 -7
v 7 8 -8
v 5 7 -7
v 5 8 -7
v 5 8 -8
v 4 8 -7
v 4 8 1
v 4 8 -8
v 4 8 -8
v 5 7 1
v 5 7 -7
v 5 8 1
v 5 8 -7
v 4 8 2
v 4 8 2
v 5 8 2
v 7 7 1
v 5 7 1
v 7 8 1
v 5 8 1
v 7 8 2
v 8 7 1
v 8 8 1
v 8 8 2
v 14 7 1
v 14 8 1
v 14 8 2
v 15 7 1
v 15 8 1
v 15 8 2
v 17 7 1
v 17 8 1
v 24 7 2
v 24 5 2
v 24 5 -8
v 24 7 -8
v 24 8 -8
v 24 8 2
v 18 8 1
v 18 8 2
v 18 12 1
v 18 12 2
v 18 12 2
v 24 12 2
v 18 8 -7
v 18 9 -7
v 18 8 -8
v 18 9 -8
v 24 9 -8
v 18 9 -8
v 24 0 -8
v 24 0 2
vn 0 1 0
vn 0 1 0
vn 0 1 0
vn 0 1 0
vn 0 -1 0
vn 0 -1 0
vn 0 -1 0
vn 0 -1 0
vn 0 -1 0
vn 0 -1 0
vn 0 1 0
vn 0 1 0
vn 0 -1 0
vn 0 -1 0
vn 0 1 0
vn 0 1 0
vn 0 -1 0
vn 0 -1 0
vn 0 1 0
vn 0 1 0
vn 0 -1 0
vn 0 -1 0
vn 0 1 0
vn 0 1 0
vn 0 -1 0
vn 0 -1 0
vn 0 1 0
vn 0 1 0
vn 0 -1 0
vn 0 -1 0
vn 0 1 0
vn 0 1 0
vn 1 0 0
vn 1 0 0
vn 1 0 0
vn 1 0 0
vn 1 0 0
vn 1 0 0
vn 1 0 0
vn 1 0 0
vn -0.8944272 -0.4472136 0
vn -0.8944272 -0.4472136 0
vn -0.8944272 -0.4472136 0
vn -0.8944272 -0.4472136 0
vn -1 0 0
vn -1 0 0
vn -1 0 0
vn -1 0 0
vn 0 -1 0
vn 0 -1 0
vn 0 -1 0
vn 0 -1 0
vn 1 0 0
vn 1 0 0
vn 1 0 0
vn 1 0 0
vn 0.8944272 -0.4472136 0
vn 0.8944272 -0.4472136 0
vn 0.8944272 -0.4472136 0
vn 0.8944272 -0.4472136 0
vn 0 1 0
vn 0 1 0
vn 0 1 0
vn 0 1 0
vn 0 -1 0
vn 0 -1 0
vn 0 -1 0
vn 0 -1 0
vn 0 -1 0
vn 0 -1 0
vn 0 1 0
vn 0 1 0
vn 0 1 0
vn 0 1 0
vn 0 1 0
vn 0 1 0
vn 0 -1 0
vn 0 -1 0
vn 0 1 0
vn 0 1 0
vn 0 1 0
vn 0 1 0
vn 0 -1 0
vn 0 -1 0
vn 0 1 0
vn 0 1 0
vn 0 1 0
vn 0 1 0
vn 0 -1 0
vn 0 -1 0
vn 0 1 0
vn 0 1 0
vn 0 1 0
vn 0 1 0
vn 0 -1 0
vn 0 -1 0
vn 0 1 0
vn 0 1 0
vn 0 1 0
vn 0 1 0
vn 0 -1 0
vn 0 -1 0
vn 0 1 0
vn 0 1 0
vn 1 0 0
vn 1 0 0
vn 1 0 0
vn 1 0 0
vn 1 0 0
vn 1 0 0
vn 1 0 0
vn 1 0 0
vn -0.8944272 -0.4472136 0
vn -0.8944272 -0.4472136 0
vn -0.8944272 -0.4472136 0
vn -0.8944272 -0.4472136 0
vn -1 0 0
vn -1 0 0
vn -1 0 0
vn -1 0 0
vn 0 -1 0
vn 0 -1 0
vn 0 -1 0
vn 0 -1 0
vn 1 0 0
vn 1 0 0
vn 1 0 0
vn 1 0 0
vn 0.8944272 -0.4472136 0
vn 0.8944272 -0.4472136 0
vn 0.8944272 -0.4472136 0
vn 0.8944272 -0.4472136 0
vn 1 0 0
vn 1 0 0
vn 1 0 0
vn 1 0 0
vn 0 -1 0
vn 0 -1 0
vn 0 0.9363292 -0.3511235
vn 0 0.9363292 -0.3511235
vn 0 0.9363292 -0.3511235
vn 0 0.9363292 -0.3511235
vn 0 1 0
vn 0 1 0
vn 0 1 0
vn 0 1 0
vn 0 -1 0
vn 0 1 0
vn 0 1 0
vn 0 1 0
vn 0 1 0
vn 0 -1 0
vn 1 0 0
vn 1 0 0
vn 1 0 0
vn 1 0 0
vn -1 0 0
vn -1 0 0
vn -1 0 0
vn -1 0 0
vn 1 0 0
vn 1 0 0
vn 1 0 0
vn -1 0 0
vn -1 0 0
vn 1 0 0
vn -1 0 0
vn -1 0 0
vn 0 0 1
vn 0 0 1
vn 0 0 1
vn 0 0 1
vn 0 0 1
vn 0 0 1
vn 0 0 -1
vn 0 0 -1
vn 0 0 -1
vn 0 0 -1
vn 0 0 -1
vn 0 0 -1
vn 0 0 1
vn 0 0 1
vn 0 0 1
vn 0 0 -1
vn 0 0 -1
vn 0 0 -1
vn 0 0 1
vn 0 0 1
vn 0 0 -1
vn 0 0 -1
vn 0 0 1
vn 0 0 1
vn 0 0 -1
vn 0 0 -1
vn 0 0 1
vn 0 0 1
vn 0 0 -1
vn 0 0 -1
vn 0 0 1
vn 0 0 1
vn 0 0 1
vn 0 0 1
vn 0 0 -1
vn 0 0 -1
vn 0 0 -1
vn 0 0 -1
vn 0 0 1
vn 0 0 1
vn 0 0 1
vn 0 0 -1
vn 0 0 -1
vn 0 0 -1
vn -1 0 0
vn -1 0 0
vn -1 0 0
vn -1 0 0
vn -1 0 0
vn -1 0 0
vn -1 0 0
vn -1 0 0
vn -1 0 0
vn -1 0 0
vn -1 0 0
vn -1 0 0
vn 0 0 -1
vn 0 0 -1
vn -1 0 0
vn -1 0 0
vn -1 0 0
vn -1 0 0
vn 0 0 1
vn 0 0 1
vn 0 0 -1
vn 0 0 1
vn 0 0 1
vn 0 0 1
vn 0 0 1
vn 0 0 1
vn 0 0 1
vn 0 0 -1
vn 0 0 1
vn 0 0 1
vn 0 0 -1
vn 0 0 1
vn 0 0 1
vn 0 0 -1
vn 0 0 1
vn 0 0 1
vn 0 0 -1
vn -1 0 0
vn -1 0 0
vn 0 0 -1
vn -1 0 0
vn 1 0 0
vn 1 0 0
vn 1 0 0
vn 1 0 0
vn -1 0 0
vn 0 0 1
vn 0 0 1
vn 0 0 -1
vn 0 0 -1
vn 0 0 -1
vn 0 0 -1
vn 0 0 1
vn 0 0 -1
vn 0 0 -1
vn 0 0 1
vn 0 0 -1
vn 0 0 -1
vn 0 0 1
vn 0 0 -1
vn 0 0 -1
vn 0 0 1
vn 0 0 -1
vn 0 0 -1
vn 0 0 1
vn 0 0 1
vn 0 0 -1
vn 0 0 -1
vn 0 0 -1
vn 0 0 1
vn -1 0 0
vn -1 0 0
vn -1 0 0
vn -1 0 0
vn 0 0 1
vn 0 0 1
vn -1 0 0
vn -1 0 0
vn -1 0 0
vn -1 0 0
vn 0 0 -1
vn 0 0 -1
vn 0 0 -1
vn 0 0 1
vt 5 -8
vt 4 -8
vt 4 -7
vt 5 -7
vt -4 -7
vt -5 -8
vt -5 -7
vt -4 -8
vt -7 -8
vt -7 -7
vt 7 -8
vt 7 -7
vt -8 -8
vt -8 -7
vt 8 -8
vt 8 -7
vt -14 -8
vt -14 -7
vt 14 -8
vt 14 -7
vt -15 -8
vt -15 -7
vt 15 -8
vt 15 -7
vt -17 -8
vt -17 -7
vt 17 -8
vt 17 -7
vt -18 -8
vt -18 -7
vt 18 -8
vt 18 -7
vt -7 0
vt -8 0
vt -8 5
vt -7 5
vt -7 5
vt -8 5
vt -8 7
vt -7 7
vt 8 -1.788854
vt 7 -4.024922
vt 7 -1.788854
vt 8 -4.024922
vt 8 3
vt 7 0
vt 7 3
vt 8 0
vt -8 -7
vt -14 -8
vt -14 -7
vt -8 -8
vt -7 0
vt -8 0
vt -8 3
vt -7 3
vt -7 5.813777
vt -8 5.813777
vt -8 8.049845
vt -7 8.049845
vt 4 1
vt 5 1
vt 4 2
vt 5 2
vt -4 1
vt -5 1
vt -4 2
vt -5 2
vt -7 1
vt -7 2
vt 7 -7
vt 5 -7
vt 5 1
vt 7 1
vt 7 1
vt 7 2
vt -8 1
vt -8 2
vt 8 -7
vt 8 1
vt 8 1
vt 8 2
vt -14 1
vt -14 2
vt 14 -7
vt 14 1
vt 14 1
vt 14 2
vt -15 1
vt -15 2
vt 15 -7
vt 15 1
vt 15 1
vt 15 2
vt -17 1
vt -17 2
vt 17 -7
vt 17 1
vt 17 1
vt 17 2
vt -18 1
vt -18 2
vt 18 1
vt 18 2
vt 2 0
vt 1 0
vt 1 5
vt 2 5
vt 2 5
vt 1 5
vt 1 7
vt 2 7
vt -1 -1.788854
vt -2 -4.024922
vt -2 -1.788854
vt -1 -4.024922
vt -1 3
vt -2 0
vt -2 3
vt -1 0
vt -8 1
vt -14 1
vt -8 2
vt -14 2
vt 2 0
vt 1 0
vt 1 3
vt 2 3
vt 2 5.813777
vt 1 5.813777
vt 1 8.049845
vt 2 8.049845
vt 1 8
vt -7 8
vt -8 8
vt 2 8
vt -24 1
vt -24 -7
vt 18 -3.394193
vt 18 5.149811
vt 24 -3.394193
vt 24 5.149811
vt 18 1
vt 18 2
vt 24 1
vt 24 2
vt -24 -8
vt 18 -8
vt 18 -7
vt 24 -8
vt 24 -7
vt -24 2
vt 1 12
vt -7 9
vt 2 12
vt -8 9
vt -1 5
vt 7 5
vt -1 0
vt 7 0
vt 1 0
vt 2 0
vt -7 0
vt 8 5
vt 8 0
vt -8 0
vt -2 5
vt -2 0
vt -4 0
vt -5 0
vt -5 5
vt -4 5
vt -5 7
vt -4 7
vt 5 5
vt 4 0
vt 4 5
vt 5 0
vt 5 7
vt 4 7
vt -7 3
vt -7 7
vt -7 0
vt 7 3
vt 7 0
vt 7 7
vt -8 5
vt -8 7
vt 8 7
vt 8 5
vt -14 5
vt -14 7
vt 14 7
vt 14 5
vt -15 3
vt -15 7
vt 15 7
vt 15 3
vt -17 5
vt -17 7
vt -15 0
vt -17 0
vt 17 5
vt 15 0
vt 17 0
vt 17 7
vt -18 5
vt -18 7
vt -18 0
vt 18 5
vt 18 0
vt 18 7
vt 8 5
vt 7 0
vt 7 5
vt 8 0
vt 8 7
vt 7 7
vt -1 5
vt -2 0
vt -2 5
vt -1 0
vt -1 7
vt -2 7
vt 17 8
vt 15 8
vt 7 7
vt -1 7
vt 7 8
vt -1 8
vt -17 8
vt -18 8
vt 18 8
vt -15 7
vt -17 7
vt -15 8
vt -17 8
vt -14 7
vt -14 8
vt 14 8
vt -8 7
vt -8 8
vt 8 8
vt -7 7
vt -7 8
vt 7 8
vt -5 7
vt -5 8
vt 5 8
vt 7 8
vt -1 8
vt 4 8
vt 8 8
vt 1 7
vt -7 7
vt 1 8
vt -7 8
vt -2 8
vt -4 8
vt -5 8
vt 7 7
vt 5 7
vt 7 8
vt 5 8
vt -7 8
vt 8 7
vt 8 8
vt -8 8
vt 14 7
vt 14 8
vt -14 8
vt 15 7
vt 15 8
vt -15 8
vt 17 7
vt 17 8
vt -24 7
vt -24 5
vt 24 5
vt 24 7
vt 24 8
vt -24 8
vt -1 8
vt -2 8
vt -1 12
vt -2 12
vt -18 12
vt -24 12
vt 7 8
vt 7 9
vt 8 8
vt 8 9
vt 24 9
vt 18 9
vt 24 0
vt -24 0
g submesh0
f 1/1/1 2/2/2 3/3/3
f 4/4/4 1/1/1 3/3/3
f 5/5/5 6/6/6 7/7/7
f 5/5/5 8/8/8 6/6/6
f 7/7/7 9/9/9 10/10/10
f 7/7/7 6/6/6 9/9/9
f 11/11/11 1/1/1 4/4/4
f 12/12/12 11/11/11 4/4/4
f 10/10/10 13/13/13 14/14/14
f 10/10/10 9/9/9 13/13/13
f 15/15/15 11/11/11 12/12/12
f 16/16/16 15/15/15 12/12/12
f 14/14/14 17/17/17 18/18/18
f 14/14/14 13/13/13 17/17/17
f 19/19/19 15/15/15 16/16/16
f 20/20/20 19/19/19 16/16/16
f 18/18/18 21/21/21 22/22/22
f 18/18/18 17/17/17 21/21/21
f 23/23/23 19/19/19 20/20/20
f 24/24/24 23/23/23 20/20/20
f 22/22/22 25/25/25 26/26/26
f 22/22/22 21/21/21 25/25/25
f 27/27/27 23/23/23 24/24/24
f 28/28/28 27/27/27 24/24/24
f 26/26/26 29/29/29 30/30/30
f 26/26/26 25/25/25 29/29/29
f 31/31/31 27/27/27 28/28/28
f 32/32/32 31/31/31 28/28/28
f 33/33/33 34/34/34 35/35/35
f 36/36/36 33/33/33 35/35/35
f 37/37/37 38/38/38 39/39/39
f 40/40/40 37/37/37 39/39/39
f 41/41/41 42/42/42 43/43/43
f 41/41/41 44/44/44 42/42/42
f 45/45/45 46/46/46 47/47/47
f 45/45/45 48/48/48 46/46/46
f 49/49/49 50/50/50 51/51/51
f 49/49/49 52/52/52 50/50/50
f 53/53/53 54/54/54 55/55/55
f 56/56/56 53/53/53 55/55/55
f 57/57/57 58/58/58 59/59/59
f 60/60/60 57/57/57 59/59/59
f 4/4/4 3/3/3 61/61/61
f 62/62/62 4/4/4 61/61/61
f 62/62/62 61/61/61 63/63/63
f 64/64/64 62/62/62 63/63/63
f 65/65/65 7/7/7 66/66/66
f 65/65/65 5/5/5 7/7/7
f 67/67/67 66/66/66 68/68/68
f 67/67/67 65/65/65 66/66/66
f 66/66/66 10/10/10 69/69/69
f 66/66/66 7/7/7 10/10/10
f 68/68/68 69/69/69 70/70/70
f 68/68/68 66/66/66 69/69/69
f 71/71/71 72/72/72 73/73/73
f 74/74/74 71/71/71 73/73/73
f 75/75/75 62/62/62 64/64/64
f 76/76/76 75/75/75 64/64/64
f 69/69/69 14/14/14 77/77/77
f 69/69/69 10/10/10 14/14/14
f 70/70/70 77/77/77 78/78/78
f 70/70/70 69/69/69 77/77/77
f 79/79/79 71/71/71 74/74/74
f 80/80/80 79/79/79 74/74/74
f 81/81/81 75/75/75 76/76/76
f 82/82/82 81/81/81 76/76/76
f 77/77/77 18/18/18 83/83/83
f 77/77/77 14/14/14 18/18/18
f 78/78/78 83/83/83 84/84/84
f 78/78/78 77/77/77 83/83/83
f 85/85/85 79/79/79 80/80/80
f 86/86/86 85/85/85 80/80/80
f 87/87/87 81/81/81 82/82/82
f 88/88/88 87/87/87 82/82/82
f 83/83/83 22/22/22 89/89/89
f 83/83/83 18/18/18 22/22/22
f 84/84/84 89/89/89 90/90/90
f 84/84/84 83/83/83 89/89/89
f 91/91/91 85/85/85 86/86/86
f 92/92/92 91/91/91 86/86/86
f 93/93/93 87/87/87 88/88/88
f 94/94/94 93/93/93 88/88/88
f 89/89/89 26/26/26 95/95/95
f 89/89/89 22/22/22 26/26/26
f 90/90/90 95/95/95 96/96/96
f 90/90/90 89/89/89 95/95/95
f 97/97/97 91/91/91 92/92/92
f 98/98/98 97/97/97 92/92/92
f 99/99/99 93/93/93 94/94/94
f 100/100/100 99/99/99 94/94/94
f 95/95/95 30/30/30 101/101/101
f 95/95/95 26/26/26 30/30/30
f 96/96/96 101/101/101 102/102/102
f 96/96/96 95/95/95 101/101/101
f 32/32/32 28/28/28 99/99/99
f 103/103/103 32/32/32 99/99/99
f 103/103/103 99/99/99 100/100/100
f 104/104/104 103/103/103 100/100/100
f 105/105/105 106/106/106 107/107/107
f 108/108/108 105/105/105 107/107/107
f 106/106/106 33/33/33 36/36/36
f 107/107/107 106/106/106 36/36/36
f 109/109/109 110/110/110 111/111/111
f 112/112/112 109/109/109 111/111/111
f 110/110/110 37/37/37 40/40/40
f 111/111/111 110/110/110 40/40/40
f 113/113/113 114/114/114 115/115/115
f 113/113/113 116/116/116 114/114/114
f 43/43/43 116/116/116 113/113/113
f 43/43/43 42/42/42 116/116/116
f 117/117/117 118/118/118 119/119/119
f 117/117/117 120/120/120 118/118/118
f 47/47/47 120/120/120 117/117/117
f 47/47/47 46/46/46 120/120/120
f 121/121/121 51/51/51 122/122/122
f 121/121/121 49/49/49 51/51/51
f 123/123/123 122/122/122 124/124/124
f 123/123/123 121/121/121 122/122/122
f 125/125/125 126/126/126 127/127/127
f 128/128/128 125/125/125 127/127/127
f 126/126/126 53/53/53 56/56/56
f 127/127/127 126/126/126 56/56/56
f 129/129/129 130/130/130 131/131/131
f 132/132/132 129/129/129 131/131/131
f 130/130/130 57/57/57 60/60/60
f 131/131/131 130/130/130 60/60/60
f 111/111/111 40/40/40 133/133/133
f 40/40/40 134/134/134 133/133/133
f 40/40/40 39/39/39 134/134/134
f 39/39/39 135/135/135 134/134/134
f 112/112/112 111/111/111 136/136/136
f 111/111/111 133/133/133 136/136/136
f 101/101/101 30/30/30 137/137/137
f 30/30/30 138/138/138 137/137/137
f 139/139/139 140/140/140 141/141/141
f 140/140/140 142/142/142 141/141/141
f 143/143/143 144/144/144 145/145/145
f 144/144/144 146/146/146 145/145/145
f 30/30/30 29/29/29 138/138/138
f 29/29/29 147/147/147 138/138/138
f 148/148/148 149/149/149 150/150/150
f 149/149/149 151/151/151 150/150/150
f 102/102/102 101/101/101 152/152/152
f 101/101/101 137/137/137 152/152/152
f 133/133/133 134/134/134 153/153/153
f 134/134/134 154/154/154 153/153/153
f 136/136/136 133/133/133 155/155/155
f 133/133/133 153/153/153 155/155/155
f 134/134/134 135/135/135 154/154/154
f 135/135/135 156/156/156 154/154/154
f 157/157/157 158/158/158 159/159/159
f 158/158/158 160/160/160 159/159/159
f 110/110/110 109/109/109 161/161/161
f 109/109/109 162/162/162 161/161/161
f 37/37/37 110/110/110 163/163/163
f 110/110/110 161/161/161 163/163/163
f 158/158/158 164/164/164 160/160/160
f 164/164/164 165/165/165 160/160/160
f 38/38/38 37/37/37 166/166/166
f 37/37/37 163/163/163 166/166/166
f 167/167/167 157/157/157 168/168/168
f 157/157/157 159/159/159 168/168/168
g submesh1
f 169/169/169 170/170/170 171/171/171
f 172/172/172 169/169/169 171/171/171
f 172/172/172 171/171/171 173/173/173
f 174/174/174 172/172/172 173/173/173
f 175/175/175 176/176/176 177/177/177
f 175/175/175 178/178/178 176/176/176
f 179/179/179 177/177/177 180/180/180
f 179/179/179 175/175/175 177/177/177
f 171/171/171 181/181/181 182/182/182
f 173/173/173 171/171/171 182/182/182
f 170/170/170 183/183/183 181/181/181
f 171/171/171 170/170/170 181/181/181
f 184/184/184 178/178/178 175/175/175
f 184/184/184 185/185/185 178/178/178
f 186/186/186 175/175/175 179/179/179
f 186/186/186 184/184/184 175/175/175
f 181/181/181 187/187/187 188/188/188
f 182/182/182 181/181/181 188/188/188
f 189/189/189 184/184/184 186/186/186
f 189/189/189 190/190/190 184/184/184
f 187/187/187 191/191/191 192/192/192
f 188/188/188 187/187/187 192/192/192
f 193/193/193 190/190/190 189/189/189
f 193/193/193 194/194/194 190/190/190
f 191/191/191 195/195/195 196/196/196
f 192/192/192 191/191/191 196/196/196
f 197/197/197 194/194/194 193/193/193
f 197/197/197 198/198/198 194/194/194
f 195/195/195 199/199/199 200/200/200
f 196/196/196 195/195/195 200/200/200
f 201/201/201 202/202/202 199/199/199
f 195/195/195 201/201/201 199/199/199
f 203/203/203 204/204/204 198/198/198
f 203/203/203 205/205/205 204/204/204
f 206/206/206 198/198/198 197/197/197
f 206/206/206 203/203/203 198/198/198
f 199/199/199 207/207/207 208/208/208
f 200/200/200 199/199/199 208/208/208
f 202/202/202 209/209/209 207/207/207
f 199/199/199 202/202/202 207/207/207
f 210/210/210 205/205/205 203/203/203
f 210/210/210 211/211/211 205/205/205
f 212/212/212 203/203/203 206/206/206
f 212/212/212 210/210/210 203/203/203
f 213/213/213 214/214/214 215/215/215
f 213/213/213 216/216/216 214/214/214
f 217/217/217 215/215/215 218/218/218
f 217/217/217 213/213/213 215/215/215
f 219/219/219 220/220/220 221/221/221
f 219/219/219 222/222/222 220/220/220
f 215/215/215 222/222/222 219/219/219
f 215/215/215 214/214/214 222/222/222
f 223/223/223 221/221/221 224/224/224
f 223/223/223 219/219/219 221/221/221
f 218/218/218 219/219/219 223/223/223
f 218/218/218 215/215/215 219/219/219
f 206/206/206 197/197/197 225/225/225
f 197/197/197 226/226/226 225/225/225
f 227/227/227 228/228/228 229/229/229
f 228/228/228 230/230/230 229/229/229
f 200/200/200 208/208/208 231/231/231
f 208/208/208 232/232/232 231/231/231
f 212/212/212 206/206/206 233/233/233
f 206/206/206 225/225/225 233/233/233
f 234/234/234 235/235/235 236/236/236
f 235/235/235 237/237/237 236/236/236
f 238/238/238 234/234/234 239/239/239
f 234/234/234 236/236/236 239/239/239
f 197/197/197 193/193/193 226/226/226
f 193/193/193 240/240/240 226/226/226
f 241/241/241 238/238/238 242/242/242
f 238/238/238 239/239/239 242/242/242
f 193/193/193 189/189/189 240/240/240
f 189/189/189 243/243/243 240/240/240
f 244/244/244 241/241/241 245/245/245
f 241/241/241 242/242/242 245/245/245
f 189/189/189 186/186/186 243/243/243
f 186/186/186 246/246/246 243/243/243
f 247/247/247 244/244/244 248/248/248
f 244/244/244 245/245/245 248/248/248
f 186/186/186 179/179/179 246/246/246
f 179/179/179 249/249/249 246/246/246
f 218/218/218 223/223/223 250/250/250
f 223/223/223 251/251/251 250/250/250
f 179/179/179 180/180/180 249/249/249
f 180/180/180 252/252/252 249/249/249
f 217/217/217 218/218/218 253/253/253
f 218/218/218 250/250/250 253/253/253
f 254/254/254 255/255/255 256/256/256
f 255/255/255 257/257/257 256/256/256
f 223/223/223 224/224/224 251/251/251
f 224/224/224 258/258/258 251/251/251
f 174/174/174 173/173/173 259/259/259
f 173/173/173 260/260/260 259/259/259
f 261/261/261 262/262/262 263/263/263
f 262/262/262 264/264/264 263/263/263
f 173/173/173 182/182/182 260/260/260
f 182/182/182 265/265/265 260/260/260
f 266/266/266 261/261/261 267/267/267
f 261/261/261 263/263/263 267/267/267
f 182/182/182 188/188/188 265/265/265
f 188/188/188 268/268/268 265/265/265
f 269/269/269 266/266/266 270/270/270
f 266/266/266 267/267/267 270/270/270
f 188/188/188 192/192/192 268/268/268
f 192/192/192 271/271/271 268/268/268
f 272/272/272 269/269/269 273/273/273
f 269/269/269 270/270/270 273/273/273
f 192/192/192 196/196/196 271/271/271
f 196/196/196 274/274/274 271/271/271
f 275/275/275 272/272/272 276/276/276
f 272/272/272 273/273/273 276/276/276
f 196/196/196 200/200/200 274/274/274
f 200/200/200 231/231/231 274/274/274
f 208/208/208 207/207/207 277/277/277
f 207/207/207 278/278/278 277/277/277
f 210/210/210 212/212/212 279/279/279
f 212/212/212 280/280/280 279/279/279
f 212/212/212 233/233/233 280/280/280
f 233/233/233 281/281/281 280/280/280
f 232/232/232 208/208/208 282/282/282
f 208/208/208 277/277/277 282/282/282
f 283/283/283 284/284/284 285/285/285
f 284/284/284 286/286/286 285/285/285
f 232/232/232 282/282/282 287/287/287
f 282/282/282 288/288/288 287/287/287
f 289/289/289 283/283/283 290/290/290
f 283/283/283 285/285/285 290/290/290
f 291/291/291 289/289/289 292/292/292
f 289/289/289 290/290/290 292/292/292
f 281/281/281 233/233/233 293/293/293
f 233/233/233 294/294/294 293/293/293
f 210/210/210 279/279/279 211/211/211
f 279/279/279 295/295/295 211/211/211
f 278/278/278 207/207/207 296/296/296
f 207/207/207 209/209/209 296/296/296
