v -7.104874E-05 0 2
v 7.99993 0 2.000576
v -7.104874E-05 6 2
v 7.99993 6 2.000576
v 8.000001 -2 -4.768372E-07
v 7.99993 -2 -2.999424
v 8 4 9.536743E-07
v 7.99993 1 -2.999424
v 7.99993 -2 -2.999424
v -7.152557E-05 -2 -3
v 7.99993 1 -2.999424
v -6.961823E-05 1 -3
v -7.152557E-05 -2 -3
v 4.768372E-07 -2 -4.768372E-07
v -6.961823E-05 1 -3
v 9.536743E-07 4 0
v -7.152557E-05 -2 -3
v 7.99993 -2 -2.999424
v 4.768372E-07 -2 -4.768372E-07
v 8.000001 -2 -4.768372E-07
v 4.768372E-07 -2 -4.768372E-07
v 8.000001 -2 -4.768372E-07
v -7.104874E-05 0 2
v 7.99993 0 2.000576
v -7.104874E-05 6 2
v -7.104874E-05 0 2
v 8.000001 -2 -4.768372E-07
v 8 4 9.536743E-07
v 7.99993 0 2.000576
v 7.99993 6 2.000576
v 8 4 9.536743E-07
v 9.536743E-07 4 0
v 7.99993 6 2.000576
v -7.104874E-05 6 2
v 9.536743E-07 4 0
v 8 4 9.536743E-07
v -6.961823E-05 1 -3
v 7.99993 1 -2.999424
vn -7.20024E-05 0 1
vn -7.20024E-05 0 1
vn -7.20024E-05 0 1
vn -7.20024E-05 0 1
vn 1 1.589513E-07 -2.352848E-05
vn 1 7.947566E-08 -2.33695E-05
vn 1 7.947566E-08 -2.33695E-05
vn 1 0 -2.321052E-05
vn 7.20024E-05 0 -1
vn 7.20024E-05 -2.288895E-11 -1
vn 7.20024E-05 -2.288895E-11 -1
vn 7.200241E-05 -4.57779E-11 -1
vn -1 6.357829E-07 2.40008E-05
vn -1 3.57627E-07 2.372265E-05
vn -1 3.57627E-07 2.372265E-05
vn -1 7.947099E-08 2.344449E-05
vn 0 -1 0
vn 0 -1 0
vn 0 -1 0
vn 0 -1 0
vn 0 -0.7071068 0.7071068
vn -2.545303E-05 -0.7071577 0.7070559
vn -2.545303E-05 -0.7071577 0.7070559
vn -5.090605E-05 -0.7072086 0.707005
vn -1 3.973786E-08 -3.592174E-05
vn -1 0 -3.576279E-05
vn 1 1.589373E-07 3.535525E-05
vn 1 7.946865E-08 3.519636E-05
vn 1 7.946865E-08 3.519636E-05
vn 1 0 3.503746E-05
vn 8.42816E-08 0.7072083 -0.7070052
vn 2.549884E-05 0.7071575 -0.707056
vn 2.549884E-05 0.7071575 -0.707056
vn 5.091339E-05 0.7071067 -0.7071069
vn 8.42937E-08 0.7071068 -0.7071067
vn 2.550128E-05 0.707073 -0.7071406
vn 2.550128E-05 0.707073 -0.7071406
vn 5.091827E-05 0.7070391 -0.7071745
vt -7.295602E-05 0
vt -8.000074 0
vt -7.295602E-05 6
vt -8.000074 6
vt 0.0001877511 -2.000001
vt -2.999236 -2.000001
vt 0.0001891815 3.999999
vt -2.999236 0.9999987
vt 7.999714 -2
vt -0.0002875328 -2
vt 7.999714 1
vt -0.0002856255 1
vt 3 -2
vt 4.768257E-07 -2
vt 3 1
vt -2.288895E-11 4
vt 7.152557E-05 -3
vt -7.99993 -2.999424
vt -4.768372E-07 -4.768372E-07
vt -8.000001 -4.768372E-07
vt -4.768372E-07 -1.414214
vt -8.000001 -1.414214
vt 7.104874E-05 1.414213
vt -7.99993 1.414621
vt -2 6
vt -2 8.842652E-14
vt -0.0002833189 -2.000001
vt -0.0002818883 3.999999
vt 2.000293 -1.271498E-06
vt 2.000293 5.999999
vt 8 2.828022
vt 4.76974E-07 2.828021
vt 7.999929 5.656856
vt -7.176379E-05 5.656447
vt 9.536743E-07 2.828427
vt 8 2.828427
vt -6.997585E-05 -1.414214
vt 7.99993 -1.413808
g submesh0
f 1/1/1 2/2/2 3/3/3
f 2/2/2 4/4/4 3/3/3
f 5/5/5 6/6/6 7/7/7
f 6/6/6 8/8/8 7/7/7
f 9/9/9 10/10/10 11/11/11
f 10/10/10 12/12/12 11/11/11
f 13/13/13 14/14/14 15/15/15
f 14/14/14 16/16/16 15/15/15
f 17/17/17 18/18/18 19/19/19
f 18/18/18 20/20/20 19/19/19
f 21/21/21 22/22/22 23/23/23
f 22/22/22 24/24/24 23/23/23
f 16/16/16 14/14/14 25/25/25
f 14/14/14 26/26/26 25/25/25
f 27/27/27 28/28/28 29/29/29
f 28/28/28 30/30/30 29/29/29
f 31/31/31 32/32/32 33/33/33
f 32/32/32 34/34/34 33/33/33
g submesh1
f 35/35/35 36/36/36 37/37/37
f 36/36/36 38/38/38 37/37/37
