v 7.999856 2 2.000576
v 8.000001 2 -4
v 7.999856 4 2.000576
v 8.000001 4 -4
v -5.999712 2 -4.000432
v -6.000144 2 1.999568
v -5.999712 4 -4.000432
v -6.000144 4 1.999568
v -6.000144 2 1.999568
v 3.999856 2 2.000288
v 3.999856 4 2.000288
v -6.000144 4 1.999568
v 3.999568 2 6.000288
v 7.999568 2 6.000576
v 7.999568 4 6.000576
v 3.999568 4 6.000288
v 4.000002 4 -4
v 8.000001 4 -4
v 8.000001 2 -4
v 4.000001 2 -4
v -5.999712 4 -4.000432
v -5.999712 2 -4.000432
v 3.999856 2 2.000288
v -6.000144 2 1.999568
v 4.000001 2 -4
v -5.999712 2 -4.000432
v 7.999856 2 2.000576
v 8.000001 2 -4
v 3.999856 2 2.000288
v 7.999856 2 2.000576
v 3.999856 2 2.000288
v 7.999856 2 2.000576
v 7.999856 2 2.000576
v 3.999856 2 2.000288
v 7.999856 2 2.000576
v 7.999856 4 2.000576
v 7.999856 2 2.000576
v 7.999856 4 2.000576
v 7.999856 4 2.000576
v 7.999856 2 2.000576
v 3.999856 4 2.000288
v 3.999856 2 2.000288
v 3.999856 4 2.000288
v 3.999856 2 2.000288
v 3.999856 2 2.000288
v 3.999856 4 2.000288
v 3.999568 2 6.000288
v 7.999568 2 6.000576
v 13.99986 2 2.001009
v 13.99986 4 2.001009
v 13.99957 2 6.001009
v 13.99957 4 6.001009
v 3.999856 4 2.000288
v 3.999856 2 2.000288
v 3.999568 4 6.000288
v 3.999568 2 6.000288
v 7.999856 2 2.000576
v 7.999856 4 2.000576
v 13.99986 2 2.001009
v 13.99986 4 2.001009
v 13.99957 2 6.001009
v 13.99986 2 2.001009
v 13.99957 4 6.001009
v 13.99957 2 6.001009
v -5.999712 4 -4.000432
v -6.000144 4 1.999568
v 4.000002 4 -4
v 3.999856 4 2.000288
v 8.000001 4 -4
v 7.999856 4 2.000576
v 7.999856 4 2.000576
v 3.999856 4 2.000288
v 7.999856 4 2.000576
v 3.999856 4 2.000288
v 3.999856 4 2.000288
v 7.999856 4 2.000576
v 7.999568 4 6.000576
v 3.999568 4 6.000288
v 13.99986 4 2.001009
v 13.99957 4 6.001009
vn 1 0 2.407796E-05
vn 1 0 2.407796E-05
vn 1 0 2.407796E-05
vn 1 0 2.407796E-05
vn -1 0 -7.200241E-05
vn -1 0 -7.200241E-05
vn -1 0 -7.200241E-05
vn -1 0 -7.200241E-05
vn -7.200241E-05 0 1
vn -7.200241E-05 0 1
vn -7.200241E-05 0 1
vn -7.200241E-05 0 1
vn -7.200241E-05 0 1
vn -7.200241E-05 0 1
vn -7.200241E-05 0 1
vn -7.200241E-05 0 1
vn 0 0 -1
vn 0 0 -1
vn 0 0 -1
vn 0 0 -1
vn 4.320269E-05 -1.030032E-11 -1
vn 4.320269E-05 0 -1
vn 0 -1 0
vn 0 -1 0
vn 0 -1 0
vn 0 -1 0
vn 0 -1 0
vn 0 -1 0
vn 0 0 0
vn 0 0 0
vn 0 0 0
vn 0 0 0
vn 0 0 0
vn 0 0 0
vn 0 0 0
vn 0 0 0
vn 0 0 0
vn 0 0 0
vn 0 0 0
vn 0 0 0
vn 0 0 0
vn 0 0 0
vn 0 0 0
vn 0 0 0
vn 0 0 0
vn 0 0 0
vn 0 -1 0
vn 0 -1 0
vn 1 0 7.200241E-05
vn 1 0 7.200241E-05
vn 1 0 7.200241E-05
vn 1 0 7.200241E-05
vn -1 0 -7.200241E-05
vn -1 0 -7.200241E-05
vn -1 0 -7.200241E-05
vn -1 0 -7.200241E-05
vn 7.20024E-05 0 -1
vn 7.20024E-05 0 -1
vn 7.20024E-05 0 -1
vn 7.20024E-05 0 -1
vn 0 -1 0
vn 0 -1 0
vn -7.20024E-05 0 1
vn -7.20024E-05 0 1
vn 0 1 0
vn 0 1 0
vn 0 1 0
vn 0 1 0
vn 0 1 0
vn 0 1 0
vn 0 0 0
vn 0 0 0
vn 0 0 0
vn 0 0 0
vn 0 0 0
vn 0 0 0
vn 0 1 0
vn 0 1 0
vn 0 1 0
vn 0 1 0
vt 2.000384 2
vt -4.000192 2
vt 2.000384 4
vt -4.000192 4
vt 4 2
vt -2 2
vt 4 4
vt -2 4
vt 6 2
vt -4 2
vt -4 4
vt 6 4
vt -4 2
vt -8.000001 2
vt -8.000001 4
vt -4 4
vt 3.999916 4
vt 7.999915 4
vt 7.999915 2
vt 3.999915 2
vt -5.999798 4
vt -5.999798 2
vt -3.999856 2.000288
vt 6.000144 1.999568
vt -4.000001 -4
vt 5.999712 -4.000432
vt -7.999856 2.000576
vt -8.000001 -4
vt 0 0
vt 0 0
vt 0 0
vt 0 0
vt 0 0
vt 0 0
vt 0 0
vt 0 0
vt 0 0
vt 0 0
vt 0 0
vt 0 0
vt 0 0
vt 0 0
vt 0 0
vt 0 0
vt 0 0
vt 0 0
vt -3.999568 6.000288
vt -7.999568 6.000576
vt 2 2
vt 2 4
vt 6 2
vt 6 4
vt -2 4
vt -2 2
vt -6 4
vt -6 2
vt 8.000001 2
vt 8.000001 4
vt 14 2
vt 14 4
vt -13.99957 6.001009
vt -13.99986 2.001009
vt -14 4
vt -14 2
vt -5.999712 -4.000432
vt -6.000144 1.999568
vt 4.000002 -4
vt 3.999856 2.000288
vt 8.000001 -4
vt 7.999856 2.000576
vt 0 0
vt 0 0
vt 0 0
vt 0 0
vt 0 0
vt 0 0
vt 7.999568 6.000576
vt 3.999568 6.000288
vt 13.99986 2.001009
vt 13.99957 6.001009
g submesh0
f 1/1/1 2/2/2 3/3/3
f 2/2/2 4/4/4 3/3/3
f 5/5/5 6/6/6 7/7/7
f 6/6/6 8/8/8 7/7/7
f 9/9/9 10/10/10 11/11/11
f 12/12/12 9/9/9 11/11/11
f 13/13/13 14/14/14 15/15/15
f 16/16/16 13/13/13 15/15/15
f 17/17/17 18/18/18 19/19/19
f 20/20/20 17/17/17 19/19/19
f 17/17/17 20/20/20 21/21/21
f 21/21/21 20/20/20 22/22/22
f 23/23/23 24/24/24 25/25/25
f 25/25/25 24/24/24 26/26/26
f 27/27/27 23/23/23 28/28/28
f 28/28/28 23/23/23 25/25/25
f 29/29/29 30/30/30 31/31/31
f 32/32/32 33/33/33 34/34/34
f 35/35/35 36/36/36 37/37/37
f 38/38/38 39/39/39 40/40/40
f 41/41/41 42/42/42 43/43/43
f 44/44/44 45/45/45 46/46/46
f 23/23/23 27/27/27 47/47/47
f 27/27/27 48/48/48 47/47/47
f 49/49/49 50/50/50 51/51/51
f 50/50/50 52/52/52 51/51/51
f 53/53/53 54/54/54 55/55/55
f 54/54/54 56/56/56 55/55/55
f 57/57/57 58/58/58 59/59/59
f 58/58/58 60/60/60 59/59/59
f 48/48/48 27/27/27 61/61/61
f 27/27/27 62/62/62 61/61/61
f 15/15/15 14/14/14 63/63/63
f 14/14/14 64/64/64 63/63/63
g submesh1
f 65/65/65 66/66/66 67/67/67
f 67/67/67 66/66/66 68/68/68
f 67/67/67 68/68/68 69/69/69
f 69/69/69 68/68/68 70/70/70
f 71/71/71 72/72/72 73/73/73
f 74/74/74 75/75/75 76/76/76
f 70/70/70 68/68/68 77/77/77
f 68/68/68 78/78/78 77/77/77
f 70/70/70 77/77/77 79/79/79
f 77/77/77 80/80/80 79/79/79
