v 0 0 0
v 5 0 0
v 5.960464E-07 5.333334 -1.847744E-06
v 5.000002 5.333334 -9.112939E-07
v 5 0 0
v 5 0 -5
v 5.000002 5.333334 -9.112939E-07
v 5.000001 5.333334 -5.000001
v 5 0 -5
v 0 0 -5
v 5.000001 5.333334 -5.000001
v 1.532497E-06 5.333334 -5.000004
v 0 0 -5
v 0 0 0
v 1.532497E-06 5.333334 -5.000004
v 5.960464E-07 5.333334 -1.847744E-06
v 5.960464E-07 5.333334 -1.847744E-06
v 5.000002 5.333334 -9.112939E-07
v 1.532497E-06 5.333334 -5.000004
v 5.000001 5.333334 -5.000001
v 0 0 -5
v 5 0 -5
v 0 0 0
v 5 0 0
vn 0 3.46452E-07 1
vn -9.364498E-08 2.586598E-07 1
vn -9.364498E-08 2.586598E-07 1
vn -1.8729E-07 1.708677E-07 1
vn 1 -4.470348E-07 0
vn 1 -3.129244E-07 -1.430511E-07
vn 1 -3.129244E-07 -1.430511E-07
vn 1 -1.78814E-07 -2.861023E-07
vn 0 -2.682209E-07 -1
vn 2.384186E-07 -4.917384E-07 -1
vn 2.384186E-07 -4.917384E-07 -1
vn 4.768372E-07 -7.152559E-07 -1
vn -1 2.873431E-07 0
vn -1 1.995509E-07 -9.364497E-08
vn -1 1.995509E-07 -9.364497E-08
vn -1 1.117586E-07 -1.872899E-07
vn 0 1 0
vn 0 1 0
vn 0 1 0
vn 0 1 0
vn 0 -1 0
vn 0 -1 0
vn 0 -1 0
vn 0 -1 0
vt 0 0
vt -5 0
vt -5.960464E-07 5.333334
vt -5.000002 5.333334
vt 0 2.235174E-06
vt -5 2.235174E-06
vt -9.112939E-07 5.333336
vt -5.000001 5.333336
vt 5 1.341104E-06
vt 0 1.341104E-06
vt 5.000001 5.333335
vt 1.532497E-06 5.333335
vt 5 0
vt 0 0
vt 5.000004 5.333334
vt 1.847744E-06 5.333334
vt 5.960464E-07 -1.847744E-06
vt 5.000002 -9.112939E-07
vt 1.532497E-06 -5.000004
vt 5.000001 -5.000001
vt 0 -5
vt -5 -5
vt 0 0
vt -5 0
g submesh0
f 1/1/1 2/2/2 3/3/3
f 2/2/2 4/4/4 3/3/3
f 5/5/5 6/6/6 7/7/7
f 6/6/6 8/8/8 7/7/7
f 9/9/9 10/10/10 11/11/11
f 10/10/10 12/12/12 11/11/11
f 13/13/13 14/14/14 15/15/15
f 14/14/14 16/16/16 15/15/15
f 17/17/17 18/18/18 19/19/19
f 18/18/18 20/20/20 19/19/19
f 21/21/21 22/22/22 23/23/23
f 22/22/22 24/24/24 23/23/23
