v 0.7499996 -3 0.2499999
v 0.9999996 -3 0.2499998
v 0.7499996 5 0.2500004
v 0.9999996 5 0.2499994
v 0.9999996 -3 0.2499998
v 0.9999995 -3 -2.384186E-07
v 0.9999996 5 0.2499994
v 0.9999986 5 -6.220016E-07
v 0.9999995 -3 -2.384186E-07
v 0.7499995 -3 -1.490116E-07
v 0.9999986 5 -6.220016E-07
v 0.7499986 5 3.912774E-07
v -1 -3 4.768372E-07
v -1 -3 0.2500005
v -0.9999995 5 -1.452886E-07
v -1 5 0.2499999
v 0.7499996 5 0.2500004
v 0.9999996 5 0.2499994
v 0.7499986 5 3.912774E-07
v 0.9999986 5 -6.220016E-07
v 0.7499995 -3 -1.490116E-07
v 0.9999995 -3 -2.384186E-07
v 0.7499996 -3 0.2499999
v 0.9999996 -3 0.2499998
v -0.7500005 -3 3.874302E-07
v -0.7500004 -3 0.2500004
v -1 -3 4.768372E-07
v -1 -3 0.2500005
v -0.7499995 5 7.487811E-07
v -0.7500005 -3 3.874302E-07
v -0.9999995 5 -1.452886E-07
v -1 -3 4.768372E-07
v -0.7500004 -3 0.2500004
v -0.7500004 5 0.2500007
v -1 -3 0.2500005
v -1 5 0.2499999
v -0.7500004 5 0.2500007
v -0.7499995 5 7.487811E-07
v -1 5 0.2499999
v -0.9999995 5 -1.452886E-07
v 0.7499996 -3 0.2499999
v 0.7499996 5 0.2500004
v 0.7499995 -3 -1.490116E-07
v 0.7499986 5 3.912774E-07
v -0.7500004 5 0.2500007
v -0.7500004 -3 0.2500004
v -0.7499995 5 7.487811E-07
v -0.7500005 -3 3.874302E-07
v 0.7499996 -3 0.1249999
v 0.7499991 5 0.1250004
v -0.7500004 -3 0.1250004
v -0.749999 5 0.1250007
vn 3.576279E-07 -6.705523E-08 1
vn 2.205372E-06 -9.313212E-09 1
vn 2.205372E-06 -9.313212E-09 1
vn 4.053116E-06 4.84288E-08 1
vn 1 7.450558E-09 -4.768372E-07
vn 1 6.332982E-08 -2.264977E-06
vn 1 6.332982E-08 -2.264977E-06
vn 1 1.192091E-07 -4.053116E-06
vn -3.576279E-07 -4.794792E-08 -1
vn -2.205372E-06 9.793858E-09 -1
vn -2.205372E-06 9.793858E-09 -1
vn -4.053116E-06 6.753564E-08 -1
vn -1 1.192093E-07 4.768372E-07
vn -1 5.215394E-08 -1.66893E-06
vn -1 5.215394E-08 -1.66893E-06
vn -1 -1.490146E-08 -3.814697E-06
vn 0 1 0
vn 0 1 0
vn 0 1 0
vn 0 1 0
vn 0 -1 0
vn 0 -1 0
vn 0 -1 0
vn 0 -1 0
vn 0 -1 0
vn 0 -1 0
vn 0 -1 0
vn 0 -1 0
vn 3.576279E-06 4.516843E-08 -1
vn 1.609325E-06 -1.629862E-08 -1
vn 1.609325E-06 -1.629862E-08 -1
vn -3.576279E-07 -7.776568E-08 -1
vn 3.576279E-07 -4.470348E-08 1
vn -1.609325E-06 1.676378E-08 1
vn -1.609325E-06 1.676378E-08 1
vn -3.576278E-06 7.823104E-08 1
vn 0 1 0
vn 0 1 0
vn 0 1 0
vn 0 1 0
vn -1 -7.450613E-09 4.768372E-07
vn -1 -6.333008E-08 2.264977E-06
vn -1 -6.333008E-08 2.264977E-06
vn -1 -1.192096E-07 4.053116E-06
vn 1 7.450421E-09 3.576279E-06
vn 1 -5.587943E-08 1.549721E-06
vn 1 -5.587943E-08 1.549721E-06
vn 1 -1.192093E-07 -4.768372E-07
vn 3.576279E-07 -6.70552E-08 1
vn 2.980234E-07 -5.587937E-08 1
vn 2.980234E-07 -5.587937E-08 1
vn 2.384189E-07 -4.470353E-08 1
vt -0.7499996 -3
vt -0.9999996 -3
vt -0.7499995 5
vt -0.9999995 5
vt -1.875 -3
vt -2.125 -3
vt -1.875 5
vt -2.125 5
vt 0.9999995 -3
vt 0.7499995 -3
vt 0.9999986 5
vt 0.7499986 5
vt 2.125 -3
vt 1.875 -3
vt 2.125001 5
vt 1.875001 5
vt 0.7499996 -1.875
vt 0.9999996 -1.875001
vt 0.7499986 -2.125
vt 0.9999986 -2.125001
vt -0.7499995 -2.125
vt -0.9999995 -2.125
vt -0.7499996 -1.875
vt -0.9999996 -1.875
vt 0.7500005 -2.125
vt 0.7500004 -1.875
vt 1 -2.125
vt 1 -1.875
vt -0.7499995 5
vt -0.7500005 -3
vt -0.9999995 5
vt -1 -3
vt 0.7500005 -3
vt 0.7500005 5
vt 1 -3
vt 1.000001 5
vt -0.7500004 -1.874999
vt -0.7499995 -2.124999
vt -1 -1.875
vt -0.9999995 -2.125
vt 1.875 -3
vt 1.874999 5
vt 2.125 -3
vt 2.124999 5
vt -1.874997 5
vt -1.874997 -3
vt -2.124997 5
vt -2.124997 -3
vt -0.7499995 -3
vt -0.749999 5
vt 0.7500005 -3
vt 0.7499991 5
g submesh0
f 1/1/1 2/2/2 3/3/3
f 2/2/2 4/4/4 3/3/3
f 5/5/5 6/6/6 7/7/7
f 6/6/6 8/8/8 7/7/7
f 9/9/9 10/10/10 11/11/11
f 10/10/10 12/12/12 11/11/11
f 13/13/13 14/14/14 15/15/15
f 14/14/14 16/16/16 15/15/15
f 17/17/17 18/18/18 19/19/19
f 18/18/18 20/20/20 19/19/19
f 21/21/21 22/22/22 23/23/23
f 22/22/22 24/24/24 23/23/23
f 25/25/25 26/26/26 27/27/27
f 26/26/26 28/28/28 27/27/27
f 29/29/29 30/30/30 31/31/31
f 30/30/30 32/32/32 31/31/31
f 33/33/33 34/34/34 35/35/35
f 34/34/34 36/36/36 35/35/35
f 37/37/37 38/38/38 39/39/39
f 38/38/38 40/40/40 39/39/39
f 41/41/41 42/42/42 43/43/43
f 42/42/42 44/44/44 43/43/43
f 45/45/45 46/46/46 47/47/47
f 46/46/46 48/48/48 47/47/47
g submesh1
f 49/49/49 50/50/50 51/51/51
f 50/50/50 52/52/52 51/51/51
