v -3.293569 -5.770227E-05 1.908547
v 2.5 -3.199741E-07 2.02071
v -3.301475 0.2499413 2.052448
v 2.5 0.2500009 2.165044
v 2.5 -3.199741E-07 2.02071
v 2.5 -1.154698E-06 -4.01505
v 2.5 0.2500009 2.165044
v 2.500001 0.2499956 -3.843474
v 2.5 -1.154698E-06 -4.01505
v -2.845293 -4.708099E-05 -4.308355
v 2.500001 0.2499956 -3.843474
v -2.837389 0.249953 -4.136343
v -2.845293 -4.708099E-05 -4.308355
v -3.293569 -5.770227E-05 1.908547
v -2.837389 0.249953 -4.136343
v -3.301475 0.2499413 2.052448
v -3.301475 0.2499413 2.052448
v 2.5 0.2500009 2.165044
v -2.837389 0.249953 -4.136343
v 2.500001 0.2499956 -3.843474
v -2.845293 -4.708099E-05 -4.308355
v 2.5 -1.154698E-06 -4.01505
v -3.293569 -5.770227E-05 1.908547
v 2.5 -3.199741E-07 2.02071
vn -0.01676719 -0.4991955 0.8663271
vn -0.01678389 -0.4995568 0.8661184
vn -0.01678389 -0.4995568 0.8661184
vn -0.0168006 -0.499918 0.8659098
vn 1 0 0
vn 1 -1.471381E-06 5.952144E-08
vn 1 -1.471381E-06 5.952144E-08
vn 1 -2.942761E-06 1.190429E-07
vn 0.04519052 0.5652854 -0.8236566
vn 0.04519051 0.5652856 -0.8236566
vn 0.04519051 0.5652856 -0.8236566
vn 0.04519049 0.5652857 -0.8236564
vn -0.994153 0.08075354 -0.07168432
vn -0.9956436 0.0461311 -0.07322876
vn -0.9956436 0.0461311 -0.07322876
vn -0.9971341 0.01150866 -0.0747732
vn -1.028288E-05 1 1.116595E-06
vn -9.104038E-06 1 1.180958E-07
vn -9.104038E-06 1 1.180958E-07
vn -7.925199E-06 1 -8.80403E-07
vn 8.651427E-06 -1 -1.084632E-06
vn 9.276615E-06 -1 -4.731677E-07
vn 9.276615E-06 -1 -4.731677E-07
vn 9.901803E-06 -1 1.382964E-07
vt 3.256021 0.9843248
vt -2.538634 0.984391
vt 3.26114 1.272844
vt -2.541427 1.273052
vt 2.02071 -3.199741E-07
vt -4.01505 -1.154698E-06
vt 2.165044 0.2500009
vt -3.843474 0.2499956
vt 2.276288 -2.343663
vt -3.077046 -2.343718
vt 2.285688 -2.040598
vt -3.059731 -2.040649
vt 4.092567 -0.2542412
vt -2.140475 -0.2542518
vt 3.921569 -0.00342192
vt -2.284573 -0.004870262
vt -3.301472 2.052448
vt 2.500003 2.165044
vt -2.837386 -4.136343
vt 2.500003 -3.843474
vt 2.845293 -4.308355
vt -2.5 -4.01505
vt 3.293569 1.908547
vt -2.5 2.02071
g submesh0
f 1/1/1 2/2/2 3/3/3
f 2/2/2 4/4/4 3/3/3
f 5/5/5 6/6/6 7/7/7
f 6/6/6 8/8/8 7/7/7
f 9/9/9 10/10/10 11/11/11
f 10/10/10 12/12/12 11/11/11
f 13/13/13 14/14/14 15/15/15
f 14/14/14 16/16/16 15/15/15
f 17/17/17 18/18/18 19/19/19
f 18/18/18 20/20/20 19/19/19
f 21/21/21 22/22/22 23/23/23
f 22/22/22 24/24/24 23/23/23
