v -4.8 -5.722046E-05 1.200001
v 2.5 0 1.200001
v -4.8 0.2499409 1.200001
v 2.5 0.25 1.200001
v 2.5 0 1.200001
v 2.499998 -4.276542E-07 -6.254488
v 2.5 0.25 1.200001
v 2.499999 0.2499986 -6.399045
v 2.499998 -4.276542E-07 -6.254488
v -4.8 -4.577637E-05 -6.258957
v 2.499999 0.2499986 -6.399045
v -4.8 0.2499542 -6.40308
v -4.8 -4.577637E-05 -6.258957
v -4.8 -5.722046E-05 1.200001
v -4.8 0.2499542 -6.40308
v -4.8 0.2499409 1.200001
v -4.8 0.2499409 1.200001
v 2.5 0.25 1.200001
v -4.8 0.2499542 -6.40308
v 2.499999 0.2499986 -6.399045
v -4.8 -4.577637E-05 -6.258957
v 2.499998 -4.276542E-07 -6.254488
v -4.8 -5.722046E-05 1.200001
v 2.5 0 1.200001
vn 0 0 1
vn 0 0 1
vn 0 0 1
vn 0 0 1
vn 1 0 -2.238826E-07
vn 1 -1.4668E-06 -1.746906E-07
vn 1 -1.4668E-06 -1.746906E-07
vn 1 -2.933601E-06 -1.254987E-07
vn 0.0005330711 -0.5005724 -0.8656946
vn 0.0005074582 -0.5000074 -0.8660208
vn 0.0005074582 -0.5000074 -0.8660208
vn 0.0004818454 -0.4994424 -0.866347
vn -1 0 0
vn -1 0 0
vn -1 0 0
vn -1 0 0
vn -8.099699E-06 1 1.756057E-06
vn -7.09127E-06 1 7.878261E-07
vn -7.09127E-06 1 7.878261E-07
vn -6.082841E-06 1 -1.804044E-07
vn 6.213093E-06 -1 -1.534275E-06
vn 7.025756E-06 -1 -7.384539E-07
vn 7.025756E-06 -1 -7.384539E-07
vn 7.838419E-06 -1 5.736693E-08
vt 4.8 -5.722046E-05
vt -2.5 0
vt 4.8 0.2499409
vt -2.5 0.25
vt 1.200001 0
vt -6.254488 -4.276542E-07
vt 1.200001 0.25
vt -6.399045 0.2499986
vt 2.496146 3.131594
vt -4.803854 3.131541
vt 2.496058 3.420378
vt -4.803942 3.420109
vt 6.258957 -4.577637E-05
vt -1.200001 -5.722046E-05
vt 6.40308 0.2499542
vt -1.200001 0.2499409
vt -4.799998 1.2
vt 2.500002 1.2
vt -4.799998 -6.40308
vt 2.500001 -6.399046
vt 4.8 -6.258957
vt -2.499998 -6.254488
vt 4.8 1.200001
vt -2.5 1.200001
g submesh0
f 1/1/1 2/2/2 3/3/3
f 2/2/2 4/4/4 3/3/3
f 5/5/5 6/6/6 7/7/7
f 6/6/6 8/8/8 7/7/7
f 9/9/9 10/10/10 11/11/11
f 10/10/10 12/12/12 11/11/11
f 13/13/13 14/14/14 15/15/15
f 14/14/14 16/16/16 15/15/15
f 17/17/17 18/18/18 19/19/19
f 18/18/18 20/20/20 19/19/19
f 21/21/21 22/22/22 23/23/23
f 22/22/22 24/24/24 23/23/23
