v 0.7499991 -11 0.2500007
v 0.9999991 -11 0.2500014
v 0.7499995 4 0.2500001
v 0.9999995 4 0.25
v 0.9999991 -11 0.2500014
v 0.9999997 -11 1.393245E-06
v 0.9999995 4 0.25
v 0.9999998 4 0
v 0.9999997 -11 1.393245E-06
v 0.7499997 -11 7.450436E-07
v 0.9999998 4 0
v 0.7499998 4 1.490116E-07
v -1.000001 -11 1.929695E-06
v -1.000001 -11 0.2500019
v -1 4 7.152557E-07
v -1 4 0.2500007
v 0.7499995 4 0.2500001
v 0.9999995 4 0.25
v 0.7499998 4 1.490116E-07
v 0.9999998 4 0
v 0.7499997 -11 7.450436E-07
v 0.9999997 -11 1.393245E-06
v 0.7499991 -11 0.2500007
v 0.9999991 -11 0.2500014
v -0.7500013 -11 6.705471E-07
v -0.750001 -11 0.2500007
v -1.000001 -11 1.929695E-06
v -1.000001 -11 0.2500019
v -0.7500002 4 5.662441E-07
v -0.7500013 -11 6.705471E-07
v -1 4 7.152557E-07
v -1.000001 -11 1.929695E-06
v -0.750001 -11 0.2500007
v -0.7500005 4 0.2500006
v -1.000001 -11 0.2500019
v -1 4 0.2500007
v -0.7500005 4 0.2500006
v -0.7500002 4 5.662441E-07
v -1 4 0.2500007
v -1 4 7.152557E-07
v 0.7499991 -11 0.2500007
v 0.7499995 4 0.2500001
v 0.7499997 -11 7.450436E-07
v 0.7499998 4 1.490116E-07
v -0.7500005 4 0.2500006
v -0.750001 -11 0.2500007
v -0.7500002 4 5.662441E-07
v -0.7500013 -11 6.705471E-07
v 0.7499994 -11 0.1250007
v 0.7499977 4 0.1250001
v -0.7500006 -11 0.1250007
v -0.7500023 4 0.1250006
vn -2.622604E-06 3.97365E-08 1
vn -1.013279E-06 6.655855E-08 1
vn -1.013279E-06 6.655855E-08 1
vn 5.960464E-07 9.338059E-08 1
vn 1 -2.781528E-08 2.384186E-06
vn 1 -1.788123E-08 1.788139E-06
vn 1 -1.788123E-08 1.788139E-06
vn 1 -7.947175E-09 1.192093E-06
vn 2.592804E-06 -9.288299E-08 -1
vn 9.983788E-07 -6.630923E-08 -1
vn 9.983788E-07 -6.630923E-08 -1
vn -5.960464E-07 -3.973546E-08 -1
vn -1 6.357836E-08 9.536743E-07
vn -1 4.768371E-08 0
vn -1 4.768371E-08 0
vn -1 3.178907E-08 -9.536743E-07
vn 0 1 0
vn 0 1 0
vn 0 1 0
vn 0 1 0
vn 0 -1 0
vn 0 -1 0
vn 0 -1 0
vn 0 -1 0
vn 0 -1 0
vn 0 -1 0
vn 0 -1 0
vn 0 -1 0
vn -5.960463E-07 -6.953491E-09 -1
vn -2.816319E-06 -4.395789E-08 -1
vn -2.816319E-06 -4.395789E-08 -1
vn -5.036592E-06 -8.096229E-08 -1
vn 5.00679E-06 7.947147E-09 1
vn 2.801418E-06 4.470341E-08 1
vn 2.801418E-06 4.470341E-08 1
vn 5.960466E-07 8.145967E-08 1
vn 0 1 0
vn 0 1 0
vn 0 1 0
vn 0 1 0
vn -1 2.781541E-08 -2.384186E-06
vn -1 1.788132E-08 -1.788139E-06
vn -1 1.788132E-08 -1.788139E-06
vn -1 7.947238E-09 -1.192093E-06
vn 1 -2.781549E-08 1.430511E-06
vn 1 -4.967053E-08 1.192093E-07
vn 1 -4.967053E-08 1.192093E-07
vn 1 -7.152558E-08 -1.192093E-06
vn -4.967054E-08 3.973642E-08 1
vn 1.142422E-07 2.334517E-08 1
vn 1.142422E-07 2.334517E-08 1
vn 2.78155E-07 6.953906E-09 1
vt -0.7499998 -11
vt -0.9999998 -11
vt -0.7500002 4
vt -1 4
vt -1.875001 -11
vt -2.125001 -11
vt -1.875002 4
vt -2.125002 4
vt 0.9999997 -11
vt 0.7499997 -11
vt 0.9999998 4
vt 0.7499998 4
vt 2.124999 -11
vt 1.874999 -11
vt 2.125 4
vt 1.875 4
vt 0.7499995 -1.875
vt 0.9999995 -1.875
vt 0.7499998 -2.125
vt 0.9999998 -2.125
vt -0.7499997 -2.124999
vt -0.9999997 -2.124999
vt -0.7499991 -1.874999
vt -0.9999991 -1.874999
vt 0.7500013 -2.124999
vt 0.750001 -1.874999
vt 1.000001 -2.124998
vt 1.000001 -1.874998
vt -0.7500002 4
vt -0.7500013 -11
vt -1 4
vt -1.000001 -11
vt 0.7500022 -11
vt 0.7500018 4
vt 1.000002 -11
vt 1.000002 4
vt -0.7500005 -1.874999
vt -0.7500002 -2.125
vt -1 -1.874999
vt -1 -2.124999
vt 1.875001 -11
vt 1.875002 4
vt 2.125001 -11
vt 2.125002 4
vt -1.874998 4
vt -1.874998 -11
vt -2.124998 4
vt -2.124998 -11
vt -0.7499994 -11
vt -0.7499977 4
vt 0.7500006 -11
vt 0.7500023 4
g submesh0
f 1/1/1 2/2/2 3/3/3
f 2/2/2 4/4/4 3/3/3
f 5/5/5 6/6/6 7/7/7
f 6/6/6 8/8/8 7/7/7
f 9/9/9 10/10/10 11/11/11
f 10/10/10 12/12/12 11/11/11
f 13/13/13 14/14/14 15/15/15
f 14/14/14 16/16/16 15/15/15
f 17/17/17 18/18/18 19/19/19
f 18/18/18 20/20/20 19/19/19
f 21/21/21 22/22/22 23/23/23
f 22/22/22 24/24/24 23/23/23
f 25/25/25 26/26/26 27/27/27
f 26/26/26 28/28/28 27/27/27
f 29/29/29 30/30/30 31/31/31
f 30/30/30 32/32/32 31/31/31
f 33/33/33 34/34/34 35/35/35
f 34/34/34 36/36/36 35/35/35
f 37/37/37 38/38/38 39/39/39
f 38/38/38 40/40/40 39/39/39
f 41/41/41 42/42/42 43/43/43
f 42/42/42 44/44/44 43/43/43
f 45/45/45 46/46/46 47/47/47
f 46/46/46 48/48/48 47/47/47
g submesh1
f 49/49/49 50/50/50 51/51/51
f 50/50/50 52/52/52 51/51/51
