v 0.7499996 -3 0.2499999
v 0.9999996 -3 0.2499998
v 0.7499998 4.379999 0.2499875
v 1 4.379999 0.249984
v 0.9999996 -3 0.2499998
v 0.9999995 -3 -2.384186E-07
v 1 4.379999 0.249984
v 0.9999996 4.379999 -1.26916E-05
v 0.9999995 -3 -2.384186E-07
v 0.7499995 -3 -1.490116E-07
v 0.9999996 4.379999 -1.26916E-05
v 0.7500001 4.379999 -1.298702E-05
v -1 -3 4.768372E-07
v -1 -3 0.2500005
v -0.9999993 4.379999 -1.515875E-05
v -0.9999996 4.379999 0.2499853
v 0.7499998 4.379999 0.2499875
v 1 4.379999 0.249984
v 0.7500001 4.379999 -1.298702E-05
v 0.9999996 4.379999 -1.26916E-05
v 0.7499995 -3 -1.490116E-07
v 0.9999995 -3 -2.384186E-07
v 0.7499996 -3 0.2499999
v 0.9999996 -3 0.2499998
v -0.7500005 -3 3.874302E-07
v -0.7500004 -3 0.2500004
v -1 -3 4.768372E-07
v -1 -3 0.2500005
v -0.7499998 4.379999 -1.486333E-05
v -0.7500005 -3 3.874302E-07
v -0.9999993 4.379999 -1.515875E-05
v -1 -3 4.768372E-07
v -0.7500004 -3 0.2500004
v -0.7500001 4.379999 0.2499856
v -1 -3 0.2500005
v -0.9999996 4.379999 0.2499853
v -0.7500001 4.379999 0.2499856
v -0.7499998 4.379999 -1.486333E-05
v -0.9999996 4.379999 0.2499853
v -0.9999993 4.379999 -1.515875E-05
v 0.7499996 -3 0.2499999
v 0.7499998 4.379999 0.2499875
v 0.7499995 -3 -1.490116E-07
v 0.7500001 4.379999 -1.298702E-05
v -0.7500001 4.379999 0.2499856
v -0.7500004 -3 0.2500004
v -0.7499998 4.379999 -1.486333E-05
v -0.7500005 -3 3.874302E-07
v 0.7499996 -3 0.1249999
v 0.75 4.379999 0.1249853
v -0.7500004 -3 0.1250004
v -0.7500001 4.379999 0.1249873
vn 3.576279E-07 1.677895E-06 1
vn 7.122738E-06 1.907065E-06 1
vn 7.122738E-06 1.907065E-06 1
vn 1.388785E-05 2.136236E-06 1
vn 1 -9.691915E-08 -4.768372E-07
vn 1 -5.250045E-08 -1.78816E-06
vn 1 -5.250045E-08 -1.78816E-06
vn 1 -8.081741E-09 -3.099482E-06
vn -3.576279E-07 -1.687423E-06 -1
vn 4.120333E-07 -1.713495E-06 -1
vn 4.120333E-07 -1.713495E-06 -1
vn 1.181694E-06 -1.739568E-06 -1
vn -1 1.615312E-07 4.768372E-07
vn -1 1.292232E-07 -4.768358E-07
vn -1 1.292232E-07 -4.768358E-07
vn -1 9.691519E-08 -1.430509E-06
vn 0 1 0
vn 0 1 0
vn 0 1 0
vn 0 1 0
vn 0 -1 0
vn 0 -1 0
vn 0 -1 0
vn 0 -1 0
vn 0 -1 0
vn 0 -1 0
vn 0 -1 0
vn 0 -1 0
vn 1.181694E-06 -2.066499E-06 -1
vn 4.120333E-07 -2.092572E-06 -1
vn 4.120333E-07 -2.092572E-06 -1
vn -3.576279E-07 -2.118644E-06 -1
vn 3.576279E-07 2.004994E-06 1
vn -3.874313E-07 2.030233E-06 1
vn -3.874313E-07 2.030233E-06 1
vn -1.13249E-06 2.055472E-06 1
vn 0 1 0
vn 0 1 0
vn 0 1 0
vn 0 1 0
vn -1 1.615382E-08 4.768372E-07
vn -1 4.845823E-08 -4.768359E-07
vn -1 4.845823E-08 -4.768359E-07
vn -1 8.076263E-08 -1.430509E-06
vn 1 -3.230365E-08 1.192091E-06
vn 1 -6.057313E-08 3.576267E-07
vn 1 -6.057313E-08 3.576267E-07
vn 1 -8.88426E-08 -4.768372E-07
vn 3.576279E-07 1.96663E-06 1
vn 8.245309E-07 1.871731E-06 1
vn 8.245309E-07 1.871731E-06 1
vn 1.291434E-06 1.776832E-06 1
vt -0.7499996 -3
vt -0.9999996 -3
vt -0.7499997 4.379999
vt -1 4.379999
vt -1.875 -3
vt -2.125 -3
vt -1.875015 4.379999
vt -2.125012 4.379999
vt 0.9999995 -3
vt 0.7499995 -3
vt 0.9999996 4.379999
vt 0.7500001 4.379999
vt 2.125 -3
vt 1.875 -3
vt 2.125016 4.379999
vt 1.875015 4.379999
vt 0.7499998 -1.875013
vt 1 -1.875016
vt 0.7500001 -2.125013
vt 0.9999996 -2.125013
vt -0.7499995 -2.125
vt -0.9999995 -2.125
vt -0.7499996 -1.875
vt -0.9999996 -1.875
vt 0.7500005 -2.125
vt 0.7500004 -1.875
vt 1 -2.125
vt 1 -1.875
vt -0.7499998 4.379999
vt -0.7500005 -3
vt -0.9999993 4.379999
vt -1 -3
vt 0.7500005 -3
vt 0.7500002 4.379999
vt 1 -3
vt 0.9999997 4.379999
vt -0.7500001 -1.875014
vt -0.7499998 -2.125015
vt -0.9999996 -1.875015
vt -0.9999993 -2.125015
vt 1.875 -3
vt 1.875012 4.379999
vt 2.125 -3
vt 2.125013 4.379999
vt -1.875013 4.379999
vt -1.874999 -3
vt -2.125014 4.379999
vt -2.124999 -3
vt -0.7499995 -3
vt -0.7499999 4.379999
vt 0.7500005 -3
vt 0.7500001 4.379999
g submesh0
f 1/1/1 2/2/2 3/3/3
f 2/2/2 4/4/4 3/3/3
f 5/5/5 6/6/6 7/7/7
f 6/6/6 8/8/8 7/7/7
f 9/9/9 10/10/10 11/11/11
f 10/10/10 12/12/12 11/11/11
f 13/13/13 14/14/14 15/15/15
f 14/14/14 16/16/16 15/15/15
f 17/17/17 18/18/18 19/19/19
f 18/18/18 20/20/20 19/19/19
f 21/21/21 22/22/22 23/23/23
f 22/22/22 24/24/24 23/23/23
f 25/25/25 26/26/26 27/27/27
f 26/26/26 28/28/28 27/27/27
f 29/29/29 30/30/30 31/31/31
f 30/30/30 32/32/32 31/31/31
f 33/33/33 34/34/34 35/35/35
f 34/34/34 36/36/36 35/35/35
f 37/37/37 38/38/38 39/39/39
f 38/38/38 40/40/40 39/39/39
f 41/41/41 42/42/42 43/43/43
f 42/42/42 44/44/44 43/43/43
f 45/45/45 46/46/46 47/47/47
f 46/46/46 48/48/48 47/47/47
g submesh1
f 49/49/49 50/50/50 51/51/51
f 50/50/50 52/52/52 51/51/51
