v 0.7499996 -3 0.2499999
v 0.9999996 -3 0.2499998
v 0.7499993 4.67 0.2499999
v 0.9999993 4.67 0.2500001
v 0.9999996 -3 0.2499998
v 0.9999995 -3 -2.384186E-07
v 0.9999993 4.67 0.2500001
v 1 4.67 8.963648E-08
v 0.9999995 -3 -2.384186E-07
v 0.7499995 -3 -1.490116E-07
v 1 4.67 8.963648E-08
v 0.7500005 4.67 -1.189834E-07
v -1 -3 4.768372E-07
v -1 -3 0.2500005
v -0.9999995 4.67 8.048631E-07
v -1.000001 4.67 0.2500008
v 0.7499993 4.67 0.2499999
v 0.9999993 4.67 0.2500001
v 0.7500005 4.67 -1.189834E-07
v 1 4.67 8.963648E-08
v 0.7499995 -3 -1.490116E-07
v 0.9999995 -3 -2.384186E-07
v 0.7499996 -3 0.2499999
v 0.9999996 -3 0.2499998
v -0.7500005 -3 3.874302E-07
v -0.7500004 -3 0.2500004
v -1 -3 4.768372E-07
v -1 -3 0.2500005
v -0.7499995 4.67 5.366459E-07
v -0.7500005 -3 3.874302E-07
v -0.9999995 4.67 8.048631E-07
v -1 -3 4.768372E-07
v -0.7500004 -3 0.2500004
v -0.7500007 4.67 0.2500005
v -1 -3 0.2500005
v -1.000001 4.67 0.2500008
v -0.7500007 4.67 0.2500005
v -0.7499995 4.67 5.366459E-07
v -1.000001 4.67 0.2500008
v -0.9999995 4.67 8.048631E-07
v 0.7499996 -3 0.2499999
v 0.7499993 4.67 0.2499999
v 0.7499995 -3 -1.490116E-07
v 0.7500005 4.67 -1.189834E-07
v -0.7500007 4.67 0.2500005
v -0.7500004 -3 0.2500004
v -0.7499995 4.67 5.366459E-07
v -0.7500005 -3 3.874302E-07
v 0.7499996 -3 0.1249999
v 0.7499999 4.67 0.1249999
v -0.7500004 -3 0.1250004
v -0.7500001 4.67 0.1250005
vn 3.576279E-07 -3.885556E-09 1
vn -2.384186E-07 -2.331343E-08 1
vn -2.384186E-07 -2.331343E-08 1
vn -8.344651E-07 -4.27413E-08 1
vn 1 3.885572E-08 -4.768372E-07
vn 1 -4.274135E-08 2.026558E-06
vn 1 -4.274135E-08 2.026558E-06
vn 1 -1.243384E-07 4.529953E-06
vn -3.576279E-07 4.277124E-08 -1
vn 2.384258E-07 2.334308E-08 -1
vn 2.384258E-07 2.334308E-08 -1
vn 8.344795E-07 3.914916E-09 -1
vn -1 1.243382E-07 4.768372E-07
vn -1 3.885579E-08 -2.145767E-06
vn -1 3.885579E-08 -2.145767E-06
vn -1 -4.662663E-08 -4.768371E-06
vn 0 1 0
vn 0 1 0
vn 0 1 0
vn 0 1 0
vn 0 -1 0
vn 0 -1 0
vn 0 -1 0
vn 0 -1 0
vn 0 -1 0
vn 0 -1 0
vn 0 -1 0
vn 0 -1 0
vn -1.072869E-06 1.945459E-08 -1
vn -7.152485E-07 3.111102E-08 -1
vn -7.152485E-07 3.111102E-08 -1
vn -3.576279E-07 4.276745E-08 -1
vn 3.576279E-07 -1.942783E-08 1
vn 7.152557E-07 -3.108453E-08 1
vn 7.152557E-07 -3.108453E-08 1
vn 1.072884E-06 -4.274122E-08 1
vn 0 1 0
vn 0 1 0
vn 0 1 0
vn 0 1 0
vn -1 -3.88557E-08 4.768372E-07
vn -1 4.274128E-08 -2.026558E-06
vn -1 4.274128E-08 -2.026558E-06
vn -1 1.243383E-07 -4.529953E-06
vn 1 4.662675E-08 4.768371E-06
vn 1 -3.885574E-08 2.145767E-06
vn 1 -3.885574E-08 2.145767E-06
vn 1 -1.243382E-07 -4.768372E-07
vn 3.576279E-07 -3.885587E-09 1
vn 3.973643E-07 -1.165673E-08 1
vn 3.973643E-07 -1.165673E-08 1
vn 4.371007E-07 -1.942787E-08 1
vt -0.7499996 -3
vt -0.9999996 -3
vt -0.7499993 4.67
vt -0.9999992 4.67
vt -1.875 -3
vt -2.125 -3
vt -1.874999 4.67
vt -2.125 4.67
vt 0.9999995 -3
vt 0.7499995 -3
vt 1 4.67
vt 0.7500005 4.67
vt 2.125 -3
vt 1.875 -3
vt 2.125 4.67
vt 1.875 4.67
vt 0.7499993 -1.875
vt 0.9999993 -1.875
vt 0.7500005 -2.125
vt 1 -2.125
vt -0.7499995 -2.125
vt -0.9999995 -2.125
vt -0.7499996 -1.875
vt -0.9999996 -1.875
vt 0.7500005 -2.125
vt 0.7500004 -1.875
vt 1 -2.125
vt 1 -1.875
vt -0.7499995 4.67
vt -0.7500005 -3
vt -0.9999995 4.67
vt -1 -3
vt 0.7500005 -3
vt 0.7500008 4.67
vt 1 -3
vt 1.000001 4.67
vt -0.7500007 -1.875
vt -0.7499995 -2.125
vt -1.000001 -1.874999
vt -0.9999995 -2.124999
vt 1.875 -3
vt 1.875 4.67
vt 2.125 -3
vt 2.125 4.67
vt -1.874996 4.67
vt -1.874996 -3
vt -2.124996 4.67
vt -2.124996 -3
vt -0.7499995 -3
vt -0.7499999 4.67
vt 0.7500005 -3
vt 0.7500002 4.67
g submesh0
f 1/1/1 2/2/2 3/3/3
f 2/2/2 4/4/4 3/3/3
f 5/5/5 6/6/6 7/7/7
f 6/6/6 8/8/8 7/7/7
f 9/9/9 10/10/10 11/11/11
f 10/10/10 12/12/12 11/11/11
f 13/13/13 14/14/14 15/15/15
f 14/14/14 16/16/16 15/15/15
f 17/17/17 18/18/18 19/19/19
f 18/18/18 20/20/20 19/19/19
f 21/21/21 22/22/22 23/23/23
f 22/22/22 24/24/24 23/23/23
f 25/25/25 26/26/26 27/27/27
f 26/26/26 28/28/28 27/27/27
f 29/29/29 30/30/30 31/31/31
f 30/30/30 32/32/32 31/31/31
f 33/33/33 34/34/34 35/35/35
f 34/34/34 36/36/36 35/35/35
f 37/37/37 38/38/38 39/39/39
f 38/38/38 40/40/40 39/39/39
f 41/41/41 42/42/42 43/43/43
f 42/42/42 44/44/44 43/43/43
f 45/45/45 46/46/46 47/47/47
f 46/46/46 48/48/48 47/47/47
g submesh1
f 49/49/49 50/50/50 51/51/51
f 50/50/50 52/52/52 51/51/51
