v 0.7499974 -2.33 0.2499998
v 0.9999975 -2.33 0.25
v 0.7499996 3 0.2499999
v 0.9999996 3 0.2499998
v 0.9999975 -2.33 0.25
v 0.9999996 -2.33 -8.76787E-09
v 0.9999996 3 0.2499998
v 0.9999995 3 -2.384186E-07
v 0.9999996 -2.33 -8.76787E-09
v 0.7499996 -2.33 -2.32271E-07
v 0.9999995 3 -2.384186E-07
v 0.7499995 3 -1.490116E-07
v -1.000001 -2.33 5.873929E-07
v -1.000003 -2.33 0.2500006
v -1 3 4.768372E-07
v -1 3 0.2500005
v 0.7499996 3 0.2499999
v 0.9999996 3 0.2499998
v 0.7499995 3 -1.490116E-07
v 0.9999995 3 -2.384186E-07
v 0.7499996 -2.33 -2.32271E-07
v 0.9999996 -2.33 -8.76787E-09
v 0.7499974 -2.33 0.2499998
v 0.9999975 -2.33 0.25
v -0.7500006 -2.33 3.340589E-07
v -0.7500027 -2.33 0.2500004
v -1.000001 -2.33 5.873929E-07
v -1.000003 -2.33 0.2500006
v -0.7500005 3 3.874302E-07
v -0.7500006 -2.33 3.340589E-07
v -1 3 4.768372E-07
v -1.000001 -2.33 5.873929E-07
v -0.7500027 -2.33 0.2500004
v -0.7500004 3 0.2500004
v -1.000003 -2.33 0.2500006
v -1 3 0.2500005
v -0.7500004 3 0.2500004
v -0.7500005 3 3.874302E-07
v -1 3 0.2500005
v -1 3 4.768372E-07
v 0.7499974 -2.33 0.2499998
v 0.7499996 3 0.2499999
v 0.7499996 -2.33 -2.32271E-07
v 0.7499995 3 -1.490116E-07
v -0.7500004 3 0.2500004
v -0.7500027 -2.33 0.2500004
v -0.7500005 3 3.874302E-07
v -0.7500006 -2.33 3.340589E-07
v 0.7499985 -2.33 0.1249998
v 0.7499996 3 0.1249999
v -0.7500017 -2.33 0.1250003
v -0.7500004 3 0.1250004
vn -9.53674E-07 -1.118247E-08 1
vn -2.980231E-07 1.957013E-08 1
vn -2.980231E-07 1.957013E-08 1
vn 3.576279E-07 5.032273E-08 1
vn 1 -4.025825E-07 8.583069E-06
vn 1 -1.901084E-07 4.053116E-06
vn 1 -1.901084E-07 4.053116E-06
vn 1 2.23657E-08 -4.768372E-07
vn 8.940121E-07 -4.308642E-08 -1
vn 2.681921E-07 -1.373276E-08 -1
vn 2.681921E-07 -1.373276E-08 -1
vn -3.576279E-07 1.562089E-08 -1
vn -1 2.236554E-08 -8.583069E-06
vn -1 2.3484E-07 -4.053116E-06
vn -1 2.3484E-07 -4.053116E-06
vn -1 4.473144E-07 4.768372E-07
vn 0 1 0
vn 0 1 0
vn 0 1 0
vn 0 1 0
vn 0 -1 0
vn 0 -1 0
vn 0 -1 0
vn 0 -1 0
vn 0 -1 0
vn 0 -1 0
vn 0 -1 0
vn 0 -1 0
vn -3.576279E-07 1.001339E-08 -1
vn -6.85482E-07 -5.364377E-09 -1
vn -6.85482E-07 -5.364377E-09 -1
vn -1.013336E-06 -2.074214E-08 -1
vn 1.072883E-06 -5.591898E-09 1
vn 7.152556E-07 1.118255E-08 1
vn 7.152556E-07 1.118255E-08 1
vn 3.576279E-07 2.795699E-08 1
vn 0 1 0
vn 0 1 0
vn 0 1 0
vn 0 1 0
vn -1 4.137659E-07 -8.583069E-06
vn -1 2.012915E-07 -4.053116E-06
vn -1 2.012915E-07 -4.053116E-06
vn -1 -1.118287E-08 4.768372E-07
vn 1 -4.361316E-07 -4.768372E-07
vn 1 -2.292487E-07 3.933906E-06
vn 1 -2.292487E-07 3.933906E-06
vn 1 -2.236581E-08 8.344649E-06
vn 3.72529E-07 -1.258079E-08 1
vn 3.650784E-07 -1.048401E-08 1
vn 3.650784E-07 -1.048401E-08 1
vn 3.576279E-07 -8.387225E-09 1
vt -0.7499977 -2.33
vt -0.9999977 -2.33
vt -0.7499999 3
vt -0.9999999 3
vt -1.875009 -2.329999
vt -2.125009 -2.329999
vt -1.875009 3
vt -2.125009 3
vt 0.9999996 -2.33
vt 0.7499996 -2.33
vt 0.9999995 3
vt 0.7499995 3
vt 2.124991 -2.33
vt 1.874991 -2.33
vt 2.124991 3
vt 1.874991 3
vt 0.7499996 -1.875
vt 0.9999996 -1.875
vt 0.7499995 -2.125
vt 0.9999995 -2.125
vt -0.7499996 -2.125
vt -0.9999996 -2.125
vt -0.7499974 -1.875
vt -0.9999975 -1.875
vt 0.7500006 -2.125
vt 0.7500027 -1.875
vt 1.000001 -2.125
vt 1.000003 -1.874999
vt -0.7500005 3
vt -0.7500006 -2.33
vt -1 3
vt -1.000001 -2.33
vt 0.750003 -2.33
vt 0.7500007 3
vt 1.000003 -2.33
vt 1.000001 3
vt -0.7500004 -1.875
vt -0.7500005 -2.125
vt -1 -1.875
vt -1 -2.125
vt 1.875007 -2.33
vt 1.875007 3
vt 2.125007 -2.33
vt 2.125007 3
vt -1.875 3
vt -1.875 -2.33
vt -2.125 3
vt -2.125 -2.33
vt -0.7499985 -2.33
vt -0.7499995 3
vt 0.7500017 -2.33
vt 0.7500005 3
g submesh0
f 1/1/1 2/2/2 3/3/3
f 2/2/2 4/4/4 3/3/3
f 5/5/5 6/6/6 7/7/7
f 6/6/6 8/8/8 7/7/7
f 9/9/9 10/10/10 11/11/11
f 10/10/10 12/12/12 11/11/11
f 13/13/13 14/14/14 15/15/15
f 14/14/14 16/16/16 15/15/15
f 17/17/17 18/18/18 19/19/19
f 18/18/18 20/20/20 19/19/19
f 21/21/21 22/22/22 23/23/23
f 22/22/22 24/24/24 23/23/23
f 25/25/25 26/26/26 27/27/27
f 26/26/26 28/28/28 27/27/27
f 29/29/29 30/30/30 31/31/31
f 30/30/30 32/32/32 31/31/31
f 33/33/33 34/34/34 35/35/35
f 34/34/34 36/36/36 35/35/35
f 37/37/37 38/38/38 39/39/39
f 38/38/38 40/40/40 39/39/39
f 41/41/41 42/42/42 43/43/43
f 42/42/42 44/44/44 43/43/43
f 45/45/45 46/46/46 47/47/47
f 46/46/46 48/48/48 47/47/47
g submesh1
f 49/49/49 50/50/50 51/51/51
f 50/50/50 52/52/52 51/51/51
