v 0.7499996 -3 0.2499999
v 0.9999996 -3 0.2499998
v 0.7499992 12 0.2500006
v 0.9999992 12 0.2499997
v 0.9999996 -3 0.2499998
v 0.9999995 -3 -2.384186E-07
v 0.9999992 12 0.2499997
v 0.9999983 12 -3.696946E-07
v 0.9999995 -3 -2.384186E-07
v 0.7499995 -3 -1.490116E-07
v 0.9999983 12 -3.696946E-07
v 0.7499983 12 5.541774E-07
v -1 -3 4.768372E-07
v -1 -3 0.2500005
v -1.000021 12 -6.080436E-07
v -1.00002 12 0.2499994
v 0.7499992 12 0.2500006
v 0.9999992 12 0.2499997
v 0.7499983 12 5.541774E-07
v 0.9999983 12 -3.696946E-07
v 0.7499995 -3 -1.490116E-07
v 0.9999995 -3 -2.384186E-07
v 0.7499996 -3 0.2499999
v 0.9999996 -3 0.2499998
v -0.7500005 -3 3.874302E-07
v -0.7500004 -3 0.2500004
v -1 -3 4.768372E-07
v -1 -3 0.2500005
v -0.750021 12 -1.531916E-06
v -0.7500005 -3 3.874302E-07
v -1.000021 12 -6.080436E-07
v -1 -3 4.768372E-07
v -0.7500004 -3 0.2500004
v -0.75002 12 0.2499985
v -1 -3 0.2500005
v -1.00002 12 0.2499994
v -0.75002 12 0.2499985
v -0.750021 12 -1.531916E-06
v -1.00002 12 0.2499994
v -1.000021 12 -6.080436E-07
v 0.7499996 -3 0.2499999
v 0.7499992 12 0.2500006
v 0.7499995 -3 -1.490116E-07
v 0.7499983 12 5.541774E-07
v -0.75002 12 0.2499985
v -0.7500004 -3 0.2500004
v -0.750021 12 -1.531916E-06
v -0.7500005 -3 3.874302E-07
v 0.7499996 -3 0.1249999
v 0.7499987 12 0.1250006
v -0.7500004 -3 0.1250004
v -0.7500205 12 0.1249985
vn 3.576279E-07 -4.967053E-08 1
vn 2.05636E-06 -2.135827E-08 1
vn 2.05636E-06 -2.135827E-08 1
vn 3.755093E-06 6.95398E-09 1
vn 1 2.78155E-08 -4.768372E-07
vn 1 5.364416E-08 -2.026558E-06
vn 1 5.364416E-08 -2.026558E-06
vn 1 7.947283E-08 -3.576278E-06
vn -3.576279E-07 -8.751763E-09 -1
vn -2.026557E-06 1.90636E-08 -1
vn -2.026557E-06 1.90636E-08 -1
vn -3.695487E-06 4.687896E-08 -1
vn -1 -1.366933E-06 4.768372E-07
vn -1 -1.339117E-06 2.145767E-06
vn -1 -1.339117E-06 2.145767E-06
vn -1 -1.311302E-06 3.814697E-06
vn 0 1 0
vn 0 1 0
vn 0 1 0
vn 0 1 0
vn 0 -1 0
vn 0 -1 0
vn 0 -1 0
vn 0 -1 0
vn 0 -1 0
vn 0 -1 0
vn 0 -1 0
vn 0 -1 0
vn -3.695488E-06 -1.279614E-07 -1
vn -2.026558E-06 -1.001437E-07 -1
vn -2.026558E-06 -1.001437E-07 -1
vn -3.576279E-07 -7.232587E-08 -1
vn 3.576279E-07 1.261636E-07 1
vn 2.026558E-06 9.835033E-08 1
vn 2.026558E-06 9.835033E-08 1
vn 3.695488E-06 7.053701E-08 1
vn 0 1 0
vn 0 1 0
vn 0 1 0
vn 0 1 0
vn -1 -2.781552E-08 4.768372E-07
vn -1 -5.56311E-08 2.145767E-06
vn -1 -5.56311E-08 2.145767E-06
vn -1 -8.344668E-08 3.814697E-06
vn 1 1.311302E-06 -3.814697E-06
vn 1 1.339117E-06 -2.145767E-06
vn 1 1.339117E-06 -2.145767E-06
vn 1 1.366933E-06 -4.768372E-07
vn 3.576279E-07 -4.76837E-08 1
vn -5.165646E-07 3.97355E-08 1
vn -5.165646E-07 3.97355E-08 1
vn -1.390757E-06 1.271547E-07 1
vt -0.7499996 -3
vt -0.9999996 -3
vt -0.7499991 12
vt -0.9999992 12
vt -1.875 -3
vt -2.125 -3
vt -1.875 12
vt -2.125 12
vt 0.9999995 -3
vt 0.7499995 -3
vt 0.9999983 12
vt 0.7499983 12
vt 2.125 -2.999999
vt 1.875 -2.999999
vt 2.125001 12
vt 1.875001 12
vt 0.7499992 -1.874999
vt 0.9999992 -1.875
vt 0.7499983 -2.125
vt 0.9999983 -2.125
vt -0.7499995 -2.125
vt -0.9999995 -2.125
vt -0.7499996 -1.875
vt -0.9999996 -1.875
vt 0.7500005 -2.125
vt 0.7500004 -1.875
vt 1 -2.125
vt 1 -1.875
vt -0.750021 12
vt -0.7500005 -3
vt -1.000021 12
vt -1 -3
vt 0.7500005 -3
vt 0.7500201 12
vt 1 -3
vt 1.00002 12
vt -0.75002 -1.875002
vt -0.750021 -2.125001
vt -1.00002 -1.875001
vt -1.000021 -2.125001
vt 1.875 -3
vt 1.874999 12
vt 2.125 -3
vt 2.124999 12
vt -1.875004 12
vt -1.875003 -2.999999
vt -2.125004 12
vt -2.125002 -2.999999
vt -0.7499995 -3
vt -0.7499987 12
vt 0.7500005 -3
vt 0.7500206 12
g submesh0
f 1/1/1 2/2/2 3/3/3
f 2/2/2 4/4/4 3/3/3
f 5/5/5 6/6/6 7/7/7
f 6/6/6 8/8/8 7/7/7
f 9/9/9 10/10/10 11/11/11
f 10/10/10 12/12/12 11/11/11
f 13/13/13 14/14/14 15/15/15
f 14/14/14 16/16/16 15/15/15
f 17/17/17 18/18/18 19/19/19
f 18/18/18 20/20/20 19/19/19
f 21/21/21 22/22/22 23/23/23
f 22/22/22 24/24/24 23/23/23
f 25/25/25 26/26/26 27/27/27
f 26/26/26 28/28/28 27/27/27
f 29/29/29 30/30/30 31/31/31
f 30/30/30 32/32/32 31/31/31
f 33/33/33 34/34/34 35/35/35
f 34/34/34 36/36/36 35/35/35
f 37/37/37 38/38/38 39/39/39
f 38/38/38 40/40/40 39/39/39
f 41/41/41 42/42/42 43/43/43
f 42/42/42 44/44/44 43/43/43
f 45/45/45 46/46/46 47/47/47
f 46/46/46 48/48/48 47/47/47
g submesh1
f 49/49/49 50/50/50 51/51/51
f 50/50/50 52/52/52 51/51/51
