g Bush3
v -0.04832157 -0.4773007 0.8338057
v -0.1804568 -0.2130231 1.240483
v 0.2976198 -0.2130231 1.085144
v -0.04832157 -0.4773007 0.8338057
v -0.4759316 -0.2130231 0.8338057
v -0.1804568 -0.2130231 1.240483
v 0.2976198 -0.2130231 1.085144
v 0.2976198 -0.2130231 0.5824674
v -0.04832157 -0.4773007 0.8338057
v -0.1804568 -0.2130231 1.240483
v 0.08381361 0.2145894 1.240483
v 0.2976198 -0.2130231 1.085144
v -0.04832157 -0.4773007 0.8338057
v -0.1804568 -0.2130231 0.4271286
v -0.4759316 -0.2130231 0.8338057
v -0.4759316 -0.2130231 0.8338057
v -0.394263 0.2145893 1.085144
v -0.1804568 -0.2130231 1.240483
v 0.2976198 -0.2130231 1.085144
v 0.3792884 0.2145894 0.8338057
v 0.2976198 -0.2130231 0.5824674
v -0.04832157 -0.4773007 0.8338057
v 0.2976198 -0.2130231 0.5824674
v -0.1804568 -0.2130231 0.4271286
v -0.1804568 -0.2130231 1.240483
v -0.394263 0.2145893 1.085144
v 0.08381361 0.2145894 1.240483
v 0.2976198 -0.2130231 1.085144
v 0.08381361 0.2145894 1.240483
v 0.3792884 0.2145894 0.8338057
v -0.1804568 -0.2130231 0.4271286
v -0.394263 0.2145894 0.5824674
v -0.4759316 -0.2130231 0.8338057
v -0.4759316 -0.2130231 0.8338057
v -0.394263 0.2145894 0.5824674
v -0.394263 0.2145893 1.085144
v 0.2976198 -0.2130231 0.5824674
v 0.3792884 0.2145894 0.8338057
v 0.08381361 0.2145894 0.4271286
v -0.394263 0.2145893 1.085144
v -0.04832157 0.4788668 0.8338057
v 0.08381361 0.2145894 1.240483
v 0.08381361 0.2145894 1.240483
v -0.04832157 0.4788668 0.8338057
v 0.3792884 0.2145894 0.8338057
v -0.394263 0.2145894 0.5824674
v -0.04832157 0.4788668 0.8338057
v -0.394263 0.2145893 1.085144
v 0.3792884 0.2145894 0.8338057
v -0.04832157 0.4788668 0.8338057
v 0.08381361 0.2145894 0.4271286
v 0.08381361 0.2145894 0.4271286
v -0.04832157 0.4788668 0.8338057
v -0.394263 0.2145894 0.5824674
v -0.05489158 -0.03513214 0.4322059
v -0.07514566 -0.04262056 0.4271286
v -0.1804568 -0.2130231 0.4271286
v 0.2976198 -0.2130231 0.5824674
v 0.08381361 0.2145894 0.4271286
v -0.04016796 0.0006364021 0.4298074
v -0.04400554 0.007766891 0.4271286
v -0.1804568 -0.2130231 0.4271286
v -0.07514566 -0.04262056 0.4271286
v -0.09236537 -0.04994797 0.4312523
v -0.1256268 -0.03513214 0.4450349
v -0.1378478 0.0006364021 0.4561884
v -0.394263 0.2145894 0.5824674
v -0.1218695 0.03640495 0.4581793
v -0.0870517 0.05122077 0.4498413
v -0.05379028 0.03640496 0.4360587
v 0.08381361 0.2145894 0.4271286
v -0.04400554 0.007766891 0.4271286
v -0.02536924 0.0868836 0.1291246
v -0.00339615 0.1070702 -0.01154569
v 0.0718639 0.07589646 -0.01154569
v 0.0312553 0.06162237 0.1517731
v -0.00339615 0.1070702 -0.01154569
v -0.02536924 0.0868836 0.1291246
v -0.08199379 0.06162238 0.1064762
v -0.07865621 0.07589645 -0.01154569
v -0.02536924 0.0868836 0.1291246
v 0.0312553 0.06162237 0.1517731
v -0.04482361 0.04230633 0.2994932
v -0.08641346 0.05956657 0.2817445
v 0.0718639 -0.07462366 -0.01154569
v 0.1030376 0.0006363927 -0.01154569
v 0.0718639 0.07589646 -0.01154569
v -0.003396161 -0.1057974 -0.01154569
v -0.00339615 0.1070702 -0.01154569
v -0.07865621 0.07589645 -0.01154569
v -0.07865621 -0.07462364 -0.01154569
v -0.1098299 0.0006363983 -0.01154569
v 0.0312553 0.06162237 0.1517731
v 0.0718639 0.07589646 -0.01154569
v 0.1030376 0.0006363927 -0.01154569
v 0.05470996 0.000636389 0.1611544
v -0.08641346 0.05956657 0.2817445
v -0.08199379 0.06162238 0.1064762
v -0.02536924 0.0868836 0.1291246
v -0.1280033 0.04230632 0.2791624
v -0.0951013 0.05122077 0.4216811
v -0.1294924 0.03640495 0.4315118
v 0.0718639 -0.07462366 -0.01154569
v 0.03125529 -0.06034959 0.1517731
v 0.05470996 0.000636389 0.1611544
v 0.1030376 0.0006363927 -0.01154569
v -0.003396161 -0.1057974 -0.01154569
v -0.02536926 -0.08561081 0.1291246
v 0.03125529 -0.06034959 0.1517731
v 0.0718639 -0.07462366 -0.01154569
v -0.07865621 -0.07462364 -0.01154569
v -0.0819938 -0.06034957 0.1064762
v -0.02536926 -0.08561081 0.1291246
v -0.003396161 -0.1057974 -0.01154569
v -0.1098299 0.0006363983 -0.01154569
v -0.1054484 0.0006364021 0.09709492
v -0.0819938 -0.06034957 0.1064762
v -0.07865621 -0.07462364 -0.01154569
v -0.07865621 0.07589645 -0.01154569
v -0.08199379 0.06162238 0.1064762
v -0.1054484 0.0006364021 0.09709492
v -0.1098299 0.0006363983 -0.01154569
v 0.0312553 0.06162237 0.1517731
v 0.05470996 0.000636389 0.1611544
v -0.02759652 0.0006364002 0.2942983
v -0.04482361 0.04230633 0.2994932
v -0.08641346 0.05956657 0.2817445
v -0.04482361 0.04230633 0.2994932
v -0.06071021 0.03640496 0.4118505
v -0.0951013 0.05122077 0.4216811
v -0.1280033 0.04230632 0.2791624
v -0.1452304 0.0006364039 0.2780929
v -0.1054484 0.0006364021 0.09709492
v -0.08199379 0.06162238 0.1064762
v -0.1294924 0.03640495 0.4315118
v -0.1437376 0.0006364021 0.4355839
v -0.1452304 0.0006364039 0.2780929
v -0.1280033 0.04230632 0.2791624
v 0.05470996 0.000636389 0.1611544
v 0.03125529 -0.06034959 0.1517731
v -0.04482361 -0.04103352 0.2983266
v -0.02759652 0.0006364002 0.2942983
v 0.03125529 -0.06034959 0.1517731
v -0.02536926 -0.08561081 0.1291246
v -0.08641346 -0.05829377 0.2817445
v -0.04482361 -0.04103352 0.2983266
v -0.02536926 -0.08561081 0.1291246
v -0.0819938 -0.06034957 0.1064762
v -0.1280033 -0.04103351 0.2791624
v -0.08641346 -0.05829377 0.2817445
v -0.1294924 -0.03513214 0.4315118
v -0.0951013 -0.04994797 0.4216811
v -0.0819938 -0.06034957 0.1064762
v -0.1054484 0.0006364021 0.09709492
v -0.1452304 0.0006364039 0.2780929
v -0.1280033 -0.04103351 0.2791624
v -0.04482361 0.04230633 0.2994932
v -0.02759652 0.0006364002 0.2942983
v -0.04646496 0.0006364021 0.4077784
v -0.06071021 0.03640496 0.4118505
v -0.05379028 0.03640496 0.4360587
v -0.0870517 0.05122077 0.4498413
v -0.0951013 0.05122077 0.4216811
v -0.06071021 0.03640496 0.4118505
v -0.0870517 0.05122077 0.4498413
v -0.1218695 0.03640495 0.4581793
v -0.1294924 0.03640495 0.4315118
v -0.0951013 0.05122077 0.4216811
v -0.1218695 0.03640495 0.4581793
v -0.1378478 0.0006364021 0.4561884
v -0.1437376 0.0006364021 0.4355839
v -0.1294924 0.03640495 0.4315118
v -0.1437376 0.0006364021 0.4355839
v -0.1294924 -0.03513214 0.4315118
v -0.1280033 -0.04103351 0.2791624
v -0.1452304 0.0006364039 0.2780929
v -0.06071021 0.03640496 0.4118505
v -0.04646496 0.0006364021 0.4077784
v -0.04016796 0.0006364021 0.4298074
v -0.04400554 0.007766891 0.4271286
v -0.05379028 0.03640496 0.4360587
v -0.1378478 0.0006364021 0.4561884
v -0.1256268 -0.03513214 0.4450349
v -0.1294924 -0.03513214 0.4315118
v -0.1437376 0.0006364021 0.4355839
v -0.02759652 0.0006364002 0.2942983
v -0.04482361 -0.04103352 0.2983266
v -0.06071021 -0.03513214 0.4118505
v -0.04646496 0.0006364021 0.4077784
v -0.04482361 -0.04103352 0.2983266
v -0.08641346 -0.05829377 0.2817445
v -0.0951013 -0.04994797 0.4216811
v -0.06071021 -0.03513214 0.4118505
v -0.05489158 -0.03513214 0.4322059
v -0.04016796 0.0006364021 0.4298074
v -0.04646496 0.0006364021 0.4077784
v -0.06071021 -0.03513214 0.4118505
v -0.1256268 -0.03513214 0.4450349
v -0.09236537 -0.04994797 0.4312523
v -0.0951013 -0.04994797 0.4216811
v -0.1294924 -0.03513214 0.4315118
v -0.05489158 -0.03513214 0.4322059
v -0.06071021 -0.03513214 0.4118505
v -0.0951013 -0.04994797 0.4216811
v -0.07514566 -0.04262056 0.4271286
v -0.09236537 -0.04994797 0.4312523
vn 0.1876221 -0.7944336 0.5771484
vn 0.1876221 -0.7944336 0.5771484
vn 0.1876221 -0.7944336 0.5771484
vn -0.4912109 -0.7944336 0.3569336
vn -0.4912109 -0.7944336 0.3569336
vn -0.4912109 -0.7944336 0.3569336
vn 0.6069336 -0.7944336 0
vn 0.6069336 -0.7944336 0
vn 0.6069336 -0.7944336 0
vn 0.3034668 -0.1876221 0.934082
vn 0.3034668 -0.1876221 0.934082
vn 0.3034668 -0.1876221 0.934082
vn -0.4912109 -0.7944336 -0.3569336
vn -0.4912109 -0.7944336 -0.3569336
vn -0.4912109 -0.7944336 -0.3569336
vn -0.7944336 -0.1876221 0.5771484
vn -0.7944336 -0.1876221 0.5771484
vn -0.7944336 -0.1876221 0.5771484
vn 0.9824219 -0.1876221 0
vn 0.9824219 -0.1876221 0
vn 0.9824219 -0.1876221 0
vn 0.1876221 -0.7944336 -0.5771484
vn 0.1876221 -0.7944336 -0.5771484
vn 0.1876221 -0.7944336 -0.5771484
vn -0.3034668 0.1876221 0.934082
vn -0.3034668 0.1876221 0.934082
vn -0.3034668 0.1876221 0.934082
vn 0.7944336 0.1876221 0.5771484
vn 0.7944336 0.1876221 0.5771484
vn 0.7944336 0.1876221 0.5771484
vn -0.7944336 -0.1876221 -0.5771484
vn -0.7944336 -0.1876221 -0.5771484
vn -0.7944336 -0.1876221 -0.5771484
vn -0.9824219 0.1876221 0
vn -0.9824219 0.1876221 0
vn -0.9824219 0.1876221 0
vn 0.7944336 0.1876221 -0.5771484
vn 0.7944336 0.1876221 -0.5771484
vn 0.7944336 0.1876221 -0.5771484
vn -0.1876221 0.7944336 0.5771484
vn -0.1876221 0.7944336 0.5771484
vn -0.1876221 0.7944336 0.5771484
vn 0.4912109 0.7944336 0.3569336
vn 0.4912109 0.7944336 0.3569336
vn 0.4912109 0.7944336 0.3569336
vn -0.6069336 0.7944336 0
vn -0.6069336 0.7944336 0
vn -0.6069336 0.7944336 0
vn 0.4912109 0.7944336 -0.3569336
vn 0.4912109 0.7944336 -0.3569336
vn 0.4912109 0.7944336 -0.3569336
vn -0.1876221 0.7944336 -0.5771484
vn -0.1876221 0.7944336 -0.5771484
vn -0.1876221 0.7944336 -0.5771484
vn 0.3034668 -0.1876221 -0.934082
vn 0.3034668 -0.1876221 -0.934082
vn 0.3034668 -0.1876221 -0.934082
vn 0.3034668 -0.1876221 -0.934082
vn 0.3034668 -0.1876221 -0.934082
vn 0.3034668 -0.1876221 -0.934082
vn 0.3034668 -0.1876221 -0.934082
vn -0.3034668 0.1876221 -0.934082
vn -0.3034668 0.1876221 -0.934082
vn -0.3034668 0.1876221 -0.934082
vn -0.3034668 0.1876221 -0.934082
vn -0.3034668 0.1876221 -0.934082
vn -0.3034668 0.1876221 -0.934082
vn -0.3034668 0.1876221 -0.934082
vn -0.3034668 0.1876221 -0.934082
vn -0.3034668 0.1876221 -0.934082
vn -0.3034668 0.1876221 -0.934082
vn -0.3034668 0.1876221 -0.934082
vn 0.361084 0.9155273 0.1781006
vn 0.361084 0.9155273 0.1781006
vn 0.361084 0.9155273 0.1781006
vn 0.361084 0.9155273 0.1781006
vn -0.4040527 0.9111328 0.08184814
vn -0.4040527 0.9111328 0.08184814
vn -0.4040527 0.9111328 0.08184814
vn -0.4040527 0.9111328 0.08184814
vn 0.2854004 0.918457 0.2729492
vn 0.2854004 0.918457 0.2729492
vn 0.2854004 0.918457 0.2729492
vn 0.2854004 0.918457 0.2729492
vn 0 0 -1
vn 0 0 -1
vn 0 0 -1
vn 0 0 -1
vn 0 0 -1
vn 0 0 -1
vn 0 0 -1
vn 0 0 -1
vn 0.8920898 0.375 0.2519531
vn 0.8920898 0.375 0.2519531
vn 0.8920898 0.375 0.2519531
vn 0.8920898 0.375 0.2519531
vn -0.3974609 0.9174805 0.0007405281
vn -0.3974609 0.9174805 0.0007405281
vn -0.3974609 0.9174805 0.0007405281
vn -0.3974609 0.9174805 0.0007405281
vn -0.3862305 0.921875 0.03149414
vn -0.3862305 0.921875 0.03149414
vn 0.8920898 -0.375 0.2519531
vn 0.8920898 -0.375 0.2519531
vn 0.8920898 -0.375 0.2519531
vn 0.8920898 -0.375 0.2519531
vn 0.361084 -0.9155273 0.1781006
vn 0.361084 -0.9155273 0.1781006
vn 0.361084 -0.9155273 0.1781006
vn 0.361084 -0.9155273 0.1781006
vn -0.4040527 -0.9111328 0.08184814
vn -0.4040527 -0.9111328 0.08184814
vn -0.4040527 -0.9111328 0.08184814
vn -0.4040527 -0.9111328 0.08184814
vn -0.9287109 -0.3703613 0.02760315
vn -0.9287109 -0.3703613 0.02760315
vn -0.9287109 -0.3703613 0.02760315
vn -0.9287109 -0.3703613 0.02760315
vn -0.9287109 0.3703613 0.02760315
vn -0.9287109 0.3703613 0.02760315
vn -0.9287109 0.3703613 0.02760315
vn -0.9287109 0.3703613 0.02760315
vn 0.809082 0.3400879 0.4794922
vn 0.809082 0.3400879 0.4794922
vn 0.809082 0.3400879 0.4794922
vn 0.809082 0.3400879 0.4794922
vn 0.3793945 0.9208984 0.08898926
vn 0.3793945 0.9208984 0.08898926
vn 0.3793945 0.9208984 0.08898926
vn 0.3793945 0.9208984 0.08898926
vn -0.9038086 0.378418 -0.1986084
vn -0.9038086 0.378418 -0.1986084
vn -0.9038086 0.378418 -0.1986084
vn -0.9038086 0.378418 -0.1986084
vn -0.9262695 0.376709 0.00718689
vn -0.9262695 0.376709 0.00718689
vn -0.9262695 0.376709 0.00718689
vn -0.9262695 0.376709 0.00718689
vn 0.8066406 -0.3447266 0.4804688
vn 0.8066406 -0.3447266 0.4804688
vn 0.8066406 -0.3447266 0.4804688
vn 0.8066406 -0.3447266 0.4804688
vn 0.2875977 -0.9174805 0.2749023
vn 0.2875977 -0.9174805 0.2749023
vn 0.2875977 -0.9174805 0.2749023
vn 0.2875977 -0.9174805 0.2749023
vn -0.3974609 -0.9174805 0.0007405281
vn -0.3974609 -0.9174805 0.0007405281
vn -0.3974609 -0.9174805 0.0007405281
vn -0.3974609 -0.9174805 0.0007405281
vn -0.3862305 -0.921875 0.03149414
vn -0.3862305 -0.921875 0.03149414
vn -0.9038086 -0.378418 -0.1986084
vn -0.9038086 -0.378418 -0.1986084
vn -0.9038086 -0.378418 -0.1986084
vn -0.9038086 -0.378418 -0.1986084
vn 0.921875 0.3566895 0.1512451
vn 0.921875 0.3566895 0.1512451
vn 0.921875 0.3566895 0.1512451
vn 0.921875 0.3566895 0.1512451
vn 0.3679199 0.9238281 -0.1051636
vn 0.3679199 0.9238281 -0.1051636
vn 0.3679199 0.9238281 -0.1051636
vn 0.3679199 0.9238281 -0.1051636
vn -0.3679199 0.9238281 0.1051636
vn -0.3679199 0.9238281 0.1051636
vn -0.3679199 0.9238281 0.1051636
vn -0.3679199 0.9238281 0.1051636
vn -0.8881836 0.3825684 0.2539063
vn -0.8881836 0.3825684 0.2539063
vn -0.8881836 0.3825684 0.2539063
vn -0.8881836 0.3825684 0.2539063
vn -0.9262695 -0.376709 0.00718689
vn -0.9262695 -0.376709 0.00718689
vn -0.9262695 -0.376709 0.00718689
vn -0.9262695 -0.376709 0.00718689
vn 0.8881836 0.3825684 -0.2539063
vn 0.8881836 0.3825684 -0.2539063
vn 0.8881836 0.3825684 -0.2539063
vn 0.8881836 0.3825684 -0.2539063
vn 0.8881836 0.3825684 -0.2539063
vn -0.8881836 -0.3825684 0.2539063
vn -0.8881836 -0.3825684 0.2539063
vn -0.8881836 -0.3825684 0.2539063
vn -0.8881836 -0.3825684 0.2539063
vn 0.9213867 -0.3586426 0.1503906
vn 0.9213867 -0.3586426 0.1503906
vn 0.9213867 -0.3586426 0.1503906
vn 0.9213867 -0.3586426 0.1503906
vn 0.3806152 -0.9204102 0.08862305
vn 0.3806152 -0.9204102 0.08862305
vn 0.3806152 -0.9204102 0.08862305
vn 0.3806152 -0.9204102 0.08862305
vn 0.8881836 -0.3825684 -0.2539063
vn 0.8881836 -0.3825684 -0.2539063
vn 0.8881836 -0.3825684 -0.2539063
vn 0.8881836 -0.3825684 -0.2539063
vn -0.3679199 -0.9238281 0.1051636
vn -0.3679199 -0.9238281 0.1051636
vn -0.3679199 -0.9238281 0.1051636
vn -0.3679199 -0.9238281 0.1051636
vn 0.3679199 -0.9238281 -0.1051636
vn 0.3679199 -0.9238281 -0.1051636
vn 0.3679199 -0.9238281 -0.1051636
vn 0.3679199 -0.9238281 -0.1051636
vn 0.3679199 -0.9238281 -0.1051636
g Bush3_0
f 3/3/3 2/2/2 1/1/1
f 6/6/6 5/5/5 4/4/4
f 9/9/9 8/8/8 7/7/7
f 12/12/12 11/11/11 10/10/10
f 15/15/15 14/14/14 13/13/13
f 18/18/18 17/17/17 16/16/16
f 21/21/21 20/20/20 19/19/19
f 24/24/24 23/23/23 22/22/22
f 27/27/27 26/26/26 25/25/25
f 30/30/30 29/29/29 28/28/28
f 33/33/33 32/32/32 31/31/31
f 36/36/36 35/35/35 34/34/34
f 39/39/39 38/38/38 37/37/37
f 42/42/42 41/41/41 40/40/40
f 45/45/45 44/44/44 43/43/43
f 48/48/48 47/47/47 46/46/46
f 51/51/51 50/50/50 49/49/49
f 54/54/54 53/53/53 52/52/52
f 57/57/57 56/56/56 55/55/55
f 58/58/58 57/57/57 55/55/55
f 55/55/55 59/59/59 58/58/58
f 55/55/55 60/60/60 59/59/59
f 59/59/59 60/60/60 61/61/61
f 64/64/64 63/63/63 62/62/62
f 62/62/62 65/65/65 64/64/64
f 62/62/62 66/66/66 65/65/65
f 66/66/66 62/62/62 67/67/67
f 68/68/68 66/66/66 67/67/67
f 69/69/69 68/68/68 67/67/67
f 70/70/70 69/69/69 67/67/67
f 70/70/70 67/67/67 71/71/71
f 71/71/71 72/72/72 70/70/70
g Bush3_1
f 75/75/75 74/74/74 73/73/73
f 76/76/76 75/75/75 73/73/73
f 79/79/79 78/78/78 77/77/77
f 80/80/80 79/79/79 77/77/77
f 83/83/83 82/82/82 81/81/81
f 84/84/84 83/83/83 81/81/81
f 87/87/87 86/86/86 85/85/85
f 85/85/85 88/88/88 87/87/87
f 88/88/88 89/89/89 87/87/87
f 88/88/88 90/90/90 89/89/89
f 88/88/88 91/91/91 90/90/90
f 91/91/91 92/92/92 90/90/90
f 95/95/95 94/94/94 93/93/93
f 96/96/96 95/95/95 93/93/93
f 99/99/99 98/98/98 97/97/97
f 98/98/98 100/100/100 97/97/97
f 101/101/101 97/97/97 100/100/100
f 102/102/102 101/101/101 100/100/100
f 105/105/105 104/104/104 103/103/103
f 106/106/106 105/105/105 103/103/103
f 109/109/109 108/108/108 107/107/107
f 110/110/110 109/109/109 107/107/107
f 113/113/113 112/112/112 111/111/111
f 114/114/114 113/113/113 111/111/111
f 117/117/117 116/116/116 115/115/115
f 118/118/118 117/117/117 115/115/115
f 121/121/121 120/120/120 119/119/119
f 122/122/122 121/121/121 119/119/119
f 125/125/125 124/124/124 123/123/123
f 126/126/126 125/125/125 123/123/123
f 129/129/129 128/128/128 127/127/127
f 130/130/130 129/129/129 127/127/127
f 133/133/133 132/132/132 131/131/131
f 134/134/134 133/133/133 131/131/131
f 137/137/137 136/136/136 135/135/135
f 138/138/138 137/137/137 135/135/135
f 141/141/141 140/140/140 139/139/139
f 142/142/142 141/141/141 139/139/139
f 145/145/145 144/144/144 143/143/143
f 146/146/146 145/145/145 143/143/143
f 149/149/149 148/148/148 147/147/147
f 150/150/150 149/149/149 147/147/147
f 151/151/151 149/149/149 150/150/150
f 152/152/152 151/151/151 150/150/150
f 155/155/155 154/154/154 153/153/153
f 156/156/156 155/155/155 153/153/153
f 159/159/159 158/158/158 157/157/157
f 160/160/160 159/159/159 157/157/157
f 163/163/163 162/162/162 161/161/161
f 164/164/164 163/163/163 161/161/161
f 167/167/167 166/166/166 165/165/165
f 168/168/168 167/167/167 165/165/165
f 171/171/171 170/170/170 169/169/169
f 172/172/172 171/171/171 169/169/169
f 175/175/175 174/174/174 173/173/173
f 176/176/176 175/175/175 173/173/173
f 179/179/179 178/178/178 177/177/177
f 177/177/177 180/180/180 179/179/179
f 177/177/177 181/181/181 180/180/180
f 184/184/184 183/183/183 182/182/182
f 185/185/185 184/184/184 182/182/182
f 188/188/188 187/187/187 186/186/186
f 189/189/189 188/188/188 186/186/186
f 192/192/192 191/191/191 190/190/190
f 193/193/193 192/192/192 190/190/190
f 196/196/196 195/195/195 194/194/194
f 197/197/197 196/196/196 194/194/194
f 200/200/200 199/199/199 198/198/198
f 201/201/201 200/200/200 198/198/198
f 204/204/204 203/203/203 202/202/202
f 202/202/202 205/205/205 204/204/204
f 204/204/204 205/205/205 206/206/206
