v 96 -22 14
v 96 -22 -14
v 96 6 -14
v 96 6 14
v 96 -22 -14
v 94 -22 -24
v 94 6 -24
v 96 6 -14
v -26 6.00005 -24
v -28 -22 -14
v -28 6.00005 -14
v -26 -22 -24
v -28 6.00005 -14
v -28 -22 14
v -28 6.00005 14
v -28 -22 -14
v 82 -22 80
v 96 -22 80
v 96 6 80
v 82 6 80
v 94 6 -24
v 82 -22 -31
v 82 6 -31
v 94 -22 -24
v 82 -22 -14
v 94 -22 -24
v 96 -22 -14
v 82 -22 -31
v 82 -22 14
v 96 -22 14
v -28 -22 80
v -14 -22 80
v -14 6.00005 80
v -28 6.00005 80
v -14 6.00005 -31
v -26 -22 -24
v -26 6.00005 -24
v -14 -22 -31
v -28 -22 -14
v -14 -22 -31
v -14 -22 -14
v -26 -22 -24
v -28 -22 14
v -14 -22 14
v -14 6.00005 -31
v -26 6.00005 -24
v -14 18 -31
v -26 18 -24
v -28 6.00005 -14
v -28 6.00005 14
v -28 18 -14
v -28 18 14
v -14 6.00005 14
v -14 6.00005 -14
v -14 18 14
v -14 18 -14
v -26 6.00005 -24
v -28 6.00005 -14
v -26 18 -24
v -28 18 -14
v -14 6.00005 -31
v -14 18 -31
v -14 6.00005 -31
v -14 6.00005 -14
v -14 18 -31
v -14 18 -14
v 96 6 -14
v 94 6 -24
v 96 18 -14
v 94 18 -24
v 94 6 -24
v 82 6 -31
v 94 18 -24
v 82 18 -31
v 82 6 -14
v 82 6 14
v 82 18 -14
v 82 18 14
v 96 6 14
v 96 6 -14
v 96 18 14
v 96 18 -14
v -28 6.000025 72
v -28 -22 72
v -28 6.00005 80
v -28 -22 80
v 82 -22 72
v 96 -22 72
v 82 -22 80
v 96 -22 80
v 96 -22 72
v 96 6 72
v 96 -22 80
v 96 6 80
v -28 -22 72
v -14 -22 72
v -28 -22 80
v -14 -22 80
v -28 -22 64
v -14 -22 64
v -28 6.00005 64
v -28 -22 14
v -28 -22 64
v -14 18 64
v -28 18 64
v -28 6.000025 72
v -14 6.000025 72
v 96 18 64
v 82 18 64
v 82 6 72
v 96 6 72
v 82 -22 64
v 96 -22 64
v 96 -22 64
v 96 -22 14
v 96 6 64
v 82 6 64
v 82 -2 72
v 82 6 72
v 82 -2 64
v 82 -2 14
v -14 -2 64
v -14 -2 14
v -14 6.00005 64
v -14 -2 72
v -14 6.000025 72
v -14 18 64
v -28 18 64
v 96 18 64
v 82 18 64
v 16 -22 80
v 16 6.000025 80
v 16 6.000025 -34
v -14 -22 -31
v -14 6.00005 -31
v 16 -22 -34
v 16 -22 -34
v 16 -22 -14
v 16 -22 14
v -14 -2 14
v 16 -2 14
v 16 6.000025 14
v -14 6.00005 14
v 16 6.000012 72
v -14 -2 72
v -14 6.000025 72
v 16 -2 72
v 16 18 -34
v -14 18 -31
v -14 6.00005 -14
v 16 6.000025 -14
v 16 18 -14
v -14 18 -14
v 16 -22 72
v 16 -22 80
v 16 -22 64
v 52 -22 80
v 52 6.000012 80
v 52 6.000012 -34
v 16 -22 -34
v 16 6.000025 -34
v 52 -22 -34
v 82 6 -31
v 52 -22 -34
v 52 6.000012 -34
v 82 -22 -31
v 52 -22 -14
v 52 -22 -34
v 52 -22 14
v 52 -2 14
v 52 6.000012 14
v 82 -2 14
v 82 6 14
v 52 6.000006 72
v 52 -2 72
v 82 6 72
v 82 -2 72
v 52 18 -34
v 16 18 -34
v 82 18 -31
v 52 18 -34
v 52 6.000012 -14
v 52 18 -14
v 82 6 -14
v 82 18 -14
v 52 -22 80
v 52 -22 72
v 52 -22 64
v 96 18 -14
v 82 18 -14
v 82 18 14
v 96 18 14
v 94 18 -24
v 82 18 -31
v -14 18 -14
v -28 18 -14
v -28 18 14
v -14 18 14
v -14 18 -31
v -26 18 -24
v 96 6 72
v 82 6 72
v 96 6 80
v 82 6 80
v -14 6.000025 72
v -28 6.000025 72
v -14 6.00005 80
v -28 6.00005 80
v -14 18 14
v -28 18 14
v -28 18 64
v -14 18 64
v 96 18 14
v 82 18 14
v 82 18 64
v 96 18 64
v 16 6.000025 -14
v -14 6.00005 -14
v -14 6.00005 14
v 16 6.000025 14
v 16 18 -34
v 16 18 -14
v 16 6.000012 72
v 16 6.000025 80
v 82 6 -14
v 52 6.000012 -14
v 52 6.000012 14
v 82 6 14
v 52 18 -34
v 52 18 -14
v 52 6.000006 72
v 52 6.000012 80
v 16 -2 14
v -14 -2 14
v -14 -2 64
v 16 -2 64
v -14 -2 72
v 16 -2 72
v 82 -2 14
v 52 -2 14
v 52 -2 64
v 82 -2 64
v 52 -2 72
v 82 -2 72
vn 1 0 0
vn 1 0 0
vn 1 0 0
vn 1 0 0
vn 0.9805807 0 -0.1961161
vn 0.9805807 0 -0.1961161
vn 0.9805807 0 -0.1961161
vn 0.9805807 0 -0.1961161
vn -0.9805807 0 -0.1961161
vn -0.9805807 0 -0.1961161
vn -0.9805807 0 -0.1961161
vn -0.9805807 0 -0.1961161
vn -1 0 0
vn -1 0 0
vn -1 0 0
vn -1 0 0
vn 0 0 1
vn 0 0 1
vn 0 0 1
vn 0 0 1
vn 0.503871 0 -0.8637789
vn 0.503871 0 -0.8637789
vn 0.503871 0 -0.8637789
vn 0.503871 0 -0.8637789
vn 0 -1 0
vn 0 -1 0
vn 0 -1 0
vn 0 -1 0
vn 0 -1 0
vn 0 -1 0
vn 0 0 1
vn 0 0 1
vn 0 0 1
vn 0 0 1
vn -0.503871 0 -0.8637789
vn -0.503871 0 -0.8637789
vn -0.503871 0 -0.8637789
vn -0.503871 0 -0.8637789
vn 0 -1 0
vn 0 -1 0
vn 0 -1 0
vn 0 -1 0
vn 0 -1 0
vn 0 -1 0
vn -0.503871 0 -0.8637789
vn -0.503871 0 -0.8637789
vn -0.503871 0 -0.8637789
vn -0.503871 0 -0.8637789
vn -1 0 0
vn -1 0 0
vn -1 0 0
vn -1 0 0
vn 1 0 0
vn 1 0 0
vn 1 0 0
vn 1 0 0
vn -0.9805807 0 -0.1961161
vn -0.9805807 0 -0.1961161
vn -0.9805807 0 -0.1961161
vn -0.9805807 0 -0.1961161
vn 1 0 0
vn 1 0 0
vn -1 0 0
vn -1 0 0
vn -1 0 0
vn -1 0 0
vn 0.9805807 0 -0.1961161
vn 0.9805807 0 -0.1961161
vn 0.9805807 0 -0.1961161
vn 0.9805807 0 -0.1961161
vn 0.503871 0 -0.8637789
vn 0.503871 0 -0.8637789
vn 0.503871 0 -0.8637789
vn 0.503871 0 -0.8637789
vn -1 0 0
vn -1 0 0
vn -1 0 0
vn -1 0 0
vn 1 0 0
vn 1 0 0
vn 1 0 0
vn 1 0 0
vn -1 0 0
vn -1 0 0
vn -1 0 0
vn -1 0 0
vn 0 -1 0
vn 0 -1 0
vn 0 -1 0
vn 0 -1 0
vn 1 0 0
vn 1 0 0
vn 1 0 0
vn 1 0 0
vn 0 -1 0
vn 0 -1 0
vn 0 -1 0
vn 0 -1 0
vn 0 -1 0
vn 0 -1 0
vn -1 0 0
vn -1 0 0
vn -1 0 0
vn 0 0.554701 0.8320498
vn 0 0.554701 0.8320498
vn 0 0.554701 0.8320498
vn 0 0.554701 0.8320498
vn 0 0.5547002 0.8320503
vn 0 0.5547002 0.8320503
vn 0 0.5547002 0.8320503
vn 0 0.5547002 0.8320503
vn 0 -1 0
vn 0 -1 0
vn 1 0 0
vn 1 0 0
vn 1 0 0
vn -1 0 0
vn -1 0 0
vn -1 0 0
vn -1 0 0
vn -1 0 0
vn 1 0 0
vn 1 0 0
vn 1 0 0
vn 1 0 0
vn 1 0 0
vn 1 0 0
vn -1 0 0
vn 1 0 0
vn -1 0 0
vn 0 0 1
vn 0 0 1
vn -0.09950373 0 -0.9950372
vn -0.09950373 0 -0.9950372
vn -0.09950373 0 -0.9950372
vn -0.09950373 0 -0.9950372
vn 0 -1 0
vn 0 -1 0
vn 0 -1 0
vn 0 0 1
vn 0 0 1
vn 0 0 1
vn 0 0 1
vn 0 0 -1
vn 0 0 -1
vn 0 0 -1
vn 0 0 -1
vn -0.09950372 0 -0.9950372
vn -0.09950373 0 -0.9950372
vn 0 0 1
vn 0 0 1
vn 0 0 1
vn 0 0 1
vn 0 -1 0
vn 0 -1 0
vn 0 -1 0
vn 0 0 1
vn 0 0 1
vn 0 0 -1
vn 0 0 -1
vn 0 0 -1
vn 0 0 -1
vn 0.09950373 0 -0.9950372
vn 0.09950373 0 -0.9950372
vn 0.09950373 0 -0.9950372
vn 0.09950373 0 -0.9950372
vn 0 -1 0
vn 0 -1 0
vn 0 -1 0
vn 0 0 1
vn 0 0 1
vn 0 0 1
vn 0 0 1
vn 0 0 -1
vn 0 0 -1
vn 0 0 -1
vn 0 0 -1
vn 0 0 -1
vn 0 0 -1
vn 0.09950373 0 -0.9950372
vn 0.09950372 0 -0.9950372
vn 0 0 1
vn 0 0 1
vn 0 0 1
vn 0 0 1
vn 0 -1 0
vn 0 -1 0
vn 0 -1 0
vn 0 1 0
vn 0 1 0
vn 0 1 0
vn 0 1 0
vn 0 1 0
vn 0 1 0
vn 0 1 0
vn 0 1 0
vn 0 1 0
vn 0 1 0
vn 0 1 0
vn 0 1 0
vn 0 1 0
vn 0 1 0
vn 0 1 0
vn 0 1 0
vn 0 1 -3.099442E-06
vn 0 1 -3.099442E-06
vn 0 1 -3.099442E-06
vn 0 1 -3.099442E-06
vn 0 1 0
vn 0 1 0
vn 0 1 0
vn 0 1 0
vn 0 1 0
vn 0 1 0
vn 0 1 0
vn 0 1 0
vn 8.265177E-07 1 0
vn 8.265177E-07 1 0
vn 8.265177E-07 1 0
vn 8.265177E-07 1 0
vn 0 1 0
vn 0 1 0
vn 6.198883E-07 1 -2.324581E-06
vn 8.265177E-07 1 -1.549721E-06
vn 4.132589E-07 1 0
vn 4.132589E-07 1 0
vn 4.132589E-07 1 0
vn 4.132589E-07 1 0
vn 0 1 0
vn 0 1 0
vn 1.907349E-07 1 -8.34465E-07
vn 3.019969E-07 1 -4.172325E-07
vn 0 1 0
vn 0 1 0
vn 0 1 0
vn 0 1 0
vn 0 1 0
vn 0 1 0
vn 0 1 0
vn 0 1 0
vn 0 1 0
vn 0 1 0
vn 0 1 0
vn 0 1 0
vt 23.39148 -22
vt -4.472256 -22
vt -4.472256 6
vt 23.39148 6
vt -4.472256 -22
vt -14.62066 -22
vt -14.62066 6
vt -4.472256 6
vt 21.32122 6.00005
vt 11.17281 -22
vt 11.17281 6.00005
vt 21.32122 -22
vt 11.17281 6.00005
vt -16.69092 -22
vt -16.69092 6.00005
vt 11.17281 -22
vt -82 -22
vt -96 -22
vt -96 6
vt -82 6
vt 94 6
vt 82 -22
vt 82 6
vt 94 -22
vt -82 -14
vt -94 -24
vt -96 -14
vt -82 -31
vt -82 14
vt -96 14
vt 28 -22
vt 14 -22
vt 14 6.00005
vt 28 6.00005
vt -14 6.00005
vt -26 -22
vt -26 6.00005
vt -14 -22
vt 28 -14
vt 14 -31
vt 14 -14
vt 26 -24
vt 28 14
vt 14 14
vt 3.527097 6.00005
vt -10.36535 6.00005
vt 3.527097 18
vt -10.36535 18
vt 14 6.00005
vt -14 6.00005
vt 14 18
vt -14 18
vt 14 6.00005
vt -14 6.00005
vt 14 18
vt -14 18
vt 18.43492 6.00005
vt 8.236877 6.00005
vt 18.43492 18
vt 8.236877 18
vt -31 6.00005
vt -31 18
vt 31 6.00005
vt 14 6.00005
vt 31 18
vt 14 18
vt 5.099019 6
vt -5.09902 6
vt 5.099019 18
vt -5.09902 18
vt 69.10231 6
vt 55.20987 6
vt 69.10231 18
vt 55.20987 18
vt 14 6
vt -14 6
vt 14 18
vt -14 18
vt 14 6
vt -14 6
vt 14 18
vt -14 18
vt -72 6.000025
vt -72 -22
vt -80 6.00005
vt -80 -22
vt -82 72
vt -96 72
vt -82 80
vt -96 80
vt 72 -22
vt 72 6
vt 80 -22
vt 80 6
vt 28 72
vt 14 72
vt 28 80
vt 14 80
vt 28 64
vt 14 64
vt -64 6.00005
vt -14 -22
vt -64 -22
vt -14 47.93376
vt -28 47.93376
vt -28 60.64944
vt -14 60.64944
vt 96 47.93373
vt 82 47.93373
vt 82 60.64942
vt 96 60.64942
vt -82 64
vt -96 64
vt 64 -22
vt 14 -22
vt 64 6
vt -64 6
vt -72 -2
vt -72 6
vt -64 -2
vt -14 -2
vt 64 -2
vt 14 -2
vt 64 6.00005
vt 72 -2
vt 72 6.000025
vt 64 18
vt -64 18
vt 64 18
vt -64 18
vt -16 -22
vt -16 6.000025
vt 16 6.000025
vt -14 -22
vt -14 6.00005
vt 16 -22
vt -16 -34
vt -16 -14
vt -16 14
vt 14 -2
vt -16 -2
vt -16 6.000025
vt 14 6.00005
vt 16 6.000012
vt -14 -2
vt -14 6.000025
vt 16 -2
vt 16 18
vt -14 18
vt 14 6.00005
vt -16 6.000025
vt -16 18
vt 14 18
vt -16 72
vt -16 80
vt -16 64
vt -52 -22
vt -52 6.000012
vt 52 6.000012
vt 16 -22
vt 16 6.000025
vt 52 -22
vt 82 6
vt 52 -22
vt 52 6.000012
vt 82 -22
vt -52 -14
vt -52 -34
vt -52 14
vt -52 -2
vt -52 6.000012
vt -82 -2
vt -82 6
vt 52 6.000006
vt 52 -2
vt 82 6
vt 82 -2
vt 52 18
vt 16 18
vt 82 18
vt 52 18
vt -52 6.000012
vt -52 18
vt -82 6
vt -82 18
vt -52 80
vt -52 72
vt -52 64
vt 96 -14
vt 82 -14
vt 82 14
vt 96 14
vt 94 -24
vt 82 -31
vt -14 -14
vt -28 -14
vt -28 14
vt -14 14
vt -14 -31
vt -26 -24
vt 96 72
vt 82 72
vt 96 80
vt 82 80
vt -14 72.00002
vt -28 72.00002
vt -14 80.00002
vt -28 80.00002
vt -14 3.850014
vt -28 3.850014
vt -28 47.93376
vt -14 47.93376
vt 96 3.850002
vt 82 3.850002
vt 82 47.93373
vt 96 47.93373
vt 16 -14
vt -14 -14
vt -14 14
vt 16 14
vt 16 -34
vt 16 -14
vt 16 72.00001
vt 16 80.00001
vt 82 -14
vt 52 -14
vt 52 14
vt 82 14
vt 52 -34
vt 52 -14
vt 52 72.00001
vt 52 80.00001
vt 16 14
vt -14 14
vt -14 64
vt 16 64
vt -14 72
vt 16 72
vt 82 14
vt 52 14
vt 52 64
vt 82 64
vt 52 72
vt 82 72
g submesh0
f 1/1/1 2/2/2 3/3/3
f 4/4/4 1/1/1 3/3/3
f 5/5/5 6/6/6 7/7/7
f 8/8/8 5/5/5 7/7/7
f 9/9/9 10/10/10 11/11/11
f 9/9/9 12/12/12 10/10/10
f 13/13/13 14/14/14 15/15/15
f 13/13/13 16/16/16 14/14/14
f 17/17/17 18/18/18 19/19/19
f 20/20/20 17/17/17 19/19/19
f 21/21/21 22/22/22 23/23/23
f 21/21/21 24/24/24 22/22/22
f 25/25/25 26/26/26 27/27/27
f 25/25/25 28/28/28 26/26/26
f 29/29/29 27/27/27 30/30/30
f 29/29/29 25/25/25 27/27/27
f 31/31/31 32/32/32 33/33/33
f 34/34/34 31/31/31 33/33/33
f 35/35/35 36/36/36 37/37/37
f 35/35/35 38/38/38 36/36/36
f 39/39/39 40/40/40 41/41/41
f 39/39/39 42/42/42 40/40/40
f 43/43/43 41/41/41 44/44/44
f 43/43/43 39/39/39 41/41/41
f 45/45/45 46/46/46 47/47/47
f 46/46/46 48/48/48 47/47/47
f 49/49/49 50/50/50 51/51/51
f 50/50/50 52/52/52 51/51/51
f 53/53/53 54/54/54 55/55/55
f 54/54/54 56/56/56 55/55/55
f 57/57/57 58/58/58 59/59/59
f 58/58/58 60/60/60 59/59/59
f 54/54/54 61/61/61 56/56/56
f 61/61/61 62/62/62 56/56/56
f 63/63/63 64/64/64 65/65/65
f 64/64/64 66/66/66 65/65/65
f 67/67/67 68/68/68 69/69/69
f 68/68/68 70/70/70 69/69/69
f 71/71/71 72/72/72 73/73/73
f 72/72/72 74/74/74 73/73/73
f 75/75/75 76/76/76 77/77/77
f 76/76/76 78/78/78 77/77/77
f 79/79/79 80/80/80 81/81/81
f 80/80/80 82/82/82 81/81/81
f 83/83/83 84/84/84 85/85/85
f 84/84/84 86/86/86 85/85/85
f 87/87/87 88/88/88 89/89/89
f 88/88/88 90/90/90 89/89/89
f 91/91/91 92/92/92 93/93/93
f 92/92/92 94/94/94 93/93/93
f 95/95/95 96/96/96 97/97/97
f 96/96/96 98/98/98 97/97/97
f 99/99/99 44/44/44 100/100/100
f 99/99/99 43/43/43 44/44/44
f 95/95/95 100/100/100 96/96/96
f 95/95/95 99/99/99 100/100/100
f 101/101/101 50/50/50 102/102/102
f 101/101/101 102/102/102 103/103/103
f 83/83/83 101/101/101 103/103/103
f 83/83/83 103/103/103 84/84/84
f 104/104/104 105/105/105 106/106/106
f 107/107/107 104/104/104 106/106/106
f 108/108/108 109/109/109 110/110/110
f 111/111/111 108/108/108 110/110/110
f 112/112/112 30/30/30 113/113/113
f 112/112/112 29/29/29 30/30/30
f 87/87/87 113/113/113 88/88/88
f 87/87/87 112/112/112 113/113/113
f 114/114/114 115/115/115 79/79/79
f 116/116/116 114/114/114 79/79/79
f 91/91/91 114/114/114 116/116/116
f 92/92/92 91/91/91 116/116/116
f 117/117/117 118/118/118 119/119/119
f 117/117/117 120/120/120 118/118/118
f 76/76/76 120/120/120 117/117/117
f 76/76/76 121/121/121 120/120/120
f 122/122/122 123/123/123 53/53/53
f 124/124/124 122/122/122 53/53/53
f 125/125/125 122/122/122 124/124/124
f 126/126/126 125/125/125 124/124/124
f 126/126/126 124/124/124 127/127/127
f 124/124/124 53/53/53 55/55/55
f 127/127/127 124/124/124 55/55/55
f 52/52/52 101/101/101 128/128/128
f 52/52/52 50/50/50 101/101/101
f 128/128/128 101/101/101 83/83/83
f 92/92/92 116/116/116 129/129/129
f 116/116/116 79/79/79 81/81/81
f 129/129/129 116/116/116 81/81/81
f 78/78/78 117/117/117 130/130/130
f 78/78/78 76/76/76 117/117/117
f 130/130/130 117/117/117 119/119/119
f 32/32/32 131/131/131 132/132/132
f 33/33/33 32/32/32 132/132/132
f 133/133/133 134/134/134 135/135/135
f 133/133/133 136/136/136 134/134/134
f 41/41/41 137/137/137 138/138/138
f 41/41/41 40/40/40 137/137/137
f 44/44/44 138/138/138 139/139/139
f 44/44/44 41/41/41 138/138/138
f 140/140/140 141/141/141 142/142/142
f 143/143/143 140/140/140 142/142/142
f 144/144/144 145/145/145 146/146/146
f 144/144/144 147/147/147 145/145/145
f 148/148/148 135/135/135 149/149/149
f 148/148/148 133/133/133 135/135/135
f 150/150/150 151/151/151 152/152/152
f 153/153/153 150/150/150 152/152/152
f 98/98/98 154/154/154 155/155/155
f 98/98/98 96/96/96 154/154/154
f 100/100/100 139/139/139 156/156/156
f 100/100/100 44/44/44 139/139/139
f 96/96/96 156/156/156 154/154/154
f 96/96/96 100/100/100 156/156/156
f 131/131/131 157/157/157 158/158/158
f 132/132/132 131/131/131 158/158/158
f 157/157/157 17/17/17 20/20/20
f 158/158/158 157/157/157 20/20/20
f 159/159/159 160/160/160 161/161/161
f 159/159/159 162/162/162 160/160/160
f 163/163/163 164/164/164 165/165/165
f 163/163/163 166/166/166 164/164/164
f 167/167/167 28/28/28 25/25/25
f 167/167/167 168/168/168 28/28/28
f 138/138/138 168/168/168 167/167/167
f 138/138/138 137/137/137 168/168/168
f 169/169/169 25/25/25 29/29/29
f 169/169/169 167/167/167 25/25/25
f 139/139/139 167/167/167 169/169/169
f 139/139/139 138/138/138 167/167/167
f 141/141/141 170/170/170 171/171/171
f 142/142/142 141/141/141 171/171/171
f 170/170/170 172/172/172 173/173/173
f 171/171/171 170/170/170 173/173/173
f 174/174/174 147/147/147 144/144/144
f 174/174/174 175/175/175 147/147/147
f 176/176/176 175/175/175 174/174/174
f 176/176/176 177/177/177 175/175/175
f 178/178/178 161/161/161 179/179/179
f 178/178/178 159/159/159 161/161/161
f 180/180/180 165/165/165 181/181/181
f 180/180/180 163/163/163 165/165/165
f 151/151/151 182/182/182 183/183/183
f 152/152/152 151/151/151 183/183/183
f 182/182/182 184/184/184 185/185/185
f 183/183/183 182/182/182 185/185/185
f 186/186/186 87/87/87 89/89/89
f 186/186/186 187/187/187 87/87/87
f 155/155/155 187/187/187 186/186/186
f 155/155/155 154/154/154 187/187/187
f 188/188/188 29/29/29 112/112/112
f 188/188/188 169/169/169 29/29/29
f 156/156/156 169/169/169 188/188/188
f 156/156/156 139/139/139 169/169/169
f 187/187/187 112/112/112 87/87/87
f 187/187/187 188/188/188 112/112/112
f 154/154/154 188/188/188 187/187/187
f 154/154/154 156/156/156 188/188/188
g submesh1
f 189/189/189 190/190/190 191/191/191
f 192/192/192 189/189/189 191/191/191
f 193/193/193 194/194/194 190/190/190
f 189/189/189 193/193/193 190/190/190
f 195/195/195 196/196/196 197/197/197
f 198/198/198 195/195/195 197/197/197
f 199/199/199 200/200/200 196/196/196
f 195/195/195 199/199/199 196/196/196
f 201/201/201 202/202/202 203/203/203
f 202/202/202 204/204/204 203/203/203
f 205/205/205 206/206/206 207/207/207
f 206/206/206 208/208/208 207/207/207
f 209/209/209 210/210/210 211/211/211
f 212/212/212 209/209/209 211/211/211
f 213/213/213 214/214/214 215/215/215
f 216/216/216 213/213/213 215/215/215
f 217/217/217 218/218/218 219/219/219
f 220/220/220 217/217/217 219/219/219
f 221/221/221 199/199/199 195/195/195
f 222/222/222 221/221/221 195/195/195
f 223/223/223 205/205/205 207/207/207
f 224/224/224 223/223/223 207/207/207
f 225/225/225 226/226/226 227/227/227
f 228/228/228 225/225/225 227/227/227
f 226/226/226 217/217/217 220/220/220
f 227/227/227 226/226/226 220/220/220
f 194/194/194 229/229/229 230/230/230
f 190/190/190 194/194/194 230/230/230
f 229/229/229 221/221/221 222/222/222
f 230/230/230 229/229/229 222/222/222
f 202/202/202 231/231/231 232/232/232
f 204/204/204 202/202/202 232/232/232
f 231/231/231 223/223/223 224/224/224
f 232/232/232 231/231/231 224/224/224
g submesh2
f 233/233/233 234/234/234 235/235/235
f 236/236/236 233/233/233 235/235/235
f 236/236/236 235/235/235 237/237/237
f 238/238/238 236/236/236 237/237/237
f 239/239/239 240/240/240 241/241/241
f 242/242/242 239/239/239 241/241/241
f 240/240/240 233/233/233 236/236/236
f 241/241/241 240/240/240 236/236/236
f 242/242/242 241/241/241 243/243/243
f 244/244/244 242/242/242 243/243/243
f 241/241/241 236/236/236 238/238/238
f 243/243/243 241/241/241 238/238/238
