v -4 -140 48
v 6 -140 48
v -4 -2 48
v 6 -2 48
v 0 -140 0
v -8 -140 0
v 0 6 0
v -8 6 0
v 0 -140 10
v 0 -140 8
v 0 6 8
v 0 6 10
v -10 6 8
v -10 -140 10
v -10 6 10
v -10 -140 8
v -10 -140 10
v 0 -140 8
v 0 -140 10
v -10 -140 8
v -10 -140 28
v 0 -140 28
v -10 -2 28
v -10 -140 28
v 0 -140 28
v 0 -2 28
v -10 -140 36
v 0 -140 36
v -10 -2 36
v -10 -140 36
v 0 -140 36
v 0 -2 36
v -4 -140 48
v 6 -140 48
v -10 -2 36
v -10 -140 36
v -4 -2 48
v -4 -140 48
v 0 -140 36
v 0 -2 36
v 6 -140 48
v 6 -2 48
v -10 -140 8
v -10 6 8
v -24 -140 8
v -24 6 8
v -24 6 0
v -24 -140 0
v -24 -140 8
v -24 6 8
v -24 -140 48
v -24 -2 48
v -36 6 8
v -36 -140 8
v -36 -2 48
v -36 -140 48
v -28 -140 48
v -24 -140 48
v -24 -2 48
v -28 -2 48
v -36 -140 48
v -36 -2 48
v -24 6 0
v -32 -140 0
v -32 6 0
v -24 -140 0
v -32 6 0
v -36 -140 0
v -35 6 1
v -36 -140 48
v -28 -140 8
v -28 -140 48
v -36 -140 8
v -24 -140 8
v -24 -140 48
v 0 -140 4
v 0 6 4
v 0 -140 0
v 0 6 0
v -36 6 4
v -36 -140 8
v -36 6 8
v -36 -140 4
v -35 6 1
v -36 -140 4
v -36 6 4
v -36 -140 0
v -8 -140 4
v 0 -140 0
v 0 -140 4
v -8 -140 0
v -24 -140 4
v -24 -140 0
v -28 -140 4
v -32 -140 0
v -36 -140 4
v -36 -140 0
v 0 6 8
v -10 6 8
v -10 6 10
v 0 6 10
v 0 6 10
v -10 6 10
v 0 -2 28
v -10 -2 28
v 0 -2 28
v -10 -2 28
v 0 -2 36
v -10 -2 36
v 6 -2 48
v -4 -2 48
v -24 6 8
v -28 6 8
v -28 -2 48
v -24 -2 48
v -36 6 8
v -36 -2 48
v 0 6 0
v -8 6 0
v -8 6 4
v 0 6 4
v -24 6 4
v -24 6 8
v -24 6 0
v -32 6 0
v -28 6 4
v -28 6 8
v -35 6 1
v -36 6 4
v -36 6 8
vn 0 0 1
vn 0 0 1
vn 0 0 1
vn 0 0 1
vn 0 0 -1
vn 0 0 -1
vn 0 0 -1
vn 0 0 -1
vn 1 0 0
vn 1 0 0
vn 1 0 0
vn 1 0 0
vn -1 0 0
vn -1 0 0
vn -1 0 0
vn -1 0 0
vn 0 -1 0
vn 0 -1 0
vn 0 -1 0
vn 0 -1 0
vn 0 -1 0
vn 0 -1 0
vn -1 0 0
vn -1 0 0
vn 1 0 0
vn 1 0 0
vn 0 -1 0
vn 0 -1 0
vn -1 0 0
vn -1 0 0
vn 1 0 0
vn 1 0 0
vn 0 -1 0
vn 0 -1 0
vn -0.8944272 0 0.4472136
vn -0.8944272 0 0.4472136
vn -0.8944272 0 0.4472136
vn -0.8944272 0 0.4472136
vn 0.8944272 0 -0.4472136
vn 0.8944272 0 -0.4472136
vn 0.8944272 0 -0.4472136
vn 0.8944272 0 -0.4472136
vn 0 0 1
vn 0 0 1
vn 0 0 1
vn 0 0 1
vn 0 0 -1
vn 0 0 -1
vn 1 0 0
vn 1 0 0
vn 1 0 0
vn 1 0 0
vn -1 0 0
vn -1 0 0
vn -1 0 0
vn -1 0 0
vn 0 0 1
vn 0 0 1
vn 0 0 1
vn 0 0 1
vn 0 0 1
vn 0 0 1
vn 0 0 -1
vn 0 0 -1
vn 0 0 -1
vn 0 0 -1
vn -0.158108 0.004331725 -0.9743239
vn -0.158108 0.004331725 -0.9743239
vn -0.3162159 0.008663449 -0.9486477
vn 0 -1 0
vn 0 -1 0
vn 0 -1 0
vn 0 -1 0
vn 0 -1 0
vn 0 -1 0
vn 1 0 0
vn 1 0 0
vn 1 0 0
vn 1 0 0
vn -1 0 0
vn -1 0 0
vn -1 0 0
vn -1 0 0
vn -0.9743299 0.003424577 -0.1581139
vn -0.9743299 0.003424577 -0.1581139
vn -0.9486833 0 -0.3162278
vn -0.9999766 0.006849155 0
vn 0 -1 0
vn 0 -1 0
vn 0 -1 0
vn 0 -1 0
vn 0 -1 0
vn 0 -1 0
vn 0 -1 0
vn 0 -1 0
vn 0 -1 0
vn 0 -1 0
vn 0 1 0
vn 0 1 0
vn 0 1 0
vn 0 1 0
vn 0 0.9138116 0.4061384
vn 0 0.9138116 0.4061384
vn 0 0.9138116 0.4061384
vn 0 0.9138116 0.4061384
vn 0 1 0
vn 0 1 0
vn 0 1 0
vn 0 1 0
vn 0 1 0
vn 0 1 0
vn 0 0.9805807 0.1961161
vn 0 0.9805807 0.1961161
vn 0 0.9805807 0.1961161
vn 0 0.9805807 0.1961161
vn 0 0.9805807 0.1961161
vn 0 0.9805807 0.1961161
vn 0 1 0
vn 0 1 0
vn 0 1 0
vn 0 1 0
vn 0 1 0
vn 0 1 0
vn 0 1 0
vn 0 1 0
vn 0 1 0
vn 0 1 0
vn 0 1 0
vn 0 1 0
vn 0 1 0
vt 4 -140
vt -6 -140
vt 4 -2
vt -6 -2
vt 0 -140
vt -8 -140
vt 0 6
vt -8 6
vt 10 -140
vt 8 -140
vt 8 6
vt 10 6
vt -8 6
vt -10 -140
vt -10 6
vt -8 -140
vt 10 10
vt 0 8
vt 0 10
vt 10 8
vt 10 28
vt 0 28
vt -28 -2
vt -28 -140
vt 28 -140
vt 28 -2
vt 10 36
vt 0 36
vt -36 -2
vt -36 -140
vt 36 -140
vt 36 -2
vt 4 48
vt -6 48
vt -27.72725 -2
vt -27.72725 -140
vt -41.14365 -2
vt -41.14365 -140
vt 32.19938 -140
vt 32.19938 -2
vt 45.61579 -140
vt 45.61579 -2
vt 10 -140
vt 10 6
vt 24 -140
vt 24 6
vt -24 6
vt -24 -140
vt 8 -140
vt 8 6
vt 48 -140
vt 48 -2
vt -8 6
vt -8 -140
vt -48 -2
vt -48 -140
vt 28 -140
vt 24 -140
vt 24 -2
vt 28 -2
vt 36 -140
vt 36 -2
vt -23.69011 5.983072
vt -31.58681 -140.0211
vt -31.58681 5.977448
vt -23.69011 -140.0155
vt -31.58681 5.977448
vt -35.53517 -140.024
vt -34.70826 5.979671
vt 36 48
vt 28 8
vt 28 48
vt 36 8
vt 24 8
vt 24 48
vt 4 -140
vt 4 6
vt 0 -140
vt 0 6
vt -9.714911 6
vt -13.66326 -140
vt -13.66326 6
vt -9.714911 -140
vt -6.593466 6
vt -9.714911 -140
vt -9.714911 6
vt -5.766561 -140
vt 8 4
vt 0 0
vt 0 4
vt 8 0
vt 24 4
vt 24 0
vt 28 4
vt 32 0
vt 36 4
vt 36 0
vt 0 8
vt -10 8
vt -10 10
vt 0 10
vt 0 6.701285
vt -10 6.701285
vt 0 26.399
vt -10 26.399
vt 0 28
vt -10 28
vt 0 36
vt -10 36
vt 6 48
vt -4 48
vt -24 6.667949
vt -28 6.667949
vt -28 47.46011
vt -24 47.46011
vt -36 6.667949
vt -36 47.46011
vt 0 0
vt -8 0
vt -8 4
vt 0 4
vt -24 4
vt -24 8
vt -24 0
vt -32 0
vt -28 4
vt -28 8
vt -35 1
vt -36 4
vt -36 8
g submesh0
f 1/1/1 2/2/2 3/3/3
f 2/2/2 4/4/4 3/3/3
f 5/5/5 6/6/6 7/7/7
f 6/6/6 8/8/8 7/7/7
f 9/9/9 10/10/10 11/11/11
f 12/12/12 9/9/9 11/11/11
f 13/13/13 14/14/14 15/15/15
f 13/13/13 16/16/16 14/14/14
f 17/17/17 18/18/18 19/19/19
f 17/17/17 20/20/20 18/18/18
f 17/17/17 19/19/19 21/21/21
f 19/19/19 22/22/22 21/21/21
f 15/15/15 14/14/14 23/23/23
f 14/14/14 24/24/24 23/23/23
f 9/9/9 12/12/12 25/25/25
f 12/12/12 26/26/26 25/25/25
f 21/21/21 22/22/22 27/27/27
f 22/22/22 28/28/28 27/27/27
f 23/23/23 24/24/24 29/29/29
f 24/24/24 30/30/30 29/29/29
f 25/25/25 26/26/26 31/31/31
f 26/26/26 32/32/32 31/31/31
f 27/27/27 28/28/28 33/33/33
f 28/28/28 34/34/34 33/33/33
f 35/35/35 36/36/36 37/37/37
f 36/36/36 38/38/38 37/37/37
f 39/39/39 40/40/40 41/41/41
f 40/40/40 42/42/42 41/41/41
f 43/43/43 44/44/44 45/45/45
f 44/44/44 46/46/46 45/45/45
f 8/8/8 6/6/6 47/47/47
f 6/6/6 48/48/48 47/47/47
f 49/49/49 50/50/50 51/51/51
f 50/50/50 52/52/52 51/51/51
f 53/53/53 54/54/54 55/55/55
f 54/54/54 56/56/56 55/55/55
f 57/57/57 58/58/58 59/59/59
f 60/60/60 57/57/57 59/59/59
f 61/61/61 57/57/57 60/60/60
f 62/62/62 61/61/61 60/60/60
f 63/63/63 64/64/64 65/65/65
f 63/63/63 66/66/66 64/64/64
f 67/67/67 68/68/68 69/69/69
f 67/67/67 64/64/64 68/68/68
f 70/70/70 71/71/71 72/72/72
f 70/70/70 73/73/73 71/71/71
f 72/72/72 74/74/74 75/75/75
f 72/72/72 71/71/71 74/74/74
f 10/10/10 76/76/76 77/77/77
f 11/11/11 10/10/10 77/77/77
f 76/76/76 78/78/78 79/79/79
f 77/77/77 76/76/76 79/79/79
f 80/80/80 81/81/81 82/82/82
f 80/80/80 83/83/83 81/81/81
f 84/84/84 85/85/85 86/86/86
f 84/84/84 87/87/87 85/85/85
f 88/88/88 89/89/89 90/90/90
f 88/88/88 91/91/91 89/89/89
f 20/20/20 90/90/90 18/18/18
f 20/20/20 88/88/88 90/90/90
f 92/92/92 91/91/91 88/88/88
f 92/92/92 93/93/93 91/91/91
f 74/74/74 88/88/88 20/20/20
f 74/74/74 92/92/92 88/88/88
f 94/94/94 93/93/93 92/92/92
f 94/94/94 95/95/95 93/93/93
f 71/71/71 92/92/92 74/74/74
f 71/71/71 94/94/94 92/92/92
f 96/96/96 95/95/95 94/94/94
f 96/96/96 97/97/97 95/95/95
f 73/73/73 94/94/94 71/71/71
f 73/73/73 96/96/96 94/94/94
g submesh1
f 98/98/98 99/99/99 100/100/100
f 101/101/101 98/98/98 100/100/100
f 102/102/102 103/103/103 104/104/104
f 103/103/103 105/105/105 104/104/104
f 106/106/106 107/107/107 108/108/108
f 107/107/107 109/109/109 108/108/108
f 108/108/108 109/109/109 110/110/110
f 109/109/109 111/111/111 110/110/110
f 112/112/112 113/113/113 114/114/114
f 115/115/115 112/112/112 114/114/114
f 113/113/113 116/116/116 117/117/117
f 114/114/114 113/113/113 117/117/117
f 118/118/118 119/119/119 120/120/120
f 121/121/121 118/118/118 120/120/120
f 121/121/121 120/120/120 99/99/99
f 98/98/98 121/121/121 99/99/99
f 120/120/120 122/122/122 123/123/123
f 99/99/99 120/120/120 123/123/123
f 119/119/119 124/124/124 122/122/122
f 120/120/120 119/119/119 122/122/122
f 124/124/124 125/125/125 126/126/126
f 122/122/122 124/124/124 126/126/126
f 122/122/122 126/126/126 127/127/127
f 123/123/123 122/122/122 127/127/127
f 125/125/125 128/128/128 129/129/129
f 126/126/126 125/125/125 129/129/129
f 126/126/126 129/129/129 130/130/130
f 127/127/127 126/126/126 130/130/130
