v 4.999993 15 -0.008637549
v 5.999994 15 -0.00864351
v 5.999994 17 -0.00864351
v 4.999993 17 -0.008637549
v 5.98484 17 -54.00772
v 4.98484 15 -54.00769
v 4.98484 17 -54.00769
v 5.98484 15 -54.00772
v 47 15 -0.001199126
v 46.99996 15 -1.001199
v 46.99996 17 -1.001199
v 47 17 -0.001199126
v 4.999713 17 -1.008638
v 4.999993 15 -0.008637549
v 4.999993 17 -0.008637549
v 4.999713 15 -1.008638
v 5.999713 17 -1.008644
v 4.999713 17 -1.008638
v 4.999993 17 -0.008637549
v 5.999994 17 -0.00864351
v 4.999993 15 -0.008637549
v 5.999713 15 -1.008644
v 5.999994 15 -0.00864351
v 4.999713 15 -1.008638
v 28.99999 15 -0.008643271
v 46 15 -0.001199007
v 46 17 -0.001199007
v 28.99999 17 -0.008643271
v 46 15 -0.001199007
v 47 15 -0.001199126
v 47 17 -0.001199126
v 46 17 -0.001199007
v 45.99913 17 -24.0012
v 28.99326 15 -24.00863
v 28.99326 17 -24.00863
v 45.99913 15 -24.0012
v 46.99913 17 -24.0012
v 45.99913 15 -24.0012
v 45.99913 17 -24.0012
v 46.99913 15 -24.0012
v 46.99996 17 -1.001199
v 45.99996 17 -1.001199
v 46 17 -0.001199007
v 47 17 -0.001199126
v 28.99971 17 -1.008643
v 28.99999 17 -0.008643271
v 46 15 -0.001199007
v 46.99996 15 -1.001199
v 47 15 -0.001199126
v 45.99996 15 -1.001199
v 28.99999 15 -0.008643271
v 28.99971 15 -1.008643
v 46.99916 15 -23.0012
v 46.99916 17 -23.0012
v 46.99913 15 -24.0012
v 46.99913 17 -24.0012
v 4.993539 17 -23.00864
v 4.993539 15 -23.00864
v 4.993258 17 -24.00864
v 4.993258 15 -24.00864
v 5.993259 17 -24.00863
v 4.993258 17 -24.00864
v 4.993539 17 -23.00864
v 5.993539 17 -23.00863
v 4.993539 15 -23.00864
v 5.993259 15 -24.00863
v 5.993539 15 -23.00863
v 4.993258 15 -24.00864
v 46.99913 17 -24.0012
v 45.99913 17 -24.0012
v 45.99916 17 -23.0012
v 46.99916 17 -23.0012
v 28.99326 17 -24.00863
v 28.99354 17 -23.00863
v 45.99916 15 -23.0012
v 28.99354 15 -23.00863
v 28.99971 15 -1.008643
v 45.99996 15 -1.001199
v 45.99916 15 -23.0012
v 46.99913 15 -24.0012
v 46.99916 15 -23.0012
v 45.99913 15 -24.0012
v 28.99354 15 -23.00863
v 28.99326 15 -24.00863
v 28.99892 -133 -3.840079
v 41.99926 -133 -20.1698
v 41.99986 -133 -3.832595
v 28.99434 -133 -20.17727
v 27.99999 15 -0.008637311
v 27.99999 17 -0.008637311
v 28.99999 15 -0.008643271
v 28.99999 17 -0.008643271
v 27.98484 17 -54.00852
v 27.98484 15 -54.00852
v 28.98484 17 -54.00856
v 28.98484 15 -54.00856
v 27.99971 17 -1.008637
v 27.99999 17 -0.008637311
v 27.99999 15 -0.008637311
v 27.99971 15 -1.008637
v 27.99326 17 -24.00864
v 27.99354 17 -23.00864
v 27.99326 15 -24.00864
v 5.993259 15 -24.00863
v 5.993539 15 -23.00863
v 27.99354 15 -23.00864
v 27.99971 15 -1.008637
v 5.999713 15 -1.008644
v 27.99354 15 -23.00864
v 27.99326 15 -24.00864
v 11.99433 -133 -20.1773
v 27.99413 -133 -20.91979
v 27.99434 -133 -20.1772
v 11.99413 -133 -20.91989
v 27.99892 -133 -3.839997
v 11.99892 -133 -3.8401
v 4.985121 17 -53.00769
v 4.993258 15 -24.00864
v 4.993258 17 -24.00864
v 4.985121 15 -53.00769
v 4.98484 17 -54.00769
v 4.985121 15 -53.00769
v 4.985121 17 -53.00769
v 4.98484 15 -54.00769
v 28.99326 15 -24.00863
v 28.98512 15 -53.00856
v 28.98512 17 -53.00856
v 28.99326 17 -24.00863
v 28.98512 15 -53.00856
v 28.98484 15 -54.00856
v 28.98484 17 -54.00856
v 28.98512 17 -53.00856
v 5.98484 17 -54.00772
v 4.98484 17 -54.00769
v 4.985121 17 -53.00769
v 5.985121 17 -53.00772
v 4.985121 15 -53.00769
v 5.98484 15 -54.00772
v 5.985121 15 -53.00772
v 4.98484 15 -54.00769
v 28.98484 17 -54.00856
v 27.98484 17 -54.00852
v 27.98512 17 -53.00852
v 28.98512 17 -53.00856
v 27.98512 15 -53.00852
v 5.985121 15 -53.00772
v 27.98512 15 -53.00852
v 28.98484 15 -54.00856
v 28.98512 15 -53.00856
v 27.98484 15 -54.00852
v 27.98709 -133 -46.0085
v 11.98709 -133 -46.008
v 27.98512 17 -53.00852
v 5.985121 17 -53.00772
v 27.98512 15 -53.00852
v 5.985121 15 -53.00772
v 5.985121 17 -53.00772
v 5.993259 17 -24.00863
v 5.985121 15 -53.00772
v 5.993259 15 -24.00863
v 27.99326 17 -24.00864
v 27.98512 17 -53.00852
v 27.99326 15 -24.00864
v 27.98512 15 -53.00852
v 5.993259 17 -24.00863
v 5.993539 17 -23.00863
v 5.993259 15 -24.00863
v 5.993539 15 -23.00863
v 27.99354 17 -23.00864
v 27.99326 17 -24.00864
v 27.99354 15 -23.00864
v 27.99326 15 -24.00864
v 5.999713 17 -1.008644
v 5.999713 15 -1.008644
v 45.99996 17 -1.001199
v 45.99916 17 -23.0012
v 45.99996 15 -1.001199
v 45.99916 15 -23.0012
v 5.999713 17 -1.008644
v 27.99971 17 -1.008637
v 5.999713 15 -1.008644
v 27.99971 15 -1.008637
v 28.99354 17 -23.00863
v 27.99354 17 -23.00864
v 28.99354 15 -23.00863
v 27.99354 15 -23.00864
v 28.99971 17 -1.008643
v 28.99971 15 -1.008643
v 45.99916 17 -23.0012
v 28.99354 17 -23.00863
v 45.99916 15 -23.0012
v 28.99354 15 -23.00863
v 28.99971 17 -1.008643
v 45.99996 17 -1.001199
v 28.99971 15 -1.008643
v 45.99996 15 -1.001199
v 27.98512 15 -53.00852
v 27.99326 15 -24.00864
v 24.98709 7 -46.00842
v 24.99413 7 -20.91983
v 27.99354 15 -23.00864
v 28.99354 15 -23.00863
v 24.99434 7 -20.17724
v 25.99434 7 -20.17724
v 5.993259 15 -24.00863
v 5.985121 15 -53.00772
v 8.994125 7 -20.91983
v 8.987085 7 -46.00784
v 5.985121 15 -53.00772
v 27.98512 15 -53.00852
v 8.987085 7 -46.00784
v 24.98709 7 -46.00842
v 27.99354 15 -23.00864
v 24.99434 7 -20.17724
v 28.99354 15 -23.00863
v 45.99916 15 -23.0012
v 25.99434 7 -20.17724
v 38.99926 7 -20.1698
v 5.993539 15 -23.00863
v 8.994334 7 -20.17724
v 27.99971 15 -1.008637
v 5.999713 15 -1.008644
v 24.99892 7 -3.84004
v 8.998919 7 -3.840036
v 5.999713 15 -1.008644
v 8.998919 7 -3.840036
v 28.99971 15 -1.008643
v 27.99971 15 -1.008637
v 25.99892 7 -3.840031
v 45.99916 15 -23.0012
v 45.99996 15 -1.001199
v 38.99926 7 -20.1698
v 38.99986 7 -3.832595
v 45.99996 15 -1.001199
v 28.99971 15 -1.008643
v 38.99986 7 -3.832595
v 25.99892 7 -3.840031
v 24.98709 7 -46.00842
v 24.99413 7 -20.91983
v 27.98709 -133 -46.0085
v 27.99413 -133 -20.91979
v 24.99434 7 -20.17724
v 25.99434 7 -20.17724
v 27.99434 -133 -20.1772
v 28.99434 -133 -20.17727
v 8.994125 7 -20.91983
v 8.987085 7 -46.00784
v 11.99413 -133 -20.91989
v 11.98709 -133 -46.008
v 8.987085 7 -46.00784
v 24.98709 7 -46.00842
v 11.98709 -133 -46.008
v 27.98709 -133 -46.0085
v 24.99434 7 -20.17724
v 27.99434 -133 -20.1772
v 25.99434 7 -20.17724
v 38.99926 7 -20.1698
v 28.99434 -133 -20.17727
v 41.99926 -133 -20.1698
v 8.994334 7 -20.17724
v 11.99433 -133 -20.1773
v 24.99892 7 -3.84004
v 8.998919 7 -3.840036
v 27.99892 -133 -3.839997
v 11.99892 -133 -3.8401
v 8.998919 7 -3.840036
v 11.99892 -133 -3.8401
v 25.99892 7 -3.840031
v 24.99892 7 -3.84004
v 28.99892 -133 -3.840079
v 38.99926 7 -20.1698
v 38.99986 7 -3.832595
v 41.99926 -133 -20.1698
v 41.99986 -133 -3.832595
v 38.99986 7 -3.832595
v 25.99892 7 -3.840031
v 41.99986 -133 -3.832595
v 28.99892 -133 -3.840079
vn 5.960462E-06 0 1
vn 5.960462E-06 0 1
vn 5.960462E-06 0 1
vn 5.960462E-06 0 1
vn -3.814697E-05 0 -1
vn -3.814697E-05 0 -1
vn -3.814697E-05 0 -1
vn -3.814697E-05 0 -1
vn 1 0 -3.814697E-05
vn 1 0 -3.814697E-05
vn 1 0 -3.814697E-05
vn 1 0 -3.814697E-05
vn -1 0 0.0002803802
vn -1 0 0.0002803802
vn -1 0 0.0002803802
vn -1 0 0.0002803802
vn 0 1 0
vn 0 1 0
vn 0 1 0
vn 0 1 0
vn 0 -1 0
vn 0 -1 0
vn 0 -1 0
vn 0 -1 0
vn -0.0004378977 0 0.9999999
vn -0.0004378977 0 0.9999999
vn -0.0004378977 0 0.9999999
vn -0.0004378977 0 0.9999999
vn 1.192093E-07 0 1
vn 1.192093E-07 0 1
vn 1.192093E-07 0 1
vn 1.192093E-07 0 1
vn 0.0004371929 0 -0.9999999
vn 0.0004371929 0 -0.9999999
vn 0.0004371929 0 -0.9999999
vn 0.0004371929 0 -0.9999999
vn 0 0 -1
vn 0 0 -1
vn 0 0 -1
vn 0 0 -1
vn 0 1 0
vn 0 1 0
vn 0 1 0
vn 0 1 0
vn 0 1 0
vn 0 1 0
vn 0 -1 0
vn 0 -1 0
vn 0 -1 0
vn 0 -1 0
vn 0 -1 0
vn 0 -1 0
vn 1 0 -3.641302E-05
vn 1 0 -3.641302E-05
vn 1 0 -3.433228E-05
vn 1 0 -3.433228E-05
vn -1 0 0.0002806187
vn -1 0 0.0002806187
vn -1 0 0.0002808571
vn -1 0 0.0002808571
vn 0 1 0
vn 0 1 0
vn 0 1 0
vn 0 1 0
vn 0 -1 0
vn 0 -1 0
vn 0 -1 0
vn 0 -1 0
vn 0 1 0
vn 0 1 0
vn 0 1 0
vn 0 1 0
vn 0 1 0
vn 0 1 0
vn 0 1 0
vn 0 1 0
vn 0 1 0
vn 0 1 0
vn 0 -1 0
vn 0 -1 0
vn 0 -1 0
vn 0 -1 0
vn 0 -1 0
vn 0 -1 0
vn 0 -1 0
vn 0 -1 0
vn 0 -1 0
vn 0 -1 0
vn -2.817674E-07 0 1
vn -2.817674E-07 0 1
vn 5.960464E-06 0 1
vn 5.960464E-06 0 1
vn -3.606623E-05 0 -1
vn -3.606623E-05 0 -1
vn -4.577637E-05 0 -1
vn -4.577637E-05 0 -1
vn 0 1 0
vn 0 1 0
vn 0 -1 0
vn 0 -1 0
vn 0 1 0
vn 0 1 0
vn 0 1 0
vn 0 1 0
vn 0 1 0
vn 0 1 0
vn 0 1 0
vn 0 1 0
vn 0 -1 0
vn 0 -1 0
vn 0 -1 0
vn 0 -1 0
vn 0 -1 0
vn 0 -1 0
vn 0 -1 0
vn 0 -1 0
vn -0.9999999 0 0.0002806032
vn -0.9999999 0 0.0002806032
vn -0.9999999 0 0.0002806032
vn -0.9999999 0 0.0002806032
vn -1 0 0.0002808571
vn -1 0 0.0002808571
vn -1 0 0.0002808571
vn -1 0 0.0002808571
vn 0.9999999 0 -0.000280644
vn 0.9999999 0 -0.000280644
vn 0.9999999 0 -0.000280644
vn 0.9999999 0 -0.000280644
vn 1 0 -0.0002803802
vn 1 0 -0.0002803802
vn 1 0 -0.0002803802
vn 1 0 -0.0002803802
vn 0 1 0
vn 0 1 0
vn 0 1 0
vn 0 1 0
vn 0 -1 0
vn 0 -1 0
vn 0 -1 0
vn 0 -1 0
vn 0 1 0
vn 0 1 0
vn 0 1 0
vn 0 1 0
vn 0 1 0
vn 0 1 0
vn 0 -1 0
vn 0 -1 0
vn 0 -1 0
vn 0 -1 0
vn 0 -1 0
vn 0 -1 0
vn 3.606623E-05 0 1
vn 3.606623E-05 0 1
vn 3.606623E-05 0 1
vn 3.606623E-05 0 1
vn 0.9999999 0 -0.0002806192
vn 0.9999999 0 -0.0002806192
vn 0.9999999 0 -0.0002806192
vn 0.9999999 0 -0.0002806192
vn -0.9999999 0 0.0002806445
vn -0.9999999 0 0.0002806445
vn -0.9999999 0 0.0002806445
vn -0.9999999 0 0.0002806445
vn 1 0 -0.0002803802
vn 1 0 -0.0002803802
vn 1 0 -0.0002803802
vn 1 0 -0.0002803802
vn -1 0 0.0002803802
vn -1 0 0.0002803802
vn -1 0 0.0002803802
vn -1 0 0.0002803802
vn 1 0 -0.0002806188
vn 1 0 -0.0002806188
vn -1 0 3.641302E-05
vn -1 0 3.641302E-05
vn -1 0 3.641302E-05
vn -1 0 3.641302E-05
vn 2.817674E-07 0 -1
vn 2.817674E-07 0 -1
vn 2.817674E-07 0 -1
vn 2.817674E-07 0 -1
vn -1.907349E-06 0 1
vn -1.907349E-06 0 1
vn -1.907349E-06 0 1
vn -1.907349E-06 0 1
vn -5.960464E-06 0 -1
vn -5.960464E-06 0 -1
vn -0.0004371992 0 0.9999999
vn -0.0004371992 0 0.9999999
vn -0.0004371992 0 0.9999999
vn -0.0004371992 0 0.9999999
vn 0.0004378914 0 -0.9999999
vn 0.0004378914 0 -0.9999999
vn 0.0004378914 0 -0.9999999
vn 0.0004378914 0 -0.9999999
vn 0.9363292 -0.3511234 -0.0002627756
vn 0.9363291 -0.3511235 -0.0002627579
vn 0.9363291 -0.3511235 -0.0002627579
vn 0.9363291 -0.3511235 -0.0002627402
vn 1.798055E-06 -0.3336447 -0.9426989
vn 8.990277E-07 -0.3336443 -0.9426991
vn 8.990277E-07 -0.3336443 -0.9426991
vn 0 -0.3336439 -0.9426992
vn -0.9363292 -0.3511234 0.000262752
vn -0.9363292 -0.3511234 0.0002627491
vn -0.9363292 -0.3511234 0.0002627491
vn -0.9363292 -0.3511234 0.0002627463
vn -2.714261E-05 -0.6585045 -0.7525768
vn -2.729757E-05 -0.6585043 -0.752577
vn -2.729757E-05 -0.6585043 -0.752577
vn -2.745254E-05 -0.6585041 -0.7525772
vn 0.9363291 -0.3511237 -0.000263537
vn 0.936329 -0.3511239 -0.0002645459
vn 0.0004121261 -0.3337812 -0.9426505
vn 0.0004756958 -0.3339224 -0.9426004
vn 0.0004756958 -0.3339224 -0.9426004
vn 0.0005392655 -0.3340637 -0.9425503
vn -0.9363291 -0.3511235 0.0002625282
vn -0.9363292 -0.3511234 0.0002629358
vn -2.656218E-07 -0.3336449 0.9426988
vn -2.043241E-08 -0.3336444 0.942699
vn -2.043241E-08 -0.3336444 0.942699
vn 2.24757E-07 -0.3336439 0.9426992
vn -0.9363292 -0.3511235 0.0002627516
vn -0.9363291 -0.3511235 0.0002627455
vn 5.618922E-06 -0.3336453 0.9426987
vn -1.460925E-06 -0.3336437 0.9426993
vn -1.460925E-06 -0.3336437 0.9426993
vn 0.7525767 -0.6585046 -2.740359E-05
vn 0.7525767 -0.6585046 -2.740833E-05
vn 0.7525767 -0.6585046 -2.740833E-05
vn 0.7525768 -0.6585046 -2.741307E-05
vn -0.0004128495 -0.3333232 0.9428125
vn -0.0004760108 -0.3333934 0.9427876
vn -0.0004760108 -0.3333934 0.9427876
vn -0.0005391721 -0.3334636 0.9427629
vn 0.9997705 0.02142365 -0.0002805422
vn 0.9997705 0.02142365 -0.0002805415
vn 0.9997705 0.02142365 -0.0002805415
vn 0.9997705 0.02142365 -0.0002805409
vn 0 -2.997262E-07 -1
vn -3.71933E-05 -8.310591E-07 -1
vn -3.71933E-05 -8.310591E-07 -1
vn -7.43866E-05 -1.362392E-06 -1
vn -0.9997705 -0.02142365 0.0002805487
vn -0.9997705 -0.02142365 0.0002805481
vn -0.9997705 -0.02142365 0.0002805481
vn -0.9997705 -0.02142365 0.0002805475
vn -3.647804E-05 3.899847E-07 -1
vn -3.385544E-05 1.464571E-07 -1
vn -3.385544E-05 1.464571E-07 -1
vn -3.123283E-05 -9.707042E-08 -1
vn 0.9997705 0.02142365 -0.0002824704
vn 0.9997705 0.02142365 -0.0002824704
vn 0.0005721343 1.249163E-05 -0.9999999
vn 0.000573381 1.240254E-05 -0.9999999
vn 0.000573381 1.240254E-05 -0.9999999
vn 0.0005746276 1.231345E-05 -0.9999999
vn -0.9997705 -0.02142365 0.0002811864
vn -0.9997705 -0.02142365 0.0002811864
vn 2.384186E-07 3.133501E-07 1
vn -3.099442E-06 -1.396452E-07 1
vn -3.099442E-06 -1.396452E-07 1
vn -6.437302E-06 -5.926404E-07 1
vn -0.9997705 -0.02142365 0.0002805413
vn -0.9997705 -0.02142365 0.0002805414
vn -9.298325E-06 -5.449568E-07 1
vn 3.647804E-05 7.629395E-07 1
vn 3.647804E-05 7.629395E-07 1
vn 0.9997705 0.02142365 -3.641726E-05
vn 0.9997705 0.02142365 -3.641725E-05
vn 0.9997705 0.02142365 -3.641725E-05
vn 0.9997705 0.02142365 -3.641725E-05
vn -0.0005719247 -1.225042E-05 0.9999999
vn -0.0005738136 -1.246631E-05 0.9999999
vn -0.0005738136 -1.246631E-05 0.9999999
vn -0.0005757025 -1.268219E-05 0.9999999
vt -4.999992 15
vt -5.999993 15
vt -5.999993 17
vt -4.999992 17
vt 5.987 17
vt 4.987 15
vt 4.987 17
vt 5.987 15
vt 0.0005068527 15
vt -0.9994931 15
vt -0.9994931 17
vt 0.0005068527 17
vt 1.007235 17
vt 0.007234458 15
vt 0.007234458 17
vt 1.007235 15
vt 5.999713 -1.008644
vt 4.999713 -1.008638
vt 4.999993 -0.008637549
vt 5.999994 -0.00864351
vt -4.999993 -0.008637549
vt -5.999713 -1.008644
vt -5.999994 -0.00864351
vt -4.999713 -1.008638
vt -28.99999 15
vt -46 15
vt -46 17
vt -28.99999 17
vt -46 15
vt -47 15
vt -47 17
vt -46 17
vt 45.99388 17
vt 28.98801 15
vt 28.98801 17
vt 45.99388 15
vt 46.99388 17
vt 45.99388 15
vt 45.99388 17
vt 46.99388 15
vt 46.99996 -1.001199
vt 45.99996 -1.001199
vt 46 -0.001199007
vt 47 -0.001199126
vt 28.99971 -1.008643
vt 28.99999 -0.008643271
vt -46 -0.001199007
vt -46.99996 -1.001199
vt -47 -0.001199126
vt -45.99996 -1.001199
vt -28.99999 -0.008643271
vt -28.99971 -1.008643
vt -22.99949 15
vt -22.99949 17
vt -23.99949 15
vt -23.99949 17
vt 23.00723 17
vt 23.00723 15
vt 24.00723 17
vt 24.00723 15
vt 5.993259 -24.00863
vt 4.993258 -24.00864
vt 4.993539 -23.00864
vt 5.993539 -23.00863
vt -4.993539 -23.00864
vt -5.993259 -24.00863
vt -5.993539 -23.00863
vt -4.993258 -24.00864
vt 46.99913 -24.0012
vt 45.99913 -24.0012
vt 45.99916 -23.0012
vt 46.99916 -23.0012
vt 28.99326 -24.00863
vt 28.99354 -23.00863
vt 45.99916 -23.0012
vt 28.99354 -23.00863
vt 28.99971 -1.008643
vt 45.99996 -1.001199
vt -45.99916 -23.0012
vt -46.99913 -24.0012
vt -46.99916 -23.0012
vt -45.99913 -24.0012
vt -28.99354 -23.00863
vt -28.99326 -24.00863
vt -28.99892 -3.840079
vt -41.99926 -20.1698
vt -41.99986 -3.832595
vt -28.99434 -20.17727
vt -27.99999 15
vt -27.99999 17
vt -28.99999 15
vt -28.99999 17
vt 27.987 17
vt 27.987 15
vt 28.987 17
vt 28.987 15
vt 27.99971 -1.008637
vt 27.99999 -0.008637311
vt -27.99999 -0.008637311
vt -27.99971 -1.008637
vt 27.99326 -24.00864
vt 27.99354 -23.00864
vt 27.99326 -24.00864
vt 5.993259 -24.00863
vt 5.993539 -23.00863
vt 27.99354 -23.00864
vt 27.99971 -1.008637
vt 5.999713 -1.008644
vt -27.99354 -23.00864
vt -27.99326 -24.00864
vt -11.99433 -20.1773
vt -27.99413 -20.91979
vt -27.99434 -20.1772
vt -11.99413 -20.91989
vt -27.99892 -3.839997
vt -11.99892 -3.8401
vt 53.00629 17
vt 24.00723 15
vt 24.00723 17
vt 53.00629 15
vt 54.00629 17
vt 53.00629 15
vt 53.00629 17
vt 54.00629 15
vt -24.0005 15
vt -53.00043 15
vt -53.00043 17
vt -24.0005 17
vt -53.00043 15
vt -54.00043 15
vt -54.00043 17
vt -53.00043 17
vt 5.98484 -54.00772
vt 4.98484 -54.00769
vt 4.985121 -53.00769
vt 5.985121 -53.00772
vt -4.985121 -53.00769
vt -5.98484 -54.00772
vt -5.985121 -53.00772
vt -4.98484 -54.00769
vt 28.98484 -54.00856
vt 27.98484 -54.00852
vt 27.98512 -53.00852
vt 28.98512 -53.00856
vt 27.98512 -53.00852
vt 5.985121 -53.00772
vt -27.98512 -53.00852
vt -28.98484 -54.00856
vt -28.98512 -53.00856
vt -27.98484 -54.00852
vt -27.98709 -46.0085
vt -11.98709 -46.008
vt -27.98703 17
vt -5.987033 17
vt -27.98703 15
vt -5.987033 15
vt -53.00604 17
vt -24.00695 17
vt -53.00604 15
vt -24.00695 15
vt 24.00078 17
vt 53.00066 17
vt 24.00078 15
vt 53.00066 15
vt -24.00695 17
vt -23.00695 17
vt -24.00695 15
vt -23.00695 15
vt 23.00079 17
vt 24.00079 17
vt 23.00079 15
vt 24.00079 15
vt -1.00696 17
vt -1.00696 15
vt 0.999524 17
vt 22.99953 17
vt 0.999524 15
vt 22.99953 15
vt 5.999712 17
vt 27.99971 17
vt 5.999712 15
vt 27.99971 15
vt -28.9935 17
vt -27.9935 17
vt -28.9935 15
vt -27.9935 15
vt 28.99972 17
vt 28.99972 15
vt -45.9891 17
vt -28.98348 17
vt -45.9891 15
vt -28.98348 15
vt 28.99927 17
vt 45.99952 17
vt 28.99927 15
vt 45.99952 15
vt -53.00066 23.87639
vt -24.00078 23.87639
vt -46.0014 15.33239
vt -20.91282 15.33239
vt 27.9935 21.81721
vt 28.9935 21.81721
vt 24.9943 13.33094
vt 25.9943 13.33094
vt 24.00695 11.9382
vt 53.00604 11.9382
vt 20.9173 3.394196
vt 46.00531 3.394196
vt 5.987033 46.19433
vt 27.98703 46.19433
vt 8.988745 35.56419
vt 24.98874 35.56419
vt -23.00079 23.87639
vt -20.17023 15.33239
vt 28.98348 21.82384
vt 45.9891 21.82384
vt 25.98551 13.33713
vt 38.99044 13.33654
vt 23.00695 11.9382
vt 20.17472 3.394196
vt -27.99971 13.80395
vt -5.999712 13.80395
vt -24.99892 5.317679
vt -8.998918 5.317682
vt 1.00696 11.9382
vt 3.837511 3.394195
vt -28.99972 13.80401
vt -27.99972 13.80401
vt -25.99894 5.317735
vt -22.99953 41.57986
vt -0.999524 41.57986
vt -20.16838 30.94971
vt -3.831175 30.94971
vt -45.99952 13.80175
vt -28.99927 13.80175
vt -38.99818 5.316503
vt -25.99723 5.315922
vt -46.0014 6.462802
vt -20.91282 6.462802
vt -46.00064 -133.5693
vt -20.91194 -133.5693
vt 24.99434 7.000006
vt 25.99434 7.000006
vt 27.99434 -133
vt 28.99434 -133
vt 20.9173 6.805581
vt 46.00531 6.805581
vt 20.91652 -133.2266
vt 46.00463 -133.2266
vt 8.988764 6.999982
vt 24.98876 6.999982
vt 11.98876 -133
vt 27.98876 -133
vt -20.17018 6.462801
vt -20.16929 -133.5693
vt 25.98279 6.999748
vt 38.98772 6.999748
vt 28.98279 -133.0003
vt 41.98772 -133.0003
vt 20.17471 6.80558
vt 20.17392 -133.2266
vt -24.99892 7.000001
vt -8.998919 7.000001
vt -27.99892 -133
vt -11.99892 -133
vt 3.837511 6.805581
vt 3.836733 -133.2266
vt -25.99888 6.999998
vt -24.99888 6.999998
vt -28.99888 -133
vt -20.16838 6.162871
vt -3.831175 6.162871
vt -20.16827 -133.8693
vt -3.831065 -133.8693
vt -38.99766 6.999953
vt -25.99672 6.999953
vt -41.99766 -133
vt -28.99672 -133
g submesh0
f 1/1/1 2/2/2 3/3/3
f 4/4/4 1/1/1 3/3/3
f 5/5/5 6/6/6 7/7/7
f 5/5/5 8/8/8 6/6/6
f 9/9/9 10/10/10 11/11/11
f 12/12/12 9/9/9 11/11/11
f 13/13/13 14/14/14 15/15/15
f 13/13/13 16/16/16 14/14/14
f 17/17/17 18/18/18 19/19/19
f 20/20/20 17/17/17 19/19/19
f 21/21/21 22/22/22 23/23/23
f 21/21/21 24/24/24 22/22/22
f 25/25/25 26/26/26 27/27/27
f 28/28/28 25/25/25 27/27/27
f 29/29/29 30/30/30 31/31/31
f 32/32/32 29/29/29 31/31/31
f 33/33/33 34/34/34 35/35/35
f 33/33/33 36/36/36 34/34/34
f 37/37/37 38/38/38 39/39/39
f 37/37/37 40/40/40 38/38/38
f 41/41/41 42/42/42 43/43/43
f 44/44/44 41/41/41 43/43/43
f 42/42/42 45/45/45 46/46/46
f 43/43/43 42/42/42 46/46/46
f 47/47/47 48/48/48 49/49/49
f 47/47/47 50/50/50 48/48/48
f 51/51/51 50/50/50 47/47/47
f 51/51/51 52/52/52 50/50/50
f 10/10/10 53/53/53 54/54/54
f 11/11/11 10/10/10 54/54/54
f 53/53/53 55/55/55 56/56/56
f 54/54/54 53/53/53 56/56/56
f 57/57/57 16/16/16 13/13/13
f 57/57/57 58/58/58 16/16/16
f 59/59/59 58/58/58 57/57/57
f 59/59/59 60/60/60 58/58/58
f 61/61/61 62/62/62 63/63/63
f 64/64/64 61/61/61 63/63/63
f 64/64/64 63/63/63 18/18/18
f 17/17/17 64/64/64 18/18/18
f 65/65/65 66/66/66 67/67/67
f 65/65/65 68/68/68 66/66/66
f 24/24/24 67/67/67 22/22/22
f 24/24/24 65/65/65 67/67/67
f 69/69/69 70/70/70 71/71/71
f 72/72/72 69/69/69 71/71/71
f 72/72/72 71/71/71 42/42/42
f 41/41/41 72/72/72 42/42/42
f 70/70/70 73/73/73 74/74/74
f 71/71/71 70/70/70 74/74/74
f 75/75/75 76/76/76 77/77/77
f 78/78/78 75/75/75 77/77/77
f 79/79/79 80/80/80 81/81/81
f 79/79/79 82/82/82 80/80/80
f 50/50/50 81/81/81 48/48/48
f 50/50/50 79/79/79 81/81/81
f 83/83/83 82/82/82 79/79/79
f 83/83/83 84/84/84 82/82/82
f 85/85/85 86/86/86 87/87/87
f 85/85/85 88/88/88 86/86/86
f 2/2/2 89/89/89 90/90/90
f 3/3/3 2/2/2 90/90/90
f 89/89/89 91/91/91 92/92/92
f 90/90/90 89/89/89 92/92/92
f 93/93/93 8/8/8 5/5/5
f 93/93/93 94/94/94 8/8/8
f 95/95/95 94/94/94 93/93/93
f 95/95/95 96/96/96 94/94/94
f 45/45/45 97/97/97 98/98/98
f 46/46/46 45/45/45 98/98/98
f 97/97/97 17/17/17 20/20/20
f 98/98/98 97/97/97 20/20/20
f 99/99/99 52/52/52 51/51/51
f 99/99/99 100/100/100 52/52/52
f 23/23/23 100/100/100 99/99/99
f 23/23/23 22/22/22 100/100/100
f 73/73/73 101/101/101 102/102/102
f 74/74/74 73/73/73 102/102/102
f 103/103/103 104/104/104 105/105/105
f 106/106/106 103/103/103 105/105/105
f 76/76/76 106/106/106 107/107/107
f 77/77/77 76/76/76 107/107/107
f 106/106/106 105/105/105 108/108/108
f 107/107/107 106/106/106 108/108/108
f 109/109/109 84/84/84 83/83/83
f 109/109/109 110/110/110 84/84/84
f 111/111/111 112/112/112 113/113/113
f 111/111/111 114/114/114 112/112/112
f 115/115/115 88/88/88 85/85/85
f 115/115/115 113/113/113 88/88/88
f 116/116/116 113/113/113 115/115/115
f 116/116/116 111/111/111 113/113/113
f 117/117/117 118/118/118 119/119/119
f 117/117/117 120/120/120 118/118/118
f 121/121/121 122/122/122 123/123/123
f 121/121/121 124/124/124 122/122/122
f 125/125/125 126/126/126 127/127/127
f 128/128/128 125/125/125 127/127/127
f 129/129/129 130/130/130 131/131/131
f 132/132/132 129/129/129 131/131/131
f 133/133/133 134/134/134 135/135/135
f 136/136/136 133/133/133 135/135/135
f 136/136/136 135/135/135 62/62/62
f 61/61/61 136/136/136 62/62/62
f 137/137/137 138/138/138 139/139/139
f 137/137/137 140/140/140 138/138/138
f 68/68/68 139/139/139 66/66/66
f 68/68/68 137/137/137 139/139/139
f 141/141/141 142/142/142 143/143/143
f 144/144/144 141/141/141 143/143/143
f 144/144/144 143/143/143 101/101/101
f 73/73/73 144/144/144 101/101/101
f 142/142/142 133/133/133 136/136/136
f 143/143/143 142/142/142 136/136/136
f 145/145/145 146/146/146 104/104/104
f 103/103/103 145/145/145 104/104/104
f 147/147/147 148/148/148 149/149/149
f 147/147/147 150/150/150 148/148/148
f 110/110/110 149/149/149 84/84/84
f 110/110/110 147/147/147 149/149/149
f 139/139/139 150/150/150 147/147/147
f 139/139/139 138/138/138 150/150/150
f 114/114/114 151/151/151 112/112/112
f 114/114/114 152/152/152 151/151/151
f 153/153/153 154/154/154 155/155/155
f 154/154/154 156/156/156 155/155/155
f 157/157/157 158/158/158 159/159/159
f 158/158/158 160/160/160 159/159/159
f 161/161/161 162/162/162 163/163/163
f 162/162/162 164/164/164 163/163/163
f 165/165/165 166/166/166 167/167/167
f 166/166/166 168/168/168 167/167/167
f 169/169/169 170/170/170 171/171/171
f 170/170/170 172/172/172 171/171/171
f 166/166/166 173/173/173 168/168/168
f 173/173/173 174/174/174 168/168/168
f 175/175/175 176/176/176 177/177/177
f 176/176/176 178/178/178 177/177/177
f 179/179/179 180/180/180 181/181/181
f 180/180/180 182/182/182 181/181/181
f 183/183/183 184/184/184 185/185/185
f 184/184/184 186/186/186 185/185/185
f 180/180/180 187/187/187 182/182/182
f 187/187/187 188/188/188 182/182/182
f 189/189/189 190/190/190 191/191/191
f 190/190/190 192/192/192 191/191/191
f 193/193/193 194/194/194 195/195/195
f 194/194/194 196/196/196 195/195/195
f 197/197/197 198/198/198 199/199/199
f 198/198/198 200/200/200 199/199/199
f 201/201/201 202/202/202 203/203/203
f 202/202/202 204/204/204 203/203/203
f 205/205/205 206/206/206 207/207/207
f 206/206/206 208/208/208 207/207/207
f 209/209/209 210/210/210 211/211/211
f 210/210/210 212/212/212 211/211/211
f 198/198/198 213/213/213 200/200/200
f 213/213/213 214/214/214 200/200/200
f 215/215/215 216/216/216 217/217/217
f 216/216/216 218/218/218 217/217/217
f 219/219/219 205/205/205 220/220/220
f 205/205/205 207/207/207 220/220/220
f 221/221/221 222/222/222 223/223/223
f 222/222/222 224/224/224 223/223/223
f 225/225/225 219/219/219 226/226/226
f 219/219/219 220/220/220 226/226/226
f 227/227/227 228/228/228 229/229/229
f 228/228/228 223/223/223 229/229/229
f 230/230/230 231/231/231 232/232/232
f 231/231/231 233/233/233 232/232/232
f 234/234/234 235/235/235 236/236/236
f 235/235/235 237/237/237 236/236/236
f 238/238/238 239/239/239 240/240/240
f 239/239/239 241/241/241 240/240/240
f 242/242/242 243/243/243 244/244/244
f 243/243/243 245/245/245 244/244/244
f 246/246/246 247/247/247 248/248/248
f 247/247/247 249/249/249 248/248/248
f 250/250/250 251/251/251 252/252/252
f 251/251/251 253/253/253 252/252/252
f 239/239/239 254/254/254 241/241/241
f 254/254/254 255/255/255 241/241/241
f 256/256/256 257/257/257 258/258/258
f 257/257/257 259/259/259 258/258/258
f 260/260/260 246/246/246 261/261/261
f 246/246/246 248/248/248 261/261/261
f 262/262/262 263/263/263 264/264/264
f 263/263/263 265/265/265 264/264/264
f 266/266/266 260/260/260 267/267/267
f 260/260/260 261/261/261 267/267/267
f 268/268/268 269/269/269 270/270/270
f 269/269/269 264/264/264 270/270/270
f 271/271/271 272/272/272 273/273/273
f 272/272/272 274/274/274 273/273/273
f 275/275/275 276/276/276 277/277/277
f 276/276/276 278/278/278 277/277/277
