v -1 7 1
v 1 7 1
v -1 7 -1
v 1 7 -1
v -1 -7 -1
v 1 -7 -1
v -1 -7 1
v 1 -7 1
v -1 -7 1
v 1 -7 1
v 1 -4 1
v -1 -4 1
v 1 -7 1
v 1 -7 -1
v 1 -4 -1
v 1 -4 1
v 1 -4 -1
v -1 -7 -1
v -1 -4 -1
v 1 -7 -1
v -1 -4 -1
v -1 -7 1
v -1 -4 1
v -1 -7 -1
v -1 -4 1
v 1 -4 1
v 0.5 -3 0.5
v -0.5 -3 0.5
v 1 -4 1
v 1 -4 -1
v 0.5 -3 -0.5
v 0.5 -3 0.5
v 0.5 -3 -0.5
v -1 -4 -1
v -0.5 -3 -0.5
v 1 -4 -1
v -0.5 -3 -0.5
v -1 -4 1
v -0.5 -3 0.5
v -1 -4 -1
v -1 4 1
v 1 4 1
v 1 7 1
v -1 7 1
v 1 4 1
v 1 4 -1
v 1 7 -1
v 1 7 1
v 1 7 -1
v -1 4 -1
v -1 7 -1
v 1 4 -1
v -1 7 -1
v -1 4 1
v -1 7 1
v -1 4 -1
v -0.5 -3 0.5
v 0.5 -3 0.5
v 0.5 3 0.5
v -0.5 3 0.5
v -0.5 3 0.5
v 0.5 3 0.5
v 1 4 1
v -1 4 1
v 0.5 -3 0.5
v 0.5 -3 -0.5
v 0.5 3 -0.5
v 0.5 3 0.5
v 0.5 3 0.5
v 0.5 3 -0.5
v 1 4 -1
v 1 4 1
v 0.5 3 -0.5
v -0.5 -3 -0.5
v -0.5 3 -0.5
v 0.5 -3 -0.5
v 1 4 -1
v -0.5 3 -0.5
v -1 4 -1
v 0.5 3 -0.5
v -0.5 3 -0.5
v -0.5 -3 0.5
v -0.5 3 0.5
v -0.5 -3 -0.5
v -1 4 -1
v -0.5 3 0.5
v -1 4 1
v -0.5 3 -0.5
vn 0 1 0
vn 0 1 0
vn 0 1 0
vn 0 1 0
vn 0 -1 0
vn 0 -1 0
vn 0 -1 0
vn 0 -1 0
vn 0 0 1
vn 0 0 1
vn 0 0 1
vn 0 0 1
vn 1 0 0
vn 1 0 0
vn 1 0 0
vn 1 0 0
vn 0 0 -1
vn 0 0 -1
vn 0 0 -1
vn 0 0 -1
vn -1 0 0
vn -1 0 0
vn -1 0 0
vn -1 0 0
vn 0 0.4472136 0.8944272
vn 0 0.4472136 0.8944272
vn 0 0.4472136 0.8944272
vn 0 0.4472136 0.8944272
vn 0.8944272 0.4472136 0
vn 0.8944272 0.4472136 0
vn 0.8944272 0.4472136 0
vn 0.8944272 0.4472136 0
vn 0 0.4472136 -0.8944272
vn 0 0.4472136 -0.8944272
vn 0 0.4472136 -0.8944272
vn 0 0.4472136 -0.8944272
vn -0.8944272 0.4472136 0
vn -0.8944272 0.4472136 0
vn -0.8944272 0.4472136 0
vn -0.8944272 0.4472136 0
vn 0 0 1
vn 0 0 1
vn 0 0 1
vn 0 0 1
vn 1 0 0
vn 1 0 0
vn 1 0 0
vn 1 0 0
vn 0 0 -1
vn 0 0 -1
vn 0 0 -1
vn 0 0 -1
vn -1 0 0
vn -1 0 0
vn -1 0 0
vn -1 0 0
vn 0 0 1
vn 0 0 1
vn 0 0 1
vn 0 0 1
vn 0 -0.4472136 0.8944272
vn 0 -0.4472136 0.8944272
vn 0 -0.4472136 0.8944272
vn 0 -0.4472136 0.8944272
vn 1 0 0
vn 1 0 0
vn 1 0 0
vn 1 0 0
vn 0.8944272 -0.4472136 0
vn 0.8944272 -0.4472136 0
vn 0.8944272 -0.4472136 0
vn 0.8944272 -0.4472136 0
vn 0 0 -1
vn 0 0 -1
vn 0 0 -1
vn 0 0 -1
vn 0 -0.4472136 -0.8944272
vn 0 -0.4472136 -0.8944272
vn 0 -0.4472136 -0.8944272
vn 0 -0.4472136 -0.8944272
vn -1 0 0
vn -1 0 0
vn -1 0 0
vn -1 0 0
vn -0.8944272 -0.4472136 0
vn -0.8944272 -0.4472136 0
vn -0.8944272 -0.4472136 0
vn -0.8944272 -0.4472136 0
vt -1 1
vt 1 1
vt -1 -1
vt 1 -1
vt 1 -1
vt -1 -1
vt 1 1
vt -1 1
vt 1 -7
vt -1 -7
vt -1 -4
vt 1 -4
vt 1 -7
vt -1 -7
vt -1 -4
vt 1 -4
vt 1 -4
vt -1 -7
vt -1 -4
vt 1 -7
vt 1 -4
vt -1 -7
vt -1 -4
vt 1 -7
vt 1 -4
vt -1 -4
vt -0.5 -3
vt 0.5 -3
vt 1 -4
vt -1 -4
vt -0.5 -3
vt 0.5 -3
vt 0.5 -3
vt -1 -4
vt -0.5 -3
vt 1 -4
vt 0.5 -3
vt -1 -4
vt -0.5 -3
vt 1 -4
vt 1 4
vt -1 4
vt -1 7
vt 1 7
vt 1 4
vt -1 4
vt -1 7
vt 1 7
vt 1 7
vt -1 4
vt -1 7
vt 1 4
vt 1 7
vt -1 4
vt -1 7
vt 1 4
vt 0.5 -3
vt -0.5 -3
vt -0.5 3
vt 0.5 3
vt 0.5 3
vt -0.5 3
vt -1 4
vt 1 4
vt 0.5 -3
vt -0.5 -3
vt -0.5 3
vt 0.5 3
vt 0.5 3
vt -0.5 3
vt -1 4
vt 1 4
vt 0.5 3
vt -0.5 -3
vt -0.5 3
vt 0.5 -3
vt 1 4
vt -0.5 3
vt -1 4
vt 0.5 3
vt 0.5 3
vt -0.5 -3
vt -0.5 3
vt 0.5 -3
vt 1 4
vt -0.5 3
vt -1 4
vt 0.5 3
g submesh0
f 1/1/1 2/2/2 3/3/3
f 2/2/2 4/4/4 3/3/3
f 5/5/5 6/6/6 7/7/7
f 6/6/6 8/8/8 7/7/7
f 9/9/9 10/10/10 11/11/11
f 12/12/12 9/9/9 11/11/11
f 13/13/13 14/14/14 15/15/15
f 16/16/16 13/13/13 15/15/15
f 17/17/17 18/18/18 19/19/19
f 17/17/17 20/20/20 18/18/18
f 21/21/21 22/22/22 23/23/23
f 21/21/21 24/24/24 22/22/22
f 25/25/25 26/26/26 27/27/27
f 28/28/28 25/25/25 27/27/27
f 29/29/29 30/30/30 31/31/31
f 32/32/32 29/29/29 31/31/31
f 33/33/33 34/34/34 35/35/35
f 33/33/33 36/36/36 34/34/34
f 37/37/37 38/38/38 39/39/39
f 37/37/37 40/40/40 38/38/38
f 41/41/41 42/42/42 43/43/43
f 44/44/44 41/41/41 43/43/43
f 45/45/45 46/46/46 47/47/47
f 48/48/48 45/45/45 47/47/47
f 49/49/49 50/50/50 51/51/51
f 49/49/49 52/52/52 50/50/50
f 53/53/53 54/54/54 55/55/55
f 53/53/53 56/56/56 54/54/54
f 57/57/57 58/58/58 59/59/59
f 60/60/60 57/57/57 59/59/59
f 61/61/61 62/62/62 63/63/63
f 64/64/64 61/61/61 63/63/63
f 65/65/65 66/66/66 67/67/67
f 68/68/68 65/65/65 67/67/67
f 69/69/69 70/70/70 71/71/71
f 72/72/72 69/69/69 71/71/71
f 73/73/73 74/74/74 75/75/75
f 73/73/73 76/76/76 74/74/74
f 77/77/77 78/78/78 79/79/79
f 77/77/77 80/80/80 78/78/78
f 81/81/81 82/82/82 83/83/83
f 81/81/81 84/84/84 82/82/82
f 85/85/85 86/86/86 87/87/87
f 85/85/85 88/88/88 86/86/86
