v -4 -105 -8
v 4 -105 -8
v -4 -105 2
v 4 -105 2
v -4 21 2
v 4 21 2
v 4 24 2
v -4 24 2
v 4 21 2
v 4 21 -8
v 4 24 -8
v 4 24 2
v 4 24 -8
v -4 21 -8
v -4 24 -8
v 4 21 -8
v -4 24 -8
v -4 21 2
v -4 24 2
v -4 21 -8
v -8 -105 -8
v -8 -105 2
v -4 18 2
v 4 18 2
v 4 18 2
v 4 18 -8
v -4 18 -8
v 4 18 -8
v -8 21 -8
v -8 18 2
v -8 21 2
v -8 18 -8
v -8 18 2
v -8 21 2
v -8 18 -8
v -8 21 -8
v -12 -105 -8
v -12 -105 2
v -4 15 2
v 4 15 2
v 4 15 2
v 4 15 -8
v -4 15 -8
v 4 15 -8
v -12 18 -8
v -12 15 2
v -12 18 2
v -12 15 -8
v -8 15 2
v -8 15 -8
v -12 15 2
v -12 18 2
v -12 15 -8
v -12 18 -8
v -16 -105 -8
v -16 -105 2
v -4 12 2
v 4 12 2
v 4 12 2
v 4 12 -8
v -4 12 -8
v 4 12 -8
v -16 15 -8
v -16 12 2
v -16 15 2
v -16 12 -8
v -8 12 2
v -8 12 -8
v -12 12 2
v -12 12 -8
v -16 12 2
v -16 15 2
v -16 12 -8
v -16 15 -8
v -20 -105 -8
v -20 -105 2
v -4 9 2
v 4 9 2
v 4 9 2
v 4 9 -8
v -4 9 -8
v 4 9 -8
v -20 12 -8
v -20 9 2
v -20 12 2
v -20 9 -8
v -8 9 2
v -8 9 -8
v -12 9 2
v -12 9 -8
v -16 9 2
v -16 9 -8
v -20 9 2
v -20 12 2
v -20 9 -8
v -20 12 -8
v -26 -105 -8
v -26 -105 2
v -4 6 2
v 4 6 2
v 4 6 2
v 4 6 -8
v -4 6 -8
v 4 6 -8
v -26 9 -8
v -26 6 2
v -26 9 2
v -26 6 -8
v -8 6 2
v -8 6 -8
v -12 6 2
v -12 6 -8
v -16 6 2
v -16 6 -8
v -20 6 2
v -20 6 -8
v -26 6 2
v -26 9 2
v -26 6 -8
v -26 9 -8
v -26 -105 6
v -20 -105 6
v -16 -105 6
v -12 -105 6
v -8 -105 6
v -4 -105 6
v 6 -105 6
v 6 -105 -10
v -4 -105 -10
v -8 -105 -10
v -12 -105 -10
v -16 -105 -10
v -20 -105 -10
v -26 -105 -10
v 8 -105 6
v 8 -105 -10
v -4 -105 -12
v -8 -105 -12
v 6 -105 -12
v -12 -105 -12
v -16 -105 -12
v -20 -105 -12
v -26 -105 -12
v -4 24 2
v 4 24 2
v -4 24 -8
v 4 24 -8
v -4 21 2
v -4 21 -8
v -8 21 2
v -8 21 -8
v -8 18 2
v -8 18 -8
v -12 18 2
v -12 18 -8
v -12 15 2
v -12 15 -8
v -16 15 2
v -16 15 -8
v -16 12 2
v -16 12 -8
v -20 12 2
v -20 12 -8
v -20 9 2
v -20 9 -8
v -26 9 2
v -26 9 -8
v -4 -105 6
v 6 -105 6
v 6 6 6
v -4 6 6
v 8 -105 6
v 8 -105 -10
v 8 6 -10
v 8 6 6
v 6 6 -12
v -4 -105 -12
v -4 6 -12
v 6 -105 -12
v -26 6 -8
v -26 -105 2
v -26 6 2
v -26 -105 -8
v -8 -105 6
v -8 6 6
v -8 -105 -12
v -8 6 -12
v -12 -105 6
v -12 6 6
v -12 -105 -12
v -12 6 -12
v -16 -105 6
v -16 6 6
v -16 -105 -12
v -16 6 -12
v -20 -105 6
v -20 6 6
v -20 -105 -12
v -20 6 -12
v -26 -105 6
v -26 6 6
v -26 -105 -12
v -26 6 -12
v -16 6 2
v -20 6 2
v -16 6 6
v -20 6 6
v -26 6 6
v -26 -105 6
v -26 6 2
v -26 6 6
v -12 6 2
v -12 6 6
v -8 6 2
v -8 6 6
v -4 6 2
v -4 6 6
v 4 6 2
v 6 6 6
v 4 6 -8
v 6 6 -10
v -4 6 -8
v -4 6 -10
v -8 6 -8
v -8 6 -10
v -12 6 -8
v -12 6 -10
v -16 6 -8
v -16 6 -10
v -20 6 -8
v -20 6 -10
v -26 -105 -10
v -26 6 -10
v -26 6 -8
v -26 6 -10
v 6 -105 -10
v 6 6 -10
v 8 -105 -10
v 8 6 -10
v 8 6 6
v 8 -105 6
v 8 6 -10
v 8 6 6
v -4 6 -12
v 6 6 -12
v 6 6 -10
v 6 -105 -10
v 6 6 -12
v 6 -105 -12
v -8 6 -12
v -12 6 -12
v -16 6 -12
v -20 6 -12
v -26 -105 -12
v -26 6 -12
v -26 6 -12
vn 0 -1 0
vn 0 -1 0
vn 0 -1 0
vn 0 -1 0
vn 0 0 1
vn 0 0 1
vn 0 0 1
vn 0 0 1
vn 1 0 0
vn 1 0 0
vn 1 0 0
vn 1 0 0
vn 0 0 -1
vn 0 0 -1
vn 0 0 -1
vn 0 0 -1
vn -1 0 0
vn -1 0 0
vn -1 0 0
vn -1 0 0
vn 0 -1 0
vn 0 -1 0
vn 0 0 1
vn 0 0 1
vn 1 0 0
vn 1 0 0
vn 0 0 -1
vn 0 0 -1
vn -1 0 0
vn -1 0 0
vn -1 0 0
vn -1 0 0
vn 0 0 1
vn 0 0 1
vn 0 0 -1
vn 0 0 -1
vn 0 -1 0
vn 0 -1 0
vn 0 0 1
vn 0 0 1
vn 1 0 0
vn 1 0 0
vn 0 0 -1
vn 0 0 -1
vn -1 0 0
vn -1 0 0
vn -1 0 0
vn -1 0 0
vn 0 0 1
vn 0 0 -1
vn 0 0 1
vn 0 0 1
vn 0 0 -1
vn 0 0 -1
vn 0 -1 0
vn 0 -1 0
vn 0 0 1
vn 0 0 1
vn 1 0 0
vn 1 0 0
vn 0 0 -1
vn 0 0 -1
vn -1 0 0
vn -1 0 0
vn -1 0 0
vn -1 0 0
vn 0 0 1
vn 0 0 -1
vn 0 0 1
vn 0 0 -1
vn 0 0 1
vn 0 0 1
vn 0 0 -1
vn 0 0 -1
vn 0 -1 0
vn 0 -1 0
vn 0 0 1
vn 0 0 1
vn 1 0 0
vn 1 0 0
vn 0 0 -1
vn 0 0 -1
vn -1 0 0
vn -1 0 0
vn -1 0 0
vn -1 0 0
vn 0 0 1
vn 0 0 -1
vn 0 0 1
vn 0 0 -1
vn 0 0 1
vn 0 0 -1
vn 0 0 1
vn 0 0 1
vn 0 0 -1
vn 0 0 -1
vn 0 -1 0
vn 0 -1 0
vn 0 0 1
vn 0 0 1
vn 1 0 0
vn 1 0 0
vn 0 0 -1
vn 0 0 -1
vn -1 0 0
vn -1 0 0
vn -1 0 0
vn -1 0 0
vn 0 0 1
vn 0 0 -1
vn 0 0 1
vn 0 0 -1
vn 0 0 1
vn 0 0 -1
vn 0 0 1
vn 0 0 -1
vn 0 0 1
vn 0 0 1
vn 0 0 -1
vn 0 0 -1
vn 0 -1 0
vn 0 -1 0
vn 0 -1 0
vn 0 -1 0
vn 0 -1 0
vn 0 -1 0
vn 0 -1 0
vn 0 -1 0
vn 0 -1 0
vn 0 -1 0
vn 0 -1 0
vn 0 -1 0
vn 0 -1 0
vn 0 -1 0
vn 0 -1 0
vn 0 -1 0
vn 0 -1 0
vn 0 -1 0
vn 0 -1 0
vn 0 -1 0
vn 0 -1 0
vn 0 -1 0
vn 0 -1 0
vn 0 1 0
vn 0 1 0
vn 0 1 0
vn 0 1 0
vn 0 1 0
vn 0 1 0
vn 0 1 0
vn 0 1 0
vn 0 1 0
vn 0 1 0
vn 0 1 0
vn 0 1 0
vn 0 1 0
vn 0 1 0
vn 0 1 0
vn 0 1 0
vn 0 1 0
vn 0 1 0
vn 0 1 0
vn 0 1 0
vn 0 1 0
vn 0 1 0
vn 0 1 0
vn 0 1 0
vn 0 0 1
vn 0 0 1
vn 0 0 1
vn 0 0 1
vn 1 0 0
vn 1 0 0
vn 1 0 0
vn 1 0 0
vn 0 0 -1
vn 0 0 -1
vn 0 0 -1
vn 0 0 -1
vn -1 0 0
vn -1 0 0
vn -1 0 0
vn -1 0 0
vn 0 0 1
vn 0 0 1
vn 0 0 -1
vn 0 0 -1
vn 0 0 1
vn 0 0 1
vn 0 0 -1
vn 0 0 -1
vn 0 0 1
vn 0 0 1
vn 0 0 -1
vn 0 0 -1
vn 0 0 1
vn 0 0 1
vn 0 0 -1
vn 0 0 -1
vn 0 0 1
vn 0 0 1
vn 0 0 -1
vn 0 0 -1
vn 0 1 0
vn 0 1 0
vn 0 1 0
vn 0 1 0
vn -1 0 0
vn -1 0 0
vn 0 1 0
vn 0 1 0
vn 0 1 0
vn 0 1 0
vn 0 1 0
vn 0 1 0
vn 0 1 0
vn 0 1 0
vn 0 1 0
vn 0 1 0
vn 0 1 0
vn 0 1 0
vn 0 1 0
vn 0 1 0
vn 0 1 0
vn 0 1 0
vn 0 1 0
vn 0 1 0
vn 0 1 0
vn 0 1 0
vn 0 1 0
vn 0 1 0
vn -1 0 0
vn -1 0 0
vn 0 1 0
vn 0 1 0
vn 0 0 -1
vn 0 0 -1
vn 0 0 -1
vn 0 0 -1
vn 0 0 1
vn 0 0 1
vn 0 1 0
vn 0 1 0
vn 0 1 0
vn 0 1 0
vn 1 0 0
vn 1 0 0
vn 1 0 0
vn 1 0 0
vn 0 1 0
vn 0 1 0
vn 0 1 0
vn 0 1 0
vn -1 0 0
vn -1 0 0
vn 0 1 0
vt 4 -8
vt -4 -8
vt 4 2
vt -4 2
vt 4 21
vt -4 21
vt -4 24
vt 4 24
vt 2 21
vt -8 21
vt -8 24
vt 2 24
vt 4 24
vt -4 21
vt -4 24
vt 4 21
vt 8 24
vt -2 21
vt -2 24
vt 8 21
vt 8 -8
vt 8 2
vt 4 18
vt -4 18
vt 2 18
vt -8 18
vt -4 18
vt 4 18
vt 8 21
vt -2 18
vt -2 21
vt 8 18
vt 8 18
vt 8 21
vt -8 18
vt -8 21
vt 12 -8
vt 12 2
vt 4 15
vt -4 15
vt 2 15
vt -8 15
vt -4 15
vt 4 15
vt 8 18
vt -2 15
vt -2 18
vt 8 15
vt 8 15
vt -8 15
vt 12 15
vt 12 18
vt -12 15
vt -12 18
vt 16 -8
vt 16 2
vt 4 12
vt -4 12
vt 2 12
vt -8 12
vt -4 12
vt 4 12
vt 8 15
vt -2 12
vt -2 15
vt 8 12
vt 8 12
vt -8 12
vt 12 12
vt -12 12
vt 16 12
vt 16 15
vt -16 12
vt -16 15
vt 20 -8
vt 20 2
vt 4 9
vt -4 9
vt 2 9
vt -8 9
vt -4 9
vt 4 9
vt 8 12
vt -2 9
vt -2 12
vt 8 9
vt 8 9
vt -8 9
vt 12 9
vt -12 9
vt 16 9
vt -16 9
vt 20 9
vt 20 12
vt -20 9
vt -20 12
vt 26 -8
vt 26 2
vt 4 6
vt -4 6
vt 2 6
vt -8 6
vt -4 6
vt 4 6
vt 8 9
vt -2 6
vt -2 9
vt 8 6
vt 8 6
vt -8 6
vt 12 6
vt -12 6
vt 16 6
vt -16 6
vt 20 6
vt -20 6
vt 26 6
vt 26 9
vt -26 6
vt -26 9
vt 26 6
vt 20 6
vt 16 6
vt 12 6
vt 8 6
vt 4 6
vt -6 6
vt -6 -10
vt 4 -10
vt 8 -10
vt 12 -10
vt 16 -10
vt 20 -10
vt 26 -10
vt -8 6
vt -8 -10
vt 4 -12
vt 8 -12
vt -6 -12
vt 12 -12
vt 16 -12
vt 20 -12
vt 26 -12
vt -4 2
vt 4 2
vt -4 -8
vt 4 -8
vt -4 2
vt -4 -8
vt -8 2
vt -8 -8
vt -8 2
vt -8 -8
vt -12 2
vt -12 -8
vt -12 2
vt -12 -8
vt -16 2
vt -16 -8
vt -16 2
vt -16 -8
vt -20 2
vt -20 -8
vt -20 2
vt -20 -8
vt -26 2
vt -26 -8
vt 4 -105
vt -6 -105
vt -6 6
vt 4 6
vt 6 -105
vt -10 -105
vt -10 6
vt 6 6
vt 6 6
vt -4 -105
vt -4 6
vt 6 -105
vt 8 6
vt -2 -105
vt -2 6
vt 8 -105
vt 8 -105
vt 8 6
vt -8 -105
vt -8 6
vt 12 -105
vt 12 6
vt -12 -105
vt -12 6
vt 16 -105
vt 16 6
vt -16 -105
vt -16 6
vt 20 -105
vt 20 6
vt -20 -105
vt -20 6
vt 26 -105
vt 26 6
vt -26 -105
vt -26 6
vt -16 2
vt -20 2
vt -16 6
vt -20 6
vt -6 6
vt -6 -105
vt -26 2
vt -26 6
vt -12 2
vt -12 6
vt -8 2
vt -8 6
vt -4 2
vt -4 6
vt 4 2
vt 6 6
vt 4 -8
vt 6 -10
vt -4 -8
vt -4 -10
vt -8 -8
vt -8 -10
vt -12 -8
vt -12 -10
vt -16 -8
vt -16 -10
vt -20 -8
vt -20 -10
vt 10 -105
vt 10 6
vt -26 -8
vt -26 -10
vt 6 -105
vt 6 6
vt 8 -105
vt 8 6
vt -8 6
vt -8 -105
vt 8 -10
vt 8 6
vt -4 -12
vt 6 -12
vt -10 6
vt -10 -105
vt -12 6
vt -12 -105
vt -8 -12
vt -12 -12
vt -16 -12
vt -20 -12
vt 12 -105
vt 12 6
vt -26 -12
g submesh0
f 1/1/1 2/2/2 3/3/3
f 2/2/2 4/4/4 3/3/3
f 5/5/5 6/6/6 7/7/7
f 8/8/8 5/5/5 7/7/7
f 9/9/9 10/10/10 11/11/11
f 12/12/12 9/9/9 11/11/11
f 13/13/13 14/14/14 15/15/15
f 13/13/13 16/16/16 14/14/14
f 17/17/17 18/18/18 19/19/19
f 17/17/17 20/20/20 18/18/18
f 1/1/1 3/3/3 21/21/21
f 3/3/3 22/22/22 21/21/21
f 23/23/23 24/24/24 6/6/6
f 5/5/5 23/23/23 6/6/6
f 25/25/25 26/26/26 10/10/10
f 9/9/9 25/25/25 10/10/10
f 16/16/16 27/27/27 14/14/14
f 16/16/16 28/28/28 27/27/27
f 29/29/29 30/30/30 31/31/31
f 29/29/29 32/32/32 30/30/30
f 33/33/33 23/23/23 5/5/5
f 34/34/34 33/33/33 5/5/5
f 14/14/14 35/35/35 36/36/36
f 14/14/14 27/27/27 35/35/35
f 21/21/21 22/22/22 37/37/37
f 22/22/22 38/38/38 37/37/37
f 39/39/39 40/40/40 24/24/24
f 23/23/23 39/39/39 24/24/24
f 41/41/41 42/42/42 26/26/26
f 25/25/25 41/41/41 26/26/26
f 28/28/28 43/43/43 27/27/27
f 28/28/28 44/44/44 43/43/43
f 45/45/45 46/46/46 47/47/47
f 45/45/45 48/48/48 46/46/46
f 49/49/49 39/39/39 23/23/23
f 33/33/33 49/49/49 23/23/23
f 27/27/27 50/50/50 35/35/35
f 27/27/27 43/43/43 50/50/50
f 51/51/51 49/49/49 33/33/33
f 52/52/52 51/51/51 33/33/33
f 35/35/35 53/53/53 54/54/54
f 35/35/35 50/50/50 53/53/53
f 37/37/37 38/38/38 55/55/55
f 38/38/38 56/56/56 55/55/55
f 57/57/57 58/58/58 40/40/40
f 39/39/39 57/57/57 40/40/40
f 59/59/59 60/60/60 42/42/42
f 41/41/41 59/59/59 42/42/42
f 44/44/44 61/61/61 43/43/43
f 44/44/44 62/62/62 61/61/61
f 63/63/63 64/64/64 65/65/65
f 63/63/63 66/66/66 64/64/64
f 67/67/67 57/57/57 39/39/39
f 49/49/49 67/67/67 39/39/39
f 43/43/43 68/68/68 50/50/50
f 43/43/43 61/61/61 68/68/68
f 69/69/69 67/67/67 49/49/49
f 51/51/51 69/69/69 49/49/49
f 50/50/50 70/70/70 53/53/53
f 50/50/50 68/68/68 70/70/70
f 71/71/71 69/69/69 51/51/51
f 72/72/72 71/71/71 51/51/51
f 53/53/53 73/73/73 74/74/74
f 53/53/53 70/70/70 73/73/73
f 55/55/55 56/56/56 75/75/75
f 56/56/56 76/76/76 75/75/75
f 77/77/77 78/78/78 58/58/58
f 57/57/57 77/77/77 58/58/58
f 79/79/79 80/80/80 60/60/60
f 59/59/59 79/79/79 60/60/60
f 62/62/62 81/81/81 61/61/61
f 62/62/62 82/82/82 81/81/81
f 83/83/83 84/84/84 85/85/85
f 83/83/83 86/86/86 84/84/84
f 87/87/87 77/77/77 57/57/57
f 67/67/67 87/87/87 57/57/57
f 61/61/61 88/88/88 68/68/68
f 61/61/61 81/81/81 88/88/88
f 89/89/89 87/87/87 67/67/67
f 69/69/69 89/89/89 67/67/67
f 68/68/68 90/90/90 70/70/70
f 68/68/68 88/88/88 90/90/90
f 91/91/91 89/89/89 69/69/69
f 71/71/71 91/91/91 69/69/69
f 70/70/70 92/92/92 73/73/73
f 70/70/70 90/90/90 92/92/92
f 93/93/93 91/91/91 71/71/71
f 94/94/94 93/93/93 71/71/71
f 73/73/73 95/95/95 96/96/96
f 73/73/73 92/92/92 95/95/95
f 75/75/75 76/76/76 97/97/97
f 76/76/76 98/98/98 97/97/97
f 99/99/99 100/100/100 78/78/78
f 77/77/77 99/99/99 78/78/78
f 101/101/101 102/102/102 80/80/80
f 79/79/79 101/101/101 80/80/80
f 82/82/82 103/103/103 81/81/81
f 82/82/82 104/104/104 103/103/103
f 105/105/105 106/106/106 107/107/107
f 105/105/105 108/108/108 106/106/106
f 109/109/109 99/99/99 77/77/77
f 87/87/87 109/109/109 77/77/77
f 81/81/81 110/110/110 88/88/88
f 81/81/81 103/103/103 110/110/110
f 111/111/111 109/109/109 87/87/87
f 89/89/89 111/111/111 87/87/87
f 88/88/88 112/112/112 90/90/90
f 88/88/88 110/110/110 112/112/112
f 113/113/113 111/111/111 89/89/89
f 91/91/91 113/113/113 89/89/89
f 90/90/90 114/114/114 92/92/92
f 90/90/90 112/112/112 114/114/114
f 115/115/115 113/113/113 91/91/91
f 93/93/93 115/115/115 91/91/91
f 92/92/92 116/116/116 95/95/95
f 92/92/92 114/114/114 116/116/116
f 117/117/117 115/115/115 93/93/93
f 118/118/118 117/117/117 93/93/93
f 95/95/95 119/119/119 120/120/120
f 95/95/95 116/116/116 119/119/119
f 98/98/98 76/76/76 121/121/121
f 76/76/76 122/122/122 121/121/121
f 76/76/76 56/56/56 122/122/122
f 56/56/56 123/123/123 122/122/122
f 56/56/56 38/38/38 123/123/123
f 38/38/38 124/124/124 123/123/123
f 38/38/38 22/22/22 124/124/124
f 22/22/22 125/125/125 124/124/124
f 22/22/22 3/3/3 125/125/125
f 3/3/3 126/126/126 125/125/125
f 3/3/3 4/4/4 126/126/126
f 4/4/4 127/127/127 126/126/126
f 4/4/4 2/2/2 127/127/127
f 2/2/2 128/128/128 127/127/127
f 2/2/2 1/1/1 128/128/128
f 1/1/1 129/129/129 128/128/128
f 1/1/1 21/21/21 129/129/129
f 21/21/21 130/130/130 129/129/129
f 21/21/21 37/37/37 130/130/130
f 37/37/37 131/131/131 130/130/130
f 37/37/37 55/55/55 131/131/131
f 55/55/55 132/132/132 131/131/131
f 55/55/55 75/75/75 132/132/132
f 75/75/75 133/133/133 132/132/132
f 75/75/75 97/97/97 133/133/133
f 97/97/97 134/134/134 133/133/133
f 127/127/127 128/128/128 135/135/135
f 128/128/128 136/136/136 135/135/135
f 129/129/129 130/130/130 137/137/137
f 130/130/130 138/138/138 137/137/137
f 128/128/128 129/129/129 139/139/139
f 129/129/129 137/137/137 139/139/139
f 130/130/130 131/131/131 138/138/138
f 131/131/131 140/140/140 138/138/138
f 131/131/131 132/132/132 140/140/140
f 132/132/132 141/141/141 140/140/140
f 132/132/132 133/133/133 141/141/141
f 133/133/133 142/142/142 141/141/141
f 133/133/133 134/134/134 142/142/142
f 134/134/134 143/143/143 142/142/142
g submesh1
f 144/144/144 145/145/145 146/146/146
f 145/145/145 147/147/147 146/146/146
f 148/148/148 149/149/149 150/150/150
f 149/149/149 151/151/151 150/150/150
f 152/152/152 153/153/153 154/154/154
f 153/153/153 155/155/155 154/154/154
f 156/156/156 157/157/157 158/158/158
f 157/157/157 159/159/159 158/158/158
f 160/160/160 161/161/161 162/162/162
f 161/161/161 163/163/163 162/162/162
f 164/164/164 165/165/165 166/166/166
f 165/165/165 167/167/167 166/166/166
g submesh2
f 168/168/168 169/169/169 170/170/170
f 171/171/171 168/168/168 170/170/170
f 172/172/172 173/173/173 174/174/174
f 175/175/175 172/172/172 174/174/174
f 176/176/176 177/177/177 178/178/178
f 176/176/176 179/179/179 177/177/177
f 180/180/180 181/181/181 182/182/182
f 180/180/180 183/183/183 181/181/181
f 184/184/184 168/168/168 171/171/171
f 185/185/185 184/184/184 171/171/171
f 178/178/178 186/186/186 187/187/187
f 178/178/178 177/177/177 186/186/186
f 188/188/188 184/184/184 185/185/185
f 189/189/189 188/188/188 185/185/185
f 187/187/187 190/190/190 191/191/191
f 187/187/187 186/186/186 190/190/190
f 192/192/192 188/188/188 189/189/189
f 193/193/193 192/192/192 189/189/189
f 191/191/191 194/194/194 195/195/195
f 191/191/191 190/190/190 194/194/194
f 196/196/196 192/192/192 193/193/193
f 197/197/197 196/196/196 193/193/193
f 195/195/195 198/198/198 199/199/199
f 195/195/195 194/194/194 198/198/198
f 200/200/200 196/196/196 197/197/197
f 201/201/201 200/200/200 197/197/197
f 199/199/199 202/202/202 203/203/203
f 199/199/199 198/198/198 202/202/202
f 204/204/204 205/205/205 206/206/206
f 205/205/205 207/207/207 206/206/206
f 182/182/182 181/181/181 208/208/208
f 181/181/181 209/209/209 208/208/208
f 205/205/205 210/210/210 207/207/207
f 210/210/210 211/211/211 207/207/207
f 212/212/212 204/204/204 213/213/213
f 204/204/204 206/206/206 213/213/213
f 214/214/214 212/212/212 215/215/215
f 212/212/212 213/213/213 215/215/215
f 216/216/216 214/214/214 217/217/217
f 214/214/214 215/215/215 217/217/217
f 218/218/218 216/216/216 219/219/219
f 216/216/216 217/217/217 219/219/219
f 220/220/220 218/218/218 221/221/221
f 218/218/218 219/219/219 221/221/221
f 222/222/222 220/220/220 223/223/223
f 220/220/220 221/221/221 223/223/223
f 224/224/224 222/222/222 225/225/225
f 222/222/222 223/223/223 225/225/225
f 226/226/226 224/224/224 227/227/227
f 224/224/224 225/225/225 227/227/227
f 228/228/228 226/226/226 229/229/229
f 226/226/226 227/227/227 229/229/229
f 230/230/230 228/228/228 231/231/231
f 228/228/228 229/229/229 231/231/231
f 183/183/183 180/180/180 232/232/232
f 180/180/180 233/233/233 232/232/232
f 234/234/234 230/230/230 235/235/235
f 230/230/230 231/231/231 235/235/235
f 236/236/236 237/237/237 238/238/238
f 237/237/237 239/239/239 238/238/238
f 170/170/170 169/169/169 240/240/240
f 169/169/169 241/241/241 240/240/240
f 221/221/221 219/219/219 242/242/242
f 219/219/219 243/243/243 242/242/242
f 223/223/223 221/221/221 244/244/244
f 221/221/221 245/245/245 244/244/244
f 246/246/246 247/247/247 248/248/248
f 247/247/247 249/249/249 248/248/248
f 225/225/225 223/223/223 250/250/250
f 223/223/223 244/244/244 250/250/250
f 227/227/227 225/225/225 251/251/251
f 225/225/225 250/250/250 251/251/251
f 229/229/229 227/227/227 252/252/252
f 227/227/227 251/251/251 252/252/252
f 231/231/231 229/229/229 253/253/253
f 229/229/229 252/252/252 253/253/253
f 232/232/232 233/233/233 254/254/254
f 233/233/233 255/255/255 254/254/254
f 235/235/235 231/231/231 256/256/256
f 231/231/231 253/253/253 256/256/256
