v -6 -1 -2
v 12.00035 -1 -1.999099
v -6 -1 1
v 11.99982 -1 1.000901
v -6 -1 1
v 11.99982 -1 1.000901
v 11.99982 1 1.000901
v -6 1 1
v 11.99982 -1 1.000901
v 12.00035 -1 -1.999099
v 12.00035 1 -1.999099
v 11.99982 1 1.000901
v 12.00035 3 -1.999099
v 12.0003 1.5 -2.497888
v -6.000038 -0.5 -2.501055
v -6.000038 1.5 -2.501055
v 12.0003 -0.5 -2.497888
v 12.0003 3.5 -2.497888
v -6.000038 3.5 -2.501055
v -6 1 -2
v -6 -1 1
v -6 1 1
v -6 -1 -2
v -6 3 -2
v -6 1 -2
v -6 3 -2
v -6.000038 1.5 -2.501055
v -6.000038 3.5 -2.501055
v -6 3 -2
v 12.00035 3 -1.999099
v -6.000038 3.5 -2.501055
v 12.0003 3.5 -2.497888
v 12.00035 3 -1.999099
v 12.00035 1 -1.999099
v 12.0003 3.5 -2.497888
v 12.0003 1.5 -2.497888
v 12.00035 -1 -1.999099
v 12.0003 -0.5 -2.497888
v -6 -1 -2
v -6.000038 -0.5 -2.501055
v 12.00035 -1 -1.999099
v -6 -1 -2
v 12.0003 -0.5 -2.497888
v -6.000038 -0.5 -2.501055
v -6 1 1
v 11.99982 1 1.000901
v -6 3 -2
v 12.00035 3 -1.999099
vn 0 -1 0
vn 0 -1 0
vn 0 -1 0
vn 0 -1 0
vn -5.004853E-05 0 1
vn -5.004853E-05 0 1
vn -5.004853E-05 0 1
vn -5.004853E-05 0 1
vn 1 0 0.000175794
vn 1 0 0.000175794
vn 1 0 0.000175794
vn 1 0 0.000175794
vn 1 0 0.000175794
vn 0.0001759496 0 -1
vn 0.0001759496 0 -1
vn 0.0001759496 0 -1
vn 0.0001759496 0 -1
vn 0.0001759496 0 -1
vn 0.0001759496 0 -1
vn -1 0 0
vn -1 0 0
vn -1 0 0
vn -1 0 0
vn -1 0 0
vn -1 0 7.518164E-05
vn -1 0 7.518164E-05
vn -1 0 7.518164E-05
vn -1 0 7.518164E-05
vn -3.536065E-05 0.7078516 0.7063612
vn -7.996328E-05 0.7070502 0.7071624
vn -7.996328E-05 0.7070502 0.7071624
vn -0.0001245659 0.7062489 0.7079636
vn 1 0 -9.559898E-05
vn 1 0 -9.559898E-05
vn 1 0 -9.559898E-05
vn 1 0 -9.559898E-05
vn 1 0 -9.559898E-05
vn 1 0 -9.559898E-05
vn -1 0 7.518164E-05
vn -1 0 7.518164E-05
vn 3.544088E-05 -0.7062489 -0.7079636
vn 7.986242E-05 -0.7070503 -0.7071624
vn 7.986242E-05 -0.7070503 -0.7071624
vn 0.000124284 -0.7078516 -0.7063612
vn -2.776193E-05 0.8320503 0.5547002
vn -2.776336E-05 0.8320503 0.5547003
vn -2.776336E-05 0.8320503 0.5547003
vn -2.776479E-05 0.8320503 0.5547003
vt 6 -2
vt -12.00035 -1.999099
vt 6 1
vt -11.99982 1.000901
vt 5.99995 -1
vt -11.99987 -1
vt -11.99987 1
vt 5.99995 1
vt 0.9987914 -1
vt -2.001209 -1
vt -2.001209 1
vt 0.9987914 1
vt -2.001209 3
vt 11.99986 1.5
vt -6.000478 -0.5
vt -6.000478 1.5
vt 11.99986 -0.5
vt 11.99986 3.5
vt -6.000478 3.5
vt 2 1
vt -1 -1
vt -1 1
vt 2 -1
vt 2 3
vt 2.000451 1
vt 2.000451 3
vt 2.501506 1.5
vt 2.501506 3.5
vt -5.99985 -3.534998
vt 12.0005 -3.533726
vt -5.999863 -4.242852
vt 12.00048 -4.239974
vt -1.997952 3
vt -1.997952 1
vt -2.496741 3.5
vt -2.496741 1.5
vt -1.997952 -1
vt -2.496741 -0.5
vt 2.000451 -1
vt 2.501506 -0.5
vt 12.00025 0.7043221
vt -6.0001 0.7043221
vt 12.00018 1.410573
vt -6.000163 1.412174
vt -5.999967 0.277239
vt 11.99986 0.2783217
vt -5.9999 -3.328312
vt 12.00045 -3.327229
g submesh0
f 1/1/1 2/2/2 3/3/3
f 2/2/2 4/4/4 3/3/3
f 5/5/5 6/6/6 7/7/7
f 8/8/8 5/5/5 7/7/7
f 9/9/9 10/10/10 11/11/11
f 12/12/12 9/9/9 11/11/11
f 12/12/12 11/11/11 13/13/13
f 14/14/14 15/15/15 16/16/16
f 14/14/14 17/17/17 15/15/15
f 18/18/18 16/16/16 19/19/19
f 18/18/18 14/14/14 16/16/16
f 20/20/20 21/21/21 22/22/22
f 20/20/20 23/23/23 21/21/21
f 24/24/24 20/20/20 22/22/22
f 25/25/25 26/26/26 27/27/27
f 26/26/26 28/28/28 27/27/27
f 29/29/29 30/30/30 31/31/31
f 30/30/30 32/32/32 31/31/31
f 33/33/33 34/34/34 35/35/35
f 34/34/34 36/36/36 35/35/35
f 34/34/34 37/37/37 36/36/36
f 37/37/37 38/38/38 36/36/36
f 39/39/39 25/25/25 40/40/40
f 25/25/25 27/27/27 40/40/40
f 41/41/41 42/42/42 43/43/43
f 42/42/42 44/44/44 43/43/43
g submesh1
f 45/45/45 46/46/46 47/47/47
f 46/46/46 48/48/48 47/47/47
