v 0 6 0
v 2 6 0
v 0 8 0
v 2 8 0
v -6 6 -2
v -6 6 0
v -6 8 -2
v -6 8 0
v 2 6 0
v 2 6 -2
v 2 8 0
v 2 8 -2
v 2 6 -2
v 0 6 -2
v 2 8 -2
v 0 8 -2
v 0 6 -2
v 0 6 0
v -4 6 -2
v -4 6 0
v -4 8 -2
v -4 6 -2
v -4 6 0
v -4 8 0
v -6 8 -2
v -6 6 -2
v -6 6 0
v -6 8 0
v -6 6 0
v -6 6 -2
v 2 6 -2
v 2 6 0
v 0 8 0
v 2 8 0
v 0 8 -2
v 2 8 -2
v -4 8 0
v -4 8 -2
v -6 8 0
v -6 8 -2
vn 0 0 1
vn 0 0 1
vn 0 0 1
vn 0 0 1
vn -1 0 0
vn -1 0 0
vn -1 0 0
vn -1 0 0
vn 1 0 0
vn 1 0 0
vn 1 0 0
vn 1 0 0
vn 0 0 -1
vn 0 0 -1
vn 0 0 -1
vn 0 0 -1
vn 0 -1 0
vn 0 -1 0
vn 0 -1 0
vn 0 -1 0
vn 0 0 -1
vn 0 0 -1
vn 0 0 1
vn 0 0 1
vn 0 0 -1
vn 0 0 -1
vn 0 0 1
vn 0 0 1
vn 0 -1 0
vn 0 -1 0
vn 0 -1 0
vn 0 -1 0
vn 0 1 0
vn 0 1 0
vn 0 1 0
vn 0 1 0
vn 0 1 0
vn 0 1 0
vn 0 1 0
vn 0 1 0
vt 0 6
vt -2 6
vt 0 8
vt -2 8
vt 2 6
vt 0 6
vt 2 8
vt 0 8
vt 0 6
vt -2 6
vt 0 8
vt -2 8
vt 2 6
vt 0 6
vt 2 8
vt 0 8
vt 0 -2
vt 0 0
vt 4 -2
vt 4 0
vt -4 8
vt -4 6
vt 4 6
vt 4 8
vt -6 8
vt -6 6
vt 6 6
vt 6 8
vt 6 0
vt 6 -2
vt -2 -2
vt -2 0
vt 0 0
vt 2 0
vt 0 -2
vt 2 -2
vt -4 0
vt -4 -2
vt -6 0
vt -6 -2
g submesh0
f 1/1/1 2/2/2 3/3/3
f 2/2/2 4/4/4 3/3/3
f 5/5/5 6/6/6 7/7/7
f 6/6/6 8/8/8 7/7/7
f 9/9/9 10/10/10 11/11/11
f 10/10/10 12/12/12 11/11/11
f 13/13/13 14/14/14 15/15/15
f 14/14/14 16/16/16 15/15/15
f 17/17/17 18/18/18 19/19/19
f 18/18/18 20/20/20 19/19/19
f 16/16/16 14/14/14 21/21/21
f 14/14/14 22/22/22 21/21/21
f 1/1/1 3/3/3 23/23/23
f 3/3/3 24/24/24 23/23/23
f 21/21/21 22/22/22 25/25/25
f 22/22/22 26/26/26 25/25/25
f 23/23/23 24/24/24 27/27/27
f 24/24/24 28/28/28 27/27/27
f 29/29/29 19/19/19 20/20/20
f 29/29/29 30/30/30 19/19/19
f 18/18/18 31/31/31 32/32/32
f 18/18/18 17/17/17 31/31/31
g submesh1
f 33/33/33 34/34/34 35/35/35
f 34/34/34 36/36/36 35/35/35
f 33/33/33 35/35/35 37/37/37
f 35/35/35 38/38/38 37/37/37
f 37/37/37 38/38/38 39/39/39
f 38/38/38 40/40/40 39/39/39
