v -1.999871 -1 -1.999879
v 4.000129 -1 -1.999949
v -2.000065 -1 1.000123
v 3.999936 -1 1.000054
v -2.000065 -1 1.000123
v 3.999936 -1 1.000054
v 3.999936 1 1.000054
v -2.000065 1 1.000123
v 3.999936 -1 1.000054
v 4.000129 -1 -1.999949
v 4.000129 1 -1.999949
v 3.999936 1 1.000054
v 4.000129 4 -1.99995
v 4.000258 1 -3.999744
v -1.999743 -1 -4.000131
v -1.999743 1 -4.000131
v 4.000258 -1 -3.999744
v 4.000258 6 -3.999745
v -1.999743 6 -4.000132
v -1.999871 1 -1.999879
v -2.000065 -1 1.000123
v -2.000065 1 1.000123
v -1.999871 -1 -1.999879
v -1.999871 4 -1.999879
v -1.999743 1 -4.000131
v -1.999743 6 -4.000132
v -1.999871 4 -1.999879
v 4.000129 4 -1.99995
v -1.999743 6 -4.000132
v 4.000258 6 -3.999745
v 4.000258 6 -3.999745
v 4.000258 1 -3.999744
v 4.000258 -1 -3.999744
v -1.999743 -1 -4.000131
v 4.000258 -1 -3.999744
v -1.999743 -1 -4.000131
v -2.000065 1 1.000123
v 3.999936 1 1.000054
v -1.999871 4 -1.999879
v 4.000129 4 -1.99995
vn 0 -1 0
vn 0 -1 0
vn 0 -1 0
vn 0 -1 0
vn 1.154343E-05 0 1
vn 1.154343E-05 0 1
vn 1.154343E-05 0 1
vn 1.154343E-05 0 1
vn 1 0 6.437296E-05
vn 1 0 6.437296E-05
vn 1 0 6.437296E-05
vn 1 0 6.437296E-05
vn 1 1.023181E-11 6.437296E-05
vn 6.453195E-05 0 -1
vn 6.453195E-05 0 -1
vn 6.453195E-05 0 -1
vn 6.453195E-05 0 -1
vn 6.453195E-05 -1.907349E-07 -1
vn 6.453195E-05 -1.907349E-07 -1
vn -1 0 -6.441272E-05
vn -1 0 -6.441272E-05
vn -1 0 -6.441272E-05
vn -1 0 -6.441272E-05
vn -1 -1.535719E-11 -6.441273E-05
vn -1 -1.382399E-11 -6.442449E-05
vn -1 -1.2288E-11 -6.442449E-05
vn 8.316452E-06 0.7071515 0.7070621
vn -1.865141E-05 0.707111 0.7071025
vn -1.865141E-05 0.707111 0.7071025
vn -4.561927E-05 0.7070706 0.707143
vn 1 1.386553E-11 6.461807E-05
vn 1 1.232492E-11 6.461806E-05
vn 1 0 6.461806E-05
vn -1 0 -6.442448E-05
vn 0 -1 0
vn 0 -1 0
vn 8.162435E-06 0.707107 0.7071065
vn 8.239704E-06 0.7071071 0.7071065
vn 8.239704E-06 0.7071071 0.7071065
vn 8.316973E-06 0.7071072 0.7071064
vt 1.999871 -1.999879
vt -4.000129 -1.999949
vt 2.000065 1.000123
vt -3.999936 1.000054
vt 2.000076 -1
vt -3.999925 -1
vt -3.999925 1
vt 2.000076 1
vt 0.9997962 -1
vt -2.000207 -1
vt -2.000207 1
vt 0.9997962 1
vt -2.000207 4
vt 4 1
vt -2.000001 -1
vt -2.000001 1
vt 4 -1
vt 4 6.000001
vt -2.000001 6.000001
vt 1.99975 1
vt -1.000252 -1
vt -1.000252 1
vt 1.99975 -1
vt 1.99975 4
vt 4.000002 1
vt 4.000003 6
vt 1.999848 4.242483
vt -4.000153 4.242483
vt 1.999695 7.071088
vt -4.000306 7.070765
vt -4.000003 6
vt -4.000002 1
vt -4.000002 -1
vt 4.000002 -1
vt -4.000258 -3.999744
vt 1.999743 -4.000131
vt 2.000076 -7.105826E-05
vt -3.999925 -7.105825E-05
vt 1.999848 4.242571
vt -4.000152 4.242572
g submesh0
f 1/1/1 2/2/2 3/3/3
f 2/2/2 4/4/4 3/3/3
f 5/5/5 6/6/6 7/7/7
f 8/8/8 5/5/5 7/7/7
f 9/9/9 10/10/10 11/11/11
f 12/12/12 9/9/9 11/11/11
f 12/12/12 11/11/11 13/13/13
f 14/14/14 15/15/15 16/16/16
f 14/14/14 17/17/17 15/15/15
f 18/18/18 16/16/16 19/19/19
f 18/18/18 14/14/14 16/16/16
f 20/20/20 21/21/21 22/22/22
f 20/20/20 23/23/23 21/21/21
f 24/24/24 20/20/20 22/22/22
f 20/20/20 24/24/24 25/25/25
f 24/24/24 26/26/26 25/25/25
f 27/27/27 28/28/28 29/29/29
f 28/28/28 30/30/30 29/29/29
f 13/13/13 11/11/11 31/31/31
f 11/11/11 32/32/32 31/31/31
f 11/11/11 10/10/10 32/32/32
f 10/10/10 33/33/33 32/32/32
f 23/23/23 20/20/20 34/34/34
f 20/20/20 25/25/25 34/34/34
f 2/2/2 1/1/1 35/35/35
f 1/1/1 36/36/36 35/35/35
g submesh1
f 37/37/37 38/38/38 39/39/39
f 38/38/38 40/40/40 39/39/39
