v 14 0 -10
v 16 0 -18
v 16 0 -10
v 14 0 -18
v 20 0 -10
v 22 0 -18
v 22 0 -10
v 20 0 -18
v 0 0 0
v 14 0 0
v 14 5 0
v 0 5 0
v 14 5 -10
v 0 0 -10
v 0 5 -10
v 14 0 -10
v 14 5 -18
v 14 0 -10
v 14 5 -10
v 14 0 -18
v 22 0 -10
v 22 0 -18
v 22 5 -18
v 22 5 -10
v 16 0 0
v 16 5 0
v 16 5 -18
v 14 0 -18
v 14 5 -18
v 16 0 -18
v 20 0 0
v 22 0 0
v 22 5 0
v 20 5 0
v 22 5 -18
v 20 0 -18
v 20 5 -18
v 22 0 -18
v 16 0 -18
v 16 5 -18
v 16 0 -17
v 16 5 -17
v 16 5 -18
v 20 5 -18
v 16 5 -17
v 20 5 -17
v 20 5 -18
v 20 0 -18
v 20 5 -17
v 20 0 -17
v 16 0 -17
v 16 5 -17
v 15 0 -17
v 15 8 -17
v 20 5 -17
v 21 8 -17
v 20 0 -17
v 21 0 -17
v 20 0 0
v 20 5 0
v 20 0 -1
v 20 5 -1
v 16 5 0
v 16 0 0
v 16 5 -1
v 16 0 -1
v 20 5 0
v 16 5 0
v 20 5 -1
v 16 5 -1
v 15 0 -1
v 15 8 -1
v 16 0 -1
v 16 5 -1
v 21 8 -1
v 20 5 -1
v 21 0 -1
v 20 0 -1
v 15 0 -8
v 15 0 -17
v 15 8 -17
v 15 8 -7
v 15 8 -7
v 21 8 -17
v 21 8 -7
v 15 8 -17
v 21 8 -17
v 21 0 -8
v 21 8 -7
v 21 0 -17
v 15 0 -1
v 15 0 -2
v 15 8 -3
v 15 8 -1
v 15 8 -1
v 21 8 -3
v 21 8 -1
v 15 8 -3
v 21 8 -3
v 21 0 -1
v 21 8 -1
v 21 0 -2
v 18 8 -7
v 18 8 -3
v 18 16 -7
v 18 16 -3
v 21 8 -3
v 15 8 -3
v 21 16 -3
v 15 16 -3
v 15 16 -3
v 15 16 -7
v 15 8 -7
v 21 8 -7
v 15 16 -7
v 21 16 -7
v 0 0 -2
v 14 0 -2
v 0 0 -10
v 0 0 0
v 14 0 0
v 16 0 -2
v 16 0 0
v 20 0 -2
v 22 0 -2
v 20 0 0
v 22 0 0
v 22 0 0
v 22 0 -2
v 22 5 -2
v 22 5 0
v 0 5 -2
v 0 0 0
v 0 5 0
v 0 0 -2
v 0 5 -10
v 0 0 -10
v 18 8 -7
v 18 8 -3
v 21 16 -7
v 21 8 -7
v 18 16 -7
v 18 8 -7
v 21 8 -3
v 21 16 -3
v 18 8 -3
v 18 16 -3
v 14 8 0
v 0 8 0
v 14 8 -10
v 0 8 -10
v 14 8 -18
v 14 8 -10
v 22 8 -18
v 22 8 -10
v 16 8 0
v 15 7 -18
v 14 8 -18
v 20.5 8 0
v 22 8 0
v 21 7 -18
v 22 8 -18
v 22 8 -2
v 22 8 0
v 0 8 -2
v 0 8 0
v 0 8 -10
v 14 9 0
v 0 9 0
v 14 16 0
v 0 16 0
v 14 9 -10
v 0 9 -10
v 14 16 -10
v 0 16 -10
v 14 9 -18
v 14 9 -10
v 14 16 -18
v 14 16 -10
v 22 9 -18
v 22 9 -10
v 22 16 -18
v 22 16 -10
v 16 9 0
v 16 16 0
v 15 9 -18
v 14 9 -18
v 16 16 -18
v 14 16 -18
v 20.75 9 0
v 21 16 0
v 22 9 0
v 22 16 0
v 21 9 -21
v 15 7 -21
v 15 9 -21
v 21 7 -21
v 20 13 -16
v 16 9 -16
v 16 13 -16
v 20 9 -16
v 22 9 -18
v 21 9 -18
v 22 16 -18
v 20 16 -18
v 22 9 -2
v 22 9 0
v 22 16 -2
v 22 16 0
v 0 9 -2
v 0 9 0
v 0 16 -2
v 0 16 0
v 0 9 -10
v 0 16 -10
v 15 7 -18
v 15 9 -18
v 15 7 -21
v 15 9 -21
v 21 9 -18
v 21 7 -18
v 21 9 -21
v 21 7 -21
v 21 7 -18
v 15 7 -18
v 21 7 -21
v 15 7 -21
v 15 9 -21
v 15 9 -18
v 16 9 -20
v 16 9 -18
v 21 9 -18
v 21 9 -21
v 20 9 -18
v 20 9 -20
v 16 8 -16
v 20 8 -16
v 16 9 -20
v 16 9 -18
v 16 8 -20
v 16 8 -18
v 20 9 -18
v 20 9 -20
v 20 8 -18
v 20 8 -20
v 20 9 -20
v 16 9 -20
v 20 8 -20
v 16 8 -20
v 16 9 -18
v 16 13 -18
v 20 13 -18
v 20 9 -18
v 16 8 -16
v 16 9 -16
v 20 9 -16
v 20 8 -16
v 16 13 -18
v 16 13 -16
v 16 13 -18
v 20 13 -18
v 16 13 -16
v 20 13 -16
v 20 13 -18
v 20 13 -16
v 16 16 -18
v 14 16 -18
v 14 16 -10
v 15 16 -7
v 22 16 -18
v 20 16 -18
v 21 16 -7
v 22 16 -10
v 0 16 -10
v 0 16 -2
v 14 16 -2
v 0 16 0
v 14 16 0
v 15 16 -3
v 16 16 0
v 21 16 -3
v 22 16 -2
v 21 16 0
v 22 16 0
v 18 16 -3
v 18 16 -7
v 16 8 -18
v 20 8 -18
v 16 8 -20
v 20 8 -20
v 20 8 -16
v 16 8 -16
vn 0 -1 0
vn 0 -1 0
vn 0 -1 0
vn 0 -1 0
vn 0 -1 0
vn 0 -1 0
vn 0 -1 0
vn 0 -1 0
vn 0 0 1
vn 0 0 1
vn 0 0 1
vn 0 0 1
vn 0 0 -1
vn 0 0 -1
vn 0 0 -1
vn 0 0 -1
vn -1 0 0
vn -1 0 0
vn -1 0 0
vn -1 0 0
vn 1 0 0
vn 1 0 0
vn 1 0 0
vn 1 0 0
vn 0 0 1
vn 0 0 1
vn 0 0 -1
vn 0 0 -1
vn 0 0 -1
vn 0 0 -1
vn 0 0 1
vn 0 0 1
vn 0 0 1
vn 0 0 1
vn 0 0 -1
vn 0 0 -1
vn 0 0 -1
vn 0 0 -1
vn 1 0 0
vn 1 0 0
vn 1 0 0
vn 1 0 0
vn 0 -1 0
vn 0 -1 0
vn 0 -1 0
vn 0 -1 0
vn -1 0 0
vn -1 0 0
vn -1 0 0
vn -1 0 0
vn 0 0 1
vn 0 0 1
vn 0 0 1
vn 0 0 1
vn 0 0 1
vn 0 0 1
vn 0 0 1
vn 0 0 1
vn -1 0 0
vn -1 0 0
vn -1 0 0
vn -1 0 0
vn 1 0 0
vn 1 0 0
vn 1 0 0
vn 1 0 0
vn 0 -1 0
vn 0 -1 0
vn 0 -1 0
vn 0 -1 0
vn 0 0 -1
vn 0 0 -1
vn 0 0 -1
vn 0 0 -1
vn 0 0 -1
vn 0 0 -1
vn 0 0 -1
vn 0 0 -1
vn 1 0 0
vn 1 0 0
vn 1 0 0
vn 1 0 0
vn 0 -1 0
vn 0 -1 0
vn 0 -1 0
vn 0 -1 0
vn -1 0 0
vn -1 0 0
vn -1 0 0
vn -1 0 0
vn 1 0 0
vn 1 0 0
vn 1 0 0
vn 1 0 0
vn 0 -1 0
vn 0 -1 0
vn 0 -1 0
vn 0 -1 0
vn -1 0 0
vn -1 0 0
vn -1 0 0
vn -1 0 0
vn -1 0 0
vn -1 0 0
vn -1 0 0
vn -1 0 0
vn 0 0 -1
vn 0 0 -1
vn 0 0 -1
vn 0 0 -1
vn 1 0 0
vn 1 0 0
vn 0 0 1
vn 0 0 1
vn 0 0 1
vn 0 0 1
vn 0 -1 0
vn 0 -1 0
vn 0 -1 0
vn 0 -1 0
vn 0 -1 0
vn 0 -1 0
vn 0 -1 0
vn 0 -1 0
vn 0 -1 0
vn 0 -1 0
vn 0 -1 0
vn 1 0 0
vn 1 0 0
vn 1 0 0
vn 1 0 0
vn -1 0 0
vn -1 0 0
vn -1 0 0
vn -1 0 0
vn -1 0 0
vn -1 0 0
vn 0 -1 0
vn 0 -1 0
vn 0 0 -1
vn 0 0 -1
vn 0 0 -1
vn 0 0 -1
vn 0 0 1
vn 0 0 1
vn 0 0 1
vn 0 0 1
vn 0 0 1
vn 0 0 1
vn 0 0 -1
vn 0 0 -1
vn -1 0 0
vn -1 0 0
vn 1 0 0
vn 1 0 0
vn 0 0 1
vn 0 0 -1
vn 0 0 -1
vn 0 0 1
vn 0 0 1
vn 0 0 -1
vn 0 0 -1
vn 1 0 0
vn 1 0 0
vn -1 0 0
vn -1 0 0
vn -1 0 0
vn 0 0 1
vn 0 0 1
vn 0 0 1
vn 0 0 1
vn 0 0 -1
vn 0 0 -1
vn 0 0 -1
vn 0 0 -1
vn -1 0 0
vn -1 0 0
vn -1 0 0
vn -1 0 0
vn 1 0 0
vn 1 0 0
vn 1 0 0
vn 1 0 0
vn 0 0 1
vn 0 0 1
vn 0 0 -1
vn 0 0 -1
vn 0 0 -1
vn 0 0 -1
vn 0 0 1
vn 0 0 1
vn 0 0 1
vn 0 0 1
vn 0 0 -1
vn 0 0 -1
vn 0 0 -1
vn 0 0 -1
vn 0 0 -1
vn 0 0 -1
vn 0 0 -1
vn 0 0 -1
vn 0 0 -1
vn 0 0 -1
vn 0 0 -1
vn 0 0 -1
vn 1 0 0
vn 1 0 0
vn 1 0 0
vn 1 0 0
vn -1 0 0
vn -1 0 0
vn -1 0 0
vn -1 0 0
vn -1 0 0
vn -1 0 0
vn -1 0 0
vn -1 0 0
vn -1 0 0
vn -1 0 0
vn 1 0 0
vn 1 0 0
vn 1 0 0
vn 1 0 0
vn 0 -1 0
vn 0 -1 0
vn 0 -1 0
vn 0 -1 0
vn 0 1 0
vn 0 1 0
vn 0 1 0
vn 0 1 0
vn 0 1 0
vn 0 1 0
vn 0 1 0
vn 0 1 0
vn 0 0 -1
vn 0 0 -1
vn 1 0 0
vn 1 0 0
vn 1 0 0
vn 1 0 0
vn -1 0 0
vn -1 0 0
vn -1 0 0
vn -1 0 0
vn 0 0 1
vn 0 0 1
vn 0 0 1
vn 0 0 1
vn 0 0 -1
vn 0 0 -1
vn 0 0 -1
vn 0 0 -1
vn 1 0 0
vn 1 0 0
vn -1 0 0
vn -1 0 0
vn 1 0 0
vn 1 0 0
vn 0 -1 0
vn 0 -1 0
vn 0 -1 0
vn 0 -1 0
vn -1 0 0
vn -1 0 0
vn 0 1 0
vn 0 1 0
vn 0 1 0
vn 0 1 0
vn 0 1 0
vn 0 1 0
vn 0 1 0
vn 0 1 0
vn 0 1 0
vn 0 1 0
vn 0 1 0
vn 0 1 0
vn 0 1 0
vn 0 1 0
vn 0 1 0
vn 0 1 0
vn 0 1 0
vn 0 1 0
vn 0 1 0
vn 0 1 0
vn 0 1 0
vn 0 1 0
vn 0 1 0
vn 0 1 0
vn 0 1 0
vn 0 1 0
vn 0 1 0
vt -14 -10
vt -16 -18
vt -16 -10
vt -14 -18
vt -20 -10
vt -22 -18
vt -22 -10
vt -20 -18
vt 0 0
vt -14 0
vt -14 5
vt 0 5
vt 14 5
vt 0 0
vt 0 5
vt 14 0
vt 18 5
vt 10 0
vt 10 5
vt 18 0
vt -10 0
vt -18 0
vt -18 5
vt -10 5
vt -16 0
vt -16 5
vt 16 5
vt 14 0
vt 14 5
vt 16 0
vt -20 0
vt -22 0
vt -22 5
vt -20 5
vt 22 5
vt 20 0
vt 20 5
vt 22 0
vt -18 0
vt -18 5
vt -17 0
vt -17 5
vt -16 -18
vt -20 -18
vt -16 -17
vt -20 -17
vt 18 5
vt 18 0
vt 17 5
vt 17 0
vt -16 0
vt -16 5
vt -15 0
vt -15 8
vt -20 5
vt -21 8
vt -20 0
vt -21 0
vt 0 0
vt 0 5
vt 1 0
vt 1 5
vt 0 5
vt 0 0
vt -1 5
vt -1 0
vt -20 0
vt -16 0
vt -20 -1
vt -16 -1
vt 15 0
vt 15 8
vt 16 0
vt 16 5
vt 21 8
vt 20 5
vt 21 0
vt 20 0
vt -8 0
vt -17 0
vt -17 8
vt -7 8
vt -15 -7
vt -21 -17
vt -21 -7
vt -15 -17
vt 17 8
vt 8 0
vt 7 8
vt 17 0
vt -1 0
vt -2 0
vt -3 8
vt -1 8
vt -15 -1
vt -21 -3
vt -21 -1
vt -15 -3
vt 3 8
vt 1 0
vt 1 8
vt 2 0
vt 7 8
vt 3 8
vt 7 16
vt 3 16
vt 21 8
vt 15 8
vt 21 16
vt 15 16
vt -3 16
vt -7 16
vt -15 8
vt -21 8
vt -15 16
vt -21 16
vt 0 -2
vt -14 -2
vt 0 -10
vt 0 0
vt -14 0
vt -16 -2
vt -16 0
vt -20 -2
vt -22 -2
vt -20 0
vt -22 0
vt 0 0
vt -2 0
vt -2 5
vt 0 5
vt 2 5
vt 0 0
vt 0 5
vt 2 0
vt 10 5
vt 10 0
vt -18 -7
vt -18 -3
vt 21 16
vt 21 8
vt 18 16
vt 18 8
vt -21 8
vt -21 16
vt -18 8
vt -18 16
vt -14 8
vt 0 8
vt 14 8
vt 0 8
vt 18 8
vt 10 8
vt -18 8
vt -10 8
vt -16 8
vt 15 7
vt 14 8
vt -20.5 8
vt -22 8
vt 21 7
vt 22 8
vt -2 8
vt 0 8
vt 2 8
vt 0 8
vt 10 8
vt -14 9
vt 0 9
vt -14 16
vt 0 16
vt 14 9
vt 0 9
vt 14 16
vt 0 16
vt 18 9
vt 10 9
vt 18 16
vt 10 16
vt -18 9
vt -10 9
vt -18 16
vt -10 16
vt -16 9
vt -16 16
vt 15 9
vt 14 9
vt 16 16
vt 14 16
vt -20.75 9
vt -21 16
vt -22 9
vt -22 16
vt 21 9
vt 15 7
vt 15 9
vt 21 7
vt 20 13
vt 16 9
vt 16 13
vt 20 9
vt 22 9
vt 21 9
vt 22 16
vt 20 16
vt -2 9
vt 0 9
vt -2 16
vt 0 16
vt 2 9
vt 0 9
vt 2 16
vt 0 16
vt 10 9
vt 10 16
vt 18 7
vt 18 9
vt 21 7
vt 21 9
vt -18 9
vt -18 7
vt -21 9
vt -21 7
vt -21 -18
vt -15 -18
vt -21 -21
vt -15 -21
vt 15 -21
vt 15 -18
vt 16 -20
vt 16 -18
vt 21 -18
vt 21 -21
vt 20 -18
vt 20 -20
vt 16 8
vt 20 8
vt -20 9
vt -18 9
vt -20 8
vt -18 8
vt 18 9
vt 20 9
vt 18 8
vt 20 8
vt -20 9
vt -16 9
vt -20 8
vt -16 8
vt 16 9
vt 16 13
vt 20 13
vt 20 9
vt -16 8
vt -16 9
vt 16 9
vt 16 8
vt -18 13
vt -16 13
vt -16 -18
vt -20 -18
vt -16 -16
vt -20 -16
vt 18 13
vt 16 13
vt 16 -18
vt 14 -18
vt 14 -10
vt 15 -7
vt 22 -18
vt 20 -18
vt 21 -7
vt 22 -10
vt 0 -10
vt 0 -2
vt 14 -2
vt 0 0
vt 14 0
vt 15 -3
vt 16 0
vt 21 -3
vt 22 -2
vt 21 0
vt 22 0
vt 18 -3
vt 18 -7
vt 16 -18
vt 20 -18
vt 16 -20
vt 20 -20
vt 20 -16
vt 16 -16
g submesh0
f 1/1/1 2/2/2 3/3/3
f 1/1/1 4/4/4 2/2/2
f 5/5/5 6/6/6 7/7/7
f 5/5/5 8/8/8 6/6/6
f 3/3/3 8/8/8 5/5/5
f 3/3/3 2/2/2 8/8/8
f 9/9/9 10/10/10 11/11/11
f 12/12/12 9/9/9 11/11/11
f 13/13/13 14/14/14 15/15/15
f 13/13/13 16/16/16 14/14/14
f 17/17/17 18/18/18 19/19/19
f 17/17/17 20/20/20 18/18/18
f 21/21/21 22/22/22 23/23/23
f 24/24/24 21/21/21 23/23/23
f 10/10/10 25/25/25 26/26/26
f 11/11/11 10/10/10 26/26/26
f 27/27/27 28/28/28 29/29/29
f 27/27/27 30/30/30 28/28/28
f 31/31/31 32/32/32 33/33/33
f 34/34/34 31/31/31 33/33/33
f 35/35/35 36/36/36 37/37/37
f 35/35/35 38/38/38 36/36/36
f 39/39/39 40/40/40 41/41/41
f 40/40/40 42/42/42 41/41/41
f 43/43/43 44/44/44 45/45/45
f 44/44/44 46/46/46 45/45/45
f 47/47/47 48/48/48 49/49/49
f 48/48/48 50/50/50 49/49/49
f 51/51/51 52/52/52 53/53/53
f 52/52/52 54/54/54 53/53/53
f 52/52/52 55/55/55 54/54/54
f 55/55/55 56/56/56 54/54/54
f 55/55/55 57/57/57 56/56/56
f 57/57/57 58/58/58 56/56/56
f 59/59/59 60/60/60 61/61/61
f 60/60/60 62/62/62 61/61/61
f 63/63/63 64/64/64 65/65/65
f 64/64/64 66/66/66 65/65/65
f 67/67/67 68/68/68 69/69/69
f 68/68/68 70/70/70 69/69/69
f 71/71/71 72/72/72 73/73/73
f 72/72/72 74/74/74 73/73/73
f 72/72/72 75/75/75 74/74/74
f 75/75/75 76/76/76 74/74/74
f 75/75/75 77/77/77 76/76/76
f 77/77/77 78/78/78 76/76/76
f 79/79/79 80/80/80 81/81/81
f 82/82/82 79/79/79 81/81/81
f 83/83/83 84/84/84 85/85/85
f 83/83/83 86/86/86 84/84/84
f 87/87/87 88/88/88 89/89/89
f 87/87/87 90/90/90 88/88/88
f 91/91/91 92/92/92 93/93/93
f 94/94/94 91/91/91 93/93/93
f 92/92/92 79/79/79 82/82/82
f 93/93/93 92/92/92 82/82/82
f 95/95/95 96/96/96 97/97/97
f 95/95/95 98/98/98 96/96/96
f 99/99/99 100/100/100 101/101/101
f 99/99/99 102/102/102 100/100/100
f 89/89/89 102/102/102 99/99/99
f 89/89/89 88/88/88 102/102/102
f 103/103/103 104/104/104 105/105/105
f 104/104/104 106/106/106 105/105/105
f 107/107/107 108/108/108 109/109/109
f 108/108/108 110/110/110 109/109/109
f 93/93/93 82/82/82 111/111/111
f 82/82/82 112/112/112 111/111/111
f 113/113/113 114/114/114 115/115/115
f 114/114/114 116/116/116 115/115/115
f 117/117/117 1/1/1 118/118/118
f 117/117/117 119/119/119 1/1/1
f 120/120/120 118/118/118 121/121/121
f 120/120/120 117/117/117 118/118/118
f 118/118/118 3/3/3 122/122/122
f 118/118/118 1/1/1 3/3/3
f 121/121/121 122/122/122 123/123/123
f 121/121/121 118/118/118 122/122/122
f 124/124/124 7/7/7 125/125/125
f 124/124/124 5/5/5 7/7/7
f 126/126/126 125/125/125 127/127/127
f 126/126/126 124/124/124 125/125/125
f 122/122/122 5/5/5 124/124/124
f 122/122/122 3/3/3 5/5/5
f 123/123/123 124/124/124 126/126/126
f 123/123/123 122/122/122 124/124/124
f 128/128/128 129/129/129 130/130/130
f 131/131/131 128/128/128 130/130/130
f 129/129/129 21/21/21 24/24/24
f 130/130/130 129/129/129 24/24/24
f 132/132/132 133/133/133 134/134/134
f 132/132/132 135/135/135 133/133/133
f 136/136/136 135/135/135 132/132/132
f 136/136/136 137/137/137 135/135/135
f 85/85/85 96/96/96 138/138/138
f 96/96/96 139/139/139 138/138/138
f 140/140/140 141/141/141 142/142/142
f 141/141/141 143/143/143 142/142/142
f 144/144/144 145/145/145 146/146/146
f 145/145/145 147/147/147 146/146/146
f 12/12/12 11/11/11 148/148/148
f 149/149/149 12/12/12 148/148/148
f 150/150/150 15/15/15 151/151/151
f 150/150/150 13/13/13 15/15/15
f 152/152/152 19/19/19 153/153/153
f 152/152/152 17/17/17 19/19/19
f 24/24/24 23/23/23 154/154/154
f 155/155/155 24/24/24 154/154/154
f 11/11/11 26/26/26 156/156/156
f 148/148/148 11/11/11 156/156/156
f 157/157/157 29/29/29 158/158/158
f 157/157/157 27/27/27 29/29/29
f 156/156/156 26/26/26 34/34/34
f 156/156/156 34/34/34 159/159/159
f 33/33/33 159/159/159 34/34/34
f 33/33/33 160/160/160 159/159/159
f 161/161/161 27/27/27 157/157/157
f 161/161/161 37/37/37 27/27/27
f 162/162/162 37/37/37 161/161/161
f 162/162/162 35/35/35 37/37/37
f 131/131/131 130/130/130 163/163/163
f 164/164/164 131/131/131 163/163/163
f 130/130/130 24/24/24 155/155/155
f 163/163/163 130/130/130 155/155/155
f 165/165/165 134/134/134 166/166/166
f 165/165/165 132/132/132 134/134/134
f 167/167/167 132/132/132 165/165/165
f 167/167/167 136/136/136 132/132/132
f 149/149/149 148/148/148 168/168/168
f 169/169/169 149/149/149 168/168/168
f 169/169/169 168/168/168 170/170/170
f 171/171/171 169/169/169 170/170/170
f 172/172/172 151/151/151 173/173/173
f 172/172/172 150/150/150 151/151/151
f 174/174/174 173/173/173 175/175/175
f 174/174/174 172/172/172 173/173/173
f 176/176/176 153/153/153 177/177/177
f 176/176/176 152/152/152 153/153/153
f 178/178/178 177/177/177 179/179/179
f 178/178/178 176/176/176 177/177/177
f 155/155/155 154/154/154 180/180/180
f 181/181/181 155/155/155 180/180/180
f 181/181/181 180/180/180 182/182/182
f 183/183/183 181/181/181 182/182/182
f 148/148/148 156/156/156 184/184/184
f 168/168/168 148/148/148 184/184/184
f 168/168/168 184/184/184 185/185/185
f 170/170/170 168/168/168 185/185/185
f 186/186/186 158/158/158 187/187/187
f 186/186/186 157/157/157 158/158/158
f 188/188/188 187/187/187 189/189/189
f 188/188/188 186/186/186 187/187/187
f 185/185/185 184/184/184 190/190/190
f 185/185/185 190/190/190 191/191/191
f 184/184/184 156/156/156 159/159/159
f 184/184/184 159/159/159 190/190/190
f 192/192/192 191/191/191 190/190/190
f 192/192/192 193/193/193 191/191/191
f 160/160/160 190/190/190 159/159/159
f 160/160/160 192/192/192 190/190/190
f 194/194/194 195/195/195 196/196/196
f 194/194/194 197/197/197 195/195/195
f 198/198/198 199/199/199 200/200/200
f 198/198/198 201/201/201 199/199/199
f 202/202/202 161/161/161 203/203/203
f 202/202/202 162/162/162 161/161/161
f 204/204/204 203/203/203 205/205/205
f 204/204/204 202/202/202 203/203/203
f 164/164/164 163/163/163 206/206/206
f 207/207/207 164/164/164 206/206/206
f 207/207/207 206/206/206 208/208/208
f 209/209/209 207/207/207 208/208/208
f 163/163/163 155/155/155 181/181/181
f 206/206/206 163/163/163 181/181/181
f 206/206/206 181/181/181 183/183/183
f 208/208/208 206/206/206 183/183/183
f 210/210/210 166/166/166 211/211/211
f 210/210/210 165/165/165 166/166/166
f 212/212/212 211/211/211 213/213/213
f 212/212/212 210/210/210 211/211/211
f 214/214/214 165/165/165 210/210/210
f 214/214/214 167/167/167 165/165/165
f 215/215/215 210/210/210 212/212/212
f 215/215/215 214/214/214 210/210/210
f 216/216/216 217/217/217 218/218/218
f 217/217/217 219/219/219 218/218/218
f 220/220/220 221/221/221 222/222/222
f 221/221/221 223/223/223 222/222/222
f 224/224/224 225/225/225 226/226/226
f 225/225/225 227/227/227 226/226/226
f 228/228/228 229/229/229 230/230/230
f 229/229/229 231/231/231 230/230/230
f 232/232/232 233/233/233 234/234/234
f 233/233/233 235/235/235 234/234/234
f 233/233/233 228/228/228 235/235/235
f 228/228/228 230/230/230 235/235/235
f 199/199/199 201/201/201 236/236/236
f 201/201/201 237/237/237 236/236/236
f 238/238/238 239/239/239 240/240/240
f 239/239/239 241/241/241 240/240/240
f 242/242/242 243/243/243 244/244/244
f 243/243/243 245/245/245 244/244/244
f 246/246/246 247/247/247 248/248/248
f 247/247/247 249/249/249 248/248/248
f 186/186/186 188/188/188 250/250/250
f 188/188/188 205/205/205 251/251/251
f 205/205/205 252/252/252 251/251/251
f 205/205/205 203/203/203 252/252/252
f 203/203/203 253/253/253 252/252/252
f 241/241/241 239/239/239 254/254/254
f 239/239/239 255/255/255 254/254/254
f 242/242/242 244/244/244 256/256/256
f 244/244/244 257/257/257 256/256/256
f 239/239/239 258/258/258 255/255/255
f 258/258/258 259/259/259 255/255/255
f 260/260/260 261/261/261 262/262/262
f 261/261/261 263/263/263 262/262/262
f 264/264/264 242/242/242 265/265/265
f 242/242/242 256/256/256 265/265/265
g submesh1
f 266/266/266 267/267/267 268/268/268
f 269/269/269 266/266/266 268/268/268
f 270/270/270 271/271/271 272/272/272
f 273/273/273 270/270/270 272/272/272
f 271/271/271 266/266/266 269/269/269
f 272/272/272 271/271/271 269/269/269
f 268/268/268 274/274/274 275/275/275
f 276/276/276 268/268/268 275/275/275
f 276/276/276 275/275/275 277/277/277
f 278/278/278 276/276/276 277/277/277
f 269/269/269 268/268/268 276/276/276
f 279/279/279 269/269/269 276/276/276
f 279/279/279 276/276/276 278/278/278
f 280/280/280 279/279/279 278/278/278
f 273/273/273 272/272/272 281/281/281
f 282/282/282 273/273/273 281/281/281
f 282/282/282 281/281/281 283/283/283
f 284/284/284 282/282/282 283/283/283
f 281/281/281 279/279/279 280/280/280
f 283/283/283 281/281/281 280/280/280
f 281/281/281 272/272/272 285/285/285
f 272/272/272 286/286/286 285/285/285
f 287/287/287 288/288/288 289/289/289
f 288/288/288 290/290/290 289/289/289
f 288/288/288 287/287/287 291/291/291
f 287/287/287 292/292/292 291/291/291
