v -6 -1 -2
v 20 -1 -2
v -6 -1 1
v 20 -1 1
v -6 -1 1
v 20 -1 1
v 20 1 1
v -6 1 1
v 20 -1 1
v 20 -1 -2
v 20 1 -2
v 20 1 1
v 20 3 -2
v 20 1 -4
v -6 -1 -4
v -6 1 -4
v 20 -1 -4
v 20 3 -4
v -6 3 -4
v -6 1 -2
v -6 -1 1
v -6 1 1
v -6 -1 -2
v -6 3 -2
v -6 -1 -4
v -6 1 -4
v 20 1 -4
v 20 -1 -4
v 20 -1 -4
v -6 -1 -4
v -6 3 -4
v -6 3 -2
v 20 3 -2
v -6 3 -4
v 20 3 -4
v 20 3 -4
v -6 1 1
v 20 1 1
v -6 3 -2
v 20 3 -2
vn 0 -1 0
vn 0 -1 0
vn 0 -1 0
vn 0 -1 0
vn 0 0 1
vn 0 0 1
vn 0 0 1
vn 0 0 1
vn 1 0 0
vn 1 0 0
vn 1 0 0
vn 1 0 0
vn 1 0 0
vn 0 0 -1
vn 0 0 -1
vn 0 0 -1
vn 0 0 -1
vn 0 0 -1
vn 0 0 -1
vn -1 0 0
vn -1 0 0
vn -1 0 0
vn -1 0 0
vn -1 0 0
vn -1 0 0
vn -1 0 0
vn 1 0 0
vn 1 0 0
vn 0 -1 0
vn 0 -1 0
vn -1 0 0
vn 0 1 0
vn 0 1 0
vn 0 1 0
vn 0 1 0
vn 1 0 0
vn 0 0.8320503 0.5547002
vn 0 0.8320503 0.5547002
vn 0 0.8320503 0.5547002
vn 0 0.8320503 0.5547002
vt 6 -2
vt -20 -2
vt 6 1
vt -20 1
vt 6 -1
vt -20 -1
vt -20 1
vt 6 1
vt 1 -1
vt -2 -1
vt -2 1
vt 1 1
vt -2 3
vt 20 1
vt -6 -1
vt -6 1
vt 20 -1
vt 20 3
vt -6 3
vt 2 1
vt -1 -1
vt -1 1
vt 2 -1
vt 2 3
vt 4 -1
vt 4 1
vt -4 1
vt -4 -1
vt -20 -4
vt 6 -4
vt 4 3
vt -6 -2
vt 20 -2
vt -6 -4
vt 20 -4
vt -4 3
vt -6 0.2773502
vt 20 0.2773502
vt -6 -3.328201
vt 20 -3.328201
g submesh0
f 1/1/1 2/2/2 3/3/3
f 2/2/2 4/4/4 3/3/3
f 5/5/5 6/6/6 7/7/7
f 8/8/8 5/5/5 7/7/7
f 9/9/9 10/10/10 11/11/11
f 12/12/12 9/9/9 11/11/11
f 12/12/12 11/11/11 13/13/13
f 14/14/14 15/15/15 16/16/16
f 14/14/14 17/17/17 15/15/15
f 18/18/18 16/16/16 19/19/19
f 18/18/18 14/14/14 16/16/16
f 20/20/20 21/21/21 22/22/22
f 20/20/20 23/23/23 21/21/21
f 24/24/24 20/20/20 22/22/22
f 23/23/23 20/20/20 25/25/25
f 20/20/20 26/26/26 25/25/25
f 11/11/11 10/10/10 27/27/27
f 10/10/10 28/28/28 27/27/27
f 2/2/2 1/1/1 29/29/29
f 1/1/1 30/30/30 29/29/29
f 20/20/20 24/24/24 26/26/26
f 24/24/24 31/31/31 26/26/26
f 32/32/32 33/33/33 34/34/34
f 33/33/33 35/35/35 34/34/34
f 13/13/13 11/11/11 36/36/36
f 11/11/11 27/27/27 36/36/36
g submesh1
f 37/37/37 38/38/38 39/39/39
f 38/38/38 40/40/40 39/39/39
