v 14 -3 0
v 32 -3 0
v 32 2 0
v 14 6 0
v 32 0 -22
v 14 -3 -22
v 14 6 -22
v 32 -3 -22
v 32 2 -22
v 32 -3 -14
v 32 2 -14
v 32 -3 -22
v 42 -3 -14
v 42 -3 -22
v 42 0 -22
v 42 0 -14
v 38 -3 -14
v 38 -3 -22
v 42 -3 -14
v 42 -3 -22
v 38 -3 -22
v 38 2 -22
v 42 -3 -22
v 42 0 -22
v 38 2 -14
v 38 -3 -14
v 42 0 -14
v 42 -3 -14
v 14 16 -8
v 32 16 -8
v 13 16 -7
v 33 16 -7
v 32 16 -23
v 14 16 -23
v 33 16 -24
v 13 16 -24
v 32 -3 -8
v 32 -3 -17
v 32 2 -17
v 32 2 -8
v 0 6 -17
v 0 -3 -8
v 0 6 -8
v 0 -3 -17
v 14 -3 -8
v 32 -3 -17
v 32 -3 -8
v 14 -3 -17
v 33 16 -17
v 32 16 -17
v 13 16 -17
v 14 16 -17
v 32 -3 -21
v 32 2 -21
v 32 -3 -22
v 32 0 -22
v 0 6 -21
v 0 -3 -21
v 0 6 -22
v 0 -3 -22
v 14 -3 -21
v 32 -3 -22
v 32 -3 -21
v 14 -3 -22
v 32 16 -22
v 13 16 -22
v 14 16 -22
v 32 9 -22
v 14 6 -22
v 14 12 -22
v 32 0 -22
v 32 16 -23
v 14 12 -22
v 14 16 -23
v 32 9 -22
v 14 6 -8
v 32 2 -8
v 32 10 -8
v 14 12 -8
v 32 16 -8
v 14 16 -8
v 14 12 -17
v 14 6 -8
v 14 12 -8
v 14 6 -17
v 14 16 -17
v 14 16 -8
v 32 8 -17
v 32 10 -8
v 32 16 -17
v 32 16 -8
v 14 16 -22
v 14 12 -21
v 14 12 -22
v 14 6 -21
v 14 6 -22
v 14 16 -23
v 32 8 -21
v 32 16 -22
v 32 9 -22
v 32 16 -23
v 14 6 -17
v 14 12 -17
v 32 2 -17
v 32 8 -17
v 14 12 -17
v 14 12 -21
v 32 8 -17
v 32 8 -21
v 14 12 -21
v 14 6 -21
v 32 8 -21
v 32 2 -21
v 37 2 -22
v 32 2 -22
v 37 -3 -22
v 37 -3 0
v 37 2 0
v 38 -3 0
v 38 2 0
v 37 -3 -14
v 37 -3 -22
v 32 -3 -14
v 32 2 -13
v 32 -3 -8
v 32 2 -8
v 32 -3 -13
v 38 -3 -8
v 38 -3 -13
v 38 2 -13
v 38 2 -8
v 38 -3 -14
v 38 2 -14
v 37 -3 -13
v 38 -3 -13
v 37 -3 -8
v 38 -3 -8
v 32 -3 -13
v 38 -3 0
v 38 -3 -1
v 38 2 -1
v 38 2 0
v 0 6 -1
v 0 -3 0
v 0 6 0
v 0 -3 -1
v 14 -3 -1
v 32 -3 -1
v 14 -3 0
v 32 -3 0
v 37 -3 -1
v 37 -3 0
v 38 -3 -1
v 38 -3 0
v 0 -3 0
v 12 -3 0
v 12 6 0
v 0 6 0
v 12 6 -22
v 0 -3 -22
v 0 6 -22
v 12 -3 -22
v 12 -3 -8
v 12 -3 -17
v 0 -3 -8
v 0 -3 -17
v 12 -3 -21
v 12 -3 -22
v 0 -3 -21
v 0 -3 -22
v 12 -3 -1
v 0 -3 -1
v 12 -3 0
v 0 -3 0
v 38 2 -22
v 38 2 -14
v 42 0 -22
v 42 0 -14
v 32 16 -17
v 14 16 -17
v 14 16 -8
v 32 16 -8
v 32 16 -23
v 14 16 -23
v 14 16 -22
v 32 16 -22
v 14 6 -21
v 14 6 -17
v 32 2 -21
v 32 2 -17
v 38 2 -22
v 37 2 -22
v 37 2 -14
v 38 2 -14
v 32 2 -22
v 32 2 -14
v 37 2 -13
v 38 2 -13
v 32 2 -13
v 32 2 -8
v 37 2 -8
v 32 2 -8
v 14 6 -8
v 14 6 -1
v 32 2 -1
v 32 2 -1
v 37 2 -1
v 14 6 -17
v 12 6 -17
v 12 6 -8
v 14 6 -8
v 0 6 -17
v 0 6 -8
v 14 6 -22
v 12 6 -22
v 12 6 -21
v 14 6 -21
v 0 6 -22
v 0 6 -21
v 12 6 -1
v 14 6 -1
v 0 6 -1
v 0 6 0
v 12 6 0
v 33 16 -24
v 13 16 -24
v 33 18 -24
v 13 18 -24
v 13 16 -7
v 33 16 -7
v 13 18 -7
v 33 18 -7
v 32 18 -8
v 14 18 -8
v 33 18 -7
v 13 18 -7
v 14 18 -23
v 32 18 -23
v 13 18 -24
v 33 18 -24
v 32 18 -23
v 14 18 -23
v 32 16 -23
v 14 16 -23
v 14 18 -8
v 32 18 -8
v 14 16 -8
v 32 16 -8
v 13 18 -17
v 13 16 -7
v 13 18 -7
v 13 16 -17
v 33 16 -7
v 33 16 -17
v 33 18 -17
v 33 18 -7
v 33 16 -24
v 33 18 -24
v 14 18 -17
v 13 18 -17
v 33 18 -17
v 32 18 -17
v 14 16 -8
v 14 16 -17
v 14 18 -17
v 14 18 -8
v 32 18 -17
v 32 16 -8
v 32 18 -8
v 32 16 -17
v 13 18 -22
v 13 16 -22
v 13 18 -24
v 13 16 -24
v 13 18 -22
v 14 18 -22
v 14 16 -22
v 14 18 -22
v 14 16 -23
v 14 18 -23
v 32 18 -23
v 32 16 -22
v 32 16 -23
v 38 4 -13
v 37 4 -13
v 37 4 -8
v 38 4 -8
v 32.10977 4 -1
v 14.10977 8 -1
v 14.10977 8 0
v 32.10977 4 0
v 37 4 -1
v 32.10977 4 -1
v 32.10977 4 0
v 37 4 0
v 38 4 -1
v 38 4 0
v 14.10977 8 -1
v 12 8 -1
v 12 8 0
v 14.10977 8 0
v 32 2 -1
v 14 6 -1
v 32.10977 4 -1
v 14.10977 8 -1
v 12 6 0
v 14 6 0
v 12 8 0
v 14.10977 8 0
v 38 2 0
v 38 2 -1
v 38 4 0
v 38 4 -1
v 32 2 0
v 32.10977 4 0
v 12 6 -1
v 12 8 -1
v 12 6 -1
v 12 6 0
v 12 8 -1
v 12 8 0
v 37 2 -1
v 37 4 -1
v 37 2 0
v 37 4 0
v 38 2 -13
v 37 2 -13
v 38 4 -13
v 37 4 -13
v 38 2 0
v 38 4 0
v 37 2 -8
v 37 2 -1
v 37 4 -8
v 37 4 -1
v 38 2 -8
v 38 4 -8
v 37 2 -13
v 37 4 -13
v 38 2 -13
v 38 4 -13
vn 0 0 1
vn 0 0 1
vn 0 0 1
vn 0 0 1
vn 0 0 -1
vn 0 0 -1
vn 0 0 -1
vn 0 0 -1
vn -1 0 0
vn -1 0 0
vn -1 0 0
vn -1 0 0
vn 1 0 0
vn 1 0 0
vn 1 0 0
vn 1 0 0
vn 0 -1 0
vn 0 -1 0
vn 0 -1 0
vn 0 -1 0
vn 0 0 -1
vn 0 0 -1
vn 0 0 -1
vn 0 0 -1
vn 0 0 1
vn 0 0 1
vn 0 0 1
vn 0 0 1
vn 0 -1 0
vn 0 -1 0
vn 0 -1 0
vn 0 -1 0
vn 0 -1 0
vn 0 -1 0
vn 0 -1 0
vn 0 -1 0
vn 1 0 0
vn 1 0 0
vn 1 0 0
vn 1 0 0
vn -1 0 0
vn -1 0 0
vn -1 0 0
vn -1 0 0
vn 0 -1 0
vn 0 -1 0
vn 0 -1 0
vn 0 -1 0
vn 0 -1 0
vn 0 -1 0
vn 0 -1 0
vn 0 -1 0
vn 1 0 0
vn 1 0 0
vn 1 0 0
vn 1 0 0
vn -1 0 0
vn -1 0 0
vn -1 0 0
vn -1 0 0
vn 0 -1 0
vn 0 -1 0
vn 0 -1 0
vn 0 -1 0
vn 0 -1 0
vn 0 -1 0
vn 0 -1 0
vn 0 0 -1
vn 0 0 -1
vn 0 0 -1
vn 0 0 -1
vn -0.01178184 -0.1919589 -0.9799086
vn -0.01178184 -0.1919589 -0.9799086
vn 0 -0.2425356 -0.9701425
vn -0.02356368 -0.1413821 -0.9896746
vn 0 0 1
vn 0 0 1
vn 0 0 1
vn 0 0 1
vn 0 0 1
vn 0 0 1
vn -1 0 0
vn -1 0 0
vn -1 0 0
vn -1 0 0
vn -1 0 0
vn -1 0 0
vn 1 0 0
vn 1 0 0
vn 1 0 0
vn 1 0 0
vn -1 0 0
vn -1 0 0
vn -1 0 0
vn -1 0 0
vn -1 0 0
vn -1 0 0
vn 1 0 0
vn 1 0 0
vn 1 0 0
vn 1 0 0
vn 0 0 -1
vn 0 0 -1
vn 0 0 -1
vn 0 0 -1
vn -0.2169305 -0.9761871 0
vn -0.2169305 -0.9761871 0
vn -0.2169305 -0.9761871 0
vn -0.2169305 -0.9761871 0
vn 0 0 1
vn 0 0 1
vn 0 0 1
vn 0 0 1
vn 0 0 -1
vn 0 0 -1
vn 0 0 -1
vn 0 0 1
vn 0 0 1
vn 0 0 1
vn 0 0 1
vn 0 -1 0
vn 0 -1 0
vn 0 -1 0
vn -1 0 0
vn -1 0 0
vn -1 0 0
vn -1 0 0
vn 1 0 0
vn 1 0 0
vn 1 0 0
vn 1 0 0
vn 1 0 0
vn 1 0 0
vn 0 -1 0
vn 0 -1 0
vn 0 -1 0
vn 0 -1 0
vn 0 -1 0
vn 1 0 0
vn 1 0 0
vn 1 0 0
vn 1 0 0
vn -1 0 0
vn -1 0 0
vn -1 0 0
vn -1 0 0
vn 0 -1 0
vn 0 -1 0
vn 0 -1 0
vn 0 -1 0
vn 0 -1 0
vn 0 -1 0
vn 0 -1 0
vn 0 -1 0
vn 0 0 1
vn 0 0 1
vn 0 0 1
vn 0 0 1
vn 0 0 -1
vn 0 0 -1
vn 0 0 -1
vn 0 0 -1
vn 0 -1 0
vn 0 -1 0
vn 0 -1 0
vn 0 -1 0
vn 0 -1 0
vn 0 -1 0
vn 0 -1 0
vn 0 -1 0
vn 0 -1 0
vn 0 -1 0
vn 0 -1 0
vn 0 -1 0
vn 0.4472136 0.8944272 0
vn 0.4472136 0.8944272 0
vn 0.4472136 0.8944272 0
vn 0.4472136 0.8944272 0
vn 0 1 0
vn 0 1 0
vn 0 1 0
vn 0 1 0
vn 0 1 0
vn 0 1 0
vn 0 1 0
vn 0 1 0
vn 0.2169305 0.9761871 0
vn 0.2169305 0.9761871 0
vn 0.2169305 0.9761871 0
vn 0.2169305 0.9761871 0
vn 0 1 0
vn 0 1 0
vn 0 1 0
vn 0 1 0
vn 0 1 0
vn 0 1 0
vn 0 1 0
vn 0 1 0
vn 0 1 0
vn 0 1 0
vn 0 1 0
vn 0.2169304 0.9761871 0
vn 0.2169304 0.9761871 0
vn 0.2169304 0.9761871 0
vn 0.2169304 0.9761871 0
vn 0 1 0
vn 0 1 0
vn 0 1 0
vn 0 1 0
vn 0 1 0
vn 0 1 0
vn 0 1 0
vn 0 1 0
vn 0 1 0
vn 0 1 0
vn 0 1 0
vn 0 1 0
vn 0 1 0
vn 0 1 0
vn 0 1 0
vn 0 1 0
vn 0 1 0
vn 0 1 0
vn 0 1 0
vn 0 0 -1
vn 0 0 -1
vn 0 0 -1
vn 0 0 -1
vn 0 0 1
vn 0 0 1
vn 0 0 1
vn 0 0 1
vn 0 1 0
vn 0 1 0
vn 0 1 0
vn 0 1 0
vn 0 1 0
vn 0 1 0
vn 0 1 0
vn 0 1 0
vn 0 0 1
vn 0 0 1
vn 0 0 1
vn 0 0 1
vn 0 0 -1
vn 0 0 -1
vn 0 0 -1
vn 0 0 -1
vn -1 0 0
vn -1 0 0
vn -1 0 0
vn -1 0 0
vn 1 0 0
vn 1 0 0
vn 1 0 0
vn 1 0 0
vn 1 0 0
vn 1 0 0
vn 0 1 0
vn 0 1 0
vn 0 1 0
vn 0 1 0
vn 1 0 0
vn 1 0 0
vn 1 0 0
vn 1 0 0
vn -1 0 0
vn -1 0 0
vn -1 0 0
vn -1 0 0
vn -1 0 0
vn -1 0 0
vn -1 0 0
vn -1 0 0
vn 0 1 0
vn 0 1 0
vn 1 0 0
vn 1 0 0
vn 1 0 0
vn 1 0 0
vn -1 0 0
vn -1 0 0
vn -1 0 0
vn 0 1 0
vn 0 1 0
vn 0 1 0
vn 0 1 0
vn 0.2169305 0.9761871 0
vn 0.2169305 0.9761871 0
vn 0.2169305 0.9761871 0
vn 0.2169305 0.9761871 0
vn 0 1 0
vn 0 1 0
vn 0 1 0
vn 0 1 0
vn 0 1 0
vn 0 1 0
vn 0 1 0
vn 0 1 0
vn 0 1 0
vn 0 1 0
vn 0 0 -1
vn 0 0 -1
vn 0 0 -1
vn 0 0 -1
vn 0 0 1
vn 0 0 1
vn 0 0 1
vn 0 0 1
vn 1 0 0
vn 1 0 0
vn 1 0 0
vn 1 0 0
vn 0 0 1
vn 0 0 1
vn 0 0 -1
vn 0 0 -1
vn -1 0 0
vn -1 0 0
vn -1 0 0
vn -1 0 0
vn 0 0 -1
vn 0 0 -1
vn 0 0 1
vn 0 0 1
vn 0 0 -1
vn 0 0 -1
vn 0 0 -1
vn 0 0 -1
vn 0 0 1
vn 0 0 1
vn -1 0 0
vn -1 0 0
vn -1 0 0
vn -1 0 0
vn 1 0 0
vn 1 0 0
vn -1 0 0
vn -1 0 0
vn 1 0 0
vn 1 0 0
vt -14 -3
vt -32 -3
vt -32 2
vt -14 6
vt 32 0
vt 14 -3
vt 14 6
vt 32 -3
vt 22 2
vt 14 -3
vt 14 2
vt 22 -3
vt -14 -3
vt -22 -3
vt -22 0
vt -14 0
vt -38 -14
vt -38 -22
vt -42 -14
vt -42 -22
vt 38 -3
vt 38 2
vt 42 -3
vt 42 0
vt -38 2
vt -38 -3
vt -42 0
vt -42 -3
vt -14 -8
vt -32 -8
vt -13 -7
vt -33 -7
vt -32 -23
vt -14 -23
vt -33 -24
vt -13 -24
vt -8 -3
vt -17 -3
vt -17 2
vt -8 2
vt 17 6
vt 8 -3
vt 8 6
vt 17 -3
vt -14 -8
vt -32 -17
vt -32 -8
vt -14 -17
vt -33 -17
vt -32 -17
vt -13 -17
vt -14 -17
vt -21 -3
vt -21 2
vt -22 -3
vt -22 0
vt 21 6
vt 21 -3
vt 22 6
vt 22 -3
vt -14 -21
vt -32 -22
vt -32 -21
vt -14 -22
vt -32 -22
vt -13 -22
vt -14 -22
vt 32 11.6206
vt 14 8.643077
vt 14 14.59812
vt 32 2.688032
vt 32 18.69034
vt 14 14.59812
vt 14 18.69034
vt 32 11.6206
vt -14 6
vt -32 2
vt -32 10
vt -14 12
vt -32 16
vt -14 16
vt 17 12
vt 8 6
vt 8 12
vt 17 6
vt 17 16
vt 8 16
vt -17 8
vt -8 10
vt -17 16
vt -8 16
vt 22 16
vt 21 12
vt 22 12
vt 21 6
vt 22 6
vt 23 16
vt -21 8
vt -22 16
vt -22 9
vt -23 16
vt 14 6
vt 14 12
vt 32 2
vt 32 8
vt -11.06345 -17
vt -11.06345 -21
vt -29.50254 -17
vt -29.50254 -21
vt -14 12
vt -14 6
vt -32 8
vt -32 2
vt 37 2
vt 32 2
vt 37 -3
vt -37 -3
vt -37 2
vt -38 -3
vt -38 2
vt -37 -14
vt -37 -22
vt -32 -14
vt 13 2
vt 8 -3
vt 8 2
vt 13 -3
vt -8 -3
vt -13 -3
vt -13 2
vt -8 2
vt -14 -3
vt -14 2
vt -37 -13
vt -38 -13
vt -37 -8
vt -38 -8
vt -32 -13
vt 0 -3
vt -1 -3
vt -1 2
vt 0 2
vt 1 6
vt 0 -3
vt 0 6
vt 1 -3
vt -14 -1
vt -32 -1
vt -14 0
vt -32 0
vt -37 -1
vt -37 0
vt -38 -1
vt -38 0
vt 0 -3
vt -12 -3
vt -12 6
vt 0 6
vt 12 6
vt 0 -3
vt 0 6
vt 12 -3
vt -12 -8
vt -12 -17
vt 0 -8
vt 0 -17
vt -12 -21
vt -12 -22
vt 0 -21
vt 0 -22
vt -12 -1
vt 0 -1
vt -12 0
vt 0 0
vt 33.09381 -22
vt 33.09381 -14
vt 37.56594 -22
vt 37.56594 -14
vt 32 -17
vt 14 -17
vt 14 -8
vt 32 -8
vt 32 -23
vt 14 -23
vt 14 -22
vt 32 -22
vt 12.36504 -21
vt 12.36504 -17
vt 30.80412 -21
vt 30.80412 -17
vt 38 -22
vt 37 -22
vt 37 -14
vt 38 -14
vt 32 -22
vt 32 -14
vt 37 -13
vt 38 -13
vt 32 -13
vt 32 -8
vt 37 -8
vt 31.94896 -8
vt 13.86625 -8
vt 13.86625 -1
vt 31.94896 -1
vt 32 -1
vt 37 -1
vt 13.86625 -17
vt 11.86673 -17
vt 11.86673 -8
vt 13.86625 -8
vt -0.1304381 -17
vt -0.1304381 -8
vt 13.86625 -22
vt 11.86673 -22
vt 11.86673 -21
vt 13.86625 -21
vt -0.1304381 -22
vt -0.1304381 -21
vt 11.86673 -1
vt 13.86625 -1
vt -0.1304381 -1
vt -0.1304381 0
vt 11.86673 0
vt 33 16
vt 13 16
vt 33 18
vt 13 18
vt -13 16
vt -33 16
vt -13 18
vt -33 18
vt 32 -8
vt 14 -8
vt 33 -7
vt 13 -7
vt 14 -23
vt 32 -23
vt 13 -24
vt 33 -24
vt -32 18
vt -14 18
vt -32 16
vt -14 16
vt 14 18
vt 32 18
vt 14 16
vt 32 16
vt 17 18
vt 7 16
vt 7 18
vt 17 16
vt -7 16
vt -17 16
vt -17 18
vt -7 18
vt -24 16
vt -24 18
vt 14 -17
vt 13 -17
vt 33 -17
vt 32 -17
vt -8 16
vt -17 16
vt -17 18
vt -8 18
vt 17 18
vt 8 16
vt 8 18
vt 17 16
vt 22 18
vt 22 16
vt 24 18
vt 24 16
vt 13 -22
vt 14 -22
vt -22 16
vt -22 18
vt -23 16
vt -23 18
vt 23 18
vt 22 16
vt 23 16
vt 38 -13
vt 37 -13
vt 37 -8
vt 38 -8
vt 30.47742 -1
vt 12.03833 -1
vt 12.03833 0
vt 30.47742 0
vt 37 -1
vt 32.10977 -1
vt 32.10977 0
vt 37 0
vt 38 -1
vt 38 0
vt 14.10977 -1
vt 12 -1
vt 12 0
vt 14.10977 0
vt 32 2
vt 14 6
vt 32.10977 4
vt 14.10977 8
vt -12 6
vt -14 6
vt -12 8
vt -14.10977 8
vt 0 2
vt -1 2
vt 0 4
vt -1 4
vt -32 2
vt -32.10977 4
vt 12 6
vt 12 8
vt 1 6
vt 0 6
vt 1 8
vt 0 8
vt 37 2
vt 37 4
vt -37 2
vt -37 4
vt 38 2
vt 37 2
vt 38 4
vt 37 4
vt -38 2
vt -38 4
vt 8 2
vt 1 2
vt 8 4
vt 1 4
vt -8 2
vt -8 4
vt 13 2
vt 13 4
vt -13 2
vt -13 4
g submesh0
f 1/1/1 2/2/2 3/3/3
f 4/4/4 1/1/1 3/3/3
f 5/5/5 6/6/6 7/7/7
f 5/5/5 8/8/8 6/6/6
f 9/9/9 10/10/10 11/11/11
f 9/9/9 12/12/12 10/10/10
f 13/13/13 14/14/14 15/15/15
f 16/16/16 13/13/13 15/15/15
f 17/17/17 18/18/18 19/19/19
f 18/18/18 20/20/20 19/19/19
f 21/21/21 22/22/22 23/23/23
f 22/22/22 24/24/24 23/23/23
f 25/25/25 26/26/26 27/27/27
f 26/26/26 28/28/28 27/27/27
f 29/29/29 30/30/30 31/31/31
f 30/30/30 32/32/32 31/31/31
f 33/33/33 34/34/34 35/35/35
f 34/34/34 36/36/36 35/35/35
f 37/37/37 38/38/38 39/39/39
f 40/40/40 37/37/37 39/39/39
f 41/41/41 42/42/42 43/43/43
f 41/41/41 44/44/44 42/42/42
f 45/45/45 46/46/46 47/47/47
f 45/45/45 48/48/48 46/46/46
f 30/30/30 49/49/49 32/32/32
f 30/30/30 50/50/50 49/49/49
f 31/31/31 51/51/51 29/29/29
f 51/51/51 52/52/52 29/29/29
f 38/38/38 53/53/53 54/54/54
f 39/39/39 38/38/38 54/54/54
f 53/53/53 55/55/55 56/56/56
f 54/54/54 53/53/53 56/56/56
f 57/57/57 44/44/44 41/41/41
f 57/57/57 58/58/58 44/44/44
f 59/59/59 58/58/58 57/57/57
f 59/59/59 60/60/60 58/58/58
f 61/61/61 62/62/62 63/63/63
f 61/61/61 64/64/64 62/62/62
f 48/48/48 63/63/63 46/46/46
f 48/48/48 61/61/61 63/63/63
f 49/49/49 50/50/50 65/65/65
f 49/49/49 65/65/65 35/35/35
f 65/65/65 33/33/33 35/35/35
f 66/66/66 34/34/34 67/67/67
f 66/66/66 36/36/36 34/34/34
f 51/51/51 67/67/67 52/52/52
f 51/51/51 66/66/66 67/67/67
f 68/68/68 69/69/69 70/70/70
f 68/68/68 71/71/71 69/69/69
f 72/72/72 73/73/73 74/74/74
f 72/72/72 75/75/75 73/73/73
f 76/76/76 77/77/77 78/78/78
f 79/79/79 76/76/76 78/78/78
f 79/79/79 78/78/78 80/80/80
f 81/81/81 79/79/79 80/80/80
f 82/82/82 83/83/83 84/84/84
f 82/82/82 85/85/85 83/83/83
f 86/86/86 84/84/84 87/87/87
f 86/86/86 82/82/82 84/84/84
f 40/40/40 39/39/39 88/88/88
f 89/89/89 40/40/40 88/88/88
f 89/89/89 88/88/88 90/90/90
f 91/91/91 89/89/89 90/90/90
f 92/92/92 82/82/82 86/86/86
f 92/92/92 93/93/93 82/82/82
f 94/94/94 95/95/95 93/93/93
f 94/94/94 96/96/96 95/95/95
f 97/97/97 93/93/93 92/92/92
f 97/97/97 94/94/94 93/93/93
f 88/88/88 98/98/98 99/99/99
f 90/90/90 88/88/88 99/99/99
f 54/54/54 56/56/56 100/100/100
f 98/98/98 54/54/54 100/100/100
f 98/98/98 100/100/100 101/101/101
f 99/99/99 98/98/98 101/101/101
f 102/102/102 103/103/103 104/104/104
f 103/103/103 105/105/105 104/104/104
f 106/106/106 107/107/107 108/108/108
f 107/107/107 109/109/109 108/108/108
f 110/110/110 111/111/111 112/112/112
f 111/111/111 113/113/113 112/112/112
f 114/114/114 8/8/8 115/115/115
f 114/114/114 116/116/116 8/8/8
f 22/22/22 116/116/116 114/114/114
f 22/22/22 21/21/21 116/116/116
f 2/2/2 117/117/117 118/118/118
f 3/3/3 2/2/2 118/118/118
f 117/117/117 119/119/119 120/120/120
f 118/118/118 117/117/117 120/120/120
f 121/121/121 18/18/18 17/17/17
f 121/121/121 122/122/122 18/18/18
f 123/123/123 122/122/122 121/121/121
f 123/123/123 62/62/62 122/122/122
f 124/124/124 125/125/125 126/126/126
f 124/124/124 127/127/127 125/125/125
f 11/11/11 127/127/127 124/124/124
f 11/11/11 10/10/10 127/127/127
f 128/128/128 129/129/129 130/130/130
f 131/131/131 128/128/128 130/130/130
f 129/129/129 132/132/132 133/133/133
f 130/130/130 129/129/129 133/133/133
f 134/134/134 17/17/17 135/135/135
f 134/134/134 121/121/121 17/17/17
f 136/136/136 135/135/135 137/137/137
f 136/136/136 134/134/134 135/135/135
f 138/138/138 121/121/121 134/134/134
f 138/138/138 123/123/123 121/121/121
f 47/47/47 134/134/134 136/136/136
f 47/47/47 138/138/138 134/134/134
f 139/139/139 140/140/140 141/141/141
f 142/142/142 139/139/139 141/141/141
f 140/140/140 128/128/128 131/131/131
f 141/141/141 140/140/140 131/131/131
f 143/143/143 144/144/144 145/145/145
f 143/143/143 146/146/146 144/144/144
f 43/43/43 146/146/146 143/143/143
f 43/43/43 42/42/42 146/146/146
f 147/147/147 47/47/47 148/148/148
f 147/147/147 45/45/45 47/47/47
f 149/149/149 148/148/148 150/150/150
f 149/149/149 147/147/147 148/148/148
f 148/148/148 136/136/136 151/151/151
f 148/148/148 47/47/47 136/136/136
f 150/150/150 151/151/151 152/152/152
f 150/150/150 148/148/148 151/151/151
f 151/151/151 137/137/137 153/153/153
f 151/151/151 136/136/136 137/137/137
f 152/152/152 153/153/153 154/154/154
f 152/152/152 151/151/151 153/153/153
f 155/155/155 156/156/156 157/157/157
f 158/158/158 155/155/155 157/157/157
f 156/156/156 1/1/1 4/4/4
f 157/157/157 156/156/156 4/4/4
f 159/159/159 160/160/160 161/161/161
f 159/159/159 162/162/162 160/160/160
f 7/7/7 162/162/162 159/159/159
f 7/7/7 6/6/6 162/162/162
f 163/163/163 48/48/48 45/45/45
f 163/163/163 164/164/164 48/48/48
f 165/165/165 164/164/164 163/163/163
f 165/165/165 166/166/166 164/164/164
f 167/167/167 64/64/64 61/61/61
f 167/167/167 168/168/168 64/64/64
f 169/169/169 168/168/168 167/167/167
f 169/169/169 170/170/170 168/168/168
f 164/164/164 61/61/61 48/48/48
f 164/164/164 167/167/167 61/61/61
f 166/166/166 167/167/167 164/164/164
f 166/166/166 169/169/169 167/167/167
f 171/171/171 45/45/45 147/147/147
f 171/171/171 163/163/163 45/45/45
f 172/172/172 163/163/163 171/171/171
f 172/172/172 165/165/165 163/163/163
f 173/173/173 147/147/147 149/149/149
f 173/173/173 171/171/171 147/147/147
f 174/174/174 171/171/171 173/173/173
f 174/174/174 172/172/172 171/171/171
g submesh1
f 175/175/175 176/176/176 177/177/177
f 176/176/176 178/178/178 177/177/177
f 179/179/179 180/180/180 181/181/181
f 182/182/182 179/179/179 181/181/181
f 183/183/183 184/184/184 185/185/185
f 186/186/186 183/183/183 185/185/185
f 186/186/186 185/185/185 180/180/180
f 179/179/179 186/186/186 180/180/180
f 187/187/187 188/188/188 189/189/189
f 188/188/188 190/190/190 189/189/189
f 191/191/191 192/192/192 193/193/193
f 194/194/194 191/191/191 193/193/193
f 192/192/192 195/195/195 196/196/196
f 193/193/193 192/192/192 196/196/196
f 194/194/194 193/193/193 197/197/197
f 198/198/198 194/194/194 197/197/197
f 193/193/193 196/196/196 199/199/199
f 197/197/197 193/193/193 199/199/199
f 197/197/197 199/199/199 200/200/200
f 201/201/201 197/197/197 200/200/200
f 202/202/202 203/203/203 204/204/204
f 205/205/205 202/202/202 204/204/204
f 201/201/201 200/200/200 206/206/206
f 207/207/207 201/201/201 206/206/206
f 208/208/208 209/209/209 210/210/210
f 211/211/211 208/208/208 210/210/210
f 209/209/209 212/212/212 213/213/213
f 210/210/210 209/209/209 213/213/213
f 214/214/214 215/215/215 216/216/216
f 217/217/217 214/214/214 216/216/216
f 215/215/215 218/218/218 219/219/219
f 216/216/216 215/215/215 219/219/219
f 217/217/217 216/216/216 209/209/209
f 208/208/208 217/217/217 209/209/209
f 216/216/216 219/219/219 212/212/212
f 209/209/209 216/216/216 212/212/212
f 211/211/211 210/210/210 220/220/220
f 221/221/221 211/211/211 220/220/220
f 210/210/210 213/213/213 222/222/222
f 220/220/220 210/210/210 222/222/222
f 220/220/220 222/222/222 223/223/223
f 224/224/224 220/220/220 223/223/223
g submesh2
f 225/225/225 226/226/226 227/227/227
f 226/226/226 228/228/228 227/227/227
f 229/229/229 230/230/230 231/231/231
f 230/230/230 232/232/232 231/231/231
f 233/233/233 234/234/234 235/235/235
f 234/234/234 236/236/236 235/235/235
f 237/237/237 238/238/238 239/239/239
f 238/238/238 240/240/240 239/239/239
f 241/241/241 242/242/242 243/243/243
f 242/242/242 244/244/244 243/243/243
f 245/245/245 246/246/246 247/247/247
f 246/246/246 248/248/248 247/247/247
f 249/249/249 250/250/250 251/251/251
f 249/249/249 252/252/252 250/250/250
f 253/253/253 254/254/254 255/255/255
f 256/256/256 253/253/253 255/255/255
f 254/254/254 257/257/257 258/258/258
f 255/255/255 254/254/254 258/258/258
f 234/234/234 259/259/259 260/260/260
f 234/234/234 260/260/260 236/236/236
f 240/240/240 238/238/238 261/261/261
f 238/238/238 262/262/262 261/261/261
f 261/261/261 262/262/262 233/233/233
f 235/235/235 261/261/261 233/233/233
f 263/263/263 264/264/264 265/265/265
f 266/266/266 263/263/263 265/265/265
f 267/267/267 268/268/268 269/269/269
f 267/267/267 270/270/270 268/268/268
f 271/271/271 252/252/252 249/249/249
f 271/271/271 272/272/272 252/252/252
f 273/273/273 272/272/272 271/271/271
f 273/273/273 274/274/274 272/272/272
f 237/237/237 239/239/239 275/275/275
f 276/276/276 237/237/237 275/275/275
f 276/276/276 275/275/275 260/260/260
f 259/259/259 276/276/276 260/260/260
f 264/264/264 277/277/277 278/278/278
f 265/265/265 264/264/264 278/278/278
f 277/277/277 279/279/279 280/280/280
f 278/278/278 277/277/277 280/280/280
f 281/281/281 282/282/282 267/267/267
f 282/282/282 270/270/270 267/267/267
f 281/281/281 283/283/283 282/282/282
g submesh3
f 284/284/284 285/285/285 286/286/286
f 287/287/287 284/284/284 286/286/286
f 288/288/288 289/289/289 290/290/290
f 291/291/291 288/288/288 290/290/290
f 292/292/292 293/293/293 294/294/294
f 295/295/295 292/292/292 294/294/294
f 287/287/287 286/286/286 292/292/292
f 296/296/296 287/287/287 292/292/292
f 296/296/296 292/292/292 295/295/295
f 297/297/297 296/296/296 295/295/295
f 298/298/298 299/299/299 300/300/300
f 301/301/301 298/298/298 300/300/300
f 302/302/302 303/303/303 304/304/304
f 303/303/303 305/305/305 304/304/304
f 306/306/306 307/307/307 308/308/308
f 307/307/307 309/309/309 308/308/308
f 310/310/310 311/311/311 312/312/312
f 311/311/311 313/313/313 312/312/312
f 307/307/307 314/314/314 309/309/309
f 314/314/314 315/315/315 309/309/309
f 303/303/303 316/316/316 305/305/305
f 316/316/316 317/317/317 305/305/305
f 318/318/318 319/319/319 320/320/320
f 319/319/319 321/321/321 320/320/320
f 322/322/322 302/302/302 323/323/323
f 302/302/302 304/304/304 323/323/323
f 314/314/314 324/324/324 315/315/315
f 324/324/324 325/325/325 315/315/315
f 326/326/326 327/327/327 328/328/328
f 327/327/327 329/329/329 328/328/328
f 324/324/324 330/330/330 325/325/325
f 330/330/330 331/331/331 325/325/325
f 332/332/332 333/333/333 334/334/334
f 333/333/333 335/335/335 334/334/334
f 311/311/311 336/336/336 313/313/313
f 336/336/336 337/337/337 313/313/313
f 338/338/338 332/332/332 339/339/339
f 332/332/332 334/334/334 339/339/339
f 336/336/336 340/340/340 337/337/337
f 340/340/340 341/341/341 337/337/337
