v 0 1.75 0
v 2 1.75 0
v 0 2 0
v 2 2 0
v 2 1.75 0
v 1.999971 4.75 -10.00001
v 2 2 0
v 1.999971 5 -10.00001
v 1.999971 4.75 -10.00001
v -2.914667E-05 4.75 -10
v 1.999971 5 -10.00001
v -2.914667E-05 5 -10
v -2.914667E-05 4.75 -10
v 0 1.75 0
v -2.914667E-05 5 -10
v 0 2 0
v 0 2 0
v 2 2 0
v -2.914667E-05 5 -10
v 1.999971 5 -10.00001
v -2.914667E-05 4.75 -10
v 1.999971 4.75 -10.00001
v 0 1.75 0
v 2 1.75 0
vn 0 0 1
vn 0 0 1
vn 0 0 1
vn 0 0 1
vn 1 0 -2.908705E-06
vn 1 0 -2.908705E-06
vn 1 0 -2.908705E-06
vn 1 0 -2.908705E-06
vn -2.861023E-06 0 -1
vn -2.861023E-06 0 -1
vn -2.861023E-06 0 -1
vn -2.861023E-06 0 -1
vn -1 0 2.914667E-06
vn -1 0 2.914667E-06
vn -1 0 2.914667E-06
vn -1 0 2.914667E-06
vn 0 0.9578263 0.2873479
vn 4.110542E-07 0.9578263 0.2873478
vn 4.110542E-07 0.9578263 0.2873478
vn 8.221084E-07 0.9578263 0.2873477
vn -8.221089E-07 -0.9578263 -0.2873479
vn -4.110544E-07 -0.9578263 -0.2873478
vn -4.110544E-07 -0.9578263 -0.2873478
vn 0 -0.9578263 -0.2873477
vt 0 1.75
vt -2 1.75
vt 0 2
vt -2 2
vt 5.81741E-06 1.75
vt -10 4.75
vt 5.81741E-06 2
vt -10 5
vt 2 4.75
vt -5.364418E-07 4.75
vt 2 5
vt -5.364418E-07 5
vt 10 4.75
vt 0 1.75
vt 10 5
vt 0 2
vt 0 -0.5746958
vt 2 -0.5746958
vt -2.914667E-05 -11.015
vt 1.999971 -11.01501
vt 3.322363E-05 -10.94317
vt -1.999967 -10.94317
vt 1.502037E-06 -0.5028588
vt -1.999998 -0.5028593
g submesh0
f 1/1/1 2/2/2 3/3/3
f 2/2/2 4/4/4 3/3/3
f 5/5/5 6/6/6 7/7/7
f 6/6/6 8/8/8 7/7/7
f 9/9/9 10/10/10 11/11/11
f 10/10/10 12/12/12 11/11/11
f 13/13/13 14/14/14 15/15/15
f 14/14/14 16/16/16 15/15/15
f 17/17/17 18/18/18 19/19/19
f 18/18/18 20/20/20 19/19/19
f 21/21/21 22/22/22 23/23/23
f 22/22/22 24/24/24 23/23/23
