v -3.999933 -1 -2.00007
v 6.678983E-05 -1 -2.000084
v -4.000034 -1 0.9999317
v -3.415077E-05 -1 0.9999194
v -4.000034 -1 0.9999317
v -3.415077E-05 -1 0.9999194
v -3.415077E-05 1 0.9999194
v -4.000034 1 0.9999317
v -3.415077E-05 -1 0.9999194
v 6.678983E-05 -1 -2.000084
v 6.678983E-05 1 -2.000084
v -3.415077E-05 1 0.9999194
v 6.678284E-05 3 -1.999876
v 0.0001677234 1 -4.999878
v -3.999832 -1 -5.000324
v -3.999832 1 -5.000324
v 0.0001677234 -1 -4.999878
v 0.0001677234 5 -4.999878
v -3.999832 5 -5.000324
v -5.999933 1 -2.000202
v -9.000034 -1 0.9996967
v -9.000034 1 0.9996967
v -5.999933 -1 -2.000202
v -5.999933 3 -2.000202
v -5.999933 1 -2.000202
v -5.999933 3 -2.000202
v -5.999933 1 -2.000202
v -5.999933 3 -2.000202
v -5.999933 5 -2.000202
v -5.999933 1 -2.000202
v -3.999933 3 -2.00032
v 6.678284E-05 3 -1.999876
v -3.999832 5 -5.000324
v 0.0001677234 5 -4.999878
v 0.0001677234 5 -4.999878
v 0.0001677234 1 -4.999878
v 0.0001677234 -1 -4.999878
v -5.999933 -1 -2.000202
v -5.999933 1 -2.000202
v -5.999933 -1 -2.000202
v -5.999933 1 -2.000202
v -5.999933 1 -2.000202
v -5.999933 -1 -2.000202
v 0.0001677234 -1 -4.999878
v -3.999832 -1 -5.000324
v -3.999832 1 -5.000324
v -3.999832 -1 -5.000324
v -5.999933 1 -2.000202
v -5.999933 -1 -2.000202
v -3.999933 3 -2.00032
v -3.999832 5 -5.000324
v -5.999933 3 -2.000202
v -5.999933 5 -2.000202
v -3.999832 5 -5.000324
v -5.999933 5 -2.000202
v -5.999933 -1 -2.000202
v -9.000034 -1 0.9996967
v -3.999933 -1 -2.00007
v -5.999933 -1 -2.000202
v -3.999933 -1 -2.00007
v -5.999933 -1 -2.000202
v -5.999933 -1 -2.000202
v -4.000034 -1 0.9999317
v -4.000034 1 0.9999317
v -9.000034 -1 0.9996967
v -9.000034 1 0.9996967
v -4.000034 1 0.9999317
v -3.415077E-05 1 0.9999194
v -3.999933 3 -2.00032
v 6.678284E-05 3 -1.999876
v -3.999933 3 -2.00032
v -9.000034 1 0.9996967
v -5.999933 3 -2.000202
vn 0 -1 0
vn 0 -1 0
vn 0 -1 0
vn 0 -1 0
vn 3.069639E-06 0 1
vn 3.069639E-06 0 1
vn 3.069639E-06 0 1
vn 3.069639E-06 0 1
vn 1 0 3.364682E-05
vn 1 0 3.364682E-05
vn 1 0 3.364682E-05
vn 1 0 3.364682E-05
vn 1 2.131538E-12 3.364682E-05
vn 0.0001113415 0 -1
vn 0.0001113415 0 -1
vn 0.0001113415 0 -1
vn 0.0001113415 0 -1
vn 0.0001113415 0 -1
vn 0.0001113415 0 -1
vn -0.707083 0 -0.7071306
vn -0.707083 0 -0.7071306
vn -0.707083 0 -0.7071306
vn -0.707083 0 -0.7071306
vn -0.707083 0 -0.7071306
vn 0 0 0
vn 0 0 0
vn 0 0 0
vn 0 0 0
vn 0 0 0
vn 0 0 0
vn -6.152965E-05 0.8320506 0.5546998
vn -6.164538E-05 0.8320506 0.5546999
vn -6.164538E-05 0.8320506 0.5546999
vn -6.176111E-05 0.8320505 0.5547
vn 1 -7.531458E-13 3.364682E-05
vn 1 0 3.364682E-05
vn 1 0 3.364682E-05
vn 0 0 0
vn 0 0 0
vn 0 0 0
vn 0 0 0
vn 0 0 0
vn 0 0 0
vn 0 -1 0
vn 0 -1 0
vn -0.8320477 0 -0.5547041
vn -0.8320477 0 -0.5547041
vn -0.8320477 0 -0.5547041
vn -0.8320477 0 -0.5547041
vn 3.266593E-05 0.8320506 0.5546998
vn 0.4160402 0.4160253 0.5547019
vn 0.4160402 0.4160253 0.5547019
vn 0.8320477 0 0.5547041
vn -0.8320477 0 -0.5547041
vn -0.8320477 0 -0.5547041
vn 0 -1 0
vn 0 -1 0
vn 0 -0.5 0
vn 0 -0.5 0
vn 0 -0.5 0
vn 0 0 0
vn 0 -0.5 0
vn -4.700422E-05 0 1
vn -4.700422E-05 0 1
vn -4.700422E-05 0 1
vn -4.700422E-05 0 1
vn 1.70263E-06 0.8320718 0.5546679
vn -2.991498E-05 0.8320524 0.5546972
vn -2.991498E-05 0.8320524 0.5546972
vn -6.15326E-05 0.8320329 0.5547263
vn 3.298155E-06 0.8320491 0.5547018
vn 3.298155E-06 0.8320491 0.5547018
vn 3.266805E-05 0.8320266 0.5547357
vt 3.999933 -2.00007
vt -6.678983E-05 -2.000084
vt 4.000034 0.9999317
vt 3.415077E-05 0.9999194
vt 4.000037 -1
vt 3.722016E-05 -1
vt 3.722016E-05 1
vt 4.000037 1
vt 0.9999194 -1
vt -2.000084 -1
vt -2.000084 1
vt 0.9999194 1
vt -1.999876 3
vt -0.0003889705 1
vt -4.000389 -1
vt -4.000389 1
vt -0.0003889705 -1
vt -0.0003889705 5
vt -4.000389 5
vt -2.828427 1
vt -7.071068 -1
vt -7.071068 1
vt -2.828427 -1
vt -2.828427 3
vt 0 0
vt 0 0
vt 0 0
vt 0 0
vt 0 0
vt 0 0
vt -3.999712 -3.328631
vt 0.0002886311 -3.328098
vt -3.999462 -6.934186
vt 0.0005374704 -6.933651
vt -4.999878 5
vt -4.999878 1
vt -4.999878 -1
vt 0 0
vt 0 0
vt 0 0
vt 0 0
vt 0 0
vt 0 0
vt -0.0001677234 -4.999878
vt 3.999832 -5.000324
vt 1.941785 1
vt 1.941785 -1
vt -1.663924 1
vt -1.663924 -1
vt -4.000051 -3.32838
vt -4.000029 -6.933934
vt -6.000051 -3.328238
vt -6.00013 -4.437638
vt 1.941785 5
vt -1.663924 5
vt 5.999933 -2.000202
vt 9.000034 0.9996967
vt 3.999933 -2.00007
vt 5.999933 -2.000202
vt 3.999933 -2.00007
vt 5.999933 -2.000202
vt 5.999933 -2.000202
vt 3.999987 -1
vt 3.999987 1
vt 8.999988 -1
vt 8.999988 1
vt -4.000036 0.2773515
vt -3.619702E-05 0.2773368
vt -3.999939 -3.328409
vt 6.064407E-05 -3.328045
vt -3.999839 -3.328483
vt -9.000003 0.276995
vt -5.999839 -3.32842
g submesh0
f 1/1/1 2/2/2 3/3/3
f 2/2/2 4/4/4 3/3/3
f 5/5/5 6/6/6 7/7/7
f 8/8/8 5/5/5 7/7/7
f 9/9/9 10/10/10 11/11/11
f 12/12/12 9/9/9 11/11/11
f 12/12/12 11/11/11 13/13/13
f 14/14/14 15/15/15 16/16/16
f 14/14/14 17/17/17 15/15/15
f 18/18/18 16/16/16 19/19/19
f 18/18/18 14/14/14 16/16/16
f 20/20/20 21/21/21 22/22/22
f 20/20/20 23/23/23 21/21/21
f 24/24/24 20/20/20 22/22/22
f 25/25/25 26/26/26 27/27/27
f 28/28/28 29/29/29 30/30/30
f 31/31/31 32/32/32 33/33/33
f 32/32/32 34/34/34 33/33/33
f 13/13/13 11/11/11 35/35/35
f 11/11/11 36/36/36 35/35/35
f 11/11/11 10/10/10 36/36/36
f 10/10/10 37/37/37 36/36/36
f 38/38/38 39/39/39 40/40/40
f 41/41/41 42/42/42 43/43/43
f 2/2/2 1/1/1 44/44/44
f 1/1/1 45/45/45 44/44/44
f 46/46/46 47/47/47 48/48/48
f 47/47/47 49/49/49 48/48/48
f 50/50/50 51/51/51 52/52/52
f 51/51/51 53/53/53 52/52/52
f 54/54/54 46/46/46 55/55/55
f 46/46/46 48/48/48 55/55/55
f 1/1/1 3/3/3 56/56/56
f 3/3/3 57/57/57 56/56/56
f 45/45/45 58/58/58 59/59/59
f 60/60/60 61/61/61 62/62/62
f 63/63/63 64/64/64 65/65/65
f 64/64/64 66/66/66 65/65/65
g submesh1
f 67/67/67 68/68/68 69/69/69
f 68/68/68 70/70/70 69/69/69
f 67/67/67 71/71/71 72/72/72
f 71/71/71 73/73/73 72/72/72
