v -8.500001 1 1.000126
v 3.999936 1 1.000054
v -8.500002 4 -1.999878
v 4.000129 4 -1.99995
v -8.500002 -2.5 -1.999874
v 4.000131 -2.5 -1.99995
v -8.499999 -2.5 2.999875
v 3.999809 -2.5 3.000257
v 3.999808 -1 3.000258
v 4.000129 -1 -1.999949
v 4.000129 1 -1.999949
v 3.999936 1 1.000054
v 4.000129 4 -1.99995
v 4.000258 1 -3.999744
v -8.500003 -1 -4.00013
v -8.500003 1 -4.00013
v 4.000258 -1 -3.999744
v 4.000258 6 -3.999745
v -8.500003 6 -4.00013
v -8.500002 1 -1.999874
v -8.499999 -1 2.999875
v -8.500001 1 1.000126
v -8.500002 -1 -1.999874
v -8.500002 4 -1.999878
v -8.500003 1 -4.00013
v -8.500003 6 -4.00013
v -8.500003 6 -4.00013
v 4.000258 6 -3.999745
v 4.000258 6 -3.999745
v 4.000258 1 -3.999744
v 4.000258 -1 -3.999744
v -8.500002 -1 -1.999874
v -8.500003 -1 -4.00013
v 4.000259 -2.5 -3.999744
v -8.500003 -2.5 -4.00013
v 4.000259 -2.5 -3.999744
v 4.000131 -2.5 -1.99995
v -8.499999 -1 2.999875
v -8.499999 -2.5 2.999875
v -8.500002 -2.5 -1.999874
v 3.999809 -2.5 3.000257
v 3.999808 -1 3.000258
v -8.499999 -1 2.999875
v 3.999809 -2.5 3.000257
v -8.499999 -2.5 2.999875
v -8.500003 -2.5 -4.00013
v -8.500003 -2.5 -4.00013
v 4.000259 -2.5 -3.999744
v -8.499999 -1 2.999875
v 3.999808 -1 3.000258
v 3.999936 1 1.000054
v -8.500001 1 1.000126
vn 4.100063E-06 0.7071073 0.7071062
vn 4.073058E-06 0.7071072 0.7071064
vn 4.073058E-06 0.7071072 0.7071064
vn 4.046053E-06 0.7071072 0.7071064
vn 0 -1 0
vn 0 -1 0
vn 0 -1 0
vn 0 -1 0
vn 1 1.820715E-07 6.430013E-05
vn 1 0 6.422731E-05
vn 1 1.820715E-07 6.430013E-05
vn 1 3.64143E-07 6.437296E-05
vn 1 1.023181E-11 6.437296E-05
vn 3.08984E-05 0 -1
vn 3.08984E-05 0 -1
vn 3.08984E-05 0 -1
vn 3.08984E-05 0 -1
vn 3.086025E-05 -9.536743E-08 -1
vn 3.082211E-05 0 -1
vn -1 -3.179115E-07 4.450624E-07
vn -1 -3.179115E-07 4.450624E-07
vn -1 -6.35823E-07 3.178914E-07
vn -1 0 5.722334E-07
vn -1 4.042198E-13 3.178914E-07
vn -1 3.031261E-13 4.767766E-07
vn -1 0 4.76777E-07
vn -8.864805E-06 0.7071109 0.7071026
vn -2.17889E-05 0.7070705 0.707143
vn 1 1.386553E-11 6.461807E-05
vn 1 1.232492E-11 6.461806E-05
vn 1 0 6.461806E-05
vn -1 0 4.767761E-07
vn -1 0 4.767761E-07
vn 0 -1 0
vn 0 -1 0
vn 1 7.947158E-07 6.449885E-05
vn 1 9.536487E-07 6.437964E-05
vn -1 0 5.722333E-07
vn -1 0 5.722333E-07
vn -1 0 5.722333E-07
vn 1 6.35742E-07 6.432267E-05
vn -3.067064E-05 -6.358024E-07 1
vn -3.063249E-05 -3.179012E-07 1
vn -3.063249E-05 -3.179012E-07 1
vn -3.059434E-05 0 1
vn -1 0 4.767761E-07
vn 3.08984E-05 9.822337E-12 -1
vn 3.08984E-05 1.964467E-11 -1
vn -8.792992E-06 0.7071026 0.7071109
vn -2.168631E-05 0.7071429 0.7070706
vn -8.792992E-06 0.7071026 0.7071109
vn 4.100324E-06 0.7070623 0.7071512
vt 8.500007 -5.540509E-05
vt -3.99993 -5.540509E-05
vt 8.49999 4.242588
vt -4.000141 4.242588
vt 8.500002 -1.999874
vt -4.000131 -1.99995
vt 8.499999 2.999875
vt -3.999809 3.000257
vt 3.000001 -1
vt -2.000206 -1
vt -2.000206 1
vt 0.9997965 1
vt -2.000207 4
vt 4.000135 1
vt -8.500127 -1
vt -8.500127 1
vt 4.000135 -1
vt 4.000135 6
vt -8.500126 6
vt 1.999877 1.000003
vt -2.999872 -0.9999973
vt -1.000123 1.000003
vt 1.999877 -0.9999973
vt 1.999881 4.000003
vt 4.000134 1
vt 4.000134 6
vt 8.49998 7.071105
vt -4.000281 7.070782
vt -4.000003 6
vt -4.000002 1
vt -4.000002 -1
vt 1.999878 -1
vt 4.000134 -1
vt -4.000259 -3.999744
vt 8.500003 -4.00013
vt -4.000002 -2.500003
vt -2.000208 -2.500003
vt -2.99987 -1
vt -2.99987 -2.5
vt 1.999879 -2.5
vt 3 -2.500004
vt -3.9999 -0.9999981
vt 8.499907 -0.9999981
vt -3.999901 -2.499998
vt 8.499907 -2.499998
vt 4.000134 -2.5
vt -8.500127 -2.5
vt 4.000136 -2.5
vt 8.499907 -2.828595
vt -3.9999 -2.828595
vt -3.999967 -2.342221E-05
vt 8.49997 -0.0003457806
g submesh0
f 1/1/1 2/2/2 3/3/3
f 2/2/2 4/4/4 3/3/3
f 5/5/5 6/6/6 7/7/7
f 6/6/6 8/8/8 7/7/7
f 9/9/9 10/10/10 11/11/11
f 12/12/12 9/9/9 11/11/11
f 12/12/12 11/11/11 13/13/13
f 14/14/14 15/15/15 16/16/16
f 14/14/14 17/17/17 15/15/15
f 18/18/18 16/16/16 19/19/19
f 18/18/18 14/14/14 16/16/16
f 20/20/20 21/21/21 22/22/22
f 20/20/20 23/23/23 21/21/21
f 24/24/24 20/20/20 22/22/22
f 20/20/20 24/24/24 25/25/25
f 24/24/24 26/26/26 25/25/25
f 3/3/3 4/4/4 27/27/27
f 4/4/4 28/28/28 27/27/27
f 13/13/13 11/11/11 29/29/29
f 11/11/11 30/30/30 29/29/29
f 11/11/11 10/10/10 30/30/30
f 10/10/10 31/31/31 30/30/30
f 32/32/32 20/20/20 33/33/33
f 20/20/20 25/25/25 33/33/33
f 6/6/6 5/5/5 34/34/34
f 5/5/5 35/35/35 34/34/34
f 31/31/31 10/10/10 36/36/36
f 10/10/10 37/37/37 36/36/36
f 38/38/38 32/32/32 39/39/39
f 32/32/32 40/40/40 39/39/39
f 10/10/10 9/9/9 37/37/37
f 9/9/9 41/41/41 37/37/37
f 42/42/42 43/43/43 44/44/44
f 43/43/43 45/45/45 44/44/44
f 32/32/32 33/33/33 40/40/40
f 33/33/33 46/46/46 40/40/40
f 15/15/15 17/17/17 47/47/47
f 17/17/17 48/48/48 47/47/47
g submesh1
f 49/49/49 50/50/50 51/51/51
f 52/52/52 49/49/49 51/51/51
