v 2 0 2
v 2 0 0
v 2 8 0
v 2 8 2
v 2 0 -10
v 2 8 -10
v -2 8 -10
v -2 0 0
v -2 8 0
v -2 0 -10
v -2 8 0
v 0 0 2
v 0 8 2
v -2 0 0
v 0 0 2
v 2 0 2
v 2 8 2
v 0 8 2
v 2 8 -10
v 0 0 -10
v 0 8 -10
v 2 0 -10
v -2 0 -10
v -2 8 -10
v 0 0 0
v 2 0 -10
v 2 0 0
v 0 0 -10
v -2 0 0
v -2 0 -10
v 0 0 2
v 2 0 2
v 2 8 0
v 0 8 0
v 0 8 2
v 2 8 2
v -2 8 0
v 2 8 -10
v 0 8 -10
v -2 8 -10
vn 1 0 0
vn 1 0 0
vn 1 0 0
vn 1 0 0
vn 1 0 0
vn 1 0 0
vn -1 0 0
vn -1 0 0
vn -1 0 0
vn -1 0 0
vn -0.7071068 0 0.7071068
vn -0.7071068 0 0.7071068
vn -0.7071068 0 0.7071068
vn -0.7071068 0 0.7071068
vn 0 0 1
vn 0 0 1
vn 0 0 1
vn 0 0 1
vn 0 0 -1
vn 0 0 -1
vn 0 0 -1
vn 0 0 -1
vn 0 0 -1
vn 0 0 -1
vn 0 -1 0
vn 0 -1 0
vn 0 -1 0
vn 0 -1 0
vn 0 -1 0
vn 0 -1 0
vn 0 -1 0
vn 0 -1 0
vn 0 1 0
vn 0 1 0
vn 0 1 0
vn 0 1 0
vn 0 1 0
vn 0 1 0
vn 0 1 0
vn 0 1 0
vt 2 0
vt 0 0
vt 0 8
vt 2 8
vt -10 0
vt -10 8
vt 10.00416 8
vt 0.7653669 0
vt 0.7653669 8
vt 10.00416 0
vt 0.7653669 8
vt -1.847759 0
vt -1.847759 8
vt 0.7653669 0
vt 0 0
vt -2 0
vt -2 8
vt 0 8
vt 2 8
vt 0 0
vt 0 8
vt 2 0
vt -2 0
vt -2 8
vt 0 0
vt -2 -10
vt -2 0
vt 0 -10
vt 2 0
vt 2 -10
vt 0 2
vt -2 2
vt 2 0
vt 0 0
vt 0 2
vt 2 2
vt -2 0
vt 2 -10
vt 0 -10
vt -2 -10
g submesh0
f 1/1/1 2/2/2 3/3/3
f 4/4/4 1/1/1 3/3/3
f 2/2/2 5/5/5 6/6/6
f 3/3/3 2/2/2 6/6/6
f 7/7/7 8/8/8 9/9/9
f 7/7/7 10/10/10 8/8/8
f 11/11/11 12/12/12 13/13/13
f 11/11/11 14/14/14 12/12/12
f 15/15/15 16/16/16 17/17/17
f 18/18/18 15/15/15 17/17/17
f 19/19/19 20/20/20 21/21/21
f 19/19/19 22/22/22 20/20/20
f 21/21/21 23/23/23 24/24/24
f 21/21/21 20/20/20 23/23/23
f 25/25/25 26/26/26 27/27/27
f 25/25/25 28/28/28 26/26/26
f 29/29/29 28/28/28 25/25/25
f 29/29/29 30/30/30 28/28/28
f 31/31/31 27/27/27 32/32/32
f 31/31/31 25/25/25 27/27/27
f 31/31/31 29/29/29 25/25/25
g submesh1
f 33/33/33 34/34/34 35/35/35
f 36/36/36 33/33/33 35/35/35
f 34/34/34 37/37/37 35/35/35
f 38/38/38 39/39/39 34/34/34
f 33/33/33 38/38/38 34/34/34
f 39/39/39 40/40/40 37/37/37
f 34/34/34 39/39/39 37/37/37
