v 0.7500001 -9 0.1249998
v 1 -9 0.1249997
v 0.7500001 9 0.1250002
v 1 9 0.1249992
v 1 -9 0.1249997
v 0.9999999 -9 -0.1250003
v 1 9 0.1249992
v 1.000001 9 -0.1250008
v 0.9999999 -9 -0.1250003
v 0.7499999 -9 -0.1250002
v 1.000001 9 -0.1250008
v 0.750001 9 -0.1249998
v -1 -9 -0.1249995
v -0.9999999 -9 0.1250005
v -0.9999992 9 -0.1250001
v -1 9 0.1249999
v 0.7500001 9 0.1250002
v 1 9 0.1249992
v 0.750001 9 -0.1249998
v 1.000001 9 -0.1250008
v 0.7499999 -9 -0.1250002
v 0.9999999 -9 -0.1250003
v 0.7500001 -9 0.1249998
v 1 -9 0.1249997
v -0.7500001 -9 -0.1249996
v -0.7499999 -9 0.1250004
v -1 -9 -0.1249995
v -0.9999999 -9 0.1250005
v -0.7499992 9 -0.1249993
v -0.7500001 -9 -0.1249996
v -0.9999992 9 -0.1250001
v -1 -9 -0.1249995
v -0.7499999 -9 0.1250004
v -0.7500001 9 0.1250008
v -0.9999999 -9 0.1250005
v -1 9 0.1249999
v -0.7500001 9 0.1250008
v -0.7499992 9 -0.1249993
v -1 9 0.1249999
v -0.9999992 9 -0.1250001
v 0.7500001 -9 0.1249998
v 0.7500001 9 0.1250002
v 0.7499999 -9 -0.1250002
v 0.750001 9 -0.1249998
v -0.7500001 9 0.1250008
v -0.7499999 -9 0.1250004
v -0.7499992 9 -0.1249993
v -0.7500001 -9 -0.1249996
v 0.75 -9 -1.639128E-07
v 0.7500005 9 2.086163E-07
v -0.75 -9 3.72529E-07
v -0.7499996 9 7.450581E-07
vn 3.576278E-07 -2.15239E-08 1
vn 2.264976E-06 4.967039E-09 1
vn 2.264976E-06 4.967039E-09 1
vn 4.172323E-06 3.145798E-08 1
vn 1 -6.622761E-09 -7.152557E-07
vn 1 -3.476934E-08 1.311302E-06
vn 1 -3.476934E-08 1.311302E-06
vn 1 -6.291591E-08 3.33786E-06
vn -3.576279E-07 -3.311367E-08 -1
vn -2.264976E-06 -6.622602E-09 -1
vn -2.264976E-06 -6.622602E-09 -1
vn -4.172324E-06 1.986846E-08 -1
vn -1 4.304781E-08 2.384186E-07
vn -1 1.986817E-08 -1.430511E-06
vn -1 1.986817E-08 -1.430511E-06
vn -1 -3.311467E-09 -3.099441E-06
vn 0 1 0
vn 0 1 0
vn 0 1 0
vn 0 1 0
vn 0 -1 0
vn 0 -1 0
vn 0 -1 0
vn 0 -1 0
vn 0 -1 0
vn 0 -1 0
vn 0 -1 0
vn 0 -1 0
vn 3.457069E-06 1.986805E-08 -1
vn 1.549721E-06 -6.622811E-09 -1
vn 1.549721E-06 -6.622811E-09 -1
vn -3.57628E-07 -3.311368E-08 -1
vn 3.576279E-07 -2.15239E-08 1
vn -1.549721E-06 4.967049E-09 1
vn -1.549721E-06 4.967049E-09 1
vn -3.45707E-06 3.145799E-08 1
vn 0 1 0
vn 0 1 0
vn 0 1 0
vn 0 1 0
vn -1 3.311359E-09 4.768372E-07
vn -1 3.145804E-08 -1.549721E-06
vn -1 3.145804E-08 -1.549721E-06
vn -1 5.960472E-08 -3.576278E-06
vn 1 6.622666E-09 3.33786E-06
vn 1 -1.986825E-08 1.430511E-06
vn 1 -1.986825E-08 1.430511E-06
vn 1 -4.635916E-08 -4.768372E-07
vn 3.576279E-07 -2.069607E-08 1
vn 3.576278E-07 -2.069607E-08 1
vn 3.576278E-07 -2.069607E-08 1
vn 3.576278E-07 -2.069606E-08 1
vt -0.75 -9
vt -1 -9
vt -0.7500001 9
vt -1 9
vt -2 -9
vt -2.25 -9
vt -2 9
vt -2.25 9
vt 1 -9
vt 0.75 -9
vt 1.000001 9
vt 0.7500011 9
vt 2.25 -9
vt 2 -9
vt 2.25 9
vt 2 9
vt 0.7500001 -2
vt 1 -2.000001
vt 0.750001 -2.25
vt 1.000001 -2.250001
vt -0.7499999 -2.25
vt -0.9999999 -2.25
vt -0.7500001 -2
vt -1 -2
vt 0.7500001 -2.25
vt 0.7499999 -2
vt 1 -2.25
vt 0.9999999 -2
vt -0.7499996 9
vt -0.7500005 -9
vt -0.9999996 9
vt -1 -9
vt 0.75 -9
vt 0.7500001 9
vt 1 -9
vt 1 9
vt -0.7500001 -1.999999
vt -0.7499992 -2.249999
vt -1 -2
vt -0.9999992 -2.25
vt 2 -9
vt 1.999999 9
vt 2.25 -9
vt 2.25 9
vt -1.999997 9
vt -1.999997 -9
vt -2.249997 9
vt -2.249997 -9
vt -0.75 -9
vt -0.7500005 9
vt 0.75 -9
vt 0.7499996 9
g submesh0
f 1/1/1 2/2/2 3/3/3
f 2/2/2 4/4/4 3/3/3
f 5/5/5 6/6/6 7/7/7
f 6/6/6 8/8/8 7/7/7
f 9/9/9 10/10/10 11/11/11
f 10/10/10 12/12/12 11/11/11
f 13/13/13 14/14/14 15/15/15
f 14/14/14 16/16/16 15/15/15
f 17/17/17 18/18/18 19/19/19
f 18/18/18 20/20/20 19/19/19
f 21/21/21 22/22/22 23/23/23
f 22/22/22 24/24/24 23/23/23
f 25/25/25 26/26/26 27/27/27
f 26/26/26 28/28/28 27/27/27
f 29/29/29 30/30/30 31/31/31
f 30/30/30 32/32/32 31/31/31
f 33/33/33 34/34/34 35/35/35
f 34/34/34 36/36/36 35/35/35
f 37/37/37 38/38/38 39/39/39
f 38/38/38 40/40/40 39/39/39
f 41/41/41 42/42/42 43/43/43
f 42/42/42 44/44/44 43/43/43
f 45/45/45 46/46/46 47/47/47
f 46/46/46 48/48/48 47/47/47
g submesh1
f 49/49/49 50/50/50 51/51/51
f 50/50/50 52/52/52 51/51/51
