v 0.7500005 -11 0.1249996
v 1 -11 0.1249995
v 0.7500005 11 0.1249997
v 1 11 0.1249995
v 1 -11 0.1249995
v 1 -11 -0.1250005
v 1 11 0.1249995
v 1 11 -0.1250005
v 1 -11 -0.1250005
v 0.7500004 -11 -0.1250004
v 1 11 -0.1250005
v 0.7500013 11 -0.1250003
v -0.9999996 -11 -0.1249998
v -0.9999995 -11 0.1250002
v -0.9999998 11 -0.1249997
v -0.9999995 11 0.1250004
v 0.7500005 11 0.1249997
v 1 11 0.1249995
v 0.7500013 11 -0.1250003
v 1 11 -0.1250005
v 0.7500004 -11 -0.1250004
v 1 -11 -0.1250005
v 0.7500005 -11 0.1249996
v 1 -11 0.1249995
v -0.7499996 -11 -0.1249999
v -0.7499995 -11 0.1250001
v -0.9999996 -11 -0.1249998
v -0.9999995 -11 0.1250002
v -0.7499997 11 -0.1249999
v -0.7499996 -11 -0.1249999
v -0.9999998 11 -0.1249997
v -0.9999996 -11 -0.1249998
v -0.7499995 -11 0.1250001
v -0.7499995 11 0.1250001
v -0.9999995 -11 0.1250002
v -0.9999995 11 0.1250004
v -0.7499995 11 0.1250001
v -0.7499997 11 -0.1249999
v -0.9999995 11 0.1250004
v -0.9999998 11 -0.1249997
v 0.7500005 -11 0.1249996
v 0.7500005 11 0.1249997
v 0.7500004 -11 -0.1250004
v 0.7500013 11 -0.1250003
v -0.7499995 11 0.1250001
v -0.7499995 -11 0.1250001
v -0.7499997 11 -0.1249999
v -0.7499996 -11 -0.1249999
v 0.7500004 -11 -3.874302E-07
v 0.7500004 11 -2.980232E-07
v -0.7499996 -11 1.490116E-07
v -0.7499996 11 1.490116E-07
vn 3.576279E-07 -4.063953E-09 1
vn 5.662441E-07 -1.693314E-09 1
vn 5.662441E-07 -1.693314E-09 1
vn 7.748604E-07 6.773255E-10 1
vn 1 -3.22974E-16 -4.768372E-07
vn 1 -3.22974E-16 -4.768372E-07
vn 1 -3.22974E-16 -4.768372E-07
vn 1 -3.22974E-16 -4.768372E-07
vn -3.576279E-07 -6.773255E-10 -1
vn -5.662455E-07 1.693329E-09 -1
vn -5.662455E-07 1.693329E-09 -1
vn -7.748631E-07 4.063984E-09 -1
vn -1 -5.418606E-09 4.768372E-07
vn -1 -2.709306E-09 7.152557E-07
vn -1 -2.709306E-09 7.152557E-07
vn -1 -5.167583E-15 9.536743E-07
vn 0 1 0
vn 0 1 0
vn 0 1 0
vn 0 1 0
vn 0 -1 0
vn 0 -1 0
vn 0 -1 0
vn 0 -1 0
vn 0 -1 0
vn 0 -1 0
vn 0 -1 0
vn 0 -1 0
vn -7.748602E-07 -2.09933E-15 -1
vn -5.66244E-07 2.370637E-09 -1
vn -5.66244E-07 2.370637E-09 -1
vn -3.576279E-07 4.741277E-09 -1
vn 3.576279E-07 0 1
vn 5.960464E-07 -2.709302E-09 1
vn 5.960464E-07 -2.709302E-09 1
vn 8.34465E-07 -5.418604E-09 1
vn 0 1 0
vn 0 1 0
vn 0 1 0
vn 0 1 0
vn -1 -1.937844E-15 4.768372E-07
vn -1 2.031977E-08 -1.311302E-06
vn -1 2.031977E-08 -1.311302E-06
vn -1 4.063955E-08 -3.099442E-06
vn 1 0 -7.152557E-07
vn 1 1.354651E-09 -5.960464E-07
vn 1 1.354651E-09 -5.960464E-07
vn 1 2.709302E-09 -4.768372E-07
vn 3.576279E-07 -4.063953E-09 1
vn 3.278255E-07 -2.031977E-09 1
vn 3.278255E-07 -2.031977E-09 1
vn 2.980232E-07 0 1
vt -0.7500004 -11
vt -1 -11
vt -0.7500004 11
vt -1 11
vt -2 -11
vt -2.25 -11
vt -2 11
vt -2.25 11
vt 1 -11
vt 0.7500004 -11
vt 1 11
vt 0.7500013 11
vt 2.25 -11
vt 2 -11
vt 2.25 11
vt 2 11
vt 0.7500005 -2
vt 1 -2
vt 0.7500013 -2.25
vt 1 -2.25
vt -0.7500004 -2.25
vt -1 -2.25
vt -0.7500005 -2
vt -1 -2
vt 0.7499996 -2.25
vt 0.7499995 -2
vt 0.9999996 -2.25
vt 0.9999995 -2
vt -0.7499996 11
vt -0.7499995 -11
vt -0.9999996 11
vt -0.9999995 -11
vt 0.7499996 -11
vt 0.7499996 11
vt 0.9999996 -11
vt 0.9999996 11
vt -0.7499995 -2
vt -0.7499997 -2.25
vt -0.9999995 -2
vt -0.9999998 -2.25
vt 2 -11
vt 2 11
vt 2.25 -11
vt 2.25 11
vt -2 11
vt -2 -11
vt -2.25 11
vt -2.25 -11
vt -0.7500004 -11
vt -0.7500004 11
vt 0.7499996 -11
vt 0.7499996 11
g submesh0
f 1/1/1 2/2/2 3/3/3
f 2/2/2 4/4/4 3/3/3
f 5/5/5 6/6/6 7/7/7
f 6/6/6 8/8/8 7/7/7
f 9/9/9 10/10/10 11/11/11
f 10/10/10 12/12/12 11/11/11
f 13/13/13 14/14/14 15/15/15
f 14/14/14 16/16/16 15/15/15
f 17/17/17 18/18/18 19/19/19
f 18/18/18 20/20/20 19/19/19
f 21/21/21 22/22/22 23/23/23
f 22/22/22 24/24/24 23/23/23
f 25/25/25 26/26/26 27/27/27
f 26/26/26 28/28/28 27/27/27
f 29/29/29 30/30/30 31/31/31
f 30/30/30 32/32/32 31/31/31
f 33/33/33 34/34/34 35/35/35
f 34/34/34 36/36/36 35/35/35
f 37/37/37 38/38/38 39/39/39
f 38/38/38 40/40/40 39/39/39
f 41/41/41 42/42/42 43/43/43
f 42/42/42 44/44/44 43/43/43
f 45/45/45 46/46/46 47/47/47
f 46/46/46 48/48/48 47/47/47
g submesh1
f 49/49/49 50/50/50 51/51/51
f 50/50/50 52/52/52 51/51/51
