v 0.7499999 -8 0.1249998
v 0.9999999 -8 0.1249997
v 0.750001 8 0.1249999
v 1.000001 8 0.1250005
v 0.9999999 -8 0.1249997
v 0.9999998 -8 -0.1250003
v 1.000001 8 0.1250005
v 1.000002 8 -0.1249995
v 0.9999998 -8 -0.1250003
v 0.7499998 -8 -0.1250002
v 1.000002 8 -0.1249995
v 0.7500017 8 -0.1250002
v -1 -8 -0.1249995
v -1 -8 0.1250005
v -0.9999986 8 -0.1249989
v -0.9999992 8 0.1250011
v 0.750001 8 0.1249999
v 1.000001 8 0.1250005
v 0.7500017 8 -0.1250002
v 1.000002 8 -0.1249995
v 0.7499998 -8 -0.1250002
v 0.9999998 -8 -0.1250003
v 0.7499999 -8 0.1249998
v 0.9999999 -8 0.1249997
v -0.7500002 -8 -0.1249996
v -0.7500001 -8 0.1250004
v -1 -8 -0.1249995
v -1 -8 0.1250005
v -0.7499986 8 -0.1250002
v -0.7500002 -8 -0.1249996
v -0.9999986 8 -0.1249989
v -1 -8 -0.1249995
v -0.7500001 -8 0.1250004
v -0.7499992 8 0.1249998
v -1 -8 0.1250005
v -0.9999992 8 0.1250011
v -0.7499992 8 0.1249998
v -0.7499986 8 -0.1250002
v -0.9999992 8 0.1250011
v -0.9999986 8 -0.1249989
v 0.7499999 -8 0.1249998
v 0.750001 8 0.1249999
v 0.7499998 -8 -0.1250002
v 0.7500017 8 -0.1250002
v -0.7499992 8 0.1249998
v -0.7500001 -8 0.1250004
v -0.7499986 8 -0.1250002
v -0.7500002 -8 -0.1249996
v 0.7499999 -8 -1.639128E-07
v 0.7500013 8 -1.639128E-07
v -0.7500001 -8 3.72529E-07
v -0.7499989 8 -1.937151E-07
vn 3.576279E-07 -9.313466E-10 1
vn -1.102686E-06 -2.374865E-08 1
vn -1.102686E-06 -2.374865E-08 1
vn -2.562999E-06 -4.656595E-08 1
vn 1 -7.078049E-08 -4.768372E-07
vn 1 -9.68576E-08 1.192093E-06
vn 1 -9.68576E-08 1.192093E-06
vn 1 -1.229347E-07 2.861023E-06
vn -3.576279E-07 4.470353E-08 -1
vn 1.102685E-06 2.188595E-08 -1
vn 1.102685E-06 2.188595E-08 -1
vn 2.562999E-06 -9.316186E-10 -1
vn -1 9.685753E-08 4.768372E-07
vn -1 7.26432E-08 -1.072883E-06
vn -1 7.26432E-08 -1.072883E-06
vn -1 4.842887E-08 -2.622604E-06
vn 0 1 0
vn 0 1 0
vn 0 1 0
vn 0 1 0
vn 0 -1 0
vn 0 -1 0
vn 0 -1 0
vn 0 -1 0
vn 0 -1 0
vn 0 -1 0
vn 0 -1 0
vn 0 -1 0
vn -5.066395E-06 -3.632107E-08 -1
vn -2.712011E-06 4.659331E-10 -1
vn -2.712011E-06 4.659331E-10 -1
vn -3.57628E-07 3.725294E-08 -1
vn 3.57628E-07 3.445891E-08 1
vn 2.712011E-06 -2.32844E-09 1
vn 2.712011E-06 -2.32844E-09 1
vn 5.066393E-06 -3.911579E-08 1
vn 0 1 0
vn 0 1 0
vn 0 1 0
vn 0 1 0
vn -1 6.705523E-08 4.768372E-07
vn -1 9.126961E-08 -1.072883E-06
vn -1 9.126961E-08 -1.072883E-06
vn -1 1.15484E-07 -2.622604E-06
vn 1 -5.587927E-08 2.384186E-06
vn 1 -7.823106E-08 9.536742E-07
vn 1 -7.823106E-08 9.536742E-07
vn 1 -1.005829E-07 -4.768372E-07
vn 3.576279E-07 -3.197442E-14 1
vn 1.688798E-07 1.769511E-08 1
vn 1.688798E-07 1.769511E-08 1
vn -1.986821E-08 3.539026E-08 1
vt -0.7499999 -8
vt -0.9999999 -8
vt -0.750001 8
vt -1.000001 8
vt -2 -8
vt -2.25 -8
vt -1.999999 8
vt -2.249999 8
vt 0.9999999 -8
vt 0.7499999 -8
vt 1.000002 8
vt 0.7500017 8
vt 2.25 -8
vt 2 -8
vt 2.25 8
vt 1.999999 8
vt 0.750001 -2
vt 1.000001 -2
vt 0.7500017 -2.25
vt 1.000002 -2.25
vt -0.7499998 -2.25
vt -0.9999998 -2.25
vt -0.7499999 -2
vt -0.9999999 -2
vt 0.7500002 -2.25
vt 0.7500001 -2
vt 1 -2.25
vt 1 -2
vt -0.7499979 8
vt -0.7499995 -8
vt -0.9999979 8
vt -0.9999995 -8
vt 0.7500001 -8
vt 0.7499992 8
vt 1 -8
vt 0.9999993 8
vt -0.7499992 -2
vt -0.7499986 -2.25
vt -0.9999992 -1.999999
vt -0.9999986 -2.249999
vt 2 -8
vt 2 8
vt 2.25 -8
vt 2.25 8
vt -1.999998 8
vt -1.999998 -8
vt -2.249998 8
vt -2.249998 -8
vt -0.7499999 -8
vt -0.7500013 8
vt 0.7500001 -8
vt 0.7499989 8
g submesh0
f 1/1/1 2/2/2 3/3/3
f 2/2/2 4/4/4 3/3/3
f 5/5/5 6/6/6 7/7/7
f 6/6/6 8/8/8 7/7/7
f 9/9/9 10/10/10 11/11/11
f 10/10/10 12/12/12 11/11/11
f 13/13/13 14/14/14 15/15/15
f 14/14/14 16/16/16 15/15/15
f 17/17/17 18/18/18 19/19/19
f 18/18/18 20/20/20 19/19/19
f 21/21/21 22/22/22 23/23/23
f 22/22/22 24/24/24 23/23/23
f 25/25/25 26/26/26 27/27/27
f 26/26/26 28/28/28 27/27/27
f 29/29/29 30/30/30 31/31/31
f 30/30/30 32/32/32 31/31/31
f 33/33/33 34/34/34 35/35/35
f 34/34/34 36/36/36 35/35/35
f 37/37/37 38/38/38 39/39/39
f 38/38/38 40/40/40 39/39/39
f 41/41/41 42/42/42 43/43/43
f 42/42/42 44/44/44 43/43/43
f 45/45/45 46/46/46 47/47/47
f 46/46/46 48/48/48 47/47/47
g submesh1
f 49/49/49 50/50/50 51/51/51
f 50/50/50 52/52/52 51/51/51
