v 0.75 -8 0.1249999
v 1 -8 0.1249998
v 0.7500001 8 0.1249991
v 1 8 0.1249989
v 1 -8 0.1249998
v 0.9999999 -8 -0.1250002
v 1 8 0.1249989
v 0.9999999 8 -0.1250011
v 0.9999999 -8 -0.1250002
v 0.7499999 -8 -0.1250001
v 0.9999999 8 -0.1250011
v 0.7499999 8 -0.1250009
v -1 -8 -0.1249995
v -1 -8 0.1250005
v -1 8 -0.1249995
v -1 8 0.1250005
v 0.7500001 8 0.1249991
v 1 8 0.1249989
v 0.7499999 8 -0.1250009
v 0.9999999 8 -0.1250011
v 0.7499999 -8 -0.1250001
v 0.9999999 -8 -0.1250002
v 0.75 -8 0.1249999
v 1 -8 0.1249998
v -0.7500001 -8 -0.1249996
v -0.75 -8 0.1250004
v -1 -8 -0.1249995
v -1 -8 0.1250005
v -0.7500001 8 -0.1249997
v -0.7500001 -8 -0.1249996
v -1 8 -0.1249995
v -1 -8 -0.1249995
v -0.75 -8 0.1250004
v -0.7499999 8 0.1250003
v -1 -8 0.1250005
v -1 8 0.1250005
v -0.7499999 8 0.1250003
v -0.7500001 8 -0.1249997
v -1 8 0.1250005
v -1 8 -0.1249995
v 0.75 -8 0.1249999
v 0.7500001 8 0.1249991
v 0.7499999 -8 -0.1250001
v 0.7499999 8 -0.1250009
v -0.7499999 8 0.1250003
v -0.75 -8 0.1250004
v -0.7500001 8 -0.1249997
v -0.7500001 -8 -0.1249996
v 0.7499999 -8 -1.490116E-07
v 0.7500001 8 -8.791685E-07
v -0.7500001 -8 3.874302E-07
v -0.7499999 8 2.831221E-07
vn 3.576279E-07 4.56348E-08 1
vn 5.662441E-07 4.889443E-08 1
vn 5.662441E-07 4.889443E-08 1
vn 7.748604E-07 5.215406E-08 1
vn 1 -7.450605E-09 -4.768372E-07
vn 1 -5.587967E-09 -5.960464E-07
vn 1 -5.587967E-09 -5.960464E-07
vn 1 -3.725328E-09 -7.152557E-07
vn -3.576279E-07 -5.215406E-08 -1
vn -5.662441E-07 -4.889444E-08 -1
vn -5.662441E-07 -4.889444E-08 -1
vn -7.748604E-07 -4.56348E-08 -1
vn -1 -2.235174E-08 4.768372E-07
vn -1 -2.235174E-08 4.768372E-07
vn -1 -2.235174E-08 4.768372E-07
vn -1 -2.235174E-08 4.768372E-07
vn 0 1 0
vn 0 1 0
vn 0 1 0
vn 0 1 0
vn 0 -1 0
vn 0 -1 0
vn 0 -1 0
vn 0 -1 0
vn 0 -1 0
vn 0 -1 0
vn 0 -1 0
vn 0 -1 0
vn -7.748591E-07 -6.519255E-09 -1
vn -5.662434E-07 -3.259632E-09 -1
vn -5.662434E-07 -3.259632E-09 -1
vn -3.576279E-07 -7.993606E-15 -1
vn 3.576279E-07 7.450578E-09 1
vn 5.960457E-07 3.725298E-09 1
vn 5.960457E-07 3.725298E-09 1
vn 8.344634E-07 1.865171E-14 1
vn 0 1 0
vn 0 1 0
vn 0 1 0
vn 0 1 0
vn -1 7.450602E-09 4.768372E-07
vn -1 5.587963E-09 5.960464E-07
vn -1 5.587963E-09 5.960464E-07
vn -1 3.725323E-09 7.152557E-07
vn 1 -7.450587E-09 -7.152558E-07
vn 1 -5.58794E-09 -5.960464E-07
vn 1 -5.58794E-09 -5.960464E-07
vn 1 -3.725294E-09 -4.768372E-07
vn 3.576279E-07 4.56348E-08 1
vn 5.662441E-07 2.607703E-08 1
vn 5.662441E-07 2.607703E-08 1
vn 7.748604E-07 6.519252E-09 1
vt -0.7499999 -8
vt -0.9999999 -8
vt -0.7500001 8
vt -1 8
vt -2 -8
vt -2.25 -8
vt -2 8
vt -2.25 8
vt 0.9999999 -8
vt 0.7499999 -8
vt 1 8
vt 0.75 8
vt 2.25 -8
vt 2 -8
vt 2.25 8
vt 2 8
vt 0.7500001 -2.000001
vt 1 -2.000001
vt 0.7499999 -2.250001
vt 0.9999999 -2.250001
vt -0.7499999 -2.25
vt -0.9999999 -2.25
vt -0.75 -2
vt -1 -2
vt 0.7500001 -2.25
vt 0.75 -2
vt 1 -2.25
vt 1 -2
vt -0.7499999 8
vt -0.75 -8
vt -1 8
vt -1 -8
vt 0.7500001 -8
vt 0.7499999 8
vt 1 -8
vt 1 8
vt -0.7499999 -2
vt -0.7500001 -2.25
vt -1 -2
vt -1 -2.25
vt 2 -8
vt 2 8
vt 2.25 -8
vt 2.25 8
vt -2 8
vt -2 -8
vt -2.25 8
vt -2.25 -8
vt -0.7499999 -8
vt -0.7500001 8
vt 0.7500001 -8
vt 0.7499999 8
g submesh0
f 1/1/1 2/2/2 3/3/3
f 2/2/2 4/4/4 3/3/3
f 5/5/5 6/6/6 7/7/7
f 6/6/6 8/8/8 7/7/7
f 9/9/9 10/10/10 11/11/11
f 10/10/10 12/12/12 11/11/11
f 13/13/13 14/14/14 15/15/15
f 14/14/14 16/16/16 15/15/15
f 17/17/17 18/18/18 19/19/19
f 18/18/18 20/20/20 19/19/19
f 21/21/21 22/22/22 23/23/23
f 22/22/22 24/24/24 23/23/23
f 25/25/25 26/26/26 27/27/27
f 26/26/26 28/28/28 27/27/27
f 29/29/29 30/30/30 31/31/31
f 30/30/30 32/32/32 31/31/31
f 33/33/33 34/34/34 35/35/35
f 34/34/34 36/36/36 35/35/35
f 37/37/37 38/38/38 39/39/39
f 38/38/38 40/40/40 39/39/39
f 41/41/41 42/42/42 43/43/43
f 42/42/42 44/44/44 43/43/43
f 45/45/45 46/46/46 47/47/47
f 46/46/46 48/48/48 47/47/47
g submesh1
f 49/49/49 50/50/50 51/51/51
f 50/50/50 52/52/52 51/51/51
