v 36 25 -38
v 36 -25 16
v 36 25 16
v 36 -25 -38
v -36 -25 16
v -36 -25 -38
v -36 25 -38
v -36 25 16
v 36 25 24
v 36 -25 36
v 36 25 36
v 36 -25 24
v -36 -25 36
v -36 -25 24
v -36 25 24
v -36 25 36
v -28 25 36
v -36 -25 36
v -36 25 36
v -28 -25 36
v -36 -25 -38
v -28 -25 -38
v -28 25 -38
v -36 25 -38
v -36 25 16
v -28 25 -38
v -28 25 16
v -36 25 -38
v -36 25 24
v -28 25 24
v -36 25 36
v -28 25 36
v -8 25 36
v -8 -25 36
v -8 -25 -38
v -8 25 -38
v -8 25 -38
v -8 25 16
v -8 25 24
v -8 25 36
v 21 25 36
v 21 -25 36
v 21 -25 -38
v 21 25 -38
v 21 25 -38
v 21 25 16
v 21 25 24
v 21 25 36
v 27 25 36
v 27 -25 36
v 36 25 36
v 36 -25 36
v 27 -25 -38
v 27 25 -38
v 36 -25 -38
v 36 25 -38
v 27 25 16
v 36 25 -38
v 36 25 16
v 27 25 -38
v 27 25 24
v 36 25 24
v 27 25 36
v 36 25 36
v -28 -25 -38
v -36 -25 -38
v -36 -25 16
v -28 -25 16
v -36 -25 24
v -28 -25 24
v -36 -25 36
v -28 -25 36
v -8 -25 -38
v -8 -25 16
v -14 -28 16
v -22 -28 16
v -22 -28 24
v -14 -28 24
v -8 -25 24
v -8 -25 36
v -8 -25 16
v -28 -25 16
v -8 -25 16
v -28 -25 16
v -28 -25 16
v -8 -25 16
v -28 -25 16
v -28 -25 24
v -28 -25 16
v -28 -25 24
v -28 -25 24
v -28 -25 16
v -8 -25 24
v -8 -25 16
v -8 -25 24
v -8 -25 16
v -8 -25 16
v -8 -25 24
v -28 -25 24
v -8 -25 24
v -28 -25 24
v -8 -25 24
v -8 -25 24
v -28 -25 24
v -8 -25 16
v -28 -25 16
v -14 -28 16
v -22 -28 16
v -28 -25 16
v -28 -25 24
v -22 -28 16
v -22 -28 24
v -8 -25 24
v -8 -25 16
v -14 -28 24
v -14 -28 16
v -28 -25 24
v -8 -25 24
v -22 -28 24
v -14 -28 24
v 21 -25 -38
v 21 -25 10
v 21 -25 28
v 21 -25 36
v 36 -25 -38
v 27 -25 -38
v 27 -25 10
v 36 -25 16
v 27 -25 28
v 36 -25 24
v 27 -25 36
v 36 -25 36
v 27 -25 10
v 21 -25 10
v 21 -25 28
v 27 -25 28
vn -1 0 0
vn -1 0 0
vn -1 0 0
vn -1 0 0
vn 1 0 0
vn 1 0 0
vn 1 0 0
vn 1 0 0
vn -1 0 0
vn -1 0 0
vn -1 0 0
vn -1 0 0
vn 1 0 0
vn 1 0 0
vn 1 0 0
vn 1 0 0
vn 0 0 -1
vn 0 0 -1
vn 0 0 -1
vn 0 0 -1
vn 0 0 1
vn 0 0 1
vn 0 0 1
vn 0 0 1
vn 0 -1 0
vn 0 -1 0
vn 0 -1 0
vn 0 -1 0
vn 0 -1 0
vn 0 -1 0
vn 0 -1 0
vn 0 -1 0
vn 0 0 -1
vn 0 0 -1
vn 0 0 1
vn 0 0 1
vn 0 -1 0
vn 0 -1 0
vn 0 -1 0
vn 0 -1 0
vn 0 0 -1
vn 0 0 -1
vn 0 0 1
vn 0 0 1
vn 0 -1 0
vn 0 -1 0
vn 0 -1 0
vn 0 -1 0
vn 0 0 -1
vn 0 0 -1
vn 0 0 -1
vn 0 0 -1
vn 0 0 1
vn 0 0 1
vn 0 0 1
vn 0 0 1
vn 0 -1 0
vn 0 -1 0
vn 0 -1 0
vn 0 -1 0
vn 0 -1 0
vn 0 -1 0
vn 0 -1 0
vn 0 -1 0
vn 0 1 0
vn 0 1 0
vn 0 1 0
vn 0 1 0
vn 0 1 0
vn 0 1 0
vn 0 1 0
vn 0 1 0
vn 0 1 0
vn 0 1 0
vn 0 1 0
vn 0 1 0
vn 0 1 0
vn 0 1 0
vn 0 1 0
vn 0 1 0
vn 0 0 0
vn 0 0 0
vn 0 0 0
vn 0 0 0
vn 0 0 0
vn 0 0 0
vn 0 0 0
vn 0 0 0
vn 0 0 0
vn 0 0 0
vn 0 0 0
vn 0 0 0
vn 0 0 0
vn 0 0 0
vn 0 0 0
vn 0 0 0
vn 0 0 0
vn 0 0 0
vn 0 0 0
vn 0 0 0
vn 0 0 0
vn 0 0 0
vn 0 0 0
vn 0 0 0
vn 0 0 1
vn 0 0 1
vn 0 0 1
vn 0 0 1
vn 0.4472136 0.8944272 0
vn 0.4472136 0.8944272 0
vn 0.4472136 0.8944272 0
vn 0.4472136 0.8944272 0
vn -0.4472136 0.8944272 0
vn -0.4472136 0.8944272 0
vn -0.4472136 0.8944272 0
vn -0.4472136 0.8944272 0
vn 0 0 -1
vn 0 0 -1
vn 0 0 -1
vn 0 0 -1
vn 0 1 0
vn 0 1 0
vn 0 1 0
vn 0 1 0
vn 0 1 0
vn 0 1 0
vn 0 1 0
vn 0 1 0
vn 0 1 0
vn 0 1 0
vn 0 1 0
vn 0 1 0
vn 0 1 0
vn 0 1 0
vn 0 1 0
vn 0 1 0
vt 38 25
vt -16 -25
vt -16 25
vt 38 -25
vt 16 -25
vt -38 -25
vt -38 25
vt 16 25
vt -24 25
vt -36 -25
vt -36 25
vt -24 -25
vt 36 -25
vt 24 -25
vt 24 25
vt 36 25
vt -28 25
vt -36 -25
vt -36 25
vt -28 -25
vt 36 -25
vt 28 -25
vt 28 25
vt 36 25
vt 36 16
vt 28 -38
vt 28 16
vt 36 -38
vt 36 24
vt 28 24
vt 36 36
vt 28 36
vt -8 25
vt -8 -25
vt 8 -25
vt 8 25
vt 8 -38
vt 8 16
vt 8 24
vt 8 36
vt 21 25
vt 21 -25
vt -21 -25
vt -21 25
vt -21 -38
vt -21 16
vt -21 24
vt -21 36
vt 27 25
vt 27 -25
vt 36 25
vt 36 -25
vt -27 -25
vt -27 25
vt -36 -25
vt -36 25
vt -27 16
vt -36 -38
vt -36 16
vt -27 -38
vt -27 24
vt -36 24
vt -27 36
vt -36 36
vt -28 -38
vt -36 -38
vt -36 16
vt -28 16
vt -36 24
vt -28 24
vt -36 36
vt -28 36
vt -8 -38
vt -8 16
vt -14 16
vt -22 16
vt -22 24
vt -14 24
vt -8 24
vt -8 36
vt 0 0
vt 0 0
vt 0 0
vt 0 0
vt 0 0
vt 0 0
vt 0 0
vt 0 0
vt 0 0
vt 0 0
vt 0 0
vt 0 0
vt 0 0
vt 0 0
vt 0 0
vt 0 0
vt 0 0
vt 0 0
vt 0 0
vt 0 0
vt 0 0
vt 0 0
vt 0 0
vt 0 0
vt 8 -25
vt 28 -25
vt 14 -28
vt 22 -28
vt -13.86362 16
vt -13.86362 24
vt -7.155417 16
vt -7.155417 24
vt -18.33576 24
vt -18.33576 16
vt -25.04396 24
vt -25.04396 16
vt -28 -25
vt -8 -25
vt -22 -28
vt -14 -28
vt 21 -38
vt 21 10
vt 21 28
vt 21 36
vt 36 -38
vt 27 -38
vt 27 10
vt 36 16
vt 27 28
vt 36 24
vt 27 36
vt 36 36
vt 27 10
vt 21 10
vt 21 28
vt 27 28
g submesh0
f 1/1/1 2/2/2 3/3/3
f 1/1/1 4/4/4 2/2/2
f 5/5/5 6/6/6 7/7/7
f 8/8/8 5/5/5 7/7/7
f 9/9/9 10/10/10 11/11/11
f 9/9/9 12/12/12 10/10/10
f 3/3/3 12/12/12 9/9/9
f 3/3/3 2/2/2 12/12/12
f 13/13/13 14/14/14 15/15/15
f 16/16/16 13/13/13 15/15/15
f 14/14/14 5/5/5 8/8/8
f 15/15/15 14/14/14 8/8/8
f 17/17/17 18/18/18 19/19/19
f 17/17/17 20/20/20 18/18/18
f 21/21/21 22/22/22 23/23/23
f 24/24/24 21/21/21 23/23/23
f 25/25/25 26/26/26 27/27/27
f 25/25/25 28/28/28 26/26/26
f 29/29/29 27/27/27 30/30/30
f 29/29/29 25/25/25 27/27/27
f 31/31/31 30/30/30 32/32/32
f 31/31/31 29/29/29 30/30/30
f 33/33/33 20/20/20 17/17/17
f 33/33/33 34/34/34 20/20/20
f 22/22/22 35/35/35 36/36/36
f 23/23/23 22/22/22 36/36/36
f 27/27/27 37/37/37 38/38/38
f 27/27/27 26/26/26 37/37/37
f 30/30/30 38/38/38 39/39/39
f 30/30/30 27/27/27 38/38/38
f 32/32/32 39/39/39 40/40/40
f 32/32/32 30/30/30 39/39/39
f 41/41/41 34/34/34 33/33/33
f 41/41/41 42/42/42 34/34/34
f 35/35/35 43/43/43 44/44/44
f 36/36/36 35/35/35 44/44/44
f 38/38/38 45/45/45 46/46/46
f 38/38/38 37/37/37 45/45/45
f 39/39/39 46/46/46 47/47/47
f 39/39/39 38/38/38 46/46/46
f 40/40/40 47/47/47 48/48/48
f 40/40/40 39/39/39 47/47/47
f 49/49/49 42/42/42 41/41/41
f 49/49/49 50/50/50 42/42/42
f 51/51/51 50/50/50 49/49/49
f 51/51/51 52/52/52 50/50/50
f 43/43/43 53/53/53 54/54/54
f 44/44/44 43/43/43 54/54/54
f 53/53/53 55/55/55 56/56/56
f 54/54/54 53/53/53 56/56/56
f 57/57/57 58/58/58 59/59/59
f 57/57/57 60/60/60 58/58/58
f 46/46/46 60/60/60 57/57/57
f 46/46/46 45/45/45 60/60/60
f 61/61/61 59/59/59 62/62/62
f 61/61/61 57/57/57 59/59/59
f 47/47/47 57/57/57 61/61/61
f 47/47/47 46/46/46 57/57/57
f 63/63/63 62/62/62 64/64/64
f 63/63/63 61/61/61 62/62/62
f 48/48/48 61/61/61 63/63/63
f 48/48/48 47/47/47 61/61/61
g submesh1
f 65/65/65 66/66/66 67/67/67
f 68/68/68 65/65/65 67/67/67
f 68/68/68 67/67/67 69/69/69
f 70/70/70 68/68/68 69/69/69
f 70/70/70 69/69/69 71/71/71
f 72/72/72 70/70/70 71/71/71
f 73/73/73 65/65/65 68/68/68
f 74/74/74 73/73/73 68/68/68
f 75/75/75 76/76/76 77/77/77
f 78/78/78 75/75/75 77/77/77
f 79/79/79 70/70/70 72/72/72
f 80/80/80 79/79/79 72/72/72
f 81/81/81 82/82/82 83/83/83
f 84/84/84 85/85/85 86/86/86
f 87/87/87 88/88/88 89/89/89
f 90/90/90 91/91/91 92/92/92
f 93/93/93 94/94/94 95/95/95
f 96/96/96 97/97/97 98/98/98
f 99/99/99 100/100/100 101/101/101
f 102/102/102 103/103/103 104/104/104
f 105/105/105 106/106/106 107/107/107
f 106/106/106 108/108/108 107/107/107
f 109/109/109 110/110/110 111/111/111
f 110/110/110 112/112/112 111/111/111
f 113/113/113 114/114/114 115/115/115
f 114/114/114 116/116/116 115/115/115
f 117/117/117 118/118/118 119/119/119
f 118/118/118 120/120/120 119/119/119
f 121/121/121 73/73/73 74/74/74
f 122/122/122 121/121/121 74/74/74
f 122/122/122 74/74/74 79/79/79
f 123/123/123 122/122/122 79/79/79
f 123/123/123 79/79/79 80/80/80
f 124/124/124 123/123/123 80/80/80
f 125/125/125 126/126/126 127/127/127
f 128/128/128 125/125/125 127/127/127
f 126/126/126 121/121/121 122/122/122
f 127/127/127 126/126/126 122/122/122
f 128/128/128 127/127/127 129/129/129
f 130/130/130 128/128/128 129/129/129
f 130/130/130 129/129/129 131/131/131
f 132/132/132 130/130/130 131/131/131
f 129/129/129 123/123/123 124/124/124
f 131/131/131 129/129/129 124/124/124
g submesh2
f 133/133/133 134/134/134 135/135/135
f 136/136/136 133/133/133 135/135/135
