v 6 -3 0.5
v 6 -3 -0.5
v 6 -0.25 0.5
v 6 -0.25 -0.5
v -6 -3 -0.5
v -6 -3 0.5
v -6 -0.25 -0.5
v -6 -0.25 0.5
v -6 -3 0.5
v -5 -3 0.5
v -5 -0.25 0.5
v -6 -0.25 0.5
v -5 -0.25 -0.5
v -6 -3 -0.5
v -6 -0.25 -0.5
v -5 -3 -0.5
v -5 -0.25 -0.5
v -6 -0.25 -0.5
v -6 -0.25 0.5
v -5 -0.25 0.5
v -6 -4 0.5
v -5 -4 -0.5
v -5 -4 0.5
v -6 -4 -0.5
v -5 -3 -0.5
v -5 -3 0.5
v -5 -4 -0.5
v -5 -4 0.5
v -5 -4 0.5
v -6 -4 0.5
v -6 -4 0.5
v -6 -4 -0.5
v -6 -4 -0.5
v -5 -4 -0.5
v 5 -3 0.5
v 5 -0.25 0.5
v 6 -3 0.5
v 6 -0.25 0.5
v 5 -0.25 -0.5
v 5 -3 -0.5
v 6 -0.25 -0.5
v 6 -3 -0.5
v 6 -0.25 -0.5
v 5 -0.25 -0.5
v 5 -0.25 0.5
v 6 -0.25 0.5
v 5 -4 0.5
v 6 -4 -0.5
v 6 -4 0.5
v 5 -4 -0.5
v -5 -3 0.5
v 5 -3 -0.5
v 5 -3 0.5
v -5 -3 -0.5
v 6 -4 -0.5
v 6 -4 0.5
v 6 -4 0.5
v 5 -4 0.5
v 5 -3 0.5
v 5 -3 -0.5
v 5 -4 0.5
v 5 -4 -0.5
v 5 -4 -0.5
v 6 -4 -0.5
vn 1 0 0
vn 1 0 0
vn 1 0 0
vn 1 0 0
vn -1 0 0
vn -1 0 0
vn -1 0 0
vn -1 0 0
vn 0 0 1
vn 0 0 1
vn 0 0 1
vn 0 0 1
vn 0 0 -1
vn 0 0 -1
vn 0 0 -1
vn 0 0 -1
vn 0 1 0
vn 0 1 0
vn 0 1 0
vn 0 1 0
vn 0 -1 0
vn 0 -1 0
vn 0 -1 0
vn 0 -1 0
vn 1 0 0
vn 1 0 0
vn 1 0 0
vn 1 0 0
vn 0 0 1
vn 0 0 1
vn -1 0 0
vn -1 0 0
vn 0 0 -1
vn 0 0 -1
vn 0 0 1
vn 0 0 1
vn 0 0 1
vn 0 0 1
vn 0 0 -1
vn 0 0 -1
vn 0 0 -1
vn 0 0 -1
vn 0 1 0
vn 0 1 0
vn 0 1 0
vn 0 1 0
vn 0 -1 0
vn 0 -1 0
vn 0 -1 0
vn 0 -1 0
vn 0 -1 0
vn 0 -1 0
vn 0 -1 0
vn 0 -1 0
vn 1 0 0
vn 1 0 0
vn 0 0 1
vn 0 0 1
vn -1 0 0
vn -1 0 0
vn -1 0 0
vn -1 0 0
vn 0 0 -1
vn 0 0 -1
vt 0.5 -3
vt -0.5 -3
vt 0.5 -0.25
vt -0.5 -0.25
vt 0.5 -3
vt -0.5 -3
vt 0.5 -0.25
vt -0.5 -0.25
vt 6 -3
vt 5 -3
vt 5 -0.25
vt 6 -0.25
vt -5 -0.25
vt -6 -3
vt -6 -0.25
vt -5 -3
vt -5 -0.5
vt -6 -0.5
vt -6 0.5
vt -5 0.5
vt 6 0.5
vt 5 -0.5
vt 5 0.5
vt 6 -0.5
vt -0.5 -3
vt 0.5 -3
vt -0.5 -4
vt 0.5 -4
vt 5 -4
vt 6 -4
vt -0.5 -4
vt 0.5 -4
vt -6 -4
vt -5 -4
vt -5 -3
vt -5 -0.25
vt -6 -3
vt -6 -0.25
vt 5 -0.25
vt 5 -3
vt 6 -0.25
vt 6 -3
vt 6 -0.5
vt 5 -0.5
vt 5 0.5
vt 6 0.5
vt -5 0.5
vt -6 -0.5
vt -6 0.5
vt -5 -0.5
vt 5 0.5
vt -5 -0.5
vt -5 0.5
vt 5 -0.5
vt -0.5 -4
vt 0.5 -4
vt -6 -4
vt -5 -4
vt -0.5 -3
vt 0.5 -3
vt -0.5 -4
vt 0.5 -4
vt 5 -4
vt 6 -4
g submesh0
f 1/1/1 2/2/2 3/3/3
f 2/2/2 4/4/4 3/3/3
f 5/5/5 6/6/6 7/7/7
f 6/6/6 8/8/8 7/7/7
f 9/9/9 10/10/10 11/11/11
f 12/12/12 9/9/9 11/11/11
f 13/13/13 14/14/14 15/15/15
f 13/13/13 16/16/16 14/14/14
f 17/17/17 18/18/18 19/19/19
f 20/20/20 17/17/17 19/19/19
f 21/21/21 22/22/22 23/23/23
f 21/21/21 24/24/24 22/22/22
f 25/25/25 26/26/26 27/27/27
f 26/26/26 28/28/28 27/27/27
f 10/10/10 9/9/9 29/29/29
f 9/9/9 30/30/30 29/29/29
f 6/6/6 5/5/5 31/31/31
f 5/5/5 32/32/32 31/31/31
f 14/14/14 16/16/16 33/33/33
f 16/16/16 34/34/34 33/33/33
f 10/10/10 35/35/35 36/36/36
f 11/11/11 10/10/10 36/36/36
f 35/35/35 37/37/37 38/38/38
f 36/36/36 35/35/35 38/38/38
f 39/39/39 16/16/16 13/13/13
f 39/39/39 40/40/40 16/16/16
f 41/41/41 40/40/40 39/39/39
f 41/41/41 42/42/42 40/40/40
f 43/43/43 44/44/44 45/45/45
f 46/46/46 43/43/43 45/45/45
f 44/44/44 17/17/17 20/20/20
f 45/45/45 44/44/44 20/20/20
f 47/47/47 48/48/48 49/49/49
f 47/47/47 50/50/50 48/48/48
f 51/51/51 52/52/52 53/53/53
f 51/51/51 54/54/54 52/52/52
f 2/2/2 1/1/1 55/55/55
f 1/1/1 56/56/56 55/55/55
f 37/37/37 35/35/35 57/57/57
f 35/35/35 58/58/58 57/57/57
f 59/59/59 60/60/60 61/61/61
f 60/60/60 62/62/62 61/61/61
f 40/40/40 42/42/42 63/63/63
f 42/42/42 64/64/64 63/63/63
