v -1.25 -3.199741E-07 2.02071
v 2.5 -3.199741E-07 2.02071
v -1.25 0.2500009 2.165044
v 2.5 0.2500009 2.165044
v 2.5 -3.199741E-07 2.02071
v 2.499998 -4.276542E-07 -6.254488
v 2.5 0.2500009 2.165044
v 2.499999 0.2499986 -6.399045
v 2.499998 -4.276542E-07 -6.254488
v -1.250001 -7.939619E-07 -6.171392
v 2.499999 0.2499986 -6.399045
v -1.250003 0.2499983 -6.31595
v -1.250001 -7.939619E-07 -6.171392
v -1.25 -3.199741E-07 2.02071
v -1.250003 0.2499983 -6.31595
v -1.25 0.2500009 2.165044
v -1.25 0.2500009 2.165044
v 2.5 0.2500009 2.165044
v -1.250003 0.2499983 -6.31595
v 2.499999 0.2499986 -6.399045
v -1.250001 -7.939619E-07 -6.171392
v 2.499998 -4.276542E-07 -6.254488
v -1.25 -3.199741E-07 2.02071
v 2.5 -3.199741E-07 2.02071
vn 0 -0.4999886 0.8660321
vn 0 -0.4999886 0.8660321
vn 0 -0.4999886 0.8660321
vn 0 -0.4999886 0.8660321
vn 1 1.164356E-07 -2.016786E-07
vn 1 -1.404494E-06 -1.565176E-07
vn 1 -1.404494E-06 -1.565176E-07
vn 1 -2.925424E-06 -1.113566E-07
vn -0.0191793 -0.5004803 -0.8655355
vn -0.01917923 -0.500481 -0.8655351
vn -0.01917923 -0.500481 -0.8655351
vn -0.01917917 -0.5004817 -0.8655347
vn -1 -4.667418E-06 1.746211E-07
vn -1 -2.422974E-06 2.419271E-07
vn -1 -2.422974E-06 2.419271E-07
vn -1 -1.785304E-07 3.092332E-07
vn 0 1 -3.074761E-07
vn -5.256217E-08 1 -2.842349E-07
vn -5.256217E-08 1 -2.842349E-07
vn -1.051243E-07 1 -2.609938E-07
vn 9.896416E-08 -1 5.78591E-08
vn 4.948208E-08 -1 3.543574E-08
vn 4.948208E-08 -1 3.543574E-08
vn 0 -1 1.301239E-08
vt 1.25 1.010332
vt -2.5 1.010332
vt 1.25 1.299006
vt -2.5 1.299006
vt 2.020711 -6.110631E-07
vt -6.254488 -7.187432E-07
vt 2.165045 0.2500006
vt -6.399045 0.2499983
vt 2.637943 3.101761
vt -1.112977 3.10176
vt 2.641146 3.390527
vt -1.109776 3.390527
vt 6.171392 5.040312E-06
vt -2.02071 5.5143E-06
vt 6.31595 0.2500041
vt -2.165044 0.2500067
vt -1.25 2.165044
vt 2.5 2.165044
vt -1.250003 -6.31595
vt 2.499999 -6.399045
vt 1.250001 -6.171392
vt -2.499998 -6.254488
vt 1.25 2.02071
vt -2.5 2.02071
g submesh0
f 1/1/1 2/2/2 3/3/3
f 2/2/2 4/4/4 3/3/3
f 5/5/5 6/6/6 7/7/7
f 6/6/6 8/8/8 7/7/7
f 9/9/9 10/10/10 11/11/11
f 10/10/10 12/12/12 11/11/11
f 13/13/13 14/14/14 15/15/15
f 14/14/14 16/16/16 15/15/15
f 17/17/17 18/18/18 19/19/19
f 18/18/18 20/20/20 19/19/19
f 21/21/21 22/22/22 23/23/23
f 22/22/22 24/24/24 23/23/23
