v 5 -2 15
v 5 -2 0
v 5 5 0
v 5 5 15
v -14 5 0
v -14 -2 15
v -14 5 15
v -14 -2 0
v -9 -2 19
v -9 5 19
v -14 -2 19
v -14 5 19
v -9 5 -4
v -9 -2 -4
v -14 5 -4
v -14 -2 -4
v -9 -2 0
v -9 -2 15
v -14 -2 0
v -14 -2 15
v 5 8 0
v 5 8 15
v 5 17 0
v 5 17 15
v -9 17 0
v -9 8 15
v -9 17 15
v -9 8 0
v -9 5 15
v -9 8 15
v -12 5 15
v -9 8 0
v -9 5 0
v -12 5 0
v -9 5 0
v -9 5 15
v -12 5 0
v -12 5 15
v -14 -2 19
v -9 -2 19
v -14 5 19
v -14 -2 19
v 5 -2 19
v 5 5 19
v -9 8 0
v -9 17 0
v -9 8 0
v -9 17 0
v -9 17 0
v -9 8 0
v -9 -2 0
v -14 -2 0
v -9 -2 0
v -14 -2 0
v -14 -2 0
v -9 -2 0
v -14 -2 0
v -14 5 0
v -14 -2 0
v -14 5 0
v -14 5 0
v -14 -2 0
v 5 5 0
v 5 -2 0
v 5 5 0
v 5 -2 0
v 5 -2 0
v 5 5 0
v -9 5 0
v -9 8 0
v -9 5 0
v -9 8 0
v -9 8 0
v -9 5 0
v 5 8 0
v 5 5 0
v 5 8 0
v 5 5 0
v 5 5 0
v 5 8 0
v 5 17 0
v 5 8 0
v 5 17 0
v 5 8 0
v 5 8 0
v 5 17 0
v -2 -2 0
v -2 -2 15
v 5 -2 0
v 5 -2 15
v -2 -2 19
v -2 5 19
v -2 -2 32
v 5 -2 32
v 5 5 32
v -2 5 32
v -2 5 -4
v -2 -2 -4
v 5 5 -4
v 5 -2 -4
v -2 5 15
v -2 8 15
v 5 5 15
v 5 8 15
v -2 17 15
v -9 17 15
v 5 17 15
v -2 8 0
v -2 5 0
v 5 8 0
v 5 5 0
v -2 17 0
v -9 17 0
v 5 17 0
v -2 -2 19
v 5 -2 19
v -2 -2 0
v 5 -2 0
v 5 -2 0
v -2 -2 0
v -2 -2 0
v 5 -2 0
v -9 -2 0
v -2 -2 0
v -2 -2 0
v -9 -2 0
v -9 -2 0
v -2 -2 0
v -2 5 15
v -2 5 19
v -2 8 15
v -2 8 19
v 5 8 19
v -2 8 32
v 5 8 32
v -2 17 1
v -8 17 1
v -2 15 1
v -8 15 1
v -8 17 14
v -2 17 14
v -8 15 14
v -2 15 14
v 4 17 14
v 4 17 1
v 4 15 14
v 4 15 1
v 4 17 14
v 4 15 14
v 4 17 1
v 4 15 1
v -8 17 1
v -8 17 14
v -8 15 1
v -8 15 14
v 4 17 1
v 4 17 1
v 4 15 1
v 4 17 1
v 4 15 1
v 4 15 1
v -8 17 1
v -8 17 1
v -8 15 1
v -8 17 1
v -8 15 1
v -8 15 1
v -9 5 0
v -9 -2 0
v -9 5 -4
v -9 -2 -4
v -9 -2 -4
v -14 -2 -4
v -14 -2 -4
v -14 5 -4
v -2 -2 -4
v 5 5 -4
v 5 -2 -4
v 5 -2 -4
v -9 -2 0
v -9 5 0
v -9 -2 -4
v -9 5 -4
v -2 8 32
v -2 5 32
v 5 5 32
v 5 8 32
v -2 -2 32
v 5 -2 32
v 5 -2 32
v -14 0 19
v -14 0 32
v -14 -2 32
v -2 5 19
v -2 -2 19
v -6 5 19
v -6 -2 19
v -6 -2 19
v -6 -2 32
v -6 -2 32
v -6 5 32
v -14 0 19
v -14 -2 19
v -14 -2 32
v -14 -2 32
v -14 0 32
v -9 5 15
v -9 5 0
v -14 5 15
v -14 5 0
v -9 5 19
v -14 5 19
v -14 5 0
v -9 5 0
v -14 5 0
v -9 5 0
v -9 5 0
v -14 5 0
v -2 15 1
v -8 15 1
v -8 15 14
v -2 15 14
v 4 15 1
v 4 15 14
v 5 8 15
v -2 8 15
v -2 8 19
v 5 8 19
v -2 5 15
v -2 5 19
v -2 15 1
v -8 15 1
v -8 15 1
v -2 15 1
v -2 15 1
v -8 15 1
v 4 15 1
v -2 15 1
v -2 15 1
v 4 15 1
v 4 15 1
v -2 15 1
v 5 5 15
v -2 5 15
v 5 8 15
v -2 8 15
v 5 17 0
v -2 17 0
v 4 17 1
v -2 17 1
v -9 17 0
v -9 17 15
v -8 17 1
v -8 17 14
v 5 17 15
v 4 17 14
v -2 17 15
v -2 17 14
v -9 17 0
v -9 17 0
v -8 17 1
v -9 17 0
v -8 17 1
v -8 17 1
v 5 17 0
v 5 17 0
v 4 17 1
v 5 17 0
v 4 17 1
v 4 17 1
v -14 5 -4
v -9 5 -4
v -2 5 0
v 5 5 0
v -2 5 -4
v 5 5 -4
v 5 8 32
v -2 8 32
v -2 5 32
v -6 5 32
v -6 5 19
v -6 5 32
v -6 5 19
v -14 0 32
v -14 0 19
v -9 8 15
v -9 8 0
v -12 5 15
v -12 5 0
vn 1 0 0
vn 1 0 0
vn 1 0 0
vn 1 0 0
vn -1 0 0
vn -1 0 0
vn -1 0 0
vn -1 0 0
vn 0 0 1
vn 0 0 1
vn 0 0 1
vn 0 0 1
vn 0 0 -1
vn 0 0 -1
vn 0 0 -1
vn 0 0 -1
vn 0 -1 0
vn 0 -1 0
vn 0 -1 0
vn 0 -1 0
vn 1 0 0
vn 1 0 0
vn 1 0 0
vn 1 0 0
vn -1 0 0
vn -1 0 0
vn -1 0 0
vn -1 0 0
vn 0 0 1
vn 0 0 1
vn 0 0 1
vn 0 0 -1
vn 0 0 -1
vn 0 0 -1
vn 0 -1 0
vn 0 -1 0
vn 0 -1 0
vn 0 -1 0
vn 0 -1 0
vn 0 -1 0
vn -1 0 0
vn -1 0 0
vn 1 0 0
vn 1 0 0
vn 0 0 0
vn 0 0 0
vn 0 0 0
vn 0 0 0
vn 0 0 0
vn 0 0 0
vn 0 0 0
vn 0 0 0
vn 0 0 0
vn 0 0 0
vn 0 0 0
vn 0 0 0
vn 0 0 0
vn 0 0 0
vn 0 0 0
vn 0 0 0
vn 0 0 0
vn 0 0 0
vn 0 0 0
vn 0 0 0
vn 0 0 0
vn 0 0 0
vn 0 0 0
vn 0 0 0
vn 0 0 0
vn 0 0 0
vn 0 0 0
vn 0 0 0
vn 0 0 0
vn 0 0 0
vn 0 0 0
vn 0 0 0
vn 0 0 0
vn 0 0 0
vn 0 0 0
vn 0 0 0
vn 0 0 0
vn 0 0 0
vn 0 0 0
vn 0 0 0
vn 0 0 0
vn 0 0 0
vn 0 -1 0
vn 0 -1 0
vn 0 -1 0
vn 0 -1 0
vn 0 0 1
vn 0 0 1
vn 0 0 1
vn 0 0 1
vn 0 0 1
vn 0 0 1
vn 0 0 -1
vn 0 0 -1
vn 0 0 -1
vn 0 0 -1
vn 0 0 1
vn 0 0 1
vn 0 0 1
vn 0 0 1
vn 0 0 1
vn 0 0 1
vn 0 0 1
vn 0 0 -1
vn 0 0 -1
vn 0 0 -1
vn 0 0 -1
vn 0 0 -1
vn 0 0 -1
vn 0 0 -1
vn 0 -1 0
vn 0 -1 0
vn 0 0 0
vn 0 0 0
vn 0 0 0
vn 0 0 0
vn 0 0 0
vn 0 0 0
vn 0 0 0
vn 0 0 0
vn 0 0 0
vn 0 0 0
vn 0 0 0
vn 0 0 0
vn -1 0 0
vn -1 0 0
vn -1 0 0
vn -1 0 0
vn 1 0 0
vn 0 0 1
vn 0 0 1
vn 0 0 1
vn 0 0 1
vn 0 0 1
vn 0 0 1
vn 0 0 -1
vn 0 0 -1
vn 0 0 -1
vn 0 0 -1
vn -1 0 0
vn -1 0 0
vn -1 0 0
vn -1 0 0
vn 0 0 -1
vn 0 0 -1
vn 0 0 1
vn 0 0 1
vn 1 0 0
vn 1 0 0
vn 1 0 0
vn 1 0 0
vn 0 0 0
vn 0 0 0
vn 0 0 0
vn 0 0 0
vn 0 0 0
vn 0 0 0
vn 0 0 0
vn 0 0 0
vn 0 0 0
vn 0 0 0
vn 0 0 0
vn 0 0 0
vn 1 0 0
vn 1 0 0
vn 1 0 0
vn 1 0 0
vn 0 -1 0
vn 0 -1 0
vn -1 0 0
vn -1 0 0
vn 0 -1 0
vn 1 0 0
vn 1 0 0
vn 0 -1 0
vn -1 0 0
vn -1 0 0
vn -1 0 0
vn -1 0 0
vn -1 0 0
vn -1 0 0
vn 1 0 0
vn 1 0 0
vn 0 -1 0
vn 0 -1 0
vn 1 0 0
vn -1 0 0
vn -1 0 0
vn -1 0 0
vn 0 0 -1
vn 0 0 -1
vn 0 0 -1
vn 0 0 -1
vn 0 -1 0
vn 0 -1 0
vn 0 0 1
vn 0 0 1
vn 0 0 -1
vn 0 0 -1
vn 0 -1 0
vn 0 0 1
vn 0 0 1
vn 0 1 0
vn 0 1 0
vn 0 1 0
vn 0 1 0
vn 0 1 0
vn 0 1 0
vn 0 0 0
vn 0 0 0
vn 0 0 0
vn 0 0 0
vn 0 0 0
vn 0 0 0
vn 0 1 0
vn 0 1 0
vn 0 1 0
vn 0 1 0
vn 0 1 0
vn 0 1 0
vn 0 1 0
vn 0 1 0
vn 0 1 0
vn 0 1 0
vn 0 1 0
vn 0 1 0
vn 0 0 0
vn 0 0 0
vn 0 0 0
vn 0 0 0
vn 0 0 0
vn 0 0 0
vn 0 0 0
vn 0 0 0
vn 0 0 0
vn 0 0 0
vn 0 0 0
vn 0 0 0
vn 0 0 -1
vn 0 0 -1
vn 0 0 -1
vn 0 0 -1
vn 0 1 0
vn 0 1 0
vn 0 1 0
vn 0 1 0
vn 0 1 0
vn 0 1 0
vn 0 1 0
vn 0 1 0
vn 0 1 0
vn 0 1 0
vn 0 1 0
vn 0 1 0
vn 0 0 0
vn 0 0 0
vn 0 0 0
vn 0 0 0
vn 0 0 0
vn 0 0 0
vn 0 0 0
vn 0 0 0
vn 0 0 0
vn 0 0 0
vn 0 0 0
vn 0 0 0
vn 0 1 0
vn 0 1 0
vn 0 1 0
vn 0 1 0
vn 0 1 0
vn 0 1 0
vn 0 1 0
vn 0 1 0
vn 0 1 0
vn 0 1 0
vn 0 1 0
vn -0.529999 0.8479983 0
vn -0.529999 0.8479983 0
vn -0.529999 0.8479983 0
vn -0.529999 0.8479983 0
vn -0.7071068 0.7071068 0
vn -0.7071068 0.7071068 0
vn -0.7071068 0.7071068 0
vn -0.7071068 0.7071068 0
vt 15 -2
vt 0 -2
vt 0 5
vt 15 5
vt 0 5
vt -15 -2
vt -15 5
vt 0 -2
vt 9 -2
vt 9 5
vt 14 -2
vt 14 5
vt -9 5
vt -9 -2
vt -14 5
vt -14 -2
vt 9 0
vt 9 15
vt 14 0
vt 14 15
vt 0 8
vt 15 8
vt 0 17
vt 15 17
vt 0 17
vt -15 8
vt -15 17
vt 0 8
vt 9 5
vt 9 8
vt 12 5
vt -9 8
vt -9 5
vt -12 5
vt 9 0
vt 9 15
vt 12 0
vt 12 15
vt 14 19
vt 9 19
vt -19 5
vt -19 -2
vt 19 -2
vt 19 5
vt 0 0
vt 0 0
vt 0 0
vt 0 0
vt 0 0
vt 0 0
vt 0 0
vt 0 0
vt 0 0
vt 0 0
vt 0 0
vt 0 0
vt 0 0
vt 0 0
vt 0 0
vt 0 0
vt 0 0
vt 0 0
vt 0 0
vt 0 0
vt 0 0
vt 0 0
vt 0 0
vt 0 0
vt 0 0
vt 0 0
vt 0 0
vt 0 0
vt 0 0
vt 0 0
vt 0 0
vt 0 0
vt 0 0
vt 0 0
vt 0 0
vt 0 0
vt 0 0
vt 0 0
vt 0 0
vt 0 0
vt 0 0
vt 0 0
vt 2 0
vt 2 15
vt -5 0
vt -5 15
vt 2 -2
vt 2 5
vt 2 -2
vt -5 -2
vt -5 5
vt 2 5
vt -2 5
vt -2 -2
vt 5 5
vt 5 -2
vt 2 5
vt 2 8
vt -5 5
vt -5 8
vt 2 17
vt 9 17
vt -5 17
vt -2 8
vt -2 5
vt 5 8
vt 5 5
vt -2 17
vt -9 17
vt 5 17
vt 2 19
vt -5 19
vt 0 0
vt 0 0
vt 0 0
vt 0 0
vt 0 0
vt 0 0
vt 0 0
vt 0 0
vt 0 0
vt 0 0
vt 0 0
vt 0 0
vt -15 5
vt -19 5
vt -15 8
vt -19 8
vt 19 8
vt 2 8
vt -5 8
vt 2 17
vt 8 17
vt 2 15
vt 8 15
vt -8 17
vt -2 17
vt -8 15
vt -2 15
vt -14 17
vt -1 17
vt -14 15
vt -1 15
vt 4 17
vt 4 15
vt -4 17
vt -4 15
vt 1 17
vt 14 17
vt 1 15
vt 14 15
vt 0 0
vt 0 0
vt 0 0
vt 0 0
vt 0 0
vt 0 0
vt 0 0
vt 0 0
vt 0 0
vt 0 0
vt 0 0
vt 0 0
vt 0 5
vt 0 -2
vt -4 5
vt -4 -2
vt 9 -4
vt 14 -4
vt 4 -2
vt 4 5
vt 2 -4
vt -4 5
vt -4 -2
vt -5 -4
vt 0 -2
vt 0 5
vt 4 -2
vt 4 5
vt -32 8
vt -32 5
vt 32 5
vt 32 8
vt 2 32
vt -5 32
vt 32 -2
vt -19 0
vt -32 0
vt -32 -2
vt -2 5
vt -2 -2
vt -6 5
vt -6 -2
vt 6 19
vt 6 32
vt 6 -2
vt 6 5
vt -14 0
vt -14 -2
vt 14 32
vt 14 -2
vt 14 0
vt -9 15
vt -9 0
vt -14 15
vt -14 0
vt -9 19
vt -14 19
vt 0 0
vt 0 0
vt 0 0
vt 0 0
vt 0 0
vt 0 0
vt -2 1
vt -8 1
vt -8 14
vt -2 14
vt 4 1
vt 4 14
vt 5 15
vt -2 15
vt -2 19
vt 5 19
vt -2 15
vt -2 19
vt 0 0
vt 0 0
vt 0 0
vt 0 0
vt 0 0
vt 0 0
vt 0 0
vt 0 0
vt 0 0
vt 0 0
vt 0 0
vt 0 0
vt 5 5
vt -2 5
vt 5 8
vt -2 8
vt 5 0
vt -2 0
vt 4 1
vt -2 1
vt -9 0
vt -9 15
vt -8 1
vt -8 14
vt 5 15
vt 4 14
vt -2 15
vt -2 14
vt 0 0
vt 0 0
vt 0 0
vt 0 0
vt 0 0
vt 0 0
vt 0 0
vt 0 0
vt 0 0
vt 0 0
vt 0 0
vt 0 0
vt -14 -4
vt -9 -4
vt -2 0
vt 5 0
vt -2 -4
vt 5 -4
vt 5 32
vt -2 32
vt -2 32
vt -6 32
vt -6 19
vt -2.437995 32
vt -2.437995 19
vt -11.87198 32
vt -11.87198 19
vt -0.7071068 15
vt -0.7071068 0
vt -4.949748 15
vt -4.949748 0
g submesh0
f 1/1/1 2/2/2 3/3/3
f 4/4/4 1/1/1 3/3/3
f 5/5/5 6/6/6 7/7/7
f 5/5/5 8/8/8 6/6/6
f 9/9/9 10/10/10 11/11/11
f 10/10/10 12/12/12 11/11/11
f 13/13/13 14/14/14 15/15/15
f 14/14/14 16/16/16 15/15/15
f 17/17/17 18/18/18 19/19/19
f 18/18/18 20/20/20 19/19/19
f 4/4/4 3/3/3 21/21/21
f 22/22/22 4/4/4 21/21/21
f 22/22/22 21/21/21 23/23/23
f 24/24/24 22/22/22 23/23/23
f 25/25/25 26/26/26 27/27/27
f 25/25/25 28/28/28 26/26/26
f 29/29/29 30/30/30 31/31/31
f 32/32/32 33/33/33 34/34/34
f 35/35/35 36/36/36 37/37/37
f 36/36/36 38/38/38 37/37/37
f 20/20/20 18/18/18 39/39/39
f 18/18/18 40/40/40 39/39/39
f 7/7/7 6/6/6 41/41/41
f 6/6/6 42/42/42 41/41/41
f 1/1/1 4/4/4 43/43/43
f 4/4/4 44/44/44 43/43/43
f 45/45/45 46/46/46 47/47/47
f 48/48/48 49/49/49 50/50/50
f 51/51/51 52/52/52 53/53/53
f 54/54/54 55/55/55 56/56/56
f 57/57/57 58/58/58 59/59/59
f 60/60/60 61/61/61 62/62/62
f 63/63/63 64/64/64 65/65/65
f 66/66/66 67/67/67 68/68/68
f 69/69/69 70/70/70 71/71/71
f 72/72/72 73/73/73 74/74/74
f 75/75/75 76/76/76 77/77/77
f 78/78/78 79/79/79 80/80/80
f 81/81/81 82/82/82 83/83/83
f 84/84/84 85/85/85 86/86/86
f 18/18/18 87/87/87 88/88/88
f 18/18/18 17/17/17 87/87/87
f 88/88/88 89/89/89 90/90/90
f 88/88/88 87/87/87 89/89/89
f 9/9/9 91/91/91 92/92/92
f 10/10/10 9/9/9 92/92/92
f 93/93/93 94/94/94 95/95/95
f 96/96/96 93/93/93 95/95/95
f 97/97/97 14/14/14 13/13/13
f 97/97/97 98/98/98 14/14/14
f 99/99/99 98/98/98 97/97/97
f 99/99/99 100/100/100 98/98/98
f 29/29/29 101/101/101 102/102/102
f 30/30/30 29/29/29 102/102/102
f 101/101/101 103/103/103 104/104/104
f 102/102/102 101/101/101 104/104/104
f 30/30/30 102/102/102 105/105/105
f 106/106/106 30/30/30 105/105/105
f 102/102/102 104/104/104 107/107/107
f 105/105/105 102/102/102 107/107/107
f 108/108/108 33/33/33 32/32/32
f 108/108/108 109/109/109 33/33/33
f 110/110/110 109/109/109 108/108/108
f 110/110/110 111/111/111 109/109/109
f 112/112/112 32/32/32 113/113/113
f 112/112/112 108/108/108 32/32/32
f 114/114/114 108/108/108 112/112/112
f 114/114/114 110/110/110 108/108/108
f 40/40/40 88/88/88 115/115/115
f 40/40/40 18/18/18 88/88/88
f 115/115/115 90/90/90 116/116/116
f 115/115/115 88/88/88 90/90/90
f 117/117/117 118/118/118 119/119/119
f 120/120/120 121/121/121 122/122/122
f 123/123/123 124/124/124 125/125/125
f 126/126/126 127/127/127 128/128/128
f 129/129/129 130/130/130 131/131/131
f 130/130/130 132/132/132 131/131/131
f 44/44/44 4/4/4 133/133/133
f 4/4/4 22/22/22 133/133/133
f 96/96/96 95/95/95 134/134/134
f 95/95/95 135/135/135 134/134/134
f 136/136/136 137/137/137 138/138/138
f 137/137/137 139/139/139 138/138/138
f 140/140/140 141/141/141 142/142/142
f 141/141/141 143/143/143 142/142/142
f 144/144/144 145/145/145 146/146/146
f 145/145/145 147/147/147 146/146/146
f 141/141/141 148/148/148 143/143/143
f 148/148/148 149/149/149 143/143/143
f 150/150/150 136/136/136 151/151/151
f 136/136/136 138/138/138 151/151/151
f 152/152/152 153/153/153 154/154/154
f 153/153/153 155/155/155 154/154/154
f 156/156/156 157/157/157 158/158/158
f 159/159/159 160/160/160 161/161/161
f 162/162/162 163/163/163 164/164/164
f 165/165/165 166/166/166 167/167/167
f 168/168/168 169/169/169 170/170/170
f 169/169/169 171/171/171 170/170/170
f 17/17/17 19/19/19 172/172/172
f 19/19/19 173/173/173 172/172/172
f 8/8/8 5/5/5 174/174/174
f 5/5/5 175/175/175 174/174/174
f 87/87/87 17/17/17 176/176/176
f 17/17/17 172/172/172 176/176/176
f 3/3/3 2/2/2 177/177/177
f 2/2/2 178/178/178 177/177/177
f 89/89/89 87/87/87 179/179/179
f 87/87/87 176/176/176 179/179/179
f 180/180/180 181/181/181 182/182/182
f 181/181/181 183/183/183 182/182/182
f 132/132/132 130/130/130 184/184/184
f 130/130/130 185/185/185 184/184/184
f 44/44/44 133/133/133 186/186/186
f 133/133/133 187/187/187 186/186/186
f 115/115/115 116/116/116 188/188/188
f 116/116/116 189/189/189 188/188/188
f 43/43/43 44/44/44 190/190/190
f 44/44/44 186/186/186 190/190/190
f 191/191/191 42/42/42 192/192/192
f 42/42/42 193/193/193 192/192/192
f 194/194/194 195/195/195 196/196/196
f 195/195/195 197/197/197 196/196/196
f 115/115/115 188/188/188 198/198/198
f 188/188/188 199/199/199 198/198/198
f 93/93/93 96/96/96 200/200/200
f 96/96/96 201/201/201 200/200/200
f 196/196/196 197/197/197 202/202/202
f 197/197/197 203/203/203 202/202/202
f 198/198/198 199/199/199 39/39/39
f 199/199/199 204/204/204 39/39/39
f 200/200/200 201/201/201 205/205/205
f 201/201/201 206/206/206 205/205/205
g submesh1
f 207/207/207 208/208/208 209/209/209
f 208/208/208 210/210/210 209/209/209
f 207/207/207 209/209/209 211/211/211
f 209/209/209 212/212/212 211/211/211
f 213/213/213 214/214/214 215/215/215
f 216/216/216 217/217/217 218/218/218
f 219/219/219 220/220/220 221/221/221
f 222/222/222 219/219/219 221/221/221
f 223/223/223 219/219/219 222/222/222
f 224/224/224 223/223/223 222/222/222
f 225/225/225 226/226/226 227/227/227
f 228/228/228 225/225/225 227/227/227
f 229/229/229 207/207/207 211/211/211
f 230/230/230 229/229/229 211/211/211
f 231/231/231 232/232/232 233/233/233
f 234/234/234 235/235/235 236/236/236
f 237/237/237 238/238/238 239/239/239
f 240/240/240 241/241/241 242/242/242
f 243/243/243 244/244/244 245/245/245
f 244/244/244 246/246/246 245/245/245
f 247/247/247 248/248/248 249/249/249
f 248/248/248 250/250/250 249/249/249
f 251/251/251 252/252/252 253/253/253
f 252/252/252 254/254/254 253/253/253
f 255/255/255 247/247/247 256/256/256
f 247/247/247 249/249/249 256/256/256
f 252/252/252 257/257/257 254/254/254
f 257/257/257 258/258/258 254/254/254
f 248/248/248 251/251/251 250/250/250
f 251/251/251 253/253/253 250/250/250
f 259/259/259 260/260/260 261/261/261
f 262/262/262 263/263/263 264/264/264
f 265/265/265 266/266/266 267/267/267
f 268/268/268 269/269/269 270/270/270
f 257/257/257 255/255/255 258/258/258
f 255/255/255 256/256/256 258/258/258
f 210/210/210 208/208/208 271/271/271
f 208/208/208 272/272/272 271/271/271
f 273/273/273 274/274/274 275/275/275
f 274/274/274 276/276/276 275/275/275
f 208/208/208 273/273/273 272/272/272
f 273/273/273 275/275/275 272/272/272
f 228/228/228 227/227/227 277/277/277
f 227/227/227 278/278/278 277/277/277
f 279/279/279 230/230/230 280/280/280
f 230/230/230 281/281/281 280/280/280
f 282/282/282 283/283/283 284/284/284
f 283/283/283 285/285/285 284/284/284
g submesh2
f 286/286/286 287/287/287 288/288/288
f 287/287/287 289/289/289 288/288/288
