v 9 -14 9
v 10 -14 7
v 10 14 7
v 9 14 9
v -10 14 7
v -9 -14 9
v -9 14 9
v -10 -14 7
v 7 -14 10
v 9 -14 9
v 9 14 9
v 7 14 10
v 9 14 -9
v 7 -14 -10
v 7 14 -10
v 9 -14 -9
v 10 14 7
v 7 14 7
v 7 14 10
v 9 14 9
v 7 -14 10
v 10 -14 7
v 9 -14 9
v 7 -14 7
v 10 -14 7
v 10 -14 -7
v 10 14 -7
v 10 14 7
v 10 -14 -7
v 9 -14 -9
v 9 14 -9
v 10 14 -7
v -10 14 -7
v -10 -14 7
v -10 14 7
v -10 -14 -7
v -9 14 -9
v -10 -14 -7
v -10 14 -7
v -9 -14 -9
v 9 14 -9
v 7 14 -10
v 7 14 -7
v 10 14 -7
v 7 -14 -7
v 9 -14 -9
v 10 -14 -7
v 7 -14 -10
v -9 -14 9
v -7 -14 10
v -7 14 10
v -9 14 9
v -7 -14 10
v 7 -14 10
v 7 14 10
v -7 14 10
v -7 14 -10
v -9 -14 -9
v -9 14 -9
v -7 -14 -10
v 7 14 -10
v -7 -14 -10
v -7 14 -10
v 7 -14 -10
v -7 14 7
v -7 14 10
v -10 14 7
v -9 14 9
v -7 -14 10
v -7 -14 7
v -9 -14 9
v -10 -14 7
v -7 14 -10
v -7 14 -7
v -9 14 -9
v -10 14 -7
v -7 -14 -7
v -7 -14 -10
v -10 -14 -7
v -9 -14 -9
vn 0.8944272 0 0.4472136
vn 0.8944272 0 0.4472136
vn 0.8944272 0 0.4472136
vn 0.8944272 0 0.4472136
vn -0.8944272 0 0.4472136
vn -0.8944272 0 0.4472136
vn -0.8944272 0 0.4472136
vn -0.8944272 0 0.4472136
vn 0.4472136 0 0.8944272
vn 0.4472136 0 0.8944272
vn 0.4472136 0 0.8944272
vn 0.4472136 0 0.8944272
vn 0.4472136 0 -0.8944272
vn 0.4472136 0 -0.8944272
vn 0.4472136 0 -0.8944272
vn 0.4472136 0 -0.8944272
vn 0 1 0
vn 0 1 0
vn 0 1 0
vn 0 1 0
vn 0 -1 0
vn 0 -1 0
vn 0 -1 0
vn 0 -1 0
vn 1 0 0
vn 1 0 0
vn 1 0 0
vn 1 0 0
vn 0.8944272 0 -0.4472136
vn 0.8944272 0 -0.4472136
vn 0.8944272 0 -0.4472136
vn 0.8944272 0 -0.4472136
vn -1 0 0
vn -1 0 0
vn -1 0 0
vn -1 0 0
vn -0.8944272 0 -0.4472136
vn -0.8944272 0 -0.4472136
vn -0.8944272 0 -0.4472136
vn -0.8944272 0 -0.4472136
vn 0 1 0
vn 0 1 0
vn 0 1 0
vn 0 1 0
vn 0 -1 0
vn 0 -1 0
vn 0 -1 0
vn 0 -1 0
vn -0.4472136 0 0.8944272
vn -0.4472136 0 0.8944272
vn -0.4472136 0 0.8944272
vn -0.4472136 0 0.8944272
vn 0 0 1
vn 0 0 1
vn 0 0 1
vn 0 0 1
vn -0.4472136 0 -0.8944272
vn -0.4472136 0 -0.8944272
vn -0.4472136 0 -0.8944272
vn -0.4472136 0 -0.8944272
vn 0 0 -1
vn 0 0 -1
vn 0 0 -1
vn 0 0 -1
vn 0 1 0
vn 0 1 0
vn 0 1 0
vn 0 1 0
vn 0 -1 0
vn 0 -1 0
vn 0 -1 0
vn 0 -1 0
vn 0 1 0
vn 0 1 0
vn 0 1 0
vn 0 1 0
vn 0 -1 0
vn 0 -1 0
vn 0 -1 0
vn 0 -1 0
vt 9 -14
vt 7 -14
vt 7 14
vt 9 14
vt -7 14
vt -9 -14
vt -9 14
vt -7 -14
vt -7 -14
vt -9 -14
vt -9 14
vt -7 14
vt 9 14
vt 7 -14
vt 7 14
vt 9 -14
vt 10 7
vt 7 7
vt 7 10
vt 9 9
vt -7 10
vt -10 7
vt -9 9
vt -7 7
vt 7 -14
vt -7 -14
vt -7 14
vt 7 14
vt -7 -14
vt -9 -14
vt -9 14
vt -7 14
vt 7 14
vt -7 -14
vt -7 14
vt 7 -14
vt 9 14
vt 7 -14
vt 7 14
vt 9 -14
vt 9 -9
vt 7 -10
vt 7 -7
vt 10 -7
vt -7 -7
vt -9 -9
vt -10 -7
vt -7 -10
vt 9 -14
vt 7 -14
vt 7 14
vt 9 14
vt 7 -14
vt -7 -14
vt -7 14
vt 7 14
vt -7 14
vt -9 -14
vt -9 14
vt -7 -14
vt 7 14
vt -7 -14
vt -7 14
vt 7 -14
vt -7 7
vt -7 10
vt -10 7
vt -9 9
vt 7 10
vt 7 7
vt 9 9
vt 10 7
vt -7 -10
vt -7 -7
vt -9 -9
vt -10 -7
vt 7 -7
vt 7 -10
vt 10 -7
vt 9 -9
g submesh0
f 1/1/1 2/2/2 3/3/3
f 4/4/4 1/1/1 3/3/3
f 5/5/5 6/6/6 7/7/7
f 5/5/5 8/8/8 6/6/6
f 9/9/9 10/10/10 11/11/11
f 12/12/12 9/9/9 11/11/11
f 13/13/13 14/14/14 15/15/15
f 13/13/13 16/16/16 14/14/14
f 17/17/17 18/18/18 19/19/19
f 20/20/20 17/17/17 19/19/19
f 21/21/21 22/22/22 23/23/23
f 21/21/21 24/24/24 22/22/22
f 25/25/25 26/26/26 27/27/27
f 28/28/28 25/25/25 27/27/27
f 29/29/29 30/30/30 31/31/31
f 32/32/32 29/29/29 31/31/31
f 33/33/33 34/34/34 35/35/35
f 33/33/33 36/36/36 34/34/34
f 37/37/37 38/38/38 39/39/39
f 37/37/37 40/40/40 38/38/38
f 41/41/41 42/42/42 43/43/43
f 44/44/44 41/41/41 43/43/43
f 44/44/44 43/43/43 18/18/18
f 17/17/17 44/44/44 18/18/18
f 45/45/45 46/46/46 47/47/47
f 45/45/45 48/48/48 46/46/46
f 24/24/24 47/47/47 22/22/22
f 24/24/24 45/45/45 47/47/47
f 49/49/49 50/50/50 51/51/51
f 52/52/52 49/49/49 51/51/51
f 53/53/53 54/54/54 55/55/55
f 56/56/56 53/53/53 55/55/55
f 57/57/57 58/58/58 59/59/59
f 57/57/57 60/60/60 58/58/58
f 61/61/61 62/62/62 63/63/63
f 61/61/61 64/64/64 62/62/62
f 18/18/18 65/65/65 66/66/66
f 19/19/19 18/18/18 66/66/66
f 65/65/65 67/67/67 68/68/68
f 66/66/66 65/65/65 68/68/68
f 69/69/69 24/24/24 21/21/21
f 69/69/69 70/70/70 24/24/24
f 71/71/71 70/70/70 69/69/69
f 71/71/71 72/72/72 70/70/70
f 42/42/42 73/73/73 74/74/74
f 43/43/43 42/42/42 74/74/74
f 73/73/73 75/75/75 76/76/76
f 74/74/74 73/73/73 76/76/76
f 43/43/43 74/74/74 65/65/65
f 18/18/18 43/43/43 65/65/65
f 74/74/74 76/76/76 67/67/67
f 65/65/65 74/74/74 67/67/67
f 77/77/77 48/48/48 45/45/45
f 77/77/77 78/78/78 48/48/48
f 79/79/79 78/78/78 77/77/77
f 79/79/79 80/80/80 78/78/78
f 70/70/70 45/45/45 24/24/24
f 70/70/70 77/77/77 45/45/45
f 72/72/72 77/77/77 70/70/70
f 72/72/72 79/79/79 77/77/77
