v -2 -2 11
v 2 -1.999999 9.000001
v -2 2.000015 11
v 2 2.000015 9.000005
v 6 -1.999999 7.000005
v 6 -2.000011 5
v 6 2.000015 7.000008
v 6 1.999999 5.000004
v 2 -2.000007 7.000001
v -2 -2.000005 9.000001
v 2 2 7.000004
v -2 1.999998 9.000005
v -6 -2.000006 9.000001
v -6 -2.000002 11
v -6 1.999998 9.000005
v -6 2.000015 11
v -2 2.000015 11
v 2 2.000015 9.000005
v -2 1.999998 9.000005
v 2 2 7.000004
v -2 -2.000005 9.000001
v 2 -2.000007 7.000001
v -2 -2 11
v 2 -1.999999 9.000001
v 6 -1.999999 7.000005
v 6 -2.000011 5
v 6 2.000015 7.000008
v 6 -1.999999 7.000005
v 6 -2.000011 5
v 6 1.999999 5.000004
v 6 1.999999 5.000004
v 6 2.000015 7.000008
v -2 -6.000012 8.999997
v -2 -6.000011 11
v -6 -6.000012 8.999997
v -6 -6.000011 11
v -2 1.999998 9.000005
v -2 -2.000005 9.000001
v -6 1.999998 9.000005
v -6 -2.000006 9.000001
v -2 -2 11
v -2 2.000015 11
v -6 -2.000002 11
v -6 2.000015 11
v -2 2.000015 11
v -2 1.999998 9.000005
v -6 2.000015 11
v -6 1.999998 9.000005
v -2 -2.000005 9.000001
v -2 -2 11
v -2 -6.000012 8.999997
v -2 -6.000011 11
v -6 -6.000012 8.999997
v -2 -6.000012 8.999997
v -2 -6.000011 11
v -6 -6.000011 11
v -6 -6.000011 11
v -6 -6.000012 8.999997
vn 0.4472136 -8.529889E-07 0.8944272
vn 0.4472136 -8.529891E-07 0.8944272
vn 0.4472136 -8.529891E-07 0.8944272
vn 0.4472136 -8.529893E-07 0.8944272
vn 1 0 0
vn 1 0 0
vn 1 0 0
vn 1 0 0
vn -0.4472136 7.463671E-07 -0.8944272
vn -0.4472136 7.996794E-07 -0.8944272
vn -0.4472136 7.996794E-07 -0.8944272
vn -0.4472137 8.529917E-07 -0.8944271
vn -1 0 0
vn -1 0 0
vn -1 0 0
vn -1 0 0
vn -4.291534E-06 1 -8.702278E-06
vn -4.291534E-06 1 -8.22544E-06
vn -4.291534E-06 1 -8.22544E-06
vn -4.291534E-06 1 -7.748602E-06
vn 4.768372E-07 -1 2.026558E-06
vn 1.430511E-06 -1 2.980232E-06
vn 1.430511E-06 -1 2.980232E-06
vn 2.384186E-06 -1 3.933907E-06
vn 1.907344E-06 -1 4.887575E-06
vn 1.907343E-06 -1 5.841242E-06
vn 0.447213 -7.996778E-07 0.8944275
vn 0.4472129 -7.46366E-07 0.8944275
vn -0.4472137 7.463666E-07 -0.8944271
vn -0.4472137 7.463662E-07 -0.8944271
vn -3.81469E-06 1 -7.748595E-06
vn -3.814682E-06 1 -7.748587E-06
vn 0 -1 2.384185E-07
vn 0 -1 2.384185E-07
vn 0 -1 2.384185E-07
vn 0 -1 2.384185E-07
vn 0 9.536737E-07 -1
vn -2.273734E-13 9.536735E-07 -1
vn -2.273734E-13 9.536735E-07 -1
vn -4.547469E-13 9.536733E-07 -1
vn 4.547456E-13 -9.536706E-07 1
vn 2.273728E-13 -9.536703E-07 1
vn 2.273728E-13 -9.536703E-07 1
vn 0 -9.536701E-07 1
vn 0 1 -8.702278E-06
vn 0 1 -8.702278E-06
vn 0 1 -8.702278E-06
vn 0 1 -8.702278E-06
vn 1 0 0
vn 1 0 0
vn 1 0 0
vn 1 0 0
vn -2.273734E-13 9.536727E-07 -1
vn 0 9.536725E-07 -1
vn 1.705298E-13 -7.15254E-07 1
vn 0 -7.152541E-07 1
vn -1 0 0
vn -1 0 0
vt 6.708204 -1.999993
vt 2.236068 -1.999991
vt 6.708206 2.000023
vt 2.23607 2.000023
vt 7.000005 -1.999999
vt 5 -2.000011
vt 7.000008 2.000015
vt 5.000004 1.999999
vt -1.341641 -2.000001
vt -5.813777 -1.999999
vt -1.341643 2.000005
vt -5.813779 2.000003
vt -9.000001 -2.000006
vt -11 -2.000002
vt -9.000005 1.999998
vt -11 2.000015
vt -1.999991 11.00002
vt 2.000009 9.000022
vt -1.999991 9.000022
vt 2.000009 7.000021
vt 2.000001 8.999997
vt -1.999999 6.999997
vt 2.000001 11
vt -1.999999 8.999997
vt -5.999996 6.999997
vt -5.999996 4.999992
vt -2.23607 2.000022
vt -2.236072 -1.999991
vt 3.130494 -2.000005
vt 3.130493 2.000005
vt 6.000008 5.000019
vt 6.000008 7.000023
vt 2 8.999995
vt 2 11
vt 6 8.999995
vt 6 11
vt -2 2.000006
vt -2 -1.999996
vt -6 2.000006
vt -6 -1.999998
vt 2 -1.99999
vt 2 2.000026
vt 6 -1.999992
vt 6 2.000026
vt -2 11.00002
vt -2 9.000022
vt -6 11.00002
vt -6 9.000022
vt 9.000001 -2.000005
vt 11 -2
vt 8.999997 -6.000012
vt 11 -6.000011
vt -6 -6.000003
vt -2 -6.000003
vt 2 -6.000004
vt 6 -6.000004
vt -11 -6.000011
vt -8.999997 -6.000012
g submesh0
f 1/1/1 2/2/2 3/3/3
f 2/2/2 4/4/4 3/3/3
f 5/5/5 6/6/6 7/7/7
f 6/6/6 8/8/8 7/7/7
f 9/9/9 10/10/10 11/11/11
f 10/10/10 12/12/12 11/11/11
f 13/13/13 14/14/14 15/15/15
f 14/14/14 16/16/16 15/15/15
f 17/17/17 18/18/18 19/19/19
f 18/18/18 20/20/20 19/19/19
f 21/21/21 22/22/22 23/23/23
f 22/22/22 24/24/24 23/23/23
f 24/24/24 22/22/22 25/25/25
f 22/22/22 26/26/26 25/25/25
f 4/4/4 2/2/2 27/27/27
f 2/2/2 28/28/28 27/27/27
f 9/9/9 11/11/11 29/29/29
f 11/11/11 30/30/30 29/29/29
f 20/20/20 18/18/18 31/31/31
f 18/18/18 32/32/32 31/31/31
f 33/33/33 34/34/34 35/35/35
f 34/34/34 36/36/36 35/35/35
f 37/37/37 38/38/38 39/39/39
f 38/38/38 40/40/40 39/39/39
f 41/41/41 42/42/42 43/43/43
f 42/42/42 44/44/44 43/43/43
f 45/45/45 46/46/46 47/47/47
f 46/46/46 48/48/48 47/47/47
f 49/49/49 50/50/50 51/51/51
f 50/50/50 52/52/52 51/51/51
f 40/40/40 38/38/38 53/53/53
f 38/38/38 54/54/54 53/53/53
f 41/41/41 43/43/43 55/55/55
f 43/43/43 56/56/56 55/55/55
f 14/14/14 13/13/13 57/57/57
f 13/13/13 58/58/58 57/57/57
