v -2 -1.999999 11
v 0 -2 10
v -2 -5.960455E-07 11
v 0 2.384195E-07 10
v 0 -2 10
v 0 -1.999999 -2
v 0 2.384195E-07 10
v 0 2.145767E-06 -2
v 0 -1.999999 -2
v -2 -2 -2
v 0 2.145767E-06 -2
v -2 2.145767E-06 -2
v -2 -2 -2
v -2 -1.999999 11
v -2 2.145767E-06 -2
v -2 -5.960455E-07 11
v -2 -5.960455E-07 11
v 0 2.384195E-07 10
v -2 2.145767E-06 -2
v 0 2.145767E-06 -2
v -2 -2 -2
v 0 -1.999999 -2
v -2 -1.999999 11
v 0 -2 10
vn 0.4472136 -4.264965E-07 0.8944272
vn 0.4472136 -4.264963E-07 0.8944272
vn 0.4472136 -4.264963E-07 0.8944272
vn 0.4472136 -4.264961E-07 0.8944272
vn 1 0 0
vn 1 0 0
vn 1 0 0
vn 1 0 0
vn 2.384186E-07 -1.192092E-07 -1
vn 1.192093E-07 -2.842171E-14 -1
vn 1.192093E-07 -2.842171E-14 -1
vn 0 1.192092E-07 -1
vn -1 0 0
vn -1 0 0
vn -1 0 0
vn -1 0 0
vn -3.117782E-07 1 2.109087E-07
vn -1.558891E-07 1 1.849271E-07
vn -1.558891E-07 1 1.849271E-07
vn 0 1 1.589456E-07
vn 4.768371E-07 -1 8.252951E-08
vn -4.967056E-08 -1 1.528324E-09
vn -4.967056E-08 -1 1.528324E-09
vn -5.761783E-07 -1 -7.947286E-08
vt 6.708204 -1.999995
vt 4.472136 -1.999996
vt 6.708204 3.218655E-06
vt 4.472136 4.05312E-06
vt 10 -2
vt -2 -1.999999
vt 10 2.384195E-07
vt -2 2.145767E-06
vt -4.768372E-07 -1.999999
vt -2 -2
vt -4.768372E-07 2.384186E-06
vt -2 2.384186E-06
vt 2 -2
vt -11 -1.999999
vt 2 2.145767E-06
vt -11 -5.960455E-07
vt -2 11
vt 7.4334E-14 10
vt -2 -2
vt 6.690034E-13 -2
vt 2.000001 -2
vt 9.536738E-07 -2
vt 2.000001 11
vt 9.536743E-07 10
g submesh0
f 1/1/1 2/2/2 3/3/3
f 2/2/2 4/4/4 3/3/3
f 5/5/5 6/6/6 7/7/7
f 6/6/6 8/8/8 7/7/7
f 9/9/9 10/10/10 11/11/11
f 10/10/10 12/12/12 11/11/11
f 13/13/13 14/14/14 15/15/15
f 14/14/14 16/16/16 15/15/15
f 17/17/17 18/18/18 19/19/19
f 18/18/18 20/20/20 19/19/19
f 21/21/21 22/22/22 23/23/23
f 22/22/22 24/24/24 23/23/23
