v -2 -1.999997 20
v 2 -1.999997 20
v -2 2.000024 20
v 2 2.000024 20
v 2 -1.239777E-05 16
v -2 -1.239777E-05 16
v 2 2.000003 16
v -2 2.000003 16
v 2 2.000024 20
v 2 -1.999997 20
v 2 2.000013 18
v 2 -1.999998 18
v 2 2.000003 16
v 2 -1.239777E-05 16
v -2 2.000003 16
v -2 -1.239777E-05 16
v -2 -1.999998 18
v -2 2.000013 18
v -2 -1.999997 20
v -2 2.000024 20
v 2 4.999986 18
v -2 3.000013 18
v -2 3.000024 20
v 2 4.999984 20
v 2 4.999988 16
v -2 3.000003 16
v -2 -1.999998 18
v 2 -1.239777E-05 16
v 2 -1.999998 18
v -2 -1.239777E-05 16
v -2 -1.999997 20
v 2 -1.999998 18
v 2 -1.999997 20
v -2 -1.999998 18
v -2 3.000013 18
v -2 3.000024 20
v 2 4.999984 20
v 2 4.999986 18
v -2 2.000024 20
v 2 2.000024 20
v -2 3.000024 20
v 2 4.999984 20
v 2 4.999988 16
v -2 3.000003 16
v -2 3.000003 16
v 2 4.999988 16
vn 0 -9.536694E-07 1
vn 0 -9.536694E-07 1
vn 0 -9.536694E-07 1
vn 0 -9.536694E-07 1
vn 0 0 -1
vn 0 0 -1
vn 0 0 -1
vn 0 0 -1
vn 1 0 0
vn 1 0 0
vn 1 0 0
vn 1 0 0
vn 1 0 0
vn 1 0 0
vn -1 0 0
vn -1 0 0
vn -1 0 0
vn -1 0 0
vn -1 0 0
vn -1 0 0
vn -0.4472076 0.8944302 -1.97255E-06
vn -0.4472086 0.8944297 -4.584846E-06
vn -0.4472076 0.8944302 -1.97255E-06
vn -0.4472066 0.8944307 6.397467E-07
vn -0.4472097 0.8944291 -1.865924E-06
vn -0.4472108 0.8944286 -4.584842E-06
vn 0 -0.7071087 -0.7071049
vn 0 -0.7071087 -0.7071049
vn 0 -0.7071087 -0.7071049
vn 0 -0.7071087 -0.7071049
vn 0 -1 3.576279E-07
vn 0 -1 3.576279E-07
vn 0 -1 3.576279E-07
vn 0 -1 3.576279E-07
vn -1 0 0
vn -1 0 0
vn 1 0 0
vn 1 0 0
vn 0 5.722046E-06 1
vn -7.152557E-07 2.861023E-06 1
vn -7.152557E-07 2.861023E-06 1
vn -1.430511E-06 0 1
vn 1.78813E-06 -2.384186E-06 -1
vn 3.57626E-06 -4.768372E-06 -1
vn -1 0 0
vn 1 0 0
vt 2 -1.999978
vt -2 -1.999978
vt 2 2.000043
vt -2 2.000043
vt 2 -1.239777E-05
vt -2 -1.239777E-05
vt 2 2.000003
vt -2 2.000003
vt 20 2.000024
vt 20 -1.999997
vt 18 2.000013
vt 18 -1.999998
vt 16 2.000003
vt 16 -1.239777E-05
vt -16 2.000003
vt -16 -1.239777E-05
vt -18 -1.999998
vt -18 2.000013
vt -20 -1.999997
vt -20 2.000024
vt 4.024896 18.00002
vt -0.4472275 18.00002
vt -0.4472229 20.00002
vt 4.024896 20.00002
vt 4.024906 16.00002
vt -0.4472232 16.00002
vt 2 17.3952
vt -2 14.78209
vt -2 17.3952
vt 2 14.78209
vt 2 19.24297
vt -2 17.3952
vt -2 19.24297
vt 2 17.3952
vt -18 3.000013
vt -20 3.000024
vt 20 4.999984
vt 18 4.999986
vt 2 1.999909
vt -2 1.999909
vt 2 2.999909
vt -2 4.99987
vt 2 4.999988
vt -2 3.000003
vt -16 3.000003
vt 16 4.999988
g submesh0
f 1/1/1 2/2/2 3/3/3
f 2/2/2 4/4/4 3/3/3
f 5/5/5 6/6/6 7/7/7
f 6/6/6 8/8/8 7/7/7
f 9/9/9 10/10/10 11/11/11
f 10/10/10 12/12/12 11/11/11
f 11/11/11 12/12/12 13/13/13
f 12/12/12 14/14/14 13/13/13
f 15/15/15 16/16/16 17/17/17
f 15/15/15 17/17/17 18/18/18
f 18/18/18 17/17/17 19/19/19
f 18/18/18 19/19/19 20/20/20
f 21/21/21 22/22/22 23/23/23
f 24/24/24 21/21/21 23/23/23
f 25/25/25 26/26/26 22/22/22
f 21/21/21 25/25/25 22/22/22
f 27/27/27 28/28/28 29/29/29
f 27/27/27 30/30/30 28/28/28
f 31/31/31 32/32/32 33/33/33
f 31/31/31 34/34/34 32/32/32
f 18/18/18 20/20/20 35/35/35
f 20/20/20 36/36/36 35/35/35
f 9/9/9 11/11/11 37/37/37
f 11/11/11 38/38/38 37/37/37
f 39/39/39 40/40/40 41/41/41
f 40/40/40 42/42/42 41/41/41
f 7/7/7 8/8/8 43/43/43
f 8/8/8 44/44/44 43/43/43
f 15/15/15 18/18/18 45/45/45
f 18/18/18 35/35/35 45/45/45
f 11/11/11 13/13/13 38/38/38
f 13/13/13 46/46/46 38/38/38
