v -2 -1.999997 13
v 0 -1.999997 13
v -2 -1.19208E-07 13
v 0 -1.19208E-07 13
v 0 -1.999997 13
v 0 -1.999999 -2
v 0 -1.19208E-07 13
v 0 2.145767E-06 -2
v 0 -1.999999 -2
v -2 -2 -2
v 0 2.145767E-06 -2
v -2 2.145767E-06 -2
v -2 -2 -2
v -2 -1.999997 13
v -2 2.145767E-06 -2
v -2 -1.19208E-07 13
v -2 -1.19208E-07 13
v 0 -1.19208E-07 13
v -2 2.145767E-06 -2
v 0 2.145767E-06 -2
v -2 -2 -2
v 0 -1.999999 -2
v -2 -1.999997 13
v 0 -1.999997 13
vn 2.27374E-13 -4.768378E-07 1
vn 1.13687E-13 -4.768379E-07 1
vn 1.13687E-13 -4.768379E-07 1
vn 0 -4.76838E-07 1
vn 1 0 0
vn 1 0 0
vn 1 0 0
vn 1 0 0
vn 2.384186E-07 -1.192092E-07 -1
vn 1.192093E-07 -2.842171E-14 -1
vn 1.192093E-07 -2.842171E-14 -1
vn 0 1.192092E-07 -1
vn -1 0 0
vn -1 0 0
vn -1 0 0
vn -1 0 0
vn 0 1 1.509983E-07
vn 0 1 1.509983E-07
vn 0 1 1.509983E-07
vn 0 1 1.509983E-07
vn 4.768371E-07 -1 1.66893E-07
vn 4.768372E-07 -1 1.66893E-07
vn 4.768372E-07 -1 1.66893E-07
vn 4.768372E-07 -1 1.66893E-07
vt 2 -1.999991
vt 2.955862E-12 -1.99999
vt 2 6.079684E-06
vt 2.955862E-12 6.079684E-06
vt 13 -1.999997
vt -2 -1.999999
vt 13 -1.19208E-07
vt -2 2.145767E-06
vt -4.768372E-07 -1.999999
vt -2 -2
vt -4.768372E-07 2.384186E-06
vt -2 2.384186E-06
vt 2 -2
vt -13 -1.999997
vt 2 2.145767E-06
vt -13 -1.19208E-07
vt -2 13
vt 0 13
vt -2 -2
vt 0 -2
vt 2.000001 -2
vt 9.536738E-07 -2
vt 2.000001 13
vt 9.536726E-07 13
g submesh0
f 1/1/1 2/2/2 3/3/3
f 2/2/2 4/4/4 3/3/3
f 5/5/5 6/6/6 7/7/7
f 6/6/6 8/8/8 7/7/7
f 9/9/9 10/10/10 11/11/11
f 10/10/10 12/12/12 11/11/11
f 13/13/13 14/14/14 15/15/15
f 14/14/14 16/16/16 15/15/15
f 17/17/17 18/18/18 19/19/19
f 18/18/18 20/20/20 19/19/19
f 21/21/21 22/22/22 23/23/23
f 22/22/22 24/24/24 23/23/23
