v -2 -4 12
v 2 -4 12
v -2 -2 12
v 2 -2 12
v 6 -4 8
v 6 -4 -8
v 6 -2 8
v 6 -2 -8
v 2 -4 -8
v -2 -4 -8
v 2 1 -8
v -2 1 -8
v -6 -4 -8
v -6 -4 8
v -6 1 -8
v -6 1 8
v -2 1 8
v 2 1 8
v -2 1 -8
v 2 1 -8
v -2 -4 -8
v 2 -4 -8
v -2 -4 8
v 2 -4 8
v -2 -4 12
v 2 -4 12
v -2 1 8
v -2 -4 8
v -2 -2 12
v -2 -4 12
v 6 -4 12
v 6 -3 12
v 2 1 8
v -2 1 8
v 2 -2 12
v -2 -2 12
v 6 -4 -8
v 6 -2 -8
v 6 -4 12
v 6 -4 8
v 2 1 8
v 2 -2 12
v 6 -2 8
v 6 -3 12
v 6 -3 12
v 6 -4 12
v 6 -4 -8
v 2 1 -8
v 2 1 8
v 6 -2 -8
v 6 -2 8
v -6 -4 -8
v -6 -4 8
v -6 1 -8
v -6 -4 -8
v -2 -4 8
v -2 1 8
v -6 -4 8
v -6 1 8
v -6 1 8
v -6 1 -8
vn 0 0 1
vn 0 0 1
vn 0 0 1
vn 0 0 1
vn 1 0 0
vn 1 0 0
vn 1 0 0
vn 1 0 0
vn 0 0 -1
vn 0 0 -1
vn 0 0 -1
vn 0 0 -1
vn -1 0 0
vn -1 0 0
vn -1 0 0
vn -1 0 0
vn 0 1 0
vn 0 1 0
vn 0 1 0
vn 0 1 0
vn 0 -1 0
vn 0 -1 0
vn 0 -1 0
vn 0 -1 0
vn 0 -1 0
vn 0 -1 0
vn -1 0 0
vn -1 0 0
vn -1 0 0
vn -1 0 0
vn 1 0 0
vn 1 0 0
vn 0 0.8 0.6
vn 0 0.8 0.6
vn 0 0.8 0.6
vn 0 0.8 0.6
vn 0 0 -1
vn 0 0 -1
vn 0 -1 0
vn 0 -1 0
vn 0.5144957 0.6859943 0.5144957
vn 0.375099 0.8144016 0.375099
vn 0.375099 0.8144016 0.375099
vn 0.2357022 0.942809 0.2357022
vn 0 0 1
vn 0 0 1
vn 0 -1 0
vn 0.6 0.8 0
vn 0.6 0.8 0
vn 0.6 0.8 0
vn 0.6 0.8 0
vn 0 -1 0
vn 0 -1 0
vn 0 0 -1
vn 0 0 -1
vn 0 0 1
vn 0 0 1
vn 0 0 1
vn 0 0 1
vn 0 1 0
vn 0 1 0
vt 2 -4
vt -2 -4
vt 2 -2
vt -2 -2
vt 8 -4
vt -8 -4
vt 8 -2
vt -8 -2
vt 2 -4
vt -2 -4
vt 2 1
vt -2 1
vt 8 -4
vt -8 -4
vt 8 1
vt -8 1
vt -2 8
vt 2 8
vt -2 -8
vt 2 -8
vt 2 -8
vt -2 -8
vt 2 8
vt -2 8
vt 2 12
vt -2 12
vt -8 1
vt -8 -4
vt -12 -2
vt -12 -4
vt 12 -4
vt 12 -3
vt 2 5.8
vt -2 5.8
vt 2 10.8
vt -2 10.8
vt 6 -4
vt 6 -2
vt -6 12
vt -6 8
vt 1 5.830952
vt 2.8 10.49571
vt 6 5.830952
vt 6.6 9.67252
vt -6 -3
vt -6 -4
vt -6 -8
vt 1 -8
vt 1 8
vt 6 -8
vt 6 8
vt 6 -8
vt 6 8
vt -6 1
vt -6 -4
vt 2 -4
vt 2 1
vt 6 -4
vt 6 1
vt -6 8
vt -6 -8
g submesh0
f 1/1/1 2/2/2 3/3/3
f 2/2/2 4/4/4 3/3/3
f 5/5/5 6/6/6 7/7/7
f 6/6/6 8/8/8 7/7/7
f 9/9/9 10/10/10 11/11/11
f 10/10/10 12/12/12 11/11/11
f 13/13/13 14/14/14 15/15/15
f 14/14/14 16/16/16 15/15/15
f 17/17/17 18/18/18 19/19/19
f 18/18/18 20/20/20 19/19/19
f 21/21/21 22/22/22 23/23/23
f 22/22/22 24/24/24 23/23/23
f 23/23/23 24/24/24 25/25/25
f 24/24/24 26/26/26 25/25/25
f 27/27/27 28/28/28 29/29/29
f 28/28/28 30/30/30 29/29/29
f 5/5/5 7/7/7 31/31/31
f 7/7/7 32/32/32 31/31/31
f 33/33/33 34/34/34 35/35/35
f 34/34/34 36/36/36 35/35/35
f 9/9/9 11/11/11 37/37/37
f 11/11/11 38/38/38 37/37/37
f 26/26/26 24/24/24 39/39/39
f 24/24/24 40/40/40 39/39/39
f 41/41/41 42/42/42 43/43/43
f 42/42/42 44/44/44 43/43/43
f 4/4/4 2/2/2 45/45/45
f 2/2/2 46/46/46 45/45/45
f 24/24/24 22/22/22 40/40/40
f 22/22/22 47/47/47 40/40/40
f 48/48/48 49/49/49 50/50/50
f 49/49/49 51/51/51 50/50/50
f 21/21/21 23/23/23 52/52/52
f 23/23/23 53/53/53 52/52/52
f 12/12/12 10/10/10 54/54/54
f 10/10/10 55/55/55 54/54/54
f 56/56/56 57/57/57 58/58/58
f 57/57/57 59/59/59 58/58/58
f 17/17/17 19/19/19 60/60/60
f 19/19/19 61/61/61 60/60/60
