v -2 1 24
v 2 1 24
v -2 2 24
v 2 2 24
v 3 1 19
v 2 1 0
v 3 2 19
v 2 2 0
v 2 1 0
v -2 1 0
v 2 2 0
v -2 2 0
v -2 1 0
v -2 1 20
v -2 2 0
v -2 2 20
v -2 2 20
v 3 2 19
v -2 2 0
v 2 2 0
v -2 1 0
v 2 1 0
v -2 1 20
v 3 1 19
v -2 1 24
v 2 1 24
v -2 2 24
v -2 1 24
v 6 1 20
v 6 2 20
v 6 1 24
v 6 2 24
v 2 2 24
v -2 2 24
v 3 1 19
v 3 2 19
v 6 1 20
v 6 2 20
v 2 -2 22
v 3 -2 19
v 6 -2 22
v 6 -2 20
v 6 2 20
v 6 2 24
v 3 -1 31
v 3 -2 31
v 7 -1 31
v 7 -2 31
v 2 1 24
v 3 1 19
v 2 -2 22
v 3 -2 19
v 6 1 24
v 2 1 24
v 6 -2 22
v 2 -2 22
v 3 -2 19
v 6 -2 20
v 6 -2 20
v 6 -2 22
v 2 2 24
v 2 1 24
v 3 -1 31
v 3 -2 31
v 6 2 24
v 2 2 24
v 7 -1 31
v 3 -1 31
v 2 1 24
v 6 1 24
v 3 -2 31
v 7 -2 31
v 6 1 24
v 6 2 24
v 7 -2 31
v 7 -1 31
vn 0 0 1
vn 0 0 1
vn 0 0 1
vn 0 0 1
vn 0.9986178 0 -0.05255884
vn 0.9986178 0 -0.05255884
vn 0.9986178 0 -0.05255884
vn 0.9986178 0 -0.05255884
vn 0 0 -1
vn 0 0 -1
vn 0 0 -1
vn 0 0 -1
vn -1 0 0
vn -1 0 0
vn -1 0 0
vn -1 0 0
vn 0 1 0
vn 0 1 0
vn 0 1 0
vn 0 1 0
vn 0 -1 0
vn 0 -1 0
vn 0 -1 0
vn 0 -1 0
vn 0 -1 0
vn 0 -1 0
vn -1 0 0
vn -1 0 0
vn 1 0 0
vn 1 0 0
vn 1 0 0
vn 1 0 0
vn 0 1 0
vn 0 1 0
vn 0.3162278 0 -0.9486833
vn 0.3162278 0 -0.9486833
vn 0.3162278 0 -0.9486833
vn 0.3162278 0 -0.9486833
vn 0 -1 0
vn 0 -1 0
vn 0 -1 0
vn 0 -1 0
vn 0 1 0
vn 0 1 0
vn 0 0 1
vn 0 0 1
vn 0 0 1
vn 0 0 1
vn -0.9723056 0.1296408 -0.1944611
vn -0.9604945 0.06482038 -0.2553445
vn -0.9604945 0.06482038 -0.2553445
vn -0.9486833 0 -0.3162278
vn 0 -0.5547002 0.8320503
vn 0 -0.5547002 0.8320503
vn 0 -0.5547002 0.8320503
vn 0 -0.5547002 0.8320503
vn 0.3162278 0 -0.9486833
vn 0.3162278 0 -0.9486833
vn 1 0 0
vn 1 0 0
vn -0.9899495 0 0.1414214
vn -0.9899495 0 0.1414214
vn -0.9899495 0 0.1414214
vn -0.9899495 0 0.1414214
vn 0 0.919145 0.3939193
vn 0 0.919145 0.3939193
vn 0 0.919145 0.3939193
vn 0 0.919145 0.3939193
vn 0 -0.919145 -0.3939193
vn 0 -0.919145 -0.3939193
vn 0 -0.919145 -0.3939193
vn 0 -0.919145 -0.3939193
vn 0.9899495 0 -0.1414214
vn 0.9899495 0 -0.1414214
vn 0.9899495 0 -0.1414214
vn 0.9899495 0 -0.1414214
vt 2 1
vt -2 1
vt 2 2
vt -2 2
vt 19.13141 1
vt 0.1051177 1
vt 19.13141 2
vt 0.1051177 2
vt 2 1
vt -2 1
vt 2 2
vt -2 2
vt 0 1
vt -20 1
vt 0 2
vt -20 2
vt -2 20
vt 3 19
vt -2 0
vt 2 0
vt 2 0
vt -2 0
vt 2 20
vt -3 19
vt 2 24
vt -2 24
vt -24 2
vt -24 1
vt 20 1
vt 20 2
vt 24 1
vt 24 2
vt 2 24
vt -2 24
vt 8.854378 1
vt 8.854378 2
vt 12.01666 1
vt 12.01666 2
vt -2 22
vt -3 19
vt -6 22
vt -6 20
vt 6 20
vt 6 24
vt -3 -1
vt -3 -2
vt -7 -1
vt -7 -2
vt -23.1417 1.855999
vt -18.04268 1.855999
vt -21.18054 -1.169533
vt -18.04268 -1.118684
vt -6 14.14485
vt -2 14.14485
vt -6 10.5393
vt -2 10.5393
vt 8.854378 -2
vt 12.01665 -2
vt 20 -2
vt 22 -2
vt -24.04163 2
vt -24.04163 1
vt -31.1127 -1
vt -31.1127 -2
vt 6 21.27164
vt 2 21.27164
vt 7 28.88741
vt 3 28.88741
vt -2 21.66556
vt -6 21.66556
vt -3 29.28134
vt -7 29.28134
vt 24.60732 1
vt 24.60732 2
vt 31.67838 -2
vt 31.67838 -1
g submesh0
f 1/1/1 2/2/2 3/3/3
f 2/2/2 4/4/4 3/3/3
f 5/5/5 6/6/6 7/7/7
f 6/6/6 8/8/8 7/7/7
f 9/9/9 10/10/10 11/11/11
f 10/10/10 12/12/12 11/11/11
f 13/13/13 14/14/14 15/15/15
f 14/14/14 16/16/16 15/15/15
f 17/17/17 18/18/18 19/19/19
f 18/18/18 20/20/20 19/19/19
f 21/21/21 22/22/22 23/23/23
f 22/22/22 24/24/24 23/23/23
f 23/23/23 24/24/24 25/25/25
f 24/24/24 26/26/26 25/25/25
f 16/16/16 14/14/14 27/27/27
f 14/14/14 28/28/28 27/27/27
f 29/29/29 30/30/30 31/31/31
f 30/30/30 32/32/32 31/31/31
f 18/18/18 17/17/17 33/33/33
f 17/17/17 34/34/34 33/33/33
f 35/35/35 36/36/36 37/37/37
f 36/36/36 38/38/38 37/37/37
f 39/39/39 40/40/40 41/41/41
f 40/40/40 42/42/42 41/41/41
f 18/18/18 33/33/33 43/43/43
f 33/33/33 44/44/44 43/43/43
f 45/45/45 46/46/46 47/47/47
f 46/46/46 48/48/48 47/47/47
f 49/49/49 50/50/50 51/51/51
f 50/50/50 52/52/52 51/51/51
f 53/53/53 54/54/54 55/55/55
f 54/54/54 56/56/56 55/55/55
f 35/35/35 37/37/37 57/57/57
f 37/37/37 58/58/58 57/57/57
f 29/29/29 31/31/31 59/59/59
f 31/31/31 60/60/60 59/59/59
f 61/61/61 62/62/62 63/63/63
f 62/62/62 64/64/64 63/63/63
f 65/65/65 66/66/66 67/67/67
f 66/66/66 68/68/68 67/67/67
f 69/69/69 70/70/70 71/71/71
f 70/70/70 72/72/72 71/71/71
f 73/73/73 74/74/74 75/75/75
f 74/74/74 76/76/76 75/75/75
