v 2 -2 -2
v -2 -2 -2
v 2 2 -2
v -2 2 -2
v 2 -2 2
v 2 -2 -2
v 2 2 -2
v 2 2.000002 2.000001
v -2 2 -2
v -2 -2 2
v -2 2.000002 2.000001
v -2 -2 -2
v 2 2 -2
v -2 2 -2
v -2 2.000002 2.000001
v 2 2.000002 2.000001
v -2 -2 2
v 2 -2 -2
v 2 -2 2
v -2 -2 -2
v 2 2.000005 6.000003
v 2 -2 6
v 2 2.000002 2.000001
v 2 -2 2
v -2 2.000002 2.000001
v -2 -2 2
v -2 -2 6
v -2 2.000005 6.000003
v 2 2.000002 2.000001
v -2 2.000002 2.000001
v -2 2.000005 6.000003
v 2 2.000005 6.000003
v -2 -2 6
v 2 -2 2
v 2 -2 6
v -2 -2 2
v 2 2.000007 10
v 2 -1.999999 10
v 2 2.000005 6.000003
v 2 -2 6
v -2 2.000005 6.000003
v -2 -2 6
v -2 -1.999999 10
v -2 2.000007 10
v 2 2.000005 6.000003
v -2 2.000005 6.000003
v -2 2.000007 10
v 2 2.000007 10
v -2 -1.999999 10
v 2 -2 6
v 2 -1.999999 10
v -2 -2 6
v 2 2.000015 14
v 2 -1.999995 14
v 2 2.000007 10
v 2 -1.999999 10
v -2 2.000007 10
v -2 -1.999999 10
v -2 -1.999995 14
v -2 2.000015 14
v 2 2.000007 10
v -2 2.000007 10
v -2 2.000015 14
v 2 2.000015 14
v -2 -1.999995 14
v 2 -1.999999 10
v 2 -1.999995 14
v -2 -1.999999 10
v -2 -1.999987 18
v 2 -1.999987 18
v -2 2.000032 18
v 2 2.000032 18
v 2 2.000032 18
v 2 -1.999987 18
v 2 2.000015 14
v 2 -1.999995 14
v -2 2.000015 14
v -2 -1.999995 14
v -2 -1.999987 18
v -2 2.000032 18
v 2 2.000015 14
v -2 2.000015 14
v -2 2.000032 18
v 2 2.000032 18
v -2 -1.999987 18
v 2 -1.999995 14
v 2 -1.999987 18
v -2 -1.999995 14
vn 0 0 -1
vn 0 0 -1
vn 0 0 -1
vn 0 0 -1
vn 1 0 0
vn 1 0 0
vn 1 0 0
vn 1 0 0
vn -1 0 0
vn -1 0 0
vn -1 0 0
vn -1 0 0
vn 0 1 -5.960462E-07
vn 0 1 -5.960462E-07
vn 0 1 -5.960462E-07
vn 0 1 -5.960462E-07
vn 0 -1 0
vn 0 -1 0
vn 0 -1 0
vn 0 -1 0
vn 1 0 0
vn 1 0 0
vn 1 0 0
vn 1 0 0
vn -1 0 0
vn -1 0 0
vn -1 0 0
vn -1 0 0
vn 0 1 -5.364416E-07
vn 0 1 -5.364416E-07
vn 0 1 -5.364416E-07
vn 0 1 -5.364416E-07
vn 0 -1 2.980233E-08
vn 0 -1 2.980233E-08
vn 0 -1 2.980233E-08
vn 0 -1 2.980233E-08
vn 1 0 0
vn 1 0 0
vn 1 0 0
vn 1 0 0
vn -1 0 0
vn -1 0 0
vn -1 0 0
vn -1 0 0
vn 0 1 -5.960464E-07
vn 0 1 -5.960464E-07
vn 0 1 -5.960464E-07
vn 0 1 -5.960464E-07
vn 0 -1 1.192093E-07
vn 0 -1 1.192093E-07
vn 0 -1 1.192093E-07
vn 0 -1 1.192093E-07
vn 1 0 0
vn 1 0 0
vn 1 0 0
vn 1 0 0
vn -1 0 0
vn -1 0 0
vn -1 0 0
vn -1 0 0
vn 0 1 -2.026557E-06
vn 0 1 -2.026557E-06
vn 0 1 -2.026557E-06
vn 0 1 -2.026557E-06
vn 0 -1 1.072884E-06
vn 0 -1 1.072884E-06
vn 0 -1 1.072884E-06
vn 0 -1 1.072884E-06
vn 0 -9.536697E-07 1
vn 0 -9.536697E-07 1
vn 0 -9.536697E-07 1
vn 0 -9.536697E-07 1
vn 1 0 0
vn 1 0 0
vn 1 0 0
vn 1 0 0
vn -1 0 0
vn -1 0 0
vn -1 0 0
vn -1 0 0
vn 0 1 -4.351139E-06
vn 0 1 -4.351139E-06
vn 0 1 -4.351139E-06
vn 0 1 -4.351139E-06
vn 0 -1 1.996756E-06
vn 0 -1 1.996756E-06
vn 0 -1 1.996756E-06
vn 0 -1 1.996756E-06
vt 2 -2
vt -2 -2
vt 2 2
vt -2 2
vt 2 -2
vt -2 -2
vt -2 2
vt 2.000001 2.000002
vt 2 2
vt -2 -2
vt -2.000001 2.000002
vt 2 -2
vt 2 -1.999997
vt -2 -1.999997
vt -2 2.000005
vt 2 2.000005
vt 2 1.999998
vt -2 -2.000001
vt -2 1.999998
vt 2 -2.000001
vt 6.000003 2.000005
vt 6 -2
vt 2.000001 2.000002
vt 2 -2
vt -2.000001 2.000002
vt -2 -2
vt -6 -2
vt -6.000003 2.000005
vt 2 2.000005
vt -2 2.000005
vt -2 6.000006
vt 2 6.000006
vt 2 5.999998
vt -2 1.999998
vt -2 5.999998
vt 2 1.999998
vt 10 2.000007
vt 10 -1.999999
vt 6.000003 2.000005
vt 6 -2
vt -6.000003 2.000005
vt -6 -2
vt -10 -1.999999
vt -10 2.000007
vt 2 6.000006
vt -2 6.000006
vt -2 10.00001
vt 2 10.00001
vt 2 9.999999
vt -2 5.999998
vt -2 9.999999
vt 2 5.999998
vt 14 2.000015
vt 14 -1.999995
vt 10 2.000007
vt 10 -1.999999
vt -10 2.000007
vt -10 -1.999999
vt -14 -1.999995
vt -14 2.000015
vt 2 10.00001
vt -2 10.00001
vt -2 14.00001
vt 2 14.00001
vt 2 14
vt -2 9.999999
vt -2 14
vt 2 9.999999
vt 2 -1.99997
vt -2 -1.99997
vt 2 2.00005
vt -2 2.00005
vt 18 2.000032
vt 18 -1.999987
vt 14 2.000015
vt 14 -1.999995
vt -14 2.000015
vt -14 -1.999995
vt -18 -1.999987
vt -18 2.000032
vt 2 14.00001
vt -2 14.00001
vt -2 18.00001
vt 2 18.00001
vt 2 18
vt -2 14
vt -2 18
vt 2 14
g submesh0
f 1/1/1 2/2/2 3/3/3
f 2/2/2 4/4/4 3/3/3
f 5/5/5 6/6/6 7/7/7
f 8/8/8 5/5/5 7/7/7
f 9/9/9 10/10/10 11/11/11
f 9/9/9 12/12/12 10/10/10
f 13/13/13 14/14/14 15/15/15
f 16/16/16 13/13/13 15/15/15
f 17/17/17 18/18/18 19/19/19
f 17/17/17 20/20/20 18/18/18
g submesh1
f 21/21/21 22/22/22 23/23/23
f 22/22/22 24/24/24 23/23/23
f 25/25/25 26/26/26 27/27/27
f 25/25/25 27/27/27 28/28/28
f 29/29/29 30/30/30 31/31/31
f 32/32/32 29/29/29 31/31/31
f 33/33/33 34/34/34 35/35/35
f 33/33/33 36/36/36 34/34/34
g submesh2
f 37/37/37 38/38/38 39/39/39
f 38/38/38 40/40/40 39/39/39
f 41/41/41 42/42/42 43/43/43
f 41/41/41 43/43/43 44/44/44
f 45/45/45 46/46/46 47/47/47
f 48/48/48 45/45/45 47/47/47
f 49/49/49 50/50/50 51/51/51
f 49/49/49 52/52/52 50/50/50
g submesh3
f 53/53/53 54/54/54 55/55/55
f 54/54/54 56/56/56 55/55/55
f 57/57/57 58/58/58 59/59/59
f 57/57/57 59/59/59 60/60/60
f 61/61/61 62/62/62 63/63/63
f 64/64/64 61/61/61 63/63/63
f 65/65/65 66/66/66 67/67/67
f 65/65/65 68/68/68 66/66/66
g submesh4
f 69/69/69 70/70/70 71/71/71
f 70/70/70 72/72/72 71/71/71
f 73/73/73 74/74/74 75/75/75
f 74/74/74 76/76/76 75/75/75
f 77/77/77 78/78/78 79/79/79
f 77/77/77 79/79/79 80/80/80
f 81/81/81 82/82/82 83/83/83
f 84/84/84 81/81/81 83/83/83
f 85/85/85 86/86/86 87/87/87
f 85/85/85 88/88/88 86/86/86
