v -2 0 6
v 2 0 6
v -2 2 6
v 2 2 6
v 2 0 -8
v -2 0 -8
v 2 5 -8
v -2 5 -8
v 2 0 6
v 2 0 2
v 2 2 2
v 2 2 6
v -2 2 2
v -2 0 6
v -2 2 6
v -2 0 2
v 2 2 2
v -2 2 2
v -2 2 6
v 2 2 6
v -2 0 6
v 2 0 2
v 2 0 6
v -2 0 2
v 2 0 -2
v -2 0 -2
v -2 0 -8
v 2 0 -8
v -2 0 -8
v 2 0 -8
v 2 0 -8
v -2 0 -8
v 2 0 -4
v 2 5 -4
v 2 0 -8
v 2 5 -8
v -2 5 -4
v -2 0 -4
v -2 5 -8
v -2 0 -8
v 2 5 -8
v -2 5 -8
v -2 5 -4
v 2 5 -4
v 2 5 -4
v -2 5 -4
v -2 2 2
v 2 2 2
v -2 0 -5
v 2 0 -8
v 2 0 -5
v -2 0 -8
v 2 0 -5
v 2 0 -8
v 2 0 -8
v 2 0 -4
v 2 0 -5
v 2 0 -8
v 2 0 2
v 2 0 -2
v 2 0 -4
v 2 0 -2
v 2 0 -5
v 2 0 -4
v -2 0 -4
v -2 0 -5
v -2 0 -2
v -2 0 -4
v -2 0 -2
v -2 0 2
v -2 0 -8
v -2 0 -5
v -2 0 -4
v -2 0 -8
v -2 0 -8
v -2 0 -5
vn 0 0 1
vn 0 0 1
vn 0 0 1
vn 0 0 1
vn 0 0 -1
vn 0 0 -1
vn 0 0 -1
vn 0 0 -1
vn 1 0 0
vn 1 0 0
vn 1 0 0
vn 1 0 0
vn -1 0 0
vn -1 0 0
vn -1 0 0
vn -1 0 0
vn 0 1 0
vn 0 1 0
vn 0 1 0
vn 0 1 0
vn 0 -1 0
vn 0 -1 0
vn 0 -1 0
vn 0 -1 0
vn 0 -1 0
vn 0 -1 0
vn 0 0 0
vn 0 0 0
vn 0 0 0
vn 0 0 0
vn 0 0 0
vn 0 0 0
vn 1 0 0
vn 1 0 0
vn 1 0 0
vn 1 0 0
vn -1 0 0
vn -1 0 0
vn -1 0 0
vn -1 0 0
vn 0 1 0
vn 0 1 0
vn 0 1 0
vn 0 1 0
vn 0 0.8944272 0.4472136
vn 0 0.8944272 0.4472136
vn 0 0.8944272 0.4472136
vn 0 0.8944272 0.4472136
vn 0 -1 0
vn 0 -1 0
vn 0 -1 0
vn 0 -1 0
vn 0 0 0
vn 0 0 0
vn 0 0 0
vn 0 0 0
vn 0 0 0
vn 0 0 0
vn 0 0 0
vn 0 0 0
vn 0 0 0
vn 0 0 0
vn 0 0 0
vn 0 0 0
vn 0 0 0
vn 0 0 0
vn 0 0 0
vn 0 0 0
vn 0 0 0
vn 0 0 0
vn 0 0 0
vn 0 0 0
vn 0 0 0
vn 0 0 0
vn 0 0 0
vn 0 0 0
vt 2 0
vt -2 0
vt 2 2
vt -2 2
vt 2 0
vt -2 0
vt 2 5
vt -2 5
vt 6 0
vt 2 0
vt 2 2
vt 6 2
vt -2 2
vt -6 0
vt -6 2
vt -2 0
vt 2 1.671153
vt -2 1.671153
vt -2 5.624246
vt 2 5.624246
vt 2 6
vt -2 2
vt -2 6
vt 2 2
vt -2 -2
vt 2 -2
vt 0 0
vt 0 0
vt 0 0
vt 0 0
vt 0 0
vt 0 0
vt -4 0
vt -4 5
vt -8 0
vt -8 5
vt 4 5
vt 4 0
vt 8 5
vt 8 0
vt 2 -8.669668
vt -2 -8.669668
vt -2 -4.716576
vt 2 -4.716576
vt 2 -4.716576
vt -2 -4.716576
vt -2 1.671153
vt 2 1.671153
vt 2 -5
vt -2 -8
vt -2 -5
vt 2 -8
vt 0 0
vt 0 0
vt 0 0
vt 0 0
vt 0 0
vt 0 0
vt 0 0
vt 0 0
vt 0 0
vt 0 0
vt 0 0
vt 0 0
vt 0 0
vt 0 0
vt 0 0
vt 0 0
vt 0 0
vt 0 0
vt 0 0
vt 0 0
vt 0 0
vt 0 0
vt 0 0
vt 0 0
g submesh0
f 1/1/1 2/2/2 3/3/3
f 2/2/2 4/4/4 3/3/3
f 5/5/5 6/6/6 7/7/7
f 6/6/6 8/8/8 7/7/7
f 9/9/9 10/10/10 11/11/11
f 12/12/12 9/9/9 11/11/11
f 13/13/13 14/14/14 15/15/15
f 13/13/13 16/16/16 14/14/14
f 17/17/17 18/18/18 19/19/19
f 20/20/20 17/17/17 19/19/19
f 21/21/21 22/22/22 23/23/23
f 21/21/21 24/24/24 22/22/22
f 22/22/22 24/24/24 25/25/25
f 24/24/24 26/26/26 25/25/25
f 27/27/27 28/28/28 29/29/29
f 30/30/30 31/31/31 32/32/32
f 10/10/10 33/33/33 34/34/34
f 11/11/11 10/10/10 34/34/34
f 33/33/33 35/35/35 36/36/36
f 34/34/34 33/33/33 36/36/36
f 37/37/37 16/16/16 13/13/13
f 37/37/37 38/38/38 16/16/16
f 39/39/39 38/38/38 37/37/37
f 39/39/39 40/40/40 38/38/38
f 41/41/41 42/42/42 43/43/43
f 44/44/44 41/41/41 43/43/43
f 45/45/45 46/46/46 47/47/47
f 48/48/48 45/45/45 47/47/47
f 49/49/49 50/50/50 51/51/51
f 49/49/49 52/52/52 50/50/50
f 26/26/26 51/51/51 25/25/25
f 26/26/26 49/49/49 51/51/51
f 53/53/53 54/54/54 55/55/55
f 56/56/56 57/57/57 58/58/58
f 59/59/59 60/60/60 61/61/61
f 62/62/62 63/63/63 64/64/64
f 65/65/65 66/66/66 67/67/67
f 68/68/68 69/69/69 70/70/70
f 71/71/71 72/72/72 73/73/73
f 74/74/74 75/75/75 76/76/76
