v -2 -1.999997 12
v 2 -1.999997 12
v -2 2.000019 12
v 2 2.000019 12
v 2 -1.999997 12
v 2 -2 -2
v 2 2.000019 12
v 2 2 -2
v 2 -2 -2
v -2 -2 -2
v 2 2 -2
v -2 2 -2
v -2 -2 -2
v -2 -1.999997 12
v -2 2 -2
v -2 2.000019 12
v -2 2.000019 12
v 2 2.000019 12
v -2 2 -2
v 2 2 -2
v -2 -2 -2
v 2 -2 -2
v -2 -1.999997 12
v 2 -1.999997 12
vn 0 -7.15253E-07 1
vn 0 -7.15253E-07 1
vn 0 -7.15253E-07 1
vn 0 -7.15253E-07 1
vn 1 0 0
vn 1 0 0
vn 1 0 0
vn 1 0 0
vn 0 0 -1
vn 0 0 -1
vn 0 0 -1
vn 0 0 -1
vn -1 0 0
vn -1 0 0
vn -1 0 0
vn -1 0 0
vn 0 1 -1.345362E-06
vn 0 1 -1.345362E-06
vn 0 1 -1.345362E-06
vn 0 1 -1.345362E-06
vn 0 -1 2.213887E-07
vn 0 -1 2.213887E-07
vn 0 -1 2.213887E-07
vn 0 -1 2.213887E-07
vt 2 -1.999988
vt -2 -1.999988
vt 2 2.000027
vt -2 2.000027
vt 12 -1.999997
vt -2 -2
vt 12 2.000019
vt -2 2
vt 2 -2
vt -2 -2
vt 2 2
vt -2 2
vt 2 -2
vt -12 -1.999997
vt 2 2
vt -12 2.000019
vt -2 12.00001
vt 2 12.00001
vt -2 -1.999997
vt 2 -1.999997
vt 2 -2
vt -2 -2
vt 2 12
vt -2 12
g submesh0
f 1/1/1 2/2/2 3/3/3
f 2/2/2 4/4/4 3/3/3
f 5/5/5 6/6/6 7/7/7
f 6/6/6 8/8/8 7/7/7
f 9/9/9 10/10/10 11/11/11
f 10/10/10 12/12/12 11/11/11
f 13/13/13 14/14/14 15/15/15
f 14/14/14 16/16/16 15/15/15
f 17/17/17 18/18/18 19/19/19
f 18/18/18 20/20/20 19/19/19
f 21/21/21 22/22/22 23/23/23
f 22/22/22 24/24/24 23/23/23
