v -3.293569 -5.770227E-05 1.908547
v 2.5 -3.199741E-07 2.02071
v -3.301475 0.2499413 2.052448
v 2.5 0.2500009 2.165044
v 2.5 -3.199741E-07 2.02071
v 2.499998 -4.276542E-07 -6.254488
v 2.5 0.2500009 2.165044
v 2.499999 0.2499986 -6.399045
v 2.499998 -4.276542E-07 -6.254488
v -2.845289 -4.493262E-05 -6.258956
v 2.499999 0.2499986 -6.399045
v -2.837386 0.2499549 -6.403081
v -2.845289 -4.493262E-05 -6.258956
v -3.293569 -5.770227E-05 1.908547
v -2.837386 0.2499549 -6.403081
v -3.301475 0.2499413 2.052448
v -3.301475 0.2499413 2.052448
v 2.5 0.2500009 2.165044
v -2.837386 0.2499549 -6.403081
v 2.499999 0.2499986 -6.399045
v -2.845289 -4.493262E-05 -6.258956
v 2.499998 -4.276542E-07 -6.254488
v -3.293569 -5.770227E-05 1.908547
v 2.5 -3.199741E-07 2.02071
vn -0.01676719 -0.4991955 0.8663271
vn -0.01678389 -0.4995568 0.8661184
vn -0.01678389 -0.4995568 0.8661184
vn -0.0168006 -0.499918 0.8659098
vn 1 1.164356E-07 -2.016786E-07
vn 1 -1.404494E-06 -1.565176E-07
vn 1 -1.404494E-06 -1.565176E-07
vn 1 -2.925424E-06 -1.113566E-07
vn 0.0007278529 -0.5005723 -0.8656945
vn 0.0006934808 -0.5000171 -0.8660151
vn 0.0006934808 -0.5000171 -0.8660151
vn 0.0006591089 -0.4994619 -0.8663356
vn -0.9984972 -2.910873E-05 -0.0548033
vn -0.9984972 -2.919257E-05 -0.05480331
vn -0.9984972 -2.919257E-05 -0.05480331
vn -0.9984972 -2.927641E-05 -0.05480331
vn -1.028141E-05 1 1.04115E-06
vn -9.236248E-06 1 3.900784E-07
vn -9.236248E-06 1 3.900784E-07
vn -8.19108E-06 1 -2.609929E-07
vn 8.326943E-06 -1 -1.106439E-06
vn 9.115585E-06 -1 -5.467141E-07
vn 9.115585E-06 -1 -5.467141E-07
vn 9.904228E-06 -1 1.301039E-08
vt 3.256021 0.9843248
vt -2.538634 0.984391
vt 3.26114 1.272844
vt -2.541427 1.273052
vt 2.020711 -6.110631E-07
vt -6.254488 -7.187432E-07
vt 2.165045 0.2500006
vt -6.399045 0.2499983
vt 2.494739 3.131874
vt -2.850551 3.131823
vt 2.494618 3.420659
vt -2.842769 3.420394
vt 6.093619 4.775031E-05
vt -2.086177 3.498066E-05
vt 6.23796 0.2500476
vt -2.230296 0.250034
vt -3.301472 2.052448
vt 2.500003 2.165044
vt -2.837384 -6.403081
vt 2.500002 -6.399046
vt 2.845289 -6.258956
vt -2.499998 -6.254488
vt 3.293569 1.908547
vt -2.5 2.02071
g submesh0
f 1/1/1 2/2/2 3/3/3
f 2/2/2 4/4/4 3/3/3
f 5/5/5 6/6/6 7/7/7
f 6/6/6 8/8/8 7/7/7
f 9/9/9 10/10/10 11/11/11
f 10/10/10 12/12/12 11/11/11
f 13/13/13 14/14/14 15/15/15
f 14/14/14 16/16/16 15/15/15
f 17/17/17 18/18/18 19/19/19
f 18/18/18 20/20/20 19/19/19
f 21/21/21 22/22/22 23/23/23
f 22/22/22 24/24/24 23/23/23
