v -2.42 -5.722046E-05 0.45
v 2.5 0 0.45
v -2.42 0.2499409 0.45
v 2.5 0.25 0.45
v 2.5 0 0.45
v 2.499998 -4.276542E-07 -6.254488
v 2.5 0.25 0.45
v 2.499999 0.2499986 -6.399045
v 2.499998 -4.276542E-07 -6.254488
v -2.42 -4.577637E-05 -6.258956
v 2.499999 0.2499986 -6.399045
v -2.42 0.2499542 -6.403081
v -2.42 -4.577637E-05 -6.258956
v -2.42 -5.722046E-05 0.45
v -2.42 0.2499542 -6.403081
v -2.42 0.2499409 0.45
v -2.42 0.2499409 0.45
v 2.5 0.25 0.45
v -2.42 0.2499542 -6.403081
v 2.499999 0.2499986 -6.399045
v -2.42 -4.577637E-05 -6.258956
v 2.499998 -4.276542E-07 -6.254488
v -2.42 -5.722046E-05 0.45
v 2.5 0 0.45
vn 0 0 1
vn 0 0 1
vn 0 0 1
vn 0 0 1
vn 1 0 -2.489273E-07
vn 1 -1.470774E-06 -1.940843E-07
vn 1 -1.470774E-06 -1.940843E-07
vn 1 -2.941548E-06 -1.392414E-07
vn 0.0007908549 -0.5005723 -0.8656944
vn 0.0007529772 -0.5000092 -0.8660195
vn 0.0007529772 -0.5000092 -0.8660195
vn 0.0007150994 -0.499446 -0.8663447
vn -1 0 0
vn -1 0 0
vn -1 0 0
vn -1 0 0
vn -1.201785E-05 1 1.948239E-06
vn -1.052159E-05 1 8.740401E-07
vn -1.052159E-05 1 8.740401E-07
vn -9.025337E-06 1 -2.00159E-07
vn 9.218771E-06 -1 -1.705793E-06
vn 1.042447E-05 -1 -8.210049E-07
vn 1.042447E-05 -1 -8.210049E-07
vn 1.163017E-05 -1 6.378336E-08
vt 2.42 -5.722046E-05
vt -2.5 0
vt 2.42 0.2499409
vt -2.5 0.25
vt 0.4500006 0
vt -6.254488 -4.276542E-07
vt 0.4500006 0.25
vt -6.399045 0.2499986
vt 2.494283 3.131965
vt -2.425717 3.131912
vt 2.494152 3.420749
vt -2.425848 3.420481
vt 6.258956 -4.577637E-05
vt -0.45 -5.722046E-05
vt 6.403081 0.2499542
vt -0.45 0.2499409
vt -2.419997 0.4499995
vt 2.500003 0.4499995
vt -2.419997 -6.403081
vt 2.500002 -6.399046
vt 2.42 -6.258956
vt -2.499998 -6.254488
vt 2.42 0.45
vt -2.5 0.45
g submesh0
f 1/1/1 2/2/2 3/3/3
f 2/2/2 4/4/4 3/3/3
f 5/5/5 6/6/6 7/7/7
f 6/6/6 8/8/8 7/7/7
f 9/9/9 10/10/10 11/11/11
f 10/10/10 12/12/12 11/11/11
f 13/13/13 14/14/14 15/15/15
f 14/14/14 16/16/16 15/15/15
f 17/17/17 18/18/18 19/19/19
f 18/18/18 20/20/20 19/19/19
f 21/21/21 22/22/22 23/23/23
f 22/22/22 24/24/24 23/23/23
