v 0.7499996 -3 0.2499999
v 0.9999996 -3 0.2499998
v 0.7499981 3.963287 0.2500001
v 0.9999981 3.963287 0.250001
v 0.9999996 -3 0.2499998
v 0.9999995 -3 -2.384186E-07
v 0.9999981 3.963287 0.250001
v 0.999999 3.963287 9.536743E-07
v 0.9999995 -3 -2.384186E-07
v 0.7499995 -3 -1.490116E-07
v 0.999999 3.963287 9.536743E-07
v 0.749999 3.963287 5.960464E-08
v -1 -3 4.768372E-07
v -1 -3 0.2500005
v -1.000001 3.963287 1.430511E-06
v -1.000002 3.963287 0.2500014
v 0.7499981 3.963287 0.2500001
v 0.9999981 3.963287 0.250001
v 0.749999 3.963287 5.960464E-08
v 0.999999 3.963287 9.536743E-07
v 0.7499995 -3 -1.490116E-07
v 0.9999995 -3 -2.384186E-07
v 0.7499996 -3 0.2499999
v 0.9999996 -3 0.2499998
v -0.7500005 -3 3.874302E-07
v -0.7500004 -3 0.2500004
v -1 -3 4.768372E-07
v -1 -3 0.2500005
v -0.750001 3.963287 2.324581E-06
v -0.7500005 -3 3.874302E-07
v -1.000001 3.963287 1.430511E-06
v -1 -3 4.768372E-07
v -0.7500004 -3 0.2500004
v -0.7500019 3.963287 0.2500023
v -1 -3 0.2500005
v -1.000002 3.963287 0.2500014
v -0.7500019 3.963287 0.2500023
v -0.750001 3.963287 2.324581E-06
v -1.000002 3.963287 0.2500014
v -1.000001 3.963287 1.430511E-06
v 0.7499996 -3 0.2499999
v 0.7499981 3.963287 0.2500001
v 0.7499995 -3 -1.490116E-07
v 0.749999 3.963287 5.960464E-08
v -0.7500019 3.963287 0.2500023
v -0.7500004 -3 0.2500004
v -0.750001 3.963287 2.324581E-06
v -0.7500005 -3 3.874302E-07
v 0.7499996 -3 0.1249999
v 0.7500005 3.963287 0.1250001
v -0.7500004 -3 0.1250004
v -0.7499995 3.963287 0.1250023
vn 3.576279E-07 -2.995937E-08 1
vn -1.609325E-06 -1.005785E-07 1
vn -1.609325E-06 -1.005785E-07 1
vn -3.576279E-06 -1.711977E-07 1
vn 1 2.22556E-07 -4.768372E-07
vn 1 1.49797E-07 1.549721E-06
vn 1 1.49797E-07 1.549721E-06
vn 1 7.703797E-08 3.576279E-06
vn -3.576279E-07 1.711968E-07 -1
vn 1.609325E-06 1.005783E-07 -1
vn 1.609325E-06 1.005783E-07 -1
vn 3.576279E-06 2.995973E-08 -1
vn -1 -6.84788E-08 4.768372E-07
vn -1 -1.455171E-07 -1.66893E-06
vn -1 -1.455171E-07 -1.66893E-06
vn -1 -2.225554E-07 -3.814697E-06
vn 0 1 0
vn 0 1 0
vn 0 1 0
vn 0 1 0
vn 0 -1 0
vn 0 -1 0
vn 0 -1 0
vn 0 -1 0
vn 0 -1 0
vn 0 -1 0
vn 0 -1 0
vn 0 -1 0
vn 3.576279E-06 2.781951E-07 -1
vn 1.609326E-06 2.075763E-07 -1
vn 1.609326E-06 2.075763E-07 -1
vn -3.576279E-07 1.369575E-07 -1
vn 3.576279E-07 -2.781948E-07 1
vn -1.609325E-06 -2.075765E-07 1
vn -1.609325E-06 -2.075765E-07 1
vn -3.576279E-06 -1.369583E-07 1
vn 0 1 0
vn 0 1 0
vn 0 1 0
vn 0 1 0
vn -1 -2.225559E-07 4.768372E-07
vn -1 -1.497972E-07 -1.549721E-06
vn -1 -1.497972E-07 -1.549721E-06
vn -1 -7.703848E-08 -3.576279E-06
vn 1 2.225549E-07 3.576279E-06
vn 1 1.497968E-07 1.549721E-06
vn 1 1.497968E-07 1.549721E-06
vn 1 7.703871E-08 -4.768372E-07
vn 3.576279E-07 -2.995949E-08 1
vn 9.338061E-07 -1.540773E-07 1
vn 9.338061E-07 -1.540773E-07 1
vn 1.509984E-06 -2.781951E-07 1
vt -0.7499996 -3
vt -0.9999996 -3
vt -0.749998 3.963287
vt -0.999998 3.963287
vt -1.875 -3
vt -2.125 -3
vt -1.874999 3.963287
vt -2.124999 3.963287
vt 0.9999995 -3
vt 0.7499995 -3
vt 0.999999 3.963287
vt 0.749999 3.963287
vt 2.125 -3
vt 1.875 -3
vt 2.124999 3.963287
vt 1.874999 3.963287
vt 0.7499981 -1.875
vt 0.9999981 -1.874999
vt 0.749999 -2.125
vt 0.999999 -2.124999
vt -0.7499995 -2.125
vt -0.9999995 -2.125
vt -0.7499996 -1.875
vt -0.9999996 -1.875
vt 0.7500005 -2.125
vt 0.7500004 -1.875
vt 1 -2.125
vt 1 -1.875
vt -0.750001 3.963287
vt -0.7500005 -3
vt -1.000001 3.963287
vt -1 -3
vt 0.7500005 -3
vt 0.750002 3.963287
vt 1 -3
vt 1.000002 3.963287
vt -0.7500019 -1.874998
vt -0.750001 -2.124998
vt -1.000002 -1.874999
vt -1.000001 -2.124999
vt 1.875 -3
vt 1.875 3.963287
vt 2.125 -3
vt 2.125 3.963287
vt -1.874995 3.963288
vt -1.874997 -3
vt -2.124995 3.963288
vt -2.124997 -3
vt -0.7499995 -3
vt -0.7500004 3.963287
vt 0.7500005 -3
vt 0.7499996 3.963287
g submesh0
f 1/1/1 2/2/2 3/3/3
f 2/2/2 4/4/4 3/3/3
f 5/5/5 6/6/6 7/7/7
f 6/6/6 8/8/8 7/7/7
f 9/9/9 10/10/10 11/11/11
f 10/10/10 12/12/12 11/11/11
f 13/13/13 14/14/14 15/15/15
f 14/14/14 16/16/16 15/15/15
f 17/17/17 18/18/18 19/19/19
f 18/18/18 20/20/20 19/19/19
f 21/21/21 22/22/22 23/23/23
f 22/22/22 24/24/24 23/23/23
f 25/25/25 26/26/26 27/27/27
f 26/26/26 28/28/28 27/27/27
f 29/29/29 30/30/30 31/31/31
f 30/30/30 32/32/32 31/31/31
f 33/33/33 34/34/34 35/35/35
f 34/34/34 36/36/36 35/35/35
f 37/37/37 38/38/38 39/39/39
f 38/38/38 40/40/40 39/39/39
f 41/41/41 42/42/42 43/43/43
f 42/42/42 44/44/44 43/43/43
f 45/45/45 46/46/46 47/47/47
f 46/46/46 48/48/48 47/47/47
g submesh1
f 49/49/49 50/50/50 51/51/51
f 50/50/50 52/52/52 51/51/51
