v 0.7499996 -3 0.2499999
v 0.9999996 -3 0.2499998
v 0.7499987 3.727814 0.2499996
v 0.9999987 3.727814 0.2499985
v 0.9999996 -3 0.2499998
v 0.9999995 -3 -2.384186E-07
v 0.9999987 3.727814 0.2499985
v 0.9999995 3.727814 -1.495632E-06
v 0.9999995 -3 -2.384186E-07
v 0.7499995 -3 -1.490116E-07
v 0.9999995 3.727814 -1.495632E-06
v 0.7499995 3.727814 -3.631435E-07
v -1 -3 4.768372E-07
v -1 -3 0.2500005
v -1 3.727814 -6.512028E-08
v -1.000001 3.727814 0.2499999
v 0.7499987 3.727814 0.2499996
v 0.9999987 3.727814 0.2499985
v 0.7499995 3.727814 -3.631435E-07
v 0.9999995 3.727814 -1.495632E-06
v 0.7499995 -3 -1.490116E-07
v 0.9999995 -3 -2.384186E-07
v 0.7499996 -3 0.2499999
v 0.9999996 -3 0.2499998
v -0.7500005 -3 3.874302E-07
v -0.7500004 -3 0.2500004
v -1 -3 4.768372E-07
v -1 -3 0.2500005
v -0.7500005 3.727814 -1.197609E-06
v -0.7500005 -3 3.874302E-07
v -1 3.727814 -6.512028E-08
v -1 -3 4.768372E-07
v -0.7500004 -3 0.2500004
v -0.7500013 3.727814 0.2499988
v -1 -3 0.2500005
v -1.000001 3.727814 0.2499999
v -0.7500013 3.727814 0.2499988
v -0.7500005 3.727814 -1.197609E-06
v -1.000001 3.727814 0.2499999
v -1 3.727814 -6.512028E-08
v 0.7499996 -3 0.2499999
v 0.7499987 3.727814 0.2499996
v 0.7499995 -3 -1.490116E-07
v 0.7499995 3.727814 -3.631435E-07
v -0.7500013 3.727814 0.2499988
v -0.7500004 -3 0.2500004
v -0.7500005 3.727814 -1.197609E-06
v -0.7500005 -3 3.874302E-07
v 0.7499996 -3 0.1249999
v 0.7499991 3.727814 0.1249996
v -0.7500004 -3 0.1250004
v -0.7500009 3.727814 0.1249988
vn 3.576279E-07 3.100808E-08 1
vn 2.44379E-06 1.085284E-07 1
vn 2.44379E-06 1.085284E-07 1
vn 4.529953E-06 1.860488E-07 1
vn 1 1.328915E-07 -4.768372E-07
vn 1 6.644603E-08 1.311302E-06
vn 1 6.644603E-08 1.311302E-06
vn 1 5.791864E-13 3.099442E-06
vn -3.576279E-07 -1.86868E-07 -1
vn -2.44379E-06 -1.093479E-07 -1
vn -2.44379E-06 -1.093479E-07 -1
vn -4.529953E-06 -3.182786E-08 -1
vn -1 3.84115E-14 4.768372E-07
vn -1 -7.087561E-08 -1.430511E-06
vn -1 -7.087561E-08 -1.430511E-06
vn -1 -1.417513E-07 -3.33786E-06
vn 0 1 0
vn 0 1 0
vn 0 1 0
vn 0 1 0
vn 0 -1 0
vn 0 -1 0
vn 0 -1 0
vn 0 -1 0
vn 0 -1 0
vn 0 -1 0
vn 0 -1 0
vn 0 -1 0
vn -4.529953E-06 -2.355949E-07 -1
vn -2.44379E-06 -1.580748E-07 -1
vn -2.44379E-06 -1.580748E-07 -1
vn -3.576279E-07 -8.055476E-08 -1
vn 3.576279E-07 2.347751E-07 1
vn 2.44379E-06 1.572554E-07 1
vn 2.44379E-06 1.572554E-07 1
vn 4.529952E-06 7.973558E-08 1
vn 0 1 0
vn 0 1 0
vn 0 1 0
vn 0 1 0
vn -1 -1.328915E-07 4.768372E-07
vn -1 -6.644582E-08 -1.311302E-06
vn -1 -6.644582E-08 -1.311302E-06
vn -1 -9.610758E-14 -3.099442E-06
vn 1 1.328923E-07 3.099442E-06
vn 1 6.644608E-08 1.311302E-06
vn 1 6.644608E-08 1.311302E-06
vn 1 -1.119495E-13 -4.768372E-07
vn 3.576279E-07 3.211549E-08 1
vn -9.934107E-08 1.33999E-07 1
vn -9.934107E-08 1.33999E-07 1
vn -5.5631E-07 2.358825E-07 1
vt -0.7499996 -3
vt -0.9999996 -3
vt -0.7499987 3.727814
vt -0.9999987 3.727814
vt -1.875 -3
vt -2.125 -3
vt -1.875001 3.727813
vt -2.125001 3.727813
vt 0.9999995 -3
vt 0.7499995 -3
vt 0.9999995 3.727814
vt 0.7499995 3.727814
vt 2.125 -3
vt 1.875 -3
vt 2.125 3.727814
vt 1.875 3.727814
vt 0.7499987 -1.875
vt 0.9999987 -1.875001
vt 0.7499995 -2.125
vt 0.9999995 -2.125001
vt -0.7499995 -2.125
vt -0.9999995 -2.125
vt -0.7499996 -1.875
vt -0.9999996 -1.875
vt 0.7500005 -2.125
vt 0.7500004 -1.875
vt 1 -2.125
vt 1 -1.875
vt -0.7500005 3.727814
vt -0.7500005 -3
vt -1 3.727814
vt -1 -3
vt 0.7500005 -3
vt 0.7500013 3.727814
vt 1 -3
vt 1.000001 3.727814
vt -0.7500013 -1.875001
vt -0.7500005 -2.125001
vt -1.000001 -1.875
vt -1 -2.125
vt 1.875 -3
vt 1.875 3.727814
vt 2.125 -3
vt 2.125 3.727814
vt -1.874999 3.727814
vt -1.874997 -3
vt -2.124999 3.727814
vt -2.124997 -3
vt -0.7499995 -3
vt -0.749999 3.727814
vt 0.7500005 -3
vt 0.750001 3.727814
g submesh0
f 1/1/1 2/2/2 3/3/3
f 2/2/2 4/4/4 3/3/3
f 5/5/5 6/6/6 7/7/7
f 6/6/6 8/8/8 7/7/7
f 9/9/9 10/10/10 11/11/11
f 10/10/10 12/12/12 11/11/11
f 13/13/13 14/14/14 15/15/15
f 14/14/14 16/16/16 15/15/15
f 17/17/17 18/18/18 19/19/19
f 18/18/18 20/20/20 19/19/19
f 21/21/21 22/22/22 23/23/23
f 22/22/22 24/24/24 23/23/23
f 25/25/25 26/26/26 27/27/27
f 26/26/26 28/28/28 27/27/27
f 29/29/29 30/30/30 31/31/31
f 30/30/30 32/32/32 31/31/31
f 33/33/33 34/34/34 35/35/35
f 34/34/34 36/36/36 35/35/35
f 37/37/37 38/38/38 39/39/39
f 38/38/38 40/40/40 39/39/39
f 41/41/41 42/42/42 43/43/43
f 42/42/42 44/44/44 43/43/43
f 45/45/45 46/46/46 47/47/47
f 46/46/46 48/48/48 47/47/47
g submesh1
f 49/49/49 50/50/50 51/51/51
f 50/50/50 52/52/52 51/51/51
