v 0.7499996 -3 0.2499999
v 0.9999996 -3 0.2499998
v 0.7499988 5 0.2499992
v 0.9999988 5 0.2499997
v 0.9999996 -3 0.2499998
v 0.9999995 -3 -2.384186E-07
v 0.9999988 5 0.2499997
v 0.9999993 5 -3.428013E-07
v 0.9999995 -3 -2.384186E-07
v 0.7499995 -3 -1.490116E-07
v 0.9999993 5 -3.428013E-07
v 0.7499993 5 -8.270881E-07
v -1 -3 4.768372E-07
v -1 -3 0.2500005
v -1.000001 5 -4.023987E-07
v -1.000001 5 0.2499996
v 0.7499988 5 0.2499992
v 0.9999988 5 0.2499997
v 0.7499993 5 -8.270881E-07
v 0.9999993 5 -3.428013E-07
v 0.7499995 -3 -1.490116E-07
v 0.9999995 -3 -2.384186E-07
v 0.7499996 -3 0.2499999
v 0.9999996 -3 0.2499998
v -0.7500005 -3 3.874302E-07
v -0.7500004 -3 0.2500004
v -1 -3 4.768372E-07
v -1 -3 0.2500005
v -0.7500007 5 8.188817E-08
v -0.7500005 -3 3.874302E-07
v -1.000001 5 -4.023987E-07
v -1 -3 4.768372E-07
v -0.7500004 -3 0.2500004
v -0.7500012 5 0.2500001
v -1 -3 0.2500005
v -1.000001 5 0.2499996
v -0.7500012 5 0.2500001
v -0.7500007 5 8.188817E-08
v -1.000001 5 0.2499996
v -1.000001 5 -4.023987E-07
v 0.7499996 -3 0.2499999
v 0.7499988 5 0.2499992
v 0.7499995 -3 -1.490116E-07
v 0.7499993 5 -8.270881E-07
v -0.7500012 5 0.2500001
v -0.7500004 -3 0.2500004
v -0.7500007 5 8.188817E-08
v -0.7500005 -3 3.874302E-07
v 0.7499996 -3 0.1249999
v 0.749999 5 0.1249992
v -0.7500004 -3 0.1250004
v -0.750001 5 0.1250001
vn 3.576279E-07 8.381907E-08 1
vn -7.748604E-07 4.842869E-08 1
vn -7.748604E-07 4.842869E-08 1
vn -1.907349E-06 1.303832E-08 1
vn 1 1.043081E-07 -4.768372E-07
vn 1 6.332995E-08 8.34465E-07
vn 1 6.332995E-08 8.34465E-07
vn 1 2.235177E-08 2.145767E-06
vn -3.576279E-07 -1.304785E-08 -1
vn 7.897597E-07 -4.890368E-08 -1
vn 7.897597E-07 -4.890368E-08 -1
vn 1.937147E-06 -8.475952E-08 -1
vn -1 -2.980227E-08 4.768372E-07
vn -1 -6.70553E-08 -7.152557E-07
vn -1 -6.70553E-08 -7.152557E-07
vn -1 -1.043083E-07 -1.907349E-06
vn 0 1 0
vn 0 1 0
vn 0 1 0
vn 0 1 0
vn 0 -1 0
vn 0 -1 0
vn 0 -1 0
vn 0 -1 0
vn 0 -1 0
vn 0 -1 0
vn 0 -1 0
vn 0 -1 0
vn 1.937147E-06 -3.81927E-08 -1
vn 7.897597E-07 -7.404859E-08 -1
vn 7.897597E-07 -7.404859E-08 -1
vn -3.576279E-07 -1.099045E-07 -1
vn 3.576279E-07 3.725294E-08 1
vn -8.046627E-07 7.35744E-08 1
vn -8.046627E-07 7.35744E-08 1
vn -1.966953E-06 1.098959E-07 1
vn 0 1 0
vn 0 1 0
vn 0 1 0
vn 0 1 0
vn -1 -1.043081E-07 4.768372E-07
vn -1 -6.333001E-08 -8.34465E-07
vn -1 -6.333001E-08 -8.34465E-07
vn -1 -2.235192E-08 -2.145767E-06
vn 1 1.043082E-07 1.907349E-06
vn 1 6.705525E-08 7.152557E-07
vn 1 6.705525E-08 7.152557E-07
vn 1 2.98023E-08 -4.768372E-07
vn 3.576279E-07 8.475038E-08 1
vn 4.842877E-07 6.100166E-08 1
vn 4.842877E-07 6.100166E-08 1
vn 6.109476E-07 3.725294E-08 1
vt -0.7499996 -3
vt -0.9999996 -3
vt -0.7499987 5
vt -0.9999987 5
vt -1.875 -3
vt -2.125 -3
vt -1.875 5
vt -2.125 5
vt 0.9999995 -3
vt 0.7499995 -3
vt 0.9999993 5
vt 0.7499993 5
vt 2.125 -3
vt 1.875 -3
vt 2.125001 5
vt 1.875001 5
vt 0.7499988 -1.875001
vt 0.9999988 -1.875
vt 0.7499993 -2.125001
vt 0.9999993 -2.125
vt -0.7499995 -2.125
vt -0.9999995 -2.125
vt -0.7499996 -1.875
vt -0.9999996 -1.875
vt 0.7500005 -2.125
vt 0.7500004 -1.875
vt 1 -2.125
vt 1 -1.875
vt -0.7500007 5
vt -0.7500005 -3
vt -1.000001 5
vt -1 -3
vt 0.7500005 -3
vt 0.7500013 5
vt 1 -3
vt 1.000001 5
vt -0.7500012 -1.875
vt -0.7500007 -2.125
vt -1.000001 -1.875
vt -1.000001 -2.125
vt 1.875 -3
vt 1.875 5
vt 2.125 -3
vt 2.125 5
vt -1.874998 5
vt -1.874998 -3
vt -2.124999 5
vt -2.124998 -3
vt -0.7499995 -3
vt -0.749999 5
vt 0.7500005 -3
vt 0.750001 5
g submesh0
f 1/1/1 2/2/2 3/3/3
f 2/2/2 4/4/4 3/3/3
f 5/5/5 6/6/6 7/7/7
f 6/6/6 8/8/8 7/7/7
f 9/9/9 10/10/10 11/11/11
f 10/10/10 12/12/12 11/11/11
f 13/13/13 14/14/14 15/15/15
f 14/14/14 16/16/16 15/15/15
f 17/17/17 18/18/18 19/19/19
f 18/18/18 20/20/20 19/19/19
f 21/21/21 22/22/22 23/23/23
f 22/22/22 24/24/24 23/23/23
f 25/25/25 26/26/26 27/27/27
f 26/26/26 28/28/28 27/27/27
f 29/29/29 30/30/30 31/31/31
f 30/30/30 32/32/32 31/31/31
f 33/33/33 34/34/34 35/35/35
f 34/34/34 36/36/36 35/35/35
f 37/37/37 38/38/38 39/39/39
f 38/38/38 40/40/40 39/39/39
f 41/41/41 42/42/42 43/43/43
f 42/42/42 44/44/44 43/43/43
f 45/45/45 46/46/46 47/47/47
f 46/46/46 48/48/48 47/47/47
g submesh1
f 49/49/49 50/50/50 51/51/51
f 50/50/50 52/52/52 51/51/51
