v 0.7499996 -3 0.2499999
v 0.9999996 -3 0.2499998
v 0.7500004 14 0.2499985
v 1 14 0.2500001
v 0.9999996 -3 0.2499998
v 0.9999995 -3 -2.384186E-07
v 1 14 0.2500001
v 1 14 1.192093E-07
v 0.9999995 -3 -2.384186E-07
v 0.7499995 -3 -1.490116E-07
v 1 14 1.192093E-07
v 0.75 14 -1.460314E-06
v -1 -3 4.768372E-07
v -1 -3 0.2500005
v -1 14 -1.072884E-06
v -0.9999997 14 0.2500008
v 0.7500004 14 0.2499985
v 1 14 0.2500001
v 0.75 14 -1.460314E-06
v 1 14 1.192093E-07
v 0.7499995 -3 -1.490116E-07
v 0.9999995 -3 -2.384186E-07
v 0.7499996 -3 0.2499999
v 0.9999996 -3 0.2499998
v -0.7500005 -3 3.874302E-07
v -0.7500004 -3 0.2500004
v -1 -3 4.768372E-07
v -1 -3 0.2500005
v -0.75 14 -1.400709E-06
v -0.7500005 -3 3.874302E-07
v -1 14 -1.072884E-06
v -1 -3 4.768372E-07
v -0.7500004 -3 0.2500004
v -0.7499997 14 0.2500005
v -1 -3 0.2500005
v -0.9999997 14 0.2500008
v -0.7499997 14 0.2500005
v -0.75 14 -1.400709E-06
v -0.9999997 14 0.2500008
v -1 14 -1.072884E-06
v 0.7499996 -3 0.2499999
v 0.7500004 14 0.2499985
v 0.7499995 -3 -1.490116E-07
v 0.75 14 -1.460314E-06
v -0.7499997 14 0.2500005
v -0.7500004 -3 0.2500004
v -0.75 14 -1.400709E-06
v -0.7500005 -3 3.874302E-07
v 0.7499996 -3 0.1249999
v 0.7499992 14 0.1249985
v -0.7500004 -3 0.1250004
v -0.7500008 14 0.1250005
vn 3.576279E-07 7.713541E-08 1
vn -2.980232E-06 2.804937E-08 1
vn -2.980232E-06 2.804937E-08 1
vn -6.318092E-06 -2.103667E-08 1
vn 1 -4.207386E-08 -4.768372E-07
vn 1 -3.506154E-08 -9.536743E-07
vn 1 -3.506154E-08 -9.536743E-07
vn 1 -2.804921E-08 -1.430511E-06
vn -3.576279E-07 2.103694E-08 -1
vn 2.980232E-06 -2.804933E-08 -1
vn 2.980232E-06 -2.804933E-08 -1
vn 6.318092E-06 -7.71356E-08 -1
vn -1 2.804929E-08 4.768372E-07
vn -1 3.330848E-08 8.344605E-07
vn -1 3.330848E-08 8.344605E-07
vn -1 3.856768E-08 1.192084E-06
vn 0 1 0
vn 0 1 0
vn 0 1 0
vn 0 1 0
vn 0 -1 0
vn 0 -1 0
vn 0 -1 0
vn 0 -1 0
vn 0 -1 0
vn 0 -1 0
vn 0 -1 0
vn 0 -1 0
vn -1.311302E-06 -1.051846E-07 -1
vn -8.34465E-07 -9.817233E-08 -1
vn -8.34465E-07 -9.817233E-08 -1
vn -3.576279E-07 -9.116003E-08 -1
vn 3.576279E-07 -7.012324E-09 1
vn 8.34465E-07 -1.402465E-08 1
vn 8.34465E-07 -1.402465E-08 1
vn 1.311302E-06 -2.103698E-08 1
vn 0 1 0
vn 0 1 0
vn 0 1 0
vn 0 1 0
vn -1 4.20739E-08 4.768372E-07
vn -1 3.506163E-08 9.536743E-07
vn -1 3.506163E-08 9.536743E-07
vn -1 2.804935E-08 1.430511E-06
vn 1 -3.856771E-08 -1.192084E-06
vn 1 -3.33085E-08 -8.344605E-07
vn 1 -3.33085E-08 -8.344605E-07
vn 1 -2.804929E-08 -4.768372E-07
vn 3.576279E-07 7.713543E-08 1
vn 8.34465E-07 3.506157E-08 1
vn 8.34465E-07 3.506157E-08 1
vn 1.311302E-06 -7.012283E-09 1
vt -0.7499996 -3
vt -0.9999996 -3
vt -0.7500003 14
vt -1 14
vt -1.875 -3
vt -2.125 -3
vt -1.874999 14
vt -2.125 14
vt 0.9999995 -3
vt 0.7499995 -3
vt 1 14
vt 0.75 14
vt 2.125 -3
vt 1.875 -3
vt 2.125001 14
vt 1.875 14
vt 0.7500004 -1.875001
vt 1 -1.875
vt 0.75 -2.125001
vt 1 -2.125
vt -0.7499995 -2.125
vt -0.9999995 -2.125
vt -0.7499996 -1.875
vt -0.9999996 -1.875
vt 0.7500005 -2.125
vt 0.7500004 -1.875
vt 1 -2.125
vt 1 -1.875
vt -0.75 14
vt -0.7500005 -3
vt -1 14
vt -1 -3
vt 0.7500005 -3
vt 0.7499998 14
vt 1 -3
vt 0.9999998 14
vt -0.7499997 -1.875
vt -0.75 -2.125001
vt -0.9999997 -1.874999
vt -1 -2.125001
vt 1.875 -3
vt 1.875001 14
vt 2.125 -3
vt 2.125001 14
vt -1.875 14
vt -1.875 -3
vt -2.125002 14
vt -2.125 -3
vt -0.7499995 -3
vt -0.7499992 14
vt 0.7500005 -3
vt 0.7500008 14
g submesh0
f 1/1/1 2/2/2 3/3/3
f 2/2/2 4/4/4 3/3/3
f 5/5/5 6/6/6 7/7/7
f 6/6/6 8/8/8 7/7/7
f 9/9/9 10/10/10 11/11/11
f 10/10/10 12/12/12 11/11/11
f 13/13/13 14/14/14 15/15/15
f 14/14/14 16/16/16 15/15/15
f 17/17/17 18/18/18 19/19/19
f 18/18/18 20/20/20 19/19/19
f 21/21/21 22/22/22 23/23/23
f 22/22/22 24/24/24 23/23/23
f 25/25/25 26/26/26 27/27/27
f 26/26/26 28/28/28 27/27/27
f 29/29/29 30/30/30 31/31/31
f 30/30/30 32/32/32 31/31/31
f 33/33/33 34/34/34 35/35/35
f 34/34/34 36/36/36 35/35/35
f 37/37/37 38/38/38 39/39/39
f 38/38/38 40/40/40 39/39/39
f 41/41/41 42/42/42 43/43/43
f 42/42/42 44/44/44 43/43/43
f 45/45/45 46/46/46 47/47/47
f 46/46/46 48/48/48 47/47/47
g submesh1
f 49/49/49 50/50/50 51/51/51
f 50/50/50 52/52/52 51/51/51
