v 0.7499996 -3 0.2499999
v 0.9999996 -3 0.2499998
v 0.7499997 5 0.2499999
v 0.9999999 5 0.2500004
v 0.9999996 -3 0.2499998
v 0.9999995 -3 -2.384186E-07
v 0.9999999 5 0.2500004
v 0.9999995 5 3.576266E-07
v 0.9999995 -3 -2.384186E-07
v 0.7499995 -3 -1.490116E-07
v 0.9999995 5 3.576266E-07
v 0.7499995 5 -1.788152E-07
v -1 -3 4.768372E-07
v -1 -3 0.2500005
v -1.000001 5 -1.192103E-07
v -1.000001 5 0.2499999
v 0.7499997 5 0.2499999
v 0.9999999 5 0.2500004
v 0.7499995 5 -1.788152E-07
v 0.9999995 5 3.576266E-07
v 0.7499995 -3 -1.490116E-07
v 0.9999995 -3 -2.384186E-07
v 0.7499996 -3 0.2499999
v 0.9999996 -3 0.2499998
v -0.7500005 -3 3.874302E-07
v -0.7500004 -3 0.2500004
v -1 -3 4.768372E-07
v -1 -3 0.2500005
v -0.7500007 5 4.172317E-07
v -0.7500005 -3 3.874302E-07
v -1.000001 5 -1.192103E-07
v -1 -3 4.768372E-07
v -0.7500004 -3 0.2500004
v -0.7500008 5 0.2500004
v -1 -3 0.2500005
v -1.000001 5 0.2499999
v -0.7500008 5 0.2500004
v -0.7500007 5 4.172317E-07
v -1.000001 5 0.2499999
v -1.000001 5 -1.192103E-07
v 0.7499996 -3 0.2499999
v 0.7499997 5 0.2499999
v 0.7499995 -3 -1.490116E-07
v 0.7499995 5 -1.788152E-07
v -0.7500008 5 0.2500004
v -0.7500004 -3 0.2500004
v -0.7500007 5 4.172317E-07
v -0.7500005 -3 3.874302E-07
v 0.7499996 -3 0.1249999
v 0.7499997 5 0.1249998
v -0.7500004 -3 0.1250004
v -0.7500007 5 0.1250004
vn 3.576279E-07 -2.664535E-15 1
vn -8.940686E-07 -3.911551E-08 1
vn -8.940686E-07 -3.911551E-08 1
vn -2.145765E-06 -7.823102E-08 1
vn 1 -3.725287E-08 -4.768372E-07
vn 1 -1.862637E-08 -1.072883E-06
vn 1 -1.862637E-08 -1.072883E-06
vn 1 1.243447E-13 -1.66893E-06
vn -3.576279E-07 7.450565E-08 -1
vn 8.940697E-07 3.53901E-08 -1
vn 8.940697E-07 3.53901E-08 -1
vn 2.145767E-06 -3.725447E-09 -1
vn -1 -4.470345E-08 4.768372E-07
vn -1 -5.215405E-08 2.384186E-07
vn -1 -5.215405E-08 2.384186E-07
vn -1 -5.960464E-08 0
vn 0 1 0
vn 0 1 0
vn 0 1 0
vn 0 1 0
vn 0 -1 0
vn 0 -1 0
vn 0 -1 0
vn 0 -1 0
vn 0 -1 0
vn 0 -1 0
vn 0 -1 0
vn 0 -1 0
vn 2.145767E-06 3.725255E-09 -1
vn 8.940697E-07 -3.539035E-08 -1
vn 8.940697E-07 -3.539035E-08 -1
vn -3.576279E-07 -7.450595E-08 -1
vn 3.576279E-07 -7.450562E-09 1
vn -8.940694E-07 3.166491E-08 1
vn -8.940694E-07 3.166491E-08 1
vn -2.145767E-06 7.078039E-08 1
vn 0 1 0
vn 0 1 0
vn 0 1 0
vn 0 1 0
vn -1 7.450581E-09 4.768372E-07
vn -1 3.725292E-09 5.960464E-07
vn -1 3.725292E-09 5.960464E-07
vn -1 2.664535E-15 7.152557E-07
vn 1 5.215406E-08 2.384186E-07
vn 1 4.097819E-08 -1.192093E-07
vn 1 4.097819E-08 -1.192093E-07
vn 1 2.980232E-08 -4.768372E-07
vn 3.576279E-07 1.86264E-09 1
vn 3.77496E-07 -1.862639E-09 1
vn 3.77496E-07 -1.862639E-09 1
vn 3.973642E-07 -5.587918E-09 1
vt -0.7499996 -3
vt -0.9999996 -3
vt -0.7499996 5
vt -0.9999998 5
vt -1.875 -3
vt -2.125 -3
vt -1.874999 5
vt -2.124999 5
vt 0.9999995 -3
vt 0.7499995 -3
vt 0.9999995 5
vt 0.7499995 5
vt 2.125 -3
vt 1.875 -3
vt 2.125001 5
vt 1.875001 5
vt 0.7499997 -1.875
vt 0.9999999 -1.875
vt 0.7499995 -2.125
vt 0.9999995 -2.125
vt -0.7499995 -2.125
vt -0.9999995 -2.125
vt -0.7499996 -1.875
vt -0.9999996 -1.875
vt 0.7500005 -2.125
vt 0.7500004 -1.875
vt 1 -2.125
vt 1 -1.875
vt -0.7500007 5
vt -0.7500005 -3
vt -1.000001 5
vt -1 -3
vt 0.7500005 -3
vt 0.7500009 5
vt 1 -3
vt 1.000001 5
vt -0.7500008 -1.875
vt -0.7500007 -2.125
vt -1.000001 -1.875
vt -1.000001 -2.125
vt 1.875 -3
vt 1.875 5
vt 2.125 -3
vt 2.125 5
vt -1.874999 5
vt -1.874999 -3
vt -2.125 5
vt -2.125 -3
vt -0.7499995 -3
vt -0.7499996 5
vt 0.7500005 -3
vt 0.7500008 5
g submesh0
f 1/1/1 2/2/2 3/3/3
f 2/2/2 4/4/4 3/3/3
f 5/5/5 6/6/6 7/7/7
f 6/6/6 8/8/8 7/7/7
f 9/9/9 10/10/10 11/11/11
f 10/10/10 12/12/12 11/11/11
f 13/13/13 14/14/14 15/15/15
f 14/14/14 16/16/16 15/15/15
f 17/17/17 18/18/18 19/19/19
f 18/18/18 20/20/20 19/19/19
f 21/21/21 22/22/22 23/23/23
f 22/22/22 24/24/24 23/23/23
f 25/25/25 26/26/26 27/27/27
f 26/26/26 28/28/28 27/27/27
f 29/29/29 30/30/30 31/31/31
f 30/30/30 32/32/32 31/31/31
f 33/33/33 34/34/34 35/35/35
f 34/34/34 36/36/36 35/35/35
f 37/37/37 38/38/38 39/39/39
f 38/38/38 40/40/40 39/39/39
f 41/41/41 42/42/42 43/43/43
f 42/42/42 44/44/44 43/43/43
f 45/45/45 46/46/46 47/47/47
f 46/46/46 48/48/48 47/47/47
g submesh1
f 49/49/49 50/50/50 51/51/51
f 50/50/50 52/52/52 51/51/51
