v 10 4 -4
v 9 4 -4
v 9 4 4
v 10 4 4
v 9 -6 4
v 10 -6 -4
v 10 -6 4
v 9 -6 -4
v 9 -6 13
v 10 -6 13
v 9 -6 14
v 10 -6 14
v 9 -6 -13
v 10 -6 -14
v 10 -6 -13
v 9 -6 -14
v -9 4 -4
v -9 4 4
v -10 4 -4
v -10 4 4
v -9 -6 4
v -9 -6 -4
v -10 -6 4
v -10 -6 -4
v -9 4 13
v 9 4 13
v -9 -6 13
v -10 -6 13
v -9 -6 14
v -10 -6 14
v 9 4 -13
v -9 4 -13
v -9 -6 -13
v -9 -6 -14
v -10 -6 -13
v -10 -6 -14
v 32 4 -10
v 32 4 10
v 38 4 -14
v 38 4 14
v 18 6 -4
v 10 4 -4
v 10 4 4
v 18 6 4
v 32 4 -4
v 24 6 -4
v 24 6 4
v 32 4 4
v 24 6 -4
v 22 6 -4
v 22 6 4
v 24 6 4
v 20 6 -4
v 20 6 4
v 18 6 -4
v 18 6 4
v 50 4 -14
v 50 4 14
v -10 4 4
v -10 4 -4
v -20 -2 4
v -20 -2 -4
v 32 -6 4
v 32 -6 -4
v 32 -6 10
v 32 -6 -4
v 32 -6 -10
v 32 -6 10
v 32 4 -4
v 32 4 4
v 32 4 -10
v 32 4 4
v 32 4 10
v 32 4 -10
v 32 -6 10
v 32 -6 -10
v 38 -6 14
v 38 -6 -14
v 10 -6 4
v 18 -6 -4
v 18 -6 4
v 10 -6 -4
v 24 -6 4
v 32 -6 -4
v 32 -6 4
v 24 -6 -4
v 50 -6 14
v 50 -6 -14
v 50 3 -14
v 50 3 14
v 50 4 -14
v 50 4 14
v -20 -3 -4
v -20 -6 4
v -20 -3 4
v -20 -6 -4
v -20 -2 -4
v -20 -2 4
v 10 -6 14
v 10 -6 13
v 10 3 13
v 10 3 14
v 10 4 13
v 10 4 14
v 10 -6 4
v 10 3 4
v 10 4 4
v -10 3 13
v -10 -6 14
v -10 3 14
v -10 -6 13
v -10 4 13
v -10 4 14
v -10 3 4
v -10 -6 4
v -10 4 4
v 10 -6 -4
v 10 -6 -13
v 10 3 -13
v 10 3 -4
v 10 4 -13
v 10 4 -4
v 10 -6 -14
v 10 3 -14
v 10 4 -14
v -10 3 -13
v -10 -6 -4
v -10 3 -4
v -10 -6 -13
v -10 4 -13
v -10 4 -4
v -10 3 -14
v -10 -6 -14
v -10 4 -14
v 9 -6 14
v 10 -6 14
v 10 3 14
v 9 3 14
v 10 4 14
v 9 4 14
v 10 3 -14
v 9 -6 -14
v 9 3 -14
v 10 -6 -14
v 10 4 -14
v 9 4 -14
v -10 -6 14
v -9 -6 14
v -9 3 14
v -10 3 14
v -9 4 14
v -10 4 14
v -9 3 -14
v -10 -6 -14
v -10 3 -14
v -9 -6 -14
v -9 4 -14
v -10 4 -14
v 32 3 -10
v 32 -6 -4
v 32 3 -4
v 32 -6 -10
v 32 4 -10
v 32 4 -4
v 32 4 4
v 32 3 10
v 32 4 10
v 32 3 4
v 32 -6 10
v 32 -6 4
v 38 3 -14
v 32 -6 -10
v 32 3 -10
v 38 -6 -14
v 38 4 -14
v 32 4 -10
v 32 3 10
v 38 3 14
v 38 4 14
v 32 4 10
v 32 -6 10
v 38 -6 14
v 18 2 -4
v 10 -6 -4
v 10 3 -4
v 18 -6 -4
v 18 6 -4
v 10 4 -4
v 10 -6 4
v 18 -6 4
v 18 2 4
v 10 3 4
v 18 6 4
v 10 4 4
v 32 3 -4
v 24 -6 -4
v 24 2 -4
v 32 -6 -4
v 32 4 -4
v 24 6 -4
v 24 -6 4
v 32 -6 4
v 32 3 4
v 24 2 4
v 32 4 4
v 24 6 4
v 22 3 -4
v 22 6 -4
v 22 3 4
v 22 6 4
v 20 6 -4
v 20 3 -4
v 20 3 4
v 20 6 4
v 20 3 -4
v 22 3 -4
v 20 3 4
v 22 3 4
v 22 3 -4
v 24 2 -4
v 22 3 4
v 24 2 4
v 18 -6 -4
v 18 2 -4
v 18 -6 4
v 18 2 4
v 18 2 -4
v 20 3 -4
v 18 2 4
v 20 3 4
v 24 2 -4
v 24 -6 -4
v 24 2 4
v 24 -6 4
v 50 -6 14
v 50 -6 -14
v 38 -6 -14
v 38 3 -14
v 50 -6 -14
v 50 3 -14
v 38 3 14
v 38 -6 14
v 50 3 14
v 50 -6 14
v 38 4 -14
v 50 4 -14
v 38 4 14
v 50 4 14
v -10 -6 10
v -10 -3 10
v -20 -6 10
v -20 -3 10
v -10 -3 -10
v -10 -6 -10
v -14 -3 -7.5
v -14 -6 -7.5
v -10 -6 -4
v -10 -6 4
v -20 -6 -4
v -20 -6 4
v -10 -2 10
v -20 -2.5 10
v -10 -2 -10
v -14 -2 -7.5
v -10 -6 4
v -10 3 4
v -10 -6 10
v -10 -3 10
v -20 -6 10
v -10 -6 10
v -10 4 4
v -20 -2 4
v -10 -2 10
v -20 -2.5 10
v -20 -3 10
v -20 -6 10
v -10 4 4
v -10 -2 10
v -20 -2.5 10
v -10 3 -4
v -10 -6 -4
v -10 -3 -10
v -10 -6 -10
v -20 -3 -4
v -20 -2 -4
v -14 -3 -7.5
v -14 -2 -7.5
v -20 -6 -4
v -10 -6 -10
v -14 -6 -7.5
v -20 -6 -4
v -14 -6 -7.5
v -10 4 -4
v -10 -2 -10
v -20 -2 -4
v -10 4 -4
v -14 -2 -7.5
v -10 4 -4
v -10 -2 -10
v -14 -2 -7.5
v 10 6 4
v 9 6 4
v 9 6 13
v 10 6 13
v 9 6 14
v 10 6 14
v 10 6 -14
v 9 6 -14
v 9 6 -13
v 10 6 -13
v 9 6 -4
v 10 6 -4
v -9 6 4
v -10 6 4
v -10 6 13
v -9 6 13
v -9 6 14
v -10 6 14
v -9 6 -14
v -9 6 -13
v -10 6 -14
v -10 6 -13
v -10 6 -4
v -9 6 -4
v 9 4 -14
v -9 4 -14
v 9 6 -14
v -9 6 -14
v -10 4 -13
v -10 4 -4
v -10 6 -13
v -10 6 -4
v -9 4 -4
v -9 4 -13
v -9 6 -4
v -9 6 -13
v -10 4 -4
v -9 4 -4
v -10 6 -4
v -9 6 -4
v -10 4 -14
v -10 6 -14
v -10 4 -14
v -10 6 -14
v 10 4 -13
v 10 4 -14
v 10 6 -13
v 10 6 -14
v -9 4 -13
v 9 4 -13
v -9 6 -13
v 9 6 -13
v 10 4 -14
v 10 6 -14
v 9 4 -13
v 9 4 -4
v 9 6 -13
v 9 6 -4
v 10 4 -4
v 10 6 -4
v 9 4 -4
v 10 4 -4
v 9 6 -4
v 10 6 -4
v 10 4 4
v 9 4 4
v 10 6 4
v 9 6 4
v 9 4 4
v 9 4 13
v 9 6 4
v 9 6 13
v 10 4 13
v 10 4 4
v 10 6 13
v 10 6 4
v -9 4 14
v 9 4 14
v -9 6 14
v 9 6 14
v 10 4 14
v 10 6 14
v 10 4 14
v 10 6 14
v 9 4 13
v -9 4 13
v 9 6 13
v -9 6 13
v -10 4 14
v -10 6 14
v -10 4 13
v -10 4 14
v -10 6 13
v -10 6 14
v -9 4 4
v -10 4 4
v -9 6 4
v -10 6 4
v -10 4 4
v -10 6 4
v -9 4 13
v -9 4 4
v -9 6 13
v -9 6 4
vn 0 1 0
vn 0 1 0
vn 0 1 0
vn 0 1 0
vn 0 -1 0
vn 0 -1 0
vn 0 -1 0
vn 0 -1 0
vn 0 -1 0
vn 0 -1 0
vn 0 -1 0
vn 0 -1 0
vn 0 -1 0
vn 0 -1 0
vn 0 -1 0
vn 0 -1 0
vn 0 1 0
vn 0 1 0
vn 0 1 0
vn 0 1 0
vn 0 -1 0
vn 0 -1 0
vn 0 -1 0
vn 0 -1 0
vn 0 1 0
vn 0 1 0
vn 0 -1 0
vn 0 -1 0
vn 0 -1 0
vn 0 -1 0
vn 0 1 0
vn 0 1 0
vn 0 -1 0
vn 0 -1 0
vn 0 -1 0
vn 0 -1 0
vn 0 1 0
vn 0 1 0
vn 0 1 0
vn 0 1 0
vn -0.2425356 0.9701425 0
vn -0.2425356 0.9701425 0
vn -0.2425356 0.9701425 0
vn -0.2425356 0.9701425 0
vn 0.2425356 0.9701425 0
vn 0.2425356 0.9701425 0
vn 0.2425356 0.9701425 0
vn 0.2425356 0.9701425 0
vn 0 1 0
vn 0 1 0
vn 0 1 0
vn 0 1 0
vn 0 1 0
vn 0 1 0
vn 0 1 0
vn 0 1 0
vn 0 1 0
vn 0 1 0
vn -0.5144957 0.8574929 0
vn -0.5144957 0.8574929 0
vn -0.5144957 0.8574929 0
vn -0.5144957 0.8574929 0
vn 0 0 0
vn 0 0 0
vn 0 0 0
vn 0 0 0
vn 0 0 0
vn 0 0 0
vn 0 0 0
vn 0 0 0
vn 0 0 0
vn 0 0 0
vn 0 0 0
vn 0 0 0
vn 0 -1 0
vn 0 -1 0
vn 0 -1 0
vn 0 -1 0
vn 0 -1 0
vn 0 -1 0
vn 0 -1 0
vn 0 -1 0
vn 0 -1 0
vn 0 -1 0
vn 0 -1 0
vn 0 -1 0
vn 1 0 0
vn 1 0 0
vn 1 0 0
vn 1 0 0
vn 1 0 0
vn 1 0 0
vn -1 0 0
vn -1 0 0
vn -1 0 0
vn -1 0 0
vn -1 0 0
vn -1 0 0
vn 1 0 0
vn 1 0 0
vn 1 0 0
vn 1 0 0
vn 1 0 0
vn 1 0 0
vn 1 0 0
vn 1 0 0
vn 1 0 0
vn -1 0 0
vn -1 0 0
vn -1 0 0
vn -1 0 0
vn -1 0 0
vn -1 0 0
vn -1 0 0
vn -1 0 0
vn -1 0 0
vn 1 0 0
vn 1 0 0
vn 1 0 0
vn 1 0 0
vn 1 0 0
vn 1 0 0
vn 1 0 0
vn 1 0 0
vn 1 0 0
vn -1 0 0
vn -1 0 0
vn -1 0 0
vn -1 0 0
vn -1 0 0
vn -1 0 0
vn -1 0 0
vn -1 0 0
vn -1 0 0
vn 0 0 1
vn 0 0 1
vn 0 0 1
vn 0 0 1
vn 0 0 1
vn 0 0 1
vn 0 0 -1
vn 0 0 -1
vn 0 0 -1
vn 0 0 -1
vn 0 0 -1
vn 0 0 -1
vn 0 0 1
vn 0 0 1
vn 0 0 1
vn 0 0 1
vn 0 0 1
vn 0 0 1
vn 0 0 -1
vn 0 0 -1
vn 0 0 -1
vn 0 0 -1
vn 0 0 -1
vn 0 0 -1
vn -1 0 0
vn -1 0 0
vn -1 0 0
vn -1 0 0
vn -1 0 0
vn -1 0 0
vn -1 0 0
vn -1 0 0
vn -1 0 0
vn -1 0 0
vn -1 0 0
vn -1 0 0
vn -0.5547002 0 -0.8320503
vn -0.5547002 0 -0.8320503
vn -0.5547002 0 -0.8320503
vn -0.5547002 0 -0.8320503
vn -0.5547002 0 -0.8320503
vn -0.5547002 0 -0.8320503
vn -0.5547002 0 0.8320503
vn -0.5547002 0 0.8320503
vn -0.5547002 0 0.8320503
vn -0.5547002 0 0.8320503
vn -0.5547002 0 0.8320503
vn -0.5547002 0 0.8320503
vn 0 0 -1
vn 0 0 -1
vn 0 0 -1
vn 0 0 -1
vn 0 0 -1
vn 0 0 -1
vn 0 0 1
vn 0 0 1
vn 0 0 1
vn 0 0 1
vn 0 0 1
vn 0 0 1
vn 0 0 -1
vn 0 0 -1
vn 0 0 -1
vn 0 0 -1
vn 0 0 -1
vn 0 0 -1
vn 0 0 1
vn 0 0 1
vn 0 0 1
vn 0 0 1
vn 0 0 1
vn 0 0 1
vn 0 0 -1
vn 0 0 -1
vn 0 0 1
vn 0 0 1
vn 0 0 -1
vn 0 0 -1
vn 0 0 1
vn 0 0 1
vn 0 -1 0
vn 0 -1 0
vn 0 -1 0
vn 0 -1 0
vn -0.4472136 -0.8944272 0
vn -0.4472136 -0.8944272 0
vn -0.4472136 -0.8944272 0
vn -0.4472136 -0.8944272 0
vn 1 0 0
vn 1 0 0
vn 1 0 0
vn 1 0 0
vn 0.4472136 -0.8944272 0
vn 0.4472136 -0.8944272 0
vn 0.4472136 -0.8944272 0
vn 0.4472136 -0.8944272 0
vn -1 0 0
vn -1 0 0
vn -1 0 0
vn -1 0 0
vn 0 -1 0
vn 0 -1 0
vn 0 0 -1
vn 0 0 -1
vn 0 0 -1
vn 0 0 -1
vn 0 0 1
vn 0 0 1
vn 0 0 1
vn 0 0 1
vn 0 0 -1
vn 0 0 -1
vn 0 0 1
vn 0 0 1
vn 0 0 1
vn 0 0 1
vn 0 0 1
vn 0 0 1
vn -0.529999 0 -0.8479983
vn -0.529999 0 -0.8479983
vn -0.529999 0 -0.8479983
vn -0.529999 0 -0.8479983
vn 0 -1 0
vn 0 -1 0
vn 0 -1 0
vn 0 -1 0
vn 0 0 1
vn 0 0 1
vn -0.529999 0 -0.8479983
vn -0.529999 0 -0.8479983
vn 1 0 0
vn 1 0 0
vn 1 0 0
vn 1 0 0
vn 0 -1 0
vn 0 -1 0
vn -0.3905667 0.6509446 0.6509446
vn -0.2201661 0.8231277 0.3669436
vn -0.2201661 0.8231277 0.3669436
vn -0.04976555 0.995311 0.08294258
vn -1 0 0
vn -1 0 0
vn 1 0 0
vn 1 0 0
vn -1 0 0
vn 1 0 0
vn 1 0 0
vn 1 0 0
vn 1 0 0
vn -0.503871 0 -0.8637789
vn -0.503871 0 -0.8637789
vn -0.503871 0 -0.8637789
vn -0.503871 0 -0.8637789
vn 0 0 0
vn 0 0 0
vn 0 1 0
vn -0.503871 0 -0.8637789
vn -0.503871 0 -0.8637789
vn 1 0 0
vn 1 0 0
vn -0.3858573 0.6430956 -0.6614698
vn -0.3858573 0.6430956 -0.6614698
vn -0.3858573 0.6430956 -0.6614698
vn -0.404226 0.6467617 -0.6467617
vn -0.404226 0.6467617 -0.6467617
vn -0.404226 0.6467617 -0.6467617
vn 0 1 0
vn 0 1 0
vn 0 1 0
vn 0 1 0
vn 0 1 0
vn 0 1 0
vn 0 1 0
vn 0 1 0
vn 0 1 0
vn 0 1 0
vn 0 1 0
vn 0 1 0
vn 0 1 0
vn 0 1 0
vn 0 1 0
vn 0 1 0
vn 0 1 0
vn 0 1 0
vn 0 1 0
vn 0 1 0
vn 0 1 0
vn 0 1 0
vn 0 1 0
vn 0 1 0
vn 0 0 -1
vn 0 0 -1
vn 0 0 -1
vn 0 0 -1
vn -1 0 0
vn -1 0 0
vn -1 0 0
vn -1 0 0
vn 1 0 0
vn 1 0 0
vn 1 0 0
vn 1 0 0
vn 0 0 1
vn 0 0 1
vn 0 0 1
vn 0 0 1
vn 0 0 -1
vn 0 0 -1
vn -1 0 0
vn -1 0 0
vn 1 0 0
vn 1 0 0
vn 1 0 0
vn 1 0 0
vn 0 0 1
vn 0 0 1
vn 0 0 1
vn 0 0 1
vn 0 0 -1
vn 0 0 -1
vn -1 0 0
vn -1 0 0
vn -1 0 0
vn -1 0 0
vn 1 0 0
vn 1 0 0
vn 0 0 1
vn 0 0 1
vn 0 0 1
vn 0 0 1
vn 0 0 -1
vn 0 0 -1
vn 0 0 -1
vn 0 0 -1
vn -1 0 0
vn -1 0 0
vn -1 0 0
vn -1 0 0
vn 1 0 0
vn 1 0 0
vn 1 0 0
vn 1 0 0
vn 0 0 1
vn 0 0 1
vn 0 0 1
vn 0 0 1
vn 1 0 0
vn 1 0 0
vn 0 0 1
vn 0 0 1
vn 0 0 -1
vn 0 0 -1
vn 0 0 -1
vn 0 0 -1
vn 0 0 1
vn 0 0 1
vn -1 0 0
vn -1 0 0
vn -1 0 0
vn -1 0 0
vn 0 0 -1
vn 0 0 -1
vn 0 0 -1
vn 0 0 -1
vn -1 0 0
vn -1 0 0
vn 1 0 0
vn 1 0 0
vn 1 0 0
vn 1 0 0
vt 10 -4
vt 9 -4
vt 9 4
vt 10 4
vt -9 4
vt -10 -4
vt -10 4
vt -9 -4
vt -9 13
vt -10 13
vt -9 14
vt -10 14
vt -9 -13
vt -10 -14
vt -10 -13
vt -9 -14
vt -9 -4
vt -9 4
vt -10 -4
vt -10 4
vt 9 4
vt 9 -4
vt 10 4
vt 10 -4
vt -9 13
vt 9 13
vt 9 13
vt 10 13
vt 9 14
vt 10 14
vt 9 -13
vt -9 -13
vt 9 -13
vt 9 -14
vt 10 -13
vt 10 -14
vt 32 -10
vt 32 10
vt 38 -14
vt 38 14
vt 18 -4
vt 10 -4
vt 10 4
vt 18 4
vt 32 -4
vt 24 -4
vt 24 4
vt 32 4
vt 24 -4
vt 22 -4
vt 22 4
vt 24 4
vt 20 -4
vt 20 4
vt 18 -4
vt 18 4
vt 50 -14
vt 50 14
vt -6.516946 4
vt -6.516946 -4
vt -18.17885 4
vt -18.17885 -4
vt 0 0
vt 0 0
vt 0 0
vt 0 0
vt 0 0
vt 0 0
vt 0 0
vt 0 0
vt 0 0
vt 0 0
vt 0 0
vt 0 0
vt -32 10
vt -32 -10
vt -38 14
vt -38 -14
vt -10 4
vt -18 -4
vt -18 4
vt -10 -4
vt -24 4
vt -32 -4
vt -32 4
vt -24 -4
vt 14 -6
vt -14 -6
vt -14 3
vt 14 3
vt -14 4
vt 14 4
vt 4 -3
vt -4 -6
vt -4 -3
vt 4 -6
vt 4 -2
vt -4 -2
vt 14 -6
vt 13 -6
vt 13 3
vt 14 3
vt 13 4
vt 14 4
vt 4 -6
vt 4 3
vt 4 4
vt -13 3
vt -14 -6
vt -14 3
vt -13 -6
vt -13 4
vt -14 4
vt -4 3
vt -4 -6
vt -4 4
vt -4 -6
vt -13 -6
vt -13 3
vt -4 3
vt -13 4
vt -4 4
vt -14 -6
vt -14 3
vt -14 4
vt 13 3
vt 4 -6
vt 4 3
vt 13 -6
vt 13 4
vt 4 4
vt 14 3
vt 14 -6
vt 14 4
vt -9 -6
vt -10 -6
vt -10 3
vt -9 3
vt -10 4
vt -9 4
vt 10 3
vt 9 -6
vt 9 3
vt 10 -6
vt 10 4
vt 9 4
vt 10 -6
vt 9 -6
vt 9 3
vt 10 3
vt 9 4
vt 10 4
vt -9 3
vt -10 -6
vt -10 3
vt -9 -6
vt -9 4
vt -10 4
vt 10 3
vt 4 -6
vt 4 3
vt 10 -6
vt 10 4
vt 4 4
vt -4 4
vt -10 3
vt -10 4
vt -4 3
vt -10 -6
vt -4 -6
vt 39.38372 3
vt 32.17261 -6
vt 32.17261 3
vt 39.38372 -6
vt 39.38372 4
vt 32.17261 4
vt -32.17261 3
vt -39.38372 3
vt -39.38372 4
vt -32.17261 4
vt -32.17261 -6
vt -39.38372 -6
vt 18 2
vt 10 -6
vt 10 3
vt 18 -6
vt 18 6
vt 10 4
vt -10 -6
vt -18 -6
vt -18 2
vt -10 3
vt -18 6
vt -10 4
vt 32 3
vt 24 -6
vt 24 2
vt 32 -6
vt 32 4
vt 24 6
vt -24 -6
vt -32 -6
vt -32 3
vt -24 2
vt -32 4
vt -24 6
vt 22 3
vt 22 6
vt -22 3
vt -22 6
vt 20 6
vt 20 3
vt -20 3
vt -20 6
vt -20 -4
vt -22 -4
vt -20 4
vt -22 4
vt -18.33576 -4
vt -20.57183 -4
vt -18.33576 4
vt -20.57183 4
vt -4 -6
vt -4 2
vt 4 -6
vt 4 2
vt -16.99412 -4
vt -19.23018 -4
vt -16.99412 4
vt -19.23018 4
vt 4 2
vt 4 -6
vt -4 2
vt -4 -6
vt -50 14
vt -50 -14
vt 38 -6
vt 38 3
vt 50 -6
vt 50 3
vt -38 3
vt -38 -6
vt -50 3
vt -50 -6
vt 38 4
vt 50 4
vt -38 4
vt -50 4
vt 10 -6
vt 10 -3
vt 20 -6
vt 20 -3
vt -3.179994 -3
vt -3.179994 -6
vt -7.896984 -3
vt -7.896984 -6
vt 10 -4
vt 10 4
vt 20 -4
vt 20 4
vt 10 -2
vt 20 -2.5
vt -3.179994 -2
vt -7.896984 -2
vt 4 -6
vt 4 3
vt 10 -6
vt 10 -3
vt 20 10
vt 10 10
vt 6.516946 -2.545302
vt 15.09188 -10.44914
vt 3.429972 -10.44914
vt 12.0049 -14.17778
vt -10 -3
vt -10 -6
vt 4 4
vt 10 -2
vt -10 -2.5
vt -4 3
vt -4 -6
vt -10 -3
vt -10 -6
vt -15.26009 -3
vt -15.26009 -2
vt -8.313872 -3
vt -8.313872 -2
vt 20 -4
vt 10 -10
vt 14 -7.5
vt -15.26009 -6
vt -8.313871 -6
vt -4 4
vt -10 -2
vt -15.26009 -10.23429
vt -6.622305 -2.399198
vt -8.313872 -10.23429
vt -6.359987 -2.570872
vt -3.179994 -10.43774
vt -7.896984 -10.43774
vt 10 4
vt 9 4
vt 9 13
vt 10 13
vt 9 14
vt 10 14
vt 10 -14
vt 9 -14
vt 9 -13
vt 10 -13
vt 9 -4
vt 10 -4
vt -9 4
vt -10 4
vt -10 13
vt -9 13
vt -9 14
vt -10 14
vt -9 -14
vt -9 -13
vt -10 -14
vt -10 -13
vt -10 -4
vt -9 -4
vt 9 4
vt -9 4
vt 9 6
vt -9 6
vt 13 4
vt 4 4
vt 13 6
vt 4 6
vt -4 4
vt -13 4
vt -4 6
vt -13 6
vt 10 4
vt 9 4
vt 10 6
vt 9 6
vt -10 4
vt -10 6
vt 14 4
vt 14 6
vt -13 4
vt -14 4
vt -13 6
vt -14 6
vt 9 4
vt -9 4
vt 9 6
vt -9 6
vt 10 4
vt 10 6
vt 13 4
vt 4 4
vt 13 6
vt 4 6
vt -4 4
vt -4 6
vt -9 4
vt -10 4
vt -9 6
vt -10 6
vt 10 4
vt 9 4
vt 10 6
vt 9 6
vt -4 4
vt -13 4
vt -4 6
vt -13 6
vt 13 4
vt 4 4
vt 13 6
vt 4 6
vt 9 4
vt -9 4
vt 9 6
vt -9 6
vt 14 4
vt 14 6
vt -10 4
vt -10 6
vt 9 4
vt -9 4
vt 9 6
vt -9 6
vt 10 4
vt 10 6
vt -13 4
vt -14 4
vt -13 6
vt -14 6
vt -9 4
vt -10 4
vt -9 6
vt -10 6
vt -4 4
vt -4 6
vt 13 4
vt 4 4
vt 13 6
vt 4 6
g submesh0
f 1/1/1 2/2/2 3/3/3
f 4/4/4 1/1/1 3/3/3
f 5/5/5 6/6/6 7/7/7
f 5/5/5 8/8/8 6/6/6
f 9/9/9 7/7/7 10/10/10
f 9/9/9 5/5/5 7/7/7
f 11/11/11 10/10/10 12/12/12
f 11/11/11 9/9/9 10/10/10
f 13/13/13 14/14/14 15/15/15
f 13/13/13 16/16/16 14/14/14
f 8/8/8 15/15/15 6/6/6
f 8/8/8 13/13/13 15/15/15
f 2/2/2 17/17/17 18/18/18
f 3/3/3 2/2/2 18/18/18
f 17/17/17 19/19/19 20/20/20
f 18/18/18 17/17/17 20/20/20
f 21/21/21 8/8/8 5/5/5
f 21/21/21 22/22/22 8/8/8
f 23/23/23 22/22/22 21/21/21
f 23/23/23 24/24/24 22/22/22
f 3/3/3 18/18/18 25/25/25
f 26/26/26 3/3/3 25/25/25
f 27/27/27 5/5/5 9/9/9
f 27/27/27 21/21/21 5/5/5
f 28/28/28 21/21/21 27/27/27
f 28/28/28 23/23/23 21/21/21
f 29/29/29 9/9/9 11/11/11
f 29/29/29 27/27/27 9/9/9
f 30/30/30 27/27/27 29/29/29
f 30/30/30 28/28/28 27/27/27
f 31/31/31 32/32/32 17/17/17
f 2/2/2 31/31/31 17/17/17
f 33/33/33 16/16/16 13/13/13
f 33/33/33 34/34/34 16/16/16
f 35/35/35 34/34/34 33/33/33
f 35/35/35 36/36/36 34/34/34
f 22/22/22 13/13/13 8/8/8
f 22/22/22 33/33/33 13/13/13
f 24/24/24 33/33/33 22/22/22
f 24/24/24 35/35/35 33/33/33
f 37/37/37 38/38/38 39/39/39
f 38/38/38 40/40/40 39/39/39
f 41/41/41 42/42/42 43/43/43
f 44/44/44 41/41/41 43/43/43
f 45/45/45 46/46/46 47/47/47
f 48/48/48 45/45/45 47/47/47
f 49/49/49 50/50/50 51/51/51
f 52/52/52 49/49/49 51/51/51
f 50/50/50 53/53/53 54/54/54
f 51/51/51 50/50/50 54/54/54
f 53/53/53 55/55/55 56/56/56
f 54/54/54 53/53/53 56/56/56
f 39/39/39 40/40/40 57/57/57
f 40/40/40 58/58/58 57/57/57
f 59/59/59 60/60/60 61/61/61
f 60/60/60 62/62/62 61/61/61
g submesh1
f 63/63/63 64/64/64 65/65/65
f 66/66/66 67/67/67 68/68/68
f 69/69/69 70/70/70 71/71/71
f 72/72/72 73/73/73 74/74/74
f 75/75/75 76/76/76 77/77/77
f 76/76/76 78/78/78 77/77/77
f 79/79/79 80/80/80 81/81/81
f 79/79/79 82/82/82 80/80/80
f 83/83/83 84/84/84 85/85/85
f 83/83/83 86/86/86 84/84/84
f 87/87/87 88/88/88 89/89/89
f 90/90/90 87/87/87 89/89/89
f 90/90/90 89/89/89 91/91/91
f 92/92/92 90/90/90 91/91/91
f 93/93/93 94/94/94 95/95/95
f 93/93/93 96/96/96 94/94/94
f 97/97/97 95/95/95 98/98/98
f 97/97/97 93/93/93 95/95/95
f 99/99/99 100/100/100 101/101/101
f 102/102/102 99/99/99 101/101/101
f 102/102/102 101/101/101 103/103/103
f 104/104/104 102/102/102 103/103/103
f 100/100/100 105/105/105 106/106/106
f 101/101/101 100/100/100 106/106/106
f 101/101/101 106/106/106 107/107/107
f 103/103/103 101/101/101 107/107/107
f 108/108/108 109/109/109 110/110/110
f 108/108/108 111/111/111 109/109/109
f 112/112/112 110/110/110 113/113/113
f 112/112/112 108/108/108 110/110/110
f 114/114/114 111/111/111 108/108/108
f 114/114/114 115/115/115 111/111/111
f 116/116/116 108/108/108 112/112/112
f 116/116/116 114/114/114 108/108/108
f 117/117/117 118/118/118 119/119/119
f 120/120/120 117/117/117 119/119/119
f 120/120/120 119/119/119 121/121/121
f 122/122/122 120/120/120 121/121/121
f 118/118/118 123/123/123 124/124/124
f 119/119/119 118/118/118 124/124/124
f 119/119/119 124/124/124 125/125/125
f 121/121/121 119/119/119 125/125/125
f 126/126/126 127/127/127 128/128/128
f 126/126/126 129/129/129 127/127/127
f 130/130/130 128/128/128 131/131/131
f 130/130/130 126/126/126 128/128/128
f 132/132/132 129/129/129 126/126/126
f 132/132/132 133/133/133 129/129/129
f 134/134/134 126/126/126 130/130/130
f 134/134/134 132/132/132 126/126/126
f 135/135/135 136/136/136 137/137/137
f 138/138/138 135/135/135 137/137/137
f 138/138/138 137/137/137 139/139/139
f 140/140/140 138/138/138 139/139/139
f 141/141/141 142/142/142 143/143/143
f 141/141/141 144/144/144 142/142/142
f 145/145/145 143/143/143 146/146/146
f 145/145/145 141/141/141 143/143/143
f 147/147/147 148/148/148 149/149/149
f 150/150/150 147/147/147 149/149/149
f 150/150/150 149/149/149 151/151/151
f 152/152/152 150/150/150 151/151/151
f 148/148/148 135/135/135 138/138/138
f 149/149/149 148/148/148 138/138/138
f 149/149/149 138/138/138 140/140/140
f 151/151/151 149/149/149 140/140/140
f 153/153/153 154/154/154 155/155/155
f 153/153/153 156/156/156 154/154/154
f 157/157/157 155/155/155 158/158/158
f 157/157/157 153/153/153 155/155/155
f 143/143/143 156/156/156 153/153/153
f 143/143/143 142/142/142 156/156/156
f 146/146/146 153/153/153 157/157/157
f 146/146/146 143/143/143 153/153/153
f 159/159/159 160/160/160 161/161/161
f 159/159/159 162/162/162 160/160/160
f 163/163/163 161/161/161 164/164/164
f 163/163/163 159/159/159 161/161/161
f 165/165/165 166/166/166 167/167/167
f 165/165/165 168/168/168 166/166/166
f 168/168/168 169/169/169 166/166/166
f 168/168/168 170/170/170 169/169/169
f 171/171/171 172/172/172 173/173/173
f 171/171/171 174/174/174 172/172/172
f 175/175/175 173/173/173 176/176/176
f 175/175/175 171/171/171 173/173/173
f 177/177/177 178/178/178 179/179/179
f 180/180/180 177/177/177 179/179/179
f 181/181/181 182/182/182 178/178/178
f 177/177/177 181/181/181 178/178/178
f 183/183/183 184/184/184 185/185/185
f 183/183/183 186/186/186 184/184/184
f 187/187/187 185/185/185 188/188/188
f 187/187/187 183/183/183 185/185/185
f 189/189/189 190/190/190 191/191/191
f 192/192/192 189/189/189 191/191/191
f 192/192/192 191/191/191 193/193/193
f 194/194/194 192/192/192 193/193/193
f 195/195/195 196/196/196 197/197/197
f 195/195/195 198/198/198 196/196/196
f 199/199/199 197/197/197 200/200/200
f 199/199/199 195/195/195 197/197/197
f 201/201/201 202/202/202 203/203/203
f 204/204/204 201/201/201 203/203/203
f 204/204/204 203/203/203 205/205/205
f 206/206/206 204/204/204 205/205/205
f 200/200/200 207/207/207 208/208/208
f 200/200/200 197/197/197 207/207/207
f 209/209/209 204/204/204 206/206/206
f 210/210/210 209/209/209 206/206/206
f 211/211/211 183/183/183 187/187/187
f 211/211/211 212/212/212 183/183/183
f 208/208/208 212/212/212 211/211/211
f 208/208/208 207/207/207 212/212/212
f 191/191/191 213/213/213 214/214/214
f 193/193/193 191/191/191 214/214/214
f 213/213/213 209/209/209 210/210/210
f 214/214/214 213/213/213 210/210/210
f 215/215/215 216/216/216 217/217/217
f 216/216/216 218/218/218 217/217/217
f 219/219/219 220/220/220 221/221/221
f 220/220/220 222/222/222 221/221/221
f 223/223/223 224/224/224 225/225/225
f 224/224/224 226/226/226 225/225/225
f 227/227/227 228/228/228 229/229/229
f 228/228/228 230/230/230 229/229/229
f 231/231/231 232/232/232 233/233/233
f 232/232/232 234/234/234 233/233/233
f 77/77/77 78/78/78 235/235/235
f 78/78/78 236/236/236 235/235/235
f 237/237/237 238/238/238 239/239/239
f 238/238/238 240/240/240 239/239/239
f 241/241/241 242/242/242 243/243/243
f 242/242/242 244/244/244 243/243/243
f 238/238/238 245/245/245 240/240/240
f 245/245/245 246/246/246 240/240/240
f 247/247/247 241/241/241 248/248/248
f 241/241/241 243/243/243 248/248/248
f 249/249/249 250/250/250 251/251/251
f 250/250/250 252/252/252 251/251/251
f 253/253/253 254/254/254 255/255/255
f 254/254/254 256/256/256 255/255/255
f 257/257/257 258/258/258 259/259/259
f 258/258/258 260/260/260 259/259/259
f 250/250/250 261/261/261 252/252/252
f 261/261/261 262/262/262 252/252/252
f 263/263/263 253/253/253 264/264/264
f 253/253/253 255/255/255 264/264/264
f 265/265/265 266/266/266 267/267/267
f 266/266/266 268/268/268 267/267/267
f 260/260/260 258/258/258 269/269/269
f 258/258/258 270/270/270 269/269/269
f 271/271/271 272/272/272 273/273/273
f 272/272/272 274/274/274 273/273/273
f 95/95/95 94/94/94 275/275/275
f 94/94/94 276/276/276 275/275/275
f 266/266/266 277/277/277 268/268/268
f 277/277/277 278/278/278 268/268/268
f 98/98/98 95/95/95 279/279/279
f 95/95/95 275/275/275 279/279/279
f 280/280/280 281/281/281 282/282/282
f 281/281/281 283/283/283 282/282/282
f 284/284/284 285/285/285 286/286/286
f 285/285/285 287/287/287 286/286/286
f 257/257/257 288/288/288 289/289/289
f 288/288/288 290/290/290 289/289/289
f 291/291/291 284/284/284 292/292/292
f 284/284/284 286/286/286 292/292/292
f 293/293/293 280/280/280 294/294/294
f 280/280/280 282/282/282 294/294/294
f 295/295/295 296/296/296 297/297/297
f 298/298/298 299/299/299 300/300/300
g submesh2
f 301/301/301 302/302/302 303/303/303
f 304/304/304 301/301/301 303/303/303
f 304/304/304 303/303/303 305/305/305
f 306/306/306 304/304/304 305/305/305
f 307/307/307 308/308/308 309/309/309
f 310/310/310 307/307/307 309/309/309
f 310/310/310 309/309/309 311/311/311
f 312/312/312 310/310/310 311/311/311
f 313/313/313 314/314/314 315/315/315
f 316/316/316 313/313/313 315/315/315
f 303/303/303 316/316/316 317/317/317
f 305/305/305 303/303/303 317/317/317
f 316/316/316 315/315/315 318/318/318
f 317/317/317 316/316/316 318/318/318
f 308/308/308 319/319/319 320/320/320
f 309/309/309 308/308/308 320/320/320
f 319/319/319 321/321/321 322/322/322
f 320/320/320 319/319/319 322/322/322
f 320/320/320 322/322/322 323/323/323
f 324/324/324 320/320/320 323/323/323
f 325/325/325 326/326/326 327/327/327
f 326/326/326 328/328/328 327/327/327
f 329/329/329 330/330/330 331/331/331
f 330/330/330 332/332/332 331/331/331
f 333/333/333 334/334/334 335/335/335
f 334/334/334 336/336/336 335/335/335
f 337/337/337 338/338/338 339/339/339
f 338/338/338 340/340/340 339/339/339
f 326/326/326 341/341/341 328/328/328
f 341/341/341 342/342/342 328/328/328
f 343/343/343 329/329/329 344/344/344
f 329/329/329 331/331/331 344/344/344
f 345/345/345 346/346/346 347/347/347
f 346/346/346 348/348/348 347/347/347
f 349/349/349 350/350/350 351/351/351
f 350/350/350 352/352/352 351/351/351
f 353/353/353 325/325/325 354/354/354
f 325/325/325 327/327/327 354/354/354
f 355/355/355 356/356/356 357/357/357
f 356/356/356 358/358/358 357/357/357
f 359/359/359 345/345/345 360/360/360
f 345/345/345 347/347/347 360/360/360
f 361/361/361 362/362/362 363/363/363
f 362/362/362 364/364/364 363/363/363
f 365/365/365 366/366/366 367/367/367
f 366/366/366 368/368/368 367/367/367
f 369/369/369 370/370/370 371/371/371
f 370/370/370 372/372/372 371/371/371
f 373/373/373 374/374/374 375/375/375
f 374/374/374 376/376/376 375/375/375
f 377/377/377 378/378/378 379/379/379
f 378/378/378 380/380/380 379/379/379
f 381/381/381 373/373/373 382/382/382
f 373/373/373 375/375/375 382/382/382
f 378/378/378 383/383/383 380/380/380
f 383/383/383 384/384/384 380/380/380
f 385/385/385 386/386/386 387/387/387
f 386/386/386 388/388/388 387/387/387
f 389/389/389 377/377/377 390/390/390
f 377/377/377 379/379/379 390/390/390
f 391/391/391 392/392/392 393/393/393
f 392/392/392 394/394/394 393/393/393
f 395/395/395 396/396/396 397/397/397
f 396/396/396 398/398/398 397/397/397
f 399/399/399 391/391/391 400/400/400
f 391/391/391 393/393/393 400/400/400
f 401/401/401 402/402/402 403/403/403
f 402/402/402 404/404/404 403/403/403
