v 3 0 -4
v 2 1 -4
v 2 1 6
v 3 0 6
v 3 0 -4
v 3 0 -4
v 3 0 6
v 3 0 -4
v 3 0 6
v 3 0 6
v 2 -2 6
v 3 -2 -4
v 3 -2 6
v 2 -2 -4
v 3 -2 6
v 3 -2 -4
v 3 -2 6
v 3 -2 6
v 3 -2 -4
v 3 -2 -4
v 2 1 6
v 2 1 -4
v 1 1 6
v 1 1 -4
v 3 -2 6
v 3 -2 -4
v 3 0 6
v 3 0 -4
v 1 -2 -4
v 1 -2 6
v 1 1 -4
v 1 1 6
v 2 -2 6
v 3 -2 6
v 3 0 6
v 2 1 6
v 3 -2 6
v 3 -2 6
v 3 0 6
v 3 0 6
v 3 -2 6
v 3 0 6
v 3 0 -4
v 3 -2 -4
v 3 0 -4
v 3 0 -4
v 3 -2 -4
v 3 -2 -4
v 3 0 -4
v 2 -2 -4
v 2 1 -4
v 3 -2 -4
v 2 -2 -4
v 2 -2 6
v 1 -2 -4
v 1 -2 6
v 1 1 -4
v 1 -2 -4
v 1 -2 6
v 1 1 6
vn 0.7071068 0.7071068 0
vn 0.7071068 0.7071068 0
vn 0.7071068 0.7071068 0
vn 0.7071068 0.7071068 0
vn 0 0 0
vn 0 0 0
vn 0 0 0
vn 0 0 0
vn 0 0 0
vn 0 0 0
vn 0 -1 0
vn 0 -1 0
vn 0 -1 0
vn 0 -1 0
vn 0 0 0
vn 0 0 0
vn 0 0 0
vn 0 0 0
vn 0 0 0
vn 0 0 0
vn 0 1 0
vn 0 1 0
vn 0 1 0
vn 0 1 0
vn 1 0 0
vn 1 0 0
vn 1 0 0
vn 1 0 0
vn -1 0 0
vn -1 0 0
vn -1 0 0
vn -1 0 0
vn 0 0 1
vn 0 0 1
vn 0 0 1
vn 0 0 1
vn 0 0 0
vn 0 0 0
vn 0 0 0
vn 0 0 0
vn 0 0 0
vn 0 0 0
vn 0 0 0
vn 0 0 0
vn 0 0 0
vn 0 0 0
vn 0 0 0
vn 0 0 0
vn 0 0 -1
vn 0 0 -1
vn 0 0 -1
vn 0 0 -1
vn 0 -1 0
vn 0 -1 0
vn 0 -1 0
vn 0 -1 0
vn 0 0 -1
vn 0 0 -1
vn 0 0 1
vn 0 0 1
vt 2.12132 -4
vt 0.7071068 -4
vt 0.7071068 6
vt 2.12132 6
vt 2.12132 -4
vt 2.12132 -4
vt 2.12132 6
vt 2.12132 -4
vt 2.12132 6
vt 2.12132 6
vt -2 6
vt -3 -4
vt -3 6
vt -2 -4
vt -3 6
vt -3 -4
vt -3 6
vt -3 6
vt -3 -4
vt -3 -4
vt 2 6
vt 2 -4
vt 1 6
vt 1 -4
vt 6 -2
vt -4 -2
vt 6 0
vt -4 0
vt 4 -2
vt -6 -2
vt 4 1
vt -6 1
vt -2 -2
vt -3 -2
vt -3 0
vt -2 1
vt -3 -2
vt -3 -2
vt -3 0
vt -3 0
vt -3 -2
vt -3 0
vt 3 0
vt 3 -2
vt 3 0
vt 3 0
vt 3 -2
vt 3 -2
vt 3 0
vt 2 -2
vt 2 1
vt 3 -2
vt -2 -4
vt -2 6
vt -1 -4
vt -1 6
vt 1 1
vt 1 -2
vt -1 -2
vt -1 1
g submesh0
f 1/1/1 2/2/2 3/3/3
f 4/4/4 1/1/1 3/3/3
f 5/5/5 6/6/6 7/7/7
f 8/8/8 9/9/9 10/10/10
f 11/11/11 12/12/12 13/13/13
f 11/11/11 14/14/14 12/12/12
f 15/15/15 16/16/16 17/17/17
f 18/18/18 19/19/19 20/20/20
f 21/21/21 22/22/22 23/23/23
f 22/22/22 24/24/24 23/23/23
g submesh1
f 25/25/25 26/26/26 27/27/27
f 26/26/26 28/28/28 27/27/27
f 29/29/29 30/30/30 31/31/31
f 30/30/30 32/32/32 31/31/31
f 33/33/33 34/34/34 35/35/35
f 36/36/36 33/33/33 35/35/35
f 37/37/37 38/38/38 39/39/39
f 40/40/40 41/41/41 42/42/42
f 43/43/43 44/44/44 45/45/45
f 46/46/46 47/47/47 48/48/48
f 49/49/49 50/50/50 51/51/51
f 49/49/49 52/52/52 50/50/50
f 53/53/53 54/54/54 55/55/55
f 54/54/54 56/56/56 55/55/55
f 51/51/51 50/50/50 57/57/57
f 50/50/50 58/58/58 57/57/57
f 33/33/33 36/36/36 59/59/59
f 36/36/36 60/60/60 59/59/59
