v -4 10 8
v 4 10 8
v -4 10 -4
v 4 10 -4
v -4 -4 -4
v 4 -4 -4
v -4 -4 8
v 4 -4 8
v 4 10 8
v -4 10 8
v 4 6 18
v -4 6 18
v 4 6 18
v -4 6 18
v 4 6 26
v -4 6 26
v 12 6 18
v 12 6 26
v 4 6 18
v 12 6 18
v 4 2 8
v 12 2 8
v 20 2 8
v 12 2 8
v 20 -2 18
v 12 -2 18
v 12 2 -10
v 4 2 -10
v 4 2 8
v 12 2 8
v 12 2 -24
v 4 2 -24
v 20 2 -24
v 20 2 -10
v 20 2 8
v 26 2 -24
v 26 2 -10
v 26 2 8
v 26 2 -24
v 26 2 -10
v 36 -2 -24
v 36 -2 -10
v -4 -4 26
v 4 -4 26
v -4 6 26
v 4 6 26
v 4 -4 8
v 4 -4 -4
v 4 10 8
v 4 10 -4
v 4 -4 -4
v -4 -4 -4
v 4 10 -4
v -4 10 -4
v -4 -4 -4
v -4 -4 8
v -4 10 -4
v -4 10 8
v -4 -4 8
v 4 -4 8
v -4 -4 18
v 4 -4 18
v -4 6 18
v -4 -4 18
v 4 -4 18
v 4 6 18
v -4 -4 26
v 4 -4 26
v -4 6 26
v -4 -4 26
v 12 -4 18
v 12 6 18
v 12 -4 26
v 12 6 26
v 4 -4 -24
v 4 2 -24
v 12 -4 -24
v 12 2 -24
v 12 -4 26
v 12 -4 18
v 12 6 26
v 12 -4 26
v 4 -4 18
v 4 6 18
v 4 -4 8
v 4 2 8
v 12 -4 8
v 12 2 8
v 12 -4 8
v 12 -4 18
v 20 -4 18
v 20 -2 18
v 12 -2 18
v 20 -4 8
v 26 -4 8
v 26 2 8
v 20 2 8
v 20 2 -24
v 20 -4 -24
v 26 2 -24
v 26 -4 -24
v 20 -4 8
v 20 -4 18
v 20 -4 8
v 20 2 8
v 20 -4 18
v 20 -2 18
v 12 2 8
v 12 -4 8
v 12 -2 18
v 12 -4 18
v 4 2 -10
v 4 -4 -10
v 4 2 -24
v 4 -4 -24
v 12 -4 -10
v 4 -4 -10
v 12 -4 -24
v 4 -4 -24
v 26 -4 8
v 26 -4 -10
v 26 2 -10
v 26 2 8
v 36 -4 -10
v 36 -4 -24
v 36 -2 -24
v 36 -2 -10
v 20 -4 -24
v 20 -4 -10
v 26 -4 -24
v 26 -4 -10
v 26 -4 8
v 36 -4 -10
v 36 -4 -24
v 36 -4 -24
v 36 -2 -24
v 26 2 -10
v 26 -4 -10
v 36 -2 -10
v 36 -4 -10
vn 0 1 0
vn 0 1 0
vn 0 1 0
vn 0 1 0
vn 0 -1 0
vn 0 -1 0
vn 0 -1 0
vn 0 -1 0
vn 0 0.9284767 0.3713907
vn 0 0.9284767 0.3713907
vn 0 0.9284767 0.3713907
vn 0 0.9284767 0.3713907
vn 0 1 0
vn 0 1 0
vn 0 1 0
vn 0 1 0
vn 0 1 0
vn 0 1 0
vn 0 0.9284767 -0.3713907
vn 0 0.9284767 -0.3713907
vn 0 0.9284767 -0.3713907
vn 0 0.9284767 -0.3713907
vn 0 0.9284767 0.3713907
vn 0 0.9284767 0.3713907
vn 0 0.9284767 0.3713907
vn 0 0.9284767 0.3713907
vn 0 1 0
vn 0 1 0
vn 0 1 0
vn 0 1 0
vn 0 1 0
vn 0 1 0
vn 0 1 0
vn 0 1 0
vn 0 1 0
vn 0 1 0
vn 0 1 0
vn 0 1 0
vn 0.3713907 0.9284767 0
vn 0.3713907 0.9284767 0
vn 0.3713907 0.9284767 0
vn 0.3713907 0.9284767 0
vn 0 0 1
vn 0 0 1
vn 0 0 1
vn 0 0 1
vn 1 0 0
vn 1 0 0
vn 1 0 0
vn 1 0 0
vn 0 0 -1
vn 0 0 -1
vn 0 0 -1
vn 0 0 -1
vn -1 0 0
vn -1 0 0
vn -1 0 0
vn -1 0 0
vn 0 -1 0
vn 0 -1 0
vn 0 -1 0
vn 0 -1 0
vn -1 0 0
vn -1 0 0
vn 1 0 0
vn 1 0 0
vn 0 -1 0
vn 0 -1 0
vn -1 0 0
vn -1 0 0
vn 1 0 0
vn 1 0 0
vn 1 0 0
vn 1 0 0
vn 0 0 -1
vn 0 0 -1
vn 0 0 -1
vn 0 0 -1
vn 0 -1 0
vn 0 -1 0
vn 0 0 1
vn 0 0 1
vn -1 0 0
vn -1 0 0
vn -1 0 0
vn -1 0 0
vn 0 -1 0
vn 1 0 0
vn 1 0 0
vn 0 0 1
vn 0 0 1
vn 0 0 1
vn 0 0 1
vn 0 0 1
vn 0 0 1
vn 0 0 1
vn 0 0 1
vn 0 0 -1
vn 0 0 -1
vn 0 0 -1
vn 0 0 -1
vn 0 -1 0
vn 0 -1 0
vn 1 0 0
vn 1 0 0
vn 1 0 0
vn 1 0 0
vn -1 0 0
vn -1 0 0
vn -1 0 0
vn -1 0 0
vn -1 0 0
vn -1 0 0
vn -1 0 0
vn -1 0 0
vn 0 -1 0
vn 0 -1 0
vn 0 -1 0
vn 0 -1 0
vn 1 0 0
vn 1 0 0
vn 1 0 0
vn 1 0 0
vn 1 0 0
vn 1 0 0
vn 1 0 0
vn 1 0 0
vn 0 -1 0
vn 0 -1 0
vn 0 -1 0
vn 0 -1 0
vn 0 -1 0
vn 0 -1 0
vn 0 -1 0
vn 0 0 -1
vn 0 0 -1
vn 0 0 1
vn 0 0 1
vn 0 0 1
vn 0 0 1
vt -4 8
vt 4 8
vt -4 -4
vt 4 -4
vt 4 -4
vt -4 -4
vt 4 8
vt -4 8
vt 4 3.713907
vt -4 3.713907
vt 4 14.48424
vt -4 14.48424
vt 4 18
vt -4 18
vt 4 26
vt -4 26
vt 12 18
vt 12 26
vt 4 18.94092
vt 12 18.94092
vt 4 8.170595
vt 12 8.170595
vt 20 6.685032
vt 12 6.685032
vt 20 17.45536
vt 12 17.45536
vt 12 -10
vt 4 -10
vt 4 8
vt 12 8
vt 12 -24
vt 4 -24
vt 20 -24
vt 20 -10
vt 20 8
vt 26 -24
vt 26 -10
vt 26 8
vt 23.39761 -24
vt 23.39761 -10
vt 34.16794 -24
vt 34.16794 -10
vt 4 -4
vt -4 -4
vt 4 6
vt -4 6
vt 8 -4
vt -4 -4
vt 8 10
vt -4 10
vt 4 -4
vt -4 -4
vt 4 10
vt -4 10
vt 4 -4
vt -8 -4
vt 4 10
vt -8 10
vt 4 8
vt -4 8
vt 4 18
vt -4 18
vt -18 6
vt -18 -4
vt 18 -4
vt 18 6
vt 4 26
vt -4 26
vt -26 6
vt -26 -4
vt 18 -4
vt 18 6
vt 26 -4
vt 26 6
vt 4 -4
vt 4 2
vt 12 -4
vt 12 2
vt -12 26
vt -12 18
vt -12 6
vt -12 -4
vt -18 -4
vt -18 6
vt -8 -4
vt -8 2
vt -12 8
vt 8 2
vt 8 -4
vt -12 -4
vt -20 -4
vt -20 -2
vt -12 -2
vt -20 -4
vt -26 -4
vt -26 2
vt -20 2
vt 20 2
vt 20 -4
vt 26 2
vt 26 -4
vt -20 8
vt -20 18
vt 8 -4
vt 8 2
vt 18 -4
vt 18 -2
vt -8 2
vt -8 -4
vt -18 -2
vt -18 -4
vt 10 2
vt 10 -4
vt 24 2
vt 24 -4
vt -12 -10
vt -4 -10
vt -12 -24
vt -4 -24
vt 8 -4
vt -10 -4
vt -10 2
vt 8 2
vt -10 -4
vt -24 -4
vt -24 -2
vt -10 -2
vt -20 -24
vt -20 -10
vt -26 -24
vt -26 -10
vt -26 8
vt -36 -10
vt -36 -24
vt 36 -4
vt 36 -2
vt -26 2
vt -26 -4
vt -36 -2
vt -36 -4
g submesh0
f 1/1/1 2/2/2 3/3/3
f 2/2/2 4/4/4 3/3/3
f 5/5/5 6/6/6 7/7/7
f 6/6/6 8/8/8 7/7/7
f 9/9/9 10/10/10 11/11/11
f 10/10/10 12/12/12 11/11/11
f 13/13/13 14/14/14 15/15/15
f 14/14/14 16/16/16 15/15/15
f 13/13/13 15/15/15 17/17/17
f 15/15/15 18/18/18 17/17/17
f 19/19/19 20/20/20 21/21/21
f 20/20/20 22/22/22 21/21/21
f 23/23/23 24/24/24 25/25/25
f 24/24/24 26/26/26 25/25/25
f 27/27/27 28/28/28 29/29/29
f 30/30/30 27/27/27 29/29/29
f 31/31/31 32/32/32 28/28/28
f 27/27/27 31/31/31 28/28/28
f 33/33/33 31/31/31 27/27/27
f 34/34/34 33/33/33 27/27/27
f 34/34/34 27/27/27 30/30/30
f 35/35/35 34/34/34 30/30/30
f 36/36/36 33/33/33 34/34/34
f 37/37/37 36/36/36 34/34/34
f 37/37/37 34/34/34 35/35/35
f 38/38/38 37/37/37 35/35/35
f 39/39/39 40/40/40 41/41/41
f 40/40/40 42/42/42 41/41/41
g submesh1
f 43/43/43 44/44/44 45/45/45
f 44/44/44 46/46/46 45/45/45
f 47/47/47 48/48/48 49/49/49
f 48/48/48 50/50/50 49/49/49
f 51/51/51 52/52/52 53/53/53
f 52/52/52 54/54/54 53/53/53
f 55/55/55 56/56/56 57/57/57
f 56/56/56 58/58/58 57/57/57
f 59/59/59 60/60/60 61/61/61
f 60/60/60 62/62/62 61/61/61
f 58/58/58 56/56/56 63/63/63
f 56/56/56 64/64/64 63/63/63
f 47/47/47 49/49/49 65/65/65
f 49/49/49 66/66/66 65/65/65
f 61/61/61 62/62/62 67/67/67
f 62/62/62 68/68/68 67/67/67
f 63/63/63 64/64/64 69/69/69
f 64/64/64 70/70/70 69/69/69
f 71/71/71 72/72/72 73/73/73
f 72/72/72 74/74/74 73/73/73
f 75/75/75 76/76/76 77/77/77
f 76/76/76 78/78/78 77/77/77
f 68/68/68 62/62/62 79/79/79
f 62/62/62 80/80/80 79/79/79
f 46/46/46 44/44/44 81/81/81
f 44/44/44 82/82/82 81/81/81
f 83/83/83 84/84/84 85/85/85
f 84/84/84 86/86/86 85/85/85
f 80/80/80 62/62/62 87/87/87
f 62/62/62 60/60/60 87/87/87
f 72/72/72 71/71/71 88/88/88
f 71/71/71 89/89/89 88/88/88
f 90/90/90 91/91/91 92/92/92
f 93/93/93 90/90/90 92/92/92
f 94/94/94 95/95/95 96/96/96
f 97/97/97 94/94/94 96/96/96
f 98/98/98 77/77/77 78/78/78
f 98/98/98 99/99/99 77/77/77
f 100/100/100 99/99/99 98/98/98
f 100/100/100 101/101/101 99/99/99
f 87/87/87 102/102/102 80/80/80
f 102/102/102 103/103/103 80/80/80
f 104/104/104 105/105/105 106/106/106
f 105/105/105 107/107/107 106/106/106
f 108/108/108 109/109/109 110/110/110
f 109/109/109 111/111/111 110/110/110
f 112/112/112 85/85/85 86/86/86
f 112/112/112 113/113/113 85/85/85
f 114/114/114 113/113/113 112/112/112
f 114/114/114 115/115/115 113/113/113
f 60/60/60 116/116/116 87/87/87
f 60/60/60 117/117/117 116/116/116
f 117/117/117 118/118/118 116/116/116
f 117/117/117 119/119/119 118/118/118
f 120/120/120 121/121/121 122/122/122
f 123/123/123 120/120/120 122/122/122
f 124/124/124 125/125/125 126/126/126
f 127/127/127 124/124/124 126/126/126
f 116/116/116 128/128/128 129/129/129
f 116/116/116 118/118/118 128/128/128
f 87/87/87 129/129/129 102/102/102
f 87/87/87 116/116/116 129/129/129
f 129/129/129 130/130/130 131/131/131
f 129/129/129 128/128/128 130/130/130
f 102/102/102 131/131/131 132/132/132
f 102/102/102 129/129/129 131/131/131
f 131/131/131 130/130/130 133/133/133
f 130/130/130 134/134/134 133/133/133
f 101/101/101 100/100/100 135/135/135
f 100/100/100 136/136/136 135/135/135
f 137/137/137 138/138/138 139/139/139
f 138/138/138 140/140/140 139/139/139
