v 2 2 -4
v -2 2 -4
v -2 2 2
v 2 2 2
v -2 2 7
v 2 2 7
v -2 -6 2
v 2 -6 -4
v 2 -6 2
v -2 -6 -4
v -2 -6 7
v 2 -6 7
v -8 2 2
v -8 2 -4
v 8 2 -4
v 8 2 2
v -2 2 7
v -2 2 2
v -8 -2 7
v -8 -2 2
v 2 2 2
v 2 2 7
v 8 -2 2
v 8 -2 7
v -10 4 23
v -14 4 23
v -10 4 32
v -14 4 32
v 14 4 28
v 10 4 28
v 10 4 32
v 14 4 32
v -4 2 28
v -10 4 28
v -4 2 32
v -10 4 32
v -10 4 22
v -14 4 22
v -10 4 17
v -14 4 17
v -14 4 18
v -10 4 18
v 14 4 23
v 10 4 23
v -2 2 9
v 2 2 9
v -2 2 11
v 2 2 11
v -2 -6 9
v 2 -6 9
v -2 -6 11
v 2 -6 11
v 14 2 7
v 10 2 7
v 10 2 9
v 14 2 9
v 9 2 11.5
v 14 2 11
v -10 2 9
v -14 2 9
v -14 2 11
v -8.5 2 12
v -10 2 7
v -14 2 7
v 10 4 28
v 4 2 28
v 4 2 32
v 10 4 32
v 4 2 28
v -4 2 28
v -4 2 32
v 4 2 32
v 14 4 17
v 10 4 17
v 10 4 18
v 14 4 18
v 10 4 22
v 14 4 22
v -8.5 2 12
v -14 2 11
v -14 3 14
v -10 3 14
v -10 3 14
v -14 3 14
v -14 4 17
v -10 4 17
v -6 2 9
v -6 2 11
v -6 2 7
v 14 2 11
v 9 2 11.5
v 10 3 14
v 14 3 14
v 10 3 14
v 10 4 17
v 14 4 17
v 6 2 7
v 6 2 9
v 6 2 11
v -2 -6 11
v 2 -6 11
v -2 2 11
v 2 2 11
v 2 -6 -4
v -2 -6 -4
v 2 2 -4
v -2 2 -4
v 6 -6 7
v 8 -6 2
v 8 -2 2
v 8 -2 7
v 8 -6 2
v 8 -6 -4
v 8 2 -4
v 8 2 2
v -8 -2 2
v -6 -6 7
v -8 -2 7
v -8 -6 2
v -8 2 -4
v -8 -6 2
v -8 2 2
v -8 -6 -4
v -2 -6 2
v -2 2 2
v -8 -6 2
v -8 2 2
v -8 2 -4
v -8 -6 -4
v -2 -6 -4
v -2 -6 2
v -8 -6 -4
v -8 -6 2
v 2 -6 2
v 2 -6 -4
v 8 -6 2
v 8 -6 -4
v 8 -6 -4
v 8 2 -4
v 2 2 2
v 2 -6 2
v 8 2 2
v 8 -6 2
v -2 -6 7
v -2 2 7
v -6 -6 7
v -8 -2 7
v -2 2 2
v -2 -6 2
v -8 -2 2
v -8 -6 2
v -2 -6 7
v -6 -6 7
v 2 -6 7
v 6 -6 7
v 2 -6 2
v 2 2 2
v 8 -6 2
v 8 -2 2
v 2 2 7
v 2 -6 7
v 8 -2 7
v 6 -6 7
v 10 -6 7
v 10 2 7
v 14 -6 7
v 14 2 7
v 10 4 32
v 10 -6 32
v 14 4 32
v 14 -6 32
v -10 -6 32
v -10 4 32
v -14 -6 32
v -14 4 32
v -10 2 7
v -10 -6 7
v -14 2 7
v -14 -6 7
v -14 -7 17
v -10 -7 17
v -14 -7 23
v -10 -7 23
v -10 -7 23
v -10 4 23
v -10 -6 32
v -10 4 32
v -14 -7 23
v -10 -7 23
v -14 -6 32
v -10 -6 32
v -14 4 23
v -14 -7 23
v -14 4 32
v -14 -6 32
v -10 4 28
v -10 -6 32
v -10 4 32
v -10 -6 28
v 10 -6 32
v 14 -6 28
v 14 -6 32
v 10 -6 28
v 14 -6 32
v 14 -6 28
v 14 4 28
v 14 4 32
v -14 -7 17
v -14 -3 17
v -14 -3 23
v -10 -7 17
v -10 -3 23
v -10 -3 17
v -14 2 17
v -14 -3 17
v -10 2 17
v -10 -3 17
v -14 -3 23
v -14 2 23
v -10 -3 23
v -10 2 23
v -4 -6 32
v -4 2 32
v -4 2 28
v -10 -6 28
v -10 4 28
v -4 -6 28
v -10 -6 32
v -4 -6 28
v -4 -6 32
v -10 -6 28
v -14 4 22
v -14 2 23
v -14 3 22
v -10 2 23
v -10 3 22
v -10 4 22
v -14 2 23
v -10 3 22
v -10 2 23
v -14 3 22
v -14 4 18
v -14 3 18
v -14 4 17
v -14 2 17
v -10 3 18
v -10 4 18
v -10 2 17
v -10 4 17
v -14 3 18
v -10 2 17
v -10 3 18
v -14 2 17
v -14 3 22
v -10 3 18
v -10 3 22
v -14 3 18
v 10 4 23
v 10 -6 28
v 10 4 28
v 10 -6 23
v 10 -6 23
v 14 -6 17
v 14 -6 23
v 10 -6 17
v 14 -6 23
v 14 4 23
v 14 -6 11
v 14 -6 9
v 14 2 9
v 14 2 11
v 14 -6 7
v 14 2 7
v -14 2 9
v -14 -6 11
v -14 2 11
v -14 -6 9
v -14 2 7
v -14 -6 7
v 9 -6 11.5
v 14 -6 9
v 14 -6 11
v 10 -6 9
v 14 -6 7
v 10 -6 7
v -14 -6 9
v -10 -6 7
v -10 -6 9
v -14 -6 7
v -14 -6 11
v -8.5 -6 12
v 4 -6 32
v 4 2 32
v 4 2 28
v 4 -6 28
v 10 4 28
v 10 -6 28
v 4 -6 32
v 4 -6 28
v 14 -6 17
v 14 -3 23
v 14 -3 17
v 14 -6 17
v 14 4 17
v 14 -3 17
v 14 4 17
v 14 2 17
v 14 -3 17
v 14 4 23
v 14 -6 23
v 14 2 23
v 14 -6 23
v 14 -3 23
v 14 2 23
v 10 -6 23
v 10 4 23
v 10 -3 23
v 10 4 23
v 10 2 23
v 10 -3 23
v 10 4 17
v 10 -6 17
v 10 2 17
v 10 -6 17
v 10 -3 17
v 10 2 17
v 10 -6 17
v 10 -6 23
v 10 -3 17
v 10 -3 23
v 10 -3 23
v 10 2 23
v 14 -3 23
v 14 2 23
v 10 2 17
v 10 -3 17
v 14 2 17
v 14 -3 17
v 10 -3 17
v 10 -3 23
v 14 -3 17
v 14 -3 23
v 14 3 18
v 14 2 17
v 14 4 17
v 14 4 18
v 10 4 17
v 10 3 18
v 10 4 18
v 10 2 17
v 10 3 18
v 14 2 17
v 14 3 18
v 10 2 17
v 14 2 23
v 14 3 22
v 14 4 22
v 10 4 22
v 10 2 23
v 10 4 23
v 10 3 22
v 10 3 22
v 14 3 18
v 14 3 22
v 10 3 18
v 10 2 23
v 14 3 22
v 14 2 23
v 10 3 22
v -10 -6.5 14
v -8.5 -6 12
v -8.5 2 12
v -10 3 14
v -10 -7 17
v -10 -6.5 14
v -10 3 14
v -10 4 17
v -14 -6.5 14
v -8.5 -6 12
v -10 -6.5 14
v -14 -6 11
v -14 -7 17
v -10 -6.5 14
v -10 -7 17
v -14 -6.5 14
v -14 -6.5 14
v -14 3 14
v -6 -6 11
v -2 -6 11
v -2 2 11
v -6 2 11
v -8.5 -6 12
v -6 -6 11
v -6 2 11
v -8.5 2 12
v -2 2 7
v -6 -6 7
v -6 2 7
v -2 -6 7
v -6 -6 9
v -2 -6 9
v -6 -6 11
v -2 -6 11
v 10 3 14
v 10 -6 17
v 10 4 17
v 10 -6 14
v 9 2 11.5
v 10 -6 14
v 10 3 14
v 9 -6 11.5
v 10 -6 14
v 14 -6 14
v 14 -6 14
v 14 3 14
v 6 2 7
v 2 -6 7
v 2 2 7
v 6 -6 7
v 2 -6 11
v 6 -6 11
v 6 2 11
v 2 2 11
v 6 -6 11
v 9 -6 11.5
v 9 2 11.5
v 6 2 11
v 6 -6 11
v 6 -6 9
v 2 -6 11
v 2 -6 9
vn 0 1 0
vn 0 1 0
vn 0 1 0
vn 0 1 0
vn 0 1 0
vn 0 1 0
vn 0 -1 0
vn 0 -1 0
vn 0 -1 0
vn 0 -1 0
vn 0 -1 0
vn 0 -1 0
vn 0 1 0
vn 0 1 0
vn 0 1 0
vn 0 1 0
vn -0.5547002 0.8320503 0
vn -0.5547002 0.8320503 0
vn -0.5547002 0.8320503 0
vn -0.5547002 0.8320503 0
vn 0.5547002 0.8320503 0
vn 0.5547002 0.8320503 0
vn 0.5547002 0.8320503 0
vn 0.5547002 0.8320503 0
vn 0 1 0
vn 0 1 0
vn 0 1 0
vn 0 1 0
vn 0 1 0
vn 0 1 0
vn 0 1 0
vn 0 1 0
vn 0.3162278 0.9486833 0
vn 0.3162278 0.9486833 0
vn 0.3162278 0.9486833 0
vn 0.3162278 0.9486833 0
vn 0 1 0
vn 0 1 0
vn 0 1 0
vn 0 1 0
vn 0 1 0
vn 0 1 0
vn 0 1 0
vn 0 1 0
vn 0 1 0
vn 0 1 0
vn 0 1 0
vn 0 1 0
vn 0 -1 0
vn 0 -1 0
vn 0 -1 0
vn 0 -1 0
vn 0 1 0
vn 0 1 0
vn 0 1 0
vn 0 1 0
vn 0 1 0
vn 0 1 0
vn 0 1 0
vn 0 1 0
vn 0 1 0
vn 0 1 0
vn 0 1 0
vn 0 1 0
vn -0.3162278 0.9486833 0
vn -0.3162278 0.9486833 0
vn -0.3162278 0.9486833 0
vn -0.3162278 0.9486833 0
vn 0 1 0
vn 0 1 0
vn 0 1 0
vn 0 1 0
vn 0 1 0
vn 0 1 0
vn 0 1 0
vn 0 1 0
vn 0 1 0
vn 0 1 0
vn 0.02870058 0.9207731 -0.38146
vn 0.05740116 0.9471191 -0.3157064
vn 0.02870058 0.9207731 -0.38146
vn 0 0.8944272 -0.4472136
vn 0 0.9486833 -0.3162278
vn 0 0.9486833 -0.3162278
vn 0 0.9486833 -0.3162278
vn 0 0.9486833 -0.3162278
vn 0 1 0
vn 0 1 0
vn 0 1 0
vn -0.0179374 0.9407141 -0.3374879
vn -0.0358748 0.9327448 -0.358748
vn -0.0179374 0.9407141 -0.3374879
vn 0 0.9486833 -0.3162278
vn 0 0.9486833 -0.3162278
vn 0 0.9486833 -0.3162278
vn 0 0.9486833 -0.3162278
vn 0 1 0
vn 0 1 0
vn 0 1 0
vn 0 0 1
vn 0 0 1
vn 0 0 1
vn 0 0 1
vn 0 0 -1
vn 0 0 -1
vn 0 0 -1
vn 0 0 -1
vn 0.9114519 -0.2236068 0.1856953
vn 0.9284767 0 0.3713907
vn 0.9114519 -0.2236068 0.1856953
vn 0.8944272 -0.4472136 0
vn 1 0 0
vn 1 0 0
vn 1 0 0
vn 1 0 0
vn -0.9114519 -0.2236068 0.1856953
vn -0.9114519 -0.2236068 0.1856953
vn -0.8944272 -0.4472136 0
vn -0.9284767 0 0.3713907
vn -1 0 0
vn -1 0 0
vn -1 0 0
vn -1 0 0
vn 0 0 1
vn 0 0 1
vn 0 0 1
vn 0 0 1
vn 0 0 -1
vn 0 0 -1
vn 0 -1 0
vn 0 -1 0
vn 0 -1 0
vn 0 -1 0
vn 0 -1 0
vn 0 -1 0
vn 0 -1 0
vn 0 -1 0
vn 0 0 -1
vn 0 0 -1
vn 0 0 1
vn 0 0 1
vn 0 0 1
vn 0 0 1
vn 0 0 1
vn 0 0 1
vn 0 0 1
vn 0 0 1
vn 0 0 -1
vn 0 0 -1
vn 0 0 -1
vn 0 0 -1
vn 0 -1 0
vn 0 -1 0
vn 0 -1 0
vn 0 -1 0
vn 0 0 -1
vn 0 0 -1
vn 0 0 -1
vn 0 0 -1
vn 0 0 1
vn 0 0 1
vn 0 0 1
vn 0 0 1
vn 0 0 -1
vn 0 0 -1
vn 0 0 -1
vn 0 0 -1
vn 0 0 1
vn 0 0 1
vn 0 0 1
vn 0 0 1
vn 0 0 1
vn 0 0 1
vn 0 0 1
vn 0 0 1
vn 0 0 -1
vn 0 0 -1
vn 0 0 -1
vn 0 0 -1
vn 0 -1 0
vn 0 -1 0
vn 0 -1 0
vn 0 -1 0
vn 1 0 0
vn 1 0 0
vn 1 0 0
vn 1 0 0
vn 0 -0.9938837 0.1104315
vn 0 -0.9938837 0.1104315
vn 0 -0.9938837 0.1104315
vn 0 -0.9938837 0.1104315
vn -1 0 0
vn -1 0 0
vn -1 0 0
vn -1 0 0
vn -1 0 0
vn -1 0 0
vn -1 0 0
vn -1 0 0
vn 0 -1 0
vn 0 -1 0
vn 0 -1 0
vn 0 -1 0
vn 1 0 0
vn 1 0 0
vn 1 0 0
vn 1 0 0
vn -1 0 0
vn -1 0 0
vn -1 0 0
vn 1 0 0
vn 1 0 0
vn 1 0 0
vn 0 0 1
vn 0 0 1
vn 0 0 1
vn 0 0 1
vn 0 0 -1
vn 0 0 -1
vn 0 0 -1
vn 0 0 -1
vn 0 0 1
vn 0 0 1
vn 0 0 -1
vn 0 0 -1
vn 0 0 -1
vn 0 0 -1
vn 0 -1 0
vn 0 -1 0
vn 0 -1 0
vn 0 -1 0
vn -1 0 0
vn -1 0 0
vn -1 0 0
vn 1 0 0
vn 1 0 0
vn 1 0 0
vn 0 -0.7071068 -0.7071068
vn 0 -0.7071068 -0.7071068
vn 0 -0.7071068 -0.7071068
vn 0 -0.7071068 -0.7071068
vn -1 0 0
vn -1 0 0
vn -1 0 0
vn -1 0 0
vn 1 0 0
vn 1 0 0
vn 1 0 0
vn 1 0 0
vn 0 -0.7071068 0.7071068
vn 0 -0.7071068 0.7071068
vn 0 -0.7071068 0.7071068
vn 0 -0.7071068 0.7071068
vn 0 -1 0
vn 0 -1 0
vn 0 -1 0
vn 0 -1 0
vn -1 0 0
vn -1 0 0
vn -1 0 0
vn -1 0 0
vn 0 -1 0
vn 0 -1 0
vn 0 -1 0
vn 0 -1 0
vn 1 0 0
vn 1 0 0
vn 1 0 0
vn 1 0 0
vn 1 0 0
vn 1 0 0
vn 1 0 0
vn 1 0 0
vn -1 0 0
vn -1 0 0
vn -1 0 0
vn -1 0 0
vn -1 0 0
vn -1 0 0
vn 0 -1 0
vn 0 -1 0
vn 0 -1 0
vn 0 -1 0
vn 0 -1 0
vn 0 -1 0
vn 0 -1 0
vn 0 -1 0
vn 0 -1 0
vn 0 -1 0
vn 0 -1 0
vn 0 -1 0
vn 0 0 1
vn 0 0 1
vn 0 0 -1
vn 0 0 -1
vn 0 0 -1
vn 0 0 -1
vn 0 -1 0
vn 0 -1 0
vn 1 0 0
vn 1 0 0
vn 1 0 0
vn 0 0 0
vn 0 0 0
vn 0 0 0
vn 0 0 0
vn 0 0 0
vn 0 0 0
vn 0 0 0
vn 0 0 0
vn 0 0 0
vn 0 0 0
vn 0 0 0
vn 0 0 0
vn 0 0 0
vn 0 0 0
vn 0 0 0
vn 0 0 0
vn 0 0 0
vn 0 0 0
vn 0 0 0
vn 0 0 0
vn 0 0 0
vn 0 0 0
vn 0 0 0
vn 0 0 0
vn -1 0 0
vn -1 0 0
vn -1 0 0
vn -1 0 0
vn 0 0 -1
vn 0 0 -1
vn 0 0 -1
vn 0 0 -1
vn 0 0 1
vn 0 0 1
vn 0 0 1
vn 0 0 1
vn 0 1 0
vn 0 1 0
vn 0 1 0
vn 0 1 0
vn 1 0 0
vn 1 0 0
vn 1 0 0
vn 1 0 0
vn -1 0 0
vn -1 0 0
vn -1 0 0
vn -1 0 0
vn 0 -0.7071068 0.7071068
vn 0 -0.7071068 0.7071068
vn 0 -0.7071068 0.7071068
vn 0 -0.7071068 0.7071068
vn 1 0 0
vn 1 0 0
vn 1 0 0
vn -1 0 0
vn -1 0 0
vn -1 0 0
vn -1 0 0
vn 0 -1 0
vn 0 -1 0
vn 0 -1 0
vn 0 -1 0
vn 0 -0.7071068 -0.7071068
vn 0 -0.7071068 -0.7071068
vn 0 -0.7071068 -0.7071068
vn 0 -0.7071068 -0.7071068
vn 0.8 0 0.6
vn 0.8 0 0.6
vn 0.8 0 0.6
vn 0.8 0 0.6
vn 1 0 0
vn 1 0 0
vn 1 0 0
vn 1 0 0
vn 0.01493869 -0.9780481 -0.2034306
vn 0.01493869 -0.9780481 -0.2034306
vn 0 -0.9701425 -0.2425356
vn 0.02987738 -0.9859536 -0.1643256
vn 0 -0.9863939 -0.164399
vn 0 -0.9863939 -0.164399
vn 0 -0.9863939 -0.164399
vn 0 -0.9863939 -0.164399
vn -1 0 0
vn -1 0 0
vn 0 0 1
vn 0 0 1
vn 0 0 1
vn 0 0 1
vn 0.3713907 0 0.9284767
vn 0.3713907 0 0.9284767
vn 0.3713907 0 0.9284767
vn 0.3713907 0 0.9284767
vn 0 0 -1
vn 0 0 -1
vn 0 0 -1
vn 0 0 -1
vn 0 -1 0
vn 0 -1 0
vn 0 -1 0
vn 0 -1 0
vn -1 0 0
vn -1 0 0
vn -1 0 0
vn -1 0 0
vn -0.9284767 0 0.3713907
vn -0.9284767 0 0.3713907
vn -0.9284767 0 0.3713907
vn -0.9284767 0 0.3713907
vn 0 -1 0
vn 0 -1 0
vn 1 0 0
vn 1 0 0
vn 0 0 -1
vn 0 0 -1
vn 0 0 -1
vn 0 0 -1
vn 0 0 1
vn 0 0 1
vn 0 0 1
vn 0 0 1
vn -0.164399 0 0.9863939
vn -0.164399 0 0.9863939
vn -0.164399 0 0.9863939
vn -0.164399 0 0.9863939
vn 0 -1 0
vn 0 -1 0
vn 0 -1 0
vn 0 -1 0
vt 2 -4
vt -2 -4
vt -2 2
vt 2 2
vt -2 7
vt 2 7
vt 2 2
vt -2 -4
vt -2 2
vt 2 -4
vt 2 7
vt -2 7
vt -8 2
vt -8 -4
vt 8 -4
vt 8 2
vt -0.5547003 7
vt -0.5547003 2
vt -7.765803 7
vt -7.765803 2
vt 0.5547003 2
vt 0.5547003 7
vt 7.765803 2
vt 7.765803 7
vt -10 23
vt -14 23
vt -10 32
vt -14 32
vt 14.02066 28.24961
vt 10.02072 28.25165
vt 10.02072 32.23254
vt 14.02066 32.23051
vt -4 28
vt -10 28
vt -4 32
vt -10 32
vt -10 22
vt -14 22
vt -10 17
vt -14 17
vt -14 18
vt -10 18
vt 14.02066 23.27349
vt 10.02072 23.27553
vt -2 9
vt 2 9
vt -2 11
vt 2 11
vt 2 9
vt -2 9
vt 2 11
vt -2 11
vt 14 7
vt 10 7
vt 10 9
vt 14 9
vt 9 11.5
vt 14 11
vt -10 9
vt -14 9
vt -14 11
vt -8.5 12
vt -10 7
vt -14 7
vt 10 28
vt 4 28
vt 4 32
vt 10 32
vt 4 28
vt -4 28
vt -4 32
vt 4 32
vt 14.02066 17.30215
vt 10.02072 17.30418
vt 10.02072 18.29941
vt 14.02066 18.29737
vt 10.02072 22.2803
vt 14.02066 22.27827
vt -8.556635 11.93531
vt -14.05412 10.93397
vt -14.08438 14.0961
vt -10.08621 14.13437
vt -10.08621 14.13437
vt -14.08438 14.0961
vt -14.11464 17.25824
vt -10.11648 17.2965
vt -6 9
vt -6 11
vt -6 7
vt 14.01024 11.13557
vt 9.010304 11.63573
vt 10.0155 14.22089
vt 14.01545 14.21886
vt 10.0155 14.22089
vt 10.02072 17.30418
vt 14.02066 17.30215
vt 6 7
vt 6 9
vt 6 11
vt 2 -6
vt -2 -6
vt 2 2
vt -2 2
vt 2 -6
vt -2 -6
vt 2 2
vt -2 2
vt 4.270993 -6
vt -1.114172 -6
vt -1.114172 -2
vt 3.528212 -2
vt 2 -6
vt -4 -6
vt -4 2
vt 2 2
vt -2 1.788854
vt -7 -2.683281
vt -7 1.788854
vt -2 -1.788854
vt 4 2
vt -2 -6
vt -2 2
vt 4 -6
vt 2 -6
vt 2 2
vt 8 -6
vt 8 2
vt -8 2
vt -8 -6
vt 2 -4
vt 2 2
vt 8 -4
vt 8 2
vt -2 2
vt -2 -4
vt -8 2
vt -8 -4
vt 8 -6
vt 8 2
vt -2 2
vt -2 -6
vt -8 2
vt -8 -6
vt 2 -6
vt 2 2
vt 6 -6
vt 8 -2
vt -2 2
vt -2 -6
vt -8 -2
vt -8 -6
vt 2 7
vt 6 7
vt -2 7
vt -6 7
vt 2 -6
vt 2 2
vt 8 -6
vt 8 -2
vt -2 2
vt -2 -6
vt -8 -2
vt -6 -6
vt 10 -6
vt 10 2
vt 14 -6
vt 14 2
vt -10 4
vt -10 -6
vt -14 4
vt -14 -6
vt 10 -6
vt 10 4
vt 14 -6
vt 14 4
vt -10 2
vt -10 -6
vt -14 2
vt -14 -6
vt 14 17
vt 10 17
vt 14 23
vt 10 23
vt 23 -7
vt 23 4
vt 32 -6
vt 32 4
vt 14 22.08631
vt 10 22.08631
vt 14 31.14169
vt 10 31.14169
vt -23 4
vt -23 -7
vt -32 4
vt -32 -6
vt -28 4
vt -32 -6
vt -32 4
vt -28 -6
vt -10 32
vt -14 28
vt -14 32
vt -10 28
vt 32 -6
vt 28 -6
vt 28 4
vt 32 4
vt -17 -7
vt -17 -3
vt -23 -3
vt 17 -7
vt 23 -3
vt 17 -3
vt 14 2
vt 14 -3
vt 10 2
vt 10 -3
vt -14 -3
vt -14 2
vt -10 -3
vt -10 2
vt 4 -6
vt 4 2
vt -4 2
vt -10 -6
vt -10 4
vt -4 -6
vt 10 32
vt 4 28
vt 4 32
vt 10 28
vt -22 4
vt -23 2
vt -22 3
vt 23 2
vt 22 3
vt 22 4
vt 14 23
vt 10 22
vt 10 23
vt 14 22
vt -18 4
vt -18 3
vt -17 4
vt -17 2
vt 18 3
vt 18 4
vt 17 2
vt 17 4
vt 14 18
vt 10 17
vt 10 18
vt 14 17
vt 14 22
vt 10 18
vt 10 22
vt 14 18
vt -24.07537 4
vt -29.03564 -6
vt -29.03564 4
vt -24.07537 -6
vt -10 23
vt -14 17
vt -14 23
vt -10 17
vt 23 -6
vt 23 4
vt 11 -6
vt 9 -6
vt 9 2
vt 11 2
vt 7 -6
vt 7 2
vt -9 2
vt -11 -6
vt -11 2
vt -9 -6
vt -7 2
vt -7 -6
vt -9 11.5
vt -14 9
vt -14 11
vt -10 9
vt -14 7
vt -10 7
vt 14 9
vt 10 7
vt 10 9
vt 14 7
vt 14 11
vt 8.5 12
vt -4 -6
vt -4 2
vt 4 2
vt 4 -6
vt 10 4
vt 10 -6
vt -4 32
vt -4 28
vt 17 -6
vt 23 -3
vt 17 -3
vt 0 0
vt 0 0
vt 0 0
vt 0 0
vt 0 0
vt 0 0
vt 0 0
vt 0 0
vt 0 0
vt 0 0
vt 0 0
vt 0 0
vt 0 0
vt 0 0
vt 0 0
vt 0 0
vt 0 0
vt 0 0
vt 0 0
vt 0 0
vt 0 0
vt 0 0
vt 0 0
vt 0 0
vt -17 -6
vt -23 -6
vt -17 -3
vt -23 -3
vt 10 -3
vt 10 2
vt 14 -3
vt 14 2
vt -10 2
vt -10 -3
vt -14 2
vt -14 -3
vt 10 17
vt 10 23
vt 14 17
vt 14 23
vt 18 3
vt 17 2
vt 17 4
vt 18 4
vt -17 4
vt -18 3
vt -18 4
vt -17 2
vt -10 18
vt -14 17
vt -14 18
vt -10 17
vt 23 2
vt 22 3
vt 22 4
vt -22 4
vt -23 2
vt -23 4
vt -22 3
vt -10 22
vt -14 18
vt -14 22
vt -10 18
vt -10 23
vt -14 22
vt -14 23
vt -10 22
vt 16.44384 -6.5
vt 14.07214 -6
vt 14.07214 2
vt 16.44384 3
vt 19.28989 -7
vt 16.44384 -6.5
vt 16.44384 3
vt 19.28989 4
vt 14 15.03026
vt 8.5 12.97035
vt 10 15.03026
vt 14 11.99131
vt 14 18.06922
vt 10 15.03026
vt 10 18.06922
vt 14 15.03026
vt -14 -6.5
vt -14 3
vt 7.971921 -6
vt 4.044096 -6
vt 4.044096 2
vt 7.971921 2
vt 10.61592 -6
vt 7.971921 -6
vt 7.971921 2
vt 10.61592 2
vt -2 2
vt -6 -6
vt -6 2
vt -2 -6
vt 6 9
vt 2 9
vt 6 11
vt 2 11
vt -15.14688 3
vt -18.12304 -6
vt -18.12304 4
vt -15.14688 -6
vt -12.54094 2
vt -15.14688 -6
vt -15.14688 3
vt -12.54094 -6
vt -10 14
vt -14 14
vt 14 -6
vt 14 3
vt 6 2
vt 2 -6
vt 2 2
vt 6 -6
vt -2.900471 -6
vt -6.886842 -6
vt -6.886842 2
vt -2.900471 2
vt -6.886842 -6
vt -9.91786 -6
vt -9.91786 2
vt -6.886842 2
vt -6 11
vt -6 9
vt -2 11
vt -2 9
g submesh0
f 1/1/1 2/2/2 3/3/3
f 4/4/4 1/1/1 3/3/3
f 4/4/4 3/3/3 5/5/5
f 6/6/6 4/4/4 5/5/5
f 7/7/7 8/8/8 9/9/9
f 7/7/7 10/10/10 8/8/8
f 11/11/11 9/9/9 12/12/12
f 11/11/11 7/7/7 9/9/9
f 3/3/3 2/2/2 13/13/13
f 2/2/2 14/14/14 13/13/13
f 1/1/1 4/4/4 15/15/15
f 4/4/4 16/16/16 15/15/15
f 17/17/17 18/18/18 19/19/19
f 18/18/18 20/20/20 19/19/19
f 21/21/21 22/22/22 23/23/23
f 22/22/22 24/24/24 23/23/23
f 25/25/25 26/26/26 27/27/27
f 26/26/26 28/28/28 27/27/27
f 29/29/29 30/30/30 31/31/31
f 32/32/32 29/29/29 31/31/31
f 33/33/33 34/34/34 35/35/35
f 35/35/35 34/34/34 36/36/36
f 37/37/37 38/38/38 26/26/26
f 25/25/25 37/37/37 26/26/26
f 39/39/39 40/40/40 41/41/41
f 42/42/42 39/39/39 41/41/41
f 42/42/42 41/41/41 38/38/38
f 37/37/37 42/42/42 38/38/38
f 43/43/43 44/44/44 30/30/30
f 29/29/29 43/43/43 30/30/30
f 6/6/6 5/5/5 45/45/45
f 46/46/46 6/6/6 45/45/45
f 46/46/46 45/45/45 47/47/47
f 48/48/48 46/46/46 47/47/47
f 49/49/49 12/12/12 50/50/50
f 49/49/49 11/11/11 12/12/12
f 51/51/51 50/50/50 52/52/52
f 51/51/51 49/49/49 50/50/50
f 53/53/53 54/54/54 55/55/55
f 56/56/56 53/53/53 55/55/55
f 56/56/56 55/55/55 57/57/57
f 58/58/58 56/56/56 57/57/57
f 59/59/59 60/60/60 61/61/61
f 62/62/62 59/59/59 61/61/61
f 63/63/63 64/64/64 60/60/60
f 59/59/59 63/63/63 60/60/60
f 65/65/65 66/66/66 67/67/67
f 68/68/68 65/65/65 67/67/67
f 69/69/69 70/70/70 71/71/71
f 72/72/72 69/69/69 71/71/71
f 73/73/73 74/74/74 75/75/75
f 76/76/76 73/73/73 75/75/75
f 76/76/76 75/75/75 77/77/77
f 78/78/78 76/76/76 77/77/77
f 78/78/78 77/77/77 44/44/44
f 43/43/43 78/78/78 44/44/44
f 79/79/79 80/80/80 81/81/81
f 82/82/82 79/79/79 81/81/81
f 83/83/83 84/84/84 85/85/85
f 86/86/86 83/83/83 85/85/85
f 45/45/45 87/87/87 88/88/88
f 47/47/47 45/45/45 88/88/88
f 87/87/87 59/59/59 62/62/62
f 88/88/88 87/87/87 62/62/62
f 5/5/5 89/89/89 87/87/87
f 45/45/45 5/5/5 87/87/87
f 89/89/89 63/63/63 59/59/59
f 87/87/87 89/89/89 59/59/59
f 90/90/90 91/91/91 92/92/92
f 93/93/93 90/90/90 92/92/92
f 93/93/93 94/94/94 95/95/95
f 96/96/96 93/93/93 95/95/95
f 54/54/54 97/97/97 98/98/98
f 55/55/55 54/54/54 98/98/98
f 97/97/97 6/6/6 46/46/46
f 98/98/98 97/97/97 46/46/46
f 55/55/55 98/98/98 99/99/99
f 57/57/57 55/55/55 99/99/99
f 98/98/98 46/46/46 48/48/48
f 99/99/99 98/98/98 48/48/48
g submesh1
f 100/100/100 101/101/101 102/102/102
f 101/101/101 103/103/103 102/102/102
f 104/104/104 105/105/105 106/106/106
f 105/105/105 107/107/107 106/106/106
f 108/108/108 109/109/109 110/110/110
f 111/111/111 108/108/108 110/110/110
f 112/112/112 113/113/113 114/114/114
f 115/115/115 112/112/112 114/114/114
f 116/116/116 117/117/117 118/118/118
f 116/116/116 119/119/119 117/117/117
f 120/120/120 121/121/121 122/122/122
f 120/120/120 123/123/123 121/121/121
f 124/124/124 125/125/125 126/126/126
f 125/125/125 127/127/127 126/126/126
f 107/107/107 105/105/105 128/128/128
f 105/105/105 129/129/129 128/128/128
f 130/130/130 131/131/131 132/132/132
f 131/131/131 133/133/133 132/132/132
f 134/134/134 135/135/135 136/136/136
f 135/135/135 137/137/137 136/136/136
f 104/104/104 106/106/106 138/138/138
f 106/106/106 139/139/139 138/138/138
f 140/140/140 141/141/141 142/142/142
f 141/141/141 143/143/143 142/142/142
f 144/144/144 145/145/145 146/146/146
f 145/145/145 147/147/147 146/146/146
f 148/148/148 149/149/149 150/150/150
f 149/149/149 151/151/151 150/150/150
f 131/131/131 152/152/152 133/133/133
f 152/152/152 153/153/153 133/133/133
f 154/154/154 134/134/134 155/155/155
f 134/134/134 136/136/136 155/155/155
f 156/156/156 157/157/157 158/158/158
f 157/157/157 159/159/159 158/158/158
f 160/160/160 161/161/161 162/162/162
f 161/161/161 163/163/163 162/162/162
f 164/164/164 165/165/165 166/166/166
f 165/165/165 167/167/167 166/166/166
f 168/168/168 169/169/169 170/170/170
f 169/169/169 171/171/171 170/170/170
f 172/172/172 173/173/173 174/174/174
f 173/173/173 175/175/175 174/174/174
f 176/176/176 177/177/177 178/178/178
f 177/177/177 179/179/179 178/178/178
f 180/180/180 181/181/181 182/182/182
f 181/181/181 183/183/183 182/182/182
f 184/184/184 185/185/185 186/186/186
f 185/185/185 187/187/187 186/186/186
f 188/188/188 189/189/189 190/190/190
f 189/189/189 191/191/191 190/190/190
f 192/192/192 193/193/193 194/194/194
f 193/193/193 195/195/195 194/194/194
f 196/196/196 197/197/197 198/198/198
f 196/196/196 199/199/199 197/197/197
f 200/200/200 201/201/201 202/202/202
f 200/200/200 203/203/203 201/201/201
f 204/204/204 205/205/205 206/206/206
f 207/207/207 204/204/204 206/206/206
f 208/208/208 193/193/193 209/209/209
f 193/193/193 210/210/210 209/209/209
f 184/184/184 211/211/211 212/212/212
f 211/211/211 213/213/213 212/212/212
f 214/214/214 215/215/215 216/216/216
f 215/215/215 217/217/217 216/216/216
f 218/218/218 219/219/219 220/220/220
f 219/219/219 221/221/221 220/220/220
f 172/172/172 222/222/222 223/223/223
f 173/173/173 172/172/172 223/223/223
f 224/224/224 225/225/225 226/226/226
f 224/224/224 227/227/227 225/225/225
f 228/228/228 229/229/229 230/230/230
f 228/228/228 231/231/231 229/229/229
f 232/232/232 233/233/233 192/192/192
f 232/232/232 234/234/234 233/233/233
f 235/235/235 236/236/236 237/237/237
f 185/185/185 235/235/235 237/237/237
f 238/238/238 239/239/239 240/240/240
f 238/238/238 241/241/241 239/239/239
f 242/242/242 234/234/234 232/232/232
f 242/242/242 243/243/243 234/234/234
f 244/244/244 243/243/243 242/242/242
f 244/244/244 245/245/245 243/243/243
f 236/236/236 246/246/246 247/247/247
f 237/237/237 236/236/236 247/247/247
f 246/246/246 248/248/248 249/249/249
f 247/247/247 246/246/246 249/249/249
f 250/250/250 251/251/251 252/252/252
f 250/250/250 253/253/253 251/251/251
f 254/254/254 255/255/255 256/256/256
f 254/254/254 257/257/257 255/255/255
f 258/258/258 259/259/259 260/260/260
f 258/258/258 261/261/261 259/259/259
f 262/262/262 263/263/263 264/264/264
f 262/262/262 265/265/265 263/263/263
f 203/203/203 264/264/264 201/201/201
f 203/203/203 262/262/262 264/264/264
f 205/205/205 266/266/266 267/267/267
f 206/206/206 205/205/205 267/267/267
f 268/268/268 269/269/269 270/270/270
f 271/271/271 268/268/268 270/270/270
f 269/269/269 272/272/272 273/273/273
f 270/270/270 269/269/269 273/273/273
f 274/274/274 275/275/275 276/276/276
f 274/274/274 277/277/277 275/275/275
f 278/278/278 277/277/277 274/274/274
f 278/278/278 279/279/279 277/277/277
f 280/280/280 281/281/281 282/282/282
f 280/280/280 283/283/283 281/281/281
f 283/283/283 284/284/284 281/281/281
f 283/283/283 285/285/285 284/284/284
f 286/286/286 287/287/287 288/288/288
f 286/286/286 289/289/289 287/287/287
f 290/290/290 288/288/288 291/291/291
f 290/290/290 286/286/286 288/288/288
f 223/223/223 222/222/222 292/292/292
f 223/223/223 292/292/292 293/293/293
f 293/293/293 292/292/292 169/169/169
f 293/293/293 169/169/169 168/168/168
f 294/294/294 295/295/295 224/224/224
f 295/295/295 227/227/227 224/224/224
f 296/296/296 297/297/297 294/294/294
f 297/297/297 295/295/295 294/294/294
f 298/298/298 203/203/203 200/200/200
f 298/298/298 299/299/299 203/203/203
f 230/230/230 299/299/299 298/298/298
f 230/230/230 229/229/229 299/299/299
f 266/266/266 300/300/300 301/301/301
f 300/300/300 302/302/302 301/301/301
f 303/303/303 304/304/304 305/305/305
f 306/306/306 307/307/307 308/308/308
f 309/309/309 310/310/310 311/311/311
f 312/312/312 313/313/313 314/314/314
f 315/315/315 316/316/316 317/317/317
f 318/318/318 319/319/319 320/320/320
f 321/321/321 322/322/322 323/323/323
f 324/324/324 325/325/325 326/326/326
f 327/327/327 328/328/328 329/329/329
f 328/328/328 330/330/330 329/329/329
f 331/331/331 332/332/332 333/333/333
f 332/332/332 334/334/334 333/333/333
f 335/335/335 336/336/336 337/337/337
f 336/336/336 338/338/338 337/337/337
f 339/339/339 340/340/340 341/341/341
f 340/340/340 342/342/342 341/341/341
f 343/343/343 344/344/344 345/345/345
f 346/346/346 343/343/343 345/345/345
f 347/347/347 348/348/348 349/349/349
f 347/347/347 350/350/350 348/348/348
f 351/351/351 352/352/352 353/353/353
f 351/351/351 354/354/354 352/352/352
f 355/355/355 356/356/356 357/357/357
f 267/267/267 355/355/355 357/357/357
f 356/356/356 343/343/343 346/346/346
f 357/357/357 356/356/356 346/346/346
f 358/358/358 359/359/359 360/360/360
f 358/358/358 361/361/361 359/359/359
f 349/349/349 361/361/361 358/358/358
f 349/349/349 348/348/348 361/361/361
f 362/362/362 363/363/363 364/364/364
f 362/362/362 365/365/365 363/363/363
f 366/366/366 367/367/367 368/368/368
f 366/366/366 369/369/369 367/367/367
f 370/370/370 371/371/371 372/372/372
f 373/373/373 370/370/370 372/372/372
f 374/374/374 375/375/375 376/376/376
f 377/377/377 374/374/374 376/376/376
f 378/378/378 379/379/379 380/380/380
f 378/378/378 381/381/381 379/379/379
f 382/382/382 383/383/383 384/384/384
f 382/382/382 385/385/385 383/383/383
f 276/276/276 386/386/386 387/387/387
f 276/276/276 275/275/275 386/386/386
f 387/387/387 208/208/208 244/244/244
f 387/387/387 386/386/386 208/208/208
f 388/388/388 389/389/389 390/390/390
f 391/391/391 388/388/388 390/390/390
f 392/392/392 393/393/393 394/394/394
f 395/395/395 392/392/392 394/394/394
f 396/396/396 397/397/397 398/398/398
f 396/396/396 399/399/399 397/397/397
f 398/398/398 177/177/177 176/176/176
f 398/398/398 397/397/397 177/177/177
f 400/400/400 152/152/152 401/401/401
f 400/400/400 153/153/153 152/152/152
f 288/288/288 153/153/153 400/400/400
f 288/288/288 287/287/287 153/153/153
f 402/402/402 401/401/401 403/403/403
f 402/402/402 400/400/400 401/401/401
f 291/291/291 400/400/400 402/402/402
f 291/291/291 288/288/288 400/400/400
f 404/404/404 405/405/405 406/406/406
f 404/404/404 407/407/407 405/405/405
f 408/408/408 409/409/409 410/410/410
f 408/408/408 411/411/411 409/409/409
f 412/412/412 282/282/282 413/413/413
f 412/412/412 280/280/280 282/282/282
f 265/265/265 413/413/413 263/263/263
f 265/265/265 412/412/412 413/413/413
f 300/300/300 414/414/414 415/415/415
f 345/345/345 300/300/300 415/415/415
f 414/414/414 268/268/268 271/271/271
f 415/415/415 414/414/414 271/271/271
f 416/416/416 417/417/417 418/418/418
f 416/416/416 419/419/419 417/417/417
f 165/165/165 419/419/419 416/416/416
f 165/165/165 164/164/164 419/419/419
f 420/420/420 421/421/421 422/422/422
f 423/423/423 420/420/420 422/422/422
f 424/424/424 425/425/425 426/426/426
f 427/427/427 424/424/424 426/426/426
f 428/428/428 283/283/283 280/280/280
f 428/428/428 429/429/429 283/283/283
f 430/430/430 429/429/429 428/428/428
f 430/430/430 431/431/431 429/429/429
f 429/429/429 285/285/285 283/283/283
f 429/429/429 155/155/155 285/285/285
f 431/431/431 155/155/155 429/429/429
f 431/431/431 154/154/154 155/155/155
