v 4 -2 4
v 3.999999 3.5 4.000001
v -3.499839 -2 4.000142
v 4 -2 4
v 4 -2 -2
v 3.999999 3.5 4.000001
v -3.499839 -2 4.000142
v 3.999999 3.5 4.000001
v -0.4999399 -2 1.50002
v 4 -2 -2
v -0.4999399 -2 1.50002
v 4 -2 -2
v -3.499839 -2 4.000142
v 4 -2 4
vn 1.888316E-05 -1.733912E-07 1
vn 1.888316E-05 -1.733912E-07 1
vn 1.888316E-05 -1.733912E-07 1
vn 1 2.167442E-07 0
vn 1 2.167442E-07 0
vn 1 2.167442E-07 0
vn -0.4822931 0.6576434 -0.5787042
vn -0.4737625 0.655082 -0.5884241
vn -0.4737625 0.655082 -0.5884241
vn -0.4652319 0.6525206 -0.5981439
vn 0 -1 0
vn 0 -1 0
vn 0 -1 0
vn 0 -1 0
vt -3.999924 -1.999999
vt -3.999923 3.500001
vt 3.499915 -1.999999
vt 4 -2.000001
vt -2 -2.000001
vt 4.000001 3.499999
vt -4.005005 3.526706
vt 5.295402 3.526533
vt -1.585909 0.4610941
vt 2.042809 -3.933338
vt 0.4999399 1.50002
vt -4 -2
vt 3.499839 4.000142
vt -4 4
g submesh0
f 1/1/1 2/2/2 3/3/3
f 4/4/4 5/5/5 6/6/6
f 7/7/7 8/8/8 9/9/9
f 8/8/8 10/10/10 9/9/9
f 11/11/11 12/12/12 13/13/13
f 12/12/12 14/14/14 13/13/13
