v 4 -2 4
v 4 3 4
v -2 -2 4
v 4 -2 4
v 4 -2 -2
v 4 3 4
v -2 -2 4
v 4 3 4
v -2 -2 -2
v 4 -2 -2
v -2 -2 -2
v 4 -2 -2
v -2 -2 4
v 4 -2 4
vn 0 0 1
vn 0 0 1
vn 0 0 1
vn 1 0 0
vn 1 0 0
vn 1 0 0
vn -0.6401844 0.7682213 0
vn -0.3200922 0.7682213 -0.3200922
vn -0.3200922 0.7682213 -0.3200922
vn 0 0.7682213 -0.6401844
vn 0 -1 0
vn 0 -1 0
vn 0 -1 0
vn 0 -1 0
vt -4 -2
vt -4 3
vt 2 -2
vt 4 -2
vt -2 -2
vt 4 3
vt -2.816811 4
vt 4.993438 4
vt -2.816811 -2
vt 1.792516 -2
vt 2 -2
vt -4 -2
vt 2 4
vt -4 4
g submesh0
f 1/1/1 2/2/2 3/3/3
f 4/4/4 5/5/5 6/6/6
f 7/7/7 8/8/8 9/9/9
f 8/8/8 10/10/10 9/9/9
f 11/11/11 12/12/12 13/13/13
f 12/12/12 14/14/14 13/13/13
