v -4 17.5 4
v 4 17.5 4
v -4 17.5 -4
v 4 17.5 -4
v -4 -2 -4
v 4 -2 -4
v -4 -2 4
v 4 -2 4
v -9.5 17.5 4
v -9.5 17.5 -4
v -4 -2 4
v 4 -2 4
v 4 13.5 4
v -4 13.5 4
v 4 17.5 4
v -4 17.5 4
v 4 -2 4
v 4 -2 -4
v 4 13.5 -4
v 4 13.5 4
v 4 17.5 -4
v 4 17.5 4
v 4 13.5 -4
v -4 -2 -4
v -4 13.5 -4
v 4 -2 -4
v 4 17.5 -4
v -4 17.5 -4
v -4 13.5 -4
v -4 -2 4
v -4 13.5 4
v -4 -2 -4
v -9.5 17.5 -4
v -9.5 15.5 2
v -9.5 17.5 4
v -9.5 15.5 -2
v -4 13.5 4
v -4 17.5 4
v -9.5 15.5 2
v -9.5 17.5 4
v -4 13.5 -4
v -9.5 17.5 -4
v -9.5 15.5 -2
v -4 13.5 -4
v -4 13.5 4
v -9.5 15.5 -2
v -9.5 15.5 2
vn 0 1 0
vn 0 1 0
vn 0 1 0
vn 0 1 0
vn 0 -1 0
vn 0 -1 0
vn 0 -1 0
vn 0 -1 0
vn 0 1 0
vn 0 1 0
vn 0 0 1
vn 0 0 1
vn 0 0 1
vn 0 0 1
vn 0 0 1
vn 0 0 1
vn 1 0 0
vn 1 0 0
vn 1 0 0
vn 1 0 0
vn 1 0 0
vn 1 0 0
vn 0 0 -1
vn 0 0 -1
vn 0 0 -1
vn 0 0 -1
vn 0 0 -1
vn 0 0 -1
vn -1 0 0
vn -1 0 0
vn -1 0 0
vn -1 0 0
vn -1 0 0
vn -1 0 0
vn -1 0 0
vn -1 0 0
vn -0.3417431 0 0.9397935
vn -0.1708715 -0.3535534 0.8234501
vn -0.1708715 -0.3535534 0.8234501
vn 0 -0.7071068 0.7071068
vn -0.2286648 -0.3144141 -0.8144141
vn -0.2286648 -0.3144141 -0.8144141
vn -0.4573296 -0.6288282 -0.6288282
vn -0.3417431 -0.9397935 0
vn -0.3417431 -0.9397935 0
vn -0.3417431 -0.9397935 0
vn -0.3417431 -0.9397935 0
vt -4 4
vt 4 4
vt -4 -4
vt 4 -4
vt 4 -4
vt -4 -4
vt 4 4
vt -4 4
vt -9.5 4
vt -9.5 -4
vt 4 -2
vt -4 -2
vt -4 13.5
vt 4 13.5
vt -4 17.5
vt 4 17.5
vt 4 -2
vt -4 -2
vt -4 13.5
vt 4 13.5
vt -4 17.5
vt 4 17.5
vt 4 13.5
vt -4 -2
vt -4 13.5
vt 4 -2
vt 4 17.5
vt -4 17.5
vt 4 13.5
vt -4 -2
vt -4 13.5
vt 4 -2
vt 4 17.5
vt -2 15.5
vt -4 17.5
vt 2 15.5
vt 2.392201 13.5
vt 2.392201 17.5
vt 8.244552 15.5
vt 7.561066 17.5
vt -4 13.5
vt -9.5 17.5
vt -9.5 15.5
vt 8.372705 -4
vt 8.372705 4
vt 14.22506 -2
vt 14.22506 2
g submesh0
f 1/1/1 2/2/2 3/3/3
f 2/2/2 4/4/4 3/3/3
f 5/5/5 6/6/6 7/7/7
f 6/6/6 8/8/8 7/7/7
f 1/1/1 3/3/3 9/9/9
f 3/3/3 10/10/10 9/9/9
g submesh1
f 11/11/11 12/12/12 13/13/13
f 14/14/14 11/11/11 13/13/13
f 14/14/14 13/13/13 15/15/15
f 16/16/16 14/14/14 15/15/15
f 17/17/17 18/18/18 19/19/19
f 20/20/20 17/17/17 19/19/19
f 20/20/20 19/19/19 21/21/21
f 22/22/22 20/20/20 21/21/21
f 23/23/23 24/24/24 25/25/25
f 23/23/23 26/26/26 24/24/24
f 27/27/27 25/25/25 28/28/28
f 27/27/27 23/23/23 25/25/25
f 29/29/29 30/30/30 31/31/31
f 29/29/29 32/32/32 30/30/30
f 33/33/33 34/34/34 35/35/35
f 33/33/33 36/36/36 34/34/34
f 37/37/37 38/38/38 39/39/39
f 38/38/38 40/40/40 39/39/39
f 28/28/28 41/41/41 42/42/42
f 41/41/41 43/43/43 42/42/42
f 44/44/44 45/45/45 46/46/46
f 45/45/45 47/47/47 46/46/46
