v -8 1 4
v -2 1 4
v -8 1 0
v -2 1 0
v -8 -6 0
v -2 -6 0
v -8 -6 4
v -2 -6 4
v -2 1 0
v -2 1 4
v 4 4 0
v 4 4 4
v 4 4 0
v 4 4 4
v 8 4 1
v 10 4 4
v 8 6 16
v 4 6 16
v 7 6 20
v 4 6 22
v 10 4 4
v 4 4 4
v 4 4 6
v 10 4 6
v 4 4 12
v 8 4 12
v 8 4 12
v 4 4 12
v 4 6 16
v 8 6 16
v -8 1 0
v -2 1 0
v -12 -2 -4
v -2 -2 -4
v -8 1 4
v -8 1 0
v -12 -2 4
v -12 -2 -4
v -8 1 4
v -12 -2 4
v -8 -2 8
v -12 -3 8
v -2 1 0
v 2 -2 -4
v 2 -2 0
v 0 6 22
v 0 6 16
v -8 6 22
v -8 6 16
v -13 6 20
v -12 6 16
v -12 6 16
v -8 6 16
v -12 12 4
v -8 12 4
v -12 12 4
v -8 12 4
v -12 12 0
v -8 12 0
v -8 12 0
v -8 12 4
v -2 16 0
v -2 16 4
v -2 16 0
v -2 16 4
v 2 16 4
v -8 -6 4
v -2 -6 4
v -8 1 4
v -2 1 4
v 10 -6 4
v 8 -6 1
v 10 1 4
v 8 1 1
v -12 -6 -4
v -12 -6 4
v -12 -2 -4
v -12 -2 4
v -2 -6 4
v -2 -6 0
v 4 -6 4
v 4 -6 0
v 4 1 4
v 4 -6 4
v -2 -6 0
v -2 1 0
v 4 -6 0
v 4 1 0
v 4 4 0
v 4 4 4
v 10 4 4
v 8 4 1
v 4 6 22
v 4 1 22
v 7 6 20
v 7 1 20
v 4 1 0
v 4 4 0
v 8 1 1
v 8 4 1
v 10 -6 4
v 8 -6 1
v 4 -6 22
v 7 -6 20
v 4 -6 0
v 8 -6 1
v -12 6 16
v -12 4 16
v -13 6 20
v -13 1 20
v 4 -6 16
v 8 -6 16
v 4 -6 22
v 7 -6 20
v 8 1 16
v 8 6 16
v 7 1 20
v 7 6 20
v -12 -6 16
v -13 -6 20
v 8 -6 16
v 7 -6 20
v 4 1 4
v 4 -6 6
v 4 1 6
v 4 -6 4
v 10 1 6
v 10 1 4
v 10 4 4
v 10 4 6
v 4 -6 6
v 10 -6 6
v 10 -6 6
v 10 -6 4
v 4 4 4
v 4 4 6
v 4 1 12
v 4 -6 16
v 4 1 16
v 4 -6 12
v 8 1 16
v 8 1 12
v 8 4 12
v 8 6 16
v 8 1 12
v 10 1 6
v 10 4 6
v 8 4 12
v 4 -6 12
v 8 -6 12
v 8 -6 16
v 8 -6 12
v 8 -6 12
v 10 -6 6
v 4 4 12
v 4 6 16
v -2 -2 -4
v -12 -6 -4
v -12 -2 -4
v -2 -6 -4
v -8 -6 8
v -8 -2 8
v -12 -6 8
v -12 -3 8
v 2 -2 0
v 2 -6 0
v 2 -2 -4
v 2 -6 -4
v -8 -6 0
v -2 -6 -4
v -12 -6 -4
v -8 -6 4
v -12 -6 4
v -8 -6 4
v -8 1 4
v -8 -6 8
v -8 -2 8
v -12 -6 8
v -8 -6 8
v -12 -3 8
v -12 -6 8
v -2 1 0
v -2 -6 0
v 2 -2 0
v 2 -6 0
v 2 -6 0
v 2 -6 -4
v 2 -6 -4
v 2 -2 -4
v 4 6 16
v 4 1 16
v 0 6 16
v 0 1 16
v 0 -6 16
v 0 -6 22
v 4 1 22
v 4 6 22
v 0 1 22
v 0 6 22
v 4 -6 16
v 0 -6 16
v 4 -6 22
v 0 -6 22
v -8 6 16
v -8 4 16
v -8 -6 16
v -8 -6 22
v -8 1 22
v -8 6 22
v -8 -6 16
v -8 -6 22
v -8 12 0
v -8 10 0
v -12 12 0
v -12 10 0
v -12 -6 16
v -13 -6 20
v -8 1 22
v -8 6 22
v -13 1 20
v -13 6 20
v -12 4 16
v -12 -6 16
v -8 -6 22
v -13 -6 20
v -8 6 16
v -8 4 16
v -8 12 4
v -8 8 4
v -8 4 16
v -12 4 16
v -8 8 4
v -12 10 4
v -12 4 16
v -12 6 16
v -12 10 4
v -12 12 4
v -8 8 4
v -12 10 4
v -8 10 0
v -12 10 0
v -12 10 0
v -12 12 0
v -8 12 4
v -8 8 4
v -2 16 4
v -2 12 4
v -8 8 4
v -8 10 0
v -2 12 4
v -2 14 0
v -2 14 0
v -2 16 0
v 2 16 4
v 2 14 4
v -2 12 4
v -2 14 0
v 2 14 4
v 2 16 4
v -2 14 0
v -2 16 0
v 2 16 4
vn 0 1 0
vn 0 1 0
vn 0 1 0
vn 0 1 0
vn 0 -1 0
vn 0 -1 0
vn 0 -1 0
vn 0 -1 0
vn -0.4472136 0.8944272 0
vn -0.4472136 0.8944272 0
vn -0.4472136 0.8944272 0
vn -0.4472136 0.8944272 0
vn 0 1 0
vn 0 1 0
vn 0 1 0
vn 0 1 0
vn 0 1 0
vn 0 1 0
vn 0 1 0
vn 0 1 0
vn 0 1 0
vn 0 1 0
vn 0 1 0
vn 0 1 0
vn 0 1 0
vn 0 1 0
vn 0 0.8944272 -0.4472136
vn 0 0.8944272 -0.4472136
vn 0 0.8944272 -0.4472136
vn 0 0.8944272 -0.4472136
vn 0 0.8 -0.6
vn 0 0.8 -0.6
vn 0 0.8 -0.6
vn 0 0.8 -0.6
vn -0.6 0.8 0
vn -0.6 0.8 0
vn -0.6 0.8 0
vn -0.6 0.8 0
vn -0.5144957 0.6859943 0.5144957
vn -0.375099 0.8144016 0.375099
vn -0.375099 0.8144016 0.375099
vn -0.2357022 0.942809 0.2357022
vn 0.3 0.8 -0.3
vn 0.3 0.8 -0.3
vn 0.6 0.8 0
vn 0 1 0
vn 0 1 0
vn 0 1 0
vn 0 1 0
vn 0 1 0
vn 0 1 0
vn 0 0.8944272 0.4472136
vn 0 0.8944272 0.4472136
vn 0 0.8944272 0.4472136
vn 0 0.8944272 0.4472136
vn 0 1 0
vn 0 1 0
vn 0 1 0
vn 0 1 0
vn -0.5547002 0.8320503 0
vn -0.5547002 0.8320503 0
vn -0.5547002 0.8320503 0
vn -0.5547002 0.8320503 0
vn 0 1 0
vn 0 1 0
vn 0 1 0
vn 0 0 1
vn 0 0 1
vn 0 0 1
vn 0 0 1
vn 0.8320503 0 -0.5547002
vn 0.8320503 0 -0.5547002
vn 0.8320503 0 -0.5547002
vn 0.8320503 0 -0.5547002
vn -1 0 0
vn -1 0 0
vn -1 0 0
vn -1 0 0
vn 0 -1 0
vn 0 -1 0
vn 0 -1 0
vn 0 -1 0
vn 0 0 1
vn 0 0 1
vn 0 0 -1
vn 0 0 -1
vn 0 0 -1
vn 0 0 -1
vn 0 0 -1
vn 0 0 1
vn 0.8320503 0 -0.5547002
vn 0.8320503 0 -0.5547002
vn 0.5547002 0 0.8320503
vn 0.5547002 0 0.8320503
vn 0.5547002 0 0.8320503
vn 0.5547002 0 0.8320503
vn 0.2425356 0 -0.9701425
vn 0.2425356 0 -0.9701425
vn 0.2425356 0 -0.9701425
vn 0.2425356 0 -0.9701425
vn 0 -1 0
vn 0 -1 0
vn 0.5547002 0 0.8320503
vn 0.5547002 0 0.8320503
vn 0.2425356 0 -0.9701425
vn 0.2425356 0 -0.9701425
vn -0.9701425 0 -0.2425356
vn -0.9701425 0 -0.2425356
vn -0.9701425 0 -0.2425356
vn -0.9701425 0 -0.2425356
vn 0 -1 0
vn 0 -1 0
vn 0 -1 0
vn 0 -1 0
vn 0.9701425 0 0.2425356
vn 0.9701425 0 0.2425356
vn 0.9701425 0 0.2425356
vn 0.9701425 0 0.2425356
vn -0.9701425 0 -0.2425356
vn -0.9701425 0 -0.2425356
vn 0.9701425 0 0.2425356
vn 0.9701425 0 0.2425356
vn -1 0 0
vn -1 0 0
vn -1 0 0
vn -1 0 0
vn 1 0 0
vn 1 0 0
vn 1 0 0
vn 1 0 0
vn 0 -1 0
vn 0 -1 0
vn 1 0 0
vn 1 0 0
vn -1 0 0
vn -1 0 0
vn -1 0 0
vn -1 0 0
vn -1 0 0
vn -1 0 0
vn 1 0 0
vn 1 0 0
vn 1 0 0
vn 1 0 0
vn 0.9486833 0 0.3162278
vn 0.9486833 0 0.3162278
vn 0.9486833 0 0.3162278
vn 0.9486833 0 0.3162278
vn 0 -1 0
vn 0 -1 0
vn 1 0 0
vn 1 0 0
vn 0.9486833 0 0.3162278
vn 0.9486833 0 0.3162278
vn -1 0 0
vn -1 0 0
vn 0 0 -1
vn 0 0 -1
vn 0 0 -1
vn 0 0 -1
vn 0 0 1
vn 0 0 1
vn 0 0 1
vn 0 0 1
vn 1 0 0
vn 1 0 0
vn 1 0 0
vn 1 0 0
vn 0 -1 0
vn 0 -1 0
vn 0 -1 0
vn 0 -1 0
vn 0 -1 0
vn 1 0 0
vn 1 0 0
vn 1 0 0
vn 1 0 0
vn 0 -1 0
vn 0 -1 0
vn -1 0 0
vn -1 0 0
vn 0 0 1
vn 0 0 1
vn 0 0 1
vn 0 0 1
vn 0 -1 0
vn 0 -1 0
vn 0 0 -1
vn 0 0 -1
vn 0 0 -1
vn 0 0 -1
vn 0 0 -1
vn 0 0 -1
vn 0 -1 0
vn 0 -1 0
vn 0 0 1
vn 0 0 1
vn 0 0 1
vn 0 0 1
vn 0 0 -1
vn 0 0 -1
vn 0 0 1
vn 0 0 1
vn 0 0 -1
vn 0 0 -1
vn 0 -1 0
vn 0 -1 0
vn 0 0 1
vn 0 0 1
vn 0 0 -1
vn 0 0 1
vn 0 0 -1
vn 0 0 -1
vn 0 0 -1
vn 0 0 -1
vn 0 -1 0
vn 0 -1 0
vn -0.3713907 0 0.9284767
vn -0.3713907 0 0.9284767
vn -0.3713907 0 0.9284767
vn -0.3713907 0 0.9284767
vn 0 0 -1
vn 0 0 -1
vn -0.3713907 0 0.9284767
vn -0.3713907 0 0.9284767
vn 1 0 0
vn 1 0 0
vn 1 0 0
vn 1 0 0
vn 0 -0.9486833 -0.3162278
vn -0.2041242 -0.8825899 -0.362238
vn -0.2041242 -0.8825899 -0.362238
vn -0.4082483 -0.8164966 -0.4082483
vn -1 0 0
vn -1 0 0
vn -1 0 0
vn -1 0 0
vn -0.4082483 -0.8164966 -0.4082483
vn -0.2041242 -0.9082483 -0.2041242
vn -0.2041242 -0.9082483 -0.2041242
vn 0 -1 0
vn -1 0 0
vn -1 0 0
vn 0 0 1
vn 0 0 1
vn 0 0 1
vn 0 0 1
vn 0.5121475 -0.7682213 -0.3841107
vn 0.5121475 -0.7682213 -0.3841107
vn 0.5121475 -0.7682213 -0.3841107
vn 0.5121475 -0.7682213 -0.3841107
vn 0 0 -1
vn 0 0 -1
vn 0 0 1
vn 0 0 1
vn 0.4082483 -0.8164966 -0.4082483
vn 0.5576775 -0.4082483 -0.5576775
vn 0.5576775 -0.4082483 -0.5576775
vn 0.7071068 0 -0.7071068
vn 0.7071068 0 -0.7071068
vn 0.7071068 0 -0.7071068
vn 0.7071068 0 -0.7071068
vt -8 4
vt -2 4
vt -8 0
vt -2 0
vt 8 0
vt 2 0
vt 8 4
vt 2 4
vt -1.341641 0
vt -1.341641 4
vt 5.366563 0
vt 5.366563 4
vt 4 0
vt 4 4
vt 8 1
vt 10 4
vt 8 16
vt 4 16
vt 7 20
vt 4 22
vt 10 4.563879
vt 4 4.563879
vt 4 6.540425
vt 10 6.540425
vt 4 12.47006
vt 8 12.47006
vt 8 12.47006
vt 4 12.47006
vt 4 16.72855
vt 8 16.72855
vt -8 0.6
vt -2 0.6
vt -12 -4.4
vt -2 -4.4
vt -5.8 4
vt -5.8 0
vt -10.8 4
vt -10.8 -4
vt -5.8 0.5487954
vt -10.8 0.5487953
vt -7.6 5.213557
vt -11.4 4.390364
vt -2 0.6
vt 2 -4.4
vt 2 -1.2
vt 0 22
vt 0 16
vt -8 22
vt -8 16
vt -13 20
vt -12 16
vt -12 11.62755
vt -8 11.62755
vt -12 -1.788854
vt -8 -1.788854
vt -12 4
vt -8 4
vt -12 0
vt -8 0
vt -2.384186E-07 0
vt -2.384186E-07 4
vt 7.211102 0
vt 7.211102 4
vt -2 0
vt -2 4
vt 2 4
vt 8 -6
vt 2 -6
vt 8 1
vt 2 1
vt 8.875203 -6
vt 5.269652 -6
vt 8.875203 1
vt 5.269652 1
vt 4 -6
vt -4 -6
vt 4 -2
vt -4 -2
vt 2 4
vt 2 0
vt -4 4
vt -4 0
vt -4 1
vt -4 -6
vt -2 -6
vt -2 1
vt 4 -6
vt 4 1
vt 4 4
vt -4 4
vt 8.875203 4
vt 5.269652 4
vt 8.875203 6
vt 8.875203 1
vt 5.269651 6
vt 5.269651 1
vt 3.88057 1
vt 3.88057 4
vt 8.003675 1
vt 8.003675 4
vt -10 4
vt -8 1
vt 8.875203 -6
vt 5.269652 -6
vt 3.88057 -6
vt 8.003675 -6
vt -18.43271 6
vt -18.43271 4
vt -22.55581 6
vt -22.55581 1
vt -4 16
vt -8 16
vt -4 22
vt -7 20
vt 13.582 1
vt 13.582 6
vt 17.7051 1
vt 17.7051 6
vt -18.43271 -6
vt -22.55581 -6
vt 13.582 -6
vt 17.7051 -6
vt -4 1
vt -6 -6
vt -6 1
vt -4 -6
vt 4.899469 1
vt 2.910872 1
vt 2.910872 4
vt 4.899469 4
vt -4 6
vt -10 6
vt 4.899469 -6
vt 2.910872 -6
vt -4 4
vt -6 4
vt -12 1
vt -16 -6
vt -16 1
vt -12 -6
vt 15.05572 1
vt 11.07852 1
vt 11.07852 4
vt 15.05572 6
vt 11.07852 1
vt 4.899469 1
vt 4.899469 4
vt 11.07852 4
vt -4 12
vt -8 12
vt 15.05572 -6
vt 11.07852 -6
vt 11.07852 -6
vt 4.899469 -6
vt -12 4
vt -16 6
vt -2 -2
vt -12 -6
vt -12 -2
vt -2 -6
vt 8 -6
vt 8 -2
vt 12 -6
vt 12 -3
vt 0 -2
vt 0 -6
vt -4 -2
vt -4 -6
vt 8 0
vt 2 -4
vt 12 -4
vt 8 4
vt 12 4
vt 4 -6
vt 4 1
vt 8 -6
vt 8 -2
vt 12 8
vt 8 8
vt -8 -3
vt -8 -6
vt 2 1
vt 2 -6
vt -2 -2
vt -2 -6
vt -2 0
vt -2 -4
vt 2 -6
vt 2 -2
vt 4 6
vt 4 1
vt 0 6
vt 0 1
vt 0 16
vt 0 22
vt -4 1
vt -4 6
vt 0 1
vt 0 6
vt 4 -6
vt 0 -6
vt -4 -6
vt 0 -6
vt -8 6
vt -8 4
vt 8 16
vt 8 22
vt 8 1
vt 8 6
vt -8 -6
vt 8 -6
vt -8 12
vt -8 10
vt -12 12
vt -12 10
vt 12 16
vt 13 20
vt -0.7427819 1
vt -0.7427819 6
vt 4.642383 1
vt 4.642383 6
vt -12 4
vt -12 -6
vt -0.7427819 -6
vt 4.642383 -6
vt 16 6
vt 16 4
vt 4 12
vt 4 8
vt 8 13.91402
vt 12 13.91402
vt 8 1.264911
vt 12 0.6324553
vt -16 4
vt -16 6
vt -4 10
vt -4 12
vt 10.73313 2.19089
vt 15.20526 2.19089
vt 11.62755 -2.19089
vt 15.20526 -1.460594
vt 0 10
vt 0 12
vt 8 12
vt 8 8
vt 2 16
vt 2 12
vt 2.218801 -0.5681769
vt 1.109401 -4.900524
vt -4.992302 -0.5681769
vt -6.101702 -4.900524
vt -2 14
vt -2 16
vt -2 16
vt -2 14
vt -3.577709 -1.095445
vt -4.472136 -5.477226
vt -8.049845 -1.095445
vt -8.944272 -1.825742
vt -1.414214 14
vt -1.414214 16
vt 4.24264 16
g submesh0
f 1/1/1 2/2/2 3/3/3
f 2/2/2 4/4/4 3/3/3
f 5/5/5 6/6/6 7/7/7
f 6/6/6 8/8/8 7/7/7
f 9/9/9 10/10/10 11/11/11
f 10/10/10 12/12/12 11/11/11
f 13/13/13 14/14/14 15/15/15
f 14/14/14 16/16/16 15/15/15
f 17/17/17 18/18/18 19/19/19
f 18/18/18 20/20/20 19/19/19
f 21/21/21 22/22/22 23/23/23
f 24/24/24 21/21/21 23/23/23
f 24/24/24 23/23/23 25/25/25
f 26/26/26 24/24/24 25/25/25
f 27/27/27 28/28/28 29/29/29
f 30/30/30 27/27/27 29/29/29
f 31/31/31 32/32/32 33/33/33
f 32/32/32 34/34/34 33/33/33
f 35/35/35 36/36/36 37/37/37
f 36/36/36 38/38/38 37/37/37
f 39/39/39 40/40/40 41/41/41
f 40/40/40 42/42/42 41/41/41
f 34/34/34 43/43/43 44/44/44
f 43/43/43 45/45/45 44/44/44
f 20/20/20 18/18/18 46/46/46
f 18/18/18 47/47/47 46/46/46
f 46/46/46 47/47/47 48/48/48
f 47/47/47 49/49/49 48/48/48
f 48/48/48 49/49/49 50/50/50
f 49/49/49 51/51/51 50/50/50
f 52/52/52 53/53/53 54/54/54
f 53/53/53 55/55/55 54/54/54
f 56/56/56 57/57/57 58/58/58
f 57/57/57 59/59/59 58/58/58
f 60/60/60 61/61/61 62/62/62
f 61/61/61 63/63/63 62/62/62
f 64/64/64 65/65/65 66/66/66
g submesh1
f 67/67/67 68/68/68 69/69/69
f 68/68/68 70/70/70 69/69/69
f 71/71/71 72/72/72 73/73/73
f 72/72/72 74/74/74 73/73/73
f 75/75/75 76/76/76 77/77/77
f 76/76/76 78/78/78 77/77/77
f 79/79/79 80/80/80 81/81/81
f 80/80/80 82/82/82 81/81/81
f 70/70/70 68/68/68 83/83/83
f 68/68/68 84/84/84 83/83/83
f 85/85/85 86/86/86 87/87/87
f 86/86/86 88/88/88 87/87/87
f 88/88/88 86/86/86 89/89/89
f 83/83/83 90/90/90 70/70/70
f 73/73/73 74/74/74 91/91/91
f 74/74/74 92/92/92 91/91/91
f 93/93/93 94/94/94 95/95/95
f 94/94/94 96/96/96 95/95/95
f 97/97/97 98/98/98 99/99/99
f 98/98/98 100/100/100 99/99/99
f 81/81/81 82/82/82 101/101/101
f 82/82/82 102/102/102 101/101/101
f 94/94/94 103/103/103 96/96/96
f 103/103/103 104/104/104 96/96/96
f 105/105/105 97/97/97 106/106/106
f 97/97/97 99/99/99 106/106/106
f 107/107/107 108/108/108 109/109/109
f 108/108/108 110/110/110 109/109/109
f 111/111/111 112/112/112 113/113/113
f 112/112/112 114/114/114 113/113/113
f 115/115/115 116/116/116 117/117/117
f 116/116/116 118/118/118 117/117/117
f 108/108/108 119/119/119 110/110/110
f 119/119/119 120/120/120 110/110/110
f 121/121/121 115/115/115 122/122/122
f 115/115/115 117/117/117 122/122/122
f 123/123/123 124/124/124 125/125/125
f 123/123/123 126/126/126 124/124/124
f 127/127/127 128/128/128 129/129/129
f 130/130/130 127/127/127 129/129/129
f 131/131/131 101/101/101 132/132/132
f 131/131/131 81/81/81 101/101/101
f 133/133/133 134/134/134 128/128/128
f 127/127/127 133/133/133 128/128/128
f 135/135/135 125/125/125 136/136/136
f 135/135/135 123/123/123 125/125/125
f 137/137/137 138/138/138 139/139/139
f 137/137/137 140/140/140 138/138/138
f 125/125/125 140/140/140 137/137/137
f 125/125/125 124/124/124 140/140/140
f 141/141/141 142/142/142 143/143/143
f 144/144/144 141/141/141 143/143/143
f 145/145/145 146/146/146 147/147/147
f 148/148/148 145/145/145 147/147/147
f 149/149/149 132/132/132 150/150/150
f 149/149/149 131/131/131 132/132/132
f 111/111/111 150/150/150 112/112/112
f 111/111/111 149/149/149 150/150/150
f 151/151/151 152/152/152 142/142/142
f 141/141/141 151/151/151 142/142/142
f 153/153/153 154/154/154 146/146/146
f 145/145/145 153/153/153 146/146/146
f 155/155/155 139/139/139 156/156/156
f 155/155/155 137/137/137 139/139/139
f 136/136/136 137/137/137 155/155/155
f 136/136/136 125/125/125 137/137/137
f 157/157/157 158/158/158 159/159/159
f 157/157/157 160/160/160 158/158/158
f 161/161/161 162/162/162 163/163/163
f 162/162/162 164/164/164 163/163/163
f 165/165/165 166/166/166 167/167/167
f 166/166/166 168/168/168 167/167/167
f 80/80/80 169/169/169 170/170/170
f 169/169/169 171/171/171 170/170/170
f 169/169/169 172/172/172 171/171/171
f 172/172/172 173/173/173 171/171/171
f 174/174/174 175/175/175 176/176/176
f 175/175/175 177/177/177 176/176/176
f 173/173/173 172/172/172 178/178/178
f 172/172/172 179/179/179 178/178/178
f 78/78/78 76/76/76 180/180/180
f 76/76/76 181/181/181 180/180/180
f 182/182/182 183/183/183 184/184/184
f 183/183/183 185/185/185 184/184/184
f 80/80/80 170/170/170 186/186/186
f 170/170/170 187/187/187 186/186/186
f 160/160/160 157/157/157 188/188/188
f 157/157/157 189/189/189 188/188/188
f 190/190/190 191/191/191 192/192/192
f 191/191/191 193/193/193 192/192/192
f 111/111/111 113/113/113 194/194/194
f 113/113/113 195/195/195 194/194/194
f 196/196/196 197/197/197 198/198/198
f 197/197/197 199/199/199 198/198/198
f 191/191/191 200/200/200 193/193/193
f 200/200/200 201/201/201 193/193/193
f 202/202/202 196/196/196 203/203/203
f 196/196/196 198/198/198 203/203/203
f 192/192/192 193/193/193 204/204/204
f 193/193/193 205/205/205 204/204/204
f 194/194/194 195/195/195 206/206/206
f 195/195/195 207/207/207 206/206/206
f 198/198/198 199/199/199 208/208/208
f 199/199/199 209/209/209 208/208/208
f 193/193/193 201/201/201 205/205/205
f 201/201/201 210/210/210 205/205/205
f 203/203/203 198/198/198 211/211/211
f 198/198/198 208/208/208 211/211/211
f 212/212/212 213/213/213 214/214/214
f 213/213/213 215/215/215 214/214/214
f 206/206/206 207/207/207 216/216/216
f 207/207/207 217/217/217 216/216/216
f 218/218/218 219/219/219 220/220/220
f 219/219/219 221/221/221 220/220/220
f 205/205/205 210/210/210 222/222/222
f 210/210/210 223/223/223 222/222/222
f 224/224/224 218/218/218 225/225/225
f 218/218/218 220/220/220 225/225/225
f 226/226/226 227/227/227 228/228/228
f 227/227/227 229/229/229 228/228/228
f 230/230/230 231/231/231 232/232/232
f 231/231/231 233/233/233 232/232/232
f 234/234/234 235/235/235 236/236/236
f 235/235/235 237/237/237 236/236/236
f 238/238/238 239/239/239 240/240/240
f 239/239/239 241/241/241 240/240/240
f 236/236/236 237/237/237 242/242/242
f 237/237/237 243/243/243 242/242/242
f 244/244/244 245/245/245 246/246/246
f 245/245/245 247/247/247 246/246/246
f 248/248/248 249/249/249 250/250/250
f 249/249/249 251/251/251 250/250/250
f 213/213/213 212/212/212 252/252/252
f 212/212/212 253/253/253 252/252/252
f 246/246/246 247/247/247 254/254/254
f 247/247/247 255/255/255 254/254/254
f 256/256/256 257/257/257 258/258/258
f 257/257/257 259/259/259 258/258/258
f 260/260/260 261/261/261 262/262/262
