v 0.7499994 -4.5 0.1249998
v 0.9999994 -4.5 0.1249997
v 0.7499998 4.5 0.1250007
v 0.9999999 4.5 0.1250002
v 0.9999994 -4.5 0.1249997
v 0.9999993 -4.5 -0.1250003
v 0.9999999 4.5 0.1250002
v 0.9999993 4.5 -0.1249998
v 0.9999993 -4.5 -0.1250003
v 0.7499993 -4.5 -0.1250002
v 0.9999993 4.5 -0.1249998
v 0.7499993 4.5 -0.1249993
v -1.000001 -4.5 -0.1249995
v -1.000001 -4.5 0.1250005
v -0.999999 4.5 -0.1249996
v -0.9999985 4.5 0.1250004
v 0.7499998 4.5 0.1250007
v 0.9999999 4.5 0.1250002
v 0.7499993 4.5 -0.1249993
v 0.9999993 4.5 -0.1249998
v 0.7499993 -4.5 -0.1250002
v 0.9999993 -4.5 -0.1250003
v 0.7499994 -4.5 0.1249998
v 0.9999994 -4.5 0.1249997
v -0.7500007 -4.5 -0.1249996
v -0.7500006 -4.5 0.1250004
v -1.000001 -4.5 -0.1249995
v -1.000001 -4.5 0.1250005
v -0.7499989 4.5 -0.1250001
v -0.7500007 -4.5 -0.1249996
v -0.999999 4.5 -0.1249996
v -1.000001 -4.5 -0.1249995
v -0.7500006 -4.5 0.1250004
v -0.7499985 4.5 0.1249999
v -1.000001 -4.5 0.1250005
v -0.9999985 4.5 0.1250004
v -0.7499985 4.5 0.1249999
v -0.7499989 4.5 -0.1250001
v -0.9999985 4.5 0.1250004
v -0.999999 4.5 -0.1249996
v 0.7499994 -4.5 0.1249998
v 0.7499998 4.5 0.1250007
v 0.7499993 -4.5 -0.1250002
v 0.7499993 4.5 -0.1249993
v -0.7499985 4.5 0.1249999
v -0.7500006 -4.5 0.1250004
v -0.7499989 4.5 -0.1250001
v -0.7500007 -4.5 -0.1249996
v 0.7499993 -4.5 -1.639128E-07
v 0.7499996 4.5 6.854534E-07
v -0.7500007 -4.5 3.72529E-07
v -0.7499987 4.5 -8.195639E-08
vn 3.576279E-07 -9.602972E-08 1
vn 1.192093E-06 -7.285018E-08 1
vn 1.192093E-06 -7.285018E-08 1
vn 2.026557E-06 -4.967065E-08 1
vn 1 -5.298188E-08 -4.768372E-07
vn 1 -2.980226E-08 -1.311302E-06
vn 1 -2.980226E-08 -1.311302E-06
vn 1 -6.622637E-09 -2.145767E-06
vn -3.576279E-07 4.718702E-08 -1
vn -1.192093E-06 7.03666E-08 -1
vn -1.192093E-06 7.03666E-08 -1
vn -2.026558E-06 9.354619E-08 -1
vn -1 1.920594E-07 4.768372E-07
vn -1 2.15239E-07 1.311302E-06
vn -1 2.15239E-07 1.311302E-06
vn -1 2.384186E-07 2.145767E-06
vn 0 1 0
vn 0 1 0
vn 0 1 0
vn 0 1 0
vn 0 -1 0
vn 0 -1 0
vn 0 -1 0
vn 0 -1 0
vn 0 -1 0
vn 0 -1 0
vn 0 -1 0
vn 0 -1 0
vn -2.05636E-06 -5.29815E-08 -1
vn -1.206994E-06 -2.938816E-08 -1
vn -1.206994E-06 -2.938816E-08 -1
vn -3.576279E-07 -5.794827E-09 -1
vn 3.576279E-07 4.967045E-08 1
vn 1.192093E-06 2.649067E-08 1
vn 1.192093E-06 2.649067E-08 1
vn 2.026558E-06 3.310886E-09 1
vn 0 1 0
vn 0 1 0
vn 0 1 0
vn 0 1 0
vn -1 4.635912E-08 4.768372E-07
vn -1 2.649084E-08 1.192093E-06
vn -1 2.649084E-08 1.192093E-06
vn -1 6.622562E-09 1.907348E-06
vn 1 -2.384187E-07 -1.907348E-06
vn 1 -2.185504E-07 -1.192093E-06
vn 1 -2.185504E-07 -1.192093E-06
vn 1 -1.986822E-07 -4.768372E-07
vn 3.576279E-07 -9.437403E-08 1
vn -7.698964E-08 -2.193777E-08 1
vn -7.698964E-08 -2.193777E-08 1
vn -5.116071E-07 5.049849E-08 1
vt -0.7499993 -4.5
vt -0.9999993 -4.5
vt -0.7499998 4.5
vt -0.9999998 4.5
vt -2 -4.5
vt -2.25 -4.5
vt -1.999999 4.5
vt -2.249999 4.5
vt 0.9999993 -4.5
vt 0.7499993 -4.5
vt 0.9999994 4.5
vt 0.7499994 4.5
vt 2.25 -4.5
vt 2 -4.5
vt 2.25 4.5
vt 2 4.5
vt 0.7499998 -1.999999
vt 0.9999999 -2
vt 0.7499993 -2.249999
vt 0.9999993 -2.25
vt -0.7499993 -2.25
vt -0.9999993 -2.25
vt -0.7499994 -2
vt -0.9999994 -2
vt 0.7500007 -2.25
vt 0.7500006 -2
vt 1.000001 -2.25
vt 1.000001 -2
vt -0.7499987 4.5
vt -0.7500005 -4.5
vt -0.9999987 4.5
vt -1 -4.5
vt 0.7500007 -4.5
vt 0.7499985 4.5
vt 1.000001 -4.5
vt 0.9999985 4.5
vt -0.7499985 -2
vt -0.7499989 -2.25
vt -0.9999985 -2
vt -0.999999 -2.25
vt 2 -4.5
vt 1.999999 4.5
vt 2.25 -4.5
vt 2.249999 4.5
vt -2.000001 4.5
vt -2.000001 -4.5
vt -2.250001 4.5
vt -2.250001 -4.5
vt -0.7499993 -4.5
vt -0.7499996 4.5
vt 0.7500007 -4.5
vt 0.7499987 4.5
g submesh0
f 1/1/1 2/2/2 3/3/3
f 2/2/2 4/4/4 3/3/3
f 5/5/5 6/6/6 7/7/7
f 6/6/6 8/8/8 7/7/7
f 9/9/9 10/10/10 11/11/11
f 10/10/10 12/12/12 11/11/11
f 13/13/13 14/14/14 15/15/15
f 14/14/14 16/16/16 15/15/15
f 17/17/17 18/18/18 19/19/19
f 18/18/18 20/20/20 19/19/19
f 21/21/21 22/22/22 23/23/23
f 22/22/22 24/24/24 23/23/23
f 25/25/25 26/26/26 27/27/27
f 26/26/26 28/28/28 27/27/27
f 29/29/29 30/30/30 31/31/31
f 30/30/30 32/32/32 31/31/31
f 33/33/33 34/34/34 35/35/35
f 34/34/34 36/36/36 35/35/35
f 37/37/37 38/38/38 39/39/39
f 38/38/38 40/40/40 39/39/39
f 41/41/41 42/42/42 43/43/43
f 42/42/42 44/44/44 43/43/43
f 45/45/45 46/46/46 47/47/47
f 46/46/46 48/48/48 47/47/47
g submesh1
f 49/49/49 50/50/50 51/51/51
f 50/50/50 52/52/52 51/51/51
