v 0.7499996 -4.75 0.1249996
v 0.9999996 -4.75 0.1249995
v 0.7500017 4.75 0.1249997
v 1.000002 4.75 0.1249995
v 0.9999996 -4.75 0.1249995
v 0.9999995 -4.75 -0.1250005
v 1.000002 4.75 0.1249995
v 1.000002 4.75 -0.1250005
v 0.9999995 -4.75 -0.1250005
v 0.7499995 -4.75 -0.1250004
v 1.000002 4.75 -0.1250005
v 0.7500016 4.75 -0.1250003
v -1.000001 -4.75 -0.1249998
v -1 -4.75 0.1250002
v -0.9999984 4.75 -0.1249996
v -0.9999983 4.75 0.1250004
v 0.7500017 4.75 0.1249997
v 1.000002 4.75 0.1249995
v 0.7500016 4.75 -0.1250003
v 1.000002 4.75 -0.1250005
v 0.7499995 -4.75 -0.1250004
v 0.9999995 -4.75 -0.1250005
v 0.7499996 -4.75 0.1249996
v 0.9999996 -4.75 0.1249995
v -0.7500005 -4.75 -0.1249999
v -0.7500004 -4.75 0.1250001
v -1.000001 -4.75 -0.1249998
v -1 -4.75 0.1250002
v -0.7499984 4.75 -0.1249998
v -0.7500005 -4.75 -0.1249999
v -0.9999984 4.75 -0.1249996
v -1.000001 -4.75 -0.1249998
v -0.7500004 -4.75 0.1250001
v -0.7499983 4.75 0.1250002
v -1 -4.75 0.1250002
v -0.9999983 4.75 0.1250004
v -0.7499983 4.75 0.1250002
v -0.7499984 4.75 -0.1249998
v -0.9999983 4.75 0.1250004
v -0.9999984 4.75 -0.1249996
v 0.7499996 -4.75 0.1249996
v 0.7500017 4.75 0.1249997
v 0.7499995 -4.75 -0.1250004
v 0.7500016 4.75 -0.1250003
v -0.7499983 4.75 0.1250002
v -0.7500004 -4.75 0.1250001
v -0.7499984 4.75 -0.1249998
v -0.7500005 -4.75 -0.1249999
v 0.7499995 -4.75 -3.874302E-07
v 0.7500017 4.75 -3.427267E-07
v -0.7500005 -4.75 1.490116E-07
v -0.7499983 4.75 2.235174E-07
vn 3.576279E-07 -4.70571E-09 1
vn 4.470349E-07 -2.352914E-09 1
vn 4.470349E-07 -2.352914E-09 1
vn 5.364419E-07 -1.178005E-13 1
vn 1 -2.195961E-07 -4.768372E-07
vn 1 -2.195961E-07 -4.768372E-07
vn 1 -2.195961E-07 -4.768372E-07
vn 1 -2.195961E-07 -4.768372E-07
vn -3.576279E-07 7.853367E-14 -1
vn -4.470349E-07 2.352915E-09 -1
vn -4.470349E-07 2.352915E-09 -1
vn -5.364419E-07 4.705751E-09 -1
vn -1 2.321444E-07 4.768372E-07
vn -1 2.321444E-07 4.768372E-07
vn -1 2.321444E-07 4.768372E-07
vn -1 2.321444E-07 4.768372E-07
vn 0 1 0
vn 0 1 0
vn 0 1 0
vn 0 1 0
vn 0 -1 0
vn 0 -1 0
vn 0 -1 0
vn 0 -1 0
vn 0 -1 0
vn 0 -1 0
vn 0 -1 0
vn 0 -1 0
vn -5.364418E-07 7.842837E-09 -1
vn -4.470348E-07 1.019563E-08 -1
vn -4.470348E-07 1.019563E-08 -1
vn -3.576278E-07 1.254843E-08 -1
vn 3.576278E-07 -9.411341E-09 1
vn 4.172325E-07 -1.09799E-08 1
vn 4.172325E-07 -1.09799E-08 1
vn 4.768372E-07 -1.254846E-08 1
vn 0 1 0
vn 0 1 0
vn 0 1 0
vn 0 1 0
vn -1 2.258702E-07 4.768372E-07
vn -1 2.258702E-07 4.768372E-07
vn -1 2.258702E-07 4.768372E-07
vn -1 2.258702E-07 4.768372E-07
vn 1 -2.258702E-07 -4.768372E-07
vn 1 -2.258702E-07 -4.768372E-07
vn 1 -2.258702E-07 -4.768372E-07
vn 1 -2.258702E-07 -4.768372E-07
vn 3.576279E-07 -4.70571E-09 1
vn 3.67562E-07 -6.274256E-09 1
vn 3.67562E-07 -6.274256E-09 1
vn 3.774961E-07 -7.842802E-09 1
vt -0.7499995 -4.75
vt -0.9999995 -4.75
vt -0.7500017 4.75
vt -1.000002 4.75
vt -2 -4.75
vt -2.25 -4.75
vt -2 4.75
vt -2.25 4.75
vt 0.9999995 -4.75
vt 0.7499995 -4.75
vt 1.000002 4.75
vt 0.7500017 4.75
vt 2.25 -4.75
vt 2 -4.75
vt 2.25 4.75
vt 2 4.75
vt 0.7500017 -2
vt 1.000002 -2
vt 0.7500016 -2.25
vt 1.000002 -2.25
vt -0.7499995 -2.25
vt -0.9999995 -2.25
vt -0.7499996 -2
vt -0.9999996 -2
vt 0.7500005 -2.25
vt 0.7500004 -2
vt 1.000001 -2.25
vt 1 -2
vt -0.7499983 4.75
vt -0.7500005 -4.75
vt -0.9999983 4.75
vt -1 -4.75
vt 0.7500005 -4.75
vt 0.7499983 4.75
vt 1 -4.75
vt 0.9999983 4.75
vt -0.7499983 -2
vt -0.7499984 -2.25
vt -0.9999983 -2
vt -0.9999984 -2.25
vt 2 -4.75
vt 2 4.75
vt 2.25 -4.75
vt 2.25 4.75
vt -2 4.75
vt -2 -4.75
vt -2.25 4.75
vt -2.25 -4.75
vt -0.7499995 -4.75
vt -0.7500017 4.75
vt 0.7500005 -4.75
vt 0.7499983 4.75
g submesh0
f 1/1/1 2/2/2 3/3/3
f 2/2/2 4/4/4 3/3/3
f 5/5/5 6/6/6 7/7/7
f 6/6/6 8/8/8 7/7/7
f 9/9/9 10/10/10 11/11/11
f 10/10/10 12/12/12 11/11/11
f 13/13/13 14/14/14 15/15/15
f 14/14/14 16/16/16 15/15/15
f 17/17/17 18/18/18 19/19/19
f 18/18/18 20/20/20 19/19/19
f 21/21/21 22/22/22 23/23/23
f 22/22/22 24/24/24 23/23/23
f 25/25/25 26/26/26 27/27/27
f 26/26/26 28/28/28 27/27/27
f 29/29/29 30/30/30 31/31/31
f 30/30/30 32/32/32 31/31/31
f 33/33/33 34/34/34 35/35/35
f 34/34/34 36/36/36 35/35/35
f 37/37/37 38/38/38 39/39/39
f 38/38/38 40/40/40 39/39/39
f 41/41/41 42/42/42 43/43/43
f 42/42/42 44/44/44 43/43/43
f 45/45/45 46/46/46 47/47/47
f 46/46/46 48/48/48 47/47/47
g submesh1
f 49/49/49 50/50/50 51/51/51
f 50/50/50 52/52/52 51/51/51
