v -2 -2 -2
v -2 -2 2
v -2 -1.5 -1.5
v -2 -1.5 1.5
v -2.000001 1 -2
v -2 -2 -2
v -2 0.5 -1.500001
v -2 -1.5 -1.5
v -2 -2 2
v -2 1 2.000001
v -2 -1.5 1.5
v -1.999999 0.5 1.5
v -2.000001 1 -2
v -1.999999 0.5 1.5
v -2 -1.5 -1.5
v -2 -1.5 1.5
v -1.75 -1.5 -1.5
v -1.75 -1.5 1.5
v -2 0.5 -1.500001
v -2 -1.5 -1.5
v -1.75 0.5 -1.500001
v -1.75 -1.5 -1.5
v -2 -1.5 1.5
v -1.999999 0.5 1.5
v -1.75 -1.5 1.5
v -1.749999 0.5 1.5
v -1.999999 0.5 1.5
v -2 0.5 -1.500001
v -1.749999 0.5 1.5
v -1.75 0.5 -1.500001
v -2 1 2.000001
v 2.000003 1 1.999999
v -1.5 1 1.5
v 1.500001 1 1.5
v -2.000001 1 -2
v -1.5 1 -1.5
v 2.000006 1 -2.000006
v 1.500005 1 -1.500005
v -1.5 1 1.5
v 1.500001 1 1.5
v -1.5 0.75 1.5
v 1.500001 0.75 1.5
v -1.5 1 -1.5
v -1.5 1 1.5
v -1.5 0.75 -1.5
v -1.5 0.75 1.5
v 1.500001 1 1.5
v 1.500005 1 -1.500005
v 1.500001 0.75 1.5
v 1.500005 0.75 -1.500005
v 1.500005 1 -1.500005
v -1.5 1 -1.5
v 1.500005 0.75 -1.500005
v -1.5 0.75 -1.5
v -2 -2 2
v 2 -2 2
v -1.5 -1.5 2
v 1.5 -1.5 2
v -2 1 2.000001
v -2 -2 2
v -1.499998 0.5 1.999999
v -1.5 -1.5 2
v 2 -2 2
v 2.000003 1 1.999999
v 1.5 -1.5 2
v 1.5 0.5 2.000001
v -2 1 2.000001
v -1.499998 0.5 1.999999
v -1.5 -1.5 2
v 1.5 -1.5 2
v -1.5 -1.5 1.75
v 1.5 -1.5 1.75
v -1.499998 0.5 1.999999
v -1.5 -1.5 2
v -1.5 0.5 1.750001
v -1.5 -1.5 1.75
v 1.5 -1.5 2
v 1.5 0.5 2.000001
v 1.5 -1.5 1.75
v 1.500001 0.5 1.750001
v 1.5 0.5 2.000001
v -1.499998 0.5 1.999999
v 1.500001 0.5 1.750001
v -1.5 0.5 1.750001
v 2 -2 2
v 2 -2 -2
v 2 -1.5 1.5
v 2 -1.5 -1.5
v 2.000003 1 1.999999
v 2 -2 2
v 2.000001 0.5 1.5
v 2 -1.5 1.5
v 2 -2 -2
v 2.000006 1 -2.000006
v 2 -1.5 -1.5
v 2.000005 0.5 -1.500004
v 2.000003 1 1.999999
v 2.000001 0.5 1.5
v 2 -1.5 1.5
v 2 -1.5 -1.5
v 1.75 -1.5 1.5
v 1.75 -1.5 -1.5
v 2.000001 0.5 1.5
v 2 -1.5 1.5
v 1.750001 0.5 1.5
v 1.75 -1.5 1.5
v 2 -1.5 -1.5
v 2.000005 0.5 -1.500004
v 1.75 -1.5 -1.5
v 1.750005 0.5 -1.500005
v 2.000005 0.5 -1.500004
v 2.000001 0.5 1.5
v 1.750005 0.5 -1.500005
v 1.750001 0.5 1.5
v 2 -2 -2
v -2 -2 -2
v 1.5 -1.5 -2
v -1.5 -1.5 -2
v 2.000006 1 -2.000006
v 2 -2 -2
v 1.500005 0.5 -2.000005
v 1.5 -1.5 -2
v -2 -2 -2
v -2.000001 1 -2
v -1.5 -1.5 -2
v -1.499998 0.5 -2.000002
v -2.000001 1 -2
v 2.000006 1 -2.000006
v 1.500005 0.5 -2.000005
v 1.5 -1.5 -2
v -1.5 -1.5 -2
v 1.5 -1.5 -1.75
v -1.5 -1.5 -1.75
v 1.500005 0.5 -2.000005
v 1.5 -1.5 -2
v 1.500004 0.5 -1.750004
v 1.5 -1.5 -1.75
v -1.5 -1.5 -2
v -1.499998 0.5 -2.000002
v -1.5 -1.5 -1.75
v -1.499999 0.5 -1.750001
v -1.499998 0.5 -2.000002
v 1.500005 0.5 -2.000005
v -1.499999 0.5 -1.750001
v 1.500004 0.5 -1.750004
v -2 -2 -2
v 2 -2 -2
v -1.5 -2 -1.5
v 1.5 -2 -1.5
v -2 -2 2
v -1.5 -2 1.5
v 2 -2 2
v 1.5 -2 1.5
v -1.5 -2 -1.5
v 1.5 -2 -1.5
v -1.5 -1.75 -1.5
v 1.5 -1.75 -1.5
v -1.5 -2 1.5
v -1.5 -2 -1.5
v -1.5 -1.75 1.5
v -1.5 -1.75 -1.5
v 1.5 -2 -1.5
v 1.5 -2 1.5
v 1.5 -1.75 -1.5
v 1.5 -1.75 1.5
v 1.5 -2 1.5
v -1.5 -2 1.5
v 1.5 -1.75 1.5
v -1.5 -1.75 1.5
v -1.5 -1.5 1.75
v 1.5 -1.5 1.75
v -1.5 0.5 1.750001
v 1.500001 0.5 1.750001
v 1.75 -1.5 1.5
v 1.75 -1.5 -1.5
v 1.750001 0.5 1.5
v 1.750005 0.5 -1.500005
v 1.5 -1.5 -1.75
v -1.5 -1.5 -1.75
v 1.500004 0.5 -1.750004
v -1.499999 0.5 -1.750001
v -1.75 -1.5 -1.5
v -1.75 -1.5 1.5
v -1.75 0.5 -1.500001
v -1.749999 0.5 1.5
v -1.5 0.75 1.5
v 1.500001 0.75 1.5
v -1.5 0.75 -1.5
v 1.500005 0.75 -1.500005
v -1.5 -1.75 -1.5
v 1.5 -1.75 -1.5
v -1.5 -1.75 1.5
v 1.5 -1.75 1.5
vn -1 0 0
vn -1 0 0
vn -1 0 0
vn -1 0 0
vn -1 -2.384189E-07 2.145773E-06
vn -1 -2.273737E-13 9.536773E-07
vn -1 -2.273737E-13 9.536773E-07
vn -1 2.384185E-07 -2.384185E-07
vn -1 -1.589457E-07 -1.589457E-07
vn -1 1.291431E-07 -1.599386E-06
vn -1 1.291431E-07 -1.599386E-06
vn -1 4.172319E-07 -3.039827E-06
vn -1 -2.473593E-06 8.940695E-08
vn -1 -2.473593E-06 8.940695E-08
vn 0 1 0
vn 0 1 0
vn 0 1 0
vn 0 1 0
vn -9.536748E-07 4.768374E-07 1
vn -4.768374E-07 4.172326E-07 1
vn -4.768374E-07 4.172326E-07 1
vn 0 3.576279E-07 1
vn 0 -1.788139E-07 -1
vn 2.384188E-07 -1.490117E-07 -1
vn 2.384188E-07 -1.490117E-07 -1
vn 4.768376E-07 -1.192094E-07 -1
vn 0 -1 0
vn 0 -1 0
vn 0 -1 0
vn 0 -1 0
vn 0 1 0
vn 0 1 0
vn 0 1 0
vn 0 1 0
vn 0 1 0
vn 0 1 0
vn 0 1 0
vn 0 1 0
vn 1.589456E-07 0 -1
vn 1.589456E-07 0 -1
vn 1.589456E-07 0 -1
vn 1.589456E-07 0 -1
vn 1 0 0
vn 1 0 0
vn 1 0 0
vn 1 0 0
vn -1 0 -1.192091E-06
vn -1 0 -1.192091E-06
vn -1 0 -1.192091E-06
vn -1 0 -1.192091E-06
vn 1.390773E-06 0 1
vn 1.390773E-06 0 1
vn 1.390773E-06 0 1
vn 1.390773E-06 0 1
vn 0 0 1
vn 0 0 1
vn 0 0 1
vn 0 0 1
vn 4.370987E-06 -3.973636E-07 1
vn 1.88747E-06 9.93417E-08 1
vn 1.88747E-06 9.93417E-08 1
vn -5.96047E-07 5.96047E-07 1
vn 2.384184E-07 2.384184E-07 1
vn 2.622592E-06 -2.384188E-07 1
vn 2.622592E-06 -2.384188E-07 1
vn 5.006765E-06 -7.15256E-07 1
vn -1.986826E-07 -9.139412E-07 1
vn -8.74202E-07 -5.642578E-06 1
vn 0 1 0
vn 0 1 0
vn 0 1 0
vn 0 1 0
vn 1 -9.536789E-07 -7.629456E-06
vn 1 -4.768394E-07 -3.814728E-06
vn 1 -4.768394E-07 -3.814728E-06
vn 1 0 0
vn -1 5.960464E-08 0
vn -1 2.086168E-07 -1.19209E-06
vn -1 2.086168E-07 -1.19209E-06
vn -1 3.576289E-07 -2.38418E-06
vn 0 -1 0
vn 0 -1 0
vn 0 -1 0
vn 0 -1 0
vn 1 0 0
vn 1 0 0
vn 1 0 0
vn 1 0 0
vn 1 -8.74202E-07 -2.463664E-06
vn 1 -6.755196E-07 -1.47025E-06
vn 1 -6.755196E-07 -1.47025E-06
vn 1 -4.76837E-07 -4.76837E-07
vn 1 -1.907345E-06 1.907345E-06
vn 1 -2.086161E-06 1.013277E-06
vn 1 -2.086161E-06 1.013277E-06
vn 1 -2.264976E-06 1.192092E-07
vn 1 -3.069636E-06 9.834753E-07
vn 1 -4.529948E-06 1.192091E-06
vn 0 1 0
vn 0 1 0
vn 0 1 0
vn 0 1 0
vn 9.536752E-07 2.384181E-07 -1
vn 4.768376E-07 1.788137E-07 -1
vn 4.768376E-07 1.788137E-07 -1
vn 0 1.192093E-07 -1
vn 0 2.145767E-06 1
vn -4.768376E-07 2.205373E-06 1
vn -4.768376E-07 2.205373E-06 1
vn -9.536752E-07 2.264979E-06 1
vn 0 -1 0
vn 0 -1 0
vn 0 -1 0
vn 0 -1 0
vn 0 0 -1
vn 0 0 -1
vn 0 0 -1
vn 0 0 -1
vn 4.76837E-07 -1.90735E-06 -1
vn -1.013276E-06 -2.205369E-06 -1
vn -1.013276E-06 -2.205369E-06 -1
vn -2.503389E-06 -2.503389E-06 -1
vn -1.589457E-07 1.589457E-07 -1
vn -2.940481E-06 -3.973622E-07 -1
vn -2.940481E-06 -3.973622E-07 -1
vn -5.722016E-06 -9.5367E-07 -1
vn -1.549718E-06 3.218646E-06 -1
vn -1.291432E-06 1.410642E-06 -1
vn -1.033146E-06 -3.973632E-07 -1
vn 0 1 0
vn 0 1 0
vn 0 1 0
vn 0 1 0
vn -1 2.324576E-06 -1.907342E-06
vn -1 2.20537E-06 -9.536711E-07
vn -1 2.20537E-06 -9.536711E-07
vn -1 2.086163E-06 0
vn 1 -7.748604E-07 0
vn 1 -6.556506E-07 9.536711E-07
vn 1 -6.556506E-07 9.536711E-07
vn 1 -5.364408E-07 1.907342E-06
vn 0 -1 0
vn 0 -1 0
vn 0 -1 0
vn 0 -1 0
vn 0 -1 0
vn 0 -1 0
vn 0 -1 0
vn 0 -1 0
vn 0 -1 0
vn 0 -1 0
vn 0 -1 0
vn 0 -1 0
vn 0 0 1
vn 0 0 1
vn 0 0 1
vn 0 0 1
vn 1 0 0
vn 1 0 0
vn 1 0 0
vn 1 0 0
vn -1 0 0
vn -1 0 0
vn -1 0 0
vn -1 0 0
vn 0 0 -1
vn 0 0 -1
vn 0 0 -1
vn 0 0 -1
vn 0 -4.172325E-07 1
vn 0 -4.172325E-07 1
vn 0 -4.172325E-07 1
vn 0 -4.172325E-07 1
vn 1 -5.960464E-07 0
vn 1 -1.490115E-06 5.960455E-07
vn 1 -1.490115E-06 5.960455E-07
vn 1 -2.384183E-06 1.192091E-06
vn 0 -2.086163E-06 -1
vn -5.16573E-07 -1.311302E-06 -1
vn -5.16573E-07 -1.311302E-06 -1
vn -1.033146E-06 -5.364412E-07 -1
vn -1 1.788139E-07 0
vn -1 2.384186E-07 3.973642E-08
vn -1 2.384186E-07 3.973642E-08
vn -1 2.980232E-07 7.947285E-08
vn 0 1 0
vn 0 1 0
vn 0 1 0
vn 0 1 0
vn 0 -1 0
vn 0 -1 0
vn 0 -1 0
vn 0 -1 0
vt 2 -2
vt -2 -2
vt 1.5 -1.5
vt -1.5 -1.5
vt 2.000004 1
vt 2.000004 -2
vt 1.500005 0.5000005
vt 1.500004 -1.5
vt -2 -2
vt -2.000001 1
vt -1.5 -1.5
vt -1.5 0.5000003
vt 2 1.000005
vt -1.5 0.5000054
vt -2 -1.5
vt -2 1.5
vt -1.75 -1.5
vt -1.75 1.5
vt 2.000001 0.5000007
vt 2.000001 -1.499999
vt 1.750001 0.5000007
vt 1.750001 -1.499999
vt -2 -1.5
vt -1.999999 0.4999997
vt -1.75 -1.5
vt -1.749999 0.4999997
vt 1.999999 1.5
vt 2 -1.500001
vt 1.749999 1.5
vt 1.75 -1.500001
vt -2 2.000001
vt 2.000003 1.999999
vt -1.5 1.5
vt 1.500001 1.5
vt -2.000001 -2
vt -1.5 -1.5
vt 2.000006 -2.000006
vt 1.500005 -1.500005
vt -1.5 1
vt 1.500002 1
vt -1.5 0.75
vt 1.500002 0.75
vt -1.5 1
vt 1.5 1
vt -1.5 0.75
vt 1.5 0.75
vt -1.499998 1
vt 1.500006 1
vt -1.499998 0.75
vt 1.500006 0.75
vt -1.500007 1
vt 1.499998 1
vt -1.500007 0.75
vt 1.499998 0.75
vt 2 -2
vt -2 -2
vt 1.5 -1.5
vt -1.5 -1.5
vt 2.000009 1.000001
vt 2.000009 -1.999999
vt 1.500007 0.5000008
vt 1.500009 -1.499999
vt -2 -2
vt -2.000002 0.9999995
vt -1.5 -1.5
vt -1.5 0.4999995
vt 2.000001 0.9999924
vt 1.499999 0.4999924
vt -1.5 2
vt 1.5 2
vt -1.5 1.75
vt 1.5 1.75
vt 1.999987 0.4999986
vt 1.999989 -1.500001
vt 1.749989 0.4999986
vt 1.749989 -1.500001
vt -2 -1.5
vt -2.000001 0.5000001
vt -1.75 -1.5
vt -1.750001 0.5000001
vt -1.5 2.000001
vt 1.499998 1.999999
vt -1.500001 1.750001
vt 1.5 1.750001
vt 2 -2
vt -2 -2
vt 1.5 -1.5
vt -1.5 -1.5
vt 2.000004 1.000002
vt 2.000005 -1.999998
vt 1.500005 0.5000017
vt 1.500005 -1.499998
vt -2.000004 -1.999996
vt -2.00001 1.000004
vt -1.500004 -1.499996
vt -1.500008 0.5000038
vt 1.999998 1.000003
vt 1.499999 0.5000032
vt 2 1.5
vt 2 -1.5
vt 1.75 1.5
vt 1.75 -1.5
vt 2.000002 0.5000004
vt 2.000001 -1.5
vt 1.750003 0.5000004
vt 1.750001 -1.5
vt -2 -1.499997
vt -2.000005 0.5000032
vt -1.75 -1.499997
vt -1.750005 0.5000032
vt -2.000005 -1.500004
vt -2.000001 1.5
vt -1.750005 -1.500005
vt -1.750001 1.5
vt 2 -2
vt -2 -2
vt 1.5 -1.5
vt -1.5 -1.5
vt 2.000005 1.000004
vt 1.999999 -1.999996
vt 1.500004 0.5000038
vt 1.499999 -1.499996
vt -2 -2
vt -2 0.9999997
vt -1.5 -1.5
vt -1.499998 0.4999997
vt -1.999998 0.9999936
vt 2.000009 0.9999936
vt 1.500008 0.4999936
vt 1.5 -2
vt -1.5 -2
vt 1.5 -1.75
vt -1.5 -1.75
vt 2.000008 0.5000035
vt 2.000003 -1.499997
vt 1.750007 0.5000035
vt 1.750003 -1.499997
vt -2 -1.500001
vt -2.000002 0.4999988
vt -1.75 -1.500001
vt -1.750001 0.4999988
vt 1.499998 -2.000002
vt -1.500005 -2.000005
vt 1.499999 -1.750001
vt -1.500004 -1.750004
vt 2 -2
vt -2 -2
vt 1.5 -1.5
vt -1.5 -1.5
vt 2 2
vt 1.5 1.5
vt -2 2
vt -1.5 1.5
vt 1.5 -2
vt -1.5 -2
vt 1.5 -1.75
vt -1.5 -1.75
vt 1.5 -2
vt -1.5 -2
vt 1.5 -1.75
vt -1.5 -1.75
vt 1.5 -2
vt -1.5 -2
vt 1.5 -1.75
vt -1.5 -1.75
vt 1.5 -2
vt -1.5 -2
vt 1.5 -1.75
vt -1.5 -1.75
vt 1.5 -1.499999
vt -1.5 -1.499999
vt 1.5 0.5000007
vt -1.500001 0.5000007
vt 1.5 -1.499999
vt -1.5 -1.499999
vt 1.5 0.5000011
vt -1.500005 0.5000011
vt 1.5 -1.499996
vt -1.5 -1.499996
vt 1.500004 0.5000036
vt -1.499999 0.5000036
vt 1.5 -1.5
vt -1.5 -1.5
vt 1.500001 0.4999997
vt -1.5 0.4999997
vt -1.5 1.5
vt 1.500001 1.5
vt -1.5 -1.5
vt 1.500005 -1.500005
vt 1.5 -1.5
vt -1.5 -1.5
vt 1.5 1.5
vt -1.5 1.5
g submesh0
f 1/1/1 2/2/2 3/3/3
f 2/2/2 4/4/4 3/3/3
f 5/5/5 6/6/6 7/7/7
f 6/6/6 8/8/8 7/7/7
f 9/9/9 10/10/10 11/11/11
f 10/10/10 12/12/12 11/11/11
f 10/10/10 13/13/13 14/14/14
f 13/13/13 7/7/7 14/14/14
f 15/15/15 16/16/16 17/17/17
f 16/16/16 18/18/18 17/17/17
f 19/19/19 20/20/20 21/21/21
f 20/20/20 22/22/22 21/21/21
f 23/23/23 24/24/24 25/25/25
f 24/24/24 26/26/26 25/25/25
f 27/27/27 28/28/28 29/29/29
f 28/28/28 30/30/30 29/29/29
f 31/31/31 32/32/32 33/33/33
f 32/32/32 34/34/34 33/33/33
f 35/35/35 31/31/31 36/36/36
f 31/31/31 33/33/33 36/36/36
f 32/32/32 37/37/37 34/34/34
f 37/37/37 38/38/38 34/34/34
f 37/37/37 35/35/35 38/38/38
f 35/35/35 36/36/36 38/38/38
f 39/39/39 40/40/40 41/41/41
f 40/40/40 42/42/42 41/41/41
f 43/43/43 44/44/44 45/45/45
f 44/44/44 46/46/46 45/45/45
f 47/47/47 48/48/48 49/49/49
f 48/48/48 50/50/50 49/49/49
f 51/51/51 52/52/52 53/53/53
f 52/52/52 54/54/54 53/53/53
f 55/55/55 56/56/56 57/57/57
f 56/56/56 58/58/58 57/57/57
f 59/59/59 60/60/60 61/61/61
f 60/60/60 62/62/62 61/61/61
f 63/63/63 64/64/64 65/65/65
f 64/64/64 66/66/66 65/65/65
f 64/64/64 67/67/67 66/66/66
f 67/67/67 68/68/68 66/66/66
f 69/69/69 70/70/70 71/71/71
f 70/70/70 72/72/72 71/71/71
f 73/73/73 74/74/74 75/75/75
f 74/74/74 76/76/76 75/75/75
f 77/77/77 78/78/78 79/79/79
f 78/78/78 80/80/80 79/79/79
f 81/81/81 82/82/82 83/83/83
f 82/82/82 84/84/84 83/83/83
f 85/85/85 86/86/86 87/87/87
f 86/86/86 88/88/88 87/87/87
f 89/89/89 90/90/90 91/91/91
f 90/90/90 92/92/92 91/91/91
f 93/93/93 94/94/94 95/95/95
f 94/94/94 96/96/96 95/95/95
f 94/94/94 97/97/97 96/96/96
f 97/97/97 98/98/98 96/96/96
f 99/99/99 100/100/100 101/101/101
f 100/100/100 102/102/102 101/101/101
f 103/103/103 104/104/104 105/105/105
f 104/104/104 106/106/106 105/105/105
f 107/107/107 108/108/108 109/109/109
f 108/108/108 110/110/110 109/109/109
f 111/111/111 112/112/112 113/113/113
f 112/112/112 114/114/114 113/113/113
f 115/115/115 116/116/116 117/117/117
f 116/116/116 118/118/118 117/117/117
f 119/119/119 120/120/120 121/121/121
f 120/120/120 122/122/122 121/121/121
f 123/123/123 124/124/124 125/125/125
f 124/124/124 126/126/126 125/125/125
f 127/127/127 128/128/128 126/126/126
f 128/128/128 129/129/129 126/126/126
f 130/130/130 131/131/131 132/132/132
f 131/131/131 133/133/133 132/132/132
f 134/134/134 135/135/135 136/136/136
f 135/135/135 137/137/137 136/136/136
f 138/138/138 139/139/139 140/140/140
f 139/139/139 141/141/141 140/140/140
f 142/142/142 143/143/143 144/144/144
f 143/143/143 145/145/145 144/144/144
f 146/146/146 147/147/147 148/148/148
f 147/147/147 149/149/149 148/148/148
f 150/150/150 146/146/146 151/151/151
f 146/146/146 148/148/148 151/151/151
f 147/147/147 152/152/152 149/149/149
f 152/152/152 153/153/153 149/149/149
f 152/152/152 150/150/150 153/153/153
f 150/150/150 151/151/151 153/153/153
f 154/154/154 155/155/155 156/156/156
f 155/155/155 157/157/157 156/156/156
f 158/158/158 159/159/159 160/160/160
f 159/159/159 161/161/161 160/160/160
f 162/162/162 163/163/163 164/164/164
f 163/163/163 165/165/165 164/164/164
f 166/166/166 167/167/167 168/168/168
f 167/167/167 169/169/169 168/168/168
g submesh1
f 170/170/170 171/171/171 172/172/172
f 171/171/171 173/173/173 172/172/172
f 174/174/174 175/175/175 176/176/176
f 175/175/175 177/177/177 176/176/176
f 178/178/178 179/179/179 180/180/180
f 179/179/179 181/181/181 180/180/180
f 182/182/182 183/183/183 184/184/184
f 183/183/183 185/185/185 184/184/184
f 186/186/186 187/187/187 188/188/188
f 187/187/187 189/189/189 188/188/188
f 190/190/190 191/191/191 192/192/192
f 191/191/191 193/193/193 192/192/192
