v -1 0.75 0
v 1 0.75 0
v -1 1 0
v 1 1 0
v 1 0.75 0
v 1 4.75 -8
v 1 1 0
v 1 5 -8
v 1 4.75 -8
v -1 4.75 -8
v 1 5 -8
v -1 5 -8
v -1 4.75 -8
v -1 0.75 0
v -1 5 -8
v -1 1 0
v -1 1 0
v 1 1 0
v -1 5 -8
v 1 5 -8
v -1 4.75 -8
v 1 4.75 -8
v -1 0.75 0
v 1 0.75 0
vn 0 0 1
vn 0 0 1
vn 0 0 1
vn 0 0 1
vn 1 0 0
vn 1 0 0
vn 1 0 0
vn 1 0 0
vn 0 0 -1
vn 0 0 -1
vn 0 0 -1
vn 0 0 -1
vn -1 0 0
vn -1 0 0
vn -1 0 0
vn -1 0 0
vn 0 0.8944272 0.4472136
vn 0 0.8944272 0.4472136
vn 0 0.8944272 0.4472136
vn 0 0.8944272 0.4472136
vn 0 -0.8944272 -0.4472136
vn 0 -0.8944272 -0.4472136
vn 0 -0.8944272 -0.4472136
vn 0 -0.8944272 -0.4472136
vt 1 0.75
vt -1 0.75
vt 1 1
vt -1 1
vt 0 0.75
vt -8 4.75
vt 0 1
vt -8 5
vt 1 4.75
vt -1 4.75
vt 1 5
vt -1 5
vt 8 4.75
vt 0 0.75
vt 8 5
vt 0 1
vt -1 -0.4472136
vt 1 -0.4472136
vt -1 -9.391485
vt 1 -9.391485
vt 1 -9.279682
vt -1 -9.279682
vt 1 -0.3354102
vt -1 -0.3354102
g submesh0
f 1/1/1 2/2/2 3/3/3
f 2/2/2 4/4/4 3/3/3
f 5/5/5 6/6/6 7/7/7
f 6/6/6 8/8/8 7/7/7
f 9/9/9 10/10/10 11/11/11
f 10/10/10 12/12/12 11/11/11
f 13/13/13 14/14/14 15/15/15
f 14/14/14 16/16/16 15/15/15
f 17/17/17 18/18/18 19/19/19
f 18/18/18 20/20/20 19/19/19
f 21/21/21 22/22/22 23/23/23
f 22/22/22 24/24/24 23/23/23
