v 0.749992 -15.25 0.1249998
v 0.999992 -15.25 0.1249997
v 0.7500075 15.25 0.1249998
v 1.000008 15.25 0.1249996
v 0.999992 -15.25 0.1249997
v 0.9999918 -15.25 -0.1250003
v 1.000008 15.25 0.1249996
v 1.000007 15.25 -0.1250004
v 0.9999918 -15.25 -0.1250003
v 0.7499918 -15.25 -0.1250002
v 1.000007 15.25 -0.1250004
v 0.7500073 15.25 -0.1250003
v -1.000008 -15.25 -0.1249995
v -1.000008 -15.25 0.1250005
v -0.9999967 15.25 -0.1249992
v -0.9999965 15.25 0.1250008
v 0.7500075 15.25 0.1249998
v 1.000008 15.25 0.1249996
v 0.7500073 15.25 -0.1250003
v 1.000007 15.25 -0.1250004
v 0.7499918 -15.25 -0.1250002
v 0.9999918 -15.25 -0.1250003
v 0.749992 -15.25 0.1249998
v 0.999992 -15.25 0.1249997
v -0.7500082 -15.25 -0.1249996
v -0.750008 -15.25 0.1250004
v -1.000008 -15.25 -0.1249995
v -1.000008 -15.25 0.1250005
v -0.7499928 15.25 -0.1249994
v -0.7500082 -15.25 -0.1249996
v -0.9999967 15.25 -0.1249992
v -1.000008 -15.25 -0.1249995
v -0.750008 -15.25 0.1250004
v -0.7499927 15.25 0.1250006
v -1.000008 -15.25 0.1250005
v -0.9999965 15.25 0.1250008
v -0.7499927 15.25 0.1250006
v -0.7499928 15.25 -0.1249994
v -0.9999965 15.25 0.1250008
v -0.9999967 15.25 -0.1249992
v 0.749992 -15.25 0.1249998
v 0.7500075 15.25 0.1249998
v 0.7499918 -15.25 -0.1250002
v 0.7500073 15.25 -0.1250003
v -0.7499927 15.25 0.1250006
v -0.750008 -15.25 0.1250004
v -0.7499928 15.25 -0.1249994
v -0.7500082 -15.25 -0.1249996
v 0.7499919 -15.25 -1.639128E-07
v 0.7500074 15.25 -2.533197E-07
v -0.7500081 -15.25 3.72529E-07
v -0.7499928 15.25 6.407499E-07
vn 3.576279E-07 2.442631E-09 1
vn 4.768372E-07 3.419696E-09 1
vn 4.768372E-07 3.419696E-09 1
vn 5.960464E-07 4.39676E-09 1
vn 1 -5.100594E-07 -4.768372E-07
vn 1 -5.081051E-07 -7.152557E-07
vn 1 -5.081051E-07 -7.152557E-07
vn 1 -5.061509E-07 -9.536742E-07
vn -3.576279E-07 -5.374008E-09 -1
vn -4.768373E-07 -4.396822E-09 -1
vn -4.768373E-07 -4.396822E-09 -1
vn -5.960466E-07 -3.419636E-09 -1
vn -1 3.791246E-07 4.768372E-07
vn -1 3.791246E-07 4.768372E-07
vn -1 3.791246E-07 4.768372E-07
vn -1 3.791246E-07 4.768371E-07
vn 0 1 0
vn 0 1 0
vn 0 1 0
vn 0 1 0
vn 0 -1 0
vn 0 -1 0
vn 0 -1 0
vn 0 -1 0
vn 0 -1 0
vn 0 -1 0
vn 0 -1 0
vn 0 -1 0
vn -5.960374E-07 8.305864E-09 -1
vn -4.768326E-07 9.282908E-09 -1
vn -4.768326E-07 9.282908E-09 -1
vn -3.576278E-07 1.025995E-08 -1
vn 3.576278E-07 -8.794308E-09 1
vn 4.768325E-07 -9.771457E-09 1
vn 4.768325E-07 -9.771457E-09 1
vn 5.960372E-07 -1.07486E-08 1
vn 0 1 0
vn 0 1 0
vn 0 1 0
vn 0 1 0
vn -1 5.100594E-07 4.768372E-07
vn -1 5.090823E-07 5.960464E-07
vn -1 5.090823E-07 5.960464E-07
vn -1 5.081052E-07 7.152556E-07
vn 1 -5.041967E-07 -7.152557E-07
vn 1 -5.032196E-07 -5.960464E-07
vn 1 -5.032196E-07 -5.960464E-07
vn 1 -5.022424E-07 -4.768372E-07
vn 3.576279E-07 2.931194E-09 1
vn 4.768371E-07 -2.931616E-09 1
vn 4.768371E-07 -2.931616E-09 1
vn 5.960463E-07 -8.794426E-09 1
vt -0.7499919 -15.25
vt -0.9999919 -15.25
vt -0.7500075 15.25
vt -1.000008 15.25
vt -2 -15.25
vt -2.25 -15.25
vt -2 15.25
vt -2.25 15.25
vt 0.9999919 -15.25
vt 0.7499919 -15.25
vt 1.000007 15.25
vt 0.7500074 15.25
vt 2.25 -15.25
vt 2 -15.25
vt 2.25 15.25
vt 2 15.25
vt 0.7500075 -2
vt 1.000008 -2
vt 0.7500073 -2.25
vt 1.000007 -2.25
vt -0.7499918 -2.25
vt -0.9999918 -2.25
vt -0.749992 -2
vt -0.999992 -2
vt 0.7500082 -2.25
vt 0.750008 -2
vt 1.000008 -2.25
vt 1.000008 -2
vt -0.7499928 15.25
vt -0.7500081 -15.25
vt -0.9999966 15.25
vt -1.000008 -15.25
vt 0.7500081 -15.25
vt 0.7499927 15.25
vt 1.000008 -15.25
vt 0.9999966 15.25
vt -0.7499927 -1.999999
vt -0.7499928 -2.249999
vt -0.9999965 -1.999999
vt -0.9999967 -2.249999
vt 2 -15.25
vt 2 15.25
vt 2.25 -15.25
vt 2.25 15.25
vt -2 15.25
vt -2 -15.25
vt -2.25 15.25
vt -2.25 -15.25
vt -0.7499919 -15.25
vt -0.7500074 15.25
vt 0.7500081 -15.25
vt 0.7499928 15.25
g submesh0
f 1/1/1 2/2/2 3/3/3
f 2/2/2 4/4/4 3/3/3
f 5/5/5 6/6/6 7/7/7
f 6/6/6 8/8/8 7/7/7
f 9/9/9 10/10/10 11/11/11
f 10/10/10 12/12/12 11/11/11
f 13/13/13 14/14/14 15/15/15
f 14/14/14 16/16/16 15/15/15
f 17/17/17 18/18/18 19/19/19
f 18/18/18 20/20/20 19/19/19
f 21/21/21 22/22/22 23/23/23
f 22/22/22 24/24/24 23/23/23
f 25/25/25 26/26/26 27/27/27
f 26/26/26 28/28/28 27/27/27
f 29/29/29 30/30/30 31/31/31
f 30/30/30 32/32/32 31/31/31
f 33/33/33 34/34/34 35/35/35
f 34/34/34 36/36/36 35/35/35
f 37/37/37 38/38/38 39/39/39
f 38/38/38 40/40/40 39/39/39
f 41/41/41 42/42/42 43/43/43
f 42/42/42 44/44/44 43/43/43
f 45/45/45 46/46/46 47/47/47
f 46/46/46 48/48/48 47/47/47
g submesh1
f 49/49/49 50/50/50 51/51/51
f 50/50/50 52/52/52 51/51/51
