v 0.749992 -5 0.1249999
v 0.999992 -5 0.1249998
v 0.7500068 5 0.1250006
v 1.000007 5 0.1250005
v 0.999992 -5 0.1249998
v 0.9999918 -5 -0.1250002
v 1.000007 5 0.1250005
v 1.000007 5 -0.1249995
v 0.9999918 -5 -0.1250002
v 0.7499918 -5 -0.1250001
v 1.000007 5 -0.1249995
v 0.7500067 5 -0.1249994
v -1.000008 -5 -0.1249995
v -1.000008 -5 0.1250005
v -0.9999971 5 -0.1249987
v -0.999997 5 0.1250013
v 0.7500068 5 0.1250006
v 1.000007 5 0.1250005
v 0.7500067 5 -0.1249994
v 1.000007 5 -0.1249995
v 0.7499918 -5 -0.1250001
v 0.9999918 -5 -0.1250002
v 0.749992 -5 0.1249999
v 0.999992 -5 0.1249998
v -0.7500082 -5 -0.1249996
v -0.750008 -5 0.1250004
v -1.000008 -5 -0.1249995
v -1.000008 -5 0.1250005
v -0.7499933 5 -0.1249988
v -0.7500082 -5 -0.1249996
v -0.9999971 5 -0.1249987
v -1.000008 -5 -0.1249995
v -0.750008 -5 0.1250004
v -0.7499932 5 0.1250012
v -1.000008 -5 0.1250005
v -0.999997 5 0.1250013
v -0.7499932 5 0.1250012
v -0.7499933 5 -0.1249988
v -0.999997 5 0.1250013
v -0.9999971 5 -0.1249987
v 0.749992 -5 0.1249999
v 0.7500068 5 0.1250006
v 0.7499918 -5 -0.1250001
v 0.7500067 5 -0.1249994
v -0.7499932 5 0.1250012
v -0.750008 -5 0.1250004
v -0.7499933 5 -0.1249988
v -0.7500082 -5 -0.1249996
v 0.7499919 -5 -1.490116E-07
v 0.7500067 5 5.811453E-07
v -0.7500081 -5 3.874302E-07
v -0.7499933 5 1.206994E-06
vn 3.576279E-07 -7.15261E-08 1
vn 3.576278E-07 -7.15261E-08 1
vn 3.576278E-07 -7.15261E-08 1
vn 3.576277E-07 -7.152611E-08 1
vn 1 -1.496077E-06 -4.768372E-07
vn 1 -1.496077E-06 -4.768372E-07
vn 1 -1.496077E-06 -4.768372E-07
vn 1 -1.496077E-06 -4.768372E-07
vn -3.576279E-07 7.152611E-08 -1
vn -3.874301E-07 7.227121E-08 -1
vn -3.874301E-07 7.227121E-08 -1
vn -4.172324E-07 7.301631E-08 -1
vn -1 1.102686E-06 4.768372E-07
vn -1 1.099706E-06 3.576279E-07
vn -1 1.099706E-06 3.576279E-07
vn -1 1.096725E-06 2.384186E-07
vn 0 1 0
vn 0 1 0
vn 0 1 0
vn 0 1 0
vn 0 -1 0
vn 0 -1 0
vn 0 -1 0
vn 0 -1 0
vn 0 -1 0
vn 0 -1 0
vn 0 -1 0
vn 0 -1 0
vn -4.172261E-07 8.1957E-08 -1
vn -3.87427E-07 8.270194E-08 -1
vn -3.87427E-07 8.270194E-08 -1
vn -3.576279E-07 8.344689E-08 -1
vn 3.576279E-07 -8.04668E-08 1
vn 4.172289E-07 -8.195691E-08 1
vn 4.172289E-07 -8.195691E-08 1
vn 4.768299E-07 -8.344703E-08 1
vn 0 1 0
vn 0 1 0
vn 0 1 0
vn 0 1 0
vn -1 1.484156E-06 4.768372E-07
vn -1 1.487136E-06 3.576279E-07
vn -1 1.487136E-06 3.576279E-07
vn -1 1.490116E-06 2.384186E-07
vn 1 -1.484156E-06 -2.384186E-07
vn 1 -1.487136E-06 -3.576279E-07
vn 1 -1.487136E-06 -3.576279E-07
vn 1 -1.490116E-06 -4.768372E-07
vn 3.576279E-07 -7.301622E-08 1
vn 3.874302E-07 -7.74866E-08 1
vn 3.874302E-07 -7.74866E-08 1
vn 4.172325E-07 -8.1957E-08 1
vt -0.7499919 -5
vt -0.9999919 -5
vt -0.7500067 5
vt -1.000007 5
vt -2 -4.999999
vt -2.25 -4.999999
vt -1.999999 5.000001
vt -2.249999 5.000001
vt 0.9999919 -5
vt 0.7499919 -5
vt 1.000007 5
vt 0.7500068 5
vt 2.25 -5.000001
vt 2 -5.000001
vt 2.249999 4.999999
vt 1.999999 4.999999
vt 0.7500068 -1.999999
vt 1.000007 -2
vt 0.7500067 -2.25
vt 1.000007 -2.25
vt -0.7499918 -2.25
vt -0.9999918 -2.25
vt -0.749992 -2
vt -0.999992 -2
vt 0.7500082 -2.25
vt 0.750008 -2
vt 1.000008 -2.25
vt 1.000008 -2
vt -0.7499932 5
vt -0.7500081 -5
vt -0.999997 5
vt -1.000008 -5
vt 0.7500081 -5
vt 0.7499933 5
vt 1.000008 -5
vt 0.9999971 5
vt -0.7499932 -1.999999
vt -0.7499933 -2.249999
vt -0.999997 -1.999999
vt -0.9999971 -2.249999
vt 2 -4.999999
vt 1.999999 5.000001
vt 2.25 -4.999999
vt 2.249999 5.000001
vt -1.999999 4.999999
vt -2 -5.000001
vt -2.249999 4.999999
vt -2.25 -5.000001
vt -0.7499919 -5
vt -0.7500067 5
vt 0.7500081 -5
vt 0.7499933 5
g submesh0
f 1/1/1 2/2/2 3/3/3
f 2/2/2 4/4/4 3/3/3
f 5/5/5 6/6/6 7/7/7
f 6/6/6 8/8/8 7/7/7
f 9/9/9 10/10/10 11/11/11
f 10/10/10 12/12/12 11/11/11
f 13/13/13 14/14/14 15/15/15
f 14/14/14 16/16/16 15/15/15
f 17/17/17 18/18/18 19/19/19
f 18/18/18 20/20/20 19/19/19
f 21/21/21 22/22/22 23/23/23
f 22/22/22 24/24/24 23/23/23
f 25/25/25 26/26/26 27/27/27
f 26/26/26 28/28/28 27/27/27
f 29/29/29 30/30/30 31/31/31
f 30/30/30 32/32/32 31/31/31
f 33/33/33 34/34/34 35/35/35
f 34/34/34 36/36/36 35/35/35
f 37/37/37 38/38/38 39/39/39
f 38/38/38 40/40/40 39/39/39
f 41/41/41 42/42/42 43/43/43
f 42/42/42 44/44/44 43/43/43
f 45/45/45 46/46/46 47/47/47
f 46/46/46 48/48/48 47/47/47
g submesh1
f 49/49/49 50/50/50 51/51/51
f 50/50/50 52/52/52 51/51/51
