v 0.7500008 -7.461153 0.249999
v 1.000001 -7.461153 0.2499991
v 0.7500008 10.53885 0.249999
v 1.000001 10.53885 0.2499991
v 1.000001 -7.461153 0.2499991
v 1.000001 -7.461153 -9.536743E-07
v 1.000001 10.53885 0.2499991
v 1.000001 10.53885 -9.536743E-07
v 1.000001 -7.461153 -9.536743E-07
v 0.750001 -7.461153 -1.072884E-06
v 1.000001 10.53885 -9.536743E-07
v 0.750001 10.53885 -1.072884E-06
v -0.9999993 -7.461153 -1.907349E-06
v -0.9999994 -7.461153 0.2499981
v -0.9999993 10.53885 -1.907349E-06
v -0.9999994 10.53885 0.2499981
v 0.7500008 10.53885 0.249999
v 1.000001 10.53885 0.2499991
v 0.750001 10.53885 -1.072884E-06
v 1.000001 10.53885 -9.536743E-07
v 0.750001 -7.461153 -1.072884E-06
v 1.000001 -7.461153 -9.536743E-07
v 0.7500008 -7.461153 0.249999
v 1.000001 -7.461153 0.2499991
v -0.7499993 -7.461153 -1.788139E-06
v -0.7499994 -7.461153 0.2499982
v -0.9999993 -7.461153 -1.907349E-06
v -0.9999994 -7.461153 0.2499981
v -0.7499993 10.53885 -1.788139E-06
v -0.7499993 -7.461153 -1.788139E-06
v -0.9999993 10.53885 -1.907349E-06
v -0.9999993 -7.461153 -1.907349E-06
v -0.7499994 -7.461153 0.2499982
v -0.7499994 10.53885 0.2499982
v -0.9999994 -7.461153 0.2499981
v -0.9999994 10.53885 0.2499981
v -0.7499994 10.53885 0.2499982
v -0.7499993 10.53885 -1.788139E-06
v -0.9999994 10.53885 0.2499981
v -0.9999993 10.53885 -1.907349E-06
v 0.7500008 -7.461153 0.249999
v 0.7500008 10.53885 0.249999
v 0.750001 -7.461153 -1.072884E-06
v 0.750001 10.53885 -1.072884E-06
v -0.7499994 10.53885 0.2499982
v -0.7499994 -7.461153 0.2499982
v -0.7499993 10.53885 -1.788139E-06
v -0.7499993 -7.461153 -1.788139E-06
v 0.7500008 -7.461153 0.1249989
v 0.7500008 10.53885 0.1249989
v -0.7499993 -7.461153 0.1249982
v -0.7499993 10.53885 0.1249982
vn -4.768372E-07 0 1
vn -4.768372E-07 0 1
vn -4.768372E-07 0 1
vn -4.768372E-07 0 1
vn 1 0 4.768371E-07
vn 1 0 4.768371E-07
vn 1 0 4.768371E-07
vn 1 0 4.768371E-07
vn 4.768372E-07 0 -1
vn 4.768372E-07 0 -1
vn 4.768372E-07 0 -1
vn 4.768372E-07 0 -1
vn -1 0 -4.768371E-07
vn -1 0 -4.768371E-07
vn -1 0 -4.768371E-07
vn -1 0 -4.768371E-07
vn 0 1 0
vn 0 1 0
vn 0 1 0
vn 0 1 0
vn 0 -1 0
vn 0 -1 0
vn 0 -1 0
vn 0 -1 0
vn 0 -1 0
vn 0 -1 0
vn 0 -1 0
vn 0 -1 0
vn 4.768372E-07 0 -1
vn 4.768372E-07 0 -1
vn 4.768372E-07 0 -1
vn 4.768372E-07 0 -1
vn -4.768372E-07 0 1
vn -4.768372E-07 0 1
vn -4.768372E-07 0 1
vn -4.768372E-07 0 1
vn 0 1 0
vn 0 1 0
vn 0 1 0
vn 0 1 0
vn -1 0 -4.768371E-07
vn -1 0 -4.768371E-07
vn -1 0 -4.768371E-07
vn -1 0 -4.768371E-07
vn 1 0 4.768371E-07
vn 1 0 4.768371E-07
vn 1 0 4.768371E-07
vn 1 0 4.768371E-07
vn -4.768371E-07 0 1
vn -4.768371E-07 0 1
vn -4.768371E-07 0 1
vn -4.768371E-07 0 1
vt -0.750001 -7.461153
vt -1.000001 -7.461153
vt -0.750001 10.53885
vt -1.000001 10.53885
vt -1.875001 -7.461153
vt -2.125001 -7.461153
vt -1.875001 10.53885
vt -2.125001 10.53885
vt 1.000001 -7.461153
vt 0.750001 -7.461153
vt 1.000001 10.53885
vt 0.750001 10.53885
vt 2.125001 -7.461153
vt 1.875001 -7.461153
vt 2.125001 10.53885
vt 1.875001 10.53885
vt 0.7500008 -1.875001
vt 1.000001 -1.875001
vt 0.750001 -2.125001
vt 1.000001 -2.125001
vt -0.750001 -2.125001
vt -1.000001 -2.125001
vt -0.7500008 -1.875001
vt -1.000001 -1.875001
vt 0.7499993 -2.125002
vt 0.7499994 -1.875002
vt 0.9999993 -2.125002
vt 0.9999994 -1.875002
vt -0.7499993 10.53885
vt -0.7499993 -7.461153
vt -0.9999993 10.53885
vt -0.9999993 -7.461153
vt 0.7499993 -7.461153
vt 0.7499993 10.53885
vt 0.9999993 -7.461153
vt 0.9999993 10.53885
vt -0.7499994 -1.875002
vt -0.7499993 -2.125002
vt -0.9999994 -1.875002
vt -0.9999993 -2.125002
vt 1.875001 -7.461153
vt 1.875001 10.53885
vt 2.125001 -7.461153
vt 2.125001 10.53885
vt -1.875001 10.53885
vt -1.875001 -7.461153
vt -2.125001 10.53885
vt -2.125001 -7.461153
vt -0.7500009 -7.461153
vt -0.7500009 10.53885
vt 0.7499992 -7.461153
vt 0.7499992 10.53885
g submesh0
f 1/1/1 2/2/2 3/3/3
f 2/2/2 4/4/4 3/3/3
f 5/5/5 6/6/6 7/7/7
f 6/6/6 8/8/8 7/7/7
f 9/9/9 10/10/10 11/11/11
f 10/10/10 12/12/12 11/11/11
f 13/13/13 14/14/14 15/15/15
f 14/14/14 16/16/16 15/15/15
f 17/17/17 18/18/18 19/19/19
f 18/18/18 20/20/20 19/19/19
f 21/21/21 22/22/22 23/23/23
f 22/22/22 24/24/24 23/23/23
f 25/25/25 26/26/26 27/27/27
f 26/26/26 28/28/28 27/27/27
f 29/29/29 30/30/30 31/31/31
f 30/30/30 32/32/32 31/31/31
f 33/33/33 34/34/34 35/35/35
f 34/34/34 36/36/36 35/35/35
f 37/37/37 38/38/38 39/39/39
f 38/38/38 40/40/40 39/39/39
f 41/41/41 42/42/42 43/43/43
f 42/42/42 44/44/44 43/43/43
f 45/45/45 46/46/46 47/47/47
f 46/46/46 48/48/48 47/47/47
g submesh1
f 49/49/49 50/50/50 51/51/51
f 50/50/50 52/52/52 51/51/51
