v 0.7499977 -14 0.1249989
v 0.9999977 -14 0.1249988
v 0.7500013 14 0.1250003
v 1.000001 14 0.1250001
v 0.9999977 -14 0.1249988
v 0.9999976 -14 -0.1250012
v 1.000001 14 0.1250001
v 1.000001 14 -0.1249999
v 0.9999976 -14 -0.1250012
v 0.7499976 -14 -0.1250011
v 1.000001 14 -0.1249999
v 0.7500011 14 -0.1249998
v -1.000003 -14 -0.1250005
v -1.000002 -14 0.1249995
v -1.000001 14 -0.1249989
v -1.000001 14 0.1250011
v 0.7500013 14 0.1250003
v 1.000001 14 0.1250001
v 0.7500011 14 -0.1249998
v 1.000001 14 -0.1249999
v 0.7499976 -14 -0.1250011
v 0.9999976 -14 -0.1250012
v 0.7499977 -14 0.1249989
v 0.9999977 -14 0.1249988
v -0.7500024 -14 -0.1250006
v -0.7500023 -14 0.1249994
v -1.000003 -14 -0.1250005
v -1.000002 -14 0.1249995
v -0.750001 14 -0.1249991
v -0.7500024 -14 -0.1250006
v -1.000001 14 -0.1249989
v -1.000003 -14 -0.1250005
v -0.7500023 -14 0.1249994
v -0.7500008 14 0.125001
v -1.000002 -14 0.1249995
v -1.000001 14 0.1250011
v -0.7500008 14 0.125001
v -0.750001 14 -0.1249991
v -1.000001 14 0.1250011
v -1.000001 14 -0.1249989
v 0.7499977 -14 0.1249989
v 0.7500013 14 0.1250003
v 0.7499976 -14 -0.1250011
v 0.7500011 14 -0.1249998
v -0.7500008 14 0.125001
v -0.7500023 -14 0.1249994
v -0.750001 14 -0.1249991
v -0.7500024 -14 -0.1250006
v 0.7499976 -14 -1.117587E-06
v 0.7500012 14 2.384186E-07
v -0.7500024 -14 -5.811453E-07
v -0.7500009 14 9.536743E-07
vn 3.576279E-07 -4.8961E-08 1
vn 4.172326E-07 -4.842883E-08 1
vn 4.172326E-07 -4.842883E-08 1
vn 4.768373E-07 -4.789665E-08 1
vn 1 -1.255955E-07 -4.768372E-07
vn 1 -1.255955E-07 -4.768371E-07
vn 1 -1.255955E-07 -4.768371E-07
vn 1 -1.255955E-07 -4.768371E-07
vn -3.576279E-07 4.683227E-08 -1
vn -4.172326E-07 4.736446E-08 -1
vn -4.172326E-07 4.736446E-08 -1
vn -4.768373E-07 4.789665E-08 -1
vn -1 5.108967E-08 4.768372E-07
vn -1 5.108967E-08 4.768371E-07
vn -1 5.108967E-08 4.768371E-07
vn -1 5.108967E-08 4.768371E-07
vn 0 1 0
vn 0 1 0
vn 0 1 0
vn 0 1 0
vn 0 -1 0
vn 0 -1 0
vn 0 -1 0
vn 0 -1 0
vn 0 -1 0
vn 0 -1 0
vn 0 -1 0
vn 0 -1 0
vn -4.768369E-07 5.428283E-08 -1
vn -4.172323E-07 5.481501E-08 -1
vn -4.172323E-07 5.481501E-08 -1
vn -3.576278E-07 5.534719E-08 -1
vn 3.576278E-07 -5.534719E-08 1
vn 4.172323E-07 -5.587938E-08 1
vn 4.172323E-07 -5.587938E-08 1
vn 4.768369E-07 -5.641157E-08 1
vn 0 1 0
vn 0 1 0
vn 0 1 0
vn 0 1 0
vn -1 1.277242E-07 4.768372E-07
vn -1 1.277242E-07 4.768371E-07
vn -1 1.277242E-07 4.768371E-07
vn -1 1.277242E-07 4.768371E-07
vn 1 -5.32184E-08 -4.768371E-07
vn 1 -5.321841E-08 -4.768371E-07
vn 1 -5.321841E-08 -4.768371E-07
vn 1 -5.321841E-08 -4.768372E-07
vn 3.576279E-07 -4.842882E-08 1
vn 4.172322E-07 -5.162191E-08 1
vn 4.172322E-07 -5.162191E-08 1
vn 4.768365E-07 -5.481501E-08 1
vt -0.7499976 -14
vt -0.9999976 -14
vt -0.7500012 14
vt -1.000001 14
vt -2.000001 -14
vt -2.250001 -14
vt -1.999999 14
vt -2.25 14
vt 0.9999976 -14
vt 0.7499976 -14
vt 1.000001 14
vt 0.7500012 14
vt 2.250001 -14
vt 2.000001 -14
vt 2.25 14
vt 1.999999 14
vt 0.7500013 -2
vt 1.000001 -2
vt 0.7500011 -2.25
vt 1.000001 -2.25
vt -0.7499976 -2.250001
vt -0.9999976 -2.250001
vt -0.7499977 -2.000001
vt -0.9999977 -2.000001
vt 0.7500024 -2.25
vt 0.7500023 -2
vt 1.000003 -2.25
vt 1.000002 -2
vt -0.7500009 14
vt -0.7500024 -14
vt -1.000001 14
vt -1.000002 -14
vt 0.7500024 -14
vt 0.7500009 14
vt 1.000002 -14
vt 1.000001 14
vt -0.7500008 -1.999999
vt -0.750001 -2.249999
vt -1.000001 -1.999999
vt -1.000001 -2.249999
vt 2.000001 -14
vt 1.999999 14
vt 2.250001 -14
vt 2.25 14
vt -1.999999 14
vt -2.000001 -14
vt -2.25 14
vt -2.250001 -14
vt -0.7499976 -14
vt -0.7500012 14
vt 0.7500024 -14
vt 0.7500009 14
g submesh0
f 1/1/1 2/2/2 3/3/3
f 2/2/2 4/4/4 3/3/3
f 5/5/5 6/6/6 7/7/7
f 6/6/6 8/8/8 7/7/7
f 9/9/9 10/10/10 11/11/11
f 10/10/10 12/12/12 11/11/11
f 13/13/13 14/14/14 15/15/15
f 14/14/14 16/16/16 15/15/15
f 17/17/17 18/18/18 19/19/19
f 18/18/18 20/20/20 19/19/19
f 21/21/21 22/22/22 23/23/23
f 22/22/22 24/24/24 23/23/23
f 25/25/25 26/26/26 27/27/27
f 26/26/26 28/28/28 27/27/27
f 29/29/29 30/30/30 31/31/31
f 30/30/30 32/32/32 31/31/31
f 33/33/33 34/34/34 35/35/35
f 34/34/34 36/36/36 35/35/35
f 37/37/37 38/38/38 39/39/39
f 38/38/38 40/40/40 39/39/39
f 41/41/41 42/42/42 43/43/43
f 42/42/42 44/44/44 43/43/43
f 45/45/45 46/46/46 47/47/47
f 46/46/46 48/48/48 47/47/47
g submesh1
f 49/49/49 50/50/50 51/51/51
f 50/50/50 52/52/52 51/51/51
