v 0.7499996 -3 0.2499999
v 0.9999996 -3 0.2499998
v 0.7499996 19 0.2499997
v 0.9999996 19 0.2499976
v 0.9999996 -3 0.2499998
v 0.9999995 -3 -2.384186E-07
v 0.9999996 19 0.2499976
v 0.9999995 19 -2.384154E-06
v 0.9999995 -3 -2.384186E-07
v 0.7499995 -3 -1.490116E-07
v 0.9999995 19 -2.384154E-06
v 0.7499995 19 -3.575972E-07
v -1 -3 4.768372E-07
v -1 -3 0.2500005
v -1.000001 19 -5.245164E-06
v -1.000001 19 0.2499986
v 0.7499996 19 0.2499997
v 0.9999996 19 0.2499976
v 0.7499995 19 -3.575972E-07
v 0.9999995 19 -2.384154E-06
v 0.7499995 -3 -1.490116E-07
v 0.9999995 -3 -2.384186E-07
v 0.7499996 -3 0.2499999
v 0.9999996 -3 0.2499998
v -0.7500005 -3 3.874302E-07
v -0.7500004 -3 0.2500004
v -1 -3 4.768372E-07
v -1 -3 0.2500005
v -0.7500013 19 -3.457023E-06
v -0.7500005 -3 3.874302E-07
v -1.000001 19 -5.245164E-06
v -1 -3 4.768372E-07
v -0.7500004 -3 0.2500004
v -0.7500011 19 0.2500004
v -1 -3 0.2500005
v -1.000001 19 0.2499986
v -0.7500011 19 0.2500004
v -0.7500013 19 -3.457023E-06
v -1.000001 19 0.2499986
v -1.000001 19 -5.245164E-06
v 0.7499996 -3 0.2499999
v 0.7499996 19 0.2499997
v 0.7499995 -3 -1.490116E-07
v 0.7499995 19 -3.575972E-07
v -0.7500011 19 0.2500004
v -0.7500004 -3 0.2500004
v -0.7500013 19 -3.457023E-06
v -0.7500005 -3 3.874302E-07
v 0.7499996 -3 0.1249999
v 0.7499995 19 0.1249997
v -0.7500004 -3 0.1250004
v -0.7500012 19 0.1250004
vn 3.576279E-07 8.127907E-09 1
vn 4.23193E-06 5.215407E-08 1
vn 4.23193E-06 5.215407E-08 1
vn 8.106232E-06 9.618024E-08 1
vn 1 2.709256E-09 -4.768372E-07
vn 1 2.709256E-09 -4.768372E-07
vn 1 2.709256E-09 -4.768372E-07
vn 1 2.709256E-09 -4.768371E-07
vn -3.576279E-07 -9.753342E-08 -1
vn -4.231927E-06 -5.35073E-08 -1
vn -4.231927E-06 -5.35073E-08 -1
vn -8.106226E-06 -9.481184E-09 -1
vn -1 -3.79301E-08 4.768372E-07
vn -1 -3.793015E-08 4.768335E-07
vn -1 -3.793015E-08 4.768335E-07
vn -1 -3.793019E-08 4.768299E-07
vn 0 1 0
vn 0 1 0
vn 0 1 0
vn 0 1 0
vn 0 -1 0
vn 0 -1 0
vn 0 -1 0
vn 0 -1 0
vn 0 -1 0
vn 0 -1 0
vn 0 -1 0
vn 0 -1 0
vn 7.152563E-06 -1.747476E-07 -1
vn 3.397467E-06 -2.174193E-07 -1
vn 3.397467E-06 -2.174193E-07 -1
vn -3.576279E-07 -2.60091E-07 -1
vn 3.576279E-07 1.259598E-14 1
vn -3.397464E-06 4.267138E-08 1
vn -3.397464E-06 4.267138E-08 1
vn -7.152556E-06 8.534274E-08 1
vn 0 1 0
vn 0 1 0
vn 0 1 0
vn 0 1 0
vn -1 -2.709298E-09 4.768372E-07
vn -1 -2.709298E-09 4.768372E-07
vn -1 -2.709298E-09 4.768372E-07
vn -1 -2.709298E-09 4.768371E-07
vn 1 3.522093E-08 -4.768299E-07
vn 1 3.522089E-08 -4.768335E-07
vn 1 3.522089E-08 -4.768335E-07
vn 1 3.522084E-08 -4.768372E-07
vn 3.576279E-07 8.805232E-09 1
vn 4.172324E-07 4.741286E-09 1
vn 4.172324E-07 4.741286E-09 1
vn 4.768369E-07 6.77341E-10 1
vt -0.7499996 -3
vt -0.9999996 -3
vt -0.7499995 19
vt -0.9999995 19
vt -1.875 -3
vt -2.125 -3
vt -1.875002 19
vt -2.125002 19
vt 0.9999995 -3
vt 0.7499995 -3
vt 0.9999995 19
vt 0.7499995 19
vt 2.125 -3
vt 1.875 -3
vt 2.125006 19
vt 1.875002 19
vt 0.7499996 -1.875
vt 0.9999996 -1.875002
vt 0.7499995 -2.125
vt 0.9999995 -2.125002
vt -0.7499995 -2.125
vt -0.9999995 -2.125
vt -0.7499996 -1.875
vt -0.9999996 -1.875
vt 0.7500005 -2.125
vt 0.7500004 -1.875
vt 1 -2.125
vt 1 -1.875
vt -0.7500013 19
vt -0.7500005 -3
vt -1.000001 19
vt -1 -3
vt 0.7500005 -3
vt 0.7500013 19
vt 1 -3
vt 1.000001 19
vt -0.7500011 -1.875
vt -0.7500013 -2.125003
vt -1.000001 -1.875001
vt -1.000001 -2.125005
vt 1.875 -3
vt 1.875 19
vt 2.125 -3
vt 2.125 19
vt -1.875 19
vt -1.875 -3
vt -2.125004 19
vt -2.125 -3
vt -0.7499995 -3
vt -0.7499995 19
vt 0.7500005 -3
vt 0.7500013 19
g submesh0
f 1/1/1 2/2/2 3/3/3
f 2/2/2 4/4/4 3/3/3
f 5/5/5 6/6/6 7/7/7
f 6/6/6 8/8/8 7/7/7
f 9/9/9 10/10/10 11/11/11
f 10/10/10 12/12/12 11/11/11
f 13/13/13 14/14/14 15/15/15
f 14/14/14 16/16/16 15/15/15
f 17/17/17 18/18/18 19/19/19
f 18/18/18 20/20/20 19/19/19
f 21/21/21 22/22/22 23/23/23
f 22/22/22 24/24/24 23/23/23
f 25/25/25 26/26/26 27/27/27
f 26/26/26 28/28/28 27/27/27
f 29/29/29 30/30/30 31/31/31
f 30/30/30 32/32/32 31/31/31
f 33/33/33 34/34/34 35/35/35
f 34/34/34 36/36/36 35/35/35
f 37/37/37 38/38/38 39/39/39
f 38/38/38 40/40/40 39/39/39
f 41/41/41 42/42/42 43/43/43
f 42/42/42 44/44/44 43/43/43
f 45/45/45 46/46/46 47/47/47
f 46/46/46 48/48/48 47/47/47
g submesh1
f 49/49/49 50/50/50 51/51/51
f 50/50/50 52/52/52 51/51/51
