v 0.7499996 -14 0.1249997
v 0.9999996 -14 0.1249996
v 0.7499988 14 0.1249998
v 0.9999988 14 0.1249996
v 0.9999996 -14 0.1249996
v 0.9999995 -14 -0.1250004
v 0.9999988 14 0.1249996
v 0.9999986 14 -0.1250004
v 0.9999995 -14 -0.1250004
v 0.7499995 -14 -0.1250003
v 0.9999986 14 -0.1250004
v 0.7499986 14 -0.1250002
v -1 -14 -0.1249996
v -1 -14 0.1250004
v -1.000001 14 -0.1249996
v -1.000001 14 0.1250004
v 0.7499988 14 0.1249998
v 0.9999988 14 0.1249996
v 0.7499986 14 -0.1250002
v 0.9999986 14 -0.1250004
v 0.7499995 -14 -0.1250003
v 0.9999995 -14 -0.1250004
v 0.7499996 -14 0.1249997
v 0.9999996 -14 0.1249996
v -0.7500005 -14 -0.1249997
v -0.7500004 -14 0.1250003
v -1 -14 -0.1249996
v -1 -14 0.1250004
v -0.7500014 14 -0.1249997
v -0.7500005 -14 -0.1249997
v -1.000001 14 -0.1249996
v -1 -14 -0.1249996
v -0.7500004 -14 0.1250003
v -0.7500013 14 0.1250003
v -1 -14 0.1250004
v -1.000001 14 0.1250004
v -0.7500013 14 0.1250003
v -0.7500014 14 -0.1249997
v -1.000001 14 0.1250004
v -1.000001 14 -0.1249996
v 0.7499996 -14 0.1249997
v 0.7499988 14 0.1249998
v 0.7499995 -14 -0.1250003
v 0.7499986 14 -0.1250002
v -0.7500013 14 0.1250003
v -0.7500004 -14 0.1250003
v -0.7500014 14 -0.1249997
v -0.7500005 -14 -0.1249997
v 0.7499995 -14 -2.682209E-07
v 0.7499987 14 -1.639128E-07
v -0.7500005 -14 2.682209E-07
v -0.7500013 14 2.831221E-07
vn 3.576279E-07 -3.72528E-09 1
vn 5.662441E-07 -1.862629E-09 1
vn 5.662441E-07 -1.862629E-09 1
vn 7.748604E-07 2.144316E-14 1
vn 1 2.767358E-08 -4.768372E-07
vn 1 2.980232E-08 -7.152557E-07
vn 1 2.980232E-08 -7.152557E-07
vn 1 3.193106E-08 -9.536743E-07
vn -3.576279E-07 -1.141944E-14 -1
vn -5.662441E-07 1.862627E-09 -1
vn -5.662441E-07 1.862627E-09 -1
vn -7.748604E-07 3.725265E-09 -1
vn -1 -2.980232E-08 4.768372E-07
vn -1 -2.980232E-08 4.768372E-07
vn -1 -2.980232E-08 4.768372E-07
vn -1 -2.980232E-08 4.768372E-07
vn 0 1 0
vn 0 1 0
vn 0 1 0
vn 0 1 0
vn 0 -1 0
vn 0 -1 0
vn 0 -1 0
vn 0 -1 0
vn 0 -1 0
vn 0 -1 0
vn 0 -1 0
vn 0 -1 0
vn -2.980234E-07 5.321748E-10 -1
vn -3.278257E-07 2.660821E-10 -1
vn -3.278257E-07 2.660821E-10 -1
vn -3.57628E-07 -1.065814E-14 -1
vn 3.57628E-07 1.065814E-14 1
vn 3.57628E-07 1.065814E-14 1
vn 3.57628E-07 1.065814E-14 1
vn 3.57628E-07 1.065814E-14 1
vn 0 1 0
vn 0 1 0
vn 0 1 0
vn 0 1 0
vn -1 -2.767359E-08 4.768372E-07
vn -1 -2.980233E-08 7.152557E-07
vn -1 -2.980233E-08 7.152557E-07
vn -1 -3.193106E-08 9.536743E-07
vn 1 2.980232E-08 -7.152558E-07
vn 1 3.086669E-08 -5.960464E-07
vn 1 3.086669E-08 -5.960464E-07
vn 1 3.193106E-08 -4.768372E-07
vn 3.576279E-07 -3.725279E-09 1
vn 3.278255E-07 -2.128727E-09 1
vn 3.278255E-07 -2.128727E-09 1
vn 2.980232E-07 -5.321755E-10 1
vt -0.7499995 -14
vt -0.9999995 -14
vt -0.7499987 14
vt -0.9999987 14
vt -2 -14
vt -2.25 -14
vt -2 14
vt -2.25 14
vt 0.9999995 -14
vt 0.7499995 -14
vt 0.9999986 14
vt 0.7499986 14
vt 2.25 -14
vt 2 -14
vt 2.25 14
vt 2 14
vt 0.7499988 -2
vt 0.9999988 -2
vt 0.7499986 -2.25
vt 0.9999986 -2.25
vt -0.7499995 -2.25
vt -0.9999995 -2.25
vt -0.7499996 -2
vt -0.9999996 -2
vt 0.7500005 -2.25
vt 0.7500004 -2
vt 1 -2.25
vt 1 -2
vt -0.7500014 14
vt -0.7500005 -14
vt -1.000001 14
vt -1 -14
vt 0.7500005 -14
vt 0.7500013 14
vt 1 -14
vt 1.000001 14
vt -0.7500013 -2
vt -0.7500014 -2.25
vt -1.000001 -2
vt -1.000001 -2.25
vt 2 -14
vt 2 14
vt 2.25 -14
vt 2.25 14
vt -2 14
vt -2 -14
vt -2.25 14
vt -2.25 -14
vt -0.7499995 -14
vt -0.7499987 14
vt 0.7500005 -14
vt 0.7500013 14
g submesh0
f 1/1/1 2/2/2 3/3/3
f 2/2/2 4/4/4 3/3/3
f 5/5/5 6/6/6 7/7/7
f 6/6/6 8/8/8 7/7/7
f 9/9/9 10/10/10 11/11/11
f 10/10/10 12/12/12 11/11/11
f 13/13/13 14/14/14 15/15/15
f 14/14/14 16/16/16 15/15/15
f 17/17/17 18/18/18 19/19/19
f 18/18/18 20/20/20 19/19/19
f 21/21/21 22/22/22 23/23/23
f 22/22/22 24/24/24 23/23/23
f 25/25/25 26/26/26 27/27/27
f 26/26/26 28/28/28 27/27/27
f 29/29/29 30/30/30 31/31/31
f 30/30/30 32/32/32 31/31/31
f 33/33/33 34/34/34 35/35/35
f 34/34/34 36/36/36 35/35/35
f 37/37/37 38/38/38 39/39/39
f 38/38/38 40/40/40 39/39/39
f 41/41/41 42/42/42 43/43/43
f 42/42/42 44/44/44 43/43/43
f 45/45/45 46/46/46 47/47/47
f 46/46/46 48/48/48 47/47/47
g submesh1
f 49/49/49 50/50/50 51/51/51
f 50/50/50 52/52/52 51/51/51
