v 0.7499995 -5 0.1249999
v 0.9999995 -5 0.1249998
v 0.7499983 5 0.124999
v 0.9999983 5 0.1249997
v 0.9999995 -5 0.1249998
v 0.9999994 -5 -0.1250002
v 0.9999983 5 0.1249997
v 0.9999981 5 -0.1250003
v 0.9999994 -5 -0.1250002
v 0.7499994 -5 -0.1250001
v 0.9999981 5 -0.1250003
v 0.7499981 5 -0.125001
v -1.000001 -5 -0.1249995
v -1 -5 0.1250005
v -1.000002 5 -0.1249997
v -1.000002 5 0.1250003
v 0.7499983 5 0.124999
v 0.9999983 5 0.1249997
v 0.7499981 5 -0.125001
v 0.9999981 5 -0.1250003
v 0.7499994 -5 -0.1250001
v 0.9999994 -5 -0.1250002
v 0.7499995 -5 0.1249999
v 0.9999995 -5 0.1249998
v -0.7500006 -5 -0.1249996
v -0.7500005 -5 0.1250004
v -1.000001 -5 -0.1249995
v -1 -5 0.1250005
v -0.7500019 5 -0.1249999
v -0.7500006 -5 -0.1249996
v -1.000002 5 -0.1249997
v -1.000001 -5 -0.1249995
v -0.7500005 -5 0.1250004
v -0.7500017 5 0.1250001
v -1 -5 0.1250005
v -1.000002 5 0.1250003
v -0.7500017 5 0.1250001
v -0.7500019 5 -0.1249999
v -1.000002 5 0.1250003
v -1.000002 5 -0.1249997
v 0.7499995 -5 0.1249999
v 0.7499983 5 0.124999
v 0.7499994 -5 -0.1250001
v 0.7499981 5 -0.125001
v -0.7500017 5 0.1250001
v -0.7500005 -5 0.1250004
v -0.7500019 5 -0.1249999
v -0.7500006 -5 -0.1249996
v 0.7499995 -5 -1.490116E-07
v 0.7499982 5 -1.02818E-06
v -0.7500005 -5 3.874302E-07
v -0.7500018 5 1.341105E-07
vn 3.576279E-07 8.79169E-08 1
vn -1.341105E-06 4.544838E-08 1
vn -1.341105E-06 4.544838E-08 1
vn -3.039837E-06 2.97987E-09 1
vn 1 1.192093E-07 -4.768372E-07
vn 1 1.251697E-07 -7.152557E-07
vn 1 1.251697E-07 -7.152557E-07
vn 1 1.311302E-07 -9.536743E-07
vn -3.576279E-07 -2.980279E-09 -1
vn 1.341105E-06 -4.544837E-08 -1
vn 1.341105E-06 -4.544837E-08 -1
vn 3.039837E-06 -8.791645E-08 -1
vn -1 -1.311302E-07 4.768372E-07
vn -1 -1.251697E-07 7.152557E-07
vn -1 -1.251697E-07 7.152557E-07
vn -1 -1.192093E-07 9.536743E-07
vn 0 1 0
vn 0 1 0
vn 0 1 0
vn 0 1 0
vn 0 -1 0
vn 0 -1 0
vn 0 -1 0
vn 0 -1 0
vn 0 -1 0
vn 0 -1 0
vn 0 -1 0
vn 0 -1 0
vn -7.748604E-07 -2.533208E-08 -1
vn -5.662441E-07 -2.011664E-08 -1
vn -5.662441E-07 -2.011664E-08 -1
vn -3.576279E-07 -1.490121E-08 -1
vn 3.576279E-07 2.682213E-08 1
vn 5.960464E-07 2.08617E-08 1
vn 5.960464E-07 2.08617E-08 1
vn 8.34465E-07 1.490126E-08 1
vn 0 1 0
vn 0 1 0
vn 0 1 0
vn 0 1 0
vn -1 -1.192092E-07 4.768372E-07
vn -1 -1.251697E-07 7.152557E-07
vn -1 -1.251697E-07 7.152557E-07
vn -1 -1.311301E-07 9.536743E-07
vn 1 1.192093E-07 -9.536744E-07
vn 1 1.251697E-07 -7.152558E-07
vn 1 1.251697E-07 -7.152558E-07
vn 1 1.311302E-07 -4.768372E-07
vn 3.576279E-07 8.79169E-08 1
vn 5.662441E-07 5.662448E-08 1
vn 5.662441E-07 5.662448E-08 1
vn 7.748604E-07 2.533207E-08 1
vt -0.7499995 -5
vt -0.9999995 -5
vt -0.7499983 5
vt -0.9999983 5
vt -2 -5
vt -2.25 -5
vt -2 5
vt -2.25 5
vt 0.9999995 -5
vt 0.7499995 -5
vt 0.9999982 5
vt 0.7499982 5
vt 2.25 -5
vt 2 -5
vt 2.25 5
vt 2 5
vt 0.7499983 -2.000001
vt 0.9999983 -2
vt 0.7499981 -2.250001
vt 0.9999981 -2.25
vt -0.7499994 -2.25
vt -0.9999994 -2.25
vt -0.7499995 -2
vt -0.9999995 -2
vt 0.7500006 -2.25
vt 0.7500005 -2
vt 1.000001 -2.25
vt 1 -2
vt -0.7500018 5
vt -0.7500005 -5
vt -1.000002 5
vt -1 -5
vt 0.7500005 -5
vt 0.7500017 5
vt 1 -5
vt 1.000002 5
vt -0.7500017 -2
vt -0.7500019 -2.25
vt -1.000002 -2
vt -1.000002 -2.25
vt 2 -5
vt 2.000001 5
vt 2.25 -5
vt 2.250001 5
vt -2 5
vt -2 -5
vt -2.25 5
vt -2.25 -5
vt -0.7499995 -5
vt -0.7499982 5
vt 0.7500005 -5
vt 0.7500018 5
g submesh0
f 1/1/1 2/2/2 3/3/3
f 2/2/2 4/4/4 3/3/3
f 5/5/5 6/6/6 7/7/7
f 6/6/6 8/8/8 7/7/7
f 9/9/9 10/10/10 11/11/11
f 10/10/10 12/12/12 11/11/11
f 13/13/13 14/14/14 15/15/15
f 14/14/14 16/16/16 15/15/15
f 17/17/17 18/18/18 19/19/19
f 18/18/18 20/20/20 19/19/19
f 21/21/21 22/22/22 23/23/23
f 22/22/22 24/24/24 23/23/23
f 25/25/25 26/26/26 27/27/27
f 26/26/26 28/28/28 27/27/27
f 29/29/29 30/30/30 31/31/31
f 30/30/30 32/32/32 31/31/31
f 33/33/33 34/34/34 35/35/35
f 34/34/34 36/36/36 35/35/35
f 37/37/37 38/38/38 39/39/39
f 38/38/38 40/40/40 39/39/39
f 41/41/41 42/42/42 43/43/43
f 42/42/42 44/44/44 43/43/43
f 45/45/45 46/46/46 47/47/47
f 46/46/46 48/48/48 47/47/47
g submesh1
f 49/49/49 50/50/50 51/51/51
f 50/50/50 52/52/52 51/51/51
