v 0.7500033 -5 0.1249999
v 1.000003 -5 0.1249998
v 0.7500022 5 0.1249996
v 1.000002 5 0.1250004
v 1.000003 -5 0.1249998
v 1.000003 -5 -0.1250002
v 1.000002 5 0.1250004
v 1.000002 5 -0.1249996
v 1.000003 -5 -0.1250002
v 0.7500032 -5 -0.1250001
v 1.000002 5 -0.1249996
v 0.750002 5 -0.1250004
v -0.9999968 -5 -0.1249995
v -0.9999967 -5 0.1250005
v -0.9999999 5 -0.124999
v -0.9999996 5 0.125001
v 0.7500022 5 0.1249996
v 1.000002 5 0.1250004
v 0.750002 5 -0.1250004
v 1.000002 5 -0.1249996
v 0.7500032 -5 -0.1250001
v 1.000003 -5 -0.1250002
v 0.7500033 -5 0.1249999
v 1.000003 -5 0.1249998
v -0.7499968 -5 -0.1249996
v -0.7499967 -5 0.1250004
v -0.9999968 -5 -0.1249995
v -0.9999967 -5 0.1250005
v -0.749998 5 -0.1249992
v -0.7499968 -5 -0.1249996
v -0.9999999 5 -0.124999
v -0.9999968 -5 -0.1249995
v -0.7499967 -5 0.1250004
v -0.7499978 5 0.1250008
v -0.9999967 -5 0.1250005
v -0.9999996 5 0.125001
v -0.7499978 5 0.1250008
v -0.749998 5 -0.1249992
v -0.9999996 5 0.125001
v -0.9999999 5 -0.124999
v 0.7500033 -5 0.1249999
v 0.7500022 5 0.1249996
v 0.7500032 -5 -0.1250001
v 0.750002 5 -0.1250004
v -0.7499978 5 0.1250008
v -0.7499967 -5 0.1250004
v -0.749998 5 -0.1249992
v -0.7499968 -5 -0.1249996
v 0.7500033 -5 -1.490116E-07
v 0.7500021 5 -4.023314E-07
v -0.7499967 -5 3.874302E-07
v -0.7499979 5 7.599592E-07
vn 3.576279E-07 2.533201E-08 1
vn -1.341104E-06 -1.713648E-08 1
vn -1.341104E-06 -1.713648E-08 1
vn -3.039836E-06 -5.960497E-08 1
vn 1 1.072884E-07 -4.768372E-07
vn 1 1.132489E-07 -7.152557E-07
vn 1 1.132489E-07 -7.152557E-07
vn 1 1.192093E-07 -9.536743E-07
vn -3.576279E-07 5.96046E-08 -1
vn 1.341105E-06 1.713649E-08 -1
vn 1.341105E-06 1.713649E-08 -1
vn 3.039837E-06 -2.533161E-08 -1
vn -1 -3.099442E-07 4.768372E-07
vn -1 -3.039837E-07 7.152557E-07
vn -1 -3.039837E-07 7.152557E-07
vn -1 -2.980233E-07 9.536743E-07
vn 0 1 0
vn 0 1 0
vn 0 1 0
vn 0 1 0
vn 0 -1 0
vn 0 -1 0
vn 0 -1 0
vn 0 -1 0
vn 0 -1 0
vn 0 -1 0
vn 0 -1 0
vn 0 -1 0
vn -7.748545E-07 3.725281E-08 -1
vn -5.662412E-07 4.246821E-08 -1
vn -5.662412E-07 4.246821E-08 -1
vn -3.576279E-07 4.768361E-08 -1
vn 3.576279E-07 -3.874298E-08 1
vn 5.364391E-07 -4.321324E-08 1
vn 5.364391E-07 -4.321324E-08 1
vn 7.152504E-07 -4.76835E-08 1
vn 0 1 0
vn 0 1 0
vn 0 1 0
vn 0 1 0
vn -1 -1.132488E-07 4.768372E-07
vn -1 -1.16229E-07 5.960464E-07
vn -1 -1.16229E-07 5.960464E-07
vn -1 -1.192093E-07 7.152557E-07
vn 1 1.132488E-07 -7.152557E-07
vn 1 1.162291E-07 -5.960464E-07
vn 1 1.162291E-07 -5.960464E-07
vn 1 1.192093E-07 -4.768372E-07
vn 3.576279E-07 2.533201E-08 1
vn 5.662441E-07 -5.960398E-09 1
vn 5.662441E-07 -5.960398E-09 1
vn 7.748604E-07 -3.725281E-08 1
vt -0.7500033 -5
vt -1.000003 -5
vt -0.7500021 5
vt -1.000002 5
vt -2 -5
vt -2.25 -5
vt -1.999999 5
vt -2.249999 5
vt 1.000003 -5
vt 0.7500033 -5
vt 1.000002 5
vt 0.7500021 5
vt 2.25 -5
vt 2 -5
vt 2.25 5
vt 2 5
vt 0.7500022 -2
vt 1.000002 -2
vt 0.750002 -2.25
vt 1.000002 -2.25
vt -0.7500032 -2.25
vt -1.000003 -2.25
vt -0.7500033 -2
vt -1.000003 -2
vt 0.7499968 -2.25
vt 0.7499967 -2
vt 0.9999968 -2.25
vt 0.9999967 -2
vt -0.7499979 5
vt -0.7499967 -5
vt -0.9999998 5
vt -0.9999967 -5
vt 0.7499967 -5
vt 0.7499979 5
vt 0.9999967 -5
vt 0.9999997 5
vt -0.7499978 -1.999999
vt -0.749998 -2.249999
vt -0.9999996 -1.999999
vt -0.9999999 -2.249999
vt 2 -5
vt 2 5
vt 2.25 -5
vt 2.25 5
vt -2 5
vt -2 -5
vt -2.25 5
vt -2.25 -5
vt -0.7500033 -5
vt -0.7500021 5
vt 0.7499967 -5
vt 0.7499979 5
g submesh0
f 1/1/1 2/2/2 3/3/3
f 2/2/2 4/4/4 3/3/3
f 5/5/5 6/6/6 7/7/7
f 6/6/6 8/8/8 7/7/7
f 9/9/9 10/10/10 11/11/11
f 10/10/10 12/12/12 11/11/11
f 13/13/13 14/14/14 15/15/15
f 14/14/14 16/16/16 15/15/15
f 17/17/17 18/18/18 19/19/19
f 18/18/18 20/20/20 19/19/19
f 21/21/21 22/22/22 23/23/23
f 22/22/22 24/24/24 23/23/23
f 25/25/25 26/26/26 27/27/27
f 26/26/26 28/28/28 27/27/27
f 29/29/29 30/30/30 31/31/31
f 30/30/30 32/32/32 31/31/31
f 33/33/33 34/34/34 35/35/35
f 34/34/34 36/36/36 35/35/35
f 37/37/37 38/38/38 39/39/39
f 38/38/38 40/40/40 39/39/39
f 41/41/41 42/42/42 43/43/43
f 42/42/42 44/44/44 43/43/43
f 45/45/45 46/46/46 47/47/47
f 46/46/46 48/48/48 47/47/47
g submesh1
f 49/49/49 50/50/50 51/51/51
f 50/50/50 52/52/52 51/51/51
