v 1 -2 -1
v 3 -2 -4
v 3 -2 -1
v 1 -2 -4
v 1 -2 2
v 3 -2 2
v 3 1 -1
v 1 1 -1
v 1 1 2
v 3 1 2
v 3 4 -4
v 1 4 -4
v 1 4 -1
v 3 4 -1
v 1 4 -5
v 3 4 -5
v 1 4 -7
v 3 4 -6.999999
v -1.999998 4 -6.999999
v 1 4 -5
v -1.999999 4 -4.999999
v -3.999998 4 -6.000001
v -3.999999 4 -5
v 1 -2 2
v 3 -2 2
v 1 1 2
v 3 1 2
v 3 -2 -4
v 1 -2 -4
v 3 1 -4
v 1 1 -4
v 3 -2 2
v 3 -2 -1
v 3 1 -1
v 3 1 2
v 3 -2 -4
v 3 1 -4
v 1 1 -4
v 1 -2 -1
v 1 1 -1
v 1 -2 -4
v 1 -2 2
v 1 1 2
v 3 3 -6.999999
v 0.9999995 3 -7
v 3 4 -6.999999
v 1 4 -7
v 1 4 -4
v 1 4 -1
v 3 4 -1
v 3 4 -4
v 1 1 -1
v 3 1 -1
v 1 4 -1
v 3 4 -1
v 3 1 -4
v 1 1 -4
v 3 3 -5
v 0.9999995 2 -5
v 3 4 -5
v 3 3 -5
v 1 1 -4
v 1 4 -4
v 0.9999995 2 -5
v 1 4 -5
v 3 3 -5
v 0.9999995 2 -5
v 3 3 -6.999999
v 0.9999995 3 -7
v 3 4 -6.999999
v 3 3 -6.999999
v -3.999999 2 -5
v -3.999999 4 -5
v -3.999998 3 -6.000001
v -3.999998 4 -6.000001
v -1.999999 2 -4.999999
v 0.9999995 2 -5
v -1.999999 4 -4.999999
v 1 4 -5
v -3.999999 2 -5
v -3.999999 4 -5
v -1.999999 2 -4.999999
v -1.999998 3 -6.999999
v 0.9999995 2 -5
v 0.9999995 3 -7
v -3.999999 2 -5
v -3.999998 3 -6.000001
v -1.999999 2 -4.999999
v -1.999998 3 -6.999999
v 1 4 -7
v 0.9999995 3 -7
v -1.999998 4 -6.999999
v -1.999998 3 -6.999999
v -1.999998 4 -6.999999
v -1.999998 3 -6.999999
v -3.999998 4 -6.000001
v -3.999998 3 -6.000001
vn 0 -1 0
vn 0 -1 0
vn 0 -1 0
vn 0 -1 0
vn 0 -1 0
vn 0 -1 0
vn 0 1 0
vn 0 1 0
vn 0 1 0
vn 0 1 0
vn 0 1 0
vn 0 1 0
vn 0 1 0
vn 0 1 0
vn 0 1 0
vn 0 1 0
vn 0 1 0
vn 0 1 0
vn 0 1 0
vn 0 1 0
vn 0 1 0
vn 2.384186E-07 1 1.278976E-13
vn 2.384186E-07 1 1.705301E-13
vn 0 0 1
vn 0 0 1
vn 0 0 1
vn 0 0 1
vn 0 0 -1
vn 0 0 -1
vn 0 0 -1
vn 0 0 -1
vn 1 0 0
vn 1 0 0
vn 1 0 0
vn 1 0 0
vn 1 0 0
vn 1 0 0
vn -1 0 0
vn -1 0 0
vn -1 0 0
vn -1 0 0
vn -1 0 0
vn -1 0 0
vn 2.384186E-07 -2.273737E-13 -1
vn 2.384186E-07 -2.344791E-13 -1
vn 2.384186E-07 -2.344791E-13 -1
vn 2.384186E-07 -2.415845E-13 -1
vn -1 0 0
vn -1 0 0
vn 1 0 0
vn 1 0 0
vn 0 0 1
vn 0 0 1
vn 0 0 1
vn 0 0 1
vn 0 -0.4472136 -0.8944272
vn 0.1666665 -0.5569401 -0.7805471
vn 0.1666665 -0.5569401 -0.7805471
vn 0.333333 -0.6666665 -0.666667
vn 1 -1.192093E-07 -3.576279E-07
vn 1 -2.384186E-07 -7.152557E-07
vn -1 0 5.364421E-07
vn -1 1.341105E-07 2.68221E-07
vn -1 1.341105E-07 2.68221E-07
vn -1 2.682209E-07 0
vn 0.4472136 -0.8944272 -5.331204E-08
vn 0.2236068 -0.8944272 -0.2236068
vn 0.2236068 -0.8944272 -0.2236068
vn 1.06624E-07 -0.8944272 -0.4472136
vn 1 -5.960464E-07 5.960467E-08
vn 1 -9.536743E-07 -1.192093E-07
vn -1 -3.410599E-13 -7.152547E-07
vn -1 -1.7053E-13 -7.152549E-07
vn -1 -1.7053E-13 -7.152549E-07
vn -1 0 -7.152551E-07
vn 3.178916E-07 0 1
vn 3.973645E-07 1.192092E-07 1
vn 3.973645E-07 1.192092E-07 1
vn 4.768374E-07 2.384185E-07 1
vn -7.152557E-07 2.384185E-07 1
vn -9.536743E-07 4.768371E-07 1
vn -1.421655E-07 -0.8944272 -0.4472136
vn -1.421655E-07 -0.8944272 -0.4472136
vn -1.421655E-07 -0.8944272 -0.4472136
vn -1.421655E-07 -0.8944272 -0.4472136
vn 3.371745E-07 -0.7071075 -0.7071061
vn -0.1091085 -0.7899896 -0.571771
vn -0.1091085 -0.7899896 -0.571771
vn -0.2182173 -0.8728716 -0.4364359
vn -3.178916E-07 3.221129E-13 -1
vn -3.178916E-07 1.610564E-13 -1
vn -3.178916E-07 1.610564E-13 -1
vn -3.178917E-07 0 -1
vn -0.4472126 0 -0.8944277
vn -0.4472126 0 -0.8944277
vn -0.4472126 0 -0.8944277
vn -0.4472126 0 -0.8944277
vt -1 -1
vt -3 -4
vt -3 -1
vt -1 -4
vt -1 2
vt -3 2
vt 3 -1
vt 1 -1
vt 1 2
vt 3 2
vt 3 -4
vt 1 -4
vt 1 -1
vt 3 -1
vt 1 -5
vt 3 -5
vt 1 -7
vt 3 -6.999999
vt -1.999998 -6.999999
vt 0.9999995 -5
vt -1.999999 -4.999999
vt -3.999998 -6.000001
vt -3.999999 -5
vt -1 -2
vt -3 -2
vt -1 1
vt -3 1
vt 3 -2
vt 1 -2
vt 3 1
vt 1 1
vt 2 -2
vt -1 -2
vt -1 1
vt 2 1
vt -4 -2
vt -4 1
vt 4 1
vt 1 -2
vt 1 1
vt 4 -2
vt -2 -2
vt -2 1
vt 2.999998 3
vt 0.9999978 3
vt 2.999999 4
vt 0.9999988 4
vt 4 4
vt 1 4
vt -1 4
vt -4 4
vt -1 1
vt -3 1
vt -1 4
vt -3 4
vt 3 2.683281
vt 1 2.683281
vt 3 4.91935
vt 0.9999995 4.024922
vt -5 4
vt -5 3
vt 4 1
vt 4 4
vt 4.999999 2
vt 5 4
vt -4.024922 -5
vt -1.788854 -5
vt -4.024922 -6.999999
vt -2.236068 -7
vt -7 4
vt -7 3.000001
vt 4.999997 2
vt 4.999998 4
vt 5.999999 3
vt 5.999999 4
vt 1.999999 2
vt -0.999999 2
vt 1.999999 4
vt -0.9999996 4
vt 3.999999 2
vt 3.999999 4
vt 1.999998 -5.225631
vt 1.999998 -7.432826
vt -0.9999997 -5.225631
vt -0.9999998 -7.432826
vt 3.999998 -5.225632
vt 3.999997 -6.621585
vt 1.999998 -5.225631
vt 1.999998 -7.432826
vt 2.581517 4
vt 2.581516 3
vt -0.3382288 4
vt -0.3382288 3
vt -0.3382288 4
vt -0.3382288 3
vt -2.514479 4
vt -2.514479 3
g submesh0
f 1/1/1 2/2/2 3/3/3
f 1/1/1 4/4/4 2/2/2
f 5/5/5 3/3/3 6/6/6
f 5/5/5 1/1/1 3/3/3
g submesh1
f 7/7/7 8/8/8 9/9/9
f 10/10/10 7/7/7 9/9/9
f 11/11/11 12/12/12 13/13/13
f 14/14/14 11/11/11 13/13/13
f 12/12/12 11/11/11 15/15/15
f 11/11/11 16/16/16 15/15/15
f 15/15/15 16/16/16 17/17/17
f 16/16/16 18/18/18 17/17/17
f 17/17/17 19/19/19 20/20/20
f 20/20/20 19/19/19 21/21/21
f 19/19/19 22/22/22 21/21/21
f 21/21/21 22/22/22 23/23/23
g submesh2
f 24/24/24 25/25/25 26/26/26
f 25/25/25 27/27/27 26/26/26
f 28/28/28 29/29/29 30/30/30
f 29/29/29 31/31/31 30/30/30
f 32/32/32 33/33/33 34/34/34
f 35/35/35 32/32/32 34/34/34
f 33/33/33 36/36/36 37/37/37
f 34/34/34 33/33/33 37/37/37
f 38/38/38 39/39/39 40/40/40
f 38/38/38 41/41/41 39/39/39
f 40/40/40 42/42/42 43/43/43
f 40/40/40 39/39/39 42/42/42
f 44/44/44 45/45/45 46/46/46
f 45/45/45 47/47/47 46/46/46
f 38/38/38 40/40/40 48/48/48
f 40/40/40 49/49/49 48/48/48
f 34/34/34 37/37/37 50/50/50
f 37/37/37 51/51/51 50/50/50
f 52/52/52 53/53/53 54/54/54
f 53/53/53 55/55/55 54/54/54
f 56/56/56 57/57/57 58/58/58
f 57/57/57 59/59/59 58/58/58
f 51/51/51 37/37/37 60/60/60
f 37/37/37 61/61/61 60/60/60
f 62/62/62 63/63/63 64/64/64
f 63/63/63 65/65/65 64/64/64
f 66/66/66 67/67/67 68/68/68
f 67/67/67 69/69/69 68/68/68
f 60/60/60 61/61/61 70/70/70
f 61/61/61 71/71/71 70/70/70
f 72/72/72 73/73/73 74/74/74
f 73/73/73 75/75/75 74/74/74
f 76/76/76 77/77/77 78/78/78
f 78/78/78 77/77/77 79/79/79
f 80/80/80 76/76/76 78/78/78
f 80/80/80 78/78/78 81/81/81
f 82/82/82 83/83/83 84/84/84
f 83/83/83 85/85/85 84/84/84
f 86/86/86 87/87/87 88/88/88
f 88/88/88 87/87/87 89/89/89
f 90/90/90 91/91/91 92/92/92
f 92/92/92 91/91/91 93/93/93
f 94/94/94 95/95/95 96/96/96
f 95/95/95 97/97/97 96/96/96
