v -2 0 0
v 2 0 -3.576279E-07
v -2 3 0
v 2 3 -3.576279E-07
v 2 0 -3.576279E-07
v 2 0 -1
v 2 3 -3.576279E-07
v 2 3 -1
v 2.384186E-07 0 -2.000001
v -2.000001 0 -4.000001
v 1.000001 3 -2.000001
v -2.000002 3 -3.000001
v -2 0 -2.000001
v -2 0 0
v -2 3 -2.000001
v -2 3 0
v -2 0 -2.000001
v 2 0 -1
v -2 0 0
v 2 0 -3.576279E-07
v 2.384186E-07 0 -2.000001
v -2.000001 0 -4.000001
v 2 3 -1
v 2 0 -1
v 1.000001 3 -2.000001
v 2.384186E-07 0 -2.000001
v -2.000001 0 -4.000001
v -2.000002 3 -3.000001
v -2 3 0
v 2 3 -3.576279E-07
v -2 3 -2.000001
v 2 3 -1
v -2.000002 3 -3.000001
v 1.000001 3 -2.000001
vn 8.940695E-08 0 1
vn 8.940695E-08 0 1
vn 8.940695E-08 0 1
vn 8.940695E-08 0 1
vn 1 0 0
vn 1 0 0
vn 1 0 0
vn 1 0 0
vn 0.688247 -0.2294159 -0.6882474
vn 0.4948791 0.0360478 -0.7963907
vn 0.4948791 0.0360478 -0.7963907
vn 0.3015111 0.3015115 -0.904534
vn -1 0 2.384185E-07
vn -1 0 2.384185E-07
vn -1 0 2.384185E-07
vn -1 0 2.384185E-07
vn 0 -1 0
vn 0 -1 0
vn 0 -1 0
vn 0 -1 0
vn 0 -1 0
vn 0 -1 0
vn 0.7071071 0 -0.7071065
vn 0.5747165 -0.07372105 -0.7958791
vn 0.5747165 -0.07372105 -0.7958791
vn 0.4423259 -0.1474421 -0.8846517
vn -1 -3.973643E-07 8.34465E-07
vn -1 -7.947286E-07 1.430511E-06
vn 0 1 0
vn 0 1 0
vn 0 1 0
vn 0 1 0
vn 0 1 0
vn 0 1 0
vt 2 0
vt -2 0
vt 2 3
vt -2 3
vt -3.576279E-07 0
vt -1 0
vt -3.576279E-07 3
vt -1 3
vt -1.414214 0.3244433
vt -4.242641 0.3244433
vt -0.707106 3.40665
vt -3.535536 3.082207
vt 2.000001 0
vt 4.768369E-07 0
vt 2.000001 3
vt 4.768369E-07 3
vt 2 -2.000001
vt -2 -1
vt 2 0
vt -2 -3.576279E-07
vt -2.384186E-07 -2.000001
vt 2.000001 -4.000001
vt 0.7071059 3
vt 0.7071059 0
vt -0.7071074 3
vt -1.414214 0
vt 4.000001 0
vt 3.000001 3
vt -2 0
vt 2 -3.576279E-07
vt -2 -2.000001
vt 2 -1
vt -2.000002 -3.000001
vt 1.000001 -2.000001
g submesh0
f 1/1/1 2/2/2 3/3/3
f 2/2/2 4/4/4 3/3/3
f 5/5/5 6/6/6 7/7/7
f 6/6/6 8/8/8 7/7/7
f 9/9/9 10/10/10 11/11/11
f 10/10/10 12/12/12 11/11/11
f 13/13/13 14/14/14 15/15/15
f 14/14/14 16/16/16 15/15/15
f 17/17/17 18/18/18 19/19/19
f 18/18/18 20/20/20 19/19/19
f 18/18/18 17/17/17 21/21/21
f 17/17/17 22/22/22 21/21/21
f 23/23/23 24/24/24 25/25/25
f 24/24/24 26/26/26 25/25/25
f 13/13/13 15/15/15 27/27/27
f 15/15/15 28/28/28 27/27/27
g submesh1
f 29/29/29 30/30/30 31/31/31
f 30/30/30 32/32/32 31/31/31
f 31/31/31 32/32/32 33/33/33
f 32/32/32 34/34/34 33/33/33
