v -2 0 0
v 2 0 0
v -1.168579 4 0.9064178
v 2.226281 4 -1.208986
v 2 0 0
v 2 0 -2
v 2.226281 4 -1.208986
v 1.168579 4 -2.906417
v 2 0 -2
v -2 0 -2
v 1.168579 4 -2.906417
v -2.226281 4 -0.791014
v -2 0 -2
v -2 0 0
v -2.226281 4 -0.791014
v -1.168579 4 0.9064178
v -2 0 -2
v 2 0 -2
v -2 0 0
v 2 0 0
v -1.168579 4 0.9064178
v 2.226281 4 -1.208986
v -2.226281 4 -0.791014
v 1.168579 4 -2.906417
vn 0 -0.2210013 0.9752735
vn 0.2578871 -3.20375E-07 0.9015014
vn 0.2578871 -3.20375E-07 0.9015014
vn 0.5157742 0.2210007 0.8277292
vn 0.9984037 -0.05648005 0
vn 0.922882 -1.769513E-07 -0.2640032
vn 0.922882 -1.769513E-07 -0.2640032
vn 0.8473602 0.0564797 -0.5280064
vn 0 -0.2210012 -0.9752735
vn -0.2578871 -2.011657E-07 -0.9015014
vn -0.2578871 -2.011657E-07 -0.9015014
vn -0.5157742 0.2210008 -0.8277292
vn -0.9984037 -0.05647999 0
vn -0.922882 -1.378357E-07 0.2640032
vn -0.922882 -1.378357E-07 0.2640032
vn -0.8473602 0.05647971 0.5280064
vn 0 -1 0
vn 0 -1 0
vn 0 -1 0
vn 0 -1 0
vn 0 1 0
vn 0 1 0
vn 0 1 0
vn 0 1 0
vt 2 0
vt -2 0
vt 1.168579 4.101413
vt -2.226281 3.633907
vt 0 0.1129601
vt -2 0.1129601
vt -1.208986 4.119355
vt -2.906417 4.059616
vt 2 0.4420024
vt -2 0.4420024
vt 1.168579 4.543416
vt -2.226281 4.075909
vt 2 0.11296
vt 0 0.11296
vt 0.791014 4.119355
vt -0.9064178 4.059616
vt 2 -2
vt -2 -2
vt 2 0
vt -2 0
vt -1.168579 0.9064178
vt 2.226281 -1.208986
vt -2.226281 -0.791014
vt 1.168579 -2.906417
g submesh0
f 1/1/1 2/2/2 3/3/3
f 2/2/2 4/4/4 3/3/3
f 5/5/5 6/6/6 7/7/7
f 6/6/6 8/8/8 7/7/7
f 9/9/9 10/10/10 11/11/11
f 10/10/10 12/12/12 11/11/11
f 13/13/13 14/14/14 15/15/15
f 14/14/14 16/16/16 15/15/15
f 17/17/17 18/18/18 19/19/19
f 18/18/18 20/20/20 19/19/19
g submesh1
f 21/21/21 22/22/22 23/23/23
f 22/22/22 24/24/24 23/23/23
