v 4 2 0
v 4 2 -1
v 4 3 0
v 4 3 -1
v -4 2 -1
v -4 2 0
v -4 3 -1
v -4 3 0
v -4 2 0
v 0 2 0
v 0 3 0
v -4 3 0
v 4 2 0
v 4 3 0
v 4 3 -2
v 0 2 -2
v 0 3 -2
v 4 2 -2
v 0 3 -1
v -4 2 -1
v -4 3 -1
v 0 2 -1
v -4 2 0
v 0 2 -1
v 0 2 0
v -4 2 -1
v 4 2 -1
v 4 2 0
v 0 2 -1
v 0 3 -1
v 0 2 -2
v 0 3 -2
v 4 3 -2
v 4 2 -2
v 4 2 -2
v 0 2 -2
v 0 3 -1
v -4 3 -1
v -4 3 0
v 0 3 0
v 4 3 -1
v 4 3 0
v 0 3 -2
v 4 3 -2
vn 1 0 0
vn 1 0 0
vn 1 0 0
vn 1 0 0
vn -1 0 0
vn -1 0 0
vn -1 0 0
vn -1 0 0
vn 0 0 1
vn 0 0 1
vn 0 0 1
vn 0 0 1
vn 0 0 1
vn 0 0 1
vn 0 0 -1
vn 0 0 -1
vn 0 0 -1
vn 0 0 -1
vn 0 0 -1
vn 0 0 -1
vn 0 0 -1
vn 0 0 -1
vn 0 -1 0
vn 0 -1 0
vn 0 -1 0
vn 0 -1 0
vn 0 -1 0
vn 0 -1 0
vn -1 0 0
vn -1 0 0
vn -1 0 0
vn -1 0 0
vn 1 0 0
vn 1 0 0
vn 0 -1 0
vn 0 -1 0
vn 0 1 0
vn 0 1 0
vn 0 1 0
vn 0 1 0
vn 0 1 0
vn 0 1 0
vn 0 1 0
vn 0 1 0
vt 0 2
vt -1 2
vt 0 3
vt -1 3
vt 1 2
vt 0 2
vt 1 3
vt 0 3
vt 4 2
vt 0 2
vt 0 3
vt 4 3
vt -4 2
vt -4 3
vt 4 3
vt 0 2
vt 0 3
vt 4 2
vt 0 3
vt -4 2
vt -4 3
vt 0 2
vt 4 0
vt 0 -1
vt 0 0
vt 4 -1
vt -4 -1
vt -4 0
vt 1 2
vt 1 3
vt 2 2
vt 2 3
vt -2 3
vt -2 2
vt -4 -2
vt 0 -2
vt 0 -1
vt -4 -1
vt -4 0
vt 0 0
vt 4 -1
vt 4 0
vt 0 -2
vt 4 -2
g submesh0
f 1/1/1 2/2/2 3/3/3
f 2/2/2 4/4/4 3/3/3
f 5/5/5 6/6/6 7/7/7
f 6/6/6 8/8/8 7/7/7
f 9/9/9 10/10/10 11/11/11
f 12/12/12 9/9/9 11/11/11
f 10/10/10 13/13/13 14/14/14
f 11/11/11 10/10/10 14/14/14
f 15/15/15 16/16/16 17/17/17
f 15/15/15 18/18/18 16/16/16
f 19/19/19 20/20/20 21/21/21
f 19/19/19 22/22/22 20/20/20
f 23/23/23 24/24/24 25/25/25
f 23/23/23 26/26/26 24/24/24
f 25/25/25 27/27/27 28/28/28
f 25/25/25 24/24/24 27/27/27
f 29/29/29 30/30/30 31/31/31
f 30/30/30 32/32/32 31/31/31
f 4/4/4 2/2/2 33/33/33
f 2/2/2 34/34/34 33/33/33
f 27/27/27 24/24/24 35/35/35
f 24/24/24 36/36/36 35/35/35
g submesh1
f 37/37/37 38/38/38 39/39/39
f 40/40/40 37/37/37 39/39/39
f 41/41/41 37/37/37 40/40/40
f 42/42/42 41/41/41 40/40/40
f 37/37/37 41/41/41 43/43/43
f 41/41/41 44/44/44 43/43/43
