v -10 -14 10
v -10 -17 -10
v -10 -20 10
v -10 -23 -10
v 10 -17 -10
v 10 -17 10
v 10 -23 -10
v 10 -23 10
v -10 -20 10
v 0 -23 -10
v 0 -23 10
v -10 -23 -10
v 0 -23 10
v 10 -23 -10
v 10 -23 10
v 0 -23 -10
v 0 -17 -10
v -10 -23 -10
v -10 -17 -10
v 0 -23 -10
v 10 -17 -10
v 10 -23 -10
v 0 -23 10
v 10 -23 10
v 10 -17 10
v 0 -17 10
v -10 -20 10
v -10 -14 10
v 0 -17 -10
v -10 -17 -10
v -10 -2 10
v 0 -5 10
v 10 -17 -10
v 0 -17 -10
v 0 -5 10
v 2 -5 10
v 0 -5 10
v -10 -2 10
v 0 -5 18
v -10 -2 18
v 2 -5 10
v 0 -5 10
v 0 -5 18
v -10 -2 18
v -10 -2 10
v -30 2 18
v -30 2 10
v -30 2 18
v -30 2 10
v -35 2 18
v -35 2 10
v -30 2 -2
v -35 2 -2
v -30 2 -10
v -35 2 -10
v 10 -17 10
v 10 -17 -10
v 2 -5 10
v -10 -14 10
v -10 -2 10
v -10 -17 -10
v -10 -14 18
v 0 -17 18
v 0 -5 18
v -10 -2 18
v 10 -17 18
v -10 -14 10
v 0 -17 10
v -10 -14 18
v 0 -17 18
v 0 -17 10
v 0 -5 10
v 0 -17 18
v 0 -5 18
v -35 2 10
v -35 0 10
v -35 2 18
v -35 1 18
v 0 -17 10
v 10 -17 10
v 0 -17 18
v 10 -17 18
v 2 -5 10
v 10 -17 18
v 0 -5 18
v 0 -5 10
v 0 -17 10
v 0 -5 18
v 0 -17 18
v -10 -2 10
v -10 -14 10
v -30 2 10
v -27 -14 10
v -10 -14 10
v -10 -14 18
v -27 -14 10
v -25 -14 16
v -10 -14 18
v -10 -2 18
v -25 -14 16
v -30 2 18
v -30 -1 10
v -27 -14 10
v -25 -14 16
v -30 -1 10
v -30 -1 18
v -25 -14 16
v -30 2 18
v -30 -1 18
v -30 2 -10
v -30 1 -10
v -35 2 -10
v -35 1 -10
v -30 -1 10
v -30 -1 18
v -35 0 10
v -35 1 18
v -30 -1 18
v -30 2 18
v -35 1 18
v -35 2 18
v -30 -1 10
v -30 -1 -2
v -30 2 -2
v -30 2 10
v -30 1 -10
v -30 2 -10
v -35 0 10
v -30 -1 -2
v -30 -1 10
v -35 0 -2
v -35 0 -2
v -30 1 -10
v -30 -1 -2
v -35 1 -10
v -35 2 -2
v -35 0 -2
v -35 2 -10
v -35 1 -10
vn -1 0 0
vn -1 0 0
vn -1 0 0
vn -1 0 0
vn 1 0 0
vn 1 0 0
vn 1 0 0
vn 1 0 0
vn -0.1436739 -0.9733813 0.07417022
vn -0.1436739 -0.9733813 0.07417022
vn -0.2873479 -0.9578263 0
vn 0 -0.9889364 0.1483404
vn 0 -1 0
vn 0 -1 0
vn 0 -1 0
vn 0 -1 0
vn 0 0 -1
vn 0 0 -1
vn 0 0 -1
vn 0 0 -1
vn 0 0 -1
vn 0 0 -1
vn 0 0 1
vn 0 0 1
vn 0 0 1
vn 0 0 1
vn 0 0 1
vn 0 0 1
vn 0.1245682 0.8152274 -0.5491365
vn 0 0.8 -0.6
vn 0.1245682 0.8152274 -0.5491365
vn 0.2491364 0.8304548 -0.4982729
vn 0 0.8574929 -0.5144957
vn 0 0.8574929 -0.5144957
vn 0 0.8574929 -0.5144957
vn 0 0.8574929 -0.5144957
vn 0.2873479 0.9578263 0
vn 0.2873479 0.9578263 0
vn 0.2873479 0.9578263 0
vn 0.2873479 0.9578263 0
vn 0 1 0
vn 0 1 0
vn 0 1 0
vn 0.1961161 0.9805807 0
vn 0.1961161 0.9805807 0
vn 0.1961161 0.9805807 0
vn 0.1961161 0.9805807 0
vn 0 1 0
vn 0 1 0
vn 0 1 0
vn 0 1 0
vn 0 1 0
vn 0 1 0
vn 0 1 0
vn 0 1 0
vn 0.8320503 0.5547002 0
vn 0.8320503 0.5547002 0
vn 0.8320503 0.5547002 0
vn -1 0 0
vn -1 0 0
vn -1 0 0
vn 0 0 1
vn 0 0 1
vn 0 0 1
vn 0 0 1
vn 0 0 1
vn -0.2873479 -0.9578263 0
vn -0.2873479 -0.9578263 0
vn -0.2873479 -0.9578263 0
vn -0.2873479 -0.9578263 0
vn 1 0 0
vn 1 0 0
vn 1 0 0
vn 1 0 0
vn -1 0 0
vn -1 0 0
vn -1 0 0
vn -1 0 0
vn 0 -1 0
vn 0 -1 0
vn 0 -1 0
vn 0 -1 0
vn 0.793242 0.5916975 0.0943042
vn 0.793242 0.5916975 0.0943042
vn 0.7544336 0.6286947 0.1886084
vn -1 0 0
vn -1 0 0
vn -1 0 0
vn -1 0 0
vn 0 0 -1
vn 0 0 -1
vn 0 0 -1
vn 0 0 -1
vn 0 -1 0
vn 0 -1 0
vn 0 -1 0
vn 0 -1 0
vn -0.1321637 0 0.9912279
vn -0.07929362 -0.06605878 0.9910548
vn -0.07929362 -0.06605878 0.9910548
vn -0.02642351 -0.1321176 0.9908817
vn 0 0 -1
vn -0.9267345 -0.2138618 0.3089115
vn -0.9300401 -0.2864205 0.1544558
vn -0.9300401 -0.2864205 0.1544558
vn -0.9333456 -0.3589791 0
vn 0.3713907 0 0.9284767
vn 0.3713907 0 0.9284767
vn 0.3713907 0 0.9284767
vn 0 0 -1
vn 0 0 -1
vn 0 0 -1
vn 0 0 -1
vn -0.1961161 -0.9805807 0
vn -0.2825153 -0.9514333 0.05764287
vn -0.2825153 -0.9514333 0.05764287
vn -0.3689144 -0.922286 0.1152857
vn 0 0 1
vn 0 0 1
vn 0 0 1
vn 0 0 1
vn 1 0 0
vn 1 0 0
vn 1 0 0
vn 1 0 0
vn 1 0 0
vn 1 0 0
vn -0.1961161 -0.9805807 0
vn -0.1961161 -0.9805807 0
vn -0.1961161 -0.9805807 0
vn -0.1961161 -0.9805807 0
vn -0.0952381 -0.9723294 -0.181065
vn -0.0952381 -0.9723294 -0.181065
vn -0.1904762 -0.952381 -0.2380952
vn 0 -0.9922779 -0.1240347
vn -1 0 0
vn -1 0 0
vn -1 0 0
vn -1 0 0
vt -10 -14
vt 10 -17
vt -10 -20
vt 10 -23
vt -10 -17
vt 10 -17
vt -10 -23
vt 10 -23
vt 6.989741 10
vt -3.339902 -10
vt -3.339902 10
vt 6.554101 -10
vt -3.339902 10
vt -13.23391 -10
vt -13.23391 10
vt -3.339902 -10
vt 0 -17
vt -10 -23
vt -10 -17
vt 0 -23
vt 10 -17
vt 10 -23
vt 0 -23
vt -10 -23
vt -10 -17
vt 0 -17
vt 10 -20
vt 10 -14
vt 0 -17.78429
vt -10 -17.78429
vt -10 7.182507
vt 0 5.50854
vt 10 -17.78429
vt 0 -17.78429
vt 0 5.50854
vt 2 5.50854
vt 1.436739 10
vt -9.003567 10
vt 1.436739 18
vt -9.003567 18
vt 2 10
vt 0 10
vt 0 18
vt -9.413574 18
vt -9.413574 10
vt -29.80965 18
vt -29.80965 10
vt -30 18
vt -30 10
vt -35 18
vt -35 10
vt -30 -2
vt -35 -2
vt -30 -10
vt -35 -10
vt 10 -19.69186
vt -10 -19.69186
vt 10 -5.269652
vt -10 -14
vt -10 -2
vt 10 -17
vt 10 -14
vt 0 -17
vt 0 -5
vt 10 -2
vt -10 -17
vt 5.555392 10
vt -4.884914 10
vt 5.555392 18
vt -4.884914 18
vt 10 -17
vt 10 -5
vt 18 -17
vt 18 -5
vt -10 2
vt -10 0
vt -18 2
vt -18 1
vt 0 10
vt -10 10
vt 0 18
vt -10 18
vt 10 -5.269652
vt 18 -19.69186
vt 18 -4.160252
vt -10 -5
vt -10 -17
vt -18 -5
vt -18 -17
vt -10 -2
vt -10 -14
vt -30 2
vt -27 -14
vt 10 10
vt 10 18
vt 27 10
vt 25 16
vt 7.533332 -14
vt 7.533332 -2
vt 22.66608 -14
vt 27.35789 2
vt -30 -1
vt -0.9486828 -7.521852
vt -7.273238 -7.521852
vt 5.960464E-07 5.78604
vt -7.589466 6.327073
vt 29.15417 -14
vt 34.53933 2
vt 34.53933 -1
vt -30 2
vt -30 1
vt -35 2
vt -35 1
vt 29.2213 10
vt 29.2213 18
vt 34.32032 10
vt 34.51644 18
vt 30 -1
vt 30 2
vt 35 1
vt 35 2
vt 10 -1
vt -2 -1
vt -2 2
vt 10 2
vt -10 1
vt -10 2
vt 34.32032 10.75093
vt 29.2213 -1.162479
vt 29.2213 10.75093
vt 34.32032 -1.162479
vt 34.32032 -1.162479
vt 29.61354 -9.339923
vt 29.2213 -1.162479
vt 34.51644 -9.222339
vt 2 2
vt 2 0
vt 10 2
vt 10 1
g submesh0
f 1/1/1 2/2/2 3/3/3
f 2/2/2 4/4/4 3/3/3
f 5/5/5 6/6/6 7/7/7
f 6/6/6 8/8/8 7/7/7
f 9/9/9 10/10/10 11/11/11
f 9/9/9 12/12/12 10/10/10
f 13/13/13 14/14/14 15/15/15
f 13/13/13 16/16/16 14/14/14
f 17/17/17 18/18/18 19/19/19
f 17/17/17 20/20/20 18/18/18
f 21/21/21 20/20/20 17/17/17
f 21/21/21 22/22/22 20/20/20
f 23/23/23 24/24/24 25/25/25
f 26/26/26 23/23/23 25/25/25
f 27/27/27 23/23/23 26/26/26
f 28/28/28 27/27/27 26/26/26
g submesh1
f 29/29/29 30/30/30 31/31/31
f 32/32/32 29/29/29 31/31/31
f 33/33/33 34/34/34 35/35/35
f 36/36/36 33/33/33 35/35/35
f 37/37/37 38/38/38 39/39/39
f 38/38/38 40/40/40 39/39/39
f 41/41/41 42/42/42 43/43/43
f 44/44/44 45/45/45 46/46/46
f 45/45/45 47/47/47 46/46/46
f 48/48/48 49/49/49 50/50/50
f 49/49/49 51/51/51 50/50/50
f 52/52/52 53/53/53 51/51/51
f 49/49/49 52/52/52 51/51/51
f 54/54/54 55/55/55 53/53/53
f 52/52/52 54/54/54 53/53/53
g submesh2
f 56/56/56 57/57/57 58/58/58
f 59/59/59 60/60/60 61/61/61
f 62/62/62 63/63/63 64/64/64
f 65/65/65 62/62/62 64/64/64
f 63/63/63 66/66/66 64/64/64
f 67/67/67 68/68/68 69/69/69
f 68/68/68 70/70/70 69/69/69
f 71/71/71 72/72/72 73/73/73
f 72/72/72 74/74/74 73/73/73
f 75/75/75 76/76/76 77/77/77
f 76/76/76 78/78/78 77/77/77
f 79/79/79 80/80/80 81/81/81
f 80/80/80 82/82/82 81/81/81
f 56/56/56 83/83/83 84/84/84
f 83/83/83 85/85/85 84/84/84
f 86/86/86 87/87/87 88/88/88
f 87/87/87 89/89/89 88/88/88
f 90/90/90 91/91/91 92/92/92
f 91/91/91 93/93/93 92/92/92
f 94/94/94 95/95/95 96/96/96
f 95/95/95 97/97/97 96/96/96
f 98/98/98 99/99/99 100/100/100
f 99/99/99 101/101/101 100/100/100
f 93/93/93 102/102/102 92/92/92
f 103/103/103 104/104/104 105/105/105
f 104/104/104 106/106/106 105/105/105
f 107/107/107 108/108/108 109/109/109
f 110/110/110 111/111/111 112/112/112
f 111/111/111 113/113/113 112/112/112
f 114/114/114 115/115/115 116/116/116
f 115/115/115 117/117/117 116/116/116
f 118/118/118 119/119/119 120/120/120
f 119/119/119 121/121/121 120/120/120
f 122/122/122 123/123/123 124/124/124
f 125/125/125 122/122/122 124/124/124
f 123/123/123 126/126/126 127/127/127
f 124/124/124 123/123/123 127/127/127
f 128/128/128 129/129/129 130/130/130
f 128/128/128 131/131/131 129/129/129
f 132/132/132 133/133/133 134/134/134
f 132/132/132 135/135/135 133/133/133
f 136/136/136 76/76/76 75/75/75
f 136/136/136 137/137/137 76/76/76
f 138/138/138 137/137/137 136/136/136
f 138/138/138 139/139/139 137/137/137
