v -2 0 0
v 0 0 0
v -2 3 0
v 0 3 0
v 0 0 -4
v -2 0 -4
v 0 3 -4
v -2 3 -4
v 0 3 0
v 0 0 0
v 0 3 4
v 0 0 4
v 4 0 0
v 4 3 0
v 4 0 4
v 4 3 4
v 4 0 0
v 4 0 -2
v 4 3 -2
v 4 3 0
v 4 0 -2
v 3 0 -3
v 3 3 -3
v 4 3 -2
v -2 3 -4
v -2 0 -2
v -2 3 -2
v -2 0 -4
v -2 0 0
v -2 3 0
v -2 0 -2
v 0 0 -4
v 0 0 -2
v -2 0 -4
v -2 0 0
v 0 0 0
v 0 0 8
v 4 0 8
v 4 3 8
v 0 3 8
v 4 0 8
v 5 0 7
v 5 3 7
v 4 3 8
v 2 3 -4
v 0 0 -4
v 0 3 -4
v 2 0 -4
v 3 3 -3
v 2 0 -4
v 2 3 -4
v 3 0 -3
v 0 0 4
v 2 0 0
v 2 0 4
v 4 0 0
v 4 0 4
v 4 0 -2
v 2 0 -2
v 3 0 -3
v 2 0 -4
v 0 0 8
v 4 0 8
v 0 3 8
v 0 0 8
v 5 0 7
v 4 0 4
v 4 3 4
v 5 0 7
v 5 3 7
v 0 3 -2
v -2 3 -2
v -2 3 0
v 0 3 0
v 0 3 -4
v -2 3 -4
v 4 3 0
v 2 3 0
v 2 3 4
v 4 3 4
v 0 3 4
v 3 3 -3
v 2 3 -4
v 2 3 -2
v 4 3 -2
v 5 3 7
v 4 3 8
v 0 3 8
vn 0 0 1
vn 0 0 1
vn 0 0 1
vn 0 0 1
vn 0 0 -1
vn 0 0 -1
vn 0 0 -1
vn 0 0 -1
vn -1 0 0
vn -1 0 0
vn -1 0 0
vn -1 0 0
vn 1 0 0
vn 1 0 0
vn 1 0 0
vn 1 0 0
vn 1 0 0
vn 1 0 0
vn 1 0 0
vn 1 0 0
vn 0.7071068 0 -0.7071068
vn 0.7071068 0 -0.7071068
vn 0.7071068 0 -0.7071068
vn 0.7071068 0 -0.7071068
vn -1 0 0
vn -1 0 0
vn -1 0 0
vn -1 0 0
vn -1 0 0
vn -1 0 0
vn 0 -1 0
vn 0 -1 0
vn 0 -1 0
vn 0 -1 0
vn 0 -1 0
vn 0 -1 0
vn 0 0 1
vn 0 0 1
vn 0 0 1
vn 0 0 1
vn 0.7071068 0 0.7071068
vn 0.7071068 0 0.7071068
vn 0.7071068 0 0.7071068
vn 0.7071068 0 0.7071068
vn 0 0 -1
vn 0 0 -1
vn 0 0 -1
vn 0 0 -1
vn 0.7071068 0 -0.7071068
vn 0.7071068 0 -0.7071068
vn 0.7071068 0 -0.7071068
vn 0.7071068 0 -0.7071068
vn 0 -1 0
vn 0 -1 0
vn 0 -1 0
vn 0 -1 0
vn 0 -1 0
vn 0 -1 0
vn 0 -1 0
vn 0 -1 0
vn 0 -1 0
vn 0 -1 0
vn 0 -1 0
vn -1 0 0
vn -1 0 0
vn 0 -1 0
vn 0.9486833 0 -0.3162278
vn 0.9486833 0 -0.3162278
vn 0.9486833 0 -0.3162278
vn 0.9486833 0 -0.3162278
vn 0 1 0
vn 0 1 0
vn 0 1 0
vn 0 1 0
vn 0 1 0
vn 0 1 0
vn 0 1 0
vn 0 1 0
vn 0 1 0
vn 0 1 0
vn 0 1 0
vn 0 1 0
vn 0 1 0
vn 0 1 0
vn 0 1 0
vn 0 1 0
vn 0 1 0
vn 0 1 0
vt 2 0
vt 0 0
vt 2 3
vt 0 3
vt 0 0
vt -2 0
vt 0 3
vt -2 3
vt 0 3
vt 0 0
vt -4 3
vt -4 0
vt 0 0
vt 0 3
vt 4 0
vt 4 3
vt 1.530734 0
vt -0.3170252 0
vt -0.3170252 3
vt 1.530734 3
vt -0.3170252 0
vt -1.623588 0
vt -1.623588 3
vt -0.3170252 3
vt 4 3
vt 2 0
vt 2 3
vt 4 0
vt 0 0
vt 0 3
vt 2 -2
vt 0 -4
vt 0 -2
vt 2 -4
vt 2 0
vt 0 0
vt 0 0
vt -4 0
vt -4 3
vt 0 3
vt 2.828427 0
vt 1.414214 0
vt 1.414214 3
vt 2.828427 3
vt 0.3170252 3
vt -1.530734 0
vt -1.530734 3
vt 0.3170252 0
vt 1.623588 3
vt 0.3170252 0
vt 0.3170252 3
vt 1.623588 0
vt 0 4
vt -2 0
vt -2 4
vt -4 0
vt -4 4
vt -4 -2
vt -2 -2
vt -3 -3
vt -2 -4
vt 0 8
vt -4 8
vt -8 3
vt -8 0
vt -5 7
vt 5.059644 0
vt 5.059644 3
vt 8.221922 0
vt 8.221922 3
vt 0 -2
vt -2 -2
vt -2 0
vt 0 0
vt 0 -4
vt -2 -4
vt 4 0
vt 2 0
vt 2 4
vt 4 4
vt 0 4
vt 3 -3
vt 2 -4
vt 2 -2
vt 4 -2
vt 5 7
vt 4 8
vt 0 8
g submesh0
f 1/1/1 2/2/2 3/3/3
f 2/2/2 4/4/4 3/3/3
f 5/5/5 6/6/6 7/7/7
f 6/6/6 8/8/8 7/7/7
f 9/9/9 10/10/10 11/11/11
f 10/10/10 12/12/12 11/11/11
f 13/13/13 14/14/14 15/15/15
f 14/14/14 16/16/16 15/15/15
f 17/17/17 18/18/18 19/19/19
f 20/20/20 17/17/17 19/19/19
f 21/21/21 22/22/22 23/23/23
f 24/24/24 21/21/21 23/23/23
f 25/25/25 26/26/26 27/27/27
f 25/25/25 28/28/28 26/26/26
f 27/27/27 29/29/29 30/30/30
f 27/27/27 26/26/26 29/29/29
f 31/31/31 32/32/32 33/33/33
f 31/31/31 34/34/34 32/32/32
f 35/35/35 33/33/33 36/36/36
f 35/35/35 31/31/31 33/33/33
f 37/37/37 38/38/38 39/39/39
f 40/40/40 37/37/37 39/39/39
f 41/41/41 42/42/42 43/43/43
f 44/44/44 41/41/41 43/43/43
f 45/45/45 46/46/46 47/47/47
f 45/45/45 48/48/48 46/46/46
f 49/49/49 50/50/50 51/51/51
f 49/49/49 52/52/52 50/50/50
f 53/53/53 54/54/54 55/55/55
f 53/53/53 36/36/36 54/54/54
f 55/55/55 56/56/56 57/57/57
f 55/55/55 54/54/54 56/56/56
f 54/54/54 58/58/58 56/56/56
f 54/54/54 59/59/59 58/58/58
f 36/36/36 59/59/59 54/54/54
f 36/36/36 33/33/33 59/59/59
f 59/59/59 60/60/60 58/58/58
f 59/59/59 61/61/61 60/60/60
f 33/33/33 61/61/61 59/59/59
f 33/33/33 32/32/32 61/61/61
f 53/53/53 55/55/55 62/62/62
f 55/55/55 63/63/63 62/62/62
f 11/11/11 12/12/12 64/64/64
f 12/12/12 65/65/65 64/64/64
f 55/55/55 57/57/57 63/63/63
f 57/57/57 66/66/66 63/63/63
f 67/67/67 68/68/68 69/69/69
f 68/68/68 70/70/70 69/69/69
g submesh1
f 71/71/71 72/72/72 73/73/73
f 74/74/74 71/71/71 73/73/73
f 75/75/75 76/76/76 72/72/72
f 71/71/71 75/75/75 72/72/72
f 77/77/77 78/78/78 79/79/79
f 80/80/80 77/77/77 79/79/79
f 78/78/78 74/74/74 81/81/81
f 79/79/79 78/78/78 81/81/81
f 82/82/82 83/83/83 84/84/84
f 85/85/85 82/82/82 84/84/84
f 83/83/83 75/75/75 71/71/71
f 84/84/84 83/83/83 71/71/71
f 85/85/85 84/84/84 78/78/78
f 77/77/77 85/85/85 78/78/78
f 84/84/84 71/71/71 74/74/74
f 78/78/78 84/84/84 74/74/74
f 80/80/80 79/79/79 86/86/86
f 79/79/79 87/87/87 86/86/86
f 79/79/79 81/81/81 87/87/87
f 81/81/81 88/88/88 87/87/87
