v -2 -2 5
v 2 -2 5
v 2 2 5
v -2 2 5
v 2 3 5
v -2 3 5
v 2 2 5
v 2 -2 5
v 2 2 -1
v 2 3 -2
v 2 3 5
v 2 2 -1
v -2 -2 5
v -2 2 -1
v 2 -2 5
v 2 3 -2
v -2 2 -1
v -2 3 -2
v 2 2 -1
v -2 2 -1
v -2 -2 5
v -2 2 5
v -2 3 -2
v -2 3 5
v -2 3 5
v 2 3 5
v -2 3 -2
v 2 3 -2
vn 0 0 1
vn 0 0 1
vn 0 0 1
vn 0 0 1
vn 0 0 1
vn 0 0 1
vn 1 0 0
vn 1 0 0
vn 1 0 0
vn 1 0 0
vn 1 0 0
vn 0 -0.8320503 -0.5547002
vn 0 -0.8320503 -0.5547002
vn 0 -0.8320503 -0.5547002
vn 0 -0.8320503 -0.5547002
vn 0 -0.7071068 -0.7071068
vn 0 -0.7071068 -0.7071068
vn 0 -0.7071068 -0.7071068
vn 0 -0.7071068 -0.7071068
vn -1 0 0
vn -1 0 0
vn -1 0 0
vn -1 0 0
vn -1 0 0
vn 0 1 0
vn 0 1 0
vn 0 1 0
vn 0 1 0
vt 2 -2
vt -2 -2
vt -2 2
vt 2 2
vt -2 3
vt 2 3
vt 5 2
vt 5 -2
vt -1 2
vt -2 3
vt 5 3
vt -2 -2.04132
vt 2 5.134688
vt 2 -2.04132
vt -2 5.134688
vt -2 -3.448651
vt 2 -2.04132
vt 2 -3.448651
vt -2 -2.04132
vt 1 2
vt -5 -2
vt -5 2
vt 2 3
vt -5 3
vt -2 5
vt 2 5
vt -2 -2
vt 2 -2
g submesh0
f 1/1/1 2/2/2 3/3/3
f 4/4/4 1/1/1 3/3/3
f 4/4/4 3/3/3 5/5/5
f 6/6/6 4/4/4 5/5/5
f 7/7/7 8/8/8 9/9/9
f 7/7/7 9/9/9 10/10/10
f 11/11/11 7/7/7 10/10/10
f 12/12/12 13/13/13 14/14/14
f 12/12/12 15/15/15 13/13/13
f 16/16/16 17/17/17 18/18/18
f 16/16/16 19/19/19 17/17/17
f 20/20/20 21/21/21 22/22/22
f 23/23/23 22/22/22 24/24/24
f 23/23/23 20/20/20 22/22/22
g submesh1
f 25/25/25 26/26/26 27/27/27
f 26/26/26 28/28/28 27/27/27
