v 5.999726 0.5 5.000332
v 6.000056 0.5 -0.9996701
v 6.000056 1 -0.9996701
v 5.999726 1 5.000332
v -3.999974 1 -1.00022
v -3.999837 0.5 4.999781
v -3.999837 1 4.999781
v -3.999974 0.5 -1.00022
v 6.000277 0.5 -8.499671
v 6.000277 1 -8.499671
v 6.000277 0.5 -8.499671
v 6.000495 0.5 -8.999674
v 6.000495 1 -8.999674
v 6.000277 1 -8.499671
v -3.999988 1 -8.50022
v -3.999988 0.5 -8.50022
v -4 1 -9
v -4 0.5 -9
v 1.499725 0.5 5.000059
v 5.999726 0.5 5.000332
v 5.999726 1 5.000332
v 1.499725 1 5.000059
v 6.000495 1 -8.999674
v 1.500495 0.5 -8.999838
v 1.500495 1 -8.999838
v 6.000495 0.5 -8.999674
v 6.000056 1 -0.9996701
v 1.500055 1 -0.9999442
v 1.499725 1 5.000059
v 5.999726 1 5.000332
v 5.999726 0.5 5.000332
v 1.499725 0.5 5.000059
v 6.000056 0.5 -0.9996701
v 1.500055 0.5 -0.9999442
v 6.000495 1 -8.999674
v 1.500495 1 -8.999838
v 6.000277 1 -8.499671
v 1.500467 1 -8.499947
v 1.500467 0.5 -8.499947
v 1.500495 0.5 -8.999838
v 6.000277 0.5 -8.499671
v 6.000495 0.5 -8.999674
v -3.999837 0.5 4.999781
v -1.250056 0.5 4.99992
v -1.250056 1 4.99992
v -3.999837 1 4.999781
v -1.249753 1 -8.999919
v -4 0.5 -9
v -4 1 -9
v -1.249753 0.5 -8.999919
v -1.249959 1 -1.000082
v -3.999837 1 4.999781
v -1.250056 1 4.99992
v -3.999974 1 -1.00022
v -3.999837 0.5 4.999781
v -3.999974 0.5 -1.00022
v -1.249959 0.5 -1.000082
v -1.250056 0.5 4.99992
v -1.249753 1 -8.999919
v -1.24976 1 -8.500084
v -3.999988 1 -8.50022
v -4 1 -9
v 1.500469 -12.5 -8.499954
v -1.249762 -12.5 -8.500092
v 1.500496 -12.5 -8.999846
v -1.249754 -12.5 -8.999927
v -3.999988 0.5 -8.50022
v -4 0.5 -9
v -1.249753 0.5 -8.999919
v -1.24976 0.5 -8.500084
v 1.500467 0.5 -8.499947
v -1.24976 0.5 -8.500084
v 1.500469 -12.5 -8.499954
v -1.249762 -12.5 -8.500092
v 1.500495 0.5 -8.999838
v 1.500467 0.5 -8.499947
v 1.500496 -12.5 -8.999846
v 1.500469 -12.5 -8.499954
v -1.24976 0.5 -8.500084
v -1.249753 0.5 -8.999919
v -1.249762 -12.5 -8.500092
v -1.249754 -12.5 -8.999927
v -1.249753 0.5 -8.999919
v 1.500495 0.5 -8.999838
v -1.249754 -12.5 -8.999927
v 1.500496 -12.5 -8.999846
vn 1 0 5.49952E-05
vn 1 0 5.49952E-05
vn 1 0 5.49952E-05
vn 1 0 5.49952E-05
vn -1 0 2.280871E-05
vn -1 0 2.280871E-05
vn -1 0 2.280871E-05
vn -1 0 2.280871E-05
vn 1 0 2.950032E-05
vn 1 0 2.950032E-05
vn 0.9999999 0 0.0004367803
vn 0.9999999 0 0.0004367803
vn 0.9999999 0 0.0004367803
vn 0.9999999 0 0.0004367803
vn -1 0 1.875559E-06
vn -1 0 1.875559E-06
vn -1 0 2.432941E-05
vn -1 0 2.432941E-05
vn -6.082322E-05 0 1
vn -6.082322E-05 0 1
vn -6.082322E-05 0 1
vn -6.082322E-05 0 1
vn 3.645154E-05 0 -1
vn 3.645154E-05 0 -1
vn 3.645154E-05 0 -1
vn 3.645154E-05 0 -1
vn 0 1 0
vn 0 1 0
vn 0 1 0
vn 0 1 0
vn 0 -1 0
vn 0 -1 0
vn 0 -1 0
vn 0 -1 0
vn 0 1 0
vn 0 1 0
vn 0 1 0
vn 0 1 0
vn 0 -1 0
vn 0 -1 0
vn 0 -1 0
vn 0 -1 0
vn -5.046206E-05 0 1
vn -5.046206E-05 0 1
vn -5.046206E-05 0 1
vn -5.046206E-05 0 1
vn 2.947455E-05 0 -1
vn 2.947455E-05 0 -1
vn 2.947455E-05 0 -1
vn 2.947455E-05 0 -1
vn 0 1 0
vn 0 1 0
vn 0 1 0
vn 0 1 0
vn 0 -1 0
vn 0 -1 0
vn 0 -1 0
vn 0 -1 0
vn 0 1 0
vn 0 1 0
vn 0 1 0
vn 0 1 0
vn 0 -1 0
vn 0 -1 0
vn 0 -1 0
vn 0 -1 0
vn 0 -1 0
vn 0 -1 0
vn 0 -1 0
vn 0 -1 0
vn -4.993373E-05 -5.86882E-07 1
vn -4.99337E-05 -5.868765E-07 1
vn -4.99337E-05 -5.868765E-07 1
vn -4.993367E-05 -5.86871E-07 1
vn 1 1.100072E-07 5.48482E-05
vn 1 1.100072E-07 5.48482E-05
vn 1 1.100072E-07 5.48482E-05
vn 1 1.100072E-07 5.48482E-05
vn -1 1.100483E-07 -1.526383E-05
vn -1 9.170869E-08 -1.574082E-05
vn -1 9.170869E-08 -1.574082E-05
vn -1 7.336908E-08 -1.621781E-05
vn 2.947456E-05 5.868744E-07 -1
vn 2.947454E-05 5.86877E-07 -1
vn 2.947454E-05 5.86877E-07 -1
vn 2.947453E-05 5.868797E-07 -1
vt 4.99929 0.5
vt -1.000713 0.5
vt -1.000713 1
vt 4.99929 1
vt 1.000285 1
vt -4.999716 0.5
vt -4.999716 1
vt 1.000285 0.5
vt -8.500713 0.5
vt -8.500713 1
vt -8.500713 0.5
vt -9.000716 0.5
vt -9.000716 1
vt -8.500713 1
vt 8.500286 1
vt 8.500286 0.5
vt 9.000066 1
vt 9.000066 0.5
vt -1.499995 0.5
vt -5.999995 0.5
vt -5.999995 1
vt -1.499995 1
vt 6.000209 1
vt 1.500208 0.5
vt 1.500208 1
vt 6.000209 0.5
vt 6.000056 -0.9996701
vt 1.500055 -0.9999442
vt 1.499725 5.000059
vt 5.999726 5.000332
vt -5.999726 5.000332
vt -1.499725 5.000059
vt -6.000056 -0.9996701
vt -1.500055 -0.9999442
vt 6.000495 -8.999674
vt 1.500495 -8.999838
vt 6.000277 -8.499671
vt 1.500467 -8.499947
vt -1.500467 -8.499947
vt -1.500495 -8.999838
vt -6.000277 -8.499671
vt -6.000495 -8.999674
vt 3.999567 0.5
vt 1.249786 0.5
vt 1.249786 1
vt 3.999567 1
vt -1.250039 1
vt -4.000286 0.5
vt -4.000286 1
vt -1.250039 0.5
vt -1.249959 -1.000082
vt -3.999837 4.999781
vt -1.250056 4.99992
vt -3.999974 -1.00022
vt 3.999837 4.999781
vt 3.999974 -1.00022
vt 1.249959 -1.000082
vt 1.250056 4.99992
vt -1.249753 -8.999919
vt -1.24976 -8.500084
vt -3.999988 -8.50022
vt -4 -9
vt -1.500469 -8.499954
vt 1.249762 -8.500092
vt -1.500496 -8.999846
vt 1.249754 -8.999927
vt 3.999988 -8.50022
vt 4 -9
vt 1.249753 -8.999919
vt 1.24976 -8.500084
vt -1.500043 0.499995
vt 1.250185 0.499995
vt -1.500044 -12.5
vt 1.250186 -12.5
vt -8.99992 0.4999998
vt -8.500029 0.4999998
vt -8.999928 -12.5
vt -8.500036 -12.5
vt 8.500065 0.4999999
vt 8.9999 0.4999999
vt 8.500072 -12.5
vt 8.999907 -12.5
vt -1.250018 0.4999947
vt 1.500229 0.4999947
vt -1.250019 -12.50001
vt 1.500231 -12.50001
g submesh0
f 1/1/1 2/2/2 3/3/3
f 4/4/4 1/1/1 3/3/3
f 5/5/5 6/6/6 7/7/7
f 5/5/5 8/8/8 6/6/6
f 2/2/2 9/9/9 10/10/10
f 3/3/3 2/2/2 10/10/10
f 11/11/11 12/12/12 13/13/13
f 14/14/14 11/11/11 13/13/13
f 5/5/5 15/15/15 16/16/16
f 5/5/5 16/16/16 8/8/8
f 17/17/17 16/16/16 15/15/15
f 17/17/17 18/18/18 16/16/16
f 19/19/19 20/20/20 21/21/21
f 22/22/22 19/19/19 21/21/21
f 23/23/23 24/24/24 25/25/25
f 23/23/23 26/26/26 24/24/24
f 27/27/27 28/28/28 29/29/29
f 27/27/27 29/29/29 30/30/30
f 31/31/31 32/32/32 33/33/33
f 32/32/32 34/34/34 33/33/33
f 35/35/35 36/36/36 37/37/37
f 37/37/37 36/36/36 38/38/38
f 37/37/37 38/38/38 28/28/28
f 37/37/37 28/28/28 27/27/27
f 39/39/39 40/40/40 41/41/41
f 41/41/41 40/40/40 42/42/42
f 33/33/33 34/34/34 41/41/41
f 34/34/34 39/39/39 41/41/41
f 43/43/43 44/44/44 45/45/45
f 46/46/46 43/43/43 45/45/45
f 44/44/44 19/19/19 22/22/22
f 45/45/45 44/44/44 22/22/22
f 47/47/47 48/48/48 49/49/49
f 47/47/47 50/50/50 48/48/48
f 25/25/25 50/50/50 47/47/47
f 25/25/25 24/24/24 50/50/50
f 51/51/51 52/52/52 53/53/53
f 51/51/51 54/54/54 52/52/52
f 28/28/28 51/51/51 53/53/53
f 28/28/28 53/53/53 29/29/29
f 55/55/55 56/56/56 57/57/57
f 58/58/58 55/55/55 57/57/57
f 32/32/32 58/58/58 34/34/34
f 58/58/58 57/57/57 34/34/34
f 36/36/36 59/59/59 60/60/60
f 36/36/36 60/60/60 38/38/38
f 59/59/59 61/61/61 60/60/60
f 59/59/59 62/62/62 61/61/61
f 60/60/60 54/54/54 51/51/51
f 60/60/60 61/61/61 54/54/54
f 38/38/38 60/60/60 51/51/51
f 38/38/38 51/51/51 28/28/28
f 63/63/63 64/64/64 65/65/65
f 64/64/64 66/66/66 65/65/65
f 67/67/67 68/68/68 69/69/69
f 70/70/70 67/67/67 69/69/69
f 56/56/56 67/67/67 70/70/70
f 57/57/57 56/56/56 70/70/70
f 34/34/34 57/57/57 39/39/39
f 57/57/57 70/70/70 39/39/39
f 71/71/71 72/72/72 73/73/73
f 72/72/72 74/74/74 73/73/73
f 75/75/75 76/76/76 77/77/77
f 76/76/76 78/78/78 77/77/77
f 79/79/79 80/80/80 81/81/81
f 80/80/80 82/82/82 81/81/81
f 83/83/83 84/84/84 85/85/85
f 84/84/84 86/86/86 85/85/85
