v -32 -86.5 35
v 4 -86.5 45
v -2 73.5 65
v -48 73.5 49
v -2 73.5 65
v 4 -86.5 45
v 34 -86.5 34
v 50 73.5 48
v -2 73.5 65
v -32 86.5 35
v -48 73.5 49
v -2 86.5 45
v -2 86.5 45
v -2 73.5 65
v 34 86.5 34
v 50 73.5 48
v -4 73.5 -60
v -30 -86.5 -30
v -44 73.5 -46
v 2 -86.5 -40
v 46 73.5 -46
v 32 -86.5 -30
v -4 73.5 -60
v 2 -86.5 -40
v -30 86.5 -30
v -4 86.5 -40
v -4 73.5 -60
v -44 73.5 -46
v 32 86.5 -30
v 46 73.5 -46
v -4 73.5 -60
v -4 86.5 -40
v 34 -86.5 34
v 38 -86.5 15
v 58 73.5 5
v 50 73.5 48
v 38 -86.5 15
v 32 -86.5 -30
v 58 73.5 5
v 46 73.5 -46
v 58 73.5 5
v 38 87.5 5
v 34 86.5 34
v 50 73.5 48
v 58 73.5 5
v 46 73.5 -46
v 32 86.5 -30
v 38 87.5 5
v -48 73.5 49
v -57 73.5 1
v -32 -86.5 35
v -37 -86.5 11
v -44 73.5 -46
v -30 -86.5 -30
v -57 73.5 1
v -37 -86.5 11
v -32 86.5 35
v -37 86.5 1
v -57 73.5 1
v -48 73.5 49
v -30 86.5 -30
v -44 73.5 -46
v -57 73.5 1
v -37 86.5 1
v -4 86.5 -40
v -30 86.5 -30
v -37 86.5 1
v 0 87.5 5
v 0 87.5 5
v -37 86.5 1
v -32 86.5 35
v -2 86.5 45
v 38 87.5 5
v 32 86.5 -30
v -4 86.5 -40
v 0 87.5 5
v 34 86.5 34
v 38 87.5 5
v 0 87.5 5
v -2 86.5 45
v -37 -86.5 11
v 2 -86.5 -40
v 5 -86.5 15
v -30 -86.5 -30
v -32 -86.5 35
v 4 -86.5 45
v 38 -86.5 15
v 32 -86.5 -30
v 34 -86.5 34
vn -0.2958727 -0.1220563 0.9468397
vn -0.2653943 -0.1293797 0.9554196
vn -0.2958727 -0.1220563 0.9468397
vn -0.3263512 -0.1147328 0.9382597
vn 0.3255613 -0.1086944 0.9390746
vn 0.342392 -0.1038848 0.9337963
vn 0.3255613 -0.1086944 0.9390746
vn 0.3087307 -0.1135039 0.9443528
vn -0.1838803 0.8214152 0.5398269
vn -0.1838803 0.8214152 0.5398269
vn -0.1890231 0.8178885 0.5434415
vn -0.1787374 0.824942 0.5362123
vn 0.1642623 0.8270548 0.5375856
vn 0.1721796 0.8209864 0.5442351
vn 0.1721796 0.8209864 0.5442351
vn 0.1800969 0.8149179 0.5508845
vn -0.3118176 -0.1258816 -0.9416104
vn -0.3118176 -0.1258816 -0.9416104
vn -0.3278679 -0.122365 -0.9367654
vn -0.2957673 -0.1293982 -0.9464554
vn 0.2677128 -0.1190366 -0.9561172
vn 0.2910774 -0.1125804 -0.9497216
vn 0.2910774 -0.1125804 -0.9497216
vn 0.314442 -0.1061242 -0.943326
vn -0.1934663 0.8278001 -0.5263842
vn -0.2051525 0.8206099 -0.5333965
vn -0.1934663 0.8278001 -0.5263842
vn -0.1817802 0.8349903 -0.5193719
vn 0.1504731 0.8284025 -0.5395421
vn 0.1512659 0.8278069 -0.5402355
vn 0.1504731 0.8284025 -0.5395421
vn 0.1496802 0.8289981 -0.5388488
vn 0.9747549 -0.1111856 0.193256
vn 0.9727415 -0.1087935 0.2047877
vn 0.9747549 -0.1111856 0.193256
vn 0.9767684 -0.1135777 0.1817243
vn 0.9826827 -0.1310244 -0.1310244
vn 0.975232 -0.1192383 -0.1793688
vn 0.975232 -0.1192383 -0.1793688
vn 0.9677813 -0.1074522 -0.2277132
vn 0.5698681 0.8148251 0.1063486
vn 0.5701865 0.8145521 0.1067344
vn 0.5698681 0.8148251 0.1063486
vn 0.5695498 0.8150981 0.1059628
vn 0.5770968 0.8062749 -0.129227
vn 0.5849325 0.7993195 -0.1376312
vn 0.5770968 0.8062749 -0.129227
vn 0.5692612 0.8132303 -0.1208228
vn -0.9765016 -0.1136709 0.1830941
vn -0.974826 -0.1113217 0.1929169
vn -0.974826 -0.1113217 0.1929169
vn -0.9731504 -0.1089726 0.2027397
vn -0.9579287 -0.1103147 -0.264959
vn -0.9674833 -0.1214351 -0.2158852
vn -0.9674833 -0.1214351 -0.2158852
vn -0.9770379 -0.1325555 -0.1668113
vn -0.5561663 0.8255445 0.09329641
vn -0.5432464 0.8357638 0.07988918
vn -0.5561663 0.8255445 0.09329641
vn -0.5690861 0.8153253 0.1067036
vn -0.5551068 0.8195353 -0.139804
vn -0.5693057 0.8069046 -0.1574675
vn -0.5551068 0.8195353 -0.139804
vn -0.5409079 0.832166 -0.1221405
vn -0.01242545 0.9997455 -0.01000097
vn 0 1 0
vn -0.01242545 0.9997455 -0.01000097
vn -0.0248509 0.999491 -0.02000194
vn -0.01782352 0.9996396 0.01430956
vn -0.02745308 0.999615 0.004037217
vn -0.01782352 0.9996396 0.01430956
vn -0.008193969 0.9996642 0.02458191
vn 0.004164649 0.9996344 -0.0261011
vn 0.008329297 0.9995157 -0.02998547
vn 0.004164649 0.9996344 -0.0261011
vn 0 0.9997532 -0.02221674
vn 0.003877337 0.9995269 0.0299206
vn 0 0.999406 0.03446227
vn 0.003877337 0.9995269 0.0299206
vn 0.007754673 0.9996479 0.02537893
vn 0 -1 0
vn 0 -1 0
vn 0 -1 0
vn 0 -1 0
vn 0 -1 0
vn 0 -1 0
vn 0 -1 0
vn 0 -1 0
vn 0 -1 0
vt 32.61049 -92.90577
vt -3.208102 -97.46884
vt 3.14265 38.50686
vt 48.8542 45.72024
vt 3.14265 38.50686
vt -3.208102 -97.46884
vt -33.39689 -92.97474
vt -49.14824 45.40976
vt 3.14265 38.50686
vt 32.61049 63.34912
vt 48.8542 45.72024
vt 2.79097 58.83132
vt 2.79097 58.83132
vt 3.14265 38.50686
vt -33.39689 63.28014
vt -49.14824 45.40976
vt -1.692172 40.67417
vt -28.82542 -91.49785
vt -42.20045 46.0076
vt 3.535107 -95.25104
vt 47.73312 47.4883
vt 33.12882 -90.47781
vt -1.692172 40.67417
vt 3.535107 -95.25104
vt -28.82542 64.83277
vt -2.460464 60.98087
vt -1.692172 40.67417
vt -42.20045 46.0076
vt 33.12882 65.85281
vt 47.73312 47.4883
vt -1.692172 40.67417
vt -2.460464 60.98087
vt 33.52826 -93.05048
vt 14.47495 -94.5607
vt 4.2003 43.77354
vt 47.30645 46.76615
vt 14.47495 -94.5607
vt -30.4381 -91.88615
vt 4.2003 43.77354
vt -46.6295 48.90551
vt 4.2003 43.77354
vt 4.475895 64.65995
vt 33.52826 65.19976
vt 47.30645 46.76615
vt 4.2003 43.77354
vt -46.6295 48.90551
vt -30.4381 66.36408
vt 4.475895 64.65995
vt -51.44138 47.51735
vt -3.977269 42.67041
vt -36.6244 -91.13811
vt -12.91847 -93.7721
vt 43.63786 47.10844
vt 28.39131 -91.72813
vt -3.977269 42.67041
vt -12.91847 -93.7721
vt -36.6244 65.73363
vt -2.932134 62.87931
vt -3.977269 42.67041
vt -51.44138 47.51735
vt 28.39131 65.14361
vt 43.63786 47.10844
vt -3.977269 42.67041
vt -2.932134 62.87931
vt -3.586256 -40.18413
vt -29.58596 -30.18442
vt -36.58588 0.8154425
vt 0.418481 4.813681
vt 0.418481 4.813681
vt -36.58588 0.8154425
vt -31.58594 34.81542
vt -1.586279 44.8157
vt 38.41805 4.814068
vt 32.41333 -30.18378
vt -3.586256 -40.18413
vt 0.418481 4.813681
vt 34.41331 33.81609
vt 38.41805 4.814068
vt 0.418481 4.813681
vt -1.586279 44.8157
vt 37 11
vt -2 -40
vt -5 15
vt 30 -30
vt 32 35
vt -4 45
vt -38 15
vt -32 -30
vt -34 34
g submesh0
f 1/1/1 2/2/2 3/3/3
f 4/4/4 1/1/1 3/3/3
f 5/5/5 6/6/6 7/7/7
f 5/5/5 7/7/7 8/8/8
f 9/9/9 10/10/10 11/11/11
f 9/9/9 12/12/12 10/10/10
f 13/13/13 14/14/14 15/15/15
f 14/14/14 16/16/16 15/15/15
f 17/17/17 18/18/18 19/19/19
f 17/17/17 20/20/20 18/18/18
f 21/21/21 22/22/22 23/23/23
f 22/22/22 24/24/24 23/23/23
f 25/25/25 26/26/26 27/27/27
f 28/28/28 25/25/25 27/27/27
f 29/29/29 30/30/30 31/31/31
f 29/29/29 31/31/31 32/32/32
f 33/33/33 34/34/34 35/35/35
f 33/33/33 35/35/35 36/36/36
f 37/37/37 38/38/38 39/39/39
f 39/39/39 38/38/38 40/40/40
f 41/41/41 42/42/42 43/43/43
f 44/44/44 41/41/41 43/43/43
f 45/45/45 46/46/46 47/47/47
f 45/45/45 47/47/47 48/48/48
f 49/49/49 50/50/50 51/51/51
f 50/50/50 52/52/52 51/51/51
f 53/53/53 54/54/54 55/55/55
f 55/55/55 54/54/54 56/56/56
f 57/57/57 58/58/58 59/59/59
f 57/57/57 59/59/59 60/60/60
f 61/61/61 62/62/62 63/63/63
f 64/64/64 61/61/61 63/63/63
f 65/65/65 66/66/66 67/67/67
f 68/68/68 65/65/65 67/67/67
f 69/69/69 70/70/70 71/71/71
f 72/72/72 69/69/69 71/71/71
f 73/73/73 74/74/74 75/75/75
f 73/73/73 75/75/75 76/76/76
f 77/77/77 78/78/78 79/79/79
f 77/77/77 79/79/79 80/80/80
f 81/81/81 82/82/82 83/83/83
f 81/81/81 84/84/84 82/82/82
f 85/85/85 83/83/83 86/86/86
f 85/85/85 81/81/81 83/83/83
f 83/83/83 82/82/82 87/87/87
f 82/82/82 88/88/88 87/87/87
f 86/86/86 83/83/83 89/89/89
f 83/83/83 87/87/87 89/89/89
