v 2 0 0
v 2 0 -4
v 2 6 -4
v 2 6 0
v 2 0 -8
v 2 6 -8
v -4 6 -8
v -5 0 -4
v -5 6 -4
v -4 0 -8
v -5 6 -4
v -4 0 0
v -4 6 0
v -5 0 -4
v -4 0 0
v -1 0 1
v -1 6 1
v -4 6 0
v -1 0 1
v 2 0 0
v 2 6 0
v -1 6 1
v 2 6 -8
v -1 0 -9
v -1 6 -9
v 2 0 -8
v -1 6 -9
v -4 0 -8
v -4 6 -8
v -1 0 -9
v 2 6 -4
v -1 6 -4
v -1 6 1
v 2 6 0
v -5 6 -4
v -4 6 0
v 2 6 -8
v -1 6 -9
v -4 6 -8
v -1 0 -4
v 2 0 -8
v 2 0 -4
v -1 0 -9
v -5 0 -4
v -4 0 -8
v -1 0 1
v 2 0 0
v -4 0 0
vn 1 0 0
vn 1 0 0
vn 1 0 0
vn 1 0 0
vn 1 0 0
vn 1 0 0
vn -0.9701425 0 -0.2425356
vn -0.9701425 0 -0.2425356
vn -0.9701425 0 -0.2425356
vn -0.9701425 0 -0.2425356
vn -0.9701425 0 0.2425356
vn -0.9701425 0 0.2425356
vn -0.9701425 0 0.2425356
vn -0.9701425 0 0.2425356
vn -0.3162278 0 0.9486833
vn -0.3162278 0 0.9486833
vn -0.3162278 0 0.9486833
vn -0.3162278 0 0.9486833
vn 0.3162278 0 0.9486833
vn 0.3162278 0 0.9486833
vn 0.3162278 0 0.9486833
vn 0.3162278 0 0.9486833
vn 0.3162278 0 -0.9486833
vn 0.3162278 0 -0.9486833
vn 0.3162278 0 -0.9486833
vn 0.3162278 0 -0.9486833
vn -0.3162278 0 -0.9486833
vn -0.3162278 0 -0.9486833
vn -0.3162278 0 -0.9486833
vn -0.3162278 0 -0.9486833
vn 0 1 0
vn 0 1 0
vn 0 1 0
vn 0 1 0
vn 0 1 0
vn 0 1 0
vn 0 1 0
vn 0 1 0
vn 0 1 0
vn 0 -1 0
vn 0 -1 0
vn 0 -1 0
vn 0 -1 0
vn 0 -1 0
vn 0 -1 0
vn 0 -1 0
vn 0 -1 0
vn 0 -1 0
vt 0 0
vt -4 0
vt -4 6
vt 0 6
vt -8 0
vt -8 6
vt 8 6
vt 4 0
vt 4 6
vt 8 0
vt 4 6
vt 0 0
vt 0 6
vt 4 0
vt 4 0
vt 1 0
vt 1 6
vt 4 6
vt 1 0
vt -2 0
vt -2 6
vt 1 6
vt 2 6
vt -1 0
vt -1 6
vt 2 0
vt -1 6
vt -4 0
vt -4 6
vt -1 0
vt 2 -4
vt -1 -4
vt -1 1
vt 2 0
vt -5 -4
vt -4 0
vt 2 -8
vt -1 -9
vt -4 -8
vt 1 -4
vt -2 -8
vt -2 -4
vt 1 -9
vt 5 -4
vt 4 -8
vt 1 1
vt -2 0
vt 4 0
g submesh0
f 1/1/1 2/2/2 3/3/3
f 4/4/4 1/1/1 3/3/3
f 2/2/2 5/5/5 6/6/6
f 3/3/3 2/2/2 6/6/6
f 7/7/7 8/8/8 9/9/9
f 7/7/7 10/10/10 8/8/8
f 11/11/11 12/12/12 13/13/13
f 11/11/11 14/14/14 12/12/12
f 15/15/15 16/16/16 17/17/17
f 18/18/18 15/15/15 17/17/17
f 19/19/19 20/20/20 21/21/21
f 22/22/22 19/19/19 21/21/21
f 23/23/23 24/24/24 25/25/25
f 23/23/23 26/26/26 24/24/24
f 27/27/27 28/28/28 29/29/29
f 27/27/27 30/30/30 28/28/28
f 31/31/31 32/32/32 33/33/33
f 34/34/34 31/31/31 33/33/33
f 32/32/32 35/35/35 36/36/36
f 33/33/33 32/32/32 36/36/36
f 37/37/37 38/38/38 32/32/32
f 31/31/31 37/37/37 32/32/32
f 38/38/38 39/39/39 35/35/35
f 32/32/32 38/38/38 35/35/35
f 40/40/40 41/41/41 42/42/42
f 40/40/40 43/43/43 41/41/41
f 44/44/44 43/43/43 40/40/40
f 44/44/44 45/45/45 43/43/43
f 46/46/46 42/42/42 47/47/47
f 46/46/46 40/40/40 42/42/42
f 48/48/48 40/40/40 46/46/46
f 48/48/48 44/44/44 40/40/40
