v 0.7499996 -3 0.2499999
v 0.9999996 -3 0.2499998
v 0.7499988 4.499998 0.2500002
v 0.9999991 4.499998 0.25
v 0.9999996 -3 0.2499998
v 0.9999995 -3 -2.384186E-07
v 0.9999991 4.499998 0.25
v 0.9999992 4.499998 2.169406E-08
v 0.9999995 -3 -2.384186E-07
v 0.7499995 -3 -1.490116E-07
v 0.9999992 4.499998 2.169406E-08
v 0.7499989 4.499998 2.640387E-07
v -1 -3 4.768372E-07
v -1 -3 0.2500005
v -1.000001 4.499998 9.489252E-07
v -1.000001 4.499998 0.2500012
v 0.7499988 4.499998 0.2500002
v 0.9999991 4.499998 0.25
v 0.7499989 4.499998 2.640387E-07
v 0.9999992 4.499998 2.169406E-08
v 0.7499995 -3 -1.490116E-07
v 0.9999995 -3 -2.384186E-07
v 0.7499996 -3 0.2499999
v 0.9999996 -3 0.2499998
v -0.7500005 -3 3.874302E-07
v -0.7500004 -3 0.2500004
v -1 -3 4.768372E-07
v -1 -3 0.2500005
v -0.7500011 4.499998 7.065805E-07
v -0.7500005 -3 3.874302E-07
v -1.000001 4.499998 9.489252E-07
v -1 -3 4.768372E-07
v -0.7500004 -3 0.2500004
v -0.7500011 4.499998 0.2500007
v -1 -3 0.2500005
v -1.000001 4.499998 0.2500012
v -0.7500011 4.499998 0.2500007
v -0.7500011 4.499998 7.065805E-07
v -1.000001 4.499998 0.2500012
v -1.000001 4.499998 9.489252E-07
v 0.7499996 -3 0.2499999
v 0.7499988 4.499998 0.2500002
v 0.7499995 -3 -1.490116E-07
v 0.7499989 4.499998 2.640387E-07
v -0.7500011 4.499998 0.2500007
v -0.7500004 -3 0.2500004
v -0.7500011 4.499998 7.065805E-07
v -0.7500005 -3 3.874302E-07
v 0.7499996 -3 0.1249999
v 0.749999 4.499998 0.1250004
v -0.7500004 -3 0.1250004
v -0.750001 4.499998 0.1250008
vn 3.576279E-07 -4.768369E-08 1
vn 6.854528E-07 -3.675615E-08 1
vn 6.854528E-07 -3.675615E-08 1
vn 1.013278E-06 -2.582861E-08 1
vn 1 7.15256E-08 -4.768372E-07
vn 1 5.960466E-08 -1.192092E-07
vn 1 5.960466E-08 -1.192092E-07
vn 1 4.768372E-08 2.384187E-07
vn -3.576279E-07 3.468168E-08 -1
vn -6.635028E-07 4.48775E-08 -1
vn -6.635028E-07 4.48775E-08 -1
vn -9.693777E-07 5.507331E-08 -1
vn -1 -1.112621E-07 4.768372E-07
vn -1 -1.033148E-07 7.152552E-07
vn -1 -1.033148E-07 7.152552E-07
vn -1 -9.536755E-08 9.536733E-07
vn 0 1 0
vn 0 1 0
vn 0 1 0
vn 0 1 0
vn 0 -1 0
vn 0 -1 0
vn 0 -1 0
vn 0 -1 0
vn 0 -1 0
vn 0 -1 0
vn 0 -1 0
vn 0 -1 0
vn -9.693777E-07 4.255331E-08 -1
vn -6.635028E-07 5.274918E-08 -1
vn -6.635028E-07 5.274918E-08 -1
vn -3.576279E-07 6.294505E-08 -1
vn 3.576279E-07 -3.576276E-08 1
vn 1.311303E-06 -6.755182E-08 1
vn 1.311303E-06 -6.755182E-08 1
vn 2.264977E-06 -9.934088E-08 1
vn 0 1 0
vn 0 1 0
vn 0 1 0
vn 0 1 0
vn -1 -1.112621E-07 4.768372E-07
vn -1 -9.536745E-08 -5.684342E-14
vn -1 -9.536745E-08 -5.684342E-14
vn -1 -7.947285E-08 -4.768373E-07
vn 1 1.033147E-07 2.384186E-07
vn 1 9.139382E-08 -1.192093E-07
vn 1 9.139382E-08 -1.192093E-07
vn 1 7.94729E-08 -4.768372E-07
vn 3.576279E-07 -7.351239E-08 1
vn 3.278255E-07 -6.755192E-08 1
vn 3.278255E-07 -6.755192E-08 1
vn 2.980232E-07 -6.159146E-08 1
vt -0.7499996 -3
vt -0.9999996 -3
vt -0.7499987 4.499998
vt -0.999999 4.499998
vt -1.875 -3
vt -2.125 -3
vt -1.875 4.499998
vt -2.125 4.499998
vt 0.9999995 -3
vt 0.7499995 -3
vt 0.9999992 4.499998
vt 0.7499989 4.499998
vt 2.125 -3
vt 1.875 -3
vt 2.125 4.499998
vt 1.874999 4.499998
vt 0.7499988 -1.875
vt 0.9999991 -1.875
vt 0.7499989 -2.125
vt 0.9999992 -2.125
vt -0.7499995 -2.125
vt -0.9999995 -2.125
vt -0.7499996 -1.875
vt -0.9999996 -1.875
vt 0.7500005 -2.125
vt 0.7500004 -1.875
vt 1 -2.125
vt 1 -1.875
vt -0.7500011 4.499998
vt -0.7500005 -3
vt -1.000001 4.499998
vt -1 -3
vt 0.7500005 -3
vt 0.7500013 4.499998
vt 1 -3
vt 1.000001 4.499998
vt -0.7500011 -1.874999
vt -0.7500011 -2.124999
vt -1.000001 -1.874999
vt -1.000001 -2.124999
vt 1.875 -3
vt 1.874999 4.499998
vt 2.125 -3
vt 2.124999 4.499998
vt -1.874999 4.499998
vt -1.874999 -3
vt -2.124999 4.499998
vt -2.125 -3
vt -0.7499995 -3
vt -0.749999 4.499998
vt 0.7500005 -3
vt 0.750001 4.499998
g submesh0
f 1/1/1 2/2/2 3/3/3
f 2/2/2 4/4/4 3/3/3
f 5/5/5 6/6/6 7/7/7
f 6/6/6 8/8/8 7/7/7
f 9/9/9 10/10/10 11/11/11
f 10/10/10 12/12/12 11/11/11
f 13/13/13 14/14/14 15/15/15
f 14/14/14 16/16/16 15/15/15
f 17/17/17 18/18/18 19/19/19
f 18/18/18 20/20/20 19/19/19
f 21/21/21 22/22/22 23/23/23
f 22/22/22 24/24/24 23/23/23
f 25/25/25 26/26/26 27/27/27
f 26/26/26 28/28/28 27/27/27
f 29/29/29 30/30/30 31/31/31
f 30/30/30 32/32/32 31/31/31
f 33/33/33 34/34/34 35/35/35
f 34/34/34 36/36/36 35/35/35
f 37/37/37 38/38/38 39/39/39
f 38/38/38 40/40/40 39/39/39
f 41/41/41 42/42/42 43/43/43
f 42/42/42 44/44/44 43/43/43
f 45/45/45 46/46/46 47/47/47
f 46/46/46 48/48/48 47/47/47
g submesh1
f 49/49/49 50/50/50 51/51/51
f 50/50/50 52/52/52 51/51/51
