v 0.7499996 -3 0.2499999
v 0.9999996 -3 0.2499998
v 0.7499998 10 0.2500001
v 0.9999996 10 0.2500002
v 0.9999996 -3 0.2499998
v 0.9999995 -3 -2.384186E-07
v 0.9999996 10 0.2500002
v 0.9999995 10 1.78732E-07
v 0.9999995 -3 -2.384186E-07
v 0.7499995 -3 -1.490116E-07
v 0.9999995 10 1.78732E-07
v 0.7499995 10 1.340285E-07
v -1 -3 4.768372E-07
v -1 -3 0.2500005
v -1 10 7.747784E-07
v -1 10 0.2500008
v 0.7499998 10 0.2500001
v 0.9999996 10 0.2500002
v 0.7499995 10 1.340285E-07
v 0.9999995 10 1.78732E-07
v 0.7499995 -3 -1.490116E-07
v 0.9999995 -3 -2.384186E-07
v 0.7499996 -3 0.2499999
v 0.9999996 -3 0.2499998
v -0.7500005 -3 3.874302E-07
v -0.7500004 -3 0.2500004
v -1 -3 4.768372E-07
v -1 -3 0.2500005
v -0.7500005 10 8.194819E-07
v -0.7500005 -3 3.874302E-07
v -1 10 7.747784E-07
v -1 -3 4.768372E-07
v -0.7500004 -3 0.2500004
v -0.7500004 10 0.2500008
v -1 -3 0.2500005
v -1 10 0.2500008
v -0.7500004 10 0.2500008
v -0.7500005 10 8.194819E-07
v -1 10 0.2500008
v -1 10 7.747784E-07
v 0.7499996 -3 0.2499999
v 0.7499998 10 0.2500001
v 0.7499995 -3 -1.490116E-07
v 0.7499995 10 1.340285E-07
v -0.7500004 10 0.2500008
v -0.7500004 -3 0.2500004
v -0.7500005 10 8.194819E-07
v -0.7500005 -3 3.874302E-07
v 0.7499996 -3 0.1249999
v 0.7499996 10 0.1250001
v -0.7500004 -3 0.1250004
v -0.7500006 10 0.1250008
vn 3.576279E-07 -2.292487E-08 1
vn 1.192092E-07 -2.750984E-08 1
vn 1.192092E-07 -2.750984E-08 1
vn -1.192094E-07 -3.209481E-08 1
vn 1 1.5304E-14 -4.768372E-07
vn 1 1.530249E-14 -4.768372E-07
vn 1 1.530249E-14 -4.768372E-07
vn 1 1.530099E-14 -4.768372E-07
vn -3.576279E-07 3.20885E-08 -1
vn -8.940697E-08 2.693041E-08 -1
vn -8.940697E-08 2.693041E-08 -1
vn 1.788139E-07 2.177232E-08 -1
vn -1 -1.092842E-14 4.768372E-07
vn -1 -1.092992E-14 4.768372E-07
vn -1 -1.092992E-14 4.768372E-07
vn -1 -1.093143E-14 4.768372E-07
vn 0 1 0
vn 0 1 0
vn 0 1 0
vn 0 1 0
vn 0 -1 0
vn 0 -1 0
vn 0 -1 0
vn 0 -1 0
vn 0 -1 0
vn 0 -1 0
vn 0 -1 0
vn 0 -1 0
vn 1.788139E-07 3.323475E-08 -1
vn -8.940697E-08 2.807665E-08 -1
vn -8.940697E-08 2.807665E-08 -1
vn -3.576279E-07 2.291856E-08 -1
vn 3.576279E-07 -3.438729E-08 1
vn 5.960464E-08 -2.865608E-08 1
vn 5.960464E-08 -2.865608E-08 1
vn -2.384186E-07 -2.292486E-08 1
vn 0 1 0
vn 0 1 0
vn 0 1 0
vn 0 1 0
vn -1 1.375491E-08 4.768372E-07
vn -1 6.877441E-09 8.344649E-07
vn -1 6.877441E-09 8.344649E-07
vn -1 -2.459571E-14 1.192093E-06
vn 1 1.639714E-14 -4.768371E-07
vn 1 1.612385E-14 -4.768371E-07
vn 1 1.612385E-14 -4.768371E-07
vn 1 1.585057E-14 -4.768372E-07
vn 3.576279E-07 -2.177862E-08 1
vn 4.072984E-07 -2.750983E-08 1
vn 4.072984E-07 -2.750983E-08 1
vn 4.569688E-07 -3.324104E-08 1
vt -0.7499996 -3
vt -0.9999996 -3
vt -0.7499997 10
vt -0.9999995 10
vt -1.875 -3
vt -2.125 -3
vt -1.874999 10
vt -2.124999 10
vt 0.9999995 -3
vt 0.7499995 -3
vt 0.9999995 10
vt 0.7499995 10
vt 2.125 -3
vt 1.875 -3
vt 2.125 10
vt 1.875 10
vt 0.7499998 -1.875
vt 0.9999996 -1.875
vt 0.7499995 -2.125
vt 0.9999995 -2.125
vt -0.7499995 -2.125
vt -0.9999995 -2.125
vt -0.7499996 -1.875
vt -0.9999996 -1.875
vt 0.7500005 -2.125
vt 0.7500004 -1.875
vt 1 -2.125
vt 1 -1.875
vt -0.7500005 10
vt -0.7500005 -3
vt -1 10
vt -1 -3
vt 0.7500005 -3
vt 0.7500005 10
vt 1 -3
vt 1 10
vt -0.7500004 -1.874999
vt -0.7500005 -2.124999
vt -1 -1.874999
vt -1 -2.124999
vt 1.875 -3
vt 1.875 10
vt 2.125 -3
vt 2.125 10
vt -1.875 10
vt -1.875 -3
vt -2.125 10
vt -2.125 -3
vt -0.7499995 -3
vt -0.7499995 10
vt 0.7500005 -3
vt 0.7500007 10
g submesh0
f 1/1/1 2/2/2 3/3/3
f 2/2/2 4/4/4 3/3/3
f 5/5/5 6/6/6 7/7/7
f 6/6/6 8/8/8 7/7/7
f 9/9/9 10/10/10 11/11/11
f 10/10/10 12/12/12 11/11/11
f 13/13/13 14/14/14 15/15/15
f 14/14/14 16/16/16 15/15/15
f 17/17/17 18/18/18 19/19/19
f 18/18/18 20/20/20 19/19/19
f 21/21/21 22/22/22 23/23/23
f 22/22/22 24/24/24 23/23/23
f 25/25/25 26/26/26 27/27/27
f 26/26/26 28/28/28 27/27/27
f 29/29/29 30/30/30 31/31/31
f 30/30/30 32/32/32 31/31/31
f 33/33/33 34/34/34 35/35/35
f 34/34/34 36/36/36 35/35/35
f 37/37/37 38/38/38 39/39/39
f 38/38/38 40/40/40 39/39/39
f 41/41/41 42/42/42 43/43/43
f 42/42/42 44/44/44 43/43/43
f 45/45/45 46/46/46 47/47/47
f 46/46/46 48/48/48 47/47/47
g submesh1
f 49/49/49 50/50/50 51/51/51
f 50/50/50 52/52/52 51/51/51
