v -26 15 1.549721E-06
v -25 15 -4.768372E-07
v -25 17 -4.768372E-07
v -26 17 1.549721E-06
v -25.00014 17 -53.99909
v -26.00014 15 -53.99905
v -26.00014 17 -53.99905
v -25.00014 15 -53.99909
v 47 15 -0.001199126
v 46.99996 15 -1.001199
v 46.99996 17 -1.001199
v 47 17 -0.001199126
v -26 17 -0.9999985
v -26 15 1.549721E-06
v -26 17 1.549721E-06
v -26 15 -0.9999985
v -25 17 -1
v -26 17 -0.9999985
v -26 17 1.549721E-06
v -25 17 -4.768372E-07
v -26 15 1.549721E-06
v -25 15 -1
v -25 15 -4.768372E-07
v -26 15 -0.9999985
v -1.999997 15 5.960464E-07
v 46 15 -0.001199007
v 46 17 -0.001199007
v -1.999997 17 5.960464E-07
v 47 15 -0.001199126
v 47 17 -0.001199126
v 45.99913 17 -24.0012
v -2 15 -24
v -2 17 -24
v 45.99913 15 -24.0012
v 46.99913 17 -24.0012
v 46.99913 15 -24.0012
v 46.99996 17 -1.001199
v 45.99996 17 -1.001199
v 46 17 -0.001199007
v 47 17 -0.001199126
v -1.999995 17 -0.9999994
v -1.999997 17 5.960464E-07
v 46 15 -0.001199007
v 46.99996 15 -1.001199
v 47 15 -0.001199126
v 45.99996 15 -1.001199
v -1.999997 15 5.960464E-07
v -1.999995 15 -0.9999994
v 46.99916 15 -23.0012
v 46.99916 17 -23.0012
v 46.99913 15 -24.0012
v 46.99913 17 -24.0012
v -25.99999 17 -23
v -25.99999 15 -23
v -26 17 -24
v -26 15 -24
v -25 17 -24
v -26 17 -24
v -25.99999 17 -23
v -24.99999 17 -23
v -25.99999 15 -23
v -25 15 -24
v -24.99999 15 -23
v -26 15 -24
v 46.99913 17 -24.0012
v 45.99913 17 -24.0012
v 45.99916 17 -23.0012
v 46.99916 17 -23.0012
v -2 17 -24
v -1.999994 17 -23
v 45.99916 15 -23.0012
v -1.999994 15 -23
v -1.999995 15 -0.9999994
v 45.99996 15 -1.001199
v 45.99916 15 -23.0012
v 46.99913 15 -24.0012
v 46.99916 15 -23.0012
v 45.99913 15 -24.0012
v -1.999994 15 -23
v -2 15 -24
v -2.1287 -133 -3.831398
v 41.99926 -133 -20.1698
v 41.99986 -133 -3.832595
v -2.1287 -133 -20.1686
v -2.999997 15 7.152557E-07
v -2.999997 17 7.152557E-07
v -3.000144 17 -53.99989
v -3.000144 15 -53.99989
v -2.000144 17 -53.99993
v -2.000144 15 -53.99993
v -2.999995 17 -0.9999993
v -2.999997 17 7.152557E-07
v -2.999997 15 7.152557E-07
v -2.999995 15 -0.9999993
v -3 17 -24
v -2.999994 17 -23
v -3 15 -24
v -25 15 -24
v -24.99999 15 -23
v -2.999994 15 -23
v -2.999995 15 -0.9999993
v -25 15 -1
v -2.999994 15 -23
v -3 15 -24
v -19.2085 -133 -20.1686
v -2.8713 -133 -20.91119
v -2.8713 -133 -20.1686
v -19.2085 -133 -20.91119
v -2.8713 -133 -3.831398
v -19.2085 -133 -3.831398
v -26.00014 17 -52.99905
v -26.00014 15 -52.99905
v -26.00014 17 -53.99905
v -26.00014 15 -53.99905
v -2 15 -24
v -2.000139 15 -52.99993
v -2.000139 17 -52.99993
v -2 17 -24
v -2.000144 15 -53.99993
v -2.000144 17 -53.99993
v -25.00014 17 -53.99909
v -26.00014 17 -53.99905
v -26.00014 17 -52.99905
v -25.00014 17 -52.99909
v -26.00014 15 -52.99905
v -25.00014 15 -53.99909
v -25.00014 15 -52.99909
v -26.00014 15 -53.99905
v -2.000144 17 -53.99993
v -3.000144 17 -53.99989
v -3.000139 17 -52.99989
v -2.000139 17 -52.99993
v -3.000139 15 -52.99989
v -25.00014 15 -52.99909
v -3.000139 15 -52.99989
v -2.000144 15 -53.99993
v -2.000139 15 -52.99993
v -3.000144 15 -53.99989
v -2.871445 -133 -45.9999
v -19.20865 -133 -45.9993
v -3.000139 17 -52.99989
v -25.00014 17 -52.99909
v -3.000139 15 -52.99989
v -25.00014 15 -52.99909
v -25.00014 17 -52.99909
v -25 17 -24
v -25.00014 15 -52.99909
v -25 15 -24
v -3 17 -24
v -3.000139 17 -52.99989
v -3 15 -24
v -3.000139 15 -52.99989
v -24.99999 17 -23
v -24.99999 15 -23
v -2.999994 17 -23
v -2.999994 15 -23
v -24.99999 17 -23
v -25 17 -1
v -24.99999 15 -23
v -25 15 -1
v 45.99996 17 -1.001199
v 45.99916 17 -23.0012
v 45.99996 15 -1.001199
v 45.99916 15 -23.0012
v -25 17 -1
v -2.999995 17 -0.9999993
v -25 15 -1
v -2.999995 15 -0.9999993
v -1.999994 17 -23
v -2.999994 17 -23
v -1.999994 15 -23
v -2.999994 15 -23
v -1.999995 17 -0.9999994
v -1.999995 15 -0.9999994
v 45.99916 17 -23.0012
v -1.999994 17 -23
v 45.99916 15 -23.0012
v -1.999994 15 -23
v 45.99996 17 -1.001199
v 45.99996 15 -1.001199
v -3.000139 15 -52.99989
v -3 15 -24
v -6.000144 7 -45.99978
v -5.999994 7 -20.91119
v -2.999994 15 -23
v -1.999994 15 -23
v -5.999998 7 -20.1686
v -4.999998 7 -20.1686
v -25 15 -24
v -25.00014 15 -52.99909
v -21.99999 7 -20.91119
v -22.00014 7 -45.9992
v -25.00014 15 -52.99909
v -3.000139 15 -52.99989
v -22.00014 7 -45.9992
v -6.000144 7 -45.99978
v -2.999994 15 -23
v -5.999998 7 -20.1686
v -1.999994 15 -23
v 45.99916 15 -23.0012
v -4.999998 7 -20.1686
v 38.99926 7 -20.1698
v -24.99999 15 -23
v -22 7 -20.1686
v -2.999995 15 -0.9999993
v -25 15 -1
v -5.999999 7 -3.831399
v -22 7 -3.831397
v -25 15 -1
v -24.99999 15 -23
v -22 7 -3.831397
v -22 7 -20.1686
v -1.999995 15 -0.9999994
v -4.999999 7 -3.831397
v 45.99916 15 -23.0012
v 45.99996 15 -1.001199
v 38.99926 7 -20.1698
v 38.99986 7 -3.832595
v 45.99996 15 -1.001199
v -1.999995 15 -0.9999994
v 38.99986 7 -3.832595
v -4.999999 7 -3.831397
v -6.000144 7 -45.99978
v -5.999994 7 -20.91119
v -2.871445 -133 -45.9999
v -2.8713 -133 -20.91119
v -5.999998 7 -20.1686
v -4.999998 7 -20.1686
v -2.8713 -133 -20.1686
v -2.1287 -133 -20.1686
v -21.99999 7 -20.91119
v -22.00014 7 -45.9992
v -19.2085 -133 -20.91119
v -19.20865 -133 -45.9993
v -22.00014 7 -45.9992
v -6.000144 7 -45.99978
v -19.20865 -133 -45.9993
v -2.871445 -133 -45.9999
v -5.999998 7 -20.1686
v -2.8713 -133 -20.1686
v -4.999998 7 -20.1686
v 38.99926 7 -20.1698
v -2.1287 -133 -20.1686
v 41.99926 -133 -20.1698
v -22 7 -20.1686
v -21.99999 7 -20.91119
v -19.2085 -133 -20.1686
v -19.2085 -133 -20.91119
v -5.999999 7 -3.831399
v -22 7 -3.831397
v -2.8713 -133 -3.831398
v -19.2085 -133 -3.831398
v -22 7 -3.831397
v -22 7 -20.1686
v -19.2085 -133 -3.831398
v -4.999999 7 -3.831397
v -5.999999 7 -3.831399
v -2.1287 -133 -3.831398
v 38.99926 7 -20.1698
v 38.99986 7 -3.832595
v 41.99926 -133 -20.1698
v 41.99986 -133 -3.832595
v 38.99986 7 -3.832595
v -4.999999 7 -3.831397
v 41.99986 -133 -3.832595
v -2.1287 -133 -3.831398
vn 2.026558E-06 0 1
vn 2.026558E-06 0 1
vn 2.026558E-06 0 1
vn 2.026558E-06 0 1
vn -3.814697E-05 0 -1
vn -3.814697E-05 0 -1
vn -3.814697E-05 0 -1
vn -3.814697E-05 0 -1
vn 1 0 -3.814697E-05
vn 1 0 -3.814697E-05
vn 1 0 -3.814697E-05
vn 1 0 -3.814697E-05
vn -1 0 5.722046E-06
vn -1 0 5.722046E-06
vn -1 0 5.722046E-06
vn -1 0 5.722046E-06
vn 0 1 0
vn 0 1 0
vn 0 1 0
vn 0 1 0
vn 0 -1 0
vn 0 -1 0
vn 0 -1 0
vn 0 -1 0
vn 2.499173E-05 0 1
vn 2.499173E-05 0 1
vn 2.499173E-05 0 1
vn 2.499173E-05 0 1
vn 1.192093E-07 0 1
vn 1.192093E-07 0 1
vn -2.499467E-05 0 -1
vn -2.499467E-05 0 -1
vn -2.499467E-05 0 -1
vn -2.499467E-05 0 -1
vn 0 0 -1
vn 0 0 -1
vn 0 1 0
vn 0 1 0
vn 0 1 0
vn 0 1 0
vn 0 1 0
vn 0 1 0
vn 0 -1 0
vn 0 -1 0
vn 0 -1 0
vn 0 -1 0
vn 0 -1 0
vn 0 -1 0
vn 1 0 -3.641302E-05
vn 1 0 -3.641302E-05
vn 1 0 -3.433228E-05
vn 1 0 -3.433228E-05
vn -1 0 -3.467906E-07
vn -1 0 -3.467906E-07
vn -1 0 5.722046E-06
vn -1 0 5.722046E-06
vn 0 1 0
vn 0 1 0
vn 0 1 0
vn 0 1 0
vn 0 -1 0
vn 0 -1 0
vn 0 -1 0
vn 0 -1 0
vn 0 1 0
vn 0 1 0
vn 0 1 0
vn 0 1 0
vn 0 1 0
vn 0 1 0
vn 0 1 0
vn 0 1 0
vn 0 1 0
vn 0 1 0
vn 0 -1 0
vn 0 -1 0
vn 0 -1 0
vn 0 -1 0
vn 0 -1 0
vn 0 -1 0
vn 0 -1 0
vn 0 -1 0
vn 0 -1 0
vn 0 -1 0
vn -5.418604E-08 0 1
vn -5.418604E-08 0 1
vn -3.623962E-05 0 -1
vn -3.623962E-05 0 -1
vn -3.814697E-05 0 -1
vn -3.814697E-05 0 -1
vn 0 1 0
vn 0 1 0
vn 0 -1 0
vn 0 -1 0
vn 0 1 0
vn 0 1 0
vn 0 1 0
vn 0 1 0
vn 0 1 0
vn 0 1 0
vn 0 1 0
vn 0 1 0
vn 0 -1 0
vn 0 -1 0
vn 0 -1 0
vn 0 -1 0
vn 0 -1 0
vn 0 -1 0
vn 0 -1 0
vn 0 -1 0
vn -1 0 4.801414E-06
vn -1 0 4.801414E-06
vn -1 0 5.722046E-06
vn -1 0 5.722046E-06
vn 1 0 -4.788937E-06
vn 1 0 -4.788937E-06
vn 1 0 -4.788937E-06
vn 1 0 -4.788937E-06
vn 1 0 -5.960464E-06
vn 1 0 -5.960464E-06
vn 0 1 0
vn 0 1 0
vn 0 1 0
vn 0 1 0
vn 0 -1 0
vn 0 -1 0
vn 0 -1 0
vn 0 -1 0
vn 0 1 0
vn 0 1 0
vn 0 1 0
vn 0 1 0
vn 0 1 0
vn 0 1 0
vn 0 -1 0
vn 0 -1 0
vn 0 -1 0
vn 0 -1 0
vn 0 -1 0
vn 0 -1 0
vn 3.623962E-05 0 1
vn 3.623962E-05 0 1
vn 3.623962E-05 0 1
vn 3.623962E-05 0 1
vn 1 0 -4.801407E-06
vn 1 0 -4.801407E-06
vn 1 0 -4.801407E-06
vn 1 0 -4.801407E-06
vn -1 0 4.784833E-06
vn -1 0 4.784833E-06
vn -1 0 4.784833E-06
vn -1 0 4.784833E-06
vn 1 0 -5.722046E-06
vn 1 0 -5.722046E-06
vn -1 0 5.960464E-06
vn -1 0 5.960464E-06
vn 1 0 3.467907E-07
vn 1 0 3.467907E-07
vn 1 0 3.467907E-07
vn 1 0 3.467907E-07
vn -1 0 3.641302E-05
vn -1 0 3.641302E-05
vn -1 0 3.641302E-05
vn -1 0 3.641302E-05
vn 5.418602E-08 0 -1
vn 5.418602E-08 0 -1
vn 5.418602E-08 0 -1
vn 5.418602E-08 0 -1
vn 0 0 1
vn 0 0 1
vn 0 0 1
vn 0 0 1
vn -1.192093E-07 0 -1
vn -1.192093E-07 0 -1
vn 2.499466E-05 0 1
vn 2.499466E-05 0 1
vn 2.499466E-05 0 1
vn 2.499466E-05 0 1
vn -2.499175E-05 0 -1
vn -2.499175E-05 0 -1
vn 0.9363277 -0.3511274 -4.480171E-06
vn 0.9363282 -0.3511261 -5.025158E-06
vn 0.9363282 -0.3511261 -5.025158E-06
vn 0.9363287 -0.3511248 -5.570146E-06
vn 0 -0.3336445 -0.942699
vn 0 -0.3336445 -0.942699
vn 0 -0.3336445 -0.942699
vn 0 -0.3336445 -0.942699
vn -0.9363295 -0.3511225 4.4957E-06
vn -0.9363302 -0.3511207 5.024096E-06
vn -0.9363302 -0.3511207 5.024096E-06
vn -0.9363309 -0.3511188 5.552492E-06
vn -2.727309E-05 -0.6585047 -0.7525766
vn -2.736281E-05 -0.6585046 -0.7525767
vn -2.736281E-05 -0.6585046 -0.7525767
vn -2.745253E-05 -0.6585045 -0.7525768
vn 0.9363291 -0.3511236 -6.86133E-07
vn 0.9363295 -0.3511225 4.208688E-06
vn -2.35625E-05 -0.3336366 -0.9427018
vn -2.463358E-05 -0.3336306 -0.9427039
vn -2.463358E-05 -0.3336306 -0.9427039
vn -2.570465E-05 -0.3336245 -0.942706
vn -0.93633 -0.3511214 5.357723E-06
vn -0.9363291 -0.3511235 2.739002E-07
vn -5.108111E-08 -0.3336447 0.942699
vn 3.064869E-08 -0.3336445 0.942699
vn 3.064869E-08 -0.3336445 0.942699
vn 1.123785E-07 -0.3336443 0.9426991
vn -0.9363291 -0.3511237 -3.247102E-07
vn -0.9363292 -0.3511234 -1.623551E-07
vn -0.9363292 -0.3511234 -1.623551E-07
vn -0.9363293 -0.3511231 0
vn 1.123785E-07 -0.3336445 0.942699
vn -8.428387E-07 -0.3336443 0.9426991
vn 0.7525767 -0.6585046 -2.740359E-05
vn 0.7525767 -0.6585046 -2.740833E-05
vn 0.7525767 -0.6585046 -2.740833E-05
vn 0.7525768 -0.6585046 -2.741307E-05
vn 2.355954E-05 -0.3336626 0.9426926
vn 2.461646E-05 -0.3336578 0.9426943
vn 2.461646E-05 -0.3336578 0.9426943
vn 2.567337E-05 -0.333653 0.942696
vn 0.9997504 0.02234227 -5.947436E-06
vn 0.9997504 0.02234225 -5.866667E-06
vn 0.9997504 0.02234225 -5.866667E-06
vn 0.9997504 0.02234224 -5.785898E-06
vn 0 0 -1
vn 0 0 -1
vn 0 0 -1
vn 0 0 -1
vn -0.9998013 -0.01993526 5.928875E-06
vn -0.9998013 -0.01993527 5.852851E-06
vn -0.9998013 -0.01993527 5.852851E-06
vn -0.9998013 -0.01993528 5.776828E-06
vn -3.647804E-05 8.346968E-09 -1
vn -3.645183E-05 5.873969E-09 -1
vn -3.645183E-05 5.873969E-09 -1
vn -3.642562E-05 3.40097E-09 -1
vn 0.9997504 0.02234225 2.246878E-06
vn 0.9997504 0.02234226 0
vn -2.726687E-05 -5.592236E-07 -1
vn -2.722711E-05 -5.709048E-07 -1
vn -2.722711E-05 -5.709048E-07 -1
vn -2.718735E-05 -5.82586E-07 -1
vn -0.9998013 -0.01993529 -5.135983E-06
vn -0.9998013 -0.01993527 -2.567992E-06
vn -0.9998013 -0.01993527 -2.567992E-06
vn -0.9998013 -0.01993526 0
vn 1.192093E-07 9.47603E-09 1
vn 5.960464E-08 1.332035E-09 1
vn 5.960464E-08 1.332035E-09 1
vn 0 -6.811959E-09 1
vn -0.9998013 -0.01993528 0
vn -0.9998013 -0.01993528 0
vn -0.9998013 -0.01993528 0
vn -1.907349E-06 -4.59303E-08 1
vn -9.536743E-07 -1.955917E-08 1
vn -9.536743E-07 -1.955917E-08 1
vn 0.9997705 0.02142365 -3.641726E-05
vn 0.9997705 0.02142365 -3.641725E-05
vn 0.9997705 0.02142365 -3.641725E-05
vn 0.9997705 0.02142365 -3.641725E-05
vn 2.723399E-05 5.886945E-07 1
vn 2.717537E-05 5.690137E-07 1
vn 2.717537E-05 5.690137E-07 1
vn 2.711674E-05 5.493328E-07 1
vt 26 15
vt 25 15
vt 25 17
vt 26 17
vt -24.99812 17
vt -25.99812 15
vt -25.99812 17
vt -24.99812 15
vt 0.0005068527 15
vt -0.9994931 15
vt -0.9994931 17
vt 0.0005068527 17
vt 1.000095 17
vt 9.462688E-05 15
vt 9.462688E-05 17
vt 1.000095 15
vt -25 -1
vt -26 -0.9999985
vt -26 1.549721E-06
vt -25 -4.768372E-07
vt 26 1.549721E-06
vt 25 -1
vt 25 -4.768372E-07
vt 26 -0.9999985
vt 1.999997 15
vt -46 15
vt -46 17
vt 1.999997 17
vt -47 15
vt -47 17
vt 45.99943 17
vt -1.9997 15
vt -1.9997 17
vt 45.99943 15
vt 46.99943 17
vt 46.99943 15
vt 46.99996 -1.001199
vt 45.99996 -1.001199
vt 46 -0.001199007
vt 47 -0.001199126
vt -1.999995 -0.9999994
vt -1.999997 5.960464E-07
vt -46 -0.001199007
vt -46.99996 -1.001199
vt -47 -0.001199126
vt -45.99996 -1.001199
vt 1.999997 5.960464E-07
vt 1.999995 -0.9999994
vt -22.99949 15
vt -22.99949 17
vt -23.99949 15
vt -23.99949 17
vt 23.0001 17
vt 23.0001 15
vt 24.0001 17
vt 24.0001 15
vt -25 -24
vt -26 -24
vt -25.99999 -23
vt -24.99999 -23
vt 25.99999 -23
vt 25 -24
vt 24.99999 -23
vt 26 -24
vt 46.99913 -24.0012
vt 45.99913 -24.0012
vt 45.99916 -23.0012
vt 46.99916 -23.0012
vt -2 -24
vt -1.999994 -23
vt 45.99916 -23.0012
vt -1.999994 -23
vt -1.999995 -0.9999994
vt 45.99996 -1.001199
vt -45.99916 -23.0012
vt -46.99913 -24.0012
vt -46.99916 -23.0012
vt -45.99913 -24.0012
vt 1.999994 -23
vt 2 -24
vt 2.1287 -3.831398
vt -41.99926 -20.1698
vt -41.99986 -3.832595
vt 2.1287 -20.1686
vt 2.999997 15
vt 2.999997 17
vt -2.998119 17
vt -2.998119 15
vt -1.998119 17
vt -1.998119 15
vt -2.999995 -0.9999993
vt -2.999997 7.152557E-07
vt 2.999997 7.152557E-07
vt 2.999995 -0.9999993
vt -3 -24
vt -2.999994 -23
vt -3 -24
vt -25 -24
vt -24.99999 -23
vt -2.999994 -23
vt -2.999995 -0.9999993
vt -25 -1
vt 2.999994 -23
vt 3 -24
vt 19.2085 -20.1686
vt 2.8713 -20.91119
vt 2.8713 -20.1686
vt 19.2085 -20.91119
vt 2.8713 -3.831398
vt 19.2085 -3.831398
vt 52.99919 17
vt 52.99919 15
vt 53.99919 17
vt 53.99919 15
vt -24.00001 15
vt -52.99994 15
vt -52.99994 17
vt -24.00001 17
vt -53.99994 15
vt -53.99994 17
vt -25.00014 -53.99909
vt -26.00014 -53.99905
vt -26.00014 -52.99905
vt -25.00014 -52.99909
vt 26.00014 -52.99905
vt 25.00014 -53.99909
vt 25.00014 -52.99909
vt 26.00014 -53.99905
vt -2.000144 -53.99993
vt -3.000144 -53.99989
vt -3.000139 -52.99989
vt -2.000139 -52.99993
vt -3.000139 -52.99989
vt -25.00014 -52.99909
vt 3.000139 -52.99989
vt 2.000144 -53.99993
vt 2.000139 -52.99993
vt 3.000144 -53.99989
vt 2.871445 -45.9999
vt 19.20865 -45.9993
vt 2.998218 17
vt 24.99822 17
vt 2.998218 15
vt 24.99822 15
vt -52.99921 17
vt -24.00012 17
vt -52.99921 15
vt -24.00012 15
vt 24.00002 17
vt 52.9999 17
vt 24.00002 15
vt 52.9999 15
vt -23.00014 17
vt -23.00014 15
vt 23.00002 17
vt 23.00002 15
vt -22.99999 17
vt -0.9999918 17
vt -22.99999 15
vt -0.9999918 15
vt 0.999524 17
vt 22.99953 17
vt 0.999524 15
vt 22.99953 15
vt -25 17
vt -2.999995 17
vt -25 15
vt -2.999995 15
vt 1.999994 17
vt 2.999994 17
vt 1.999994 15
vt 2.999994 15
vt -1.999995 17
vt -1.999995 15
vt -45.99974 17
vt 1.999419 17
vt -45.99974 15
vt 1.999419 15
vt 45.99999 17
vt 45.99999 15
vt -52.9999 12.99157
vt -24.00002 12.99157
vt -45.99981 4.447556
vt -20.91122 4.447567
vt -2.999994 21.81431
vt -1.999994 21.81431
vt -5.999998 13.32804
vt -4.999998 13.32804
vt 24.00012 22.82296
vt 52.99921 22.82296
vt 20.9113 14.27896
vt 45.99931 14.27897
vt -24.99822 46.1894
vt -2.998218 46.1894
vt -21.99848 35.55925
vt -5.998477 35.55925
vt -23.00002 12.99161
vt -20.16864 4.447596
vt -1.999419 21.81419
vt 45.99974 21.81419
vt -4.999494 13.32794
vt 38.99977 13.32797
vt 23.00014 22.82294
vt 20.16873 14.27894
vt 2.999995 13.80684
vt 25 13.80684
vt 5.999999 5.320567
vt 22 5.320568
vt 0.9999918 22.82303
vt 22.99999 22.82303
vt 3.831389 14.27903
vt 20.16859 14.27903
vt 1.999995 13.80684
vt 4.999998 5.320568
vt -22.99953 41.57986
vt -0.999524 41.57986
vt -20.16838 30.94971
vt -3.831175 30.94971
vt -45.99999 13.80671
vt 1.99997 13.80671
vt -38.99995 5.320379
vt 4.999903 5.320412
vt -45.99982 7.132303
vt -20.91123 7.132303
vt -45.99991 -132.9026
vt -20.91121 -132.9026
vt -5.999998 7
vt -4.999998 7
vt -2.8713 -133
vt -2.1287 -133
vt 20.91132 7.437182
vt 45.99933 7.437182
vt 20.91131 -132.5907
vt 45.99942 -132.5907
vt -21.99846 7
vt -5.998466 7
vt -19.20697 -133
vt -2.869767 -133
vt -20.16858 7.132308
vt -20.16859 -132.9026
vt -4.999448 7.000011
vt 38.99981 7.000011
vt -2.12815 -133
vt 41.99981 -133
vt 20.16849 7.437187
vt 20.91108 7.437187
vt 20.1685 -132.5906
vt 20.91109 -132.5906
vt 5.999998 7
vt 22 7
vt 2.871299 -133
vt 19.2085 -133
vt 3.831397 7.437185
vt 20.1686 7.437185
vt 3.831398 -132.5906
vt 5.000006 7
vt 6.000006 7
vt 2.128708 -133
vt -20.16838 6.162871
vt -3.831175 6.162871
vt -20.16827 -133.8693
vt -3.831065 -133.8693
vt -38.99996 7.000002
vt 4.999894 7.000002
vt -41.99996 -133
vt 2.128596 -133
g submesh0
f 1/1/1 2/2/2 3/3/3
f 4/4/4 1/1/1 3/3/3
f 5/5/5 6/6/6 7/7/7
f 5/5/5 8/8/8 6/6/6
f 9/9/9 10/10/10 11/11/11
f 12/12/12 9/9/9 11/11/11
f 13/13/13 14/14/14 15/15/15
f 13/13/13 16/16/16 14/14/14
f 17/17/17 18/18/18 19/19/19
f 20/20/20 17/17/17 19/19/19
f 21/21/21 22/22/22 23/23/23
f 21/21/21 24/24/24 22/22/22
f 25/25/25 26/26/26 27/27/27
f 28/28/28 25/25/25 27/27/27
f 26/26/26 29/29/29 30/30/30
f 27/27/27 26/26/26 30/30/30
f 31/31/31 32/32/32 33/33/33
f 31/31/31 34/34/34 32/32/32
f 35/35/35 34/34/34 31/31/31
f 35/35/35 36/36/36 34/34/34
f 37/37/37 38/38/38 39/39/39
f 40/40/40 37/37/37 39/39/39
f 38/38/38 41/41/41 42/42/42
f 39/39/39 38/38/38 42/42/42
f 43/43/43 44/44/44 45/45/45
f 43/43/43 46/46/46 44/44/44
f 47/47/47 46/46/46 43/43/43
f 47/47/47 48/48/48 46/46/46
f 10/10/10 49/49/49 50/50/50
f 11/11/11 10/10/10 50/50/50
f 49/49/49 51/51/51 52/52/52
f 50/50/50 49/49/49 52/52/52
f 53/53/53 16/16/16 13/13/13
f 53/53/53 54/54/54 16/16/16
f 55/55/55 54/54/54 53/53/53
f 55/55/55 56/56/56 54/54/54
f 57/57/57 58/58/58 59/59/59
f 60/60/60 57/57/57 59/59/59
f 60/60/60 59/59/59 18/18/18
f 17/17/17 60/60/60 18/18/18
f 61/61/61 62/62/62 63/63/63
f 61/61/61 64/64/64 62/62/62
f 24/24/24 63/63/63 22/22/22
f 24/24/24 61/61/61 63/63/63
f 65/65/65 66/66/66 67/67/67
f 68/68/68 65/65/65 67/67/67
f 68/68/68 67/67/67 38/38/38
f 37/37/37 68/68/68 38/38/38
f 66/66/66 69/69/69 70/70/70
f 67/67/67 66/66/66 70/70/70
f 71/71/71 72/72/72 73/73/73
f 74/74/74 71/71/71 73/73/73
f 75/75/75 76/76/76 77/77/77
f 75/75/75 78/78/78 76/76/76
f 46/46/46 77/77/77 44/44/44
f 46/46/46 75/75/75 77/77/77
f 79/79/79 78/78/78 75/75/75
f 79/79/79 80/80/80 78/78/78
f 81/81/81 82/82/82 83/83/83
f 81/81/81 84/84/84 82/82/82
f 2/2/2 85/85/85 86/86/86
f 3/3/3 2/2/2 86/86/86
f 85/85/85 25/25/25 28/28/28
f 86/86/86 85/85/85 28/28/28
f 87/87/87 8/8/8 5/5/5
f 87/87/87 88/88/88 8/8/8
f 89/89/89 88/88/88 87/87/87
f 89/89/89 90/90/90 88/88/88
f 41/41/41 91/91/91 92/92/92
f 42/42/42 41/41/41 92/92/92
f 91/91/91 17/17/17 20/20/20
f 92/92/92 91/91/91 20/20/20
f 93/93/93 48/48/48 47/47/47
f 93/93/93 94/94/94 48/48/48
f 23/23/23 94/94/94 93/93/93
f 23/23/23 22/22/22 94/94/94
f 69/69/69 95/95/95 96/96/96
f 70/70/70 69/69/69 96/96/96
f 97/97/97 98/98/98 99/99/99
f 100/100/100 97/97/97 99/99/99
f 72/72/72 100/100/100 101/101/101
f 73/73/73 72/72/72 101/101/101
f 100/100/100 99/99/99 102/102/102
f 101/101/101 100/100/100 102/102/102
f 103/103/103 80/80/80 79/79/79
f 103/103/103 104/104/104 80/80/80
f 105/105/105 106/106/106 107/107/107
f 105/105/105 108/108/108 106/106/106
f 109/109/109 84/84/84 81/81/81
f 109/109/109 107/107/107 84/84/84
f 110/110/110 107/107/107 109/109/109
f 110/110/110 105/105/105 107/107/107
f 111/111/111 56/56/56 55/55/55
f 111/111/111 112/112/112 56/56/56
f 113/113/113 112/112/112 111/111/111
f 113/113/113 114/114/114 112/112/112
f 115/115/115 116/116/116 117/117/117
f 118/118/118 115/115/115 117/117/117
f 116/116/116 119/119/119 120/120/120
f 117/117/117 116/116/116 120/120/120
f 121/121/121 122/122/122 123/123/123
f 124/124/124 121/121/121 123/123/123
f 124/124/124 123/123/123 58/58/58
f 57/57/57 124/124/124 58/58/58
f 125/125/125 126/126/126 127/127/127
f 125/125/125 128/128/128 126/126/126
f 64/64/64 127/127/127 62/62/62
f 64/64/64 125/125/125 127/127/127
f 129/129/129 130/130/130 131/131/131
f 132/132/132 129/129/129 131/131/131
f 132/132/132 131/131/131 95/95/95
f 69/69/69 132/132/132 95/95/95
f 130/130/130 121/121/121 124/124/124
f 131/131/131 130/130/130 124/124/124
f 133/133/133 134/134/134 98/98/98
f 97/97/97 133/133/133 98/98/98
f 135/135/135 136/136/136 137/137/137
f 135/135/135 138/138/138 136/136/136
f 104/104/104 137/137/137 80/80/80
f 104/104/104 135/135/135 137/137/137
f 127/127/127 138/138/138 135/135/135
f 127/127/127 126/126/126 138/138/138
f 108/108/108 139/139/139 106/106/106
f 108/108/108 140/140/140 139/139/139
f 141/141/141 142/142/142 143/143/143
f 142/142/142 144/144/144 143/143/143
f 145/145/145 146/146/146 147/147/147
f 146/146/146 148/148/148 147/147/147
f 149/149/149 150/150/150 151/151/151
f 150/150/150 152/152/152 151/151/151
f 146/146/146 153/153/153 148/148/148
f 153/153/153 154/154/154 148/148/148
f 155/155/155 149/149/149 156/156/156
f 149/149/149 151/151/151 156/156/156
f 157/157/157 158/158/158 159/159/159
f 158/158/158 160/160/160 159/159/159
f 161/161/161 162/162/162 163/163/163
f 162/162/162 164/164/164 163/163/163
f 165/165/165 166/166/166 167/167/167
f 166/166/166 168/168/168 167/167/167
f 169/169/169 170/170/170 171/171/171
f 170/170/170 172/172/172 171/171/171
f 166/166/166 173/173/173 168/168/168
f 173/173/173 174/174/174 168/168/168
f 175/175/175 176/176/176 177/177/177
f 176/176/176 178/178/178 177/177/177
f 173/173/173 179/179/179 174/174/174
f 179/179/179 180/180/180 174/174/174
f 181/181/181 182/182/182 183/183/183
f 182/182/182 184/184/184 183/183/183
f 185/185/185 186/186/186 187/187/187
f 186/186/186 188/188/188 187/187/187
f 189/189/189 190/190/190 191/191/191
f 190/190/190 192/192/192 191/191/191
f 193/193/193 194/194/194 195/195/195
f 194/194/194 196/196/196 195/195/195
f 182/182/182 197/197/197 184/184/184
f 197/197/197 198/198/198 184/184/184
f 199/199/199 200/200/200 201/201/201
f 200/200/200 202/202/202 201/201/201
f 203/203/203 189/189/189 204/204/204
f 189/189/189 191/191/191 204/204/204
f 205/205/205 206/206/206 207/207/207
f 206/206/206 208/208/208 207/207/207
f 209/209/209 210/210/210 211/211/211
f 210/210/210 212/212/212 211/211/211
f 213/213/213 205/205/205 214/214/214
f 205/205/205 207/207/207 214/214/214
f 215/215/215 216/216/216 217/217/217
f 216/216/216 218/218/218 217/217/217
f 219/219/219 220/220/220 221/221/221
f 220/220/220 222/222/222 221/221/221
f 223/223/223 224/224/224 225/225/225
f 224/224/224 226/226/226 225/225/225
f 227/227/227 228/228/228 229/229/229
f 228/228/228 230/230/230 229/229/229
f 231/231/231 232/232/232 233/233/233
f 232/232/232 234/234/234 233/233/233
f 235/235/235 236/236/236 237/237/237
f 236/236/236 238/238/238 237/237/237
f 224/224/224 239/239/239 226/226/226
f 239/239/239 240/240/240 226/226/226
f 241/241/241 242/242/242 243/243/243
f 242/242/242 244/244/244 243/243/243
f 245/245/245 246/246/246 247/247/247
f 246/246/246 248/248/248 247/247/247
f 249/249/249 250/250/250 251/251/251
f 250/250/250 252/252/252 251/251/251
f 253/253/253 254/254/254 255/255/255
f 254/254/254 247/247/247 255/255/255
f 256/256/256 257/257/257 258/258/258
f 257/257/257 251/251/251 258/258/258
f 259/259/259 260/260/260 261/261/261
f 260/260/260 262/262/262 261/261/261
f 263/263/263 264/264/264 265/265/265
f 264/264/264 266/266/266 265/265/265
