v 10 0 6
v 10 0 2
v 10.00001 3 5.999997
v 10.00001 3 2
v 2.721165 -1 0.7715244
v 0.8925003 -1.861154 5.762094
v 2.721165 3 0.7715244
v 3.411865 3 6.112211
v 3.411865 3 6.112211
v 0.8925003 -1.861154 5.762094
v 6.518795 -1 5.523156
v 6.518795 3 5.523156
v 6.518795 -1 5.523156
v 10 0 6
v 6.518795 3 5.523156
v 10.00001 3 5.999997
v 10.00001 3 2
v 10 0 2
v 7.188678 3 0.5682331
v 7.188678 -1 0.5682331
v 7.188678 3 0.5682331
v 7.188678 -1 0.5682331
v 2.721165 3 0.7715244
v 2.721165 -1 0.7715244
v 7.188678 3 0.5682331
v 2.721165 3 0.7715244
v 3.411865 3 6.112211
v 6.518795 3 5.523156
v 10.00001 3 5.999997
v 10.00001 3 2
v 0.8925003 -1.861154 5.762094
v 7.188678 -1 0.5682331
v 6.518795 -1 5.523156
v 2.721165 -1 0.7715244
v 6.518795 -1 5.523156
v 10 0 2
v 10 0 6
v 7.188678 -1 0.5682331
vn 1 -2.543132E-06 0
vn 1 -2.384186E-06 -1.192094E-07
vn 1 -2.384186E-06 -1.192094E-07
vn 1 -2.22524E-06 -2.384187E-07
vn -0.9389499 0 -0.3440538
vn -0.9121512 0.2253001 -0.1147764
vn -0.9121512 0.2253001 -0.1147764
vn -0.8853524 0.4506003 0.1145009
vn 0.1219897 -0.05071855 0.9878323
vn 0.05770381 -0.1014371 0.993167
vn 0.1219897 -0.05071855 0.9878323
vn 0.1862756 0 0.9824975
vn -0.1357096 0 0.9907487
vn -0.135709 6.449882E-07 0.9907488
vn -0.135709 6.449882E-07 0.9907488
vn -0.1357085 1.289976E-06 0.9907488
vn 0.4538202 -1.009859E-06 -0.8910933
vn 0.4538206 -5.049295E-07 -0.8910931
vn 0.4538206 -5.049295E-07 -0.8910931
vn 0.453821 0 -0.8910928
vn -0.04545731 0 -0.9989663
vn -0.04545731 0 -0.9989663
vn -0.04545731 0 -0.9989663
vn -0.04545731 0 -0.9989663
vn 0 1 0
vn 0 1 0
vn 0 1 0
vn 0 1 0
vn 0 1 0
vn 0 1 0
vn 0.07212669 -0.9865338 -0.07613508
vn 0.07212669 -0.9865338 -0.07613508
vn 0.1521182 -0.9881483 0.02056567
vn -0.007864786 -0.9849193 -0.1728358
vn 0.2957844 -0.9545528 0.02132551
vn 0.2957844 -0.9545528 0.02132551
vn 0.2760916 -0.9611313 0
vn 0.3154771 -0.9479742 0.04265103
vt 6 2.543132E-05
vt 2 2.543132E-05
vt 5.999997 3.000026
vt 2 3.000026
vt 0.2118042 -1
vt -5.10325 -1.861154
vt 0.2118042 3
vt -4.565195 3
vt -3.649372 3.300879
vt -1.118197 -1.566742
vt -6.730761 -0.730171
vt -6.730761 3.264619
vt -6.730761 -0.730171
vt -10.22801 0.2858593
vt -6.730761 3.264619
vt -10.22802 3.281951
vt 10.19684 3
vt 10.19683 8.197254E-08
vt 7.146547 3
vt 7.146547 -0.9999995
vt 7.146547 3
vt 7.146547 -0.9999995
vt 2.822726 3
vt 2.822726 -1
vt 7.188678 0.5682331
vt 2.721165 0.7715244
vt 3.411865 6.112211
vt 6.518795 5.523156
vt 10.00001 5.999997
vt 10.00001 2
vt -0.4723859 5.741084
vt -6.8067 0.5422457
vt -6.152419 5.498386
vt -2.443231 0.7554032
vt -6.152419 5.498386
vt -9.767109 1.977785
vt -9.767109 5.977573
vt -6.8067 0.5422457
g submesh0
f 1/1/1 2/2/2 3/3/3
f 2/2/2 4/4/4 3/3/3
f 5/5/5 6/6/6 7/7/7
f 6/6/6 8/8/8 7/7/7
f 9/9/9 10/10/10 11/11/11
f 9/9/9 11/11/11 12/12/12
f 13/13/13 14/14/14 15/15/15
f 15/15/15 14/14/14 16/16/16
f 17/17/17 18/18/18 19/19/19
f 19/19/19 18/18/18 20/20/20
f 21/21/21 22/22/22 23/23/23
f 22/22/22 24/24/24 23/23/23
f 25/25/25 26/26/26 27/27/27
f 28/28/28 25/25/25 27/27/27
f 29/29/29 30/30/30 28/28/28
f 30/30/30 25/25/25 28/28/28
f 31/31/31 32/32/32 33/33/33
f 31/31/31 34/34/34 32/32/32
f 35/35/35 36/36/36 37/37/37
f 35/35/35 38/38/38 36/36/36
