v 6.429706 4.865856 5.436694
v 7.852413 5.207298 6.506897
v 7.852411 6 6.506896
v 6.429705 6 5.436696
v 8.301778 4.504418 0.7108144
v 5.587871 4 0.8807383
v 5.587871 6 0.8807383
v 8.301774 6 0.7108097
v 7.852413 5.207298 6.506897
v 13.02334 5.103358 6.000011
v 13.02334 6 6.000018
v 7.852411 6 6.506896
v 13.02334 5.103358 6.000011
v 24.5825 5.534913 5.47685
v 24.53951 5.980252 5.474801
v 13.02334 6 6.000018
v 24.45838 5.947576 0.2709566
v 24.54438 5.0569 0.2750632
v 14.155 4.030245 0.7569726
v 14.155 6 0.7569676
v 14.155 4.030245 0.7569726
v 8.301778 4.504418 0.7108144
v 8.301774 6 0.7108097
v 14.155 6 0.7569676
v 24.5825 5.534913 5.47685
v 25.32117 3.975127 3.097978
v 25.22115 5.942795 3.09112
v 24.53951 5.980252 5.474801
v 25.32117 3.975127 3.097978
v 24.54438 5.0569 0.2750632
v 24.45838 5.947576 0.2709566
v 25.22115 5.942795 3.09112
v 5.587871 4 0.8807383
v 5.299356 4.441252 3.883353
v 5.299356 6 3.883354
v 5.587871 6 0.8807383
v 5.299356 4.441252 3.883353
v 6.429706 4.865856 5.436694
v 6.429705 6 5.436696
v 5.299356 6 3.883354
v 8.301774 6 0.7108097
v 5.587871 6 0.8807383
v 5.299356 6 3.883354
v 7.871541 6 3.355409
v 5.299356 6 3.883354
v 6.429705 6 5.436696
v 7.852411 6 6.506896
v 7.871541 6 3.355409
v 8.301778 4.504418 0.7108144
v 7.871541 3.319394 3.355406
v 5.299356 4.441252 3.883353
v 5.587871 4 0.8807383
v 7.871541 3.319394 3.355406
v 7.852413 5.207298 6.506897
v 6.429706 4.865856 5.436694
v 5.299356 4.441252 3.883353
v 24.45838 5.947576 0.2709566
v 14.155 6 0.7569676
v 13.58917 6 3.378493
v 25.22115 5.942795 3.09112
v 13.58917 6 3.378493
v 13.02334 6 6.000018
v 24.53951 5.980252 5.474801
v 25.22115 5.942795 3.09112
v 14.155 6 0.7569676
v 8.301774 6 0.7108097
v 7.871541 6 3.355409
v 13.58917 6 3.378493
v 7.871541 6 3.355409
v 7.852411 6 6.506896
v 13.02334 6 6.000018
v 13.58917 6 3.378493
v 7.852413 5.207298 6.506897
v 7.871541 3.319394 3.355406
v 13.58917 2.909698 3.37849
v 13.02334 5.103358 6.000011
v 7.871541 3.319394 3.355406
v 8.301778 4.504418 0.7108144
v 14.155 4.030245 0.7569726
v 13.58917 2.909698 3.37849
v 24.5825 5.534913 5.47685
v 13.02334 5.103358 6.000011
v 13.58917 2.909698 3.37849
v 25.32117 3.975127 3.097978
v 13.58917 2.909698 3.37849
v 14.155 4.030245 0.7569726
v 24.54438 5.0569 0.2750632
v 25.32117 3.975127 3.097978
vn -0.6011398 -1.932694E-06 0.7991439
vn -0.6011395 -1.208846E-06 0.7991441
vn -0.6011392 -4.849979E-07 0.7991443
vn -0.6011395 -1.208846E-06 0.7991441
vn -0.0624908 -1.630958E-06 -0.9980456
vn -0.0624899 0 -0.9980456
vn -0.0624908 -1.630958E-06 -0.9980456
vn -0.06249169 -3.261915E-06 -0.9980455
vn 0.09755854 1.432069E-06 0.9952298
vn 0.09755781 -2.82796E-06 0.9952299
vn 0.09755708 -7.087989E-06 0.99523
vn 0.09755781 -2.82796E-06 0.9952299
vn 0.04521342 -7.00255E-06 0.9989774
vn 0.04539327 0.004494854 0.9989489
vn 0.04557312 0.00899671 0.9989205
vn 0.04539327 0.004494854 0.9989489
vn -0.04716216 -0.009158675 -0.9988453
vn -0.04674846 -0.004580674 -0.9988856
vn -0.04633476 -2.673705E-06 -0.998926
vn -0.04674846 -0.004580674 -0.9988856
vn 0.007885552 -2.803618E-06 -0.9999689
vn 0.007885456 -3.088388E-06 -0.9999689
vn 0.007885552 -2.803618E-06 -0.9999689
vn 0.007885648 -2.518848E-06 -0.9999689
vn 0.9601216 0.07178128 0.2692909
vn 0.9626239 0.04985936 0.2662128
vn 0.9601216 0.07178128 0.2692909
vn 0.9576194 0.09370319 0.272369
vn 0.9676194 0.04832213 -0.2477454
vn 0.9644572 0.06996745 -0.2537948
vn 0.961295 0.09161277 -0.2598442
vn 0.9644572 0.06996745 -0.2537948
vn -0.9954153 0 -0.09564724
vn -0.9954153 -1.449391E-07 -0.09564731
vn -0.9954153 -2.898781E-07 -0.09564739
vn -0.9954153 -1.449391E-07 -0.09564731
vn -0.8085756 -3.373493E-07 0.5883923
vn -0.8085759 -9.571082E-07 0.588392
vn -0.808576 -1.576867E-06 0.5883917
vn -0.8085759 -9.571082E-07 0.588392
vn 0 1 0
vn 0 1 0
vn 0 1 0
vn 0 1 0
vn 0 1 0
vn 0 1 0
vn 0 1 0
vn 0 1 0
vn 0.1453209 -0.9114918 -0.3847917
vn -0.1177273 -0.9154477 -0.1431339
vn -0.3807755 -0.9194036 0.09852397
vn -0.1177273 -0.9154477 -0.1431339
vn -0.2599765 -0.8290493 0.495065
vn -0.09298965 -0.9017031 0.3537787
vn 0.07399721 -0.9743569 0.2124925
vn -0.09298965 -0.9017031 0.3537787
vn 0.005102834 0.9999869 0.0003152037
vn 0.00502353 0.9999871 0.000691182
vn 0.004944227 0.9999872 0.00106716
vn 0.00502353 0.9999871 0.000691182
vn 0.003146642 0.9999421 -0.007016973
vn 0.00173187 0.9999985 0.0003738071
vn 0.003146642 0.9999421 -0.007016973
vn 0.004561414 0.9998858 -0.01440775
vn 0 1 0
vn 0 1 0
vn 0 1 0
vn 0 1 0
vn 0 1 0
vn 0 1 0
vn 0 1 0
vn 0 1 0
vn 0.0331298 -0.8572923 0.513763
vn -0.01236306 -0.8145174 0.5735304
vn -0.05785592 -0.7717426 0.6332977
vn -0.01236306 -0.8145174 0.5735304
vn -0.06329861 -0.9068583 -0.4166549
vn -0.06697811 -0.9092391 -0.4107853
vn -0.07065761 -0.9116199 -0.4049156
vn -0.06697811 -0.9092391 -0.4107853
vn 0.07284331 -0.7898741 0.606568
vn 0.05768152 -0.7594771 0.6479718
vn 0.07284331 -0.7898741 0.606568
vn 0.08800511 -0.820271 0.5651641
vn 0.07474785 -0.9226777 -0.3782575
vn 0.074354 -0.9234675 -0.3763975
vn 0.07396015 -0.9242573 -0.3745375
vn 0.074354 -0.9234675 -0.3763975
vt -7.225198 4.865868
vt -8.802423 5.207312
vt -8.802422 6.000014
vt -7.225198 6.000011
vt 8.272871 4.501365
vt 5.55476 3.996711
vt 5.55476 5.996702
vt 8.272867 5.99694
vt -8.802423 5.207312
vt -13.82303 5.103368
vt -13.82303 6.00001
vt -8.802422 6.000014
vt -13.82303 5.103368
vt -25.14493 5.534917
vt -25.10217 5.980256
vt -13.82303 6.00001
vt 24.4351 5.944184
vt 24.5209 5.05349
vt 14.12116 4.026446
vt 14.12115 5.996192
vt 14.12116 4.026446
vt 8.272871 4.501365
vt 8.272867 5.99694
vt 14.12115 5.996192
vt 5.16202 3.706516
vt 2.773896 2.098859
vt 2.768318 4.068559
vt 5.160521 4.153812
vt 2.773896 2.098859
vt -0.03885405 3.237496
vt -0.04186051 4.132088
vt 2.768318 4.068559
vt -2.32196 3.999999
vt -5.142449 4.441251
vt -5.142449 5.999999
vt -2.32196 5.999999
vt -5.142449 4.441251
vt -6.938733 4.865855
vt -6.938735 5.999999
vt -5.142449 5.999999
vt 8.292099 0.724932
vt 5.578199 0.8948498
vt 5.289684 3.897456
vt 7.861867 3.369523
vt 5.289684 3.897456
vt 6.420033 5.450798
vt 7.842737 6.521001
vt 7.861867 3.369523
vt -8.123309 1.311534
vt -7.738739 3.784027
vt -5.125504 4.436455
vt -5.430695 1.403612
vt -7.738739 3.784027
vt -7.647374 7.147763
vt -6.238776 6.036282
vt -5.125504 4.436455
vt 24.44877 0.285018
vt 14.14532 0.7711118
vt 13.57949 3.392628
vt 25.21154 3.105166
vt 13.57949 3.392628
vt 13.01366 6.014143
vt 24.52985 5.488925
vt 25.21154 3.105166
vt 14.14532 0.7711118
vt 8.292099 0.724932
vt 7.861867 3.369523
vt 13.57949 3.392628
vt 7.861867 3.369523
vt 7.842737 6.521001
vt 13.01366 6.014143
vt 13.57949 3.392628
vt -7.647374 7.147763
vt -7.738739 3.784027
vt -13.46786 3.782946
vt -12.81849 6.656739
vt -7.738739 3.784027
vt -8.123309 1.311534
vt -13.99039 1.32589
vt -13.46786 3.782946
vt -24.35267 6.247665
vt -12.81849 6.656739
vt -13.46786 3.782946
vt -25.15049 3.69513
vt -13.46786 3.782946
vt -13.99039 1.32589
vt -24.33286 1.026936
vt -25.15049 3.69513
g submesh0
f 4/4/4 1/1/1 2/2/2
f 4/4/4 2/2/2 3/3/3
f 8/8/8 5/5/5 7/7/7
f 5/5/5 6/6/6 7/7/7
f 9/9/9 10/10/10 12/12/12
f 12/12/12 10/10/10 11/11/11
f 13/13/13 14/14/14 16/16/16
f 16/16/16 14/14/14 15/15/15
f 17/17/17 18/18/18 20/20/20
f 20/20/20 18/18/18 19/19/19
f 24/24/24 21/21/21 23/23/23
f 21/21/21 22/22/22 23/23/23
f 28/28/28 25/25/25 27/27/27
f 25/25/25 26/26/26 27/27/27
f 32/32/32 29/29/29 30/30/30
f 32/32/32 30/30/30 31/31/31
f 36/36/36 33/33/33 34/34/34
f 36/36/36 34/34/34 35/35/35
f 40/40/40 37/37/37 38/38/38
f 40/40/40 38/38/38 39/39/39
f 42/42/42 44/44/44 41/41/41
f 42/42/42 43/43/43 44/44/44
f 45/45/45 47/47/47 48/48/48
f 45/45/45 46/46/46 47/47/47
f 50/50/50 51/51/51 52/52/52
f 49/49/49 50/50/50 52/52/52
f 54/54/54 55/55/55 56/56/56
f 53/53/53 54/54/54 56/56/56
f 60/60/60 57/57/57 58/58/58
f 60/60/60 58/58/58 59/59/59
f 64/64/64 61/61/61 63/63/63
f 61/61/61 62/62/62 63/63/63
f 65/65/65 66/66/66 68/68/68
f 68/68/68 66/66/66 67/67/67
f 72/72/72 69/69/69 71/71/71
f 71/71/71 69/69/69 70/70/70
f 73/73/73 74/74/74 76/76/76
f 76/76/76 74/74/74 75/75/75
f 77/77/77 78/78/78 80/80/80
f 80/80/80 78/78/78 79/79/79
f 81/81/81 82/82/82 83/83/83
f 81/81/81 83/83/83 84/84/84
f 85/85/85 86/86/86 88/88/88
f 86/86/86 87/87/87 88/88/88
