v 4.771864 69.3 7.672149
v 6.885675 69.3 7.703734
v 4.758018 69.3 5.671719
v 5.915667 69.3 5.689017
v 4.517282 0 2.000003
v 6.971459 0 1.962481
v 4.517282 0 6.000003
v 7.911594 0 5.976528
v 4.517282 0 6.000003
v 7.911594 0 5.976528
v 4.477551 3 5.681641
v 8.909356 3 6.133794
v 8.909356 3 6.133794
v 7.911594 0 5.976528
v 7.969228 3 2.1193
v 6.971459 0 1.962481
v 7.969228 3 2.1193
v 6.971459 0 1.962481
v 4.954621 3 3.074368
v 4.517282 0 2.000003
v 4.954621 3 3.074368
v 4.517282 0 2.000003
v 4.517282 0 6.000003
v 4.477551 3 5.681641
v 3.197225 48.3 6.37383
v 6.885675 69.3 7.703734
v 4.771864 69.3 7.672149
v 9.900725 48.3 6.718882
v 4.477551 3 5.681641
v 9.900725 48.3 6.718882
v 3.197225 48.3 6.37383
v 8.909356 3 6.133794
v 9.900725 48.3 6.718882
v 7.978808 48.3 1.478111
v 6.885675 69.3 7.703734
v 5.915667 69.3 5.689017
v 8.909356 3 6.133794
v 7.969228 3 2.1193
v 9.900725 48.3 6.718882
v 7.978808 48.3 1.478111
v 5.915667 69.3 5.689017
v 7.978808 48.3 1.478111
v 3.561929 48.3 2.143121
v 4.758018 69.3 5.671719
v 7.978808 48.3 1.478111
v 7.969228 3 2.1193
v 4.954621 3 3.074368
v 3.561929 48.3 2.143121
v 4.758018 69.3 5.671719
v 3.561929 48.3 2.143121
v 4.771864 69.3 7.672149
v 3.197225 48.3 6.37383
v 3.561929 48.3 2.143121
v 4.954621 3 3.074368
v 3.197225 48.3 6.37383
v 4.477551 3 5.681641
vn 0 1 0
vn 0 1 0
vn 0 1 0
vn 0 1 0
vn 0 -1 0
vn 0 -1 0
vn 0 -1 0
vn 0 -1 0
vn 0.006877184 0.1056159 0.9943833
vn -0.04730169 0.04361236 0.9945254
vn -0.04730169 0.04361236 0.9945254
vn -0.1014806 -0.0183912 0.9946675
vn 0.9295025 -0.2977298 -0.2176742
vn 0.9294953 -0.297744 -0.2176854
vn 0.9294953 -0.297744 -0.2176854
vn 0.9294882 -0.2977583 -0.2176966
vn -0.298665 0.1486116 -0.9427162
vn -0.1565236 0.2437939 -0.9417006
vn -0.1565236 0.2437939 -0.9417006
vn -0.01438229 0.3389762 -0.940685
vn -0.986351 0.05607186 -0.08994797
vn -0.9895406 0.1442549 -2.359248E-07
vn -0.986351 0.05607186 -0.08994797
vn -0.9831614 -0.03211121 -0.1798957
vn -0.03312145 -0.05736136 0.9976325
vn -0.03312145 -0.05736136 0.9976325
vn -0.01491297 -0.06058604 0.9980516
vn -0.05132993 -0.05413667 0.9972134
vn -0.07644507 -0.01366889 0.996659
vn -0.07644507 -0.01366889 0.996659
vn -0.05139814 -0.01671046 0.9985384
vn -0.101492 -0.01062731 0.9947796
vn 0.9283429 0.1492518 -0.3404458
vn 0.9078939 0.1610573 -0.3838581
vn 0.9078939 0.1610573 -0.3838581
vn 0.8874449 0.1728628 -0.4272704
vn 0.9734936 -0.01835995 -0.2279762
vn 0.9561702 -0.01171589 -0.286137
vn 0.9561702 -0.01171589 -0.286137
vn 0.9388468 -0.005071842 -0.3442978
vn -0.06584894 0.1727538 -0.9793966
vn -0.1464339 0.1806363 -0.9725881
vn -0.06584894 0.1727538 -0.9793966
vn 0.01473601 0.1648712 -0.986205
vn -0.2254142 -0.01916298 -0.9708822
vn -0.3019915 -0.01342824 -0.953216
vn -0.2254142 -0.01916298 -0.9708822
vn -0.1488369 -0.02489772 -0.9885483
vn -0.9984233 0.05570555 0.006911035
vn -0.9957771 0.06773312 -0.03935042
vn -0.9957771 0.06773312 -0.03935042
vn -0.9931309 0.07976069 -0.08561187
vn -0.9957826 -0.03237876 -0.08584046
vn -0.9895715 -0.02871118 -0.1328863
vn -0.9895715 -0.02871118 -0.1328863
vn -0.9833602 -0.0250436 -0.1799321
vt 4.771864 7.672149
vt 6.885675 7.703734
vt 4.758018 5.671719
vt 5.915667 5.689017
vt -4.517282 2.000003
vt -6.971459 1.962481
vt -4.517282 6.000003
vt -7.911594 5.976528
vt -4.635593 -0.05593532
vt -8.028769 -0.0550748
vt -4.589545 2.946936
vt -9.029458 2.94349
vt 8.293674 3.38879
vt 7.875217 0.3415006
vt 4.173997 3.398319
vt 3.755968 0.3510225
vt 7.177821 3.41319
vt 6.251787 0.3873538
vt 4.019821 3.430612
vt 3.86738 0.3256695
vt -2.942273 3.277484
vt -1.879849 0.2561012
vt -5.87845 0.2620306
vt -5.56125 3.254615
vt -3.323223 48.23812
vt -7.037367 69.22529
vt -4.923347 69.22519
vt -10.03226 48.23611
vt -4.589545 2.946936
vt -10.03226 48.23611
vt -3.323223 48.23812
vt -9.029458 2.94349
vt 9.122649 48.66122
vt 3.55874 48.63572
vt 9.265014 69.44784
vt 7.064231 69.42541
vt 8.293674 3.38879
vt 4.173997 3.398319
vt 9.122649 48.66122
vt 3.55874 48.63572
vt 4.290854 69.65121
vt 7.348695 48.39276
vt 2.906796 48.343
vt 3.174936 69.61852
vt 7.348695 48.39276
vt 7.177821 3.41319
vt 4.019821 3.430612
vt 2.906796 48.343
vt -5.543915 69.46607
vt -2.04818 48.42683
vt -7.543279 69.46981
vt -6.287054 48.41267
vt -2.04818 48.42683
vt -2.942273 3.277484
vt -6.287054 48.41267
vt -5.56125 3.254615
g submesh0
f 1/1/1 2/2/2 3/3/3
f 2/2/2 4/4/4 3/3/3
f 5/5/5 6/6/6 7/7/7
f 6/6/6 8/8/8 7/7/7
f 9/9/9 10/10/10 11/11/11
f 11/11/11 10/10/10 12/12/12
f 13/13/13 14/14/14 15/15/15
f 14/14/14 16/16/16 15/15/15
f 17/17/17 18/18/18 19/19/19
f 18/18/18 20/20/20 19/19/19
f 21/21/21 22/22/22 23/23/23
f 21/21/21 23/23/23 24/24/24
f 25/25/25 26/26/26 27/27/27
f 28/28/28 26/26/26 25/25/25
f 29/29/29 30/30/30 31/31/31
f 32/32/32 30/30/30 29/29/29
f 33/33/33 34/34/34 35/35/35
f 35/35/35 34/34/34 36/36/36
f 37/37/37 38/38/38 39/39/39
f 39/39/39 38/38/38 40/40/40
f 41/41/41 42/42/42 43/43/43
f 41/41/41 43/43/43 44/44/44
f 45/45/45 46/46/46 47/47/47
f 45/45/45 47/47/47 48/48/48
f 49/49/49 50/50/50 51/51/51
f 51/51/51 50/50/50 52/52/52
f 53/53/53 54/54/54 55/55/55
f 55/55/55 54/54/54 56/56/56
