v 6 0 6
v 9 0 6
v 9 10 5.999997
v 5.999998 10 5.000014
v 9 0 6
v 11 0 6.000017
v 11 10 5.000001
v 9 10 5.999997
v 11 0 1
v 9 0 1.000016
v 9 10 5.066394E-07
v 11 10 1.000002
v 9 0 1.000016
v 7 0 1
v 7 10 0.9999995
v 9 10 5.066394E-07
v 11 0 6.000017
v 12 0 3
v 12 10 2.999998
v 11 10 5.000001
v 12 0 3
v 11 0 1
v 11 10 1.000002
v 12 10 2.999998
v 7 0 1
v 6 0 3
v 6 10 2.999999
v 7 10 0.9999995
v 6 0 3
v 6 0 6
v 5.999998 10 5.000014
v 6 10 2.999999
v 9 10 5.066394E-07
v 7 10 0.9999995
v 6 10 2.999999
v 9 10 2.999997
v 6 10 2.999999
v 5.999998 10 5.000014
v 9 10 5.999997
v 9 10 2.999997
v 11 10 1.000002
v 9 10 5.066394E-07
v 9 10 2.999997
v 12 10 2.999998
v 9 10 2.999997
v 9 10 5.999997
v 11 10 5.000001
v 12 10 2.999998
v 9 0 1.000016
v 9 0 3
v 6 0 3
v 7 0 1
v 9 0 3
v 9 0 6
v 6 0 6
v 6 0 3
v 11 0 1
v 12 0 3
v 9 0 3
v 9 0 1.000016
v 12 0 3
v 11 0 6.000017
v 9 0 6
v 9 0 3
vn -0.1574046 0.04722169 0.9722223
vn 0 3.33786E-07 1
vn -0.1574046 0.04722169 0.9722223
vn -0.3148091 0.09444305 0.9444447
vn 0.2236018 0.04975276 0.9447325
vn -8.303248E-06 0.09950522 0.995037
vn 0.2236018 0.04975276 0.9447325
vn 0.4472119 2.985476E-07 0.894428
vn -7.867813E-06 1.549721E-07 -1
vn 0.2227139 -0.04454413 -0.9454353
vn 0.4454357 -0.08908841 -0.8908705
vn 0.2227139 -0.04454413 -0.9454353
vn 7.828766E-06 -0.09950522 -0.995037
vn -0.2236027 -0.04975262 -0.9447322
vn -0.4472133 -2.132482E-08 -0.8944274
vn -0.2236027 -0.04975262 -0.9447322
vn 0.9482096 0.03160711 0.316069
vn 0.9213185 0.01580359 0.381641
vn 0.8944275 7.463673E-08 0.4472131
vn 0.9213185 0.01580359 0.381641
vn 0.8944272 -7.463682E-08 -0.4472136
vn 0.8944271 -2.665558E-09 -0.4472139
vn 0.8944269 6.930571E-08 -0.4472142
vn 0.8944271 -2.665558E-09 -0.4472139
vn -0.8944272 1.06624E-08 -0.4472136
vn -0.8944272 0 -0.4472136
vn -0.8944272 1.06624E-08 -0.4472136
vn -0.8944272 2.13248E-08 -0.4472137
vn -1 -7.152563E-08 -5.960419E-07
vn -1 -1.907349E-07 0
vn -1 -7.152563E-08 -5.960419E-07
vn -1 4.76836E-08 -1.192084E-06
vn 0 1 0
vn 0 1 0
vn 0 1 0
vn 0 1 0
vn 0 1 0
vn 0 1 0
vn 0 1 0
vn 0 1 0
vn 0 1 0
vn 0 1 0
vn 0 1 0
vn 0 1 0
vn 0 1 0
vn 0 1 0
vn 0 1 0
vn 0 1 0
vn 0 -1 0
vn 0 -1 0
vn 0 -1 0
vn 0 -1 0
vn 0 -1 0
vn 0 -1 0
vn 0 -1 0
vn 0 -1 0
vn 0 -1 0
vn 0 -1 0
vn 0 -1 0
vn 0 -1 0
vn 0 -1 0
vn 0 -1 0
vn 0 -1 0
vn 0 -1 0
vt -6.000025 -0.2988865
vt -9.000025 -0.2988859
vt -9.000025 9.688699
vt -6.000019 9.738512
vt -9.000025 -0.2988859
vt -11.00002 -0.2988863
vt -11.00002 9.738514
vt -9.000025 9.688699
vt 10.999 -0.05038496
vt 8.999 -0.0502865
vt 8.999995 9.987126
vt 10.999 9.937188
vt 8.999 -0.0502865
vt 6.999001 -0.05018647
vt 6.999002 9.937387
vt 8.999995 9.987126
vt 6.765797 -0.1804192
vt 3.844342 -0.201127
vt 3.844341 9.79741
vt 5.768305 9.816903
vt 3.844342 -0.201127
vt 1.778396 -0.1864918
vt 1.778398 9.812045
vt 3.844341 9.79741
vt 0.6350259 2.496747E-07
vt -1.541225 2.314612E-07
vt -1.541224 10
vt 0.6350265 10
vt -1.541225 2.314612E-07
vt -4.460972 2.558973E-07
vt -3.487737 10
vt -1.541224 10
vt 9 5.066394E-07
vt 7 0.9999995
vt 6 2.999999
vt 9 2.999997
vt 6 2.999999
vt 5.999998 5.000014
vt 9 5.999997
vt 9 2.999997
vt 11 1.000002
vt 9 5.066394E-07
vt 9 2.999997
vt 12 2.999998
vt 9 2.999997
vt 9 5.999997
vt 11 5.000001
vt 12 2.999998
vt -9 1.000016
vt -9 3
vt -6 3
vt -7 1
vt -9 3
vt -9 6
vt -6 6
vt -6 3
vt -11 1
vt -12 3
vt -9 3
vt -9 1.000016
vt -12 3
vt -11 6.000017
vt -9 6
vt -9 3
g submesh0
f 1/1/1 2/2/2 3/3/3
f 4/4/4 1/1/1 3/3/3
f 5/5/5 6/6/6 7/7/7
f 8/8/8 5/5/5 7/7/7
f 12/12/12 10/10/10 11/11/11
f 12/12/12 9/9/9 10/10/10
f 16/16/16 14/14/14 15/15/15
f 16/16/16 13/13/13 14/14/14
f 17/17/17 18/18/18 20/20/20
f 20/20/20 18/18/18 19/19/19
f 22/22/22 24/24/24 21/21/21
f 22/22/22 23/23/23 24/24/24
f 27/27/27 28/28/28 25/25/25
f 26/26/26 27/27/27 25/25/25
f 32/32/32 29/29/29 31/31/31
f 31/31/31 29/29/29 30/30/30
f 33/33/33 34/34/34 35/35/35
f 36/36/36 33/33/33 35/35/35
f 40/40/40 37/37/37 38/38/38
f 39/39/39 40/40/40 38/38/38
f 41/41/41 42/42/42 43/43/43
f 44/44/44 41/41/41 43/43/43
f 48/48/48 45/45/45 46/46/46
f 47/47/47 48/48/48 46/46/46
f 51/51/51 49/49/49 50/50/50
f 51/51/51 52/52/52 49/49/49
f 55/55/55 53/53/53 54/54/54
f 55/55/55 56/56/56 53/53/53
f 59/59/59 57/57/57 58/58/58
f 59/59/59 60/60/60 57/57/57
f 63/63/63 61/61/61 62/62/62
f 63/63/63 64/64/64 61/61/61
