v 0.7499996 -3 0.2499999
v 0.9999996 -3 0.2499998
v 0.7499969 6 0.2499992
v 0.9999969 6 0.2499998
v 0.9999996 -3 0.2499998
v 0.9999995 -3 -2.384186E-07
v 0.9999969 6 0.2499998
v 0.9999975 6 -2.384188E-07
v 0.9999995 -3 -2.384186E-07
v 0.7499995 -3 -1.490116E-07
v 0.9999975 6 -2.384188E-07
v 0.7499975 6 -8.344653E-07
v -1 -3 4.768372E-07
v -1 -3 0.2500005
v -1.000003 6 7.152562E-07
v -1.000003 6 0.2500007
v 0.7499969 6 0.2499992
v 0.9999969 6 0.2499998
v 0.7499975 6 -8.344653E-07
v 0.9999975 6 -2.384188E-07
v 0.7499995 -3 -1.490116E-07
v 0.9999995 -3 -2.384186E-07
v 0.7499996 -3 0.2499999
v 0.9999996 -3 0.2499998
v -0.7500005 -3 3.874302E-07
v -0.7500004 -3 0.2500004
v -1 -3 4.768372E-07
v -1 -3 0.2500005
v -0.7500027 6 -5.960462E-07
v -0.7500005 -3 3.874302E-07
v -1.000003 6 7.152562E-07
v -1 -3 4.768372E-07
v -0.7500004 -3 0.2500004
v -0.7500033 6 0.2499994
v -1 -3 0.2500005
v -1.000003 6 0.2500007
v -0.7500033 6 0.2499994
v -0.7500027 6 -5.960462E-07
v -1.000003 6 0.2500007
v -1.000003 6 7.152562E-07
v 0.7499996 -3 0.2499999
v 0.7499969 6 0.2499992
v 0.7499995 -3 -1.490116E-07
v 0.7499975 6 -8.344653E-07
v -0.7500033 6 0.2499994
v -0.7500004 -3 0.2500004
v -0.7500027 6 -5.960462E-07
v -0.7500005 -3 3.874302E-07
v 0.7499996 -3 0.1249999
v 0.7499972 6 0.1249992
v -0.7500004 -3 0.1250004
v -0.750003 6 0.1249994
vn 3.576279E-07 7.285023E-08 1
vn -1.013279E-06 3.476907E-08 1
vn -1.013279E-06 3.476907E-08 1
vn -2.384186E-06 -3.312095E-09 1
vn 1 3.04646E-07 -4.768372E-07
vn 1 2.649095E-07 9.536742E-07
vn 1 2.649095E-07 9.536742E-07
vn 1 2.251731E-07 2.384186E-06
vn -3.576279E-07 -1.057919E-13 -1
vn 1.013279E-06 -3.808054E-08 -1
vn 1.013279E-06 -3.808054E-08 -1
vn 2.384186E-06 -7.616098E-08 -1
vn -1 -2.516641E-07 4.768372E-07
vn -1 -2.914005E-07 -9.536742E-07
vn -1 -2.914005E-07 -9.536742E-07
vn -1 -3.311368E-07 -2.384186E-06
vn 0 1 0
vn 0 1 0
vn 0 1 0
vn 0 1 0
vn 0 -1 0
vn 0 -1 0
vn 0 -1 0
vn 0 -1 0
vn 0 -1 0
vn 0 -1 0
vn 0 -1 0
vn 0 -1 0
vn -5.24521E-06 -1.092765E-07 -1
vn -2.801419E-06 -4.139278E-08 -1
vn -2.801419E-06 -4.139278E-08 -1
vn -3.576279E-07 2.649091E-08 -1
vn 3.576279E-07 1.059639E-07 1
vn 2.801418E-06 3.808167E-08 1
vn 2.801418E-06 3.808167E-08 1
vn 5.245209E-06 -2.980059E-08 1
vn 0 1 0
vn 0 1 0
vn 0 1 0
vn 0 1 0
vn -1 -3.046459E-07 4.768372E-07
vn -1 -2.649096E-07 -9.536742E-07
vn -1 -2.649096E-07 -9.536742E-07
vn -1 -2.251733E-07 -2.384186E-06
vn 1 3.311372E-07 2.384186E-06
vn 1 2.914006E-07 9.536742E-07
vn 1 2.914006E-07 9.536742E-07
vn 1 2.51664E-07 -4.768372E-07
vn 3.576279E-07 7.45059E-08 1
vn 2.582868E-07 9.106272E-08 1
vn 2.582868E-07 9.106272E-08 1
vn 1.589457E-07 1.076195E-07 1
vt -0.7499996 -3
vt -0.9999996 -3
vt -0.7499968 6
vt -0.9999968 6
vt -1.875 -3
vt -2.125 -3
vt -1.875 6
vt -2.125 6
vt 0.9999995 -3
vt 0.7499995 -3
vt 0.9999975 6
vt 0.7499975 6
vt 2.125 -3
vt 1.875 -3
vt 2.125 6
vt 1.875 6
vt 0.7499969 -1.875001
vt 0.9999969 -1.875
vt 0.7499975 -2.125001
vt 0.9999975 -2.125
vt -0.7499995 -2.125
vt -0.9999995 -2.125
vt -0.7499996 -1.875
vt -0.9999996 -1.875
vt 0.7500005 -2.125
vt 0.7500004 -1.875
vt 1 -2.125
vt 1 -1.875
vt -0.7500027 6
vt -0.7500005 -3
vt -1.000003 6
vt -1 -3
vt 0.7500005 -3
vt 0.7500034 6
vt 1 -3
vt 1.000003 6
vt -0.7500033 -1.875001
vt -0.7500027 -2.125
vt -1.000003 -1.874999
vt -1.000003 -2.124999
vt 1.875 -3
vt 1.875 6
vt 2.125 -3
vt 2.125 6
vt -1.874999 6
vt -1.874998 -3
vt -2.124999 6
vt -2.124998 -3
vt -0.7499995 -3
vt -0.7499971 6
vt 0.7500005 -3
vt 0.7500031 6
g submesh0
f 1/1/1 2/2/2 3/3/3
f 2/2/2 4/4/4 3/3/3
f 5/5/5 6/6/6 7/7/7
f 6/6/6 8/8/8 7/7/7
f 9/9/9 10/10/10 11/11/11
f 10/10/10 12/12/12 11/11/11
f 13/13/13 14/14/14 15/15/15
f 14/14/14 16/16/16 15/15/15
f 17/17/17 18/18/18 19/19/19
f 18/18/18 20/20/20 19/19/19
f 21/21/21 22/22/22 23/23/23
f 22/22/22 24/24/24 23/23/23
f 25/25/25 26/26/26 27/27/27
f 26/26/26 28/28/28 27/27/27
f 29/29/29 30/30/30 31/31/31
f 30/30/30 32/32/32 31/31/31
f 33/33/33 34/34/34 35/35/35
f 34/34/34 36/36/36 35/35/35
f 37/37/37 38/38/38 39/39/39
f 38/38/38 40/40/40 39/39/39
f 41/41/41 42/42/42 43/43/43
f 42/42/42 44/44/44 43/43/43
f 45/45/45 46/46/46 47/47/47
f 46/46/46 48/48/48 47/47/47
g submesh1
f 49/49/49 50/50/50 51/51/51
f 50/50/50 52/52/52 51/51/51
