v -2 -2 -12
v 4 -2 -12
v -2 -2 4
v 4 -2 4
v -2 -2 24
v 4 -2 24
v -2 -2 32
v 4 -2 32
v 16 -2 32
v 16 -2 24
v 24 -2 32
v 24 -2 24
v 24 -2 14
v 16 -2 14
v 24 -2 6
v 16 -2 6
v 8 -2 6
v 8 -2 14
v 6 -2 6
v 6 -2 14
v -2 -2 32
v 4 -2 32
v 4 8 32
v -2 8 32
v 4 18 32
v -2 18 32
v 4 -2 4
v 4 -2 -12
v 4 5 -12
v 4 5 4
v 4 12 -12
v 4 12 4
v 4 5 -12
v -2 -2 -12
v -2 5 -12
v 4 -2 -12
v 4 12 -22
v -2 5 -22
v -2 12 -22
v 4 5 -22
v -2 5 -12
v -2 -2 4
v -2 5 4
v -2 -2 -12
v -2 12 -12
v -2 12 4
v -2 -2 24
v -2 8 24
v -2 18 24
v -2 -2 32
v -2 8 32
v -2 18 32
v 4 -2 24
v 4 8 24
v 4 18 24
v 24 -2 32
v 24 -2 24
v 24 10 24
v 24 10 32
v 24 22 24
v 24 22 32
v 16 10 24
v 16 -2 24
v 4 8 24
v 4 -2 24
v 16 22 24
v 4 18 24
v 16 10 32
v 16 22 32
v 16 -2 32
v 24 12 6
v 16 -2 6
v 16 12 6
v 24 -2 6
v 24 26 6
v 16 26 6
v 24 10 32
v 24 22 32
v 24 -2 32
v 16 12 14
v 16 -2 14
v 16 10 24
v 16 -2 24
v 16 26 14
v 16 22 24
v 24 12 14
v 24 26 14
v 24 -2 14
v 6 20 6
v 6 -2 14
v 6 22 14
v 6 -2 6
v -16 26 6
v -16 22 14
v -16 26 14
v -16 20 6
v 24 12 6
v 24 26 6
v 24 -2 6
v 8 -2 14
v 16 -2 14
v 16 12 14
v 8 12 14
v 16 26 14
v 8 26 14
v 8 12 6
v 8 26 6
v 8 -2 6
v 6 -2 14
v 6 22 14
v 6 26 14
v 6 20 6
v 6 26 6
v 6 -2 6
v -4 22 14
v -4 26 14
v -16 22 14
v -16 26 14
v -4 26 6
v -4 20 6
v -16 26 6
v -16 20 6
v -4 -2 6
v -4 -2 14
v -16 -2 6
v -16 -2 14
v -4 20 6
v -4 22 14
v -4 -2 6
v -4 -2 14
v -16 -2 6
v -4 -2 6
v -4 -2 14
v -16 -2 14
v -16 -2 14
v -16 -2 6
v 4 23 14
v 4 26 14
v 4 21 6
v 4 26 6
v 4 23 14
v 6 20 6
v 6 22 14
v 4 21 6
v -2 23 14
v -2 26 14
v -2 26 6
v -2 21 6
v -2 23 14
v 4 21 6
v 4 23 14
v -2 21 6
v -4 22 14
v -2 21 6
v -2 23 14
v -4 20 6
v -2 5 -16
v -2 12 -16
v 4 12 -16
v 4 5 -16
v 4 5 -12
v -2 5 -12
v 4 5 -16
v -2 5 -16
v -16 2 -16
v -16 9 -16
v -16 2 -22
v -16 9 -22
v 4 12 -22
v 4 5 -22
v 4 5 -22
v -2 5 -22
v -2 5 -16
v -2 12 -16
v -16 2 -16
v -16 9 -16
v -2 5 -22
v -2 5 -16
v -16 2 -22
v -16 2 -16
v -16 9 -22
v -16 2 -22
v -2 12 4
v 4 12 4
v -2 12 -12
v 4 12 -12
v 4 12 4
v -2 12 4
v -2 18 24
v 4 18 24
v 4 18 24
v -2 18 24
v -2 18 32
v 4 18 32
v 4 18 24
v 4 18 32
v 16 22 24
v 16 22 32
v 16 22 24
v 16 22 32
v 24 22 24
v 24 22 32
v 16 22 24
v 24 22 24
v 16 26 14
v 24 26 14
v 16 26 14
v 24 26 14
v 16 26 6
v 24 26 6
v 8 26 14
v 8 26 6
v 6 26 14
v 6 26 6
v -4 26 14
v -4 26 6
v -16 26 14
v -16 26 6
v 4 26 6
v 4 26 14
v -2 26 6
v -2 26 14
v -2 12 -16
v 4 12 -16
v -2 12 -22
v 4 12 -22
v -2 12 -16
v -2 12 -22
v -16 9 -16
v -16 9 -22
vn 0 -1 0
vn 0 -1 0
vn 0 -1 0
vn 0 -1 0
vn 0 -1 0
vn 0 -1 0
vn 0 -1 0
vn 0 -1 0
vn 0 -1 0
vn 0 -1 0
vn 0 -1 0
vn 0 -1 0
vn 0 -1 0
vn 0 -1 0
vn 0 -1 0
vn 0 -1 0
vn 0 -1 0
vn 0 -1 0
vn 0 -1 0
vn 0 -1 0
vn 0 0 1
vn 0 0 1
vn 0 0 1
vn 0 0 1
vn 0 0 1
vn 0 0 1
vn 1 0 0
vn 1 0 0
vn 1 0 0
vn 1 0 0
vn 1 0 0
vn 1 0 0
vn 0 0 -1
vn 0 0 -1
vn 0 0 -1
vn 0 0 -1
vn 0 0 -1
vn 0 0 -1
vn 0 0 -1
vn 0 0 -1
vn -1 0 0
vn -1 0 0
vn -1 0 0
vn -1 0 0
vn -1 0 0
vn -1 0 0
vn -1 0 0
vn -1 0 0
vn -1 0 0
vn -1 0 0
vn -1 0 0
vn -1 0 0
vn 1 0 0
vn 1 0 0
vn 1 0 0
vn 1 0 0
vn 1 0 0
vn 1 0 0
vn 1 0 0
vn 1 0 0
vn 1 0 0
vn 0 0 -1
vn 0 0 -1
vn 0 0 -1
vn 0 0 -1
vn 0 0 -1
vn 0 0 -1
vn 0 0 1
vn 0 0 1
vn 0 0 1
vn 0 0 -1
vn 0 0 -1
vn 0 0 -1
vn 0 0 -1
vn 0 0 -1
vn 0 0 -1
vn 0 0 1
vn 0 0 1
vn 0 0 1
vn -1 0 0
vn -1 0 0
vn -1 0 0
vn -1 0 0
vn -1 0 0
vn -1 0 0
vn 1 0 0
vn 1 0 0
vn 1 0 0
vn -1 0 0
vn -1 0 0
vn -1 0 0
vn -1 0 0
vn -1 0 0
vn -1 0 0
vn -1 0 0
vn -1 0 0
vn 1 0 0
vn 1 0 0
vn 1 0 0
vn 0 0 1
vn 0 0 1
vn 0 0 1
vn 0 0 1
vn 0 0 1
vn 0 0 1
vn 0 0 -1
vn 0 0 -1
vn 0 0 -1
vn 0 0 1
vn 0 0 1
vn 0 0 1
vn 0 0 -1
vn 0 0 -1
vn 0 0 -1
vn 0 0 1
vn 0 0 1
vn 0 0 1
vn 0 0 1
vn 0 0 -1
vn 0 0 -1
vn 0 0 -1
vn 0 0 -1
vn 0 -1 0
vn 0 -1 0
vn 0 -1 0
vn 0 -1 0
vn 1 0 0
vn 1 0 0
vn 1 0 0
vn 1 0 0
vn 0 0 -1
vn 0 0 -1
vn 0 0 1
vn 0 0 1
vn -1 0 0
vn -1 0 0
vn 0 0 1
vn 0 0 1
vn 0 0 -1
vn 0 0 -1
vn -0.4364358 -0.8728716 0.2182179
vn -0.4364358 -0.8728716 0.2182179
vn -0.4364358 -0.8728716 0.2182179
vn -0.4364358 -0.8728716 0.2182179
vn 0 0 1
vn 0 0 1
vn 0 0 -1
vn 0 0 -1
vn 0 -0.9701425 0.2425356
vn 0 -0.9701425 0.2425356
vn 0 -0.9701425 0.2425356
vn 0 -0.9701425 0.2425356
vn 0.4364358 -0.8728716 0.2182179
vn 0.4364358 -0.8728716 0.2182179
vn 0.4364358 -0.8728716 0.2182179
vn 0.4364358 -0.8728716 0.2182179
vn -1 0 0
vn -1 0 0
vn 1 0 0
vn 1 0 0
vn 0 -1 0
vn 0 -1 0
vn 0 -1 0
vn 0 -1 0
vn -1 0 0
vn -1 0 0
vn -1 0 0
vn -1 0 0
vn 1 0 0
vn 1 0 0
vn 0 -1 0
vn 0 -1 0
vn 0 0 1
vn 0 0 1
vn 0 0 1
vn 0 0 1
vn 0.2095291 -0.9778024 0
vn 0.2095291 -0.9778024 0
vn 0.2095291 -0.9778024 0
vn 0.2095291 -0.9778024 0
vn 0 0 -1
vn 0 0 -1
vn 0 1 0
vn 0 1 0
vn 0 1 0
vn 0 1 0
vn 0 0.9578263 -0.2873479
vn 0 0.9578263 -0.2873479
vn 0 0.9578263 -0.2873479
vn 0 0.9578263 -0.2873479
vn 0 1 0
vn 0 1 0
vn 0 1 0
vn 0 1 0
vn -0.3162278 0.9486833 0
vn -0.3162278 0.9486833 0
vn -0.3162278 0.9486833 0
vn -0.3162278 0.9486833 0
vn 0 1 0
vn 0 1 0
vn 0 1 0
vn 0 1 0
vn 0 0.9284767 0.3713907
vn 0 0.9284767 0.3713907
vn 0 0.9284767 0.3713907
vn 0 0.9284767 0.3713907
vn 0 1 0
vn 0 1 0
vn 0 1 0
vn 0 1 0
vn 0 1 0
vn 0 1 0
vn 0 1 0
vn 0 1 0
vn 0 1 0
vn 0 1 0
vn 0 1 0
vn 0 1 0
vn 0 1 0
vn 0 1 0
vn 0 1 0
vn 0 1 0
vn 0 1 0
vn 0 1 0
vn 0 1 0
vn 0 1 0
vn -0.2095291 0.9778024 0
vn -0.2095291 0.9778024 0
vn -0.2095291 0.9778024 0
vn -0.2095291 0.9778024 0
vt 2 -12
vt -4 -12
vt 2 4
vt -4 4
vt 2 24
vt -4 24
vt 2 32
vt -4 32
vt -16 32
vt -16 24
vt -24 32
vt -24 24
vt -24 14
vt -16 14
vt -24 6
vt -16 6
vt -8 6
vt -8 14
vt -6 6
vt -6 14
vt 2 -2
vt -4 -2
vt -4 8
vt 2 8
vt -4 18
vt 2 18
vt 4 -2
vt -12 -2
vt -12 5
vt 4 5
vt -12 12
vt 4 12
vt 4 5
vt -2 -2
vt -2 5
vt 4 -2
vt 4 12
vt -2 5
vt -2 12
vt 4 5
vt 12 5
vt -4 -2
vt -4 5
vt 12 -2
vt 12 12
vt -4 12
vt -24 -2
vt -24 8
vt -24 18
vt -32 -2
vt -32 8
vt -32 18
vt 24 -2
vt 24 8
vt 24 18
vt 32 -2
vt 24 -2
vt 24 10
vt 32 10
vt 24 22
vt 32 22
vt 16 10
vt 16 -2
vt 4 8
vt 4 -2
vt 16 22
vt 4 18
vt -16 10
vt -16 22
vt -16 -2
vt 24 12
vt 16 -2
vt 16 12
vt 24 -2
vt 24 26
vt 16 26
vt -24 10
vt -24 22
vt -24 -2
vt -14 12
vt -14 -2
vt -24 10
vt -24 -2
vt -14 26
vt -24 22
vt 14 12
vt 14 26
vt 14 -2
vt -6 20
vt -14 -2
vt -14 22
vt -6 -2
vt -6 26
vt -14 22
vt -14 26
vt -6 20
vt 6 12
vt 6 26
vt 6 -2
vt -8 -2
vt -16 -2
vt -16 12
vt -8 12
vt -16 26
vt -8 26
vt 8 12
vt 8 26
vt 8 -2
vt -6 -2
vt -6 22
vt -6 26
vt 6 20
vt 6 26
vt 6 -2
vt 4 22
vt 4 26
vt 16 22
vt 16 26
vt -4 26
vt -4 20
vt -16 26
vt -16 20
vt 4 6
vt 4 14
vt 16 6
vt 16 14
vt 6 20
vt 14 22
vt 6 -2
vt 14 -2
vt -16 -2
vt -4 -2
vt 4 -2
vt 16 -2
vt -14 -2
vt -6 -2
vt -4 23
vt -4 26
vt 4 21
vt 4 26
vt -4 19.16031
vt -6 10.67157
vt -6 18.91778
vt -4 10.9141
vt 2 23
vt 2 26
vt -2 26
vt -2 21
vt 2 19.16031
vt -4 10.9141
vt -4 19.16031
vt 2 10.9141
vt 4 18.91778
vt 2 10.9141
vt 2 19.16031
vt 4 10.67157
vt 16 5
vt 16 12
vt -16 12
vt -16 5
vt -4 -12
vt 2 -12
vt -4 -16
vt 2 -16
vt 16 2
vt 16 9
vt 22 2
vt 22 9
vt -22 12
vt -22 5
vt -4 -22
vt 2 -22
vt 2 5
vt 2 12
vt 16 2
vt 16 9
vt 0.9079593 -22
vt 0.9079593 -16
vt 15.22578 -22
vt 15.22578 -16
vt -16 9
vt -16 2
vt -2 4
vt 4 4
vt -2 -12
vt 4 -12
vt 4 5.700159
vt -2 5.700159
vt -2 26.35945
vt 4 26.35945
vt 4 26.35945
vt -2 26.35945
vt -2 34.27465
vt 4 34.27465
vt 9.486834 24
vt 9.486834 32
vt 22.13594 24
vt 22.13594 32
vt 16 24
vt 16 32
vt 24 24
vt 24 32
vt 16 14.11285
vt 24 14.11285
vt 16 3.342516
vt 24 3.342516
vt 16 14
vt 24 14
vt 16 6
vt 24 6
vt 8 14
vt 8 6
vt 6 14
vt 6 6
vt -4 14
vt -4 6
vt -16 14
vt -16 6
vt 4 6
vt 4 14
vt -2 6
vt -2 14
vt -2 -16
vt 4 -16
vt -2 -22
vt 4 -22
vt 0.5587443 -16
vt 0.5587443 -22
vt -13.75908 -16
vt -13.75908 -22
g submesh0
f 1/1/1 2/2/2 3/3/3
f 2/2/2 4/4/4 3/3/3
f 5/5/5 4/4/4 6/6/6
f 5/5/5 3/3/3 4/4/4
f 7/7/7 6/6/6 8/8/8
f 7/7/7 5/5/5 6/6/6
f 8/8/8 6/6/6 9/9/9
f 6/6/6 10/10/10 9/9/9
f 9/9/9 10/10/10 11/11/11
f 10/10/10 12/12/12 11/11/11
f 12/12/12 10/10/10 13/13/13
f 10/10/10 14/14/14 13/13/13
f 13/13/13 14/14/14 15/15/15
f 14/14/14 16/16/16 15/15/15
f 16/16/16 14/14/14 17/17/17
f 14/14/14 18/18/18 17/17/17
f 17/17/17 18/18/18 19/19/19
f 18/18/18 20/20/20 19/19/19
f 21/21/21 22/22/22 23/23/23
f 24/24/24 21/21/21 23/23/23
f 24/24/24 23/23/23 25/25/25
f 26/26/26 24/24/24 25/25/25
f 27/27/27 28/28/28 29/29/29
f 30/30/30 27/27/27 29/29/29
f 30/30/30 29/29/29 31/31/31
f 32/32/32 30/30/30 31/31/31
f 33/33/33 34/34/34 35/35/35
f 33/33/33 36/36/36 34/34/34
f 37/37/37 38/38/38 39/39/39
f 37/37/37 40/40/40 38/38/38
f 41/41/41 42/42/42 43/43/43
f 41/41/41 44/44/44 42/42/42
f 45/45/45 43/43/43 46/46/46
f 45/45/45 41/41/41 43/43/43
f 43/43/43 47/47/47 48/48/48
f 43/43/43 42/42/42 47/47/47
f 46/46/46 48/48/48 49/49/49
f 46/46/46 43/43/43 48/48/48
f 48/48/48 50/50/50 51/51/51
f 48/48/48 47/47/47 50/50/50
f 49/49/49 51/51/51 52/52/52
f 49/49/49 48/48/48 51/51/51
f 53/53/53 27/27/27 30/30/30
f 54/54/54 53/53/53 30/30/30
f 54/54/54 30/30/30 32/32/32
f 55/55/55 54/54/54 32/32/32
f 56/56/56 57/57/57 58/58/58
f 59/59/59 56/56/56 58/58/58
f 59/59/59 58/58/58 60/60/60
f 61/61/61 59/59/59 60/60/60
f 62/62/62 63/63/63 64/64/64
f 63/63/63 65/65/65 64/64/64
f 66/66/66 62/62/62 67/67/67
f 62/62/62 64/64/64 67/67/67
f 25/25/25 23/23/23 68/68/68
f 25/25/25 68/68/68 69/69/69
f 23/23/23 22/22/22 70/70/70
f 23/23/23 70/70/70 68/68/68
f 71/71/71 72/72/72 73/73/73
f 71/71/71 74/74/74 72/72/72
f 75/75/75 73/73/73 76/76/76
f 75/75/75 71/71/71 73/73/73
f 68/68/68 77/77/77 78/78/78
f 69/69/69 68/68/68 78/78/78
f 70/70/70 79/79/79 77/77/77
f 68/68/68 70/70/70 77/77/77
f 80/80/80 81/81/81 82/82/82
f 81/81/81 83/83/83 82/82/82
f 84/84/84 80/80/80 85/85/85
f 80/80/80 82/82/82 85/85/85
f 60/60/60 58/58/58 86/86/86
f 60/60/60 86/86/86 87/87/87
f 58/58/58 57/57/57 88/88/88
f 58/58/58 88/88/88 86/86/86
f 89/89/89 90/90/90 91/91/91
f 89/89/89 92/92/92 90/90/90
f 93/93/93 94/94/94 95/95/95
f 93/93/93 96/96/96 94/94/94
f 86/86/86 97/97/97 98/98/98
f 87/87/87 86/86/86 98/98/98
f 88/88/88 99/99/99 97/97/97
f 86/86/86 88/88/88 97/97/97
f 100/100/100 101/101/101 102/102/102
f 103/103/103 100/100/100 102/102/102
f 103/103/103 102/102/102 104/104/104
f 105/105/105 103/103/103 104/104/104
f 76/76/76 106/106/106 107/107/107
f 76/76/76 73/73/73 106/106/106
f 73/73/73 108/108/108 106/106/106
f 73/73/73 72/72/72 108/108/108
f 109/109/109 100/100/100 103/103/103
f 110/110/110 109/109/109 103/103/103
f 110/110/110 103/103/103 105/105/105
f 111/111/111 110/110/110 105/105/105
f 107/107/107 112/112/112 113/113/113
f 107/107/107 106/106/106 112/112/112
f 106/106/106 114/114/114 112/112/112
f 106/106/106 108/108/108 114/114/114
f 115/115/115 116/116/116 117/117/117
f 116/116/116 118/118/118 117/117/117
f 119/119/119 120/120/120 121/121/121
f 120/120/120 122/122/122 121/121/121
f 123/123/123 124/124/124 125/125/125
f 124/124/124 126/126/126 125/125/125
f 127/127/127 128/128/128 129/129/129
f 128/128/128 130/130/130 129/129/129
f 122/122/122 120/120/120 131/131/131
f 120/120/120 132/132/132 131/131/131
f 115/115/115 117/117/117 133/133/133
f 117/117/117 134/134/134 133/133/133
f 94/94/94 96/96/96 135/135/135
f 96/96/96 136/136/136 135/135/135
f 137/137/137 110/110/110 111/111/111
f 138/138/138 137/137/137 111/111/111
f 113/113/113 139/139/139 140/140/140
f 113/113/113 112/112/112 139/139/139
f 141/141/141 142/142/142 143/143/143
f 141/141/141 144/144/144 142/142/142
f 115/115/115 145/145/145 146/146/146
f 116/116/116 115/115/115 146/146/146
f 145/145/145 137/137/137 138/138/138
f 146/146/146 145/145/145 138/138/138
f 147/147/147 120/120/120 119/119/119
f 147/147/147 148/148/148 120/120/120
f 140/140/140 148/148/148 147/147/147
f 140/140/140 139/139/139 148/148/148
f 149/149/149 150/150/150 151/151/151
f 149/149/149 152/152/152 150/150/150
f 153/153/153 154/154/154 155/155/155
f 153/153/153 156/156/156 154/154/154
f 41/41/41 45/45/45 157/157/157
f 45/45/45 158/158/158 157/157/157
f 31/31/31 29/29/29 159/159/159
f 29/29/29 160/160/160 159/159/159
f 161/161/161 162/162/162 163/163/163
f 162/162/162 164/164/164 163/163/163
f 165/165/165 166/166/166 167/167/167
f 166/166/166 168/168/168 167/167/167
f 159/159/159 160/160/160 169/169/169
f 160/160/160 170/170/170 169/169/169
f 163/163/163 164/164/164 171/171/171
f 164/164/164 172/172/172 171/171/171
f 173/173/173 174/174/174 175/175/175
f 174/174/174 176/176/176 175/175/175
f 177/177/177 178/178/178 179/179/179
f 178/178/178 180/180/180 179/179/179
f 39/39/39 38/38/38 181/181/181
f 38/38/38 182/182/182 181/181/181
g submesh1
f 183/183/183 184/184/184 185/185/185
f 184/184/184 186/186/186 185/185/185
f 187/187/187 188/188/188 189/189/189
f 190/190/190 187/187/187 189/189/189
f 191/191/191 192/192/192 193/193/193
f 194/194/194 191/191/191 193/193/193
f 195/195/195 196/196/196 197/197/197
f 196/196/196 198/198/198 197/197/197
f 199/199/199 200/200/200 201/201/201
f 200/200/200 202/202/202 201/201/201
f 203/203/203 204/204/204 205/205/205
f 204/204/204 206/206/206 205/205/205
f 207/207/207 208/208/208 209/209/209
f 208/208/208 210/210/210 209/209/209
f 207/207/207 209/209/209 211/211/211
f 209/209/209 212/212/212 211/211/211
f 211/211/211 212/212/212 213/213/213
f 212/212/212 214/214/214 213/213/213
f 215/215/215 216/216/216 217/217/217
f 216/216/216 218/218/218 217/217/217
f 214/214/214 219/219/219 220/220/220
f 213/213/213 214/214/214 220/220/220
f 219/219/219 221/221/221 222/222/222
f 220/220/220 219/219/219 222/222/222
f 221/221/221 216/216/216 215/215/215
f 222/222/222 221/221/221 215/215/215
f 185/185/185 186/186/186 223/223/223
f 186/186/186 224/224/224 223/223/223
f 223/223/223 224/224/224 225/225/225
f 224/224/224 226/226/226 225/225/225
f 227/227/227 228/228/228 229/229/229
f 228/228/228 230/230/230 229/229/229
