v 1 -7.000001 -5.202924E-05
v 1 7.000001 5.179082E-05
v 0.7071068 -7.000045 0.707056
v 0.7071069 6.999957 0.7071598
v 0.7071068 -7.000045 0.707056
v 0.7071069 6.999957 0.7071598
v 0 -7.000063 0.9999485
v 0 6.999938 1.000052
v 0 -7.000063 0.9999485
v 0 6.999938 1.000052
v -0.7071069 -7.000045 0.707056
v -0.7071069 6.999957 0.7071598
v -0.7071069 -7.000045 0.707056
v -0.7071069 6.999957 0.7071598
v -1 -7.000001 -5.202924E-05
v -1 7.000001 5.179082E-05
v -1 -7.000001 -5.202924E-05
v -1 7.000001 5.179082E-05
v -0.7071069 -6.999957 -0.7071583
v -0.7071069 7.000045 -0.7070545
v -0.7071069 -6.999957 -0.7071583
v -0.7071069 7.000045 -0.7070545
v 0 -6.999938 -1.000053
v 0 7.000063 -0.9999487
v 0 -6.999938 -1.000053
v 0 7.000063 -0.9999487
v 0.7071066 -6.999957 -0.7071583
v 0.7071066 7.000045 -0.7070562
v 0.7071066 -6.999957 -0.7071583
v 0.7071066 7.000045 -0.7070562
v 1 -7.000001 -5.202924E-05
v 1 7.000001 5.179082E-05
v 0.7071068 -7.000045 0.707056
v 0 -7.000001 -5.202924E-05
v 1 -7.000001 -5.202924E-05
v 0 -7.000063 0.9999485
v -0.7071069 -7.000045 0.707056
v -1 -7.000001 -5.202924E-05
v -0.7071069 -6.999957 -0.7071583
v 0 -6.999938 -1.000053
v 0.7071066 -6.999957 -0.7071583
v 1 7.000001 5.179082E-05
v 0 7.000001 5.179082E-05
v 0.7071069 6.999957 0.7071598
v 0 6.999938 1.000052
v -0.7071069 6.999957 0.7071598
v -1 7.000001 5.179082E-05
v -0.7071069 7.000045 -0.7070545
v 0 7.000063 -0.9999487
v 0.7071066 7.000045 -0.7070562
vn 1 -1.261682E-08 -3.064491E-07
vn 1 -9.80369E-10 -1.129023E-07
vn 0.7071067 -5.246135E-06 0.7071069
vn 0.7071067 -5.246841E-06 0.7071069
vn 0.7071067 -5.246135E-06 0.7071069
vn 0.7071067 -5.246841E-06 0.7071069
vn 1.61289E-08 -7.416961E-06 1
vn 1.61289E-08 -7.416961E-06 1
vn 1.61289E-08 -7.416961E-06 1
vn 1.61289E-08 -7.416961E-06 1
vn -0.7071067 -5.246841E-06 0.7071069
vn -0.7071067 -5.246218E-06 0.7071068
vn -0.7071067 -5.246841E-06 0.7071069
vn -0.7071067 -5.246218E-06 0.7071068
vn -1 -1.227092E-09 -4.516091E-07
vn -1 -1.144031E-09 -4.516091E-07
vn -1 -1.227092E-09 -4.516091E-07
vn -1 -1.144031E-09 -4.516091E-07
vn -0.7071072 5.242239E-06 -0.7071064
vn -0.7071072 5.241699E-06 -0.7071064
vn -0.7071072 5.242239E-06 -0.7071064
vn -0.7071072 5.241699E-06 -0.7071064
vn 6.451563E-08 7.416079E-06 -1
vn -4.354804E-07 7.385654E-06 -1
vn 6.451563E-08 7.416079E-06 -1
vn -4.354804E-07 7.385654E-06 -1
vn 0.7071068 5.187834E-06 -0.7071068
vn 0.7071065 5.169754E-06 -0.7071071
vn 0.7071068 5.187834E-06 -0.7071068
vn 0.7071065 5.169754E-06 -0.7071071
vn 1 -1.261682E-08 -3.064491E-07
vn 1 -9.80369E-10 -1.129023E-07
vn 0 -1 -6.27144E-05
vn 0 -1 -6.27144E-05
vn 0 -1 -6.27144E-05
vn -2.487684E-07 -1 -6.246564E-05
vn 2.487668E-07 -1 -6.246564E-05
vn 0 -1 -6.27144E-05
vn 0 -1 -6.271456E-05
vn 2.279185E-07 -1 -6.294247E-05
vn -2.279171E-07 -1 -6.294248E-05
vn 0 1 6.27144E-05
vn 0 1 6.27144E-05
vn 0 1 6.27144E-05
vn -2.280708E-07 1 6.294248E-05
vn 2.280724E-07 1 6.294247E-05
vn 0 1 6.27144E-05
vn 0 1 6.271456E-05
vn 2.489195E-07 1 6.246564E-05
vn -2.487685E-07 1 6.246564E-05
vt -0.3827309 -6.999999
vt -0.382635 7.000003
vt 0.3826371 -7.000043
vt 0.382733 6.999959
vt -0.3827037 -7.000039
vt -0.3826641 6.999963
vt 0.3826629 -7.000057
vt 0.3827026 6.999944
vt -0.3826629 -7.000057
vt -0.3827026 6.999944
vt 0.3827038 -7.000039
vt 0.3826641 6.999963
vt -0.3826371 -7.000042
vt -0.382733 6.999959
vt 0.3827308 -6.999998
vt 0.3826349 7.000004
vt -0.3826355 -7.000003
vt -0.3827314 6.999999
vt 0.3827309 -6.999959
vt 0.382635 7.000043
vt -0.3826627 -6.999963
vt -0.3827025 7.000039
vt 0.3827047 -6.999944
vt 0.3826649 7.000057
vt -0.3827048 -6.999944
vt -0.382665 7.000057
vt 0.3826624 -6.999963
vt 0.3827014 7.000039
vt -0.3827308 -6.999959
vt -0.3826364 7.000043
vt 0.3826357 -7.000003
vt 0.3827316 6.999999
vt -0.7071068 0.707495
vt 0 0.0003869717
vt -1 0.0003869717
vt -1.741394E-06 1.000386
vt 0.7071086 0.7074932
vt 1 0.0003869717
vt 0.7071069 -0.7067193
vt 1.595416E-06 -0.999612
vt -0.7071083 -0.7067177
vt 1 -0.0003872101
vt 0 -0.0003872101
vt 0.7071069 0.7067208
vt 1.596482E-06 0.9996117
vt -0.7071086 0.7067192
vt -1 -0.0003872101
vt -0.7071069 -0.7074935
vt -1.742452E-06 -1.000386
vt 0.7071084 -0.7074935
g submesh0
f 1/1/1 2/2/2 3/3/3
f 2/2/2 4/4/4 3/3/3
f 5/5/5 6/6/6 7/7/7
f 6/6/6 8/8/8 7/7/7
f 9/9/9 10/10/10 11/11/11
f 10/10/10 12/12/12 11/11/11
f 13/13/13 14/14/14 15/15/15
f 14/14/14 16/16/16 15/15/15
f 17/17/17 18/18/18 19/19/19
f 18/18/18 20/20/20 19/19/19
f 21/21/21 22/22/22 23/23/23
f 22/22/22 24/24/24 23/23/23
f 25/25/25 26/26/26 27/27/27
f 26/26/26 28/28/28 27/27/27
f 29/29/29 30/30/30 31/31/31
f 30/30/30 32/32/32 31/31/31
f 33/33/33 34/34/34 35/35/35
f 36/36/36 34/34/34 33/33/33
f 37/37/37 34/34/34 36/36/36
f 38/38/38 34/34/34 37/37/37
f 39/39/39 34/34/34 38/38/38
f 40/40/40 34/34/34 39/39/39
f 41/41/41 34/34/34 40/40/40
f 35/35/35 34/34/34 41/41/41
f 42/42/42 43/43/43 44/44/44
f 44/44/44 43/43/43 45/45/45
f 45/45/45 43/43/43 46/46/46
f 46/46/46 43/43/43 47/47/47
f 47/47/47 43/43/43 48/48/48
f 48/48/48 43/43/43 49/49/49
f 49/49/49 43/43/43 50/50/50
f 50/50/50 43/43/43 42/42/42
