v 0 -2 2
v 4 -2 2
v 0 4 2
v 4 4 2
v 16 -2 2
v 16 -2 -4
v 16 4 2
v 16 4 -4
v 4 -2 -4
v 0 -2 -4
v 4 4 -4
v 0 4 -4
v 0 -2 -4
v 0 -2 2
v 0 4 -4
v 0 4 2
v 0 -2 -4
v 4 -2 -4
v 0 -2 2
v 4 -2 2
v 8 -2 2
v 8 -2 -4
v 4 4 8
v 4 -2 8
v 8 4 8
v 8 -2 8
v 8 -2 -4
v 8 4 -4
v 0 0 2
v 0 0 8
v 0 -2 8
v 4 -2 8
v 8 -2 8
v 8 -2 2
v 8 4 2
v 8 -2 8
v 8 4 8
v 12 -2 2
v 12 -2 -4
v 8 4 2
v 8 -2 2
v 12 4 2
v 12 -2 2
v 12 -2 -4
v 12 4 -4
v 16 -2 2
v 16 -2 -4
v 12 0 8
v 12 -2 8
v 16 0 8
v 16 -2 8
v 16 -2 -4
v 16 4 -4
v 12 4 2
v 12 -2 2
v 12 0 8
v 12 -2 8
v 12 -2 8
v 16 -2 8
v 16 -2 8
v 16 0 8
v 4 4 2
v 4 -2 2
v 0 0 2
v 0 -2 2
v 0 -2 8
v 0 -2 8
v 0 0 8
v 0 4 2
v 4 4 2
v 0 4 -4
v 4 4 -4
v 8 4 -4
v 8 4 2
v 8 4 8
v 4 4 8
v 12 4 -4
v 12 4 2
v 16 4 -4
v 16 4 2
v 16 4 2
v 12 4 2
v 16 0 8
v 12 0 8
v 4 4 8
v 4 4 2
v 0 0 8
v 0 0 2
vn 0 0 1
vn 0 0 1
vn 0 0 1
vn 0 0 1
vn 1 0 0
vn 1 0 0
vn 1 0 0
vn 1 0 0
vn 0 0 -1
vn 0 0 -1
vn 0 0 -1
vn 0 0 -1
vn -1 0 0
vn -1 0 0
vn -1 0 0
vn -1 0 0
vn 0 -1 0
vn 0 -1 0
vn 0 -1 0
vn 0 -1 0
vn 0 -1 0
vn 0 -1 0
vn 0 0 1
vn 0 0 1
vn 0 0 1
vn 0 0 1
vn 0 0 -1
vn 0 0 -1
vn -1 0 0
vn -1 0 0
vn -1 0 0
vn 0 -1 0
vn 0 -1 0
vn 1 0 0
vn 1 0 0
vn 1 0 0
vn 1 0 0
vn 0 -1 0
vn 0 -1 0
vn 0 0 1
vn 0 0 1
vn 0 0 1
vn 0 0 1
vn 0 0 -1
vn 0 0 -1
vn 0 -1 0
vn 0 -1 0
vn 0 0 1
vn 0 0 1
vn 0 0 1
vn 0 0 1
vn 0 0 -1
vn 0 0 -1
vn -1 0 0
vn -1 0 0
vn -1 0 0
vn -1 0 0
vn 0 -1 0
vn 0 -1 0
vn 1 0 0
vn 1 0 0
vn 0 0 -1
vn 0 0 -1
vn 0 0 -1
vn 0 0 -1
vn 0 -1 0
vn 0 0 1
vn 0 0 1
vn 0 1 0
vn 0 1 0
vn 0 1 0
vn 0 1 0
vn 0 1 0
vn 0 1 0
vn 0 1 0
vn 0 1 0
vn 0 1 0
vn 0 1 0
vn 0 1 0
vn 0 1 0
vn 0 0.8320503 0.5547002
vn 0 0.8320503 0.5547002
vn 0 0.8320503 0.5547002
vn 0 0.8320503 0.5547002
vn -0.7071068 0.7071068 0
vn -0.7071068 0.7071068 0
vn -0.7071068 0.7071068 0
vn -0.7071068 0.7071068 0
vt 0 -2
vt -4 -2
vt 0 4
vt -4 4
vt 2 -2
vt -4 -2
vt 2 4
vt -4 4
vt 4 -2
vt 0 -2
vt 4 4
vt 0 4
vt 4 -2
vt -2 -2
vt 4 4
vt -2 4
vt 0 -4
vt -4 -4
vt 0 2
vt -4 2
vt -8 2
vt -8 -4
vt -4 4
vt -4 -2
vt -8 4
vt -8 -2
vt 8 -2
vt 8 4
vt -2 0
vt -8 0
vt -8 -2
vt -4 8
vt -8 8
vt 2 -2
vt 2 4
vt 8 -2
vt 8 4
vt -12 2
vt -12 -4
vt -8 4
vt -8 -2
vt -12 4
vt -12 -2
vt 12 -2
vt 12 4
vt -16 2
vt -16 -4
vt -12 0
vt -12 -2
vt -16 0
vt -16 -2
vt 16 -2
vt 16 4
vt -2 4
vt -2 -2
vt -8 0
vt -8 -2
vt -12 8
vt -16 8
vt 8 -2
vt 8 0
vt 4 4
vt 4 -2
vt 0 0
vt 0 -2
vt 0 8
vt 0 -2
vt 0 0
vt 0 2
vt 4 2
vt 0 -4
vt 4 -4
vt 8 -4
vt 8 2
vt 8 8
vt 4 8
vt 12 -4
vt 12 2
vt 16 -4
vt 16 2
vt 16 -0.5546999
vt 12 -0.5546999
vt 16 6.656403
vt 12 6.656403
vt 5.656854 8
vt 5.656854 2
vt 0 8
vt 0 2
g submesh0
f 1/1/1 2/2/2 3/3/3
f 2/2/2 4/4/4 3/3/3
f 5/5/5 6/6/6 7/7/7
f 6/6/6 8/8/8 7/7/7
f 9/9/9 10/10/10 11/11/11
f 10/10/10 12/12/12 11/11/11
f 13/13/13 14/14/14 15/15/15
f 14/14/14 16/16/16 15/15/15
f 17/17/17 18/18/18 19/19/19
f 18/18/18 20/20/20 19/19/19
f 20/20/20 18/18/18 21/21/21
f 18/18/18 22/22/22 21/21/21
f 23/23/23 24/24/24 25/25/25
f 24/24/24 26/26/26 25/25/25
f 9/9/9 11/11/11 27/27/27
f 11/11/11 28/28/28 27/27/27
f 29/29/29 14/14/14 30/30/30
f 14/14/14 31/31/31 30/30/30
f 20/20/20 21/21/21 32/32/32
f 21/21/21 33/33/33 32/32/32
f 34/34/34 35/35/35 36/36/36
f 35/35/35 37/37/37 36/36/36
f 21/21/21 22/22/22 38/38/38
f 22/22/22 39/39/39 38/38/38
f 40/40/40 41/41/41 42/42/42
f 41/41/41 43/43/43 42/42/42
f 27/27/27 28/28/28 44/44/44
f 28/28/28 45/45/45 44/44/44
f 38/38/38 39/39/39 46/46/46
f 39/39/39 47/47/47 46/46/46
f 48/48/48 49/49/49 50/50/50
f 49/49/49 51/51/51 50/50/50
f 44/44/44 45/45/45 52/52/52
f 45/45/45 53/53/53 52/52/52
f 54/54/54 55/55/55 56/56/56
f 55/55/55 57/57/57 56/56/56
f 38/38/38 46/46/46 58/58/58
f 46/46/46 59/59/59 58/58/58
f 5/5/5 7/7/7 60/60/60
f 7/7/7 61/61/61 60/60/60
f 62/62/62 63/63/63 64/64/64
f 63/63/63 65/65/65 64/64/64
f 20/20/20 32/32/32 19/19/19
f 32/32/32 66/66/66 19/19/19
f 24/24/24 23/23/23 67/67/67
f 23/23/23 68/68/68 67/67/67
g submesh1
f 69/69/69 70/70/70 71/71/71
f 70/70/70 72/72/72 71/71/71
f 72/72/72 70/70/70 73/73/73
f 70/70/70 74/74/74 73/73/73
f 74/74/74 70/70/70 75/75/75
f 70/70/70 76/76/76 75/75/75
f 73/73/73 74/74/74 77/77/77
f 74/74/74 78/78/78 77/77/77
f 77/77/77 78/78/78 79/79/79
f 78/78/78 80/80/80 79/79/79
f 81/81/81 82/82/82 83/83/83
f 82/82/82 84/84/84 83/83/83
f 85/85/85 86/86/86 87/87/87
f 86/86/86 88/88/88 87/87/87
