v 3.5 0 -0.5
v 4 0 -2
v 4 4 -2
v 3.5 4 -0.5
v 4 0 -2
v 3.5 0 -3.5
v 3.5 4 -3.5
v 4 4 -2
v 0.5 4 -3.5
v 0 0 -2
v 0 4 -2
v 0.5 0 -3.5
v 0 4 -2
v 0.5 0 -0.5
v 0.5 4 -0.5
v 0 0 -2
v 0.5 0 -0.5
v 2 0 0
v 2 4 0
v 0.5 4 -0.5
v 2 0 0
v 3.5 0 -0.5
v 3.5 4 -0.5
v 2 4 0
v 3.5 4 -3.5
v 2 0 -4
v 2 4 -4
v 3.5 0 -3.5
v 2 4 -4
v 0.5 0 -3.5
v 0.5 4 -3.5
v 2 0 -4
v 4 4 -2
v 2 4 -2
v 2 4 0
v 3.5 4 -0.5
v 0 4 -2
v 0.5 4 -0.5
v 3.5 4 -3.5
v 2 4 -4
v 0.5 4 -3.5
v 2 0 -2
v 3.5 0 -3.5
v 4 0 -2
v 2 0 -4
v 0 0 -2
v 0.5 0 -3.5
v 2 0 0
v 3.5 0 -0.5
v 0.5 0 -0.5
vn 0.9486833 0 0.3162278
vn 0.9486833 0 0.3162278
vn 0.9486833 0 0.3162278
vn 0.9486833 0 0.3162278
vn 0.9486833 0 -0.3162278
vn 0.9486833 0 -0.3162278
vn 0.9486833 0 -0.3162278
vn 0.9486833 0 -0.3162278
vn -0.9486833 0 -0.3162278
vn -0.9486833 0 -0.3162278
vn -0.9486833 0 -0.3162278
vn -0.9486833 0 -0.3162278
vn -0.9486833 0 0.3162278
vn -0.9486833 0 0.3162278
vn -0.9486833 0 0.3162278
vn -0.9486833 0 0.3162278
vn -0.3162278 0 0.9486833
vn -0.3162278 0 0.9486833
vn -0.3162278 0 0.9486833
vn -0.3162278 0 0.9486833
vn 0.3162278 0 0.9486833
vn 0.3162278 0 0.9486833
vn 0.3162278 0 0.9486833
vn 0.3162278 0 0.9486833
vn 0.3162278 0 -0.9486833
vn 0.3162278 0 -0.9486833
vn 0.3162278 0 -0.9486833
vn 0.3162278 0 -0.9486833
vn -0.3162278 0 -0.9486833
vn -0.3162278 0 -0.9486833
vn -0.3162278 0 -0.9486833
vn -0.3162278 0 -0.9486833
vn 0 1 0
vn 0 1 0
vn 0 1 0
vn 0 1 0
vn 0 1 0
vn 0 1 0
vn 0 1 0
vn 0 1 0
vn 0 1 0
vn 0 -1 0
vn 0 -1 0
vn 0 -1 0
vn 0 -1 0
vn 0 -1 0
vn 0 -1 0
vn 0 -1 0
vn 0 -1 0
vn 0 -1 0
vt -0.5 0
vt -2 0
vt -2 4
vt -0.5 4
vt -2 0
vt -3.5 0
vt -3.5 4
vt -2 4
vt 3.5 4
vt 2 0
vt 2 4
vt 3.5 0
vt 2 4
vt 0.5 0
vt 0.5 4
vt 2 0
vt -0.5 0
vt -2 0
vt -2 4
vt -0.5 4
vt -2 0
vt -3.5 0
vt -3.5 4
vt -2 4
vt 3.5 4
vt 2 0
vt 2 4
vt 3.5 0
vt 2 4
vt 0.5 0
vt 0.5 4
vt 2 0
vt 4 -2
vt 2 -2
vt 2 0
vt 3.5 -0.5
vt 0 -2
vt 0.5 -0.5
vt 3.5 -3.5
vt 2 -4
vt 0.5 -3.5
vt -2 -2
vt -3.5 -3.5
vt -4 -2
vt -2 -4
vt 0 -2
vt -0.5 -3.5
vt -2 0
vt -3.5 -0.5
vt -0.5 -0.5
g submesh0
f 1/1/1 2/2/2 3/3/3
f 4/4/4 1/1/1 3/3/3
f 5/5/5 6/6/6 7/7/7
f 8/8/8 5/5/5 7/7/7
f 9/9/9 10/10/10 11/11/11
f 9/9/9 12/12/12 10/10/10
f 13/13/13 14/14/14 15/15/15
f 13/13/13 16/16/16 14/14/14
f 17/17/17 18/18/18 19/19/19
f 20/20/20 17/17/17 19/19/19
f 21/21/21 22/22/22 23/23/23
f 24/24/24 21/21/21 23/23/23
f 25/25/25 26/26/26 27/27/27
f 25/25/25 28/28/28 26/26/26
f 29/29/29 30/30/30 31/31/31
f 29/29/29 32/32/32 30/30/30
f 33/33/33 34/34/34 35/35/35
f 36/36/36 33/33/33 35/35/35
f 34/34/34 37/37/37 38/38/38
f 35/35/35 34/34/34 38/38/38
f 39/39/39 40/40/40 34/34/34
f 33/33/33 39/39/39 34/34/34
f 40/40/40 41/41/41 37/37/37
f 34/34/34 40/40/40 37/37/37
f 42/42/42 43/43/43 44/44/44
f 42/42/42 45/45/45 43/43/43
f 46/46/46 45/45/45 42/42/42
f 46/46/46 47/47/47 45/45/45
f 48/48/48 44/44/44 49/49/49
f 48/48/48 42/42/42 44/44/44
f 50/50/50 42/42/42 48/48/48
f 50/50/50 46/46/46 42/42/42
