v 0 -3 8
v 8 -3 8
v 0 0 8
v 8 0 8
v 8 -3 -4
v 0 -3 -4
v 8 4 -4
v 0 4 -4
v 0 -3 -4
v 0 -3 2
v 0 4 -4
v 0 4 2
v 0 -3 -4
v 8 -3 -4
v 0 -3 2
v 8 -3 2
v 0 -3 8
v 8 -3 8
v 0 0 8
v 0 -3 8
v 18 -3 2
v 18 -3 -4
v 18 -3 -4
v 18 4 -4
v 0 4 2
v 8 4 2
v 0 4 -4
v 8 4 -4
v 8 4 2
v 0 4 2
v 8 0 8
v 0 0 8
v 18 4 -4
v 18 4 2
v 18 -3 2
v 18 -3 -4
v 18 4 2
v 18 4 -4
v 8 -3 2
v 8 4 2
v 8 -3 8
v 8 0 8
v 8 4 2
v 8 -3 2
v 18 4 2
v 18 -3 2
vn 0 0 1
vn 0 0 1
vn 0 0 1
vn 0 0 1
vn 0 0 -1
vn 0 0 -1
vn 0 0 -1
vn 0 0 -1
vn -1 0 0
vn -1 0 0
vn -1 0 0
vn -1 0 0
vn 0 -1 0
vn 0 -1 0
vn 0 -1 0
vn 0 -1 0
vn 0 -1 0
vn 0 -1 0
vn -1 0 0
vn -1 0 0
vn 0 -1 0
vn 0 -1 0
vn 0 0 -1
vn 0 0 -1
vn 0 1 0
vn 0 1 0
vn 0 1 0
vn 0 1 0
vn 0 0.8320503 0.5547002
vn 0 0.8320503 0.5547002
vn 0 0.8320503 0.5547002
vn 0 0.8320503 0.5547002
vn 0 1 0
vn 0 1 0
vn 1 0 0
vn 1 0 0
vn 1 0 0
vn 1 0 0
vn 1 0 0
vn 1 0 0
vn 1 0 0
vn 1 0 0
vn 0 0 1
vn 0 0 1
vn 0 0 1
vn 0 0 1
vt 0 -3
vt -8 -3
vt 0 0
vt -8 0
vt 8 -3
vt 0 -3
vt 8 4
vt 0 4
vt 4 -3
vt -2 -3
vt 4 4
vt -2 4
vt 0 -4
vt -8 -4
vt 0 2
vt -8 2
vt 0 8
vt -8 8
vt -8 0
vt -8 -3
vt -18 2
vt -18 -4
vt 18 -3
vt 18 4
vt 0 2
vt 8 2
vt 0 -4
vt 8 -4
vt 8 -0.5546999
vt 0 -0.5546999
vt 8 6.656403
vt 0 6.656403
vt 18 -4
vt 18 2
vt 2 -3
vt -4 -3
vt 2 4
vt -4 4
vt 2 -3
vt 2 4
vt 8 -3
vt 8 0
vt -8 4
vt -8 -3
vt -18 4
vt -18 -3
g submesh0
f 1/1/1 2/2/2 3/3/3
f 2/2/2 4/4/4 3/3/3
f 5/5/5 6/6/6 7/7/7
f 6/6/6 8/8/8 7/7/7
f 9/9/9 10/10/10 11/11/11
f 10/10/10 12/12/12 11/11/11
f 13/13/13 14/14/14 15/15/15
f 14/14/14 16/16/16 15/15/15
f 15/15/15 16/16/16 17/17/17
f 16/16/16 18/18/18 17/17/17
f 12/12/12 10/10/10 19/19/19
f 10/10/10 20/20/20 19/19/19
f 16/16/16 14/14/14 21/21/21
f 14/14/14 22/22/22 21/21/21
f 5/5/5 7/7/7 23/23/23
f 7/7/7 24/24/24 23/23/23
g submesh1
f 25/25/25 26/26/26 27/27/27
f 26/26/26 28/28/28 27/27/27
f 29/29/29 30/30/30 31/31/31
f 30/30/30 32/32/32 31/31/31
f 28/28/28 26/26/26 33/33/33
f 26/26/26 34/34/34 33/33/33
g submesh2
f 35/35/35 36/36/36 37/37/37
f 36/36/36 38/38/38 37/37/37
f 39/39/39 40/40/40 41/41/41
f 40/40/40 42/42/42 41/41/41
f 43/43/43 44/44/44 45/45/45
f 44/44/44 46/46/46 45/45/45
