v -2.5 -0.7499999 1.25
v 2.5 -0.7499999 1.25
v -2.5 0.7500002 1.249855
v 2.5 0.7500002 1.249855
v 2.5 -0.7499999 1.25
v 2.5 -0.7502402 -1.250001
v 2.5 0.7500002 1.249855
v 2.5 0.7502406 -1.249904
v 2.5 -0.7502402 -1.250001
v -2.5 -0.7502402 -1.250001
v 2.5 0.7502406 -1.249904
v -2.5 0.7502406 -1.249904
v -2.5 -0.7502402 -1.250001
v -2.5 -0.7499999 1.25
v -2.5 0.7502406 -1.249904
v -2.5 0.7500002 1.249855
v -2.5 0.7500002 1.249855
v 2.5 0.7500002 1.249855
v -2.5 0.7502406 -1.249904
v 2.5 0.7502406 -1.249904
v -2.5 -0.7502402 -1.250001
v 2.5 -0.7502402 -1.250001
v -2.5 -0.7499999 1.25
v 2.5 -0.7499999 1.25
vn 0 9.616216E-05 1
vn 0 9.616216E-05 1
vn 0 9.616216E-05 1
vn 0 9.616216E-05 1
vn 1 0 0
vn 1 0 0
vn 1 0 0
vn 1 0 0
vn 0 6.451129E-05 -1
vn 0 6.451129E-05 -1
vn 0 6.451129E-05 -1
vn 0 6.451129E-05 -1
vn -1 0 0
vn -1 0 0
vn -1 0 0
vn -1 0 0
vn 0 1 9.613962E-05
vn 0 1 9.613962E-05
vn 0 1 9.613962E-05
vn 0 1 9.613962E-05
vn 0 -1 9.613036E-05
vn 0 -1 9.613036E-05
vn 0 -1 9.613036E-05
vn 0 -1 9.613036E-05
vt 2.5 -0.7501201
vt -2.5 -0.7501201
vt 2.5 0.7498801
vt -2.5 0.7498801
vt 1.25 -0.7499999
vt -1.250001 -0.7502402
vt 1.249855 0.7500002
vt -1.249904 0.7502406
vt 2.5 -0.7503209
vt -2.5 -0.7503209
vt 2.5 0.7501599
vt -2.5 0.7501599
vt 1.250001 -0.7502402
vt -1.25 -0.7499999
vt 1.249904 0.7502406
vt -1.249855 0.7500002
vt -2.5 1.249783
vt 2.5 1.249783
vt -2.5 -1.249976
vt 2.5 -1.249976
vt 2.5 -1.250073
vt -2.5 -1.250073
vt 2.5 1.249927
vt -2.5 1.249927
g submesh0
f 1/1/1 2/2/2 3/3/3
f 2/2/2 4/4/4 3/3/3
f 5/5/5 6/6/6 7/7/7
f 6/6/6 8/8/8 7/7/7
f 9/9/9 10/10/10 11/11/11
f 10/10/10 12/12/12 11/11/11
f 13/13/13 14/14/14 15/15/15
f 14/14/14 16/16/16 15/15/15
f 17/17/17 18/18/18 19/19/19
f 18/18/18 20/20/20 19/19/19
f 21/21/21 22/22/22 23/23/23
f 22/22/22 24/24/24 23/23/23
