v 2.663707 -0.5 2.114654
v 2.663708 -0.5 1.614654
v 2.663708 0 1.614654
v 2.663707 0 2.114654
v -3.999975 0 1.614653
v -3.999838 -0.5 2.114653
v -3.999838 0 2.114653
v -3.999975 -0.5 1.614653
v -3.999838 -0.5 2.114653
v -3.410274 -0.5 2.114653
v -3.410274 0 2.114653
v -3.999838 0 2.114653
v -3.409504 0 -8.999839
v -4.000001 -0.5 -9.000003
v -4.000001 0 -9.000003
v -3.409504 -0.5 -8.999839
v -3.409944 0 1.614653
v -3.999838 0 2.114653
v -3.410274 0 2.114653
v -3.999975 0 1.614653
v -3.999837 -11.43 2.114652
v -3.999972 -11.43 1.614652
v -3.409941 -11.43 1.614652
v -3.410271 -11.43 2.114652
v 2.163707 -0.5 2.114654
v 2.163707 0 2.114654
v 2.663707 -0.5 2.114654
v 2.663707 0 2.114654
v 2.163708 0 -8.999762
v 2.163708 -0.5 -8.999762
v -3.409504 0 -8.999839
v -3.409504 -0.5 -8.999839
v 2.663708 0 -8.999679
v 2.663708 -0.5 -8.999679
v 2.163708 0 -8.999762
v 2.163708 -0.5 -8.999762
v 2.163707 0 1.614653
v 2.663707 0 2.114654
v 2.663708 0 1.614654
v 2.163707 0 2.114654
v 2.663707 -11.43 2.114653
v 2.163707 -11.43 2.114653
v 2.163707 -11.43 1.614653
v 2.663707 -11.43 1.614653
v 2.163707 -0.5 2.114654
v -3.410274 -0.5 2.114653
v -3.409944 -0.5 1.614653
v 2.163707 -0.5 1.614653
v 2.663708 -0.5 -8.449675
v 2.663708 -0.5 -8.999679
v 2.663708 0 -8.999679
v 2.663708 0 -8.449675
v -4.000001 0 -9.000003
v -3.999987 -0.5 -8.450223
v -3.999987 0 -8.450223
v -4.000001 -0.5 -9.000003
v -3.409504 0 -8.999839
v -3.999987 0 -8.450223
v -3.409723 0 -8.450191
v -4.000001 0 -9.000003
v -3.999984 -11.43 -8.45022
v -4 -11.43 -9.000002
v -3.409502 -11.43 -8.999836
v -3.409721 -11.43 -8.450188
v 2.663708 0 -8.999679
v 2.163708 0 -8.999762
v 2.163708 0 -8.449697
v 2.663708 0 -8.449675
v 2.663707 -11.43 -8.449673
v 2.163707 -11.43 -8.449696
v 2.663707 -11.43 -8.999677
v 2.163707 -11.43 -8.99976
v -3.409723 -0.5 -8.450191
v -3.409504 -0.5 -8.999839
v 2.163708 -0.5 -8.449697
v 2.163708 -0.5 -8.999762
v -3.999838 -0.5 2.114653
v -3.999975 -0.5 1.614653
v -3.999837 -11.43 2.114652
v -3.999972 -11.43 1.614652
v -3.999975 -0.5 1.614653
v -3.409944 -0.5 1.614653
v -3.999972 -11.43 1.614652
v -3.409941 -11.43 1.614652
v -3.410274 -0.5 2.114653
v -3.999838 -0.5 2.114653
v -3.410271 -11.43 2.114652
v -3.999837 -11.43 2.114652
v -3.409944 -0.5 1.614653
v -3.410274 -0.5 2.114653
v -3.409941 -11.43 1.614652
v -3.410271 -11.43 2.114652
v 2.663707 -0.5 2.114654
v 2.163707 -0.5 2.114654
v 2.663707 -11.43 2.114653
v 2.163707 -11.43 2.114653
v 2.163707 -0.5 2.114654
v 2.163707 -0.5 1.614653
v 2.163707 -11.43 2.114653
v 2.163707 -11.43 1.614653
v 2.663708 -0.5 1.614654
v 2.663707 -0.5 2.114654
v 2.663707 -11.43 1.614653
v 2.663707 -11.43 2.114653
v 2.163707 -0.5 1.614653
v 2.663708 -0.5 1.614654
v 2.163707 -11.43 1.614653
v 2.663707 -11.43 1.614653
v -3.999987 -0.5 -8.450223
v -4.000001 -0.5 -9.000003
v -3.999984 -11.43 -8.45022
v -4 -11.43 -9.000002
v -4.000001 -0.5 -9.000003
v -3.409504 -0.5 -8.999839
v -4 -11.43 -9.000002
v -3.409502 -11.43 -8.999836
v -3.409723 -0.5 -8.450191
v -3.999987 -0.5 -8.450223
v -3.409721 -11.43 -8.450188
v -3.999984 -11.43 -8.45022
v -3.409504 -0.5 -8.999839
v -3.409723 -0.5 -8.450191
v -3.409502 -11.43 -8.999836
v -3.409721 -11.43 -8.450188
v 2.663708 -0.5 -8.449675
v 2.163708 -0.5 -8.449697
v 2.663707 -11.43 -8.449673
v 2.163707 -11.43 -8.449696
v 2.663708 -0.5 -8.999679
v 2.663708 -0.5 -8.449675
v 2.663707 -11.43 -8.999677
v 2.663707 -11.43 -8.449673
v 2.163708 -0.5 -8.449697
v 2.163708 -0.5 -8.999762
v 2.163707 -11.43 -8.449696
v 2.163707 -11.43 -8.99976
v 2.163708 -0.5 -8.999762
v 2.663708 -0.5 -8.999679
v 2.163707 -11.43 -8.99976
v 2.663707 -11.43 -8.999677
v 7.500001 -0.5 1.614655
v 7.500001 -0.5 -3.41751
v 7.500001 0 1.614655
v 7.500001 0 -3.41751
v 2.663708 -0.5 -3.417511
v 2.663708 0 -3.417511
v -3.999981 0 -3.417785
v -3.999975 -0.5 1.614653
v -3.999975 0 1.614653
v -3.999981 -0.5 -3.417785
v -9 0 -8.450223
v -9 -0.5 -3.417782
v -9 0 -3.417782
v -9 -0.5 -8.450223
v -3.409834 0 -3.417769
v -3.999981 0 -3.417785
v -3.999975 -0.5 1.614653
v -3.999981 -0.5 -3.417785
v -3.409834 -0.5 -3.417769
v -3.999987 -0.5 -8.450223
v 2.163707 0 -3.417522
v 2.663708 0 -3.417511
v 2.663708 -0.5 1.614654
v 2.663708 -0.5 -3.417511
v 2.163707 -0.5 -3.417522
v 2.663708 -0.5 -8.449675
v -3.999981 -0.5 -3.417785
v -3.999981 0 -3.417785
v -9 -0.5 -3.417782
v -9 0 -3.417782
v -9 0 -3.417782
v -9 0 -8.450223
v -3.999987 0 -8.450223
v -3.999987 -0.5 -8.450223
v -9 0 -8.450223
v -9 -0.5 -8.450223
v -9 -0.5 -8.450223
v -9 -0.5 -3.417782
v 7.500001 -0.5 1.614655
v 7.500001 -0.5 -3.41751
v 2.663708 0 1.614654
v 2.663708 -0.5 1.614654
v 7.500001 0 1.614655
v 7.500001 -0.5 1.614655
v 2.663708 -0.5 -3.417511
v 2.663708 0 -3.417511
v 7.500001 -0.5 -3.41751
v 7.500001 0 -3.41751
v 7.500001 0 -3.41751
v 7.500001 0 1.614655
vn 1 0 9.536743E-07
vn 1 0 9.536743E-07
vn 1 0 9.536743E-07
vn 1 0 9.536743E-07
vn -1 0 0.0002737045
vn -1 0 0.0002737045
vn -1 0 0.0002737045
vn -1 0 0.0002737045
vn 0 0 1
vn 0 0 1
vn 0 0 1
vn 0 0 1
vn 0.0002777864 0 -1
vn 0.0002777864 0 -1
vn 0.0002777864 0 -1
vn 0.0002777864 0 -1
vn 0 1 0
vn 0 1 0
vn 0 1 0
vn 0 1 0
vn 0 -1 0
vn 0 -1 0
vn 0 -1 0
vn 0 -1 0
vn -1.283204E-07 0 1
vn -1.283204E-07 0 1
vn 0 0 1
vn 0 0 1
vn 1.386052E-05 0 -1
vn 1.386052E-05 0 -1
vn 1.386052E-05 0 -1
vn 1.386052E-05 0 -1
vn 0.0001659393 0 -1
vn 0.0001659393 0 -1
vn 0.0001659393 0 -1
vn 0.0001659393 0 -1
vn 0 1 0
vn 0 1 0
vn 0 1 0
vn 0 1 0
vn 0 -1 0
vn 0 -1 0
vn 0 -1 0
vn 0 -1 0
vn 0 -1 0
vn 0 -1 0
vn 0 -1 0
vn 0 -1 0
vn 1 0 -4.334852E-07
vn 1 0 -4.334852E-07
vn 1 0 -4.334852E-07
vn 1 0 -4.334852E-07
vn -1 0 2.558605E-05
vn -1 0 2.558605E-05
vn -1 0 2.558605E-05
vn -1 0 2.558605E-05
vn 0 1 0
vn 0 1 0
vn 0 1 0
vn 0 1 0
vn 0 -1 0
vn 0 -1 0
vn 0 -1 0
vn 0 -1 0
vn 0 1 0
vn 0 1 0
vn 0 1 0
vn 0 1 0
vn 0 -1 0
vn 0 -1 0
vn 0 -1 0
vn 0 -1 0
vn 0 -1 0
vn 0 -1 0
vn 0 -1 0
vn 0 -1 0
vn -1 -1.090781E-07 0.0002737045
vn -1 -1.745162E-07 0.000272274
vn -1 -1.745162E-07 0.000272274
vn -1 -2.399543E-07 0.0002708435
vn 2.020391E-07 3.271989E-08 -1
vn 1.010196E-07 3.817317E-08 -1
vn 1.010196E-07 3.817317E-08 -1
vn 0 4.362646E-08 -1
vn 0 -4.362646E-08 1
vn 0 -4.362646E-08 1
vn 0 -4.362646E-08 1
vn 0 -4.362645E-08 1
vn 0.9999998 2.399167E-07 0.0006594657
vn 0.9999998 2.290101E-07 0.0006597041
vn 0.9999998 2.290101E-07 0.0006597041
vn 0.9999998 2.181034E-07 0.0006599425
vn 0 -4.362645E-08 1
vn 0 -4.362645E-08 1
vn 0 -4.362645E-08 1
vn 0 -4.362645E-08 1
vn -1 8.725286E-08 9.536741E-07
vn -1 6.543966E-08 4.76837E-07
vn -1 6.543966E-08 4.76837E-07
vn -1 4.362645E-08 0
vn 1 -8.725295E-08 9.536743E-07
vn 1 -8.725295E-08 9.536743E-07
vn 1 -8.725295E-08 9.536743E-07
vn 1 -8.725295E-08 9.536743E-07
vn 2.384181E-07 4.362644E-08 -1
vn 2.384182E-07 4.362644E-08 -1
vn 2.384182E-07 4.362644E-08 -1
vn 2.384184E-07 4.362643E-08 -1
vn -1 -2.399388E-07 2.558605E-05
vn -1 -1.745012E-07 2.688699E-05
vn -1 -1.745012E-07 2.688699E-05
vn -1 -1.090637E-07 2.818792E-05
vn 0.0002777864 -8.72226E-08 -0.9999999
vn 0.0002794011 -1.7446E-07 -0.9999999
vn 0.0002794011 -1.7446E-07 -0.9999999
vn 0.0002810159 -2.616974E-07 -0.9999999
vn -5.493296E-05 2.617455E-07 1
vn -5.493296E-05 2.617455E-07 1
vn -5.493296E-05 2.617455E-07 1
vn -5.493296E-05 2.617455E-07 1
vn 0.9999999 2.182366E-07 0.0003986306
vn 0.9999999 2.291432E-07 0.0003984137
vn 0.9999999 2.291432E-07 0.0003984137
vn 0.9999999 2.400497E-07 0.0003981969
vn -4.577632E-05 1.745098E-07 1
vn -4.577635E-05 1.745088E-07 1
vn -4.577635E-05 1.745088E-07 1
vn -4.577637E-05 1.745078E-07 1
vn 1 -6.543976E-08 -4.334852E-07
vn 1 -7.634634E-08 -2.167426E-07
vn 1 -7.634634E-08 -2.167426E-07
vn 1 -8.725291E-08 0
vn -1 4.362645E-08 0
vn -1 4.362645E-08 0
vn -1 4.362645E-08 0
vn -1 4.362645E-08 0
vn 0.0001659393 -1.745131E-07 -1
vn 0.0001659393 -1.745149E-07 -1
vn 0.0001659393 -1.745149E-07 -1
vn 0.0001659393 -1.745167E-07 -1
vn 1 0 9.475787E-08
vn 1 0 9.475787E-08
vn 1 0 9.475787E-08
vn 1 0 9.475787E-08
vn 1 0 0
vn 1 0 0
vn -1 0 1.231785E-06
vn -1 0 1.231785E-06
vn -1 0 1.231785E-06
vn -1 0 1.231785E-06
vn -1 0 0
vn -1 0 0
vn -1 0 0
vn -1 0 0
vn 0 1 0
vn 0 1 0
vn 0 -1 0
vn 0 -1 0
vn 0 -1 0
vn 0 -1 0
vn 0 1 0
vn 0 1 0
vn 0 -1 0
vn 0 -1 0
vn 0 -1 0
vn 0 -1 0
vn 5.722024E-07 0 1
vn 5.722024E-07 0 1
vn 5.722024E-07 0 1
vn 5.722024E-07 0 1
vn 0 1 0
vn 0 1 0
vn 0 0 -1
vn 0 0 -1
vn 0 0 -1
vn 0 0 -1
vn 0 -1 0
vn 0 -1 0
vn 0 -1 0
vn 0 -1 0
vn -2.218401E-07 0 1
vn -2.218401E-07 0 1
vn -2.218401E-07 0 1
vn -2.218401E-07 0 1
vn 1.971912E-07 0 -1
vn 1.971912E-07 0 -1
vn 1.971912E-07 0 -1
vn 1.971912E-07 0 -1
vn 0 1 0
vn 0 1 0
vt 2.114653 -0.5
vt 1.614653 -0.5
vt 1.614653 0
vt 2.114653 0
vt -1.614252 0
vt -2.114252 -0.5
vt -2.114252 0
vt -1.614252 -0.5
vt 3.999838 -0.5
vt 3.410274 -0.5
vt 3.410274 0
vt 3.999838 0
vt -3.410877 0
vt -4.001374 -0.5
vt -4.001374 0
vt -3.410877 -0.5
vt -3.409944 1.614653
vt -3.999838 2.114653
vt -3.410274 2.114653
vt -3.999975 1.614653
vt 3.999837 2.114652
vt 3.999972 1.614652
vt 3.409941 1.614652
vt 3.410271 2.114652
vt -2.163707 -0.5
vt -2.163707 0
vt -2.663707 -0.5
vt -2.663707 0
vt 2.162335 0
vt 2.162335 -0.5
vt -3.410877 0
vt -3.410877 -0.5
vt 2.662335 0
vt 2.662335 -0.5
vt 2.162335 0
vt 2.162335 -0.5
vt 2.163707 1.614653
vt 2.663707 2.114654
vt 2.663708 1.614654
vt 2.163707 2.114654
vt -2.663707 2.114653
vt -2.163707 2.114653
vt -2.163707 1.614653
vt -2.663707 1.614653
vt -2.163707 2.114654
vt 3.410274 2.114653
vt 3.409944 1.614653
vt -2.163707 1.614653
vt -8.449675 -0.5
vt -8.999679 -0.5
vt -8.999679 0
vt -8.449675 0
vt 9.000403 0
vt 8.450624 -0.5
vt 8.450624 0
vt 9.000403 -0.5
vt -3.409504 -8.999839
vt -3.999987 -8.450223
vt -3.409723 -8.450191
vt -4.000001 -9.000003
vt 3.999984 -8.45022
vt 4 -9.000002
vt 3.409502 -8.999836
vt 3.409721 -8.450188
vt 2.663708 -8.999679
vt 2.163708 -8.999762
vt 2.163708 -8.449697
vt 2.663708 -8.449675
vt -2.663707 -8.449673
vt -2.163707 -8.449696
vt -2.663707 -8.999677
vt -2.163707 -8.99976
vt 3.409723 -8.450191
vt 3.409504 -8.999839
vt -2.163708 -8.449697
vt -2.163708 -8.999762
vt -2.113558 -0.4999996
vt -1.613558 -0.4999996
vt -2.113558 -11.43
vt -1.613558 -11.43
vt -3.999974 -0.4999999
vt -3.409944 -0.4999999
vt -3.999972 -11.43
vt -3.409941 -11.43
vt 3.410274 -0.4999999
vt 3.999838 -0.4999999
vt 3.410271 -11.43
vt 3.999837 -11.43
vt 1.616901 -0.4999992
vt 2.116901 -0.4999992
vt 1.616901 -11.43
vt 2.116901 -11.43
vt -2.663707 -0.4999999
vt -2.163707 -0.4999999
vt -2.663707 -11.43
vt -2.163707 -11.43
vt -2.114656 -0.4999998
vt -1.614655 -0.4999998
vt -2.114655 -11.43
vt -1.614655 -11.43
vt 1.614651 -0.4999998
vt 2.114651 -0.4999998
vt 1.614651 -11.43
vt 2.11465 -11.43
vt 2.163707 -0.4999999
vt 2.663708 -0.4999999
vt 2.163707 -11.43
vt 2.663707 -11.43
vt 8.450325 -0.499999
vt 9.000105 -0.499999
vt 8.450322 -11.43
vt 9.000104 -11.43
vt -4.002501 -0.4999992
vt -3.412004 -0.4999992
vt -4.0025 -11.43
vt -3.412002 -11.43
vt 3.410187 -0.4999978
vt 4.000451 -0.4999978
vt 3.410185 -11.43
vt 4.000448 -11.43
vt -8.998479 -0.4999993
vt -8.448831 -0.4999993
vt -8.998476 -11.43
vt -8.448828 -11.43
vt -2.663321 -0.4999985
vt -2.163321 -0.4999985
vt -2.663321 -11.43
vt -2.163321 -11.43
vt -8.999678 -0.4999998
vt -8.449674 -0.4999998
vt -8.999676 -11.43
vt -8.449672 -11.43
vt 8.449697 -0.4999999
vt 8.999762 -0.4999999
vt 8.449696 -11.43
vt 8.99976 -11.43
vt 2.162214 -0.4999984
vt 2.662215 -0.4999984
vt 2.162214 -11.43
vt 2.662214 -11.43
vt 1.614654 -0.5
vt -3.41751 -0.5
vt 1.614654 0
vt -3.41751 0
vt -3.417511 -0.5
vt -3.417511 0
vt 3.418186 0
vt -1.614252 -0.5
vt -1.614252 0
vt 3.418186 -0.5
vt 8.450223 0
vt 3.417782 -0.5
vt 3.417782 0
vt 8.450223 -0.5
vt -3.409834 -3.417769
vt -3.999981 -3.417785
vt 3.999975 1.614653
vt 3.999981 -3.417785
vt 3.409834 -3.417769
vt 3.999987 -8.450223
vt 2.163707 -3.417522
vt 2.663708 -3.417511
vt -2.663708 1.614654
vt -2.663708 -3.417511
vt -2.163707 -3.417522
vt -2.663708 -8.449675
vt 3.999979 -0.5
vt 3.999979 0
vt 8.999998 -0.5
vt 8.999998 0
vt -9 -3.417782
vt -9 -8.450223
vt -3.999987 0
vt -3.999987 -0.5
vt -9 0
vt -9 -0.5
vt 9 -8.450223
vt 9 -3.417782
vt -7.500001 1.614655
vt -7.500001 -3.41751
vt -2.663708 0
vt -2.663708 -0.5
vt -7.500001 0
vt -7.500001 -0.5
vt 2.663707 -0.5
vt 2.663707 0
vt 7.500001 -0.5
vt 7.500001 0
vt 7.500001 -3.41751
vt 7.500001 1.614655
g submesh0
f 1/1/1 2/2/2 3/3/3
f 4/4/4 1/1/1 3/3/3
f 5/5/5 6/6/6 7/7/7
f 5/5/5 8/8/8 6/6/6
f 9/9/9 10/10/10 11/11/11
f 12/12/12 9/9/9 11/11/11
f 13/13/13 14/14/14 15/15/15
f 13/13/13 16/16/16 14/14/14
f 17/17/17 18/18/18 19/19/19
f 17/17/17 20/20/20 18/18/18
f 21/21/21 22/22/22 23/23/23
f 24/24/24 21/21/21 23/23/23
f 11/11/11 10/10/10 25/25/25
f 11/11/11 25/25/25 26/26/26
f 26/26/26 25/25/25 27/27/27
f 26/26/26 27/27/27 28/28/28
f 29/29/29 30/30/30 31/31/31
f 30/30/30 32/32/32 31/31/31
f 33/33/33 34/34/34 35/35/35
f 34/34/34 36/36/36 35/35/35
f 37/37/37 38/38/38 39/39/39
f 37/37/37 40/40/40 38/38/38
f 17/17/17 40/40/40 37/37/37
f 17/17/17 19/19/19 40/40/40
f 41/41/41 42/42/42 43/43/43
f 44/44/44 41/41/41 43/43/43
f 45/45/45 46/46/46 47/47/47
f 48/48/48 45/45/45 47/47/47
f 49/49/49 50/50/50 51/51/51
f 52/52/52 49/49/49 51/51/51
f 53/53/53 54/54/54 55/55/55
f 53/53/53 56/56/56 54/54/54
f 57/57/57 58/58/58 59/59/59
f 57/57/57 60/60/60 58/58/58
f 61/61/61 62/62/62 63/63/63
f 64/64/64 61/61/61 63/63/63
f 65/65/65 66/66/66 67/67/67
f 65/65/65 67/67/67 68/68/68
f 66/66/66 57/57/57 67/67/67
f 67/67/67 57/57/57 59/59/59
f 69/69/69 70/70/70 71/71/71
f 70/70/70 72/72/72 71/71/71
f 73/73/73 74/74/74 75/75/75
f 75/75/75 74/74/74 76/76/76
f 77/77/77 78/78/78 79/79/79
f 78/78/78 80/80/80 79/79/79
f 81/81/81 82/82/82 83/83/83
f 82/82/82 84/84/84 83/83/83
f 85/85/85 86/86/86 87/87/87
f 86/86/86 88/88/88 87/87/87
f 89/89/89 90/90/90 91/91/91
f 90/90/90 92/92/92 91/91/91
f 93/93/93 94/94/94 95/95/95
f 94/94/94 96/96/96 95/95/95
f 97/97/97 98/98/98 99/99/99
f 98/98/98 100/100/100 99/99/99
f 101/101/101 102/102/102 103/103/103
f 102/102/102 104/104/104 103/103/103
f 105/105/105 106/106/106 107/107/107
f 106/106/106 108/108/108 107/107/107
f 109/109/109 110/110/110 111/111/111
f 110/110/110 112/112/112 111/111/111
f 113/113/113 114/114/114 115/115/115
f 114/114/114 116/116/116 115/115/115
f 117/117/117 118/118/118 119/119/119
f 118/118/118 120/120/120 119/119/119
f 121/121/121 122/122/122 123/123/123
f 122/122/122 124/124/124 123/123/123
f 125/125/125 126/126/126 127/127/127
f 126/126/126 128/128/128 127/127/127
f 129/129/129 130/130/130 131/131/131
f 130/130/130 132/132/132 131/131/131
f 133/133/133 134/134/134 135/135/135
f 134/134/134 136/136/136 135/135/135
f 137/137/137 138/138/138 139/139/139
f 138/138/138 140/140/140 139/139/139
f 141/141/141 142/142/142 143/143/143
f 142/142/142 144/144/144 143/143/143
f 145/145/145 49/49/49 146/146/146
f 49/49/49 52/52/52 146/146/146
f 147/147/147 148/148/148 149/149/149
f 147/147/147 150/150/150 148/148/148
f 151/151/151 152/152/152 153/153/153
f 151/151/151 154/154/154 152/152/152
f 155/155/155 20/20/20 17/17/17
f 155/155/155 156/156/156 20/20/20
f 59/59/59 156/156/156 155/155/155
f 59/59/59 58/58/58 156/156/156
f 157/157/157 158/158/158 159/159/159
f 47/47/47 157/157/157 159/159/159
f 158/158/158 160/160/160 73/73/73
f 159/159/159 158/158/158 73/73/73
f 68/68/68 67/67/67 161/161/161
f 162/162/162 68/68/68 161/161/161
f 162/162/162 161/161/161 37/37/37
f 162/162/162 37/37/37 39/39/39
f 67/67/67 59/59/59 155/155/155
f 67/67/67 155/155/155 161/161/161
f 161/161/161 155/155/155 17/17/17
f 161/161/161 17/17/17 37/37/37
f 163/163/163 48/48/48 164/164/164
f 48/48/48 165/165/165 164/164/164
f 165/165/165 166/166/166 164/164/164
f 165/165/165 75/75/75 166/166/166
f 48/48/48 47/47/47 165/165/165
f 47/47/47 159/159/159 165/165/165
f 165/165/165 159/159/159 75/75/75
f 159/159/159 73/73/73 75/75/75
f 167/167/167 168/168/168 169/169/169
f 168/168/168 170/170/170 169/169/169
f 156/156/156 58/58/58 171/171/171
f 58/58/58 172/172/172 171/171/171
f 173/173/173 174/174/174 175/175/175
f 174/174/174 176/176/176 175/175/175
f 160/160/160 158/158/158 177/177/177
f 158/158/158 178/178/178 177/177/177
f 163/163/163 164/164/164 179/179/179
f 164/164/164 180/180/180 179/179/179
f 181/181/181 182/182/182 183/183/183
f 182/182/182 184/184/184 183/183/183
f 185/185/185 186/186/186 187/187/187
f 186/186/186 188/188/188 187/187/187
f 162/162/162 39/39/39 189/189/189
f 39/39/39 190/190/190 189/189/189
