v -2 -2 10
v -2 -2 0
v -2 6 0
v -2 6 10
v -22 6 0
v -22 -2 10
v -22 6 10
v -22 -2 0
v -16 -2 0
v -16 0 0
v -16 -2 -8
v -16 0 -8
v -4 6 0
v -4 -2 0
v -4 6 -8
v -4 -2 -8
v -4 -2 10
v -4 -2 0
v -2 -2 10
v -2 -2 0
v -4 -2 0
v -4 6 0
v -2 -2 0
v -2 6 0
v -4 6 14
v -4 -2 14
v -2 6 14
v -2 -2 14
v -12 6 0
v -12 -2 0
v -14 6 0
v -14 -2 0
v -12 -2 14
v -12 6 14
v -14 -2 14
v -14 6 14
v -12 -2 0
v -12 -2 10
v -14 -2 0
v -14 -2 10
v -12 -2 -8
v -12 6 -8
v -12 -2 -14.5
v -12 0 -14.5
v -4 0 -14.5
v -4 -2 -14.5
v -14 -2 10
v -14 6 10
v -22 -2 10
v -22 6 10
v -22 6 0
v -22 -2 0
v -22 -2 0
v -22 -2 10
v -12 -2 0
v -12 6 0
v -16 -2 0
v -16 0 0
v -12 -2 -8
v -16 -2 -8
v -16 -2 0
v -12 6 0
v -12 6 -8
v -16 0 0
v -16 0 -8
v -12 6 -8
v -12 -2 -8
v -16 0 -8
v -16 -2 -8
v -2 20 0
v -4 20 0
v -2 23 0
v -4 23 0
v -4 20 10
v -2 20 10
v -4 23 10
v -2 23 10
v -2 20 10
v -2 20 0
v -2 23 10
v -2 23 0
v -2 12 0
v -2 12 10
v -14 12 0
v -14 6 10
v -14 12 10
v -14 6 0
v -2 12 0
v -4 12 0
v -4 6 10
v -2 6 10
v -2 12 10
v -4 12 10
v -12 6 10
v -12 12 10
v -14 12 10
v -12 12 0
v -14 12 0
v -6 -2 10
v -6 -2 0
v -6 -2 14
v -6 6 14
v -4 0 -14.5
v -6 -2 -14.5
v -6 0 -14.5
v -4 -2 -14.5
v -4 -2 -8
v -6 -2 -8
v -4 6 -8
v -6 0 -14.5
v -6 6 -8
v -4 0 -14.5
v -4 -2 -14.5
v -6 -2 -14.5
v -6 20 10
v -6 20 0
v -6 6 10
v -6 12 10
v -6 6 0
v -6 12 0
v -10 -2 10
v -10 -2 0
v -10 -2 14
v -10 6 14
v -10 0 -14.5
v -12 -2 -14.5
v -12 0 -14.5
v -10 -2 -14.5
v -10 -2 -8
v -10 6 -8
v -12 0 -14.5
v -12 6 -8
v -10 0 -14.5
v -10 -2 -14.5
v -12 -2 -14.5
v -12 20 10
v -10 20 10
v -8 23 10
v -7 23 10
v -7 23 0
v -10 20 0
v -8 23 0
v -12 20 0
v -10 6 10
v -10 12 10
v -10 12 0
v -10 6 0
v -10 6 0
v -10 12 0
v -10 6 10
v -10 12 10
v -10 12 0
v -6 12 0
v -10 12 10
v -6 12 10
v -6 12 0
v -6 6 0
v -6 12 10
v -6 6 10
v -10 -2 14
v -6 -2 14
v -14 -2 14
v -12 -2 14
v -4 -2 14
v -2 -2 14
v -2 -2 14
v -2 6 14
v -14 -2 10
v -14 6 14
v -14 -2 14
v -2 13.5 0
v -2 13.5 10
v -14 13.5 0
v -14 13.5 10
v -14 20 0
v -14 20 10
v -2 13.5 0
v -4 13.5 0
v -2 13.5 10
v -4 13.5 10
v -12 13.5 10
v -14 13.5 10
v -14 20 10
v -12 13.5 0
v -14 13.5 0
v -14 20 0
v -6 13.5 10
v -6 13.5 0
v -10 13.5 10
v -10 13.5 0
v -6 13.5 -3.5
v -10 12 -3.5
v -10 13.5 -3.5
v -6 12 -3.5
v -10 12 0
v -10 13.5 0
v -10 12 -3.5
v -10 13.5 -3.5
v -10 13.5 0
v -6 13.5 0
v -10 13.5 -3.5
v -6 13.5 -3.5
v -6 13.5 0
v -6 12 0
v -6 13.5 -3.5
v -6 12 -3.5
v -6 12 -3.5
v -10 12 -3.5
v -4 23 0
v -4 23 10
v -2 23 0
v -2 23 10
v -12 20 10
v -12 20 0
v -14 20 10
v -14 20 0
v -14 6 10
v -14 6 0
v -22 6 10
v -22 6 0
v -12 20 0
v -12 20 10
v -8 23 0
v -8 23 10
v -4 6 -8
v -6 6 -8
v -6 6 0
v -4 6 0
v -7 23 0
v -7 23 10
v -8 23 0
v -8 23 10
v -10 6 -8
v -10 6 0
v -12 6 -8
v -12 6 0
v -6 6 10
v -10 6 10
v -4 6 10
v -4 6 14
v -6 6 14
v -10 6 14
v -2 6 10
v -2 6 14
v -12 6 10
v -12 6 14
v -14 6 14
vn 1 0 0
vn 1 0 0
vn 1 0 0
vn 1 0 0
vn -1 0 0
vn -1 0 0
vn -1 0 0
vn -1 0 0
vn -1 0 0
vn -1 0 0
vn -1 0 0
vn -1 0 0
vn 1 0 0
vn 1 0 0
vn 1 0 0
vn 1 0 0
vn 0 -1 0
vn 0 -1 0
vn 0 -1 0
vn 0 -1 0
vn 0 0 -1
vn 0 0 -1
vn 0 0 -1
vn 0 0 -1
vn 0 0 1
vn 0 0 1
vn 0 0 1
vn 0 0 1
vn 0 0 -1
vn 0 0 -1
vn 0 0 -1
vn 0 0 -1
vn 0 0 1
vn 0 0 1
vn 0 0 1
vn 0 0 1
vn 0 -1 0
vn 0 -1 0
vn 0 -1 0
vn 0 -1 0
vn -1 0 0
vn -1 0 0
vn -1 0 0
vn -1 0 0
vn 1 0 0
vn 1 0 0
vn 0 0 1
vn 0 0 1
vn 0 0 1
vn 0 0 1
vn 0 0 -1
vn 0 0 -1
vn 0 -1 0
vn 0 -1 0
vn 0 0 1
vn 0 0 1
vn 0 0 1
vn 0 0 1
vn 0 -1 0
vn 0 -1 0
vn 0 -1 0
vn -0.8320503 0.5547002 0
vn -0.8320503 0.5547002 0
vn -0.8320503 0.5547002 0
vn -0.8320503 0.5547002 0
vn 0 0 -1
vn 0 0 -1
vn 0 0 -1
vn 0 0 -1
vn 0 0 -1
vn 0 0 -1
vn 0 0 -1
vn 0 0 -1
vn 0 0 1
vn 0 0 1
vn 0 0 1
vn 0 0 1
vn 1 0 0
vn 1 0 0
vn 1 0 0
vn 1 0 0
vn 1 0 0
vn 1 0 0
vn -1 0 0
vn -1 0 0
vn -1 0 0
vn -1 0 0
vn 0 0 -1
vn 0 0 -1
vn 0 0 1
vn 0 0 1
vn 0 0 1
vn 0 0 1
vn 0 0 1
vn 0 0 1
vn 0 0 1
vn 0 0 -1
vn 0 0 -1
vn 0 -1 0
vn 0 -1 0
vn 0 0 1
vn 0 0 1
vn 0 0 -1
vn 0 0 -1
vn 0 0 -1
vn 0 0 -1
vn 0 -1 0
vn 0 -1 0
vn 0 0.7348035 -0.6782801
vn 0 0.7348035 -0.6782801
vn 0 0.7348035 -0.6782801
vn 0 0.7348035 -0.6782801
vn 0 -1 0
vn 0 -1 0
vn 0 0 1
vn 0 0 -1
vn 0 0 1
vn 0 0 1
vn 0 0 -1
vn 0 0 -1
vn 0 -1 0
vn 0 -1 0
vn 0 0 1
vn 0 0 1
vn 0 0 -1
vn 0 0 -1
vn 0 0 -1
vn 0 0 -1
vn 0 -1 0
vn 0 0.7348035 -0.6782801
vn 0 0.7348035 -0.6782801
vn 0 0.7348035 -0.6782801
vn 0 0.7348035 -0.6782801
vn 0 -1 0
vn 0 -1 0
vn 0 0 1
vn 0 0 1
vn 0 0 1
vn 0 0 1
vn 0 0 -1
vn 0 0 -1
vn 0 0 -1
vn 0 0 -1
vn 0 0 1
vn 0 0 1
vn 0 0 -1
vn 0 0 -1
vn 1 0 0
vn 1 0 0
vn 1 0 0
vn 1 0 0
vn 0 -1 0
vn 0 -1 0
vn 0 -1 0
vn 0 -1 0
vn -1 0 0
vn -1 0 0
vn -1 0 0
vn -1 0 0
vn 0 -1 0
vn 0 -1 0
vn 0 -1 0
vn 0 -1 0
vn 0 -1 0
vn 0 -1 0
vn 1 0 0
vn 1 0 0
vn -1 0 0
vn -1 0 0
vn -1 0 0
vn 1 0 0
vn 1 0 0
vn -1 0 0
vn -1 0 0
vn -1 0 0
vn -1 0 0
vn 0 0 -1
vn 0 0 -1
vn 0 0 1
vn 0 0 1
vn 0 0 1
vn 0 0 1
vn 0 0 1
vn 0 0 -1
vn 0 0 -1
vn 0 0 -1
vn 0 0 1
vn 0 0 -1
vn 0 0 1
vn 0 0 -1
vn 0 0 -1
vn 0 0 -1
vn 0 0 -1
vn 0 0 -1
vn -1 0 0
vn -1 0 0
vn -1 0 0
vn -1 0 0
vn 0 1 0
vn 0 1 0
vn 0 1 0
vn 0 1 0
vn 1 0 0
vn 1 0 0
vn 1 0 0
vn 1 0 0
vn 0 -1 0
vn 0 -1 0
vn 0 1 0
vn 0 1 0
vn 0 1 0
vn 0 1 0
vn 0 1 0
vn 0 1 0
vn 0 1 0
vn 0 1 0
vn 0 1 0
vn 0 1 0
vn 0 1 0
vn 0 1 0
vn -0.6 0.8 0
vn -0.6 0.8 0
vn -0.6 0.8 0
vn -0.6 0.8 0
vn 0 1 0
vn 0 1 0
vn 0 1 0
vn 0 1 0
vn 0 1 0
vn 0 1 0
vn 0 1 0
vn 0 1 0
vn 0 1 0
vn 0 1 0
vn 0 1 0
vn 0 1 0
vn 0 1 0
vn 0 1 0
vn 0 1 0
vn 0 1 0
vn 0 1 0
vn 0 1 0
vn 0 1 0
vn 0 1 0
vn 0 1 0
vn 0 1 0
vn 0 1 0
vt 10 -2
vt 0 -2
vt 0 6
vt 10 6
vt 0 6
vt -10 -2
vt -10 6
vt 0 -2
vt 0 -2
vt 0 0
vt 8 -2
vt 8 0
vt 0 6
vt 0 -2
vt -8 6
vt -8 -2
vt 4 10
vt 4 0
vt 2 10
vt 2 0
vt -4 -2
vt -4 6
vt -2 -2
vt -2 6
vt 4 6
vt 4 -2
vt 2 6
vt 2 -2
vt -12 6
vt -12 -2
vt -14 6
vt -14 -2
vt 12 -2
vt 12 6
vt 14 -2
vt 14 6
vt 12 0
vt 12 10
vt 14 0
vt 14 10
vt 8 -2
vt 8 6
vt 14.5 -2
vt 14.5 0
vt -14.5 0
vt -14.5 -2
vt 14 -2
vt 14 6
vt 22 -2
vt 22 6
vt -22 6
vt -22 -2
vt 22 0
vt 22 10
vt 12 -2
vt 12 6
vt 16 -2
vt 16 0
vt 12 -8
vt 16 -8
vt 16 0
vt 0 -1.6641
vt 8 -1.6641
vt 0 -8.875202
vt 8 -8.875202
vt -12 6
vt -12 -2
vt -16 0
vt -16 -2
vt -2 20
vt -4 20
vt -2 23
vt -4 23
vt 4 20
vt 2 20
vt 4 23
vt 2 23
vt 10 20
vt 0 20
vt 10 23
vt 0 23
vt 0 12
vt 10 12
vt 0 12
vt -10 6
vt -10 12
vt 0 6
vt -2 12
vt -4 12
vt 4 6
vt 2 6
vt 2 12
vt 4 12
vt 12 6
vt 12 12
vt 14 12
vt -12 12
vt -14 12
vt 6 10
vt 6 0
vt 6 -2
vt 6 6
vt -4 0
vt -6 -2
vt -6 0
vt -4 -2
vt 4 -8
vt 6 -8
vt -4 -1.808748
vt -6 -10.65465
vt -6 -1.808748
vt -4 -10.65465
vt 4 -14.5
vt 6 -14.5
vt 6 20
vt -6 20
vt 6 6
vt 6 12
vt -6 6
vt -6 12
vt 10 10
vt 10 0
vt 10 -2
vt 10 6
vt -10 0
vt -12 -2
vt -12 0
vt -10 -2
vt 10 -8
vt -10 -1.808748
vt -12 -10.65465
vt -12 -1.808748
vt -10 -10.65465
vt 10 -14.5
vt 12 -14.5
vt 12 20
vt 10 20
vt 8 23
vt 7 23
vt -7 23
vt -10 20
vt -8 23
vt -12 20
vt 10 6
vt 10 12
vt -10 12
vt -10 6
vt 0 6
vt 0 12
vt 10 6
vt 10 12
vt 10 0
vt 6 0
vt 10 10
vt 6 10
vt 0 12
vt 0 6
vt -10 12
vt -10 6
vt 10 14
vt 6 14
vt 14 14
vt 12 14
vt 4 14
vt 2 14
vt 14 -2
vt 14 6
vt -10 -2
vt -14 6
vt -14 -2
vt 0 13.5
vt 10 13.5
vt 0 13.5
vt -10 13.5
vt 0 20
vt -10 20
vt -2 13.5
vt -4 13.5
vt 2 13.5
vt 4 13.5
vt 12 13.5
vt 14 13.5
vt 14 20
vt -12 13.5
vt -14 13.5
vt -14 20
vt 6 13.5
vt -6 13.5
vt 10 13.5
vt -10 13.5
vt -6 13.5
vt -10 12
vt -10 13.5
vt -6 12
vt 0 12
vt 0 13.5
vt 3.5 12
vt 3.5 13.5
vt -10 0
vt -6 0
vt -10 -3.5
vt -6 -3.5
vt 0 13.5
vt 0 12
vt -3.5 13.5
vt -3.5 12
vt 6 -3.5
vt 10 -3.5
vt -4 0
vt -4 10
vt -2 0
vt -2 10
vt -12 10
vt -12 0
vt -14 10
vt -14 0
vt -14 10
vt -14 0
vt -22 10
vt -22 0
vt 2.4 0
vt 2.4 10
vt 7.400001 0
vt 7.400001 10
vt -4 -8
vt -6 -8
vt -6 0
vt -4 0
vt -7 0
vt -7 10
vt -8 0
vt -8 10
vt -10 -8
vt -10 0
vt -12 -8
vt -12 0
vt -6 10
vt -10 10
vt -4 10
vt -4 14
vt -6 14
vt -10 14
vt -2 10
vt -2 14
vt -12 10
vt -12 14
vt -14 14
g submesh0
f 1/1/1 2/2/2 3/3/3
f 4/4/4 1/1/1 3/3/3
f 5/5/5 6/6/6 7/7/7
f 5/5/5 8/8/8 6/6/6
f 9/9/9 10/10/10 11/11/11
f 10/10/10 12/12/12 11/11/11
f 13/13/13 14/14/14 15/15/15
f 14/14/14 16/16/16 15/15/15
f 17/17/17 18/18/18 19/19/19
f 18/18/18 20/20/20 19/19/19
f 21/21/21 22/22/22 23/23/23
f 22/22/22 24/24/24 23/23/23
f 25/25/25 26/26/26 27/27/27
f 26/26/26 28/28/28 27/27/27
f 29/29/29 30/30/30 31/31/31
f 30/30/30 32/32/32 31/31/31
f 33/33/33 34/34/34 35/35/35
f 34/34/34 36/36/36 35/35/35
f 37/37/37 38/38/38 39/39/39
f 38/38/38 40/40/40 39/39/39
f 41/41/41 42/42/42 43/43/43
f 42/42/42 44/44/44 43/43/43
f 15/15/15 16/16/16 45/45/45
f 16/16/16 46/46/46 45/45/45
f 47/47/47 48/48/48 49/49/49
f 48/48/48 50/50/50 49/49/49
f 31/31/31 32/32/32 51/51/51
f 32/32/32 52/52/52 51/51/51
f 39/39/39 40/40/40 53/53/53
f 40/40/40 54/54/54 53/53/53
f 55/55/55 56/56/56 57/57/57
f 56/56/56 58/58/58 57/57/57
f 59/59/59 37/37/37 60/60/60
f 37/37/37 61/61/61 60/60/60
f 62/62/62 63/63/63 64/64/64
f 63/63/63 65/65/65 64/64/64
f 66/66/66 67/67/67 68/68/68
f 67/67/67 69/69/69 68/68/68
f 70/70/70 71/71/71 72/72/72
f 71/71/71 73/73/73 72/72/72
f 74/74/74 75/75/75 76/76/76
f 75/75/75 77/77/77 76/76/76
f 78/78/78 79/79/79 80/80/80
f 79/79/79 81/81/81 80/80/80
f 4/4/4 3/3/3 82/82/82
f 83/83/83 4/4/4 82/82/82
f 84/84/84 85/85/85 86/86/86
f 84/84/84 87/87/87 85/85/85
f 88/88/88 22/22/22 89/89/89
f 88/88/88 24/24/24 22/22/22
f 90/90/90 91/91/91 92/92/92
f 93/93/93 90/90/90 92/92/92
f 48/48/48 94/94/94 95/95/95
f 96/96/96 48/48/48 95/95/95
f 97/97/97 31/31/31 98/98/98
f 97/97/97 29/29/29 31/31/31
f 99/99/99 18/18/18 17/17/17
f 99/99/99 100/100/100 18/18/18
f 101/101/101 26/26/26 25/25/25
f 102/102/102 101/101/101 25/25/25
f 103/103/103 104/104/104 105/105/105
f 103/103/103 106/106/106 104/104/104
f 100/100/100 107/107/107 18/18/18
f 100/100/100 108/108/108 107/107/107
f 109/109/109 110/110/110 111/111/111
f 109/109/109 112/112/112 110/110/110
f 108/108/108 113/113/113 107/107/107
f 108/108/108 114/114/114 113/113/113
f 74/74/74 76/76/76 115/115/115
f 116/116/116 73/73/73 71/71/71
f 117/117/117 90/90/90 93/93/93
f 118/118/118 117/117/117 93/93/93
f 89/89/89 119/119/119 120/120/120
f 89/89/89 22/22/22 119/119/119
f 121/121/121 100/100/100 99/99/99
f 121/121/121 122/122/122 100/100/100
f 38/38/38 122/122/122 121/121/121
f 38/38/38 37/37/37 122/122/122
f 33/33/33 123/123/123 124/124/124
f 34/34/34 33/33/33 124/124/124
f 123/123/123 101/101/101 102/102/102
f 124/124/124 123/123/123 102/102/102
f 125/125/125 126/126/126 127/127/127
f 125/125/125 128/128/128 126/126/126
f 105/105/105 128/128/128 125/125/125
f 105/105/105 104/104/104 128/128/128
f 122/122/122 108/108/108 100/100/100
f 122/122/122 129/129/129 108/108/108
f 37/37/37 129/129/129 122/122/122
f 37/37/37 59/59/59 129/129/129
f 130/130/130 131/131/131 132/132/132
f 130/130/130 133/133/133 131/131/131
f 111/111/111 133/133/133 130/130/130
f 111/111/111 110/110/110 133/133/133
f 129/129/129 114/114/114 108/108/108
f 129/129/129 134/134/134 114/114/114
f 59/59/59 134/134/134 129/129/129
f 59/59/59 135/135/135 134/134/134
f 136/136/136 137/137/137 138/138/138
f 137/137/137 139/139/139 138/138/138
f 137/137/137 115/115/115 139/139/139
f 139/139/139 115/115/115 76/76/76
f 73/73/73 116/116/116 140/140/140
f 140/140/140 116/116/116 141/141/141
f 142/142/142 140/140/140 141/141/141
f 142/142/142 141/141/141 143/143/143
f 94/94/94 144/144/144 145/145/145
f 95/95/95 94/94/94 145/145/145
f 146/146/146 29/29/29 97/97/97
f 146/146/146 147/147/147 29/29/29
f 148/148/148 149/149/149 150/150/150
f 149/149/149 151/151/151 150/150/150
f 152/152/152 153/153/153 154/154/154
f 153/153/153 155/155/155 154/154/154
f 156/156/156 157/157/157 158/158/158
f 157/157/157 159/159/159 158/158/158
f 121/121/121 99/99/99 160/160/160
f 99/99/99 161/161/161 160/160/160
f 40/40/40 38/38/38 162/162/162
f 38/38/38 163/163/163 162/162/162
f 99/99/99 17/17/17 161/161/161
f 17/17/17 164/164/164 161/161/161
f 17/17/17 19/19/19 164/164/164
f 19/19/19 165/165/165 164/164/164
f 1/1/1 4/4/4 166/166/166
f 4/4/4 167/167/167 166/166/166
f 38/38/38 121/121/121 163/163/163
f 121/121/121 160/160/160 163/163/163
f 85/85/85 168/168/168 169/169/169
f 168/168/168 170/170/170 169/169/169
f 83/83/83 82/82/82 171/171/171
f 172/172/172 83/83/83 171/171/171
f 172/172/172 171/171/171 79/79/79
f 78/78/78 172/172/172 79/79/79
f 173/173/173 86/86/86 174/174/174
f 173/173/173 84/84/84 86/86/86
f 175/175/175 174/174/174 176/176/176
f 175/175/175 173/173/173 174/174/174
f 177/177/177 89/89/89 178/178/178
f 177/177/177 88/88/88 89/89/89
f 70/70/70 178/178/178 71/71/71
f 70/70/70 177/177/177 178/178/178
f 93/93/93 92/92/92 179/179/179
f 180/180/180 93/93/93 179/179/179
f 180/180/180 179/179/179 75/75/75
f 74/74/74 180/180/180 75/75/75
f 96/96/96 95/95/95 181/181/181
f 182/182/182 96/96/96 181/181/181
f 182/182/182 181/181/181 136/136/136
f 183/183/183 182/182/182 136/136/136
f 184/184/184 98/98/98 185/185/185
f 184/184/184 97/97/97 98/98/98
f 143/143/143 185/185/185 186/186/186
f 143/143/143 184/184/184 185/185/185
f 118/118/118 93/93/93 180/180/180
f 187/187/187 118/118/118 180/180/180
f 187/187/187 180/180/180 74/74/74
f 115/115/115 187/187/187 74/74/74
f 178/178/178 120/120/120 188/188/188
f 178/178/178 89/89/89 120/120/120
f 71/71/71 188/188/188 116/116/116
f 71/71/71 178/178/178 188/188/188
f 95/95/95 145/145/145 189/189/189
f 181/181/181 95/95/95 189/189/189
f 181/181/181 189/189/189 137/137/137
f 136/136/136 181/181/181 137/137/137
f 145/145/145 118/118/118 187/187/187
f 189/189/189 145/145/145 187/187/187
f 189/189/189 187/187/187 115/115/115
f 137/137/137 189/189/189 115/115/115
f 190/190/190 97/97/97 184/184/184
f 190/190/190 146/146/146 97/97/97
f 141/141/141 184/184/184 143/143/143
f 141/141/141 190/190/190 184/184/184
f 191/191/191 192/192/192 193/193/193
f 191/191/191 194/194/194 192/192/192
f 116/116/116 190/190/190 141/141/141
f 116/116/116 188/188/188 190/190/190
f 195/195/195 196/196/196 197/197/197
f 196/196/196 198/198/198 197/197/197
f 199/199/199 200/200/200 201/201/201
f 200/200/200 202/202/202 201/201/201
f 203/203/203 204/204/204 205/205/205
f 204/204/204 206/206/206 205/205/205
f 153/153/153 152/152/152 207/207/207
f 152/152/152 208/208/208 207/207/207
g submesh1
f 209/209/209 210/210/210 211/211/211
f 210/210/210 212/212/212 211/211/211
f 213/213/213 214/214/214 215/215/215
f 214/214/214 216/216/216 215/215/215
f 217/217/217 218/218/218 219/219/219
f 218/218/218 220/220/220 219/219/219
f 221/221/221 222/222/222 223/223/223
f 222/222/222 224/224/224 223/223/223
f 225/225/225 226/226/226 227/227/227
f 228/228/228 225/225/225 227/227/227
f 209/209/209 229/229/229 230/230/230
f 210/210/210 209/209/209 230/230/230
f 229/229/229 231/231/231 232/232/232
f 230/230/230 229/229/229 232/232/232
f 226/226/226 233/233/233 234/234/234
f 227/227/227 226/226/226 234/234/234
f 233/233/233 235/235/235 236/236/236
f 234/234/234 233/233/233 236/236/236
f 227/227/227 234/234/234 237/237/237
f 234/234/234 238/238/238 237/237/237
f 239/239/239 237/237/237 240/240/240
f 237/237/237 241/241/241 240/240/240
f 237/237/237 238/238/238 241/241/241
f 238/238/238 242/242/242 241/241/241
f 243/243/243 239/239/239 244/244/244
f 239/239/239 240/240/240 244/244/244
f 238/238/238 245/245/245 242/242/242
f 245/245/245 246/246/246 242/242/242
f 245/245/245 217/217/217 246/246/246
f 217/217/217 247/247/247 246/246/246
