v 5.5 0.5 10
v 5.5 0.5 -1
v 5.5 1 -1
v 5.5 1 10
v -2 1 -1.00022
v -2 0.5 10
v -2 1 10
v -2 0.5 -1.00022
v 5.499997 0.5 -6.725015
v 5.499997 1 -6.725015
v 5.5 0.5 -7
v 5.5 1 -7
v -1.999998 1 -6.737114
v -1.999998 0.5 -6.737114
v -2 1 -7
v -2 0.5 -7
v -2 0.5 10
v 0.494013 0.5 10
v 0.494013 1 10
v -2 1 10
v 0.1133207 1 -7.000003
v -2 0.5 -7
v -2 1 -7
v 0.1133207 0.5 -7.000003
v 0.3076772 1 -1.000112
v -2 1 -1.00022
v -2 1 10
v 0.494013 1 10
v -2 0.5 10
v 0.3076772 0.5 -1.000112
v 0.494013 0.5 10
v -2 0.5 -1.00022
v 0.1133207 1 -7.000003
v -1.999998 1 -6.737114
v 0.1677647 1 -6.731069
v -2 1 -7
v -1.999998 0.5 -6.737114
v -2 0.5 -7
v 0.1133207 0.5 -7.000003
v 0.1677647 0.5 -6.731069
v 3.252078 0.5 10
v 3.252078 1 10
v 5.5 0.5 10
v 5.5 1 10
v 3.061732 1 -7.000001
v 3.061732 0.5 -7.000001
v 5.5 1 -7
v 5.5 0.5 -7
v 5.5 1 10
v 5.5 1 -1
v 3.252078 1 10
v 3.15891 1 -1.000057
v 3.252078 0.5 10
v 3.15891 0.5 -1.000057
v 5.5 0.5 -1
v 5.5 0.5 10
v 3.088953 1 -6.728042
v 3.061732 1 -7.000001
v 5.5 1 -7
v 5.499997 1 -6.725015
v 3.088953 0.5 -6.728042
v 3.061732 0.5 -7.000001
v 5.5 0.5 -7
v 5.499997 0.5 -6.725015
v 0.1677645 -9 -6.73107
v 0.1133224 -9 -7.000004
v 3.061733 -9 -7.000003
v 3.088953 -9 -6.728043
v 0.1677647 0.5 -6.731069
v 0.1133207 0.5 -7.000003
v 0.1677645 -9 -6.73107
v 0.1133224 -9 -7.000004
v 0.1133207 0.5 -7.000003
v 3.061732 0.5 -7.000001
v 0.1133224 -9 -7.000004
v 3.061733 -9 -7.000003
v 3.061732 0.5 -7.000001
v 3.088953 0.5 -6.728042
v 3.061733 -9 -7.000003
v 3.088953 -9 -6.728043
v 3.088953 0.5 -6.728042
v 0.1677647 0.5 -6.731069
v 3.088953 -9 -6.728043
v 0.1677645 -9 -6.73107
vn 1 0 0
vn 1 0 0
vn 1 0 0
vn 1 0 0
vn -1 0 0
vn -1 0 0
vn -1 0 0
vn -1 0 0
vn 1 0 -4.997407E-07
vn 1 0 -4.997407E-07
vn 1 0 1.040429E-05
vn 1 0 1.040429E-05
vn -1 0 -2.701324E-07
vn -1 0 -2.701324E-07
vn -1 0 5.895039E-06
vn -1 0 5.895039E-06
vn -3.823855E-07 0 1
vn -3.823855E-07 0 1
vn -3.823855E-07 0 1
vn -3.823855E-07 0 1
vn -1.353804E-06 0 -1
vn -1.353804E-06 0 -1
vn -1.353804E-06 0 -1
vn -1.353804E-06 0 -1
vn 0 1 0
vn 0 1 0
vn 0 1 0
vn 0 1 0
vn 0 -1 0
vn 0 -1 0
vn 0 -1 0
vn 0 -1 0
vn 0 1 0
vn 0 1 0
vn 0 1 0
vn 0 1 0
vn 0 -1 0
vn 0 -1 0
vn 0 -1 0
vn 0 -1 0
vn 3.457766E-07 0 1
vn 3.457766E-07 0 1
vn 0 0 1
vn 0 0 1
vn 4.851805E-07 0 -1
vn 4.851805E-07 0 -1
vn 5.866916E-07 0 -1
vn 5.866916E-07 0 -1
vn 0 1 0
vn 0 1 0
vn 0 1 0
vn 0 1 0
vn 0 -1 0
vn 0 -1 0
vn 0 -1 0
vn 0 -1 0
vn 0 1 0
vn 0 1 0
vn 0 1 0
vn 0 1 0
vn 0 -1 0
vn 0 -1 0
vn 0 -1 0
vn 0 -1 0
vn 0 -1 0
vn 0 -1 0
vn 0 -1 0
vn 0 -1 0
vn -0.9801173 -1.470353E-09 0.1984189
vn -0.980118 -1.021501E-07 0.1984155
vn -0.980118 -1.021501E-07 0.1984155
vn -0.9801187 -2.028298E-07 0.198412
vn 4.851805E-07 1.505802E-07 -1
vn 4.851805E-07 1.505802E-07 -1
vn 4.851805E-07 1.505802E-07 -1
vn 4.851806E-07 1.505802E-07 -1
vn 0.9950282 1.148845E-07 -0.09959336
vn 0.9950283 1.023984E-07 -0.09959293
vn 0.9950283 1.023984E-07 -0.09959293
vn 0.9950283 8.991241E-08 -0.0995925
vn -0.001036372 -1.506581E-07 0.9999995
vn -0.00103629 -1.255127E-07 0.9999995
vn -0.00103629 -1.255127E-07 0.9999995
vn -0.001036208 -1.003672E-07 0.9999995
vt 9.999982 0.5
vt -1.000018 0.5
vt -1.000018 1
vt 9.999982 1
vt 1.000224 1
vt -9.999996 0.5
vt -9.999996 1
vt 1.000224 0.5
vt -6.725033 0.5
vt -6.725033 1
vt -7.000018 0.5
vt -7.000018 1
vt 6.737118 1
vt 6.737118 0.5
vt 7.000004 1
vt 7.000004 0.5
vt 2 0.5
vt -0.4940131 0.5
vt -0.4940131 1
vt 2 1
vt 0.1133213 1
vt -1.999999 0.5
vt -1.999999 1
vt 0.1133213 0.5
vt 0.3076772 -1.000112
vt -2 -1.00022
vt -2 10
vt 0.494013 10
vt 2 10
vt -0.3076772 -1.000112
vt -0.494013 10
vt 2 -1.00022
vt 0.1133207 -7.000003
vt -1.999998 -6.737114
vt 0.1677647 -6.731069
vt -2 -7
vt 1.999998 -6.737114
vt 2 -7
vt -0.1133207 -7.000003
vt -0.1677647 -6.731069
vt -3.252078 0.5
vt -3.252078 1
vt -5.5 0.5
vt -5.5 1
vt 3.061733 1
vt 3.061733 0.5
vt 5.5 1
vt 5.5 0.5
vt 5.5 10
vt 5.5 -1
vt 3.252078 10
vt 3.15891 -1.000057
vt -3.252078 10
vt -3.15891 -1.000057
vt -5.5 -1
vt -5.5 10
vt 3.088953 -6.728042
vt 3.061732 -7.000001
vt 5.5 -7
vt 5.499997 -6.725015
vt -3.088953 -6.728042
vt -3.061732 -7.000001
vt -5.5 -7
vt -5.499997 -6.725015
vt -0.1677645 -6.73107
vt -0.1133224 -7.000004
vt -3.061733 -7.000003
vt -3.088953 -6.728043
vt 6.56395 0.5
vt 6.838339 0.5
vt 6.563951 -9
vt 6.83834 -9
vt 0.1133173 0.499999
vt 3.061728 0.499999
vt 0.113319 -9.000001
vt 3.061729 -9.000001
vt -6.660271 0.4999996
vt -6.386952 0.4999996
vt -6.660272 -9
vt -6.386953 -9
vt -3.081978 0.499999
vt -0.1607887 0.499999
vt -3.081979 -9.000001
vt -0.1607886 -9.000001
g submesh0
f 1/1/1 2/2/2 3/3/3
f 4/4/4 1/1/1 3/3/3
f 5/5/5 6/6/6 7/7/7
f 5/5/5 8/8/8 6/6/6
f 2/2/2 9/9/9 10/10/10
f 3/3/3 2/2/2 10/10/10
f 9/9/9 11/11/11 12/12/12
f 10/10/10 9/9/9 12/12/12
f 13/13/13 8/8/8 5/5/5
f 13/13/13 14/14/14 8/8/8
f 15/15/15 14/14/14 13/13/13
f 15/15/15 16/16/16 14/14/14
f 17/17/17 18/18/18 19/19/19
f 20/20/20 17/17/17 19/19/19
f 21/21/21 22/22/22 23/23/23
f 21/21/21 24/24/24 22/22/22
f 25/25/25 26/26/26 27/27/27
f 28/28/28 25/25/25 27/27/27
f 29/29/29 30/30/30 31/31/31
f 29/29/29 32/32/32 30/30/30
f 33/33/33 34/34/34 35/35/35
f 33/33/33 36/36/36 34/34/34
f 35/35/35 34/34/34 26/26/26
f 25/25/25 35/35/35 26/26/26
f 37/37/37 38/38/38 39/39/39
f 40/40/40 37/37/37 39/39/39
f 32/32/32 40/40/40 30/30/30
f 32/32/32 37/37/37 40/40/40
f 18/18/18 41/41/41 42/42/42
f 19/19/19 18/18/18 42/42/42
f 41/41/41 43/43/43 44/44/44
f 42/42/42 41/41/41 44/44/44
f 45/45/45 24/24/24 21/21/21
f 45/45/45 46/46/46 24/24/24
f 47/47/47 46/46/46 45/45/45
f 47/47/47 48/48/48 46/46/46
f 49/49/49 50/50/50 51/51/51
f 50/50/50 52/52/52 51/51/51
f 51/51/51 52/52/52 28/28/28
f 52/52/52 25/25/25 28/28/28
f 53/53/53 54/54/54 55/55/55
f 53/53/53 55/55/55 56/56/56
f 31/31/31 30/30/30 54/54/54
f 31/31/31 54/54/54 53/53/53
f 57/57/57 58/58/58 35/35/35
f 58/58/58 33/33/33 35/35/35
f 59/59/59 57/57/57 60/60/60
f 59/59/59 58/58/58 57/57/57
f 50/50/50 60/60/60 52/52/52
f 60/60/60 57/57/57 52/52/52
f 52/52/52 57/57/57 25/25/25
f 57/57/57 35/35/35 25/25/25
f 61/61/61 62/62/62 63/63/63
f 64/64/64 61/61/61 63/63/63
f 65/65/65 66/66/66 67/67/67
f 65/65/65 67/67/67 68/68/68
f 30/30/30 40/40/40 61/61/61
f 30/30/30 61/61/61 54/54/54
f 54/54/54 61/61/61 64/64/64
f 54/54/54 64/64/64 55/55/55
f 69/69/69 70/70/70 71/71/71
f 70/70/70 72/72/72 71/71/71
f 73/73/73 74/74/74 75/75/75
f 74/74/74 76/76/76 75/75/75
f 77/77/77 78/78/78 79/79/79
f 78/78/78 80/80/80 79/79/79
f 81/81/81 82/82/82 83/83/83
f 82/82/82 84/84/84 83/83/83
