v 2.663712 7 2.114654
v 2.66371 7 1.614654
v 2.66371 7.5 1.614654
v 2.663712 7.5 2.114654
v -3.999973 7.5 1.614653
v -3.999837 7 2.114653
v -3.999837 7.5 2.114653
v -3.999973 7 1.614653
v -3.999837 7 2.114653
v -3.410274 7 2.114653
v -3.410274 7.5 2.114653
v -3.999837 7.5 2.114653
v -3.410006 4.75 -15.0243
v -4.000502 4.25 -15.02425
v -4.000502 4.75 -15.02425
v -3.410006 4.25 -15.0243
v -3.409942 7.5 1.614653
v -3.999837 7.5 2.114653
v -3.410274 7.5 2.114653
v -3.999973 7.5 1.614653
v -3.999837 -11.43 2.114652
v -3.999972 -11.43 1.614652
v -3.409941 -11.43 1.614652
v -3.410271 -11.43 2.114652
v 2.16371 7 2.114654
v 2.16371 7.5 2.114654
v 2.663712 7 2.114654
v 2.663712 7.5 2.114654
v 2.16321 4.75 -15.02477
v 2.16321 4.25 -15.02477
v 2.663214 4.75 -15.02481
v 2.663214 4.25 -15.02481
v 2.163712 7.5 1.614654
v 2.663712 7.5 2.114654
v 2.66371 7.5 1.614654
v 2.16371 7.5 2.114654
v 2.663707 -11.43 2.114653
v 2.163707 -11.43 2.114653
v 2.163707 -11.43 1.614653
v 2.663707 -11.43 1.614653
v 2.16371 7 2.114654
v -3.410274 7 2.114653
v -3.409942 7 1.614653
v 2.163712 7 1.614654
v 2.663213 4.25 -14.52481
v 2.663214 4.25 -15.02481
v 2.663214 4.75 -15.02481
v 2.663213 4.75 -14.52481
v -4.000502 4.75 -15.02425
v -4.000486 4.25 -14.52425
v -4.000486 4.75 -14.52425
v -4.000502 4.25 -15.02425
v -3.410006 4.75 -15.0243
v -4.000486 4.75 -14.52425
v -3.410223 4.75 -14.5243
v -4.000502 4.75 -15.02425
v -4.000483 -11.43 -14.52425
v -4.000498 -11.43 -15.02425
v -3.410002 -11.43 -15.0243
v -3.410219 -11.43 -14.5243
v 2.663214 4.75 -15.02481
v 2.16321 4.75 -15.02477
v 2.16321 4.75 -14.52477
v 2.663213 4.75 -14.52481
v 2.663206 -11.43 -14.52481
v 2.163206 -11.43 -14.52477
v 2.663206 -11.43 -15.02481
v 2.163206 -11.43 -15.02477
v -3.410223 4.25 -14.5243
v -3.410006 4.25 -15.0243
v 2.16321 4.25 -14.52477
v 2.16321 4.25 -15.02477
v -3.999837 7 2.114653
v -3.999973 7 1.614653
v -3.999837 -11.43 2.114652
v -3.999972 -11.43 1.614652
v -3.999973 7 1.614653
v -3.409942 7 1.614653
v -3.999972 -11.43 1.614652
v -3.409941 -11.43 1.614652
v -3.410271 -11.43 2.114652
v -3.999837 -11.43 2.114652
v -3.409942 7 1.614653
v -3.410274 7 2.114653
v -3.409941 -11.43 1.614652
v -3.410271 -11.43 2.114652
v 2.663707 -11.43 2.114653
v 2.163707 -11.43 2.114653
v 2.16371 7 2.114654
v 2.163712 7 1.614654
v 2.163707 -11.43 2.114653
v 2.163707 -11.43 1.614653
v 2.66371 7 1.614654
v 2.663712 7 2.114654
v 2.663707 -11.43 1.614653
v 2.663707 -11.43 2.114653
v 2.163712 7 1.614654
v 2.66371 7 1.614654
v 2.163707 -11.43 1.614653
v 2.663707 -11.43 1.614653
v -4.000486 4.25 -14.52425
v -4.000502 4.25 -15.02425
v -4.000483 -11.43 -14.52425
v -4.000498 -11.43 -15.02425
v -4.000498 -11.43 -15.02425
v -3.410002 -11.43 -15.0243
v -3.410223 4.25 -14.5243
v -4.000486 4.25 -14.52425
v -3.410219 -11.43 -14.5243
v -4.000483 -11.43 -14.52425
v -3.410006 4.25 -15.0243
v -3.410223 4.25 -14.5243
v -3.410002 -11.43 -15.0243
v -3.410219 -11.43 -14.5243
v 2.663213 4.25 -14.52481
v 2.16321 4.25 -14.52477
v 2.663206 -11.43 -14.52481
v 2.163206 -11.43 -14.52477
v 2.663214 4.25 -15.02481
v 2.663213 4.25 -14.52481
v 2.663206 -11.43 -15.02481
v 2.663206 -11.43 -14.52481
v 2.16321 4.25 -14.52477
v 2.16321 4.25 -15.02477
v 2.163206 -11.43 -14.52477
v 2.163206 -11.43 -15.02477
v 2.163206 -11.43 -15.02477
v 2.663206 -11.43 -15.02481
v 2.663714 7 -3.417509
v 2.663714 7.5 -3.417509
v -3.999976 7.5 -3.417785
v -3.999973 7 1.614653
v -3.999973 7.5 1.614653
v -3.999976 7 -3.417785
v -3.409833 7.5 -3.417769
v -3.999976 7.5 -3.417785
v -3.999973 7 1.614653
v -3.999976 7 -3.417785
v -3.409833 7 -3.417769
v 2.663714 7.5 -3.417509
v 2.163707 7.5 -3.417522
v 2.66371 7 1.614654
v 2.663714 7 -3.417509
v 2.163707 7 -3.417522
v 2.663714 7 -3.417509
v 2.582872 4.25 -9.797129
v 2.582872 4.75 -9.797129
v 2.663714 7.5 -3.417509
v 2.582872 4.25 -9.797129
v 2.663213 4.25 -14.52481
v 2.663213 4.75 -14.52481
v 2.582872 4.75 -9.797129
v -4.066551 4.75 -9.65071
v -3.999976 7 -3.417785
v -3.999976 7.5 -3.417785
v -4.066551 4.25 -9.65071
v -4.000486 4.75 -14.52425
v -4.066551 4.25 -9.65071
v -4.066551 4.75 -9.65071
v -4.000486 4.25 -14.52425
v -3.409833 7.5 -3.417769
v -3.48191 4.75 -9.707754
v -3.999976 7.5 -3.417785
v -4.066551 4.75 -9.65071
v -3.48191 4.75 -9.707754
v -4.066551 4.75 -9.65071
v -3.999976 7 -3.417785
v -4.066551 4.25 -9.65071
v -3.48191 4.25 -9.707754
v -3.409833 7 -3.417769
v -4.066551 4.25 -9.65071
v -4.000486 4.25 -14.52425
v -3.48191 4.25 -9.707754
v 2.582872 4.75 -9.797129
v 2.087581 4.75 -9.748802
v 2.663714 7.5 -3.417509
v 2.582872 4.75 -9.797129
v 2.163707 7.5 -3.417522
v 2.087581 4.75 -9.748802
v 2.163707 7.5 -3.417522
v 2.087581 4.75 -9.748802
v -3.409833 7.5 -3.417769
v -3.48191 4.75 -9.707754
v 2.087581 4.25 -9.748802
v 2.582872 4.25 -9.797129
v 2.663213 4.25 -14.52481
v 2.163707 7 -3.417522
v 2.087581 4.25 -9.748802
v 2.582872 4.25 -9.797129
v 2.663714 7 -3.417509
v -3.409833 7 -3.417769
v -3.48191 4.25 -9.707754
v 2.087581 4.25 -9.748802
v 2.163707 7 -3.417522
vn 1 0 -3.337861E-06
vn 1 0 -3.337861E-06
vn 1 0 -3.337861E-06
vn 1 0 -3.337861E-06
vn -1 0 0.0002717971
vn -1 0 0.0002717971
vn -1 0 0.0002717971
vn -1 0 0.0002717971
vn -4.043987E-07 0 1
vn -4.043987E-07 0 1
vn -4.043987E-07 0 1
vn -4.043987E-07 0 1
vn -8.2367E-05 0 -1
vn -8.2367E-05 0 -1
vn -8.2367E-05 0 -1
vn -8.2367E-05 0 -1
vn 0 1 0
vn 0 1 0
vn 0 1 0
vn 0 1 0
vn 0 -1 0
vn 0 -1 0
vn 0 -1 0
vn 0 -1 0
vn -1.283204E-07 0 1
vn -1.283204E-07 0 1
vn -4.768353E-07 0 1
vn -4.768353E-07 0 1
vn -8.333419E-05 0 -1
vn -8.333419E-05 0 -1
vn -8.39227E-05 0 -1
vn -8.39227E-05 0 -1
vn 0 1 0
vn 0 1 0
vn 0 1 0
vn 0 1 0
vn 0 -1 0
vn 0 -1 0
vn 0 -1 0
vn 0 -1 0
vn 0 -1 0
vn 0 -1 0
vn 0 -1 0
vn 0 -1 0
vn 1 0 4.768372E-07
vn 1 0 4.768372E-07
vn 1 0 4.768372E-07
vn 1 0 4.768372E-07
vn -1 0 3.051758E-05
vn -1 0 3.051758E-05
vn -1 0 3.051758E-05
vn -1 0 3.051758E-05
vn 0 1 0
vn 0 1 0
vn 0 1 0
vn 0 1 0
vn 0 -1 0
vn 0 -1 0
vn 0 -1 0
vn 0 -1 0
vn 0 1 0
vn 0 1 0
vn 0 1 0
vn 0 1 0
vn 0 -1 0
vn 0 -1 0
vn 0 -1 0
vn 0 -1 0
vn 0 -1 0
vn 0 -1 0
vn 0 -1 0
vn 0 -1 0
vn -1 -7.032174E-12 0.0002717971
vn -1 -1.294258E-08 0.0002713203
vn -1 -1.294258E-08 0.0002713203
vn -1 -2.587813E-08 0.0002708435
vn 1.010195E-06 1.940469E-08 -1
vn 5.050977E-07 3.557522E-08 -1
vn 5.050977E-07 3.557522E-08 -1
vn 0 5.174575E-08 -1
vn -2.021994E-07 -3.234112E-08 1
vn 0 -2.587288E-08 1
vn 0.9999998 1.290209E-08 0.0006637576
vn 0.9999998 6.465221E-08 0.00066185
vn 0.9999998 6.465221E-08 0.00066185
vn 0.9999998 1.164023E-07 0.0006599425
vn -2.384177E-07 -4.527747E-08 1
vn 0 -3.880932E-08 1
vn -1 1.681739E-07 -4.291534E-06
vn -1 2.263878E-07 -2.145767E-06
vn -1 2.263878E-07 -2.145767E-06
vn -1 2.846017E-07 0
vn 1 -1.552371E-07 -3.337861E-06
vn 1 -2.134512E-07 -1.192093E-06
vn 1 -2.134512E-07 -1.192093E-06
vn 1 -2.716653E-07 9.536743E-07
vn 9.53678E-07 3.880905E-08 -1
vn 5.960482E-07 4.85115E-08 -1
vn 5.960482E-07 4.85115E-08 -1
vn 2.384184E-07 5.821394E-08 -1
vn -1 -2.432843E-07 3.051758E-05
vn -1 -2.432843E-07 3.051758E-05
vn -1 -2.432843E-07 3.051758E-05
vn -1 -2.432843E-07 3.051758E-05
vn -8.2367E-05 -2.003859E-11 -1
vn -8.2367E-05 -2.003859E-11 -1
vn 8.23995E-05 2.00465E-11 1
vn 8.23995E-05 2.00465E-11 1
vn 8.23995E-05 2.00465E-11 1
vn 8.23995E-05 2.00465E-11 1
vn 0.9999999 2.432842E-07 0.0004353523
vn 0.9999999 2.432842E-07 0.0004353523
vn 0.9999999 2.432842E-07 0.0004353523
vn 0.9999999 2.432842E-07 0.0004353523
vn 8.392271E-05 -4.083415E-11 1
vn 8.392303E-05 -3.062569E-11 1
vn 8.392303E-05 -3.062569E-11 1
vn 8.392335E-05 -2.041723E-11 1
vn 1 -4.865685E-07 4.768372E-07
vn 1 -4.865685E-07 4.768372E-07
vn 1 -4.865685E-07 4.768372E-07
vn 1 -4.865685E-07 4.768372E-07
vn -1 2.432843E-07 -4.768372E-07
vn -1 2.432843E-07 -4.768372E-07
vn -1 2.432843E-07 -4.768372E-07
vn -1 2.432843E-07 -4.768372E-07
vn -8.392303E-05 3.062576E-11 -1
vn -8.392335E-05 4.083445E-11 -1
vn 1 0 7.58063E-07
vn 1 0 7.58063E-07
vn -1 0 7.580218E-07
vn -1 0 7.580218E-07
vn -1 0 7.580218E-07
vn -1 0 7.580218E-07
vn 0 1 0
vn 0 1 0
vn 0 -1 0
vn 0 -1 0
vn 0 -1 0
vn 0 1 0
vn 0 1 0
vn 0 -1 0
vn 0 -1 0
vn 0 -1 0
vn 0.9999197 0 -0.01267086
vn 0.9999197 0 -0.01267086
vn 0.9999197 0 -0.01267086
vn 0.9999197 0 -0.01267086
vn 0.9998556 0 0.01699142
vn 0.9998556 0 0.01699142
vn 0.9998556 0 0.01699142
vn 0.9998556 0 0.01699142
vn -0.999943 0 0.01068054
vn -0.999943 0 0.01068054
vn -0.999943 0 0.01068054
vn -0.999943 0 0.01068054
vn -0.9999081 0 -0.01355457
vn -0.9999081 0 -0.01355457
vn -0.9999081 0 -0.01355457
vn -0.9999081 0 -0.01355457
vn 1.116689E-05 0.9162572 -0.4005905
vn -0.0196549 0.9153063 -0.4017945
vn -0.0196549 0.9153063 -0.4017945
vn -0.03932096 0.9143555 -0.4029986
vn 0 1 0
vn 0 1 0
vn 0.0196549 -0.9153063 0.4017945
vn 0.03932096 -0.9143555 0.4029986
vn 0.0196549 -0.9153063 0.4017945
vn -1.116689E-05 -0.9162572 0.4005905
vn 0 -1 0
vn 0 -1 0
vn 0 -1 0
vn 0 1 0
vn 0 1 0
vn 1.038141E-05 0.9183155 -0.3958494
vn -0.01939704 0.9175048 -0.3967751
vn -0.01939704 0.9175048 -0.3967751
vn -0.03880447 0.9166942 -0.3977008
vn 1.760442E-05 0.9172146 -0.3983936
vn -0.001467295 0.9167402 -0.3994769
vn -0.001467295 0.9167402 -0.3994769
vn -0.002952193 0.9162657 -0.4005602
vn 0 -1 0
vn 0 -1 0
vn 0 -1 0
vn 0.01939704 -0.9175048 0.3967751
vn 0.03880447 -0.9166942 0.3977008
vn 0.01939704 -0.9175048 0.3967751
vn -1.038141E-05 -0.9183155 0.3958494
vn 0.001467295 -0.9167402 0.3994769
vn 0.002952193 -0.9162657 0.4005602
vn 0.001467295 -0.9167402 0.3994769
vn -1.760442E-05 -0.9172146 0.3983936
vt 2.112353 7
vt 1.612353 7
vt 1.612353 7.5
vt 2.112353 7.5
vt -1.616709 7.5
vt -2.116709 7
vt -2.116709 7.5
vt -1.616709 7
vt 3.999836 7
vt 3.410273 7
vt 3.410273 7.5
vt 3.999836 7.5
vt -3.408756 4.75
vt -3.999252 4.25
vt -3.999252 4.75
vt -3.408756 4.25
vt -3.409961 2.214868
vt -3.999856 2.713236
vt -3.410293 2.713236
vt -3.999992 2.214867
vt 3.999837 2.114652
vt 3.999972 1.614652
vt 3.409941 1.614652
vt 3.410271 2.114652
vt -2.16371 7
vt -2.16371 7.5
vt -2.663712 7
vt -2.663712 7.5
vt 2.16446 4.75
vt 2.16446 4.25
vt 2.664464 4.75
vt 2.664464 4.25
vt 2.163692 2.21487
vt 2.663692 2.713238
vt 2.66369 2.21487
vt 2.16369 2.713238
vt -2.663707 2.114653
vt -2.163707 2.114653
vt -2.163707 1.614653
vt -2.663707 1.614653
vt -2.216455 2.877279
vt 3.35737 2.881949
vt 3.357038 2.385043
vt -2.216457 2.380373
vt -14.5271 4.25
vt -15.0271 4.25
vt -15.0271 4.75
vt -14.5271 4.75
vt 15.02219 4.75
vt 14.52219 4.25
vt 14.52219 4.75
vt 15.02219 4.25
vt -3.410018 -14.59179
vt -4.000499 -14.09337
vt -3.410236 -14.09342
vt -4.000514 -14.59174
vt 4.000483 -14.52425
vt 4.000498 -15.02425
vt 3.410002 -15.0243
vt 3.410219 -14.5243
vt 2.663201 -14.59229
vt 2.163197 -14.59225
vt 2.163197 -14.09388
vt 2.663201 -14.09392
vt -2.663206 -14.52481
vt -2.163206 -14.52477
vt -2.663206 -15.02481
vt -2.163206 -15.02477
vt 3.378065 -13.95949
vt 3.377847 -14.4564
vt -2.195209 -13.96463
vt -2.195209 -14.46153
vt -2.113566 7
vt -1.613566 7
vt -2.113565 -11.43
vt -1.613565 -11.43
vt -3.999971 7
vt -3.40994 7
vt -3.99997 -11.43
vt -3.40994 -11.43
vt 3.41027 -11.43
vt 3.999836 -11.43
vt 1.616916 7
vt 2.116916 7
vt 1.616915 -11.43
vt 2.116916 -11.43
vt -2.663707 -11.43
vt -2.163707 -11.43
vt -2.114645 7
vt -1.614644 7
vt -2.114644 -11.43
vt -1.614644 -11.43
vt 1.614663 7
vt 2.114663 7
vt 1.614662 -11.43
vt 2.114662 -11.43
vt 2.163713 7
vt 2.663711 7
vt 2.163708 -11.43
vt 2.663708 -11.43
vt 14.52437 4.250001
vt 15.02437 4.250001
vt 14.52437 -11.43
vt 15.02437 -11.43
vt -3.99926 -11.43
vt -3.408764 -11.43
vt 3.409026 4.25
vt 3.99929 4.25
vt 3.409023 -11.43
vt 3.999286 -11.43
vt -15.02281 4.250001
vt -14.52281 4.250001
vt -15.02281 -11.43
vt -14.52281 -11.43
vt -2.664433 4.25
vt -2.164429 4.25
vt -2.664425 -11.43
vt -2.164425 -11.43
vt -15.02481 4.250001
vt -14.52481 4.250001
vt -15.02481 -11.43
vt -14.52481 -11.43
vt 14.52477 4.25
vt 15.02477 4.25
vt 14.52477 -11.43
vt 15.02477 -11.43
vt 2.164467 -11.43
vt 2.664467 -11.43
vt -3.419809 7
vt -3.419809 7.5
vt 3.415728 7.5
vt -1.616709 7
vt -1.616709 7.5
vt 3.415728 7
vt -3.409853 -2.801127
vt -3.999996 -2.801144
vt 3.947052 2.385537
vt 3.947056 -2.615758
vt 3.356929 -2.616236
vt 2.663694 -2.800868
vt 2.163687 -2.800881
vt -2.71644 2.379955
vt -2.716444 -2.621068
vt -2.216451 -2.620662
vt -3.419809 7
vt -9.799356 4.25
vt -9.799356 4.75
vt -3.419809 7.5
vt -9.799356 4.25
vt -14.5271 4.25
vt -14.5271 4.75
vt -9.799356 4.75
vt 9.648618 4.75
vt 3.415728 7
vt 3.415728 7.5
vt 9.648618 4.25
vt 14.52219 4.75
vt 9.648618 4.25
vt 9.648618 4.75
vt 14.52219 4.25
vt -3.409853 -2.801127
vt -3.481922 -9.292593
vt -3.999996 -2.801144
vt -4.066564 -9.235735
vt -3.481922 -9.292593
vt -4.066564 -9.235735
vt 3.947056 -2.615758
vt 4.034374 -9.115512
vt 3.449749 -9.172693
vt 3.356929 -2.616236
vt 4.034374 -9.115512
vt 3.968311 -13.95895
vt 3.449749 -9.172693
vt 2.582859 -9.381675
vt 2.087569 -9.333506
vt 2.663694 -2.800868
vt 2.582859 -9.381675
vt 2.163687 -2.800881
vt 2.087569 -9.333506
vt 2.163687 -2.800881
vt 2.087569 -9.333506
vt -3.409853 -2.801127
vt -3.481922 -9.292593
vt -2.119583 -9.218154
vt -2.614859 -9.266597
vt -2.695199 -13.96509
vt -2.216451 -2.620662
vt -2.119583 -9.218154
vt -2.614859 -9.266597
vt -2.716444 -2.621068
vt 3.356929 -2.616236
vt 3.449749 -9.172693
vt -2.119583 -9.218154
vt -2.216451 -2.620662
g submesh0
f 1/1/1 2/2/2 3/3/3
f 4/4/4 1/1/1 3/3/3
f 5/5/5 6/6/6 7/7/7
f 5/5/5 8/8/8 6/6/6
f 9/9/9 10/10/10 11/11/11
f 12/12/12 9/9/9 11/11/11
f 13/13/13 14/14/14 15/15/15
f 13/13/13 16/16/16 14/14/14
f 17/17/17 18/18/18 19/19/19
f 17/17/17 20/20/20 18/18/18
f 21/21/21 22/22/22 23/23/23
f 24/24/24 21/21/21 23/23/23
f 11/11/11 10/10/10 25/25/25
f 11/11/11 25/25/25 26/26/26
f 26/26/26 25/25/25 27/27/27
f 26/26/26 27/27/27 28/28/28
f 29/29/29 30/30/30 13/13/13
f 30/30/30 16/16/16 13/13/13
f 31/31/31 32/32/32 29/29/29
f 32/32/32 30/30/30 29/29/29
f 33/33/33 34/34/34 35/35/35
f 33/33/33 36/36/36 34/34/34
f 17/17/17 36/36/36 33/33/33
f 17/17/17 19/19/19 36/36/36
f 37/37/37 38/38/38 39/39/39
f 40/40/40 37/37/37 39/39/39
f 41/41/41 42/42/42 43/43/43
f 44/44/44 41/41/41 43/43/43
f 45/45/45 46/46/46 47/47/47
f 48/48/48 45/45/45 47/47/47
f 49/49/49 50/50/50 51/51/51
f 49/49/49 52/52/52 50/50/50
f 53/53/53 54/54/54 55/55/55
f 53/53/53 56/56/56 54/54/54
f 57/57/57 58/58/58 59/59/59
f 60/60/60 57/57/57 59/59/59
f 61/61/61 62/62/62 63/63/63
f 61/61/61 63/63/63 64/64/64
f 62/62/62 53/53/53 63/63/63
f 63/63/63 53/53/53 55/55/55
f 65/65/65 66/66/66 67/67/67
f 66/66/66 68/68/68 67/67/67
f 69/69/69 70/70/70 71/71/71
f 71/71/71 70/70/70 72/72/72
f 73/73/73 74/74/74 75/75/75
f 74/74/74 76/76/76 75/75/75
f 77/77/77 78/78/78 79/79/79
f 78/78/78 80/80/80 79/79/79
f 10/10/10 9/9/9 81/81/81
f 9/9/9 82/82/82 81/81/81
f 83/83/83 84/84/84 85/85/85
f 84/84/84 86/86/86 85/85/85
f 27/27/27 25/25/25 87/87/87
f 25/25/25 88/88/88 87/87/87
f 89/89/89 90/90/90 91/91/91
f 90/90/90 92/92/92 91/91/91
f 93/93/93 94/94/94 95/95/95
f 94/94/94 96/96/96 95/95/95
f 97/97/97 98/98/98 99/99/99
f 98/98/98 100/100/100 99/99/99
f 101/101/101 102/102/102 103/103/103
f 102/102/102 104/104/104 103/103/103
f 14/14/14 16/16/16 105/105/105
f 16/16/16 106/106/106 105/105/105
f 107/107/107 108/108/108 109/109/109
f 108/108/108 110/110/110 109/109/109
f 111/111/111 112/112/112 113/113/113
f 112/112/112 114/114/114 113/113/113
f 115/115/115 116/116/116 117/117/117
f 116/116/116 118/118/118 117/117/117
f 119/119/119 120/120/120 121/121/121
f 120/120/120 122/122/122 121/121/121
f 123/123/123 124/124/124 125/125/125
f 124/124/124 126/126/126 125/125/125
f 30/30/30 32/32/32 127/127/127
f 32/32/32 128/128/128 127/127/127
f 2/2/2 129/129/129 3/3/3
f 129/129/129 130/130/130 3/3/3
f 131/131/131 132/132/132 133/133/133
f 131/131/131 134/134/134 132/132/132
f 135/135/135 20/20/20 17/17/17
f 135/135/135 136/136/136 20/20/20
f 137/137/137 138/138/138 139/139/139
f 43/43/43 137/137/137 139/139/139
f 140/140/140 141/141/141 33/33/33
f 140/140/140 33/33/33 35/35/35
f 141/141/141 135/135/135 17/17/17
f 141/141/141 17/17/17 33/33/33
f 142/142/142 44/44/44 143/143/143
f 44/44/44 144/144/144 143/143/143
f 44/44/44 43/43/43 144/144/144
f 43/43/43 139/139/139 144/144/144
f 145/145/145 146/146/146 147/147/147
f 148/148/148 145/145/145 147/147/147
f 149/149/149 150/150/150 151/151/151
f 152/152/152 149/149/149 151/151/151
f 153/153/153 154/154/154 155/155/155
f 153/153/153 156/156/156 154/154/154
f 157/157/157 158/158/158 159/159/159
f 157/157/157 160/160/160 158/158/158
f 161/161/161 162/162/162 163/163/163
f 162/162/162 164/164/164 163/163/163
f 165/165/165 55/55/55 54/54/54
f 165/165/165 54/54/54 166/166/166
f 167/167/167 168/168/168 169/169/169
f 167/167/167 169/169/169 170/170/170
f 171/171/171 172/172/172 173/173/173
f 172/172/172 69/69/69 173/173/173
f 174/174/174 64/64/64 63/63/63
f 174/174/174 63/63/63 175/175/175
f 176/176/176 177/177/177 178/178/178
f 177/177/177 179/179/179 178/178/178
f 175/175/175 63/63/63 55/55/55
f 175/175/175 55/55/55 165/165/165
f 180/180/180 181/181/181 182/182/182
f 181/181/181 183/183/183 182/182/182
f 184/184/184 71/71/71 185/185/185
f 71/71/71 186/186/186 185/185/185
f 187/187/187 188/188/188 189/189/189
f 187/187/187 189/189/189 190/190/190
f 191/191/191 192/192/192 193/193/193
f 191/191/191 193/193/193 194/194/194
f 173/173/173 69/69/69 184/184/184
f 69/69/69 71/71/71 184/184/184
