v 0.7499996 -3 0.2499999
v 0.9999996 -3 0.2499998
v 0.7499996 11 0.2500019
v 0.9999996 11 0.2500008
v 0.9999996 -3 0.2499998
v 0.9999995 -3 -2.384186E-07
v 0.9999996 11 0.2500008
v 0.9999995 11 8.328581E-07
v 0.9999995 -3 -2.384186E-07
v 0.7499995 -3 -1.490116E-07
v 0.9999995 11 8.328581E-07
v 0.7499995 11 1.920642E-06
v -1 -3 4.768372E-07
v -1 -3 0.2500005
v -1 11 1.905738E-06
v -1 11 0.2500019
v 0.7499996 11 0.2500019
v 0.9999996 11 0.2500008
v 0.7499995 11 1.920642E-06
v 0.9999995 11 8.328581E-07
v 0.7499995 -3 -1.490116E-07
v 0.9999995 -3 -2.384186E-07
v 0.7499996 -3 0.2499999
v 0.9999996 -3 0.2499998
v -0.7500005 -3 3.874302E-07
v -0.7500004 -3 0.2500004
v -1 -3 4.768372E-07
v -1 -3 0.2500005
v -0.7500005 11 8.179538E-07
v -0.7500005 -3 3.874302E-07
v -1 11 1.905738E-06
v -1 -3 4.768372E-07
v -0.7500004 -3 0.2500004
v -0.7500004 11 0.2500008
v -1 -3 0.2500005
v -1 11 0.2500019
v -0.7500004 11 0.2500008
v -0.7500005 11 8.179538E-07
v -1 11 0.2500019
v -1 11 1.905738E-06
v 0.7499996 -3 0.2499999
v 0.7499996 11 0.2500019
v 0.7499995 -3 -1.490116E-07
v 0.7499995 11 1.920642E-06
v -0.7500004 11 0.2500008
v -0.7500004 -3 0.2500004
v -0.7500005 11 8.179538E-07
v -0.7500005 -3 3.874302E-07
v 0.7499996 -3 0.1249999
v 0.7499996 11 0.1250019
v -0.7500004 -3 0.1250004
v -0.7500004 11 0.1250008
vn 3.576279E-07 -1.468829E-07 1
vn 2.324581E-06 -1.117587E-07 1
vn 2.324581E-06 -1.117587E-07 1
vn 4.291534E-06 -7.663454E-08 1
vn 1 3.65422E-14 -4.768372E-07
vn 1 3.651483E-14 -4.768372E-07
vn 1 3.651483E-14 -4.768372E-07
vn 1 3.648747E-14 -4.768372E-07
vn -3.576279E-07 7.651977E-08 -1
vn -2.354383E-06 1.121761E-07 -1
vn -2.354383E-06 1.121761E-07 -1
vn -4.351137E-06 1.478324E-07 -1
vn -1 -4.866808E-14 4.768372E-07
vn -1 -4.86955E-14 4.768372E-07
vn -1 -4.86955E-14 4.768372E-07
vn -1 -4.872293E-14 4.768372E-07
vn 0 1 0
vn 0 1 0
vn 0 1 0
vn 0 1 0
vn 0 -1 0
vn 0 -1 0
vn 0 -1 0
vn 0 -1 0
vn 0 -1 0
vn 0 -1 0
vn 0 -1 0
vn 0 -1 0
vn -4.351137E-06 3.075169E-08 -1
vn -2.354383E-06 6.640802E-08 -1
vn -2.354383E-06 6.640802E-08 -1
vn -3.576279E-07 1.020644E-07 -1
vn 3.576279E-07 -2.980232E-08 1
vn 2.384186E-06 -6.599086E-08 1
vn 2.384186E-06 -6.599086E-08 1
vn 4.410744E-06 -1.021794E-07 1
vn 0 1 0
vn 0 1 0
vn 0 1 0
vn 0 1 0
vn -1 -7.003921E-14 4.768372E-07
vn -1 -7.029297E-14 4.768372E-07
vn -1 -7.029297E-14 4.768372E-07
vn -1 -7.054674E-14 4.768372E-07
vn 1 1.421086E-14 -4.768372E-07
vn 1 1.446462E-14 -4.768372E-07
vn 1 1.446462E-14 -4.768372E-07
vn 1 1.471838E-14 -4.768372E-07
vn 3.576279E-07 -1.479472E-07 1
vn -1.88748E-07 -8.940697E-08 1
vn -1.88748E-07 -8.940697E-08 1
vn -7.351239E-07 -3.086669E-08 1
vt -0.7499996 -3
vt -0.9999996 -3
vt -0.7499995 11
vt -0.9999995 11
vt -1.875 -3
vt -2.125 -3
vt -1.874999 11
vt -2.124999 11
vt 0.9999995 -3
vt 0.7499995 -3
vt 0.9999995 11
vt 0.7499995 11
vt 2.125 -3
vt 1.875 -3
vt 2.124999 11
vt 1.874999 11
vt 0.7499996 -1.874998
vt 0.9999996 -1.874999
vt 0.7499995 -2.124998
vt 0.9999995 -2.124999
vt -0.7499995 -2.125
vt -0.9999995 -2.125
vt -0.7499996 -1.875
vt -0.9999996 -1.875
vt 0.7500005 -2.125
vt 0.7500004 -1.875
vt 1 -2.125
vt 1 -1.875
vt -0.7500005 11
vt -0.7500005 -3
vt -1 11
vt -1 -3
vt 0.7500005 -3
vt 0.7500005 11
vt 1 -3
vt 1 11
vt -0.7500004 -1.874999
vt -0.7500005 -2.124999
vt -1 -1.874998
vt -1 -2.124998
vt 1.875 -3
vt 1.874998 11
vt 2.125 -3
vt 2.124998 11
vt -1.875 11
vt -1.875 -3
vt -2.125 11
vt -2.125 -3
vt -0.7499995 -3
vt -0.7499995 11
vt 0.7500005 -3
vt 0.7500005 11
g submesh0
f 1/1/1 2/2/2 3/3/3
f 2/2/2 4/4/4 3/3/3
f 5/5/5 6/6/6 7/7/7
f 6/6/6 8/8/8 7/7/7
f 9/9/9 10/10/10 11/11/11
f 10/10/10 12/12/12 11/11/11
f 13/13/13 14/14/14 15/15/15
f 14/14/14 16/16/16 15/15/15
f 17/17/17 18/18/18 19/19/19
f 18/18/18 20/20/20 19/19/19
f 21/21/21 22/22/22 23/23/23
f 22/22/22 24/24/24 23/23/23
f 25/25/25 26/26/26 27/27/27
f 26/26/26 28/28/28 27/27/27
f 29/29/29 30/30/30 31/31/31
f 30/30/30 32/32/32 31/31/31
f 33/33/33 34/34/34 35/35/35
f 34/34/34 36/36/36 35/35/35
f 37/37/37 38/38/38 39/39/39
f 38/38/38 40/40/40 39/39/39
f 41/41/41 42/42/42 43/43/43
f 42/42/42 44/44/44 43/43/43
f 45/45/45 46/46/46 47/47/47
f 46/46/46 48/48/48 47/47/47
g submesh1
f 49/49/49 50/50/50 51/51/51
f 50/50/50 52/52/52 51/51/51
