v 0.7499996 -3 0.2499999
v 0.9999996 -3 0.2499998
v 0.7500066 5 0.2499995
v 1.000007 5 0.2499993
v 0.9999996 -3 0.2499998
v 0.9999995 -3 -2.384186E-07
v 1.000007 5 0.2499993
v 1.000006 5 -7.154281E-07
v 0.9999995 -3 -2.384186E-07
v 0.7499995 -3 -1.490116E-07
v 1.000006 5 -7.154281E-07
v 0.7500064 5 -5.068132E-07
v -1 -3 4.768372E-07
v -1 -3 0.2500005
v -0.9999938 5 9.534911E-07
v -0.9999936 5 0.250001
v 0.7500066 5 0.2499995
v 1.000007 5 0.2499993
v 0.7500064 5 -5.068132E-07
v 1.000006 5 -7.154281E-07
v 0.7499995 -3 -1.490116E-07
v 0.9999995 -3 -2.384186E-07
v 0.7499996 -3 0.2499999
v 0.9999996 -3 0.2499998
v -0.7500005 -3 3.874302E-07
v -0.7500004 -3 0.2500004
v -1 -3 4.768372E-07
v -1 -3 0.2500005
v -0.7499938 5 7.448762E-07
v -0.7500005 -3 3.874302E-07
v -0.9999938 5 9.534911E-07
v -1 -3 4.768372E-07
v -0.7500004 -3 0.2500004
v -0.7499936 5 0.2500008
v -1 -3 0.2500005
v -0.9999936 5 0.250001
v -0.7499936 5 0.2500008
v -0.7499938 5 7.448762E-07
v -0.9999936 5 0.250001
v -0.9999938 5 9.534911E-07
v 0.7499996 -3 0.2499999
v 0.7500066 5 0.2499995
v 0.7499995 -3 -1.490116E-07
v 0.7500064 5 -5.068132E-07
v -0.7499936 5 0.2500008
v -0.7500004 -3 0.2500004
v -0.7499938 5 7.448762E-07
v -0.7500005 -3 3.874302E-07
v 0.7499996 -3 0.1249999
v 0.7500046 5 0.1249995
v -0.7500004 -3 0.1250004
v -0.7499956 5 0.1250008
vn 3.576279E-07 4.097788E-08 1
vn 5.960463E-07 4.842825E-08 1
vn 5.960463E-07 4.842825E-08 1
vn 8.344649E-07 5.587862E-08 1
vn 1 -8.791685E-07 -4.768372E-07
vn 1 -8.717179E-07 -7.152557E-07
vn 1 -8.717179E-07 -7.152557E-07
vn 1 -8.642674E-07 -9.536742E-07
vn -3.576279E-07 -5.962588E-08 -1
vn -5.960437E-07 -5.217517E-08 -1
vn -5.960437E-07 -5.217517E-08 -1
vn -8.344596E-07 -4.472448E-08 -1
vn -1 8.34465E-07 4.768372E-07
vn -1 8.381903E-07 5.960464E-07
vn -1 8.381903E-07 5.960464E-07
vn -1 8.419156E-07 7.152557E-07
vn 0 1 0
vn 0 1 0
vn 0 1 0
vn 0 1 0
vn 0 -1 0
vn 0 -1 0
vn 0 -1 0
vn 0 -1 0
vn 0 -1 0
vn 0 -1 0
vn 0 -1 0
vn 0 -1 0
vn -8.344596E-07 4.468144E-08 -1
vn -5.960437E-07 5.213174E-08 -1
vn -5.960437E-07 5.213174E-08 -1
vn -3.576279E-07 5.958204E-08 -1
vn 3.576279E-07 -4.842908E-08 1
vn 5.960463E-07 -5.587986E-08 1
vn 5.960463E-07 -5.587986E-08 1
vn 8.344649E-07 -6.333064E-08 1
vn 0 1 0
vn 0 1 0
vn 0 1 0
vn 0 1 0
vn -1 8.717179E-07 4.768372E-07
vn -1 8.679926E-07 5.960464E-07
vn -1 8.679926E-07 5.960464E-07
vn -1 8.642673E-07 7.152557E-07
vn 1 -8.493661E-07 -9.536742E-07
vn 1 -8.419156E-07 -7.152557E-07
vn 1 -8.419156E-07 -7.152557E-07
vn 1 -8.34465E-07 -4.768372E-07
vn 3.576279E-07 4.284061E-08 1
vn 5.960464E-07 -1.863008E-09 1
vn 5.960464E-07 -1.863008E-09 1
vn 8.344649E-07 -4.656663E-08 1
vt -0.7499996 -3
vt -0.9999996 -3
vt -0.7500066 5
vt -1.000007 5
vt -1.875 -2.999999
vt -2.125 -2.999999
vt -1.875 5.000001
vt -2.125 5.000001
vt 0.9999995 -3
vt 0.7499995 -3
vt 1.000006 5
vt 0.7500064 5
vt 2.125 -3.000001
vt 1.875 -3.000001
vt 2.125 4.999999
vt 1.875 4.999999
vt 0.7500066 -1.875
vt 1.000007 -1.875001
vt 0.7500064 -2.125
vt 1.000006 -2.125001
vt -0.7499995 -2.125
vt -0.9999995 -2.125
vt -0.7499996 -1.875
vt -0.9999996 -1.875
vt 0.7500005 -2.125
vt 0.7500004 -1.875
vt 1 -2.125
vt 1 -1.875
vt -0.7499938 5
vt -0.7500005 -3
vt -0.9999938 5
vt -1 -3
vt 0.7500005 -3
vt 0.7499937 5
vt 1 -3
vt 0.9999937 5
vt -0.7499936 -1.874999
vt -0.7499938 -2.124999
vt -0.9999936 -1.874999
vt -0.9999938 -2.124999
vt 1.875 -2.999999
vt 1.875 5
vt 2.125 -2.999999
vt 2.125 5
vt -1.875 5
vt -1.875 -3.000001
vt -2.125 5
vt -2.125 -3.000001
vt -0.7499995 -3
vt -0.7500045 5
vt 0.7500005 -3
vt 0.7499956 5
g submesh0
f 1/1/1 2/2/2 3/3/3
f 2/2/2 4/4/4 3/3/3
f 5/5/5 6/6/6 7/7/7
f 6/6/6 8/8/8 7/7/7
f 9/9/9 10/10/10 11/11/11
f 10/10/10 12/12/12 11/11/11
f 13/13/13 14/14/14 15/15/15
f 14/14/14 16/16/16 15/15/15
f 17/17/17 18/18/18 19/19/19
f 18/18/18 20/20/20 19/19/19
f 21/21/21 22/22/22 23/23/23
f 22/22/22 24/24/24 23/23/23
f 25/25/25 26/26/26 27/27/27
f 26/26/26 28/28/28 27/27/27
f 29/29/29 30/30/30 31/31/31
f 30/30/30 32/32/32 31/31/31
f 33/33/33 34/34/34 35/35/35
f 34/34/34 36/36/36 35/35/35
f 37/37/37 38/38/38 39/39/39
f 38/38/38 40/40/40 39/39/39
f 41/41/41 42/42/42 43/43/43
f 42/42/42 44/44/44 43/43/43
f 45/45/45 46/46/46 47/47/47
f 46/46/46 48/48/48 47/47/47
g submesh1
f 49/49/49 50/50/50 51/51/51
f 50/50/50 52/52/52 51/51/51
