v 0.7499996 -3 0.2499999
v 0.9999996 -3 0.2499998
v 0.7499993 6 0.2499974
v 0.9999994 6 0.2499985
v 0.9999996 -3 0.2499998
v 0.9999995 -3 -2.384186E-07
v 0.9999994 6 0.2499985
v 1.000001 6 -1.490111E-06
v 0.9999995 -3 -2.384186E-07
v 0.7499995 -3 -1.490116E-07
v 1.000001 6 -1.490111E-06
v 0.7500005 6 -2.637502E-06
v -1 -3 4.768372E-07
v -1 -3 0.2500005
v -0.9999997 6 -3.039842E-06
v -1.000001 6 0.249997
v 0.7499993 6 0.2499974
v 0.9999994 6 0.2499985
v 0.7500005 6 -2.637502E-06
v 1.000001 6 -1.490111E-06
v 0.7499995 -3 -1.490116E-07
v 0.9999995 -3 -2.384186E-07
v 0.7499996 -3 0.2499999
v 0.9999996 -3 0.2499998
v -0.7500005 -3 3.874302E-07
v -0.7500004 -3 0.2500004
v -1 -3 4.768372E-07
v -1 -3 0.2500005
v -0.7499997 6 -1.892451E-06
v -0.7500005 -3 3.874302E-07
v -0.9999997 6 -3.039842E-06
v -1 -3 4.768372E-07
v -0.7500004 -3 0.2500004
v -0.7500008 6 0.2499981
v -1 -3 0.2500005
v -1.000001 6 0.249997
v -0.7500008 6 0.2499981
v -0.7499997 6 -1.892451E-06
v -1.000001 6 0.249997
v -0.9999997 6 -3.039842E-06
v 0.7499996 -3 0.2499999
v 0.7499993 6 0.2499974
v 0.7499995 -3 -1.490116E-07
v 0.7500005 6 -2.637502E-06
v -0.7500008 6 0.2499981
v -0.7500004 -3 0.2500004
v -0.7499997 6 -1.892451E-06
v -0.7500005 -3 3.874302E-07
v 0.7499996 -3 0.1249999
v 0.7500018 6 0.1249974
v -0.7500004 -3 0.1250004
v -0.7500002 6 0.1249981
vn 3.576279E-07 2.73188E-07 1
vn -2.115964E-06 2.04477E-07 1
vn -2.115964E-06 2.04477E-07 1
vn -4.589557E-06 1.35766E-07 1
vn 1 2.649089E-08 -4.768372E-07
vn 1 -4.635887E-08 2.145767E-06
vn 1 -4.635887E-08 2.145767E-06
vn 1 -1.192086E-07 4.768371E-06
vn -3.576279E-07 -1.390769E-07 -1
vn 2.115967E-06 -2.077882E-07 -1
vn 2.115967E-06 -2.077882E-07 -1
vn 4.589562E-06 -2.764994E-07 -1
vn -1 8.609579E-08 4.768372E-07
vn -1 1.655606E-08 -2.026558E-06
vn -1 1.655606E-08 -2.026558E-06
vn -1 -5.298366E-08 -4.529953E-06
vn 0 1 0
vn 0 1 0
vn 0 1 0
vn 0 1 0
vn 0 -1 0
vn 0 -1 0
vn 0 -1 0
vn 0 -1 0
vn 0 -1 0
vn 0 -1 0
vn 0 -1 0
vn 0 -1 0
vn 4.589563E-06 -2.533205E-07 -1
vn 2.115968E-06 -3.220313E-07 -1
vn 2.115968E-06 -3.220313E-07 -1
vn -3.576279E-07 -3.907421E-07 -1
vn 3.576279E-07 2.500084E-07 1
vn -2.115965E-06 3.187192E-07 1
vn -2.115965E-06 3.187192E-07 1
vn -4.589558E-06 3.874299E-07 1
vn 0 1 0
vn 0 1 0
vn 0 1 0
vn 0 1 0
vn -1 -3.311356E-08 4.768372E-07
vn -1 3.973584E-08 -2.145767E-06
vn -1 3.973584E-08 -2.145767E-06
vn -1 1.125852E-07 -4.768371E-06
vn 1 5.298304E-08 4.529953E-06
vn 1 -1.655634E-08 2.026558E-06
vn 1 -1.655634E-08 2.026558E-06
vn 1 -8.609572E-08 -4.768372E-07
vn 3.576279E-07 2.748436E-07 1
vn 4.271663E-07 2.632538E-07 1
vn 4.271663E-07 2.632538E-07 1
vn 4.967047E-07 2.516641E-07 1
vt -0.7499996 -3
vt -0.9999996 -3
vt -0.7499993 6
vt -0.9999993 6
vt -1.875 -3
vt -2.125 -3
vt -1.875001 6
vt -2.125001 6
vt 0.9999995 -3
vt 0.7499995 -3
vt 1.000001 6
vt 0.7500005 6
vt 2.125 -3
vt 1.875 -3
vt 2.125004 6
vt 1.875003 6
vt 0.7499993 -1.875003
vt 0.9999994 -1.875001
vt 0.7500005 -2.125003
vt 1.000001 -2.125001
vt -0.7499995 -2.125
vt -0.9999995 -2.125
vt -0.7499996 -1.875
vt -0.9999996 -1.875
vt 0.7500005 -2.125
vt 0.7500004 -1.875
vt 1 -2.125
vt 1 -1.875
vt -0.7499997 6
vt -0.7500005 -3
vt -0.9999997 6
vt -1 -3
vt 0.7500005 -3
vt 0.7500009 6
vt 1 -3
vt 1.000001 6
vt -0.7500008 -1.875002
vt -0.7499997 -2.125002
vt -1.000001 -1.875003
vt -0.9999997 -2.125003
vt 1.875 -3
vt 1.875002 6
vt 2.125 -3
vt 2.125002 6
vt -1.874998 6
vt -1.874996 -3
vt -2.124999 6
vt -2.124996 -3
vt -0.7499995 -3
vt -0.7500018 6
vt 0.7500005 -3
vt 0.7500003 6
g submesh0
f 1/1/1 2/2/2 3/3/3
f 2/2/2 4/4/4 3/3/3
f 5/5/5 6/6/6 7/7/7
f 6/6/6 8/8/8 7/7/7
f 9/9/9 10/10/10 11/11/11
f 10/10/10 12/12/12 11/11/11
f 13/13/13 14/14/14 15/15/15
f 14/14/14 16/16/16 15/15/15
f 17/17/17 18/18/18 19/19/19
f 18/18/18 20/20/20 19/19/19
f 21/21/21 22/22/22 23/23/23
f 22/22/22 24/24/24 23/23/23
f 25/25/25 26/26/26 27/27/27
f 26/26/26 28/28/28 27/27/27
f 29/29/29 30/30/30 31/31/31
f 30/30/30 32/32/32 31/31/31
f 33/33/33 34/34/34 35/35/35
f 34/34/34 36/36/36 35/35/35
f 37/37/37 38/38/38 39/39/39
f 38/38/38 40/40/40 39/39/39
f 41/41/41 42/42/42 43/43/43
f 42/42/42 44/44/44 43/43/43
f 45/45/45 46/46/46 47/47/47
f 46/46/46 48/48/48 47/47/47
g submesh1
f 49/49/49 50/50/50 51/51/51
f 50/50/50 52/52/52 51/51/51
