v 0.7499996 -3 0.2499999
v 0.9999996 -3 0.2499998
v 0.7499993 5 0.25
v 0.9999994 5 0.2499997
v 0.9999996 -3 0.2499998
v 0.9999995 -3 -2.384186E-07
v 0.9999994 5 0.2499997
v 1.000001 5 -3.98454E-07
v 0.9999995 -3 -2.384186E-07
v 0.7499995 -3 -1.490116E-07
v 1.000001 5 -3.98454E-07
v 0.7500014 5 -5.569703E-08
v -1 -3 4.768372E-07
v -1 -3 0.2500005
v -0.9999991 5 4.362535E-07
v -1.000001 5 0.2500005
v 0.7499993 5 0.25
v 0.9999994 5 0.2499997
v 0.7500014 5 -5.569703E-08
v 1.000001 5 -3.98454E-07
v 0.7499995 -3 -1.490116E-07
v 0.9999995 -3 -2.384186E-07
v 0.7499996 -3 0.2499999
v 0.9999996 -3 0.2499998
v -0.7500005 -3 3.874302E-07
v -0.7500004 -3 0.2500004
v -1 -3 4.768372E-07
v -1 -3 0.2500005
v -0.749999 5 3.319151E-07
v -0.7500005 -3 3.874302E-07
v -0.9999991 5 4.362535E-07
v -1 -3 4.768372E-07
v -0.7500004 -3 0.2500004
v -0.7500011 5 0.2500007
v -1 -3 0.2500005
v -1.000001 5 0.2500005
v -0.7500011 5 0.2500007
v -0.749999 5 3.319151E-07
v -1.000001 5 0.2500005
v -0.9999991 5 4.362535E-07
v 0.7499996 -3 0.2499999
v 0.7499993 5 0.25
v 0.7499995 -3 -1.490116E-07
v 0.7500014 5 -5.569703E-08
v -0.7500011 5 0.2500007
v -0.7500004 -3 0.2500004
v -0.749999 5 3.319151E-07
v -0.7500005 -3 3.874302E-07
v 0.7499996 -3 0.1249999
v 0.7500023 5 0.125
v -0.7500004 -3 0.1250004
v -0.7499982 5 0.1250006
vn 3.576279E-07 -2.235173E-08 1
vn 8.940695E-07 -5.587907E-09 1
vn 8.940695E-07 -5.587907E-09 1
vn 1.430511E-06 1.117591E-08 1
vn 1 2.980232E-08 -4.768372E-07
vn 1 -1.043081E-07 3.814696E-06
vn 1 -1.043081E-07 3.814696E-06
vn 1 -2.384184E-07 8.10623E-06
vn -3.576279E-07 -2.000434E-08 -1
vn -8.643277E-07 -4.169852E-09 -1
vn -8.643277E-07 -4.169852E-09 -1
vn -1.371028E-06 1.166464E-08 -1
vn -1 1.713634E-07 4.768372E-07
vn -1 3.352763E-08 -3.933906E-06
vn -1 3.352763E-08 -3.933906E-06
vn -1 -1.043081E-07 -8.344648E-06
vn 0 1 0
vn 0 1 0
vn 0 1 0
vn 0 1 0
vn 0 -1 0
vn 0 -1 0
vn 0 -1 0
vn 0 -1 0
vn 0 -1 0
vn 0 -1 0
vn 0 -1 0
vn 0 -1 0
vn -4.173536E-07 -6.939313E-09 -1
vn -3.874907E-07 -6.006104E-09 -1
vn -3.874907E-07 -6.006104E-09 -1
vn -3.576279E-07 -5.072894E-09 -1
vn 3.576279E-07 -3.352758E-08 1
vn -1.192091E-07 -1.862647E-08 1
vn -1.192091E-07 -1.862647E-08 1
vn -5.960462E-07 -3.725352E-09 1
vn 0 1 0
vn 0 1 0
vn 0 1 0
vn 0 1 0
vn -1 -3.725291E-08 4.768372E-07
vn -1 9.685758E-08 -3.814696E-06
vn -1 9.685758E-08 -3.814696E-06
vn -1 2.309681E-07 -8.106229E-06
vn 1 8.94067E-08 8.106221E-06
vn 1 -4.470362E-08 3.814692E-06
vn 1 -4.470362E-08 3.814692E-06
vn 1 -1.788139E-07 -4.768372E-07
vn 3.576279E-07 -1.58326E-08 1
vn 3.899137E-07 -2.18862E-08 1
vn 3.899137E-07 -2.18862E-08 1
vn 4.221994E-07 -2.793979E-08 1
vt -0.7499996 -3
vt -0.9999996 -3
vt -0.7499992 5
vt -0.9999993 5
vt -1.875 -3
vt -2.125 -3
vt -1.875 5
vt -2.125 5
vt 0.9999995 -3
vt 0.7499995 -3
vt 1.000001 5
vt 0.7500014 5
vt 2.125 -3
vt 1.875 -3
vt 2.125 5
vt 1.875 5
vt 0.7499993 -1.875
vt 0.9999994 -1.875
vt 0.7500014 -2.125
vt 1.000001 -2.125
vt -0.7499995 -2.125
vt -0.9999995 -2.125
vt -0.7499996 -1.875
vt -0.9999996 -1.875
vt 0.7500005 -2.125
vt 0.7500004 -1.875
vt 1 -2.125
vt 1 -1.875
vt -0.749999 5
vt -0.7500005 -3
vt -0.9999991 5
vt -1 -3
vt 0.7500005 -3
vt 0.7500012 5
vt 1 -3
vt 1.000001 5
vt -0.7500011 -1.874999
vt -0.749999 -2.125
vt -1.000001 -1.875
vt -0.9999991 -2.125
vt 1.875 -3
vt 1.875 5
vt 2.125 -3
vt 2.125 5
vt -1.874993 5
vt -1.874994 -3
vt -2.124994 5
vt -2.124994 -3
vt -0.7499995 -3
vt -0.7500022 5
vt 0.7500005 -3
vt 0.7499982 5
g submesh0
f 1/1/1 2/2/2 3/3/3
f 2/2/2 4/4/4 3/3/3
f 5/5/5 6/6/6 7/7/7
f 6/6/6 8/8/8 7/7/7
f 9/9/9 10/10/10 11/11/11
f 10/10/10 12/12/12 11/11/11
f 13/13/13 14/14/14 15/15/15
f 14/14/14 16/16/16 15/15/15
f 17/17/17 18/18/18 19/19/19
f 18/18/18 20/20/20 19/19/19
f 21/21/21 22/22/22 23/23/23
f 22/22/22 24/24/24 23/23/23
f 25/25/25 26/26/26 27/27/27
f 26/26/26 28/28/28 27/27/27
f 29/29/29 30/30/30 31/31/31
f 30/30/30 32/32/32 31/31/31
f 33/33/33 34/34/34 35/35/35
f 34/34/34 36/36/36 35/35/35
f 37/37/37 38/38/38 39/39/39
f 38/38/38 40/40/40 39/39/39
f 41/41/41 42/42/42 43/43/43
f 42/42/42 44/44/44 43/43/43
f 45/45/45 46/46/46 47/47/47
f 46/46/46 48/48/48 47/47/47
g submesh1
f 49/49/49 50/50/50 51/51/51
f 50/50/50 52/52/52 51/51/51
