v 0.7499996 -3 0.2499999
v 0.9999996 -3 0.2499998
v 0.75 2 0.2499992
v 1 2 0.2500002
v 0.9999996 -3 0.2499998
v 0.9999995 -3 -2.384186E-07
v 1 2 0.2500002
v 1 2 2.384186E-07
v 0.9999995 -3 -2.384186E-07
v 0.7499995 -3 -1.490116E-07
v 1 2 2.384186E-07
v 0.7500001 2 -7.748604E-07
v -1 -3 4.768372E-07
v -1 -3 0.2500005
v -0.9999999 2 -2.384186E-07
v -1.000001 2 0.2499998
v 0.75 2 0.2499992
v 1 2 0.2500002
v 0.7500001 2 -7.748604E-07
v 1 2 2.384186E-07
v 0.7499995 -3 -1.490116E-07
v 0.9999995 -3 -2.384186E-07
v 0.7499996 -3 0.2499999
v 0.9999996 -3 0.2499998
v -0.7500005 -3 3.874302E-07
v -0.7500004 -3 0.2500004
v -1 -3 4.768372E-07
v -1 -3 0.2500005
v -0.7499999 2 7.748604E-07
v -0.7500005 -3 3.874302E-07
v -0.9999999 2 -2.384186E-07
v -1 -3 4.768372E-07
v -0.7500004 -3 0.2500004
v -0.750001 2 0.2500008
v -1 -3 0.2500005
v -1.000001 2 0.2499998
v -0.750001 2 0.2500008
v -0.7499999 2 7.748604E-07
v -1.000001 2 0.2499998
v -0.9999999 2 -2.384186E-07
v 0.7499996 -3 0.2499999
v 0.75 2 0.2499992
v 0.7499995 -3 -1.490116E-07
v 0.7500001 2 -7.748604E-07
v -0.750001 2 0.2500008
v -0.7500004 -3 0.2500004
v -0.7499999 2 7.748604E-07
v -0.7500005 -3 3.874302E-07
v 0.7499996 -3 0.1249999
v 0.7499995 2 0.1249992
v -0.7500004 -3 0.1250004
v -0.7499995 2 0.1250008
vn 3.576279E-07 1.251697E-07 1
vn -1.847744E-06 1.49013E-08 1
vn -1.847744E-06 1.49013E-08 1
vn -4.053116E-06 -9.536714E-08 1
vn 1 -7.152553E-08 -4.768372E-07
vn 1 -8.344648E-08 -2.384186E-07
vn 1 -8.344648E-08 -2.384186E-07
vn 1 -9.536743E-08 0
vn -3.576279E-07 9.536747E-08 -1
vn 1.847744E-06 -1.490136E-08 -1
vn 1.847744E-06 -1.490136E-08 -1
vn 4.053117E-06 -1.251702E-07 -1
vn -1 1.072884E-07 4.768372E-07
vn -1 -5.960722E-09 -1.788139E-06
vn -1 -5.960722E-09 -1.788139E-06
vn -1 -1.192099E-07 -4.053116E-06
vn 0 1 0
vn 0 1 0
vn 0 1 0
vn 0 1 0
vn 0 -1 0
vn 0 -1 0
vn 0 -1 0
vn 0 -1 0
vn 0 -1 0
vn 0 -1 0
vn 0 -1 0
vn 0 -1 0
vn 4.053116E-06 7.748561E-08 -1
vn 1.847744E-06 -3.278275E-08 -1
vn 1.847744E-06 -3.278275E-08 -1
vn -3.576279E-07 -1.430511E-07 -1
vn 3.576279E-07 -7.748599E-08 1
vn -1.847744E-06 3.278234E-08 1
vn -1.847744E-06 3.278234E-08 1
vn -4.053116E-06 1.430507E-07 1
vn 0 1 0
vn 0 1 0
vn 0 1 0
vn 0 1 0
vn -1 7.152563E-08 4.768372E-07
vn -1 8.940698E-08 1.192093E-07
vn -1 8.940698E-08 1.192093E-07
vn -1 1.072883E-07 -2.384186E-07
vn 1 1.19209E-07 4.053116E-06
vn 1 5.96032E-09 1.788139E-06
vn 1 5.96032E-09 1.788139E-06
vn 1 -1.072883E-07 -4.768372E-07
vn 3.576279E-07 1.251698E-07 1
vn 6.953878E-07 2.384176E-08 1
vn 6.953878E-07 2.384176E-08 1
vn 1.033148E-06 -7.748624E-08 1
vt -0.7499996 -3
vt -0.9999996 -3
vt -0.7499999 2
vt -0.9999999 2
vt -1.875 -3
vt -2.125 -3
vt -1.874999 2
vt -2.124999 2
vt 0.9999995 -3
vt 0.7499995 -3
vt 1 2
vt 0.7500001 2
vt 2.125 -3
vt 1.875 -3
vt 2.125001 2
vt 1.875001 2
vt 0.75 -1.875001
vt 1 -1.875
vt 0.7500001 -2.125001
vt 1 -2.125
vt -0.7499995 -2.125
vt -0.9999995 -2.125
vt -0.7499996 -1.875
vt -0.9999996 -1.875
vt 0.7500005 -2.125
vt 0.7500004 -1.875
vt 1 -2.125
vt 1 -1.875
vt -0.7499999 2
vt -0.7500005 -3
vt -0.9999999 2
vt -1 -3
vt 0.7500005 -3
vt 0.7500011 2
vt 1 -3
vt 1.000001 2
vt -0.750001 -1.874999
vt -0.7499999 -2.124999
vt -1.000001 -1.875
vt -0.9999999 -2.125
vt 1.875 -3
vt 1.875 2
vt 2.125 -3
vt 2.125 2
vt -1.874996 2
vt -1.874997 -3
vt -2.124996 2
vt -2.124997 -3
vt -0.7499995 -3
vt -0.7499995 2
vt 0.7500005 -3
vt 0.7499996 2
g submesh0
f 1/1/1 2/2/2 3/3/3
f 2/2/2 4/4/4 3/3/3
f 5/5/5 6/6/6 7/7/7
f 6/6/6 8/8/8 7/7/7
f 9/9/9 10/10/10 11/11/11
f 10/10/10 12/12/12 11/11/11
f 13/13/13 14/14/14 15/15/15
f 14/14/14 16/16/16 15/15/15
f 17/17/17 18/18/18 19/19/19
f 18/18/18 20/20/20 19/19/19
f 21/21/21 22/22/22 23/23/23
f 22/22/22 24/24/24 23/23/23
f 25/25/25 26/26/26 27/27/27
f 26/26/26 28/28/28 27/27/27
f 29/29/29 30/30/30 31/31/31
f 30/30/30 32/32/32 31/31/31
f 33/33/33 34/34/34 35/35/35
f 34/34/34 36/36/36 35/35/35
f 37/37/37 38/38/38 39/39/39
f 38/38/38 40/40/40 39/39/39
f 41/41/41 42/42/42 43/43/43
f 42/42/42 44/44/44 43/43/43
f 45/45/45 46/46/46 47/47/47
f 46/46/46 48/48/48 47/47/47
g submesh1
f 49/49/49 50/50/50 51/51/51
f 50/50/50 52/52/52 51/51/51
