v 0.7499996 -3 0.2499999
v 0.9999996 -3 0.2499998
v 0.7499999 9 0.2499992
v 0.9999999 9 0.249999
v 0.9999996 -3 0.2499998
v 0.9999995 -3 -2.384186E-07
v 0.9999999 9 0.249999
v 0.9999997 9 -9.534415E-07
v 0.9999995 -3 -2.384186E-07
v 0.7499995 -3 -1.490116E-07
v 0.9999997 9 -9.534415E-07
v 0.7499997 9 -8.193347E-07
v -1 -3 4.768372E-07
v -1 -3 0.2500005
v -1 9 1.19413E-07
v -1 9 0.2500001
v 0.7499999 9 0.2499992
v 0.9999999 9 0.249999
v 0.7499997 9 -8.193347E-07
v 0.9999997 9 -9.534415E-07
v 0.7499995 -3 -1.490116E-07
v 0.9999995 -3 -2.384186E-07
v 0.7499996 -3 0.2499999
v 0.9999996 -3 0.2499998
v -0.7500005 -3 3.874302E-07
v -0.7500004 -3 0.2500004
v -1 -3 4.768372E-07
v -1 -3 0.2500005
v -0.7500003 9 -1.46938E-08
v -0.7500005 -3 3.874302E-07
v -1 9 1.19413E-07
v -1 -3 4.768372E-07
v -0.7500004 -3 0.2500004
v -0.7500002 9 0.25
v -1 -3 0.2500005
v -1 9 0.2500001
v -0.7500002 9 0.25
v -0.7500003 9 -1.46938E-08
v -1 9 0.2500001
v -1 9 1.19413E-07
v 0.7499996 -3 0.2499999
v 0.7499999 9 0.2499992
v 0.7499995 -3 -1.490116E-07
v 0.7499997 9 -8.193347E-07
v -0.7500002 9 0.25
v -0.7500004 -3 0.2500004
v -0.7500003 9 -1.46938E-08
v -0.7500005 -3 3.874302E-07
v 0.7499996 -3 0.1249999
v 0.7499989 9 0.1249992
v -0.7500004 -3 0.1250004
v -0.7500012 9 0.125
vn 3.576279E-07 5.587934E-08 1
vn 4.470348E-07 5.774199E-08 1
vn 4.470348E-07 5.774199E-08 1
vn 5.364418E-07 5.960463E-08 1
vn 1 -1.986824E-08 -4.768372E-07
vn 1 -1.738472E-08 -5.960464E-07
vn 1 -1.738472E-08 -5.960464E-07
vn 1 -1.49012E-08 -7.152557E-07
vn -3.576279E-07 -5.958524E-08 -1
vn -4.470276E-07 -5.772274E-08 -1
vn -4.470276E-07 -5.772274E-08 -1
vn -5.364273E-07 -5.586024E-08 -1
vn -1 1.986823E-08 4.768372E-07
vn -1 1.986823E-08 4.768372E-07
vn -1 1.986823E-08 4.768372E-07
vn -1 1.986823E-08 4.768372E-07
vn 0 1 0
vn 0 1 0
vn 0 1 0
vn 0 1 0
vn 0 -1 0
vn 0 -1 0
vn 0 -1 0
vn 0 -1 0
vn 0 -1 0
vn 0 -1 0
vn 0 -1 0
vn 0 -1 0
vn -5.364274E-07 -3.351033E-08 -1
vn -4.470276E-07 -3.164783E-08 -1
vn -4.470276E-07 -3.164783E-08 -1
vn -3.576279E-07 -2.978534E-08 -1
vn 3.576279E-07 3.352761E-08 1
vn 4.470349E-07 3.166496E-08 1
vn 4.470349E-07 3.166496E-08 1
vn 5.364419E-07 2.980231E-08 1
vn 0 1 0
vn 0 1 0
vn 0 1 0
vn 0 1 0
vn -1 1.986824E-08 4.768372E-07
vn -1 1.738472E-08 5.960464E-07
vn -1 1.738472E-08 5.960464E-07
vn -1 1.49012E-08 7.152557E-07
vn 1 -1.490118E-08 -4.768372E-07
vn 1 -1.490118E-08 -4.768372E-07
vn 1 -1.490118E-08 -4.768372E-07
vn 1 -1.490118E-08 -4.768372E-07
vn 3.576279E-07 5.587937E-08 1
vn 4.470348E-07 4.470351E-08 1
vn 4.470348E-07 4.470351E-08 1
vn 5.364418E-07 3.352764E-08 1
vt -0.7499996 -3
vt -0.9999996 -3
vt -0.7499998 9
vt -0.9999998 9
vt -1.875 -3
vt -2.125 -3
vt -1.875 9
vt -2.125 9
vt 0.9999995 -3
vt 0.7499995 -3
vt 0.9999997 9
vt 0.7499997 9
vt 2.125 -3
vt 1.875 -3
vt 2.125 9
vt 1.875 9
vt 0.7499999 -1.875001
vt 0.9999999 -1.875001
vt 0.7499997 -2.125001
vt 0.9999997 -2.125001
vt -0.7499995 -2.125
vt -0.9999995 -2.125
vt -0.7499996 -1.875
vt -0.9999996 -1.875
vt 0.7500005 -2.125
vt 0.7500004 -1.875
vt 1 -2.125
vt 1 -1.875
vt -0.7500003 9
vt -0.7500005 -3
vt -1 9
vt -1 -3
vt 0.7500005 -3
vt 0.7500002 9
vt 1 -3
vt 1 9
vt -0.7500002 -1.875
vt -0.7500003 -2.125
vt -1 -1.875
vt -1 -2.125
vt 1.875 -3
vt 1.875 9
vt 2.125 -3
vt 2.125 9
vt -1.875 9
vt -1.875 -3
vt -2.125 9
vt -2.125 -3
vt -0.7499995 -3
vt -0.7499988 9
vt 0.7500005 -3
vt 0.7500013 9
g submesh0
f 1/1/1 2/2/2 3/3/3
f 2/2/2 4/4/4 3/3/3
f 5/5/5 6/6/6 7/7/7
f 6/6/6 8/8/8 7/7/7
f 9/9/9 10/10/10 11/11/11
f 10/10/10 12/12/12 11/11/11
f 13/13/13 14/14/14 15/15/15
f 14/14/14 16/16/16 15/15/15
f 17/17/17 18/18/18 19/19/19
f 18/18/18 20/20/20 19/19/19
f 21/21/21 22/22/22 23/23/23
f 22/22/22 24/24/24 23/23/23
f 25/25/25 26/26/26 27/27/27
f 26/26/26 28/28/28 27/27/27
f 29/29/29 30/30/30 31/31/31
f 30/30/30 32/32/32 31/31/31
f 33/33/33 34/34/34 35/35/35
f 34/34/34 36/36/36 35/35/35
f 37/37/37 38/38/38 39/39/39
f 38/38/38 40/40/40 39/39/39
f 41/41/41 42/42/42 43/43/43
f 42/42/42 44/44/44 43/43/43
f 45/45/45 46/46/46 47/47/47
f 46/46/46 48/48/48 47/47/47
g submesh1
f 49/49/49 50/50/50 51/51/51
f 50/50/50 52/52/52 51/51/51
