v -6 0 0
v 1 0 0
v -6 0 8
v 1 0 8
v -6 0 8
v 1 0 8
v 1 8 8
v -6 8 8
v 1 24 8
v -6 24 8
v 1 0 8
v 1 0 0
v 1 8 0
v 1 8 8
v 1 24 0
v 1 24 8
v 1 8 0
v -6 0 0
v -6 8 0
v 1 0 0
v 1 24 0
v -6 24 0
v -6 24 0
v -6 8 8
v -6 24 8
v -6 8 0
v -10 0 8
v -10 8 8
v -10 8 0
v -10 0 0
v -10 0 0
v -10 0 8
v -21 0 8
v -21 0 0
v -21 0 0
v -21 0 8
v -6 24 8
v 1 24 8
v -6 24 0
v 1 24 0
v -6 8 8
v -6 8 0
v -10 8 8
v -10 8 0
v -10 8 8
v -10 8 0
v -21 0 8
v -21 0 0
vn 0 -1 0
vn 0 -1 0
vn 0 -1 0
vn 0 -1 0
vn 0 0 1
vn 0 0 1
vn 0 0 1
vn 0 0 1
vn 0 0 1
vn 0 0 1
vn 1 0 0
vn 1 0 0
vn 1 0 0
vn 1 0 0
vn 1 0 0
vn 1 0 0
vn 0 0 -1
vn 0 0 -1
vn 0 0 -1
vn 0 0 -1
vn 0 0 -1
vn 0 0 -1
vn -1 0 0
vn -1 0 0
vn -1 0 0
vn -1 0 0
vn 0 0 1
vn 0 0 1
vn 0 0 -1
vn 0 0 -1
vn 0 -1 0
vn 0 -1 0
vn 0 0 1
vn 0 0 -1
vn 0 -1 0
vn 0 -1 0
vn 0 1 0
vn 0 1 0
vn 0 1 0
vn 0 1 0
vn 0 1 0
vn 0 1 0
vn 0 1 0
vn 0 1 0
vn -0.5881717 0.8087361 0
vn -0.5881717 0.8087361 0
vn -0.5881717 0.8087361 0
vn -0.5881717 0.8087361 0
vt 6 0
vt -1 0
vt 6 8
vt -1 8
vt 6 0
vt -1 0
vt -1 8
vt 6 8
vt -1 24
vt 6 24
vt 8 0
vt 0 0
vt 0 8
vt 8 8
vt 0 24
vt 8 24
vt 1 8
vt -6 0
vt -6 8
vt 1 0
vt 1 24
vt -6 24
vt 0 24
vt -8 8
vt -8 24
vt 0 8
vt 10 0
vt 10 8
vt -10 8
vt -10 0
vt 10 0
vt 10 8
vt 21 0
vt -21 0
vt 21 0
vt 21 8
vt -6 8
vt 1 8
vt -6 0
vt 1 0
vt -6 8
vt -6 0
vt -10 8
vt -10 0
vt -3.381988 8
vt -3.381988 0
vt -16.98346 8
vt -16.98346 0
g submesh0
f 1/1/1 2/2/2 3/3/3
f 2/2/2 4/4/4 3/3/3
f 5/5/5 6/6/6 7/7/7
f 8/8/8 5/5/5 7/7/7
f 8/8/8 7/7/7 9/9/9
f 10/10/10 8/8/8 9/9/9
f 11/11/11 12/12/12 13/13/13
f 14/14/14 11/11/11 13/13/13
f 14/14/14 13/13/13 15/15/15
f 16/16/16 14/14/14 15/15/15
f 17/17/17 18/18/18 19/19/19
f 17/17/17 20/20/20 18/18/18
f 21/21/21 19/19/19 22/22/22
f 21/21/21 17/17/17 19/19/19
f 23/23/23 24/24/24 25/25/25
f 23/23/23 26/26/26 24/24/24
f 5/5/5 8/8/8 27/27/27
f 8/8/8 28/28/28 27/27/27
f 19/19/19 18/18/18 29/29/29
f 18/18/18 30/30/30 29/29/29
f 1/1/1 3/3/3 31/31/31
f 3/3/3 32/32/32 31/31/31
f 27/27/27 28/28/28 33/33/33
f 29/29/29 30/30/30 34/34/34
f 31/31/31 32/32/32 35/35/35
f 32/32/32 36/36/36 35/35/35
g submesh1
f 37/37/37 38/38/38 39/39/39
f 38/38/38 40/40/40 39/39/39
f 41/41/41 42/42/42 43/43/43
f 42/42/42 44/44/44 43/43/43
f 45/45/45 46/46/46 47/47/47
f 46/46/46 48/48/48 47/47/47
