v 0 -2 3
v 11 -2 3
v 11 0 3
v 0 0 3
v 0 4 0
v 11 4 0
v 11 12 0
v 0 12 0
v 11 4 -8
v 0 -2 -8
v 0 4 -8
v 11 -2 -8
v 11 12 -8
v 0 12 -8
v 0 -2 0
v 11 -2 0
v 0 -2 3
v 11 -2 3
v 11 -2 0
v 11 4 0
v 11 -2 3
v 11 0 3
v 0 4 0
v 0 -2 0
v 0 0 3
v 0 -2 3
v 11 4 0
v 0 4 0
v 11 0 3
v 0 0 3
v 0 -2 -4
v 11 -2 -8
v 11 -2 -4
v 0 -2 -8
v 11 -2 -4
v 11 4 -4
v 16 -2 -4
v 16 -2 -8
v 16 4 -8
v 16 4 -4
v 11 12 -4
v 11 12 0
v 16 12 -8
v 16 12 -4
v 0 4 -4
v 0 -2 -4
v 0 4 -8
v 0 -2 -8
v 0 12 -4
v 0 12 0
v 0 12 -8
v 11 12 -4
v 11 4 -4
v 16 12 -4
v 16 4 -4
v 11 -2 -4
v 16 -2 -4
v 11 12 -4
v 0 12 -4
v 0 12 0
v 11 12 0
v 11 12 -8
v 0 12 -8
v 11 4 -8
v 11 12 -8
v 16 4 -8
v 16 12 -8
v 16 12 -8
v 16 12 -4
v 11 -2 -4
v 11 -2 -8
v 16 -2 -4
v 16 -2 -8
v 11 -2 -8
v 16 -2 -8
vn 0 0 1
vn 0 0 1
vn 0 0 1
vn 0 0 1
vn 0 0 1
vn 0 0 1
vn 0 0 1
vn 0 0 1
vn 0 0 -1
vn 0 0 -1
vn 0 0 -1
vn 0 0 -1
vn 0 0 -1
vn 0 0 -1
vn 0 -1 0
vn 0 -1 0
vn 0 -1 0
vn 0 -1 0
vn 1 0 0
vn 1 0 0
vn 1 0 0
vn 1 0 0
vn -1 0 0
vn -1 0 0
vn -1 0 0
vn -1 0 0
vn 0 0.6 0.8
vn 0 0.6 0.8
vn 0 0.6 0.8
vn 0 0.6 0.8
vn 0 -1 0
vn 0 -1 0
vn 0 -1 0
vn 0 -1 0
vn 1 0 0
vn 1 0 0
vn 1 0 0
vn 1 0 0
vn 1 0 0
vn 1 0 0
vn 1 0 0
vn 1 0 0
vn 1 0 0
vn 1 0 0
vn -1 0 0
vn -1 0 0
vn -1 0 0
vn -1 0 0
vn -1 0 0
vn -1 0 0
vn -1 0 0
vn 0 0 1
vn 0 0 1
vn 0 0 1
vn 0 0 1
vn 0 0 1
vn 0 0 1
vn 0 1 0
vn 0 1 0
vn 0 1 0
vn 0 1 0
vn 0 1 0
vn 0 1 0
vn 0 0 -1
vn 0 0 -1
vn 0 0 -1
vn 0 0 -1
vn 0 1 0
vn 0 1 0
vn 0 -1 0
vn 0 -1 0
vn 0 -1 0
vn 0 -1 0
vn 0 0 -1
vn 0 0 -1
vt 0 -2
vt -11 -2
vt -11 0
vt 0 0
vt 0 4
vt -11 4
vt -11 12
vt 0 12
vt 11 4
vt 0 -2
vt 0 4
vt 11 -2
vt 11 12
vt 0 12
vt 0 0
vt -11 0
vt 0 3
vt -11 3
vt 0 -2
vt 0 4
vt 3 -2
vt 3 0
vt 0 4
vt 0 -2
vt -3 0
vt -3 -2
vt -11 3.2
vt 0 3.2
vt -11 -1.8
vt 0 -1.8
vt 0 -4
vt -11 -8
vt -11 -4
vt 0 -8
vt -4 -2
vt -4 4
vt -4 -2
vt -8 -2
vt -8 4
vt -4 4
vt -4 12
vt 0 12
vt -8 12
vt -4 12
vt 4 4
vt 4 -2
vt 8 4
vt 8 -2
vt 4 12
vt 0 12
vt 8 12
vt -11 12
vt -11 4
vt -16 12
vt -16 4
vt -11 -2
vt -16 -2
vt 11 -4
vt 0 -4
vt 0 0
vt 11 0
vt 11 -8
vt 0 -8
vt 11 4
vt 11 12
vt 16 4
vt 16 12
vt 16 -8
vt 16 -4
vt -11 -4
vt -11 -8
vt -16 -4
vt -16 -8
vt 11 -2
vt 16 -2
g submesh0
f 1/1/1 2/2/2 3/3/3
f 4/4/4 1/1/1 3/3/3
f 5/5/5 6/6/6 7/7/7
f 8/8/8 5/5/5 7/7/7
f 9/9/9 10/10/10 11/11/11
f 9/9/9 12/12/12 10/10/10
f 13/13/13 11/11/11 14/14/14
f 13/13/13 9/9/9 11/11/11
f 15/15/15 16/16/16 17/17/17
f 16/16/16 18/18/18 17/17/17
f 19/19/19 20/20/20 21/21/21
f 20/20/20 22/22/22 21/21/21
f 23/23/23 24/24/24 25/25/25
f 24/24/24 26/26/26 25/25/25
f 27/27/27 28/28/28 29/29/29
f 28/28/28 30/30/30 29/29/29
f 31/31/31 32/32/32 33/33/33
f 31/31/31 34/34/34 32/32/32
f 15/15/15 33/33/33 16/16/16
f 15/15/15 31/31/31 33/33/33
f 19/19/19 35/35/35 36/36/36
f 20/20/20 19/19/19 36/36/36
f 37/37/37 38/38/38 39/39/39
f 40/40/40 37/37/37 39/39/39
f 20/20/20 36/36/36 41/41/41
f 42/42/42 20/20/20 41/41/41
f 40/40/40 39/39/39 43/43/43
f 44/44/44 40/40/40 43/43/43
f 45/45/45 24/24/24 23/23/23
f 45/45/45 46/46/46 24/24/24
f 47/47/47 46/46/46 45/45/45
f 47/47/47 48/48/48 46/46/46
f 49/49/49 23/23/23 50/50/50
f 49/49/49 45/45/45 23/23/23
f 51/51/51 45/45/45 49/49/49
f 51/51/51 47/47/47 45/45/45
f 52/52/52 53/53/53 54/54/54
f 53/53/53 55/55/55 54/54/54
f 53/53/53 56/56/56 55/55/55
f 56/56/56 57/57/57 55/55/55
g submesh1
f 58/58/58 59/59/59 60/60/60
f 61/61/61 58/58/58 60/60/60
f 62/62/62 63/63/63 59/59/59
f 58/58/58 62/62/62 59/59/59
f 64/64/64 65/65/65 66/66/66
f 65/65/65 67/67/67 66/66/66
f 62/62/62 58/58/58 68/68/68
f 58/58/58 69/69/69 68/68/68
f 70/70/70 71/71/71 72/72/72
f 71/71/71 73/73/73 72/72/72
f 74/74/74 64/64/64 75/75/75
f 64/64/64 66/66/66 75/75/75
