v 0.7499996 -3 0.2499999
v 0.9999996 -3 0.2499998
v 0.7500002 12 0.2499998
v 1 12 0.2499998
v 0.9999996 -3 0.2499998
v 0.9999995 -3 -2.384186E-07
v 1 12 0.2499998
v 1 12 -2.384194E-07
v 0.9999995 -3 -2.384186E-07
v 0.7499995 -3 -1.490116E-07
v 1 12 -2.384194E-07
v 0.75 12 -1.490124E-07
v -1 -3 4.768372E-07
v -1 -3 0.2500005
v -1 12 4.768361E-07
v -0.9999998 12 0.2500005
v 0.7500002 12 0.2499998
v 1 12 0.2499998
v 0.75 12 -1.490124E-07
v 1 12 -2.384194E-07
v 0.7499995 -3 -1.490116E-07
v 0.9999995 -3 -2.384186E-07
v 0.7499996 -3 0.2499999
v 0.9999996 -3 0.2499998
v -0.7500005 -3 3.874302E-07
v -0.7500004 -3 0.2500004
v -1 -3 4.768372E-07
v -1 -3 0.2500005
v -0.75 12 3.72528E-07
v -0.7500005 -3 3.874302E-07
v -1 12 4.768361E-07
v -1 -3 4.768372E-07
v -0.7500004 -3 0.2500004
v -0.7499998 12 0.2500004
v -1 -3 0.2500005
v -0.9999998 12 0.2500005
v -0.7499998 12 0.2500004
v -0.75 12 3.72528E-07
v -0.9999998 12 0.2500005
v -1 12 4.768361E-07
v 0.7499996 -3 0.2499999
v 0.7500002 12 0.2499998
v 0.7499995 -3 -1.490116E-07
v 0.75 12 -1.490124E-07
v -0.7499998 12 0.2500004
v -0.7500004 -3 0.2500004
v -0.75 12 3.72528E-07
v -0.7500005 -3 3.874302E-07
v 0.7499996 -3 0.1249999
v 0.7500001 12 0.1249999
v -0.7500004 -3 0.1250004
v -0.7499999 12 0.1250004
vn 3.576279E-07 9.933979E-10 1
vn 3.278255E-07 4.96693E-10 1
vn 3.278255E-07 4.96693E-10 1
vn 2.980231E-07 -1.184238E-14 1
vn 1 -3.973643E-08 -4.768372E-07
vn 1 -3.576279E-08 -7.152557E-07
vn 1 -3.576279E-08 -7.152557E-07
vn 1 -3.178915E-08 -9.536743E-07
vn -3.576279E-07 -4.168517E-14 -1
vn -3.576278E-07 -4.263256E-14 -1
vn -3.576278E-07 -4.263256E-14 -1
vn -3.576278E-07 -4.357996E-14 -1
vn -1 3.178915E-08 4.768372E-07
vn -1 3.377597E-08 5.960464E-07
vn -1 3.377597E-08 5.960464E-07
vn -1 3.576279E-08 7.152557E-07
vn 0 1 0
vn 0 1 0
vn 0 1 0
vn 0 1 0
vn 0 -1 0
vn 0 -1 0
vn 0 -1 0
vn 0 -1 0
vn 0 -1 0
vn 0 -1 0
vn 0 -1 0
vn 0 -1 0
vn -4.172324E-07 -9.934638E-10 -1
vn -3.874301E-07 -4.967603E-10 -1
vn -3.874301E-07 -4.967603E-10 -1
vn -3.576279E-07 -5.684342E-14 -1
vn 3.576279E-07 -1.278977E-14 1
vn 3.576279E-07 -1.278977E-14 1
vn 3.576279E-07 -1.278977E-14 1
vn 3.576279E-07 -1.278977E-14 1
vn 0 1 0
vn 0 1 0
vn 0 1 0
vn 0 1 0
vn -1 3.576279E-08 4.768372E-07
vn -1 3.377597E-08 5.960464E-07
vn -1 3.377597E-08 5.960464E-07
vn -1 3.178915E-08 7.152558E-07
vn 1 -3.576278E-08 -7.152556E-07
vn 1 -3.377597E-08 -5.960464E-07
vn 1 -3.377597E-08 -5.960464E-07
vn 1 -3.178915E-08 -4.768372E-07
vn 3.576279E-07 -1.278977E-14 1
vn 3.576279E-07 -1.207923E-14 1
vn 3.576279E-07 -1.207923E-14 1
vn 3.576279E-07 -1.136868E-14 1
vt -0.7499996 -3
vt -0.9999996 -3
vt -0.7500001 12
vt -1 12
vt -1.875 -3
vt -2.125 -3
vt -1.875 12
vt -2.125 12
vt 0.9999995 -3
vt 0.7499995 -3
vt 1 12
vt 0.75 12
vt 2.125 -3
vt 1.875 -3
vt 2.125 12
vt 1.875 12
vt 0.7500002 -1.875
vt 1 -1.875
vt 0.75 -2.125
vt 1 -2.125
vt -0.7499995 -2.125
vt -0.9999995 -2.125
vt -0.7499996 -1.875
vt -0.9999996 -1.875
vt 0.7500005 -2.125
vt 0.7500004 -1.875
vt 1 -2.125
vt 1 -1.875
vt -0.75 12
vt -0.7500005 -3
vt -1 12
vt -1 -3
vt 0.7500005 -3
vt 0.7499999 12
vt 1 -3
vt 0.9999999 12
vt -0.7499998 -1.875
vt -0.75 -2.125
vt -0.9999998 -1.875
vt -1 -2.125
vt 1.875 -3
vt 1.875 12
vt 2.125 -3
vt 2.125 12
vt -1.875 12
vt -1.875 -3
vt -2.125 12
vt -2.125 -3
vt -0.7499995 -3
vt -0.7500001 12
vt 0.7500005 -3
vt 0.7499999 12
g submesh0
f 1/1/1 2/2/2 3/3/3
f 2/2/2 4/4/4 3/3/3
f 5/5/5 6/6/6 7/7/7
f 6/6/6 8/8/8 7/7/7
f 9/9/9 10/10/10 11/11/11
f 10/10/10 12/12/12 11/11/11
f 13/13/13 14/14/14 15/15/15
f 14/14/14 16/16/16 15/15/15
f 17/17/17 18/18/18 19/19/19
f 18/18/18 20/20/20 19/19/19
f 21/21/21 22/22/22 23/23/23
f 22/22/22 24/24/24 23/23/23
f 25/25/25 26/26/26 27/27/27
f 26/26/26 28/28/28 27/27/27
f 29/29/29 30/30/30 31/31/31
f 30/30/30 32/32/32 31/31/31
f 33/33/33 34/34/34 35/35/35
f 34/34/34 36/36/36 35/35/35
f 37/37/37 38/38/38 39/39/39
f 38/38/38 40/40/40 39/39/39
f 41/41/41 42/42/42 43/43/43
f 42/42/42 44/44/44 43/43/43
f 45/45/45 46/46/46 47/47/47
f 46/46/46 48/48/48 47/47/47
g submesh1
f 49/49/49 50/50/50 51/51/51
f 50/50/50 52/52/52 51/51/51
