v 0.7499996 -3 0.2499999
v 0.9999996 -3 0.2499998
v 0.75 7 0.2499991
v 1 7 0.2500001
v 0.9999996 -3 0.2499998
v 0.9999995 -3 -2.384186E-07
v 1 7 0.2500001
v 0.999999 7 5.984475E-08
v 0.9999995 -3 -2.384186E-07
v 0.7499995 -3 -1.490116E-07
v 0.999999 7 5.984475E-08
v 0.749999 7 -9.087325E-07
v -1 -3 4.768372E-07
v -1 -3 0.2500005
v -1.000001 7 8.942952E-07
v -1.000002 7 0.2499999
v 0.75 7 0.2499991
v 1 7 0.2500001
v 0.749999 7 -9.087325E-07
v 0.999999 7 5.984475E-08
v 0.7499995 -3 -1.490116E-07
v 0.9999995 -3 -2.384186E-07
v 0.7499996 -3 0.2499999
v 0.9999996 -3 0.2499998
v -0.7500005 -3 3.874302E-07
v -0.7500004 -3 0.2500004
v -1 -3 4.768372E-07
v -1 -3 0.2500005
v -0.750001 7 -4.447611E-08
v -0.7500005 -3 3.874302E-07
v -1.000001 7 8.942952E-07
v -1 -3 4.768372E-07
v -0.7500004 -3 0.2500004
v -0.7500019 7 0.2500009
v -1 -3 0.2500005
v -1.000002 7 0.2499999
v -0.7500019 7 0.2500009
v -0.750001 7 -4.447611E-08
v -1.000002 7 0.2499999
v -1.000001 7 8.942952E-07
v 0.7499996 -3 0.2499999
v 0.75 7 0.2499991
v 0.7499995 -3 -1.490116E-07
v 0.749999 7 -9.087325E-07
v -0.7500019 7 0.2500009
v -0.7500004 -3 0.2500004
v -0.750001 7 -4.447611E-08
v -0.7500005 -3 3.874302E-07
v 0.7499996 -3 0.1249999
v 0.7499976 7 0.1249991
v -0.7500004 -3 0.1250004
v -0.7500005 7 0.1250009
vn 3.576279E-07 7.599591E-08 1
vn -1.758337E-06 2.309686E-08 1
vn -1.758337E-06 2.309686E-08 1
vn -3.874302E-06 -2.980218E-08 1
vn 1 -3.576277E-08 -4.768372E-07
vn 1 5.960528E-09 -2.145767E-06
vn 1 5.960528E-09 -2.145767E-06
vn 1 4.768383E-08 -3.814697E-06
vn -3.576279E-07 2.982632E-08 -1
vn 1.758341E-06 -2.307279E-08 -1
vn 1.758341E-06 -2.307279E-08 -1
vn 3.874309E-06 -7.59719E-08 -1
vn -1 -4.768374E-08 4.768372E-07
vn -1 -1.01328E-07 -1.668937E-06
vn -1 -1.01328E-07 -1.668937E-06
vn -1 -1.549723E-07 -3.814712E-06
vn 0 1 0
vn 0 1 0
vn 0 1 0
vn 0 1 0
vn 0 -1 0
vn 0 -1 0
vn 0 -1 0
vn 0 -1 0
vn 0 -1 0
vn 0 -1 0
vn 0 -1 0
vn 0 -1 0
vn -3.755085E-06 -4.319081E-08 -1
vn -2.056357E-06 -7.225101E-10 -1
vn -2.056357E-06 -7.225101E-10 -1
vn -3.576279E-07 4.174579E-08 -1
vn 3.576279E-07 -5.364412E-08 1
vn -1.788139E-06 -2.753353E-13 1
vn -1.788139E-06 -2.753353E-13 1
vn -3.933907E-06 5.364357E-08 1
vn 0 1 0
vn 0 1 0
vn 0 1 0
vn 0 1 0
vn -1 3.576282E-08 4.768372E-07
vn -1 -5.960301E-09 2.145767E-06
vn -1 -5.960301E-09 2.145767E-06
vn -1 -4.768343E-08 3.814697E-06
vn 1 1.549719E-07 3.814683E-06
vn 1 1.013278E-07 1.668923E-06
vn 1 1.013278E-07 1.668923E-06
vn 1 4.76837E-08 -4.768372E-07
vn 3.576279E-07 7.599599E-08 1
vn 7.847952E-07 1.192097E-08 1
vn 7.847952E-07 1.192097E-08 1
vn 1.211963E-06 -5.215406E-08 1
vt -0.7499996 -3
vt -0.9999996 -3
vt -0.7499999 7
vt -0.9999999 7
vt -1.875 -3
vt -2.125 -3
vt -1.875 7
vt -2.125 7
vt 0.9999995 -3
vt 0.7499995 -3
vt 0.999999 7
vt 0.749999 7
vt 2.125 -3
vt 1.875 -3
vt 2.125 7
vt 1.875 7
vt 0.75 -1.875001
vt 1 -1.875
vt 0.749999 -2.125001
vt 0.999999 -2.125
vt -0.7499995 -2.125
vt -0.9999995 -2.125
vt -0.7499996 -1.875
vt -0.9999996 -1.875
vt 0.7500005 -2.125
vt 0.7500004 -1.875
vt 1 -2.125
vt 1 -1.875
vt -0.750001 7
vt -0.7500005 -3
vt -1.000001 7
vt -1 -3
vt 0.7500005 -3
vt 0.750002 7
vt 1 -3
vt 1.000002 7
vt -0.7500019 -1.874999
vt -0.750001 -2.125
vt -1.000002 -1.875
vt -1.000001 -2.124999
vt 1.875 -3
vt 1.875001 7
vt 2.125 -3
vt 2.125 7
vt -1.874996 7
vt -1.874997 -3
vt -2.124997 7
vt -2.124997 -3
vt -0.7499995 -3
vt -0.7499976 7
vt 0.7500005 -3
vt 0.7500005 7
g submesh0
f 1/1/1 2/2/2 3/3/3
f 2/2/2 4/4/4 3/3/3
f 5/5/5 6/6/6 7/7/7
f 6/6/6 8/8/8 7/7/7
f 9/9/9 10/10/10 11/11/11
f 10/10/10 12/12/12 11/11/11
f 13/13/13 14/14/14 15/15/15
f 14/14/14 16/16/16 15/15/15
f 17/17/17 18/18/18 19/19/19
f 18/18/18 20/20/20 19/19/19
f 21/21/21 22/22/22 23/23/23
f 22/22/22 24/24/24 23/23/23
f 25/25/25 26/26/26 27/27/27
f 26/26/26 28/28/28 27/27/27
f 29/29/29 30/30/30 31/31/31
f 30/30/30 32/32/32 31/31/31
f 33/33/33 34/34/34 35/35/35
f 34/34/34 36/36/36 35/35/35
f 37/37/37 38/38/38 39/39/39
f 38/38/38 40/40/40 39/39/39
f 41/41/41 42/42/42 43/43/43
f 42/42/42 44/44/44 43/43/43
f 45/45/45 46/46/46 47/47/47
f 46/46/46 48/48/48 47/47/47
g submesh1
f 49/49/49 50/50/50 51/51/51
f 50/50/50 52/52/52 51/51/51
