v 0.7499997 -15.34425 0.2499989
v 0.9999997 -15.34425 0.2499988
v 0.7499997 8.655746 0.2499989
v 0.9999997 8.655746 0.2499988
v 0.9999997 -15.34425 0.2499988
v 0.9999997 -15.34425 -1.162065E-06
v 0.9999997 8.655746 0.2499988
v 0.9999997 8.655746 -1.162065E-06
v 0.9999997 -15.34425 -1.162065E-06
v 0.7499997 -15.34425 -1.109909E-06
v 0.9999997 8.655746 -1.162065E-06
v 0.7499997 8.655746 -1.109909E-06
v -1 -15.34425 -7.44818E-07
v -1 -15.34425 0.2499993
v -1 8.655746 -7.44818E-07
v -1 8.655746 0.2499993
v 0.7499997 8.655746 0.2499989
v 0.9999997 8.655746 0.2499988
v 0.7499997 8.655746 -1.109909E-06
v 0.9999997 8.655746 -1.162065E-06
v 0.7499997 -15.34425 -1.109909E-06
v 0.9999997 -15.34425 -1.162065E-06
v 0.7499997 -15.34425 0.2499989
v 0.9999997 -15.34425 0.2499988
v -0.7500004 -15.34425 -7.969738E-07
v -0.7500003 -15.34425 0.2499992
v -1 -15.34425 -7.44818E-07
v -1 -15.34425 0.2499993
v -0.7500004 8.655746 -7.969738E-07
v -0.7500004 -15.34425 -7.969738E-07
v -1 8.655746 -7.44818E-07
v -1 -15.34425 -7.44818E-07
v -0.7500003 -15.34425 0.2499992
v -0.7500003 8.655746 0.2499992
v -1 -15.34425 0.2499993
v -1 8.655746 0.2499993
v -0.7500003 8.655746 0.2499992
v -0.7500004 8.655746 -7.969738E-07
v -1 8.655746 0.2499993
v -1 8.655746 -7.44818E-07
v 0.7499997 -15.34425 0.2499989
v 0.7499997 8.655746 0.2499989
v 0.7499997 -15.34425 -1.109909E-06
v 0.7499997 8.655746 -1.109909E-06
v -0.7500003 8.655746 0.2499992
v -0.7500003 -15.34425 0.2499992
v -0.7500004 8.655746 -7.969738E-07
v -0.7500004 -15.34425 -7.969738E-07
v 0.7499997 -15.34425 0.1249989
v 0.7499997 8.655746 0.1249989
v -0.7500003 -15.34425 0.1249992
v -0.7500003 8.655746 0.1249992
vn 2.384186E-07 0 1
vn 2.384186E-07 0 1
vn 2.384186E-07 0 1
vn 2.384186E-07 0 1
vn 1 0 0
vn 1 0 0
vn 1 0 0
vn 1 0 0
vn -2.086235E-07 0 -1
vn -2.086235E-07 0 -1
vn -2.086235E-07 0 -1
vn -2.086235E-07 0 -1
vn -1 0 4.768372E-07
vn -1 0 4.768372E-07
vn -1 0 4.768372E-07
vn -1 0 4.768372E-07
vn 0 1 0
vn 0 1 0
vn 0 1 0
vn 0 1 0
vn 0 -1 0
vn 0 -1 0
vn 0 -1 0
vn 0 -1 0
vn 0 -1 0
vn 0 -1 0
vn 0 -1 0
vn 0 -1 0
vn -2.086235E-07 0 -1
vn -2.086235E-07 0 -1
vn -2.086235E-07 0 -1
vn -2.086235E-07 0 -1
vn 1.78814E-07 0 1
vn 1.78814E-07 0 1
vn 1.78814E-07 0 1
vn 1.78814E-07 0 1
vn 0 1 0
vn 0 1 0
vn 0 1 0
vn 0 1 0
vn -1 0 0
vn -1 0 0
vn -1 0 0
vn -1 0 0
vn 1 0 -2.384186E-07
vn 1 0 -2.384186E-07
vn 1 0 -2.384186E-07
vn 1 0 -2.384186E-07
vn 2.086163E-07 0 1
vn 2.086163E-07 0 1
vn 2.086163E-07 0 1
vn 2.086163E-07 0 1
vt -0.7499996 -15.34425
vt -0.9999996 -15.34425
vt -0.7499996 8.655746
vt -0.9999996 8.655746
vt -1.875001 -15.34425
vt -2.125001 -15.34425
vt -1.875001 8.655746
vt -2.125001 8.655746
vt 0.9999997 -15.34425
vt 0.7499997 -15.34425
vt 0.9999997 8.655746
vt 0.7499997 8.655746
vt 2.125001 -15.34425
vt 1.875001 -15.34425
vt 2.125001 8.655746
vt 1.875001 8.655746
vt 0.7499997 -1.875001
vt 0.9999997 -1.875001
vt 0.7499997 -2.125001
vt 0.9999997 -2.125001
vt -0.7499997 -2.125001
vt -0.9999997 -2.125001
vt -0.7499997 -1.875001
vt -0.9999997 -1.875001
vt 0.7500004 -2.125001
vt 0.7500003 -1.875001
vt 1 -2.125001
vt 1 -1.875001
vt -0.7500004 8.655746
vt -0.7500004 -15.34425
vt -1 8.655746
vt -1 -15.34425
vt 0.7500004 -15.34425
vt 0.7500004 8.655746
vt 1 -15.34425
vt 1 8.655746
vt -0.7500003 -1.875001
vt -0.7500004 -2.125001
vt -1 -1.875001
vt -1 -2.125001
vt 1.875001 -15.34425
vt 1.875001 8.655746
vt 2.125001 -15.34425
vt 2.125001 8.655746
vt -1.875001 8.655746
vt -1.875001 -15.34425
vt -2.125001 8.655746
vt -2.125001 -15.34425
vt -0.7499997 -15.34425
vt -0.7499997 8.655746
vt 0.7500003 -15.34425
vt 0.7500003 8.655746
g submesh0
f 1/1/1 2/2/2 3/3/3
f 2/2/2 4/4/4 3/3/3
f 5/5/5 6/6/6 7/7/7
f 6/6/6 8/8/8 7/7/7
f 9/9/9 10/10/10 11/11/11
f 10/10/10 12/12/12 11/11/11
f 13/13/13 14/14/14 15/15/15
f 14/14/14 16/16/16 15/15/15
f 17/17/17 18/18/18 19/19/19
f 18/18/18 20/20/20 19/19/19
f 21/21/21 22/22/22 23/23/23
f 22/22/22 24/24/24 23/23/23
f 25/25/25 26/26/26 27/27/27
f 26/26/26 28/28/28 27/27/27
f 29/29/29 30/30/30 31/31/31
f 30/30/30 32/32/32 31/31/31
f 33/33/33 34/34/34 35/35/35
f 34/34/34 36/36/36 35/35/35
f 37/37/37 38/38/38 39/39/39
f 38/38/38 40/40/40 39/39/39
f 41/41/41 42/42/42 43/43/43
f 42/42/42 44/44/44 43/43/43
f 45/45/45 46/46/46 47/47/47
f 46/46/46 48/48/48 47/47/47
g submesh1
f 49/49/49 50/50/50 51/51/51
f 50/50/50 52/52/52 51/51/51
