v -2 -2 -2
v -2 -2 2
v -2 -1.5 -1.5
v -2 -1.5 1.5
v -2 2 2
v -2 2 -2
v -2 1.5 1.5
v -2 1.5 -1.5
v -2 -1.5 -1.5
v -2 -1.5 1.5
v -1.75 -1.5 -1.5
v -1.75 -1.5 1.5
v -2 1.5 1.5
v -2 1.5 -1.5
v -1.75 1.5 1.5
v -1.75 1.5 -1.5
v -2 2 2
v 2 2 2
v -1.5 2 1.5
v 1.5 2 1.5
v -2 2 -2
v -1.5 2 -1.5
v 2 2 -2
v 1.5 2 -1.5
v -1.5 2 1.5
v 1.5 2 1.5
v -1.5 1.75 1.5
v 1.5 1.75 1.5
v -1.5 2 -1.5
v -1.5 2 1.5
v -1.5 1.75 -1.5
v -1.5 1.75 1.5
v 1.5 2 1.5
v 1.5 2 -1.5
v 1.5 1.75 1.5
v 1.5 1.75 -1.5
v 1.5 2 -1.5
v -1.5 2 -1.5
v 1.5 1.75 -1.5
v -1.5 1.75 -1.5
v -2 -2 2
v 2 -2 2
v -1.5 -1.5 2
v 1.5 -1.5 2
v 2 2 2
v -2 2 2
v 1.5 1.5 2
v -1.5 1.5 2
v -1.5 -1.5 2
v 1.5 -1.5 2
v -1.5 -1.5 1.75
v 1.5 -1.5 1.75
v 1.5 1.5 2
v -1.5 1.5 2
v 1.5 1.5 1.75
v -1.5 1.5 1.75
v 2 -2 2
v 2 -2 -2
v 2 -1.5 1.5
v 2 -1.5 -1.5
v 2 2 -2
v 2 2 2
v 2 1.5 -1.5
v 2 1.5 1.5
v 2 -1.5 1.5
v 2 -1.5 -1.5
v 1.75 -1.5 1.5
v 1.75 -1.5 -1.5
v 2 1.5 -1.5
v 2 1.5 1.5
v 1.75 1.5 -1.5
v 1.75 1.5 1.5
v 2 -2 -2
v -2 -2 -2
v 1.5 -1.5 -2
v -1.5 -1.5 -2
v -2 2 -2
v 2 2 -2
v -1.5 1.5 -2
v 1.5 1.5 -2
v 1.5 -1.5 -2
v -1.5 -1.5 -2
v 1.5 -1.5 -1.75
v -1.5 -1.5 -1.75
v -1.5 1.5 -2
v 1.5 1.5 -2
v -1.5 1.5 -1.75
v 1.5 1.5 -1.75
v -2 -2 -2
v 2 -2 -2
v -1.5 -2 -1.5
v 1.5 -2 -1.5
v -2 -2 2
v -1.5 -2 1.5
v 2 -2 2
v 1.5 -2 1.5
v -1.5 -2 -1.5
v 1.5 -2 -1.5
v -1.5 -1.75 -1.5
v 1.5 -1.75 -1.5
v -1.5 -2 1.5
v -1.5 -2 -1.5
v -1.5 -1.75 1.5
v -1.5 -1.75 -1.5
v 1.5 -2 -1.5
v 1.5 -2 1.5
v 1.5 -1.75 -1.5
v 1.5 -1.75 1.5
v 1.5 -2 1.5
v -1.5 -2 1.5
v 1.5 -1.75 1.5
v -1.5 -1.75 1.5
v -2 0 -2
v -2 0 -1.5
v -2 0 2
v -2 0 1.5
v -2 0 -1.5
v -1.75 0 -1.5
v -1.75 1.5 -1.5
v -2 1.5 -1.5
v -2 -1.5 -1.5
v -1.75 -1.5 -1.5
v -1.75 0 1.5
v -2 -1.5 1.5
v -2 0 1.5
v -1.75 -1.5 1.5
v -1.75 1.5 1.5
v -2 1.5 1.5
v -2 0 2
v -1.5 0 2
v 2 0 2
v 1.5 0 2
v -1.5 0 2
v -1.5 0 1.75
v -1.5 1.5 1.75
v -1.5 1.5 2
v -1.5 -1.5 2
v -1.5 -1.5 1.75
v 1.5 0 1.75
v 1.5 -1.5 2
v 1.5 0 2
v 1.5 -1.5 1.75
v 1.5 1.5 1.75
v 1.5 1.5 2
v 2 0 2
v 2 0 1.5
v 2 0 -2
v 2 0 -1.5
v 2 1.5 1.5
v 1.75 0 1.5
v 1.75 1.5 1.5
v 2 0 1.5
v 1.75 -1.5 1.5
v 2 -1.5 1.5
v 1.75 -1.5 -1.5
v 2 -1.5 -1.5
v 2 0 -1.5
v 1.75 0 -1.5
v 2 1.5 -1.5
v 1.75 1.5 -1.5
v 2 0 -2
v 1.5 0 -2
v -2 0 -2
v -1.5 0 -2
v 1.5 1.5 -2
v 1.5 0 -1.75
v 1.5 1.5 -1.75
v 1.5 0 -2
v 1.5 -1.5 -1.75
v 1.5 -1.5 -2
v -1.5 -1.5 -1.75
v -1.5 -1.5 -2
v -1.5 0 -2
v -1.5 0 -1.75
v -1.5 1.5 -2
v -1.5 1.5 -1.75
v -1.5 1.75 1.5
v 1.5 1.75 1.5
v -1.5 1.75 -1.5
v 1.5 1.75 -1.5
v -1.5 -1.75 -1.5
v 1.5 -1.75 -1.5
v -1.5 -1.75 1.5
v 1.5 -1.75 1.5
v -1.5 -1.5 1.75
v 1.5 -1.5 1.75
v 1.5 0 1.75
v -1.5 0 1.75
v 1.5 1.5 1.75
v -1.5 1.5 1.75
v 1.75 -1.5 1.5
v 1.75 -1.5 -1.5
v 1.75 0 -1.5
v 1.75 0 1.5
v 1.75 1.5 -1.5
v 1.75 1.5 1.5
v 1.5 0 -1.75
v -1.5 -1.5 -1.75
v -1.5 0 -1.75
v 1.5 -1.5 -1.75
v 1.5 1.5 -1.75
v -1.5 1.5 -1.75
v -1.75 0 -1.5
v -1.75 -1.5 1.5
v -1.75 0 1.5
v -1.75 -1.5 -1.5
v -1.75 1.5 -1.5
v -1.75 1.5 1.5
vn -1 0 0
vn -1 0 0
vn -1 0 0
vn -1 0 0
vn -1 0 0
vn -1 0 0
vn -1 0 0
vn -1 0 0
vn 0 1 0
vn 0 1 0
vn 0 1 0
vn 0 1 0
vn 0 -1 0
vn 0 -1 0
vn 0 -1 0
vn 0 -1 0
vn 0 1 0
vn 0 1 0
vn 0 1 0
vn 0 1 0
vn 0 1 0
vn 0 1 0
vn 0 1 0
vn 0 1 0
vn 0 0 -1
vn 0 0 -1
vn 0 0 -1
vn 0 0 -1
vn 1 0 0
vn 1 0 0
vn 1 0 0
vn 1 0 0
vn -1 0 0
vn -1 0 0
vn -1 0 0
vn -1 0 0
vn 0 0 1
vn 0 0 1
vn 0 0 1
vn 0 0 1
vn 0 0 1
vn 0 0 1
vn 0 0 1
vn 0 0 1
vn 0 0 1
vn 0 0 1
vn 0 0 1
vn 0 0 1
vn 0 1 0
vn 0 1 0
vn 0 1 0
vn 0 1 0
vn 0 -1 0
vn 0 -1 0
vn 0 -1 0
vn 0 -1 0
vn 1 0 0
vn 1 0 0
vn 1 0 0
vn 1 0 0
vn 1 0 0
vn 1 0 0
vn 1 0 0
vn 1 0 0
vn 0 1 0
vn 0 1 0
vn 0 1 0
vn 0 1 0
vn 0 -1 0
vn 0 -1 0
vn 0 -1 0
vn 0 -1 0
vn 0 0 -1
vn 0 0 -1
vn 0 0 -1
vn 0 0 -1
vn 0 0 -1
vn 0 0 -1
vn 0 0 -1
vn 0 0 -1
vn 0 1 0
vn 0 1 0
vn 0 1 0
vn 0 1 0
vn 0 -1 0
vn 0 -1 0
vn 0 -1 0
vn 0 -1 0
vn 0 -1 0
vn 0 -1 0
vn 0 -1 0
vn 0 -1 0
vn 0 -1 0
vn 0 -1 0
vn 0 -1 0
vn 0 -1 0
vn 0 0 1
vn 0 0 1
vn 0 0 1
vn 0 0 1
vn 1 0 0
vn 1 0 0
vn 1 0 0
vn 1 0 0
vn -1 0 0
vn -1 0 0
vn -1 0 0
vn -1 0 0
vn 0 0 -1
vn 0 0 -1
vn 0 0 -1
vn 0 0 -1
vn -1 0 0
vn -1 0 0
vn -1 0 0
vn -1 0 0
vn 0 0 1
vn 0 0 1
vn 0 0 1
vn 0 0 1
vn 0 0 1
vn 0 0 1
vn 0 0 -1
vn 0 0 -1
vn 0 0 -1
vn 0 0 -1
vn 0 0 -1
vn 0 0 -1
vn 0 0 1
vn 0 0 1
vn 0 0 1
vn 0 0 1
vn 1 0 0
vn 1 0 0
vn 1 0 0
vn 1 0 0
vn 1 0 0
vn 1 0 0
vn -1 0 0
vn -1 0 0
vn -1 0 0
vn -1 0 0
vn -1 0 0
vn -1 0 0
vn 1 0 0
vn 1 0 0
vn 1 0 0
vn 1 0 0
vn 0 0 -1
vn 0 0 -1
vn 0 0 -1
vn 0 0 -1
vn 0 0 -1
vn 0 0 -1
vn 0 0 1
vn 0 0 1
vn 0 0 1
vn 0 0 1
vn 0 0 1
vn 0 0 1
vn 0 0 -1
vn 0 0 -1
vn 0 0 -1
vn 0 0 -1
vn -1 0 0
vn -1 0 0
vn -1 0 0
vn -1 0 0
vn -1 0 0
vn -1 0 0
vn 1 0 0
vn 1 0 0
vn 1 0 0
vn 1 0 0
vn 1 0 0
vn 1 0 0
vn 0 1 0
vn 0 1 0
vn 0 1 0
vn 0 1 0
vn 0 -1 0
vn 0 -1 0
vn 0 -1 0
vn 0 -1 0
vn 0 0 1
vn 0 0 1
vn 0 0 1
vn 0 0 1
vn 0 0 1
vn 0 0 1
vn 1 0 0
vn 1 0 0
vn 1 0 0
vn 1 0 0
vn 1 0 0
vn 1 0 0
vn 0 0 -1
vn 0 0 -1
vn 0 0 -1
vn 0 0 -1
vn 0 0 -1
vn 0 0 -1
vn -1 0 0
vn -1 0 0
vn -1 0 0
vn -1 0 0
vn -1 0 0
vn -1 0 0
vt 2 -2
vt -2 -2
vt 1.5 -1.5
vt -1.5 -1.5
vt -2 2
vt 2 2
vt -1.5 1.5
vt 1.5 1.5
vt -2 -1.5
vt -2 1.5
vt -1.75 -1.5
vt -1.75 1.5
vt 2 1.5
vt 2 -1.5
vt 1.75 1.5
vt 1.75 -1.5
vt -2 2
vt 2 2
vt -1.5 1.5
vt 1.5 1.5
vt -2 -2
vt -1.5 -1.5
vt 2 -2
vt 1.5 -1.5
vt -1.5 2
vt 1.5 2
vt -1.5 1.75
vt 1.5 1.75
vt -1.5 2
vt 1.5 2
vt -1.5 1.75
vt 1.5 1.75
vt -1.5 2
vt 1.5 2
vt -1.5 1.75
vt 1.5 1.75
vt -1.5 2
vt 1.5 2
vt -1.5 1.75
vt 1.5 1.75
vt 2 -2
vt -2 -2
vt 1.5 -1.5
vt -1.5 -1.5
vt -2 2
vt 2 2
vt -1.5 1.5
vt 1.5 1.5
vt -1.5 2
vt 1.5 2
vt -1.5 1.75
vt 1.5 1.75
vt -1.5 2
vt 1.5 2
vt -1.5 1.75
vt 1.5 1.75
vt 2 -2
vt -2 -2
vt 1.5 -1.5
vt -1.5 -1.5
vt -2 2
vt 2 2
vt -1.5 1.5
vt 1.5 1.5
vt 2 1.5
vt 2 -1.5
vt 1.75 1.5
vt 1.75 -1.5
vt -2 -1.5
vt -2 1.5
vt -1.75 -1.5
vt -1.75 1.5
vt 2 -2
vt -2 -2
vt 1.5 -1.5
vt -1.5 -1.5
vt -2 2
vt 2 2
vt -1.5 1.5
vt 1.5 1.5
vt 1.5 -2
vt -1.5 -2
vt 1.5 -1.75
vt -1.5 -1.75
vt 1.5 -2
vt -1.5 -2
vt 1.5 -1.75
vt -1.5 -1.75
vt 2 -2
vt -2 -2
vt 1.5 -1.5
vt -1.5 -1.5
vt 2 2
vt 1.5 1.5
vt -2 2
vt -1.5 1.5
vt 1.5 -2
vt -1.5 -2
vt 1.5 -1.75
vt -1.5 -1.75
vt 1.5 -2
vt -1.5 -2
vt 1.5 -1.75
vt -1.5 -1.75
vt 1.5 -2
vt -1.5 -2
vt 1.5 -1.75
vt -1.5 -1.75
vt 1.5 -2
vt -1.5 -2
vt 1.5 -1.75
vt -1.5 -1.75
vt 2 0
vt 1.5 0
vt -2 0
vt -1.5 0
vt 2 0
vt 1.75 0
vt 1.75 1.5
vt 2 1.5
vt 2 -1.5
vt 1.75 -1.5
vt -1.75 0
vt -2 -1.5
vt -2 0
vt -1.75 -1.5
vt -1.75 1.5
vt -2 1.5
vt 2 0
vt 1.5 0
vt -2 0
vt -1.5 0
vt 2 0
vt 1.75 0
vt 1.75 1.5
vt 2 1.5
vt 2 -1.5
vt 1.75 -1.5
vt -1.75 0
vt -2 -1.5
vt -2 0
vt -1.75 -1.5
vt -1.75 1.5
vt -2 1.5
vt 2 0
vt 1.5 0
vt -2 0
vt -1.5 0
vt 2 1.5
vt 1.75 0
vt 1.75 1.5
vt 2 0
vt 1.75 -1.5
vt 2 -1.5
vt -1.75 -1.5
vt -2 -1.5
vt -2 0
vt -1.75 0
vt -2 1.5
vt -1.75 1.5
vt 2 0
vt 1.5 0
vt -2 0
vt -1.5 0
vt 2 1.5
vt 1.75 0
vt 1.75 1.5
vt 2 0
vt 1.75 -1.5
vt 2 -1.5
vt -1.75 -1.5
vt -2 -1.5
vt -2 0
vt -1.75 0
vt -2 1.5
vt -1.75 1.5
vt -1.5 1.5
vt 1.5 1.5
vt -1.5 -1.5
vt 1.5 -1.5
vt 1.5 -1.5
vt -1.5 -1.5
vt 1.5 1.5
vt -1.5 1.5
vt 1.5 -1.5
vt -1.5 -1.5
vt -1.5 0
vt 1.5 0
vt -1.5 1.5
vt 1.5 1.5
vt 1.5 -1.5
vt -1.5 -1.5
vt -1.5 0
vt 1.5 0
vt -1.5 1.5
vt 1.5 1.5
vt 1.5 0
vt -1.5 -1.5
vt -1.5 0
vt 1.5 -1.5
vt 1.5 1.5
vt -1.5 1.5
vt 1.5 0
vt -1.5 -1.5
vt -1.5 0
vt 1.5 -1.5
vt 1.5 1.5
vt -1.5 1.5
g submesh0
f 1/1/1 2/2/2 3/3/3
f 2/2/2 4/4/4 3/3/3
f 5/5/5 6/6/6 7/7/7
f 6/6/6 8/8/8 7/7/7
f 9/9/9 10/10/10 11/11/11
f 10/10/10 12/12/12 11/11/11
f 13/13/13 14/14/14 15/15/15
f 14/14/14 16/16/16 15/15/15
f 17/17/17 18/18/18 19/19/19
f 18/18/18 20/20/20 19/19/19
f 21/21/21 17/17/17 22/22/22
f 17/17/17 19/19/19 22/22/22
f 18/18/18 23/23/23 20/20/20
f 23/23/23 24/24/24 20/20/20
f 23/23/23 21/21/21 24/24/24
f 21/21/21 22/22/22 24/24/24
f 25/25/25 26/26/26 27/27/27
f 26/26/26 28/28/28 27/27/27
f 29/29/29 30/30/30 31/31/31
f 30/30/30 32/32/32 31/31/31
f 33/33/33 34/34/34 35/35/35
f 34/34/34 36/36/36 35/35/35
f 37/37/37 38/38/38 39/39/39
f 38/38/38 40/40/40 39/39/39
f 41/41/41 42/42/42 43/43/43
f 42/42/42 44/44/44 43/43/43
f 45/45/45 46/46/46 47/47/47
f 46/46/46 48/48/48 47/47/47
f 49/49/49 50/50/50 51/51/51
f 50/50/50 52/52/52 51/51/51
f 53/53/53 54/54/54 55/55/55
f 54/54/54 56/56/56 55/55/55
f 57/57/57 58/58/58 59/59/59
f 58/58/58 60/60/60 59/59/59
f 61/61/61 62/62/62 63/63/63
f 62/62/62 64/64/64 63/63/63
f 65/65/65 66/66/66 67/67/67
f 66/66/66 68/68/68 67/67/67
f 69/69/69 70/70/70 71/71/71
f 70/70/70 72/72/72 71/71/71
f 73/73/73 74/74/74 75/75/75
f 74/74/74 76/76/76 75/75/75
f 77/77/77 78/78/78 79/79/79
f 78/78/78 80/80/80 79/79/79
f 81/81/81 82/82/82 83/83/83
f 82/82/82 84/84/84 83/83/83
f 85/85/85 86/86/86 87/87/87
f 86/86/86 88/88/88 87/87/87
f 89/89/89 90/90/90 91/91/91
f 90/90/90 92/92/92 91/91/91
f 93/93/93 89/89/89 94/94/94
f 89/89/89 91/91/91 94/94/94
f 90/90/90 95/95/95 92/92/92
f 95/95/95 96/96/96 92/92/92
f 95/95/95 93/93/93 96/96/96
f 93/93/93 94/94/94 96/96/96
f 97/97/97 98/98/98 99/99/99
f 98/98/98 100/100/100 99/99/99
f 101/101/101 102/102/102 103/103/103
f 102/102/102 104/104/104 103/103/103
f 105/105/105 106/106/106 107/107/107
f 106/106/106 108/108/108 107/107/107
f 109/109/109 110/110/110 111/111/111
f 110/110/110 112/112/112 111/111/111
f 6/6/6 113/113/113 8/8/8
f 113/113/113 114/114/114 8/8/8
f 113/113/113 3/3/3 114/114/114
f 113/113/113 1/1/1 3/3/3
f 115/115/115 116/116/116 4/4/4
f 115/115/115 4/4/4 2/2/2
f 7/7/7 115/115/115 5/5/5
f 7/7/7 116/116/116 115/115/115
f 117/117/117 118/118/118 119/119/119
f 120/120/120 117/117/117 119/119/119
f 121/121/121 122/122/122 118/118/118
f 117/117/117 121/121/121 118/118/118
f 123/123/123 124/124/124 125/125/125
f 123/123/123 126/126/126 124/124/124
f 127/127/127 125/125/125 128/128/128
f 127/127/127 123/123/123 125/125/125
f 129/129/129 130/130/130 48/48/48
f 46/46/46 129/129/129 48/48/48
f 41/41/41 43/43/43 129/129/129
f 43/43/43 130/130/130 129/129/129
f 44/44/44 42/42/42 131/131/131
f 132/132/132 44/44/44 131/131/131
f 47/47/47 132/132/132 131/131/131
f 47/47/47 131/131/131 45/45/45
f 133/133/133 134/134/134 135/135/135
f 136/136/136 133/133/133 135/135/135
f 137/137/137 138/138/138 134/134/134
f 133/133/133 137/137/137 134/134/134
f 139/139/139 140/140/140 141/141/141
f 139/139/139 142/142/142 140/140/140
f 143/143/143 141/141/141 144/144/144
f 143/143/143 139/139/139 141/141/141
f 145/145/145 146/146/146 64/64/64
f 62/62/62 145/145/145 64/64/64
f 57/57/57 59/59/59 145/145/145
f 59/59/59 146/146/146 145/145/145
f 60/60/60 58/58/58 147/147/147
f 148/148/148 60/60/60 147/147/147
f 63/63/63 148/148/148 147/147/147
f 63/63/63 147/147/147 61/61/61
f 149/149/149 150/150/150 151/151/151
f 149/149/149 152/152/152 150/150/150
f 152/152/152 153/153/153 150/150/150
f 152/152/152 154/154/154 153/153/153
f 155/155/155 156/156/156 157/157/157
f 158/158/158 155/155/155 157/157/157
f 158/158/158 157/157/157 159/159/159
f 160/160/160 158/158/158 159/159/159
f 78/78/78 161/161/161 80/80/80
f 161/161/161 162/162/162 80/80/80
f 161/161/161 75/75/75 162/162/162
f 161/161/161 73/73/73 75/75/75
f 163/163/163 164/164/164 76/76/76
f 163/163/163 76/76/76 74/74/74
f 79/79/79 163/163/163 77/77/77
f 79/79/79 164/164/164 163/163/163
f 165/165/165 166/166/166 167/167/167
f 165/165/165 168/168/168 166/166/166
f 168/168/168 169/169/169 166/166/166
f 168/168/168 170/170/170 169/169/169
f 171/171/171 172/172/172 173/173/173
f 174/174/174 171/171/171 173/173/173
f 174/174/174 173/173/173 175/175/175
f 176/176/176 174/174/174 175/175/175
g submesh1
f 177/177/177 178/178/178 179/179/179
f 178/178/178 180/180/180 179/179/179
f 181/181/181 182/182/182 183/183/183
f 182/182/182 184/184/184 183/183/183
f 185/185/185 186/186/186 187/187/187
f 188/188/188 185/185/185 187/187/187
f 188/188/188 187/187/187 189/189/189
f 190/190/190 188/188/188 189/189/189
f 191/191/191 192/192/192 193/193/193
f 194/194/194 191/191/191 193/193/193
f 194/194/194 193/193/193 195/195/195
f 196/196/196 194/194/194 195/195/195
f 197/197/197 198/198/198 199/199/199
f 197/197/197 200/200/200 198/198/198
f 201/201/201 199/199/199 202/202/202
f 201/201/201 197/197/197 199/199/199
f 203/203/203 204/204/204 205/205/205
f 203/203/203 206/206/206 204/204/204
f 207/207/207 205/205/205 208/208/208
f 207/207/207 203/203/203 205/205/205
