v 10.00003 0.5 -0.4994505
v 10.0005 0.5 -8.999454
v 10.0005 1 -8.999454
v 10.00003 1 -0.4994505
v -4 1 -9
v -4.000002 0.5 -0.5002199
v -4.000002 1 -0.5002199
v -4 0.5 -9
v -4.000111 0.5 9.999782
v 2.999671 0.5 10.00017
v 2.999671 1 10.00017
v -4.000111 1 9.999782
v 3.000248 1 -8.999727
v -4 0.5 -9
v -4 1 -9
v 3.000248 0.5 -8.999727
v 3.000248 1 -8.999727
v -4.000002 1 -0.5002199
v 3.000015 1 -0.4998352
v -4 1 -9
v -4.000002 0.5 -0.5002199
v -4 0.5 -9
v 3.000248 0.5 -8.999727
v 3.000015 0.5 -0.4998352
v 6.499561 0.5 10.00036
v 6.499561 1 10.00036
v 9.999452 0.5 10.00055
v 9.999452 1 10.00055
v 6.500372 1 -8.999591
v 6.500372 0.5 -8.999591
v 10.0005 1 -8.999454
v 10.0005 0.5 -8.999454
v 6.500372 1 -8.999591
v 10.00003 1 -0.4994505
v 10.0005 1 -8.999454
v 6.500022 1 -0.4996428
v 10.00003 0.5 -0.4994505
v 6.500022 0.5 -0.4996428
v 6.500372 0.5 -8.999591
v 10.0005 0.5 -8.999454
v 9.999452 0.5 10.00055
v 9.999871 0.5 2.50055
v 9.999871 1 2.50055
v 9.999452 1 10.00055
v -3.999935 1 2.49978
v -4.000111 0.5 9.999782
v -4.000111 1 9.999782
v -3.999935 0.5 2.49978
v -3.999935 1 2.49978
v 2.999968 1 2.500165
v -4.000111 1 9.999782
v 2.999671 1 10.00017
v 2.999671 0.5 10.00017
v -4.000111 0.5 9.999782
v 2.999968 0.5 2.500165
v -3.999935 0.5 2.49978
v 6.499919 1 2.500358
v 9.999871 1 2.50055
v 6.499561 1 10.00036
v 9.999452 1 10.00055
v 9.999452 0.5 10.00055
v 6.499561 0.5 10.00036
v 9.999871 0.5 2.50055
v 6.499919 0.5 2.500358
v 6.500022 1 -0.4996428
v 3.000015 1 -0.4998352
v 6.500024 0.5 -0.499643
v 3.000015 0.5 -0.4998353
v 3.000015 1 -0.4998352
v 2.999968 1 2.500165
v 3.000015 0.5 -0.4998353
v 2.999969 0.5 2.500166
v 2.999968 1 2.500165
v 6.499919 1 2.500358
v 2.999969 0.5 2.500166
v 6.499921 0.5 2.500358
v 6.499919 1 2.500358
v 6.500022 1 -0.4996428
v 6.499921 0.5 2.500358
v 6.500024 0.5 -0.499643
vn 1 0 5.46399E-05
vn 1 0 5.46399E-05
vn 1 0 5.46399E-05
vn 1 0 5.46399E-05
vn -1 0 -2.243998E-07
vn -1 0 -2.243998E-07
vn -1 0 -2.243998E-07
vn -1 0 -2.243998E-07
vn -5.51786E-05 0 1
vn -5.51786E-05 0 1
vn -5.51786E-05 0 1
vn -5.51786E-05 0 1
vn 3.896303E-05 0 -1
vn 3.896303E-05 0 -1
vn 3.896303E-05 0 -1
vn 3.896303E-05 0 -1
vn 0 1 0
vn 0 1 0
vn 0 1 0
vn 0 1 0
vn 0 -1 0
vn 0 -1 0
vn 0 -1 0
vn 0 -1 0
vn -5.504235E-05 0 1
vn -5.504235E-05 0 1
vn -5.504236E-05 0 1
vn -5.504236E-05 0 1
vn 3.896303E-05 0 -1
vn 3.896303E-05 0 -1
vn 3.896303E-05 0 -1
vn 3.896303E-05 0 -1
vn 0 1 0
vn 0 1 0
vn 0 1 0
vn 0 1 0
vn 0 -1 0
vn 0 -1 0
vn 0 -1 0
vn 0 -1 0
vn 1 0 5.594887E-05
vn 1 0 5.594887E-05
vn 1 0 5.594887E-05
vn 1 0 5.594887E-05
vn -1 0 -2.346038E-05
vn -1 0 -2.346038E-05
vn -1 0 -2.346038E-05
vn -1 0 -2.346038E-05
vn 0 1 0
vn 0 1 0
vn 0 1 0
vn 0 1 0
vn 0 -1 0
vn 0 -1 0
vn 0 -1 0
vn 0 -1 0
vn 0 1 0
vn 0 1 0
vn 0 1 0
vn 0 1 0
vn 0 -1 0
vn 0 -1 0
vn 0 -1 0
vn 0 -1 0
vn -5.495536E-05 -1.192617E-07 1
vn -5.495536E-05 -1.192486E-07 1
vn -5.495536E-05 -1.192486E-07 1
vn -5.495536E-05 -1.192355E-07 1
vn 1 4.768353E-07 1.541773E-05
vn 1 4.768399E-07 1.541773E-05
vn 1 4.768399E-07 1.541773E-05
vn 1 4.768445E-07 1.541773E-05
vn 5.497328E-05 -4.76811E-07 -1
vn 5.500734E-05 -7.152164E-07 -1
vn 5.500734E-05 -7.152164E-07 -1
vn 5.50414E-05 -9.536218E-07 -1
vn -1 -9.537071E-07 -3.433227E-05
vn -1 -9.536886E-07 -3.433227E-05
vn -1 -9.536886E-07 -3.433227E-05
vn -1 -9.536702E-07 -3.433226E-05
vt -0.4999972 0.5
vt -9.000001 0.5
vt -9.000001 1
vt -0.4999972 1
vt 8.999998 1
vt 0.5002182 0.5
vt 0.5002182 1
vt 8.999998 0.5
vt 3.99956 0.5
vt -3.000221 0.5
vt -3.000221 1
vt 3.99956 1
vt 2.999897 1
vt -4.00035 0.5
vt -4.00035 1
vt 2.999897 0.5
vt 3.000248 -8.999727
vt -4.000002 -0.5002199
vt 3.000015 -0.4998352
vt -4 -9
vt 4.000002 -0.5002199
vt 4 -9
vt -3.000248 -8.999727
vt -3.000015 -0.4998353
vt -6.500112 0.5
vt -6.500112 1
vt -10 0.5
vt -10 1
vt 6.500021 1
vt 6.500021 0.5
vt 10.00014 1
vt 10.00014 0.5
vt 6.500372 -8.999591
vt 10.00003 -0.4994505
vt 10.0005 -8.999454
vt 6.500022 -0.4996428
vt -10.00003 -0.4994505
vt -6.500023 -0.4996429
vt -6.500372 -8.999591
vt -10.0005 -8.999454
vt 10.00001 0.5
vt 2.500003 0.5
vt 2.500003 1
vt 10.00001 1
vt -2.499782 1
vt -9.999784 0.5
vt -9.999784 1
vt -2.499782 0.5
vt -3.999935 2.49978
vt 2.999968 2.500165
vt -4.000111 9.999782
vt 2.999671 10.00017
vt -2.999671 10.00017
vt 4.000111 9.999782
vt -2.999969 2.500165
vt 3.999935 2.49978
vt 6.499919 2.500358
vt 9.999871 2.50055
vt 6.499561 10.00036
vt 9.999452 10.00055
vt -9.999452 10.00055
vt -6.499561 10.00036
vt -9.999871 2.50055
vt -6.49992 2.500358
vt -6.499995 0.9999999
vt -2.999987 0.9999999
vt -6.499995 0.4999999
vt -2.999987 0.4999999
vt -0.4998814 0.9999986
vt 2.500119 0.9999986
vt -0.4998815 0.4999986
vt 2.500119 0.4999986
vt 3.000106 0.9999988
vt 6.500057 0.9999988
vt 3.000106 0.4999988
vt 6.500057 0.4999988
vt -2.500134 0.9999938
vt 0.499866 0.9999938
vt -2.500135 0.4999938
vt 0.4998661 0.4999938
g submesh0
f 1/1/1 2/2/2 3/3/3
f 4/4/4 1/1/1 3/3/3
f 5/5/5 6/6/6 7/7/7
f 5/5/5 8/8/8 6/6/6
f 9/9/9 10/10/10 11/11/11
f 12/12/12 9/9/9 11/11/11
f 13/13/13 14/14/14 15/15/15
f 13/13/13 16/16/16 14/14/14
f 17/17/17 18/18/18 19/19/19
f 17/17/17 20/20/20 18/18/18
f 21/21/21 22/22/22 23/23/23
f 24/24/24 21/21/21 23/23/23
f 10/10/10 25/25/25 26/26/26
f 11/11/11 10/10/10 26/26/26
f 25/25/25 27/27/27 28/28/28
f 26/26/26 25/25/25 28/28/28
f 29/29/29 16/16/16 13/13/13
f 29/29/29 30/30/30 16/16/16
f 31/31/31 30/30/30 29/29/29
f 31/31/31 32/32/32 30/30/30
f 33/33/33 34/34/34 35/35/35
f 33/33/33 36/36/36 34/34/34
f 33/33/33 17/17/17 19/19/19
f 33/33/33 19/19/19 36/36/36
f 37/37/37 38/38/38 39/39/39
f 40/40/40 37/37/37 39/39/39
f 38/38/38 24/24/24 39/39/39
f 24/24/24 23/23/23 39/39/39
f 41/41/41 42/42/42 43/43/43
f 44/44/44 41/41/41 43/43/43
f 42/42/42 1/1/1 4/4/4
f 43/43/43 42/42/42 4/4/4
f 45/45/45 46/46/46 47/47/47
f 45/45/45 48/48/48 46/46/46
f 7/7/7 48/48/48 45/45/45
f 7/7/7 6/6/6 48/48/48
f 19/19/19 18/18/18 49/49/49
f 19/19/19 49/49/49 50/50/50
f 50/50/50 49/49/49 51/51/51
f 50/50/50 51/51/51 52/52/52
f 53/53/53 54/54/54 55/55/55
f 54/54/54 56/56/56 55/55/55
f 55/55/55 56/56/56 24/24/24
f 56/56/56 21/21/21 24/24/24
f 34/34/34 36/36/36 57/57/57
f 34/34/34 57/57/57 58/58/58
f 58/58/58 57/57/57 59/59/59
f 58/58/58 59/59/59 60/60/60
f 57/57/57 50/50/50 52/52/52
f 57/57/57 52/52/52 59/59/59
f 61/61/61 62/62/62 63/63/63
f 62/62/62 64/64/64 63/63/63
f 63/63/63 64/64/64 37/37/37
f 64/64/64 38/38/38 37/37/37
f 62/62/62 53/53/53 64/64/64
f 53/53/53 55/55/55 64/64/64
f 65/65/65 66/66/66 67/67/67
f 66/66/66 68/68/68 67/67/67
f 69/69/69 70/70/70 71/71/71
f 70/70/70 72/72/72 71/71/71
f 73/73/73 74/74/74 75/75/75
f 74/74/74 76/76/76 75/75/75
f 77/77/77 78/78/78 79/79/79
f 78/78/78 80/80/80 79/79/79
