v 3 -1 4
v 4 0 -1
v 4 3 -1
v 3 3 4
v 4 0 -1
v 4 -1 -9
v 4 3 -9
v 4 3 -1
v -4 3 -6
v -4 0 -1
v -4 3 -1
v -4 0 -6
v -4 3 -1
v -5 -1 4
v -5 3 4
v -4 0 -1
v -5 -1 4
v -1 -1 6
v -1 3 6
v -5 3 4
v -1 -1 6
v 3 -1 4
v 3 3 4
v -1 3 6
v 4 3 -9
v -1 -0.5 -6
v -1 3 -6
v 4 -1 -9
v -1 3 -6
v -4 0 -6
v -4 3 -6
v -1 -0.5 -6
v 4 3 -1
v 0 3 -1
v 3 3 4
v -1 3 6
v -4 3 -1
v -5 3 4
v 4 3 -9
v -1 3 -6
v -4 3 -6
v 0 0 -1
v -1 -0.5 -6
v 4 -1 -9
v 4 0 -1
v -4 0 -1
v -1 -0.5 -6
v 0 0 -1
v -4 0 -6
v -1 -1 6
v 0 0 -1
v 3 -1 4
v 4 0 -1
v -5 -1 4
v -4 0 -1
v -1 -1 6
v 0 0 -1
vn 0.9805807 0 0.1961161
vn 0.9805807 0 0.1961161
vn 0.9805807 0 0.1961161
vn 0.9805807 0 0.1961161
vn 1 0 0
vn 1 0 0
vn 1 0 0
vn 1 0 0
vn -1 0 0
vn -1 0 0
vn -1 0 0
vn -1 0 0
vn -0.9805807 0 -0.1961161
vn -0.9805807 0 -0.1961161
vn -0.9805807 0 -0.1961161
vn -0.9805807 0 -0.1961161
vn -0.4472136 0 0.8944272
vn -0.4472136 0 0.8944272
vn -0.4472136 0 0.8944272
vn -0.4472136 0 0.8944272
vn 0.4472136 0 0.8944272
vn 0.4472136 0 0.8944272
vn 0.4472136 0 0.8944272
vn 0.4472136 0 0.8944272
vn -0.5144957 0 -0.8574929
vn -0.5144957 0 -0.8574929
vn -0.5144957 0 -0.8574929
vn -0.5144957 0 -0.8574929
vn 0 0 -1
vn 0 0 -1
vn 0 0 -1
vn 0 0 -1
vn 0 1 0
vn 0 1 0
vn 0 1 0
vn 0 1 0
vn 0 1 0
vn 0 1 0
vn 0 1 0
vn 0 1 0
vn 0 1 0
vn -0.01774434 -0.9929804 0.1152504
vn -0.03548867 -0.9936828 0.106466
vn -0.01774434 -0.9929804 0.1152504
vn 0 -0.9922779 0.1240347
vn -0.08219949 -0.9907156 0.04975186
vn -0.08219949 -0.9907156 0.04975186
vn 0 -0.9950372 0.09950373
vn -0.164399 -0.9863939 0
vn -0.07580981 -0.9855275 -0.1516196
vn -0.0379049 -0.983054 -0.1738679
vn -0.0379049 -0.983054 -0.1738679
vn 0 -0.9805807 -0.1961161
vn 0.08908708 -0.9799579 -0.1781742
vn 0.04454354 -0.9849537 -0.1597978
vn 0.04454354 -0.9849537 -0.1597978
vn 0 -0.9899495 -0.1414214
vt 3.684921 -1
vt -1.389284 0
vt -1.389284 3
vt 3.684921 3
vt -1.389284 0
vt -9.35035 -1
vt -9.35035 3
vt -1.389284 3
vt 5.57665 3
vt 0.6009829 0
vt 0.6009829 3
vt 5.57665 0
vt 0.6009829 3
vt -4.473221 -1
vt -4.473221 3
vt 0.6009829 0
vt 5 -1
vt 1 -1
vt 1 3
vt 5 3
vt 1 -1
vt -3 -1
vt -3 3
vt 1 3
vt 6.257262 3
vt 0.6378866 -0.5
vt 0.6378866 3
vt 6.257262 -1
vt 0.6378866 3
vt -2.253258 0
vt -2.253258 3
vt 0.6378866 -0.5
vt 4 -1
vt 0 -1
vt 3 4
vt -1 6
vt -4 -1
vt -5 4
vt 4 -9
vt -1 -6
vt -4 -6
vt 0 -0.99951
vt 0.9971757 -5.981236
vt -4.005554 -8.964995
vt -3.999937 -1.000213
vt 3.999937 -0.9988068
vt 0.9971757 -5.981236
vt 0 -0.99951
vt 3.999937 -5.996357
vt 0.9943671 6.028534
vt 0 -0.99951
vt -3.00557 4.028811
vt -3.999937 -1.000213
vt 4.994304 4.030218
vt 3.999937 -0.9988068
vt 0.9943671 6.028534
vt 0 -0.99951
g submesh0
f 1/1/1 2/2/2 3/3/3
f 4/4/4 1/1/1 3/3/3
f 5/5/5 6/6/6 7/7/7
f 8/8/8 5/5/5 7/7/7
f 9/9/9 10/10/10 11/11/11
f 9/9/9 12/12/12 10/10/10
f 13/13/13 14/14/14 15/15/15
f 13/13/13 16/16/16 14/14/14
f 17/17/17 18/18/18 19/19/19
f 20/20/20 17/17/17 19/19/19
f 21/21/21 22/22/22 23/23/23
f 24/24/24 21/21/21 23/23/23
f 25/25/25 26/26/26 27/27/27
f 25/25/25 28/28/28 26/26/26
f 29/29/29 30/30/30 31/31/31
f 29/29/29 32/32/32 30/30/30
f 33/33/33 34/34/34 35/35/35
f 35/35/35 34/34/34 36/36/36
f 34/34/34 37/37/37 36/36/36
f 36/36/36 37/37/37 38/38/38
f 33/33/33 39/39/39 34/34/34
f 39/39/39 40/40/40 34/34/34
f 40/40/40 41/41/41 37/37/37
f 34/34/34 40/40/40 37/37/37
f 42/42/42 43/43/43 44/44/44
f 42/42/42 44/44/44 45/45/45
f 46/46/46 47/47/47 48/48/48
f 46/46/46 49/49/49 47/47/47
f 50/50/50 51/51/51 52/52/52
f 52/52/52 51/51/51 53/53/53
f 54/54/54 55/55/55 56/56/56
f 56/56/56 55/55/55 57/57/57
