v 1.687565 -1 -2.715289
v 2 0 -4
v 2 4 -4.000002
v 1.687566 4 -2.71529
v 2 0 -4
v 0.6854672 -1 -5.61517
v 0.6854675 4 -5.615172
v 2 4 -4.000002
v -4.929705 4 -6.300641
v -5 0 -4
v -5.000002 4 -4.000001
v -4.929703 -1 -6.300638
v -5.000002 4 -4.000001
v -4 0 0
v -4.000001 4 -7.531262E-07
v -5 0 -4
v -4 0 0
v -1.969322 -1 -1.094431
v -1.969323 4 -1.094431
v -4.000001 4 -7.531262E-07
v -1.969322 -1 -1.094431
v 1.687565 -1 -2.715289
v 1.687566 4 -2.71529
v -1.969323 4 -1.094431
v 0.6854675 4 -5.615172
v -1.950751 -1 -7.361697
v -1.950752 4 -7.361699
v 0.6854672 -1 -5.61517
v -1.950752 4 -7.361699
v -4.929703 -1 -6.300638
v -4.929705 4 -6.300641
v -1.950751 -1 -7.361697
v 2 4 -4.000002
v -1.000002 4 -4.000002
v -1.969323 4 -1.094431
v 1.687566 4 -2.71529
v -5.000002 4 -4.000001
v -4.000001 4 -7.531262E-07
v 0.6854675 4 -5.615172
v -1.950752 4 -7.361699
v -1.950752 7 -7.361702
v -4.929706 7 -6.300642
v -5.000003 7 -4.000003
v -1.000002 7 -4.000003
v -1 0 -4
v 0.6854672 -1 -5.61517
v 2 0 -4
v -1.950751 -1 -7.361697
v -5 0 -4
v -1.950751 -1 -7.361697
v -1 0 -4
v -4.929703 -1 -6.300638
v -1.969322 -1 -1.094431
v 2 0 -4
v 1.687565 -1 -2.715289
v -1 0 -4
v -4 0 0
v -1 0 -4
v -1.969322 -1 -1.094431
v -5 0 -4
v -1.950752 4 -7.361699
v -4.929705 4 -6.300641
v -1.950752 7 -7.361702
v -4.929706 7 -6.300642
v -4.929705 4 -6.300641
v -5.000002 4 -4.000001
v -4.929706 7 -6.300642
v -5.000003 7 -4.000003
v -1.000002 4 -4.000002
v -1.950752 4 -7.361699
v -1.000002 7 -4.000003
v -1.950752 7 -7.361702
v -5.000002 4 -4.000001
v -1.000002 4 -4.000002
v -5.000003 7 -4.000003
v -1.000002 7 -4.000003
vn 0.9716784 -1.958211E-08 0.2363071
vn 0.9716784 5.476357E-08 0.2363073
vn 0.9716784 -1.958211E-08 0.2363071
vn 0.9716785 -9.392778E-08 0.2363068
vn 0.7755952 -3.12501E-07 -0.6312307
vn 0.7755952 -2.777786E-07 -0.6312306
vn 0.7755952 -3.12501E-07 -0.6312307
vn 0.7755951 -3.472233E-07 -0.6312307
vn -0.9995335 -4.41696E-07 -0.03054119
vn -0.9995335 -4.41696E-07 -0.03054119
vn -0.9995335 -4.875371E-07 -0.03054127
vn -0.9995335 -3.95855E-07 -0.03054112
vn -0.9701425 -3.324937E-07 0.2425357
vn -0.9701425 -3.324937E-07 0.2425357
vn -0.9701424 -2.891249E-07 0.2425357
vn -0.9701425 -3.758625E-07 0.2425356
vn 0.4744321 2.226283E-07 0.8802921
vn 0.4744323 1.098437E-07 0.880292
vn 0.4744321 2.226283E-07 0.8802921
vn 0.4744319 3.354128E-07 0.8802922
vn 0.4052145 1.041532E-07 0.9142216
vn 0.4052145 1.164075E-07 0.9142216
vn 0.4052145 1.041532E-07 0.9142216
vn 0.4052146 9.189883E-08 0.9142216
vn 0.5523001 -3.44594E-07 -0.8336454
vn 0.5523001 -3.44594E-07 -0.8336454
vn 0.5523001 -3.448417E-07 -0.8336454
vn 0.5523001 -3.443462E-07 -0.8336454
vn -0.3355362 -5.331916E-07 -0.9420273
vn -0.3355362 -5.331916E-07 -0.9420273
vn -0.3355361 -5.771905E-07 -0.9420274
vn -0.3355362 -4.891927E-07 -0.9420273
vn 0 1 0
vn 0 1 0
vn 0 1 0
vn 0 1 0
vn 0 1 0
vn 0 1 0
vn 0 1 0
vn 0 1 0
vn 0 1 0
vn 0 1 0
vn 0 1 0
vn 0 1 0
vn -0.1110265 -0.8829255 0.4307867
vn -0.1110265 -0.8829255 0.4307867
vn 0 -0.8502339 0.5264051
vn -0.222053 -0.9156171 0.3351683
vn 0.07092442 -0.9323683 0.341683
vn 0.07092442 -0.9323683 0.341683
vn 0 -0.9584914 0.2851214
vn 0.1418488 -0.9062451 0.3982446
vn -0.1398753 -0.8345079 -0.4782946
vn -0.1398753 -0.8345079 -0.4782946
vn -0.2797506 -0.7234504 -0.6311571
vn 0 -0.9455654 -0.3254321
vn -0.2874205 -0.847737 -0.2155654
vn -0.2874205 -0.847737 -0.2155654
vn -0.574841 -0.695474 -0.4311307
vn 0 -1 0
vn -0.3355361 -9.783854E-07 -0.9420274
vn -0.3355362 -8.686532E-07 -0.9420273
vn -0.3355362 -8.686532E-07 -0.9420273
vn -0.3355363 -7.58921E-07 -0.9420273
vn -0.9995335 -4.960323E-07 -0.03054127
vn -0.9995335 -4.936052E-07 -0.03054127
vn -0.9995335 -4.936052E-07 -0.03054127
vn -0.9995335 -4.91178E-07 -0.03054127
vn 0.9622566 -9.15317E-08 -0.2721439
vn 0.9622566 -6.08243E-08 -0.272144
vn 0.9622566 -6.08243E-08 -0.272144
vn 0.9622566 -3.01169E-08 -0.272144
vn 1.192093E-07 4.768372E-07 1
vn 1.192092E-07 4.768372E-07 1
vn 1.192092E-07 4.768372E-07 1
vn 1.192092E-07 4.768372E-07 1
vt -2.276438 -0.9999997
vt -3.46066 3.52651E-07
vt -3.460662 4
vt -2.276439 4
vt -3.46066 3.52651E-07
vt -5.325894 -0.9999998
vt -5.325896 4
vt -3.460662 4
vt 6.791994 4.000001
vt 4.512086 1.781158E-06
vt 4.512088 4.000002
vt 6.791992 -0.9999983
vt 4.512088 4.000002
vt 0.4280443 1.559177E-06
vt 0.4280452 4.000001
vt 4.512086 1.781158E-06
vt 3.591696 1.993173E-07
vt 1.286587 -0.9999998
vt 1.286588 4
vt 3.591697 4
vt 1.286587 -0.9999998
vt -2.710441 -0.9999998
vt -2.710442 4
vt 1.286588 4
vt -5.930602E-07 4.000003
vt -2.828428 -0.9999964
vt -2.828429 4.000004
vt -5.985995E-07 -0.9999971
vt -2.828429 4.000004
vt -5.656855 -0.9999971
vt -5.656857 4.000003
vt -2.828428 -0.9999964
vt 2 -4.000002
vt -1.000002 -4.000002
vt -1.969323 -1.094431
vt 1.687566 -2.71529
vt -5.000002 -4.000001
vt -4.000001 -7.531262E-07
vt 0.6854675 -5.615172
vt -1.950752 -7.361699
vt -1.950752 -7.361702
vt -4.929706 -6.300642
vt -5.000003 -4.000003
vt -1.000002 -4.000003
vt 0.9666894 -3.969597
vt -0.9185863 -5.540142
vt -1.933379 -4.027104
vt 1.629818 -7.23123
vt 4.833447 -3.892921
vt 1.629818 -7.23123
vt 0.9666894 -3.969597
vt 4.509539 -6.116048
vt 1.64777 -0.9812096
vt -1.933379 -4.027104
vt -1.887303 -2.667614
vt 0.9666894 -3.969597
vt 3.866758 0.0766759
vt 0.9666894 -3.969597
vt 1.64777 -0.9812096
vt 4.833447 -3.892921
vt 0.632454 4.000008
vt -2.529825 4.000008
vt 0.6324543 7.000008
vt -2.529825 7.000008
vt 6.147142 4.000002
vt 3.845429 4.000002
vt 6.147144 7.000002
vt 3.845431 7.000002
vt -4.121172 4
vt -7.614728 4
vt -4.121174 7
vt -7.614731 7
vt 5.000001 4.000002
vt 1.000001 4.000002
vt 5.000003 7.000002
vt 1.000001 7.000002
g submesh0
f 1/1/1 2/2/2 3/3/3
f 4/4/4 1/1/1 3/3/3
f 5/5/5 6/6/6 7/7/7
f 8/8/8 5/5/5 7/7/7
f 9/9/9 10/10/10 11/11/11
f 9/9/9 12/12/12 10/10/10
f 13/13/13 14/14/14 15/15/15
f 13/13/13 16/16/16 14/14/14
f 17/17/17 18/18/18 19/19/19
f 20/20/20 17/17/17 19/19/19
f 21/21/21 22/22/22 23/23/23
f 24/24/24 21/21/21 23/23/23
f 25/25/25 26/26/26 27/27/27
f 25/25/25 28/28/28 26/26/26
f 29/29/29 30/30/30 31/31/31
f 29/29/29 32/32/32 30/30/30
f 33/33/33 34/34/34 35/35/35
f 36/36/36 33/33/33 35/35/35
f 34/34/34 37/37/37 38/38/38
f 35/35/35 34/34/34 38/38/38
f 39/39/39 40/40/40 34/34/34
f 33/33/33 39/39/39 34/34/34
f 41/41/41 42/42/42 43/43/43
f 44/44/44 41/41/41 43/43/43
f 45/45/45 46/46/46 47/47/47
f 45/45/45 48/48/48 46/46/46
f 49/49/49 50/50/50 51/51/51
f 49/49/49 52/52/52 50/50/50
f 53/53/53 54/54/54 55/55/55
f 53/53/53 56/56/56 54/54/54
f 57/57/57 58/58/58 59/59/59
f 57/57/57 60/60/60 58/58/58
f 61/61/61 62/62/62 63/63/63
f 62/62/62 64/64/64 63/63/63
f 65/65/65 66/66/66 67/67/67
f 66/66/66 68/68/68 67/67/67
f 69/69/69 70/70/70 71/71/71
f 70/70/70 72/72/72 71/71/71
f 73/73/73 74/74/74 75/75/75
f 74/74/74 76/76/76 75/75/75
