v -3.999837 0.5 4.999781
v 5.999726 0.5 5.000332
v -3.999837 1 4.999781
v 5.999726 1 5.000332
v 6.000495 0.5 -8.999674
v -4 0.5 -9
v 6.000495 1 -8.999674
v -4 1 -9
v 5.999726 0.5 5.000332
v 6.000056 0.5 -0.9996701
v 6.000056 1 -0.9996701
v 5.999726 1 5.000332
v 6.000495 0.5 -8.999674
v 6.000495 1 -8.999674
v -4 1 -9
v -3.999974 0.5 -1.00022
v -3.999974 1 -1.00022
v -4 0.5 -9
v -3.999837 0.5 4.999781
v -3.999837 1 4.999781
v 6.000056 1 -0.9996701
v -3.999974 1 -1.00022
v -3.999837 1 4.999781
v 5.999726 1 5.000332
v 6.000495 1 -8.999674
v -4 1 -9
v -3.999974 0.5 -1.00022
v 6.000495 0.5 -8.999674
v 6.000056 0.5 -0.9996701
v -4 0.5 -9
v -3.999837 0.5 4.999781
v 5.999726 0.5 5.000332
vn -5.512478E-05 0 1
vn -5.512478E-05 0 1
vn -5.512478E-05 0 1
vn -5.512478E-05 0 1
vn 3.261404E-05 0 -1
vn 3.261404E-05 0 -1
vn 3.261404E-05 0 -1
vn 3.261404E-05 0 -1
vn 1 0 5.49952E-05
vn 1 0 5.49952E-05
vn 1 0 5.49952E-05
vn 1 0 5.49952E-05
vn 1 0 5.495546E-05
vn 1 0 5.495546E-05
vn -1 0 3.278346E-06
vn -1 0 3.278346E-06
vn -1 0 3.278346E-06
vn -1 0 3.278346E-06
vn -1 0 2.280871E-05
vn -1 0 2.280871E-05
vn 0 1 0
vn 0 1 0
vn 0 1 0
vn 0 1 0
vn 0 1 0
vn 0 1 0
vn 0 -1 0
vn 0 -1 0
vn 0 -1 0
vn 0 -1 0
vn 0 -1 0
vn 0 -1 0
vt 3.999561 0.5
vt -6.000001 0.5
vt 3.999561 1
vt -6.000001 1
vt 6.000202 0.5
vt -4.000294 0.5
vt 6.000202 1
vt -4.000294 1
vt 5.000002 0.5
vt -1 0.5
vt -1 1
vt 5.000002 1
vt -9.000004 0.5
vt -9.000004 1
vt 9.000052 1
vt 1.000272 0.5
vt 1.000272 1
vt 9.000052 0.5
vt -4.999729 0.5
vt -4.999729 1
vt 6.000056 -0.9996701
vt -3.999974 -1.00022
vt -3.999837 4.999781
vt 5.999726 5.000332
vt 6.000495 -8.999674
vt -4 -9
vt 3.999974 -1.00022
vt -6.000495 -8.999674
vt -6.000056 -0.9996701
vt 4 -9
vt 3.999837 4.999781
vt -5.999726 5.000332
g submesh0
f 1/1/1 2/2/2 3/3/3
f 2/2/2 4/4/4 3/3/3
f 5/5/5 6/6/6 7/7/7
f 6/6/6 8/8/8 7/7/7
f 9/9/9 10/10/10 11/11/11
f 12/12/12 9/9/9 11/11/11
f 10/10/10 13/13/13 14/14/14
f 11/11/11 10/10/10 14/14/14
f 15/15/15 16/16/16 17/17/17
f 15/15/15 18/18/18 16/16/16
f 17/17/17 19/19/19 20/20/20
f 17/17/17 16/16/16 19/19/19
f 21/21/21 22/22/22 23/23/23
f 24/24/24 21/21/21 23/23/23
f 25/25/25 26/26/26 22/22/22
f 21/21/21 25/25/25 22/22/22
f 27/27/27 28/28/28 29/29/29
f 27/27/27 30/30/30 28/28/28
f 31/31/31 29/29/29 32/32/32
f 31/31/31 27/27/27 29/29/29
