v -1.02333 0.4999985 -0.4396711
v 2.000004 0.4999981 -0.3304874
v -0.8734194 0.9999987 -0.7265785
v 2.000005 0.9999985 -0.7228224
v 2.000004 0.4999981 -0.3304874
v 2.000003 0.5000007 -15.12228
v 2.000005 0.9999985 -0.7228224
v 2.000003 1.000001 -14.84226
v 2.000003 0.5000007 -15.12228
v -1.106995 0.5000008 -15.18414
v 2.000003 1.000001 -14.84226
v -1.106999 0.9999971 -14.90411
v -1.106995 0.5000008 -15.18414
v -1.02333 0.4999985 -0.4396711
v -1.106999 0.9999971 -14.90411
v -0.8734194 0.9999987 -0.7265785
v -0.8734194 0.9999987 -0.7265785
v 2.000005 0.9999985 -0.7228224
v -1.106999 0.9999971 -14.90411
v 2.000003 1.000001 -14.84226
v -1.106995 0.5000008 -15.18414
v 2.000003 0.5000007 -15.12228
v -1.02333 0.4999985 -0.4396711
v 2.000004 0.4999981 -0.3304874
vn -0.03116126 0.5044687 0.8628675
vn -0.01609479 0.5608908 0.8247923
vn -0.01609479 0.5608908 0.8247923
vn -0.001028319 0.6173128 0.7867171
vn 1 -3.375801E-06 -4.835548E-08
vn 1 -1.640617E-06 -1.086069E-07
vn 1 -1.640617E-06 -1.086069E-07
vn 1 9.456672E-08 -1.688583E-07
vn 0.01736706 0.4885535 -0.8723611
vn 0.0173659 0.4885587 -0.8723582
vn 0.0173659 0.4885587 -0.8723582
vn 0.01736474 0.4885639 -0.8723553
vn -0.9999788 -0.003185718 0.005674213
vn -0.9776068 0.1461222 0.010706
vn -0.9776068 0.1461222 0.010706
vn -0.9552347 0.2954302 0.01573778
vn 6.237997E-08 1 -1.145401E-07
vn -5.362078E-07 1 1.660558E-08
vn -5.362078E-07 1 1.660558E-08
vn -1.134796E-06 1 1.477513E-07
vn -3.527355E-08 -1 -1.554365E-07
vn -7.368902E-08 -1 -1.633467E-07
vn -7.368902E-08 -1 -1.633467E-07
vn -1.121045E-07 -1 -1.712569E-07
vt 1.038531 0.6347384
vt -1.986773 0.634738
vt 0.8990726 1.213824
vt -1.972616 1.264245
vt -0.3304873 0.5000049
vt -15.12228 0.5000074
vt -0.7228223 1.000005
vt -14.84226 1.000007
vt 1.69861 -6.96976
vt -1.409003 -6.96976
vt 1.704184 -6.396717
vt -1.403434 -6.396717
vt 15.19017 0.5032503
vt 0.4454707 0.503248
vt 14.91015 1.003249
vt 0.7315228 1.002763
vt -0.8734195 -0.7265784
vt 2.000005 -0.7228223
vt -1.106999 -14.90411
vt 2.000003 -14.84226
vt 1.106995 -15.18414
vt -2.000003 -15.12228
vt 1.02333 -0.4396712
vt -2.000004 -0.3304875
g submesh0
f 1/1/1 2/2/2 3/3/3
f 2/2/2 4/4/4 3/3/3
f 5/5/5 6/6/6 7/7/7
f 6/6/6 8/8/8 7/7/7
f 9/9/9 10/10/10 11/11/11
f 10/10/10 12/12/12 11/11/11
f 13/13/13 14/14/14 15/15/15
f 14/14/14 16/16/16 15/15/15
f 17/17/17 18/18/18 19/19/19
f 18/18/18 20/20/20 19/19/19
f 21/21/21 22/22/22 23/23/23
f 22/22/22 24/24/24 23/23/23
