v 0 0 10
v 4 0 10
v 0 6 10
v 4 2 10
v 4 0 10
v 4 0 -2
v 4 2 10
v 4 2 -2
v 4 0 -2
v 0 0 -2
v 4 2 -2
v 0 6 -2
v -1 0 -2
v -1 0 10
v -1 6 -2
v -1 6 10
v 0 0 -2
v 4 0 -2
v 0 0 10
v 4 0 10
v -1 0 -2
v -1 0 10
v -1 6 -2
v -1 0 -2
v -1 0 10
v -1 6 10
v 0 6 10
v 4 2 10
v 0 6 -2
v 4 2 -2
v 0 6 10
v 0 6 -2
v -1 6 10
v -1 6 -2
vn 0 0 1
vn 0 0 1
vn 0 0 1
vn 0 0 1
vn 1 0 0
vn 1 0 0
vn 1 0 0
vn 1 0 0
vn 0 0 -1
vn 0 0 -1
vn 0 0 -1
vn 0 0 -1
vn -1 0 0
vn -1 0 0
vn -1 0 0
vn -1 0 0
vn 0 -1 0
vn 0 -1 0
vn 0 -1 0
vn 0 -1 0
vn 0 -1 0
vn 0 -1 0
vn 0 0 -1
vn 0 0 -1
vn 0 0 1
vn 0 0 1
vn 0.7071068 0.7071068 0
vn 0.7071068 0.7071068 0
vn 0.7071068 0.7071068 0
vn 0.7071068 0.7071068 0
vn 0 1 0
vn 0 1 0
vn 0 1 0
vn 0 1 0
vt 0 0
vt -4 0
vt 0 6
vt -4 2
vt 10 0
vt -2 0
vt 10 2
vt -2 2
vt 4 0
vt 0 0
vt 4 2
vt 0 6
vt 2 0
vt -10 0
vt 2 6
vt -10 6
vt 0 -2
vt -4 -2
vt 0 10
vt -4 10
vt 1 -2
vt 1 10
vt -1 6
vt -1 0
vt 1 0
vt 1 6
vt -4.24264 10
vt 1.414214 10
vt -4.24264 -2
vt 1.414214 -2
vt 0 10
vt 0 -2
vt -1 10
vt -1 -2
g submesh0
f 1/1/1 2/2/2 3/3/3
f 2/2/2 4/4/4 3/3/3
f 5/5/5 6/6/6 7/7/7
f 6/6/6 8/8/8 7/7/7
f 9/9/9 10/10/10 11/11/11
f 10/10/10 12/12/12 11/11/11
f 13/13/13 14/14/14 15/15/15
f 14/14/14 16/16/16 15/15/15
f 17/17/17 18/18/18 19/19/19
f 18/18/18 20/20/20 19/19/19
f 17/17/17 19/19/19 21/21/21
f 19/19/19 22/22/22 21/21/21
f 12/12/12 10/10/10 23/23/23
f 10/10/10 24/24/24 23/23/23
f 1/1/1 3/3/3 25/25/25
f 3/3/3 26/26/26 25/25/25
g submesh1
f 27/27/27 28/28/28 29/29/29
f 28/28/28 30/30/30 29/29/29
f 31/31/31 32/32/32 33/33/33
f 32/32/32 34/34/34 33/33/33
