v -1 0 -4
v 1.473048 0 -6.231384
v 2 0 -4
v -0.7911469 0 -10.26519
v -5 0 -4
v -0.7911469 0 -10.26519
v -6.094847 1 -8.297762
v -2.020005 0 -0.9589472
v 0.958947 0 -2.020006
v -4.656223 0 -2.705473
v -5 0 -4
v 6.779269 0 2.01035
v 6.971837 0 -5.602989
v 6.779269 4 2.01035
v 6.971837 4 -5.602989
v 4.469631 4 -0.149644
v 3.411095 4 -5.03631
v 4.469631 13 -0.149644
v 3.411095 13 -5.03631
v 3.411095 4 -5.03631
v 3.336273 4 -7.271126
v 3.411095 13 -5.03631
v 3.336273 13 -7.271126
v -9.730411 4 -9.965899
v -9.730411 0 -9.965899
v -11.32373 4 -4.09552
v -11.32373 0 -4.09552
v -6.511882 13 -7.388871
v -7.912631 4 -9.131831
v -7.688162 13 -2.427383
v -7.688164 4 -2.427383
v -11.32373 4 -4.09552
v -11.32373 0 -4.09552
v -7.538517 4 2.042249
v -7.538517 0 2.042249
v -7.688162 13 -2.427383
v -7.688164 4 -2.427383
v -6.287415 13 -0.6844233
v -6.287416 4 -0.6844241
v -7.538517 0 2.042249
v -2.01035 0 6.779271
v -7.538517 4 2.042249
v -2.01035 4 6.779271
v -6.287416 4 -0.6844241
v -2.159995 4 2.309639
v -2.159995 13 2.309639
v -6.287415 13 -0.6844233
v -2.01035 0 6.779271
v 6.779269 0 2.01035
v -2.01035 4 6.779271
v 6.779269 4 2.01035
v -2.159995 4 2.309639
v 4.469631 4 -0.149644
v -2.159995 13 2.309639
v 4.469631 13 -0.149644
v -1.163171 13 -7.977911
v 3.336273 13 -7.271126
v 3.336273 4 -7.271126
v -0.7911495 4 -10.26519
v -3.175607 4 -14.66
v -3.175607 0 -14.66
v -9.730411 4 -9.965899
v -9.730411 0 -9.965899
v -1.163171 13 -7.977911
v -0.7911495 4 -10.26519
v -6.511882 13 -7.388871
v -7.912631 4 -9.131831
v 6.779269 0 2.01035
v 6.971837 0 -5.602989
v 5.421444 0 -11.81558
v -3.175607 0 -14.66
v -0.7911469 0 -10.26519
v -6.094847 1 -8.297762
v -3.175607 0 -14.66
v -9.730411 0 -9.965899
v -6.094847 1 -8.297762
v -5 0 -4
v -9.730411 0 -9.965899
v -11.32373 0 -4.09552
v -11.32373 0 -4.09552
v -7.538517 0 2.042249
v -2.01035 0 6.779271
v 6.971837 4 -5.602989
v 6.971837 0 -5.602989
v 10.04072 0 -7.495593
v 10.04072 0 -7.495593
v 8.907363 0 -14.61707
v -0.5985804 0 -17.87853
v 5.421444 4 -11.81558
v 6.971837 4 -5.602989
v 8.907363 0 -14.61707
v 10.04072 0 -7.495593
v -3.175607 0 -14.66
v -3.175607 4 -14.66
v -0.5985804 0 -17.87853
v -3.175607 4 -14.66
v 5.421444 4 -11.81558
v -0.5985804 0 -17.87853
v 8.907363 0 -14.61707
v 3.411095 13 -5.03631
v -1.000002 13 -4
v -2.159995 13 2.309639
v 4.469631 13 -0.149644
v -7.688162 13 -2.427383
v -6.287415 13 -0.6844233
v 3.336273 13 -7.271126
v -1.163171 13 -7.977911
v -6.511882 13 -7.388871
v 4.469631 4 -0.149644
v -2.159995 4 2.309639
v 6.779269 4 2.01035
v -2.01035 4 6.779271
v 3.411095 4 -5.03631
v 6.971837 4 -5.602989
v 3.336273 4 -7.271126
v 5.421444 4 -11.81558
v -7.912631 4 -9.131831
v -0.7911495 4 -10.26519
v -9.730411 4 -9.965899
v -3.175607 4 -14.66
v -7.688164 4 -2.427383
v -11.32373 4 -4.09552
v -6.287416 4 -0.6844241
v -7.538517 4 2.042249
vn 0 -1 0
vn 0 -1 0
vn 0 -1 0
vn 0 -1 0
vn -0.1201849 -0.978578 -0.08073829
vn -0.1201849 -0.978578 -0.08073829
vn -0.2403698 -0.9571561 -0.1614766
vn 0 -1 0
vn 0 -1 0
vn 0 -1 0
vn 0 -1 0
vn 0.9996803 0 0.02528533
vn 0.9996803 0 0.02528533
vn 0.9996803 0 0.02528533
vn 0.9996803 0 0.02528533
vn 0.9773331 0 -0.2117071
vn 0.9773332 -2.589049E-08 -0.2117071
vn 0.9773332 -2.589049E-08 -0.2117071
vn 0.9773332 -5.178098E-08 -0.2117071
vn 0.99944 -5.295224E-08 -0.0334615
vn 0.99944 -5.295224E-08 -0.0334615
vn 0.99944 -5.295224E-08 -0.0334615
vn 0.99944 -5.295224E-08 -0.0334615
vn -0.9650843 0 -0.2619394
vn -0.9650843 0 -0.2619394
vn -0.9650843 0 -0.2619394
vn -0.9650843 0 -0.2619394
vn -0.9548388 0.1924502 -0.2263752
vn -0.9771394 0.09622522 -0.09645683
vn -0.9771394 0.09622522 -0.09645683
vn -0.99944 2.091497E-07 0.03346153
vn -0.8511553 0 0.5249138
vn -0.8511553 0 0.5249138
vn -0.8511553 0 0.5249138
vn -0.8511553 0 0.5249138
vn -0.7794751 1.154079E-07 0.6264332
vn -0.7794751 1.133335E-07 0.6264332
vn -0.7794751 1.133335E-07 0.6264332
vn -0.7794751 1.112592E-07 0.6264332
vn -0.6506799 0 0.7593521
vn -0.6506799 0 0.7593521
vn -0.6506799 0 0.7593521
vn -0.6506799 0 0.7593521
vn -0.5871838 3.220851E-08 0.8094536
vn -0.5871838 9.666921E-09 0.8094536
vn -0.5871838 3.220851E-08 0.8094536
vn -0.5871839 5.47501E-08 0.8094535
vn 0.4768921 0 0.8789619
vn 0.4768921 0 0.8789619
vn 0.4768921 0 0.8789619
vn 0.4768921 0 0.8789619
vn 0.3477951 -4.326398E-08 0.9375706
vn 0.3477951 -2.163199E-08 0.9375706
vn 0.3477951 -2.163199E-08 0.9375706
vn 0.3477951 0 0.9375706
vn 0.3637121 0.1120682 -0.8883728
vn 0.1551798 -8.221724E-09 -0.9878863
vn 0.3637121 0.1120682 -0.8883728
vn 0.5722445 0.2241364 -0.7888594
vn -0.5822313 0 -0.8130232
vn -0.5822313 0 -0.8130232
vn -0.5822313 0 -0.8130232
vn -0.5822313 0 -0.8130232
vn -0.1062448 0.2407904 -0.9647445
vn -0.1299397 0.2258284 -0.9650553
vn -0.1299397 0.2258284 -0.9650553
vn -0.1536345 0.2108664 -0.9653661
vn 0 -1 0
vn 0 -1 0
vn 0 -1 0
vn 0 -1 0
vn -0.1545133 -0.9844276 0.08383316
vn 0.003293872 -0.9726926 0.1543967
vn 0.003293872 -0.9726926 0.1543967
vn 0.161101 -0.9609575 0.2249602
vn 0.3785562 -0.8755564 -0.3001603
vn 0.1892781 -0.9377782 -0.1500802
vn 0.1892781 -0.9377782 -0.1500802
vn 0 -1 0
vn 0 -1 0
vn 0 -1 0
vn 0 -1 0
vn 0.5249138 0 0.8511553
vn 0.5249138 0 0.8511553
vn 0.5249138 0 0.8511553
vn 0 -1 0
vn 0 -1 0
vn 0 -1 0
vn 0.6808957 0.7123956 -0.1699219
vn 0.7200241 0.6759989 -0.1453691
vn 0.7200241 0.6759989 -0.1453691
vn 0.7591525 0.6396022 -0.1208164
vn -0.7806082 0 -0.6250207
vn -0.7806082 0 -0.6250207
vn -0.7806082 0 -0.6250207
vn 0.2258879 0.694877 -0.6827303
vn 0.230862 0.6909118 -0.6850532
vn 0.230862 0.6909118 -0.6850532
vn 0.2358361 0.6869465 -0.687376
vn 0 1 0
vn 0 1 0
vn 0 1 0
vn 0 1 0
vn 0 1 0
vn 0 1 0
vn 0 1 0
vn 0 1 0
vn 0 1 0
vn 0 1 0
vn 0 1 0
vn 0 1 0
vn 0 1 0
vn 0 1 0
vn 0 1 0
vn 0 1 0
vn 0 1 0
vn 0 1 0
vn 0 1 0
vn 0 1 0
vn 0 1 0
vn 0 1 0
vn 0 1 0
vn 0 1 0
vn 0 1 0
vt 1 -4
vt -1.473048 -6.231384
vt -2 -4
vt 0.7911469 -10.26519
vt 5 -4
vt 0.7911469 -10.26519
vt 6.094847 -8.297762
vt 2.020005 -0.9589472
vt -0.958947 -2.020006
vt 4.656223 -2.705473
vt 5 -4
vt 1.838291 0
vt -5.777483 0
vt 1.838291 4
vt -5.777483 4
vt 0.4016234 4
vt -4.578174 4
vt 0.4016234 13
vt -4.578174 13
vt -4.578174 4
vt -6.805207 4
vt -4.578174 13
vt -6.805207 13
vt 7.069156 4
vt 7.069156 0
vt 0.9863925 4
vt 0.9863925 0
vt 8.663478 12.42109
vt 10.67669 3.368627
vt 4.093337 12.17799
vt 4.093338 3.230141
vt 9.429904 4
vt 9.429904 0
vt 2.218801 4
vt 2.218801 0
vt 4.093337 12.17799
vt 4.093338 3.230141
vt 2.080131 12.2826
vt 2.080132 3.334754
vt 4.395539 0
vt -2.884571 0
vt 4.395539 4
vt -2.884571 4
vt 6.322124 4
vt 1.826446 4
vt 1.826445 13
vt 6.322122 13
vt 5.000001 0
vt -4.999999 0
vt 5.000001 4
vt -4.999999 4
vt 1.826446 4
vt -4.407936 4
vt 1.826445 13
vt -4.407936 13
vt -1.362678 11.9301
vt 3.153061 12.00275
vt 3.153061 3.070371
vt -1.048077 2.716811
vt 5.953667 4
vt 5.953667 0
vt -2.108591 4
vt -2.108591 0
vt -1.362678 11.9301
vt -1.048077 2.716811
vt -6.694952 12.01854
vt -8.138928 2.877264
vt -6.779269 2.01035
vt -6.971837 -5.602989
vt -5.421444 -11.81558
vt 3.175607 -14.66
vt 0.7815781 -10.23934
vt 6.17619 -8.26496
vt 3.137199 -14.64967
vt 9.612723 -10.0573
vt 5.197489 -8.916673
vt 4.589405 -4.411157
vt 8.931359 -10.66545
vt 10.39383 -5.255557
vt 11.32373 -4.09552
vt 7.538517 2.042249
vt 2.01035 6.779271
vt -8.875202 4
vt -8.875202 0
vt -12.48075 0
vt -10.04072 -7.495593
vt -8.907363 -14.61707
vt 0.5985804 -17.87853
vt 1.155433 -10.51589
vt 2.276225 -4.211617
vt 6.439209 -13.35872
vt 7.258523 -6.207743
vt 9.458894 0
vt 9.458894 4
vt 13.582 0
vt -4.256649 -8.784753
vt 3.919256 -4.891866
vt -0.5692576 -13.18965
vt 8.471016 -8.800213
vt 3.411095 -5.03631
vt -1.000002 -4
vt -2.159995 2.309639
vt 4.469631 -0.149644
vt -7.688162 -2.427383
vt -6.287415 -0.6844233
vt 3.336273 -7.271126
vt -1.163171 -7.977911
vt -6.511882 -7.388871
vt 4.469631 -0.149644
vt -2.159995 2.309639
vt 6.779269 2.01035
vt -2.01035 6.779271
vt 3.411095 -5.03631
vt 6.971837 -5.602989
vt 3.336273 -7.271126
vt 5.421444 -11.81558
vt -7.912631 -9.131831
vt -0.7911495 -10.26519
vt -9.730411 -9.965899
vt -3.175607 -14.66
vt -7.688164 -2.427383
vt -11.32373 -4.09552
vt -6.287416 -0.6844241
vt -7.538517 2.042249
g submesh0
f 1/1/1 2/2/2 3/3/3
f 1/1/1 4/4/4 2/2/2
f 5/5/5 6/6/6 1/1/1
f 5/5/5 7/7/7 6/6/6
f 8/8/8 3/3/3 9/9/9
f 8/8/8 1/1/1 3/3/3
f 10/10/10 1/1/1 8/8/8
f 10/10/10 11/11/11 1/1/1
f 12/12/12 13/13/13 14/14/14
f 14/14/14 13/13/13 15/15/15
f 16/16/16 17/17/17 18/18/18
f 18/18/18 17/17/17 19/19/19
f 20/20/20 21/21/21 22/22/22
f 22/22/22 21/21/21 23/23/23
f 24/24/24 25/25/25 26/26/26
f 26/26/26 25/25/25 27/27/27
f 28/28/28 29/29/29 30/30/30
f 30/30/30 29/29/29 31/31/31
f 32/32/32 33/33/33 34/34/34
f 34/34/34 33/33/33 35/35/35
f 36/36/36 37/37/37 38/38/38
f 38/38/38 37/37/37 39/39/39
f 40/40/40 41/41/41 42/42/42
f 41/41/41 43/43/43 42/42/42
f 44/44/44 45/45/45 46/46/46
f 47/47/47 44/44/44 46/46/46
f 48/48/48 49/49/49 50/50/50
f 50/50/50 49/49/49 51/51/51
f 52/52/52 53/53/53 54/54/54
f 54/54/54 53/53/53 55/55/55
f 56/56/56 57/57/57 58/58/58
f 59/59/59 56/56/56 58/58/58
f 60/60/60 61/61/61 62/62/62
f 62/62/62 61/61/61 63/63/63
f 64/64/64 65/65/65 66/66/66
f 66/66/66 65/65/65 67/67/67
f 9/9/9 3/3/3 68/68/68
f 3/3/3 69/69/69 68/68/68
f 3/3/3 2/2/2 69/69/69
f 2/2/2 70/70/70 69/69/69
f 2/2/2 4/4/4 70/70/70
f 4/4/4 71/71/71 70/70/70
f 72/72/72 73/73/73 74/74/74
f 73/73/73 75/75/75 74/74/74
f 76/76/76 77/77/77 78/78/78
f 77/77/77 79/79/79 78/78/78
f 11/11/11 10/10/10 80/80/80
f 10/10/10 81/81/81 80/80/80
f 10/10/10 8/8/8 81/81/81
f 8/8/8 82/82/82 81/81/81
f 8/8/8 9/9/9 82/82/82
f 9/9/9 68/68/68 82/82/82
f 83/83/83 84/84/84 85/85/85
f 69/69/69 70/70/70 86/86/86
f 70/70/70 87/87/87 86/86/86
f 70/70/70 71/71/71 87/87/87
f 71/71/71 88/88/88 87/87/87
f 89/89/89 90/90/90 91/91/91
f 90/90/90 92/92/92 91/91/91
f 93/93/93 94/94/94 95/95/95
f 96/96/96 97/97/97 98/98/98
f 97/97/97 99/99/99 98/98/98
g submesh1
f 100/100/100 101/101/101 102/102/102
f 103/103/103 100/100/100 102/102/102
f 101/101/101 104/104/104 105/105/105
f 102/102/102 101/101/101 105/105/105
f 106/106/106 107/107/107 101/101/101
f 100/100/100 106/106/106 101/101/101
f 107/107/107 108/108/108 104/104/104
f 101/101/101 107/107/107 104/104/104
f 109/109/109 110/110/110 111/111/111
f 110/110/110 112/112/112 111/111/111
f 113/113/113 109/109/109 114/114/114
f 109/109/109 111/111/111 114/114/114
f 115/115/115 113/113/113 116/116/116
f 113/113/113 114/114/114 116/116/116
f 117/117/117 118/118/118 119/119/119
f 118/118/118 120/120/120 119/119/119
f 118/118/118 115/115/115 120/120/120
f 115/115/115 116/116/116 120/120/120
f 121/121/121 117/117/117 122/122/122
f 117/117/117 119/119/119 122/122/122
f 123/123/123 121/121/121 124/124/124
f 121/121/121 122/122/122 124/124/124
f 110/110/110 123/123/123 112/112/112
f 123/123/123 124/124/124 112/112/112
