v 2 0 0
v 2 0 -4
v 2 3 -4
v 2 3 -1.804369E-08
v 2 0 -4
v 0.6854672 -1 -5.61517
v 0.6854672 3 -5.61517
v 2 3 -4
v -4.929703 3 -6.300638
v -5 0 -4
v -5 3 -4
v -4.929703 -1 -6.300638
v -5 3 -4
v -4 0 0
v -4 3 -6.791684E-07
v -5 0 -4
v -4 0 0
v -1 0 1
v -1.000001 3 1
v -4 3 -6.791684E-07
v -1 0 1
v 2 0 0
v 2 3 -1.804369E-08
v -1.000001 3 1
v 0.6854672 3 -5.61517
v -1.950751 -1 -7.361697
v -1.950751 3 -7.361697
v 0.6854672 -1 -5.61517
v -1.950751 3 -7.361697
v -4.929703 -1 -6.300638
v -4.929703 3 -6.300638
v -1.950751 -1 -7.361697
v 2 3 -4
v -1.000001 3 -4
v -1.000001 3 1
v 2 3 -1.804369E-08
v -5 3 -4
v -4 3 -6.791684E-07
v 0.6854672 3 -5.61517
v -1.950751 3 -7.361697
v -4.929703 3 -6.300638
v -1 0 -4
v 0.6854672 -1 -5.61517
v 2 0 -4
v -1.950751 -1 -7.361697
v -5 0 -4
v -1.950751 -1 -7.361697
v -1 0 -4
v -4.929703 -1 -6.300638
v -1 0 1
v 2 0 -4
v 2 0 0
v -1 0 -4
v -4 0 0
v -5 0 -4
vn 1 1.390775E-07 -1.490116E-08
vn 1 1.589457E-07 0
vn 1 1.390775E-07 -1.490116E-08
vn 1 1.192093E-07 -2.980232E-08
vn 0.7755952 1.147306E-08 -0.6312307
vn 0.7755951 0 -0.6312307
vn 0.7755952 1.147306E-08 -0.6312307
vn 0.7755952 2.294611E-08 -0.6312307
vn -0.9995335 0 -0.03054129
vn -0.9995335 0 -0.03054129
vn -0.9995335 0 -0.03054129
vn -0.9995335 0 -0.03054129
vn -0.9701425 2.89125E-08 0.2425357
vn -0.9701425 2.89125E-08 0.2425357
vn -0.9701425 5.782501E-08 0.2425357
vn -0.9701425 0 0.2425356
vn -0.3162279 3.827424E-08 0.9486833
vn -0.3162278 -1.382234E-07 0.9486833
vn -0.3162279 3.827424E-08 0.9486833
vn -0.3162281 2.147719E-07 0.9486832
vn 0.3162278 6.282881E-08 0.9486833
vn 0.3162278 5.026305E-08 0.9486833
vn 0.3162278 6.282881E-08 0.9486833
vn 0.3162278 7.539457E-08 0.9486833
vn 0.5523001 0 -0.8336454
vn 0.5523001 0 -0.8336454
vn 0.5523001 0 -0.8336454
vn 0.5523001 0 -0.8336454
vn -0.3355362 0 -0.9420273
vn -0.3355362 0 -0.9420273
vn -0.3355362 0 -0.9420273
vn -0.3355362 0 -0.9420273
vn 0 1 0
vn 0 1 0
vn 0 1 0
vn 0 1 0
vn 0 1 0
vn 0 1 0
vn 0 1 0
vn 0 1 0
vn 0 1 0
vn -0.1110265 -0.8829255 0.4307867
vn -0.1110265 -0.8829255 0.4307867
vn 0 -0.8502339 0.5264051
vn -0.222053 -0.9156171 0.3351683
vn 0.07092442 -0.9323683 0.341683
vn 0.07092442 -0.9323683 0.341683
vn 0 -0.9584914 0.2851214
vn 0.1418488 -0.9062451 0.3982446
vn 0 -1 0
vn 0 -1 0
vn 0 -1 0
vn 0 -1 0
vn 0 -1 0
vn 0 -1 0
vt 0.6699326 -1.589457E-07
vt -3.098988 -2.719573E-07
vt -3.098989 3
vt 0.6699325 3
vt -3.098988 -2.719573E-07
vt -5.061174 -1
vt -5.061174 3
vt -3.098989 3
vt 6.791991 3
vt 4.512086 -1.32613E-07
vt 4.512086 3
vt 6.791991 -1
vt 4.512086 3
vt 0.4280441 -1.160858E-07
vt 0.4280448 3
vt 4.512086 -1.32613E-07
vt 4 0
vt 1 4.635917E-08
vt 1.000001 3
vt 4 3
vt 1 4.635917E-08
vt -2 0
vt -2 3
vt 1.000001 3
vt -5.14927E-07 3
vt -2.828428 -1
vt -2.828428 3
vt -5.14927E-07 -1
vt -2.828428 3
vt -5.656855 -1
vt -5.656855 3
vt -2.828428 -1
vt 2 -4
vt -1.000001 -4
vt -1.000001 1
vt 2 -1.804369E-08
vt -5 -4
vt -4 -6.791684E-07
vt 0.6854672 -5.61517
vt -1.950751 -7.361697
vt -4.929703 -6.300638
vt 1 -3.912181
vt -0.6854672 -5.700284
vt -2 -3.912181
vt 1.950751 -7.408465
vt 5 -3.912181
vt 1.950751 -7.408465
vt 1 -3.912181
vt 4.929703 -6.370702
vt 1 0.9780453
vt -2 -3.912181
vt -2 0
vt 1 -3.912181
vt 4 0
vt 5 -3.912181
g submesh0
f 1/1/1 2/2/2 3/3/3
f 4/4/4 1/1/1 3/3/3
f 5/5/5 6/6/6 7/7/7
f 8/8/8 5/5/5 7/7/7
f 9/9/9 10/10/10 11/11/11
f 9/9/9 12/12/12 10/10/10
f 13/13/13 14/14/14 15/15/15
f 13/13/13 16/16/16 14/14/14
f 17/17/17 18/18/18 19/19/19
f 20/20/20 17/17/17 19/19/19
f 21/21/21 22/22/22 23/23/23
f 24/24/24 21/21/21 23/23/23
f 25/25/25 26/26/26 27/27/27
f 25/25/25 28/28/28 26/26/26
f 29/29/29 30/30/30 31/31/31
f 29/29/29 32/32/32 30/30/30
f 33/33/33 34/34/34 35/35/35
f 36/36/36 33/33/33 35/35/35
f 34/34/34 37/37/37 38/38/38
f 35/35/35 34/34/34 38/38/38
f 39/39/39 40/40/40 34/34/34
f 33/33/33 39/39/39 34/34/34
f 40/40/40 41/41/41 37/37/37
f 34/34/34 40/40/40 37/37/37
f 42/42/42 43/43/43 44/44/44
f 42/42/42 45/45/45 43/43/43
f 46/46/46 47/47/47 48/48/48
f 46/46/46 49/49/49 47/47/47
f 50/50/50 51/51/51 52/52/52
f 50/50/50 53/53/53 51/51/51
f 54/54/54 53/53/53 50/50/50
f 54/54/54 55/55/55 53/53/53
