v -0.9999965 -2.5 -3.999998
v 2.000001 -2.5 -7.999999
v 2.000002 -2.5 -3.999999
v -0.9999982 -2.5 -8.999999
v -4.999997 -2.5 -3.999997
v -4 -2.5 -7.999998
v -0.9999982 -2.5 1.000001
v 2.000002 -2.5 2.042051E-06
v -3.999999 -2.5 2.973828E-06
v 7.480343 -2.5 0.8927646
v 7.539915 -2.5 -4.254706
v 7.480343 0 0.8927646
v 7.539915 0 -4.254706
v 7.599487 0 -9.402177
v 7.599487 -2.5 -9.402177
v -5.674007 4 -9.550182
v -7.061552 -2.5 -3.999998
v -7.061554 4 -3.999999
v -5.674006 -2.5 -9.55018
v -7.061554 4 -3.999999
v -7.061552 -2.5 -3.999998
v -5.674005 4 1.550182
v -5.674004 -2.5 1.550186
v -0.9999998 -2.5 3.108187
v -5.674005 4 1.550182
v -5.674004 -2.5 1.550186
v -0.9999977 4.000001 3.108183
v -0.9999998 -2.5 3.108187
v 4.000003 -2.5 1.441521
v -0.9999977 4.000001 3.108183
v 4 4 1.441517
v 4 3.999998 -9.44152
v 4.000001 -2.5 -9.441519
v -0.9999993 4 -11.10818
v -0.9999976 -2.5 -11.10818
v -0.9999993 4 -11.10818
v -0.9999976 -2.5 -11.10818
v -5.674007 4 -9.550182
v -5.674006 -2.5 -9.55018
v 4.000003 -2.5 1.441521
v 4.000002 -2.5 -3.999999
v 4.000001 -2.5 -9.441519
v -0.9999976 -2.5 -11.10818
v -5.674006 -2.5 -9.55018
v -7.061552 -2.5 -3.999998
v -5.674004 -2.5 1.550186
v -0.9999998 -2.5 3.108187
v 4.000003 3.999999 -4.000001
v 4 4 1.441517
v 7.539915 0 -4.254706
v 7.480343 0 0.8927646
v 4 3.999998 -9.44152
v 4.000003 3.999999 -4.000001
v 7.599487 0 -9.402177
v 7.539915 0 -4.254706
v 7.539915 -2.5 -4.254706
v 7.599487 -2.5 -9.402177
v 4.000001 -2.5 -9.441519
v 4 3.999998 -9.44152
v 7.599487 -2.5 -9.402177
v 7.599487 0 -9.402177
v 7.480343 -2.5 0.8927646
v 4 4 1.441517
v 4.000003 -2.5 1.441521
v 7.480343 0 0.8927646
v 7.480343 -2.5 0.8927646
v 2.000002 7 -3.772587E-06
v 2 4 -1.268591E-06
v 2.000003 4 -4
v 1.898268 7 -4.078015
v 2.000003 4 -4
v 2.000001 4 -8.000001
v 1.898268 7 -4.078015
v 1.897311 7 -8.093577
v -5.940285 7 -8.485076
v -6.940286 4 -4.485072
v -6.940286 7 -4.485077
v -5.940286 4 -8.485072
v -5.940281 7 0.485067
v -6.940285 7 -3.514932
v -6.940286 4.000001 -3.514927
v -5.940283 4.000001 0.4850717
v -3.999998 4 -1.475367E-06
v -0.9999977 4 0.999998
v -0.9999973 7 0.9999939
v -3.999996 7 -6.153794E-06
v -0.9999977 4 0.999998
v 2 4 -1.268591E-06
v -0.9999973 7 0.9999939
v 2.000002 7 -3.772587E-06
v 1.897311 7 -8.093577
v 2.000001 4 -8.000001
v -0.9999991 4 -9
v -1.029341 7 -9.120048
v -1.029341 7 -9.120048
v -0.9999991 4 -9
v -4 7 -8.000004
v -4 4 -8
v -5.000001 4 -4
v -5 7 -4.000005
v -6.940286 4 -4.485072
v -6.940286 7 -4.485077
v -5 7 -4.000005
v -4 7 -8.000004
v -6.940286 7 -4.485077
v -5.940285 7 -8.485076
v -4 7 -8.000004
v -4 4 -8
v -5.940285 7 -8.485076
v -5.940286 4 -8.485072
v -4 4 -8
v -5.000001 4 -4
v -5.940286 4 -8.485072
v -6.940286 4 -4.485072
v 2.000001 9.5 -2.520589E-06
v 1.847399 9.5 -4.117017
v 2 12 -1.268591E-06
v 1.79653 12 -4.156018
v 2.000002 7 -3.772587E-06
v 1.898268 7 -4.078015
v 2.000001 9.5 -2.520589E-06
v 1.847399 9.5 -4.117017
v 1.898268 7 -4.078015
v 1.897311 7 -8.093577
v 1.847399 9.5 -4.117017
v 1.845963 9.5 -8.140362
v 1.79653 12 -4.156018
v 1.794615 12 -8.187146
v -4 9.5 -8.000002
v -4 7 -8.000004
v -5 7 -4.000005
v -5.000001 9.5 -4.000003
v -4 12 -8
v -5.000001 12 -4
v -5.000001 12 -4
v -5.000001 9.5 -4.000003
v -3.999997 9.5 -3.814581E-06
v -3.999998 12 -1.475367E-06
v -6.940286 9.499999 -3.51493
v -6.940285 7 -3.514932
v -5.940281 7 0.485067
v -5.940282 9.499999 0.4850693
v -3.999997 9.5 -3.814581E-06
v -0.9999975 9.5 0.9999959
v -3.999998 12 -1.475367E-06
v -0.9999977 12 0.999998
v -0.9999975 9.5 0.9999959
v 2.000001 9.5 -2.520589E-06
v -0.9999977 12 0.999998
v 2 12 -1.268591E-06
v 1.794615 12 -8.187146
v 1.845963 9.5 -8.140362
v -1.044013 9.5 -9.180067
v -1.058685 12 -9.240087
v 1.845963 9.5 -8.140362
v 1.897311 7 -8.093577
v -1.029341 7 -9.120048
v -1.044013 9.5 -9.180067
v -4 12 -8
v -1.058685 12 -9.240087
v -1.044013 9.5 -9.180067
v -4 9.5 -8.000002
v -4 9.5 -8.000002
v -1.044013 9.5 -9.180067
v -1.029341 7 -9.120048
v -4 7 -8.000004
v -5.000001 9.5 -4.000003
v -5 7 -4.000005
v -6.940286 9.499999 -3.51493
v -6.940285 7 -3.514932
v -5 7 -4.000005
v -5.000001 4 -4
v -6.940285 7 -3.514932
v -6.940286 4.000001 -3.514927
v -3.999996 7 -6.153794E-06
v -3.999997 9.5 -3.814581E-06
v -5.940281 7 0.485067
v -5.940282 9.499999 0.4850693
v -3.999997 9.5 -3.814581E-06
v -5.000001 9.5 -4.000003
v -5.940282 9.499999 0.4850693
v -6.940286 9.499999 -3.51493
v -3.999998 4 -1.475367E-06
v -6.940286 4.000001 -3.514927
v -5.940283 4.000001 0.4850717
v -3.999998 4 -1.475367E-06
v -3.999996 7 -6.153794E-06
v -5.940283 4.000001 0.4850717
v -5.940281 7 0.485067
v 1.79653 12 -4.156018
v -1.118257 12 -4.092616
v -0.9999977 12 0.999998
v 2 12 -1.268591E-06
v -5.000001 12 -4
v -3.999998 12 -1.475367E-06
v 1.794615 12 -8.187146
v -1.058685 12 -9.240087
v -4 12 -8
v 2 4 -1.268591E-06
v -0.9999977 4 0.999998
v 4 4 1.441517
v -0.9999977 4.000001 3.108183
v 2.000001 4 -8.000001
v 2.000003 4 -4
v 4 3.999998 -9.44152
v 4.000003 3.999999 -4.000001
v 2.000003 4 -4
v 2 4 -1.268591E-06
v 4.000003 3.999999 -4.000001
v 4 4 1.441517
v -0.9999991 4 -9
v 2.000001 4 -8.000001
v -0.9999993 4 -11.10818
v 4 3.999998 -9.44152
v -4 4 -8
v -5.674007 4 -9.550182
v -3.999998 4 -1.475367E-06
v -5.000001 4 -4
v -5.674005 4 1.550182
v -7.061554 4 -3.999999
v -4 4 -8
vn 0 -1 0
vn 0 -1 0
vn 0 -1 0
vn 0 -1 0
vn 0 -1 0
vn 0 -1 0
vn 0 -1 0
vn 0 -1 0
vn 0 -1 0
vn 0.9999331 0 0.01157224
vn 0.9999331 0 0.01157224
vn 0.9999331 0 0.01157224
vn 0.9999331 0 0.01157224
vn 0.9999331 0 0.01157233
vn 0.9999331 0 0.01157233
vn -0.9701425 -2.757808E-07 -0.2425357
vn -0.9701425 -2.757808E-07 -0.2425357
vn -0.9701425 -3.380539E-07 -0.2425358
vn -0.9701425 -2.135077E-07 -0.2425356
vn -0.9701423 -2.224036E-07 0.2425363
vn -0.9701424 -1.045296E-07 0.2425362
vn -0.9701424 -1.045296E-07 0.2425362
vn -0.9701424 1.334451E-08 0.2425361
vn -0.3162277 6.437535E-07 0.9486833
vn -0.3162277 6.437535E-07 0.9486833
vn -0.3162279 5.625594E-07 0.9486833
vn -0.3162276 7.249477E-07 0.9486833
vn 0.3162276 5.27762E-07 0.9486834
vn 0.3162277 6.147558E-07 0.9486834
vn 0.3162277 6.147558E-07 0.9486834
vn 0.3162278 7.017495E-07 0.9486833
vn 0.3162275 -1.159917E-07 -0.9486834
vn 0.3162276 -8.554391E-08 -0.9486834
vn 0.3162276 -8.554391E-08 -0.9486834
vn 0.3162276 -5.509609E-08 -0.9486834
vn -0.3162277 -2.232839E-07 -0.9486833
vn -0.3162278 -2.740303E-07 -0.9486833
vn -0.3162278 -2.740303E-07 -0.9486833
vn -0.3162278 -3.247766E-07 -0.9486833
vn 0 -1 0
vn 0 -1 0
vn 0 -1 0
vn 0 -1 0
vn 0 -1 0
vn 0 -1 0
vn 0 -1 0
vn 0 -1 0
vn 0.7488617 0.6627263 2.485482E-07
vn 0.7519187 0.6592106 0.004368795
vn 0.7519187 0.6592106 0.004368795
vn 0.7549756 0.6556948 0.008737342
vn 0.7433414 0.6689122 -4.429257E-07
vn 0.7462244 0.665652 0.004334528
vn 0.7462244 0.665652 0.004334528
vn 0.7491074 0.6623918 0.008669498
vn 0 -1 0
vn 0 -1 0
vn 0.01092922 -1.459086E-07 -0.9999403
vn 0.01092935 -7.295432E-08 -0.9999403
vn 0.01092935 -7.295432E-08 -0.9999403
vn 0.01092948 0 -0.9999403
vn 0 -1 0
vn 0.1557486 6.415781E-07 0.9877967
vn 0.1557488 3.20789E-07 0.9877967
vn 0.1557488 3.20789E-07 0.9877967
vn 0.155749 0 0.9877967
vn 0.9995683 0.0166167 -0.01246242
vn 1 -7.152552E-07 6.556513E-07
vn 0.9995683 0.0166167 -0.01246242
vn 0.9991367 0.03323412 -0.02492549
vn 0.9994255 0.03389209 -4.169927E-07
vn 0.9994202 0.03404735 -0.0001193165
vn 0.9994202 0.03404735 -0.0001193165
vn 0.9994149 0.03420262 -0.0002382161
vn -0.9701425 -2.120252E-07 -0.2425357
vn -0.9701425 -2.120252E-07 -0.2425357
vn -0.9701424 -4.240505E-07 -0.2425359
vn -0.9701425 3.676414E-14 -0.2425356
vn -0.9701422 8.637624E-07 0.2425364
vn -0.9701422 7.324517E-07 0.2425365
vn -0.9701422 8.637624E-07 0.2425364
vn -0.9701423 9.950732E-07 0.2425364
vn -0.3162277 1.512519E-06 0.9486833
vn -0.3162276 1.369668E-06 0.9486834
vn -0.3162277 1.512519E-06 0.9486833
vn -0.3162279 1.655369E-06 0.9486833
vn 0.3162277 1.269142E-06 0.9486833
vn 0.3162274 9.173962E-07 0.9486834
vn 0.3162274 9.173962E-07 0.9486834
vn 0.3162271 5.656502E-07 0.9486835
vn 0.3234702 -0.02663339 -0.9457986
vn 0.3161718 -0.01876367 -0.9485164
vn 0.3234702 -0.02663339 -0.9457986
vn 0.3307686 -0.03450311 -0.943081
vn -0.352498 -0.04085924 -0.9349201
vn -0.3343628 -0.02043018 -0.9418018
vn -0.3343628 -0.02043018 -0.9418018
vn -0.3162276 -1.130919E-06 -0.9486834
vn -0.2425358 1.73475E-06 0.9701424
vn -0.2425358 1.715475E-06 0.9701425
vn -0.2425358 1.715475E-06 0.9701425
vn -0.2425358 1.6962E-06 0.9701425
vn -2.312999E-07 1 -5.782505E-08
vn -2.312999E-07 1 -5.782505E-08
vn -2.312999E-07 1 -5.782505E-08
vn -2.312999E-07 1 -5.782505E-08
vn 0.2425361 -1.291425E-06 -0.9701424
vn 0.242536 -1.301063E-06 -0.9701424
vn 0.242536 -1.301063E-06 -0.9701424
vn 0.242536 -1.3107E-06 -0.9701424
vn 2.312999E-07 -1 5.782502E-08
vn 2.313E-07 -1 5.782501E-08
vn 2.313E-07 -1 5.782501E-08
vn 2.313E-07 -1 5.7825E-08
vn 0.9993138 4.9506E-07 -0.03704085
vn 0.9989632 0.009778626 -0.04296549
vn 0.9989632 0.009778626 -0.04296549
vn 0.9986127 0.01955676 -0.04889013
vn 0.999689 3.938407E-07 -0.02493927
vn 0.9994039 0.00987618 -0.03098645
vn 0.9994039 0.00987618 -0.03098645
vn 0.9991188 0.01975197 -0.03703362
vn 0.9997931 0.02033972 -0.0002383062
vn 0.9997911 0.020434 -0.000297603
vn 0.9997911 0.020434 -0.000297603
vn 0.9997892 0.02052828 -0.0003568997
vn 0.9997911 0.02043199 -0.0004159539
vn 0.9997892 0.02052607 -0.0004750066
vn -0.9701424 6.939023E-08 -0.2425359
vn -0.9701424 9.252019E-08 -0.2425359
vn -0.9701424 6.939023E-08 -0.2425359
vn -0.9701424 4.626027E-08 -0.2425359
vn -0.9701425 1.387802E-07 -0.2425358
vn -0.9701425 2.775601E-07 -0.2425357
vn -0.9701423 -4.394709E-07 0.2425365
vn -0.9701423 -2.77561E-07 0.2425365
vn -0.9701423 -4.394709E-07 0.2425365
vn -0.9701423 -6.013806E-07 0.2425364
vn -0.9701423 -5.89816E-07 0.2425365
vn -0.9701423 -6.01381E-07 0.2425365
vn -0.9701423 -5.89816E-07 0.2425365
vn -0.9701423 -5.782509E-07 0.2425365
vn -0.3162278 -9.150507E-07 0.9486833
vn -0.3162278 -8.519587E-07 0.9486833
vn -0.3162277 -8.999717E-07 0.9486834
vn -0.3162276 -7.916431E-07 0.9486834
vn 0.3162274 -7.614853E-07 0.9486834
vn 0.3162273 -5.579201E-07 0.9486835
vn 0.3162278 -7.614853E-07 0.9486833
vn 0.3162276 -5.277622E-07 0.9486834
vn 0.3423173 -0.01557113 -0.9394336
vn 0.3385026 -0.01065527 -0.9409052
vn 0.3423173 -0.01557113 -0.9394336
vn 0.346132 -0.02048699 -0.9379621
vn 0.3346981 -0.01572994 -0.942173
vn 0.3309462 -0.01086067 -0.9435871
vn 0.3346981 -0.01572994 -0.942173
vn 0.3384499 -0.02059922 -0.9407589
vn -0.3795684 -0.01219706 -0.9249532
vn -0.3883772 -0.02439476 -0.9211775
vn -0.3795684 -0.01219706 -0.9249532
vn -0.3707596 6.378471E-07 -0.9287289
vn -0.3617206 -0.01223233 -0.9320762
vn -0.3706486 -0.02446533 -0.9284509
vn -0.3617206 -0.01223233 -0.9320762
vn -0.3527927 6.802387E-07 -0.9357015
vn -0.2425365 8.789397E-07 -0.9701423
vn -0.2425365 8.558097E-07 -0.9701422
vn -0.2425365 8.558097E-07 -0.9701422
vn -0.2425366 8.326797E-07 -0.9701422
vn -0.2425366 -1.657649E-06 -0.9701423
vn -0.2425366 -1.638375E-06 -0.9701423
vn -0.2425366 -1.638375E-06 -0.9701423
vn -0.2425365 -1.6191E-06 -0.9701423
vn 0.2425366 -8.383577E-07 0.9701422
vn 0.2425366 -8.181712E-07 0.9701422
vn 0.2425366 -8.181712E-07 0.9701422
vn 0.2425365 -7.979847E-07 0.9701422
vn -4.625998E-07 1 1.156504E-07
vn -4.625998E-07 1 1.156504E-07
vn -4.625998E-07 1 1.156504E-07
vn -4.625998E-07 1 1.156504E-07
vn -4.625998E-07 -1 1.156503E-07
vn -4.625998E-07 -1 1.156503E-07
vn -4.625998E-07 -1 1.156503E-07
vn 0.2425366 1.377988E-06 0.9701423
vn 0.2425366 1.368437E-06 0.9701423
vn 0.2425366 1.368437E-06 0.9701423
vn 0.2425366 1.358887E-06 0.9701423
vn 0 1 0
vn 0 1 0
vn 0 1 0
vn 0 1 0
vn 0 1 0
vn 0 1 0
vn 0 1 0
vn 0 1 0
vn 0 1 0
vn -7.539457E-08 1 -2.261837E-07
vn -6.540813E-08 1 -3.392756E-07
vn -6.540813E-08 1 -3.392756E-07
vn -5.542168E-08 1 -4.523675E-07
vn 8.34465E-07 1 -3.481659E-13
vn 5.960464E-07 1 -8.762968E-08
vn 5.960464E-07 1 -8.762968E-08
vn 3.576278E-07 1 -1.75259E-07
vn 3.576279E-07 1 2.344792E-13
vn 1.385543E-07 1 -1.095367E-07
vn 1.385543E-07 1 -1.095367E-07
vn -8.051925E-08 1 -2.190736E-07
vn 3.769726E-08 1 -1.130919E-07
vn 2.486035E-07 1 -3.166573E-07
vn 2.486035E-07 1 -3.166573E-07
vn 4.595098E-07 1 -5.202228E-07
vn -3.769728E-08 1 -1.130919E-07
vn -3.769728E-08 1 -1.130919E-07
vn 2.312999E-07 1 -5.782517E-08
vn -4.973799E-14 1 -8.59138E-08
vn -4.973799E-14 1 -8.59138E-08
vn -2.313E-07 1 -1.140024E-07
vn -1.896257E-07 1 -2.5928E-08
vt 0.9999965 -3.999998
vt -2.000001 -7.999999
vt -2.000002 -3.999999
vt 0.9999982 -8.999999
vt 4.999997 -3.999997
vt 4 -7.999998
vt 0.9999982 1.000001
vt -2.000002 2.042051E-06
vt 3.999999 2.973828E-06
vt 0.8061405 -2.5
vt -4.341675 -2.5
vt 0.8061405 0
vt -4.341675 0
vt -9.489491 0
vt -9.489491 -2.5
vt 7.888888 4.000002
vt 2.167889 -2.499997
vt 2.16789 4.000002
vt 7.888886 -2.499997
vt 5.593252 4.000001
vt 5.59325 -2.499999
vt -0.1277446 4.000002
vt -0.1277489 -2.499999
vt -0.03421241 -2.500002
vt 4.892622 3.999999
vt 4.89262 -2.500002
vt -0.03421297 3.999999
vt 1.931578 -2.500001
vt -3.338888 -2.500001
vt 1.931575 4
vt -3.338886 3.999999
vt 0.8090658 4
vt 0.8090665 -2.499999
vt -4.461397 4.000001
vt -4.461395 -2.499999
vt 2.564033 4.000002
vt 2.564034 -2.499998
vt -2.362804 4.000002
vt -2.362803 -2.499998
vt -4.000003 1.441521
vt -4.000002 -3.999999
vt -4.000001 -9.441519
vt 0.9999976 -11.10818
vt 5.674006 -9.55018
vt 7.061552 -3.999998
vt 5.674004 1.550186
vt 0.9999998 3.108187
vt -4.000002 0.3445402
vt 1.441516 0.3445418
vt -4.254708 -4.996899
vt 0.8927621 -4.95742
vt -9.441518 0.2977115
vt -3.999999 0.2977128
vt -9.402172 -5.083394
vt -4.254702 -5.043543
vt -7.539915 -4.254706
vt -7.599487 -9.402177
vt 3.896574 -2.499999
vt 3.896573 4
vt 7.496275 -2.499999
vt 7.496275 1.383896E-06
vt -7.480343 0.8927646
vt -3.726673 3.999999
vt -3.726675 -2.500001
vt -7.250012 -1.313261E-06
vt -7.250012 -2.500001
vt 0.02086039 6.974598
vt 0.02086287 3.974831
vt -3.978918 3.974312
vt -4.05799 6.975334
vt -3.978918 3.974312
vt -7.978701 3.973793
vt -4.05799 6.975334
vt -8.073343 6.974825
vt 6.791 7.000003
vt 2.66789 4.000003
vt 2.667895 7.000003
vt 6.790996 4.000003
vt 0.9701511 6.999996
vt 5.093257 6.999996
vt 5.093252 3.999997
vt 0.970147 3.999997
vt 3.999998 4
vt 0.9999977 4
vt 0.9999972 7
vt 3.999996 7
vt 0.9999977 4
vt -2 4
vt 0.9999972 7
vt -2.000002 7
vt 2.078186 7.184298
vt 2.178754 4.182883
vt -0.7980865 4.207561
vt -0.8247307 7.20955
vt -0.8247307 7.20955
vt -0.7980865 4.207561
vt -3.819741 7.18519
vt -3.819741 4.185993
vt 5.820857 4.000005
vt 5.820857 7.000005
vt 7.820856 4.000004
vt 7.820858 7.000004
vt -4.999999 -4.000005
vt -3.999998 -8.000004
vt -6.940284 -4.485076
vt -5.940283 -8.485076
vt -5.820858 7.000009
vt -5.820858 4.000009
vt -7.820858 7.000008
vt -7.820858 4.000008
vt 4 -8
vt 5 -4
vt 5.940285 -8.485072
vt 6.940285 -4.485072
vt 0.02086163 9.474405
vt -4.09752 9.475768
vt 0.02086287 11.97421
vt -4.13705 11.9762
vt 0.02086039 6.974598
vt -4.05799 6.975334
vt 0.02086163 9.474405
vt -4.09752 9.475768
vt -4.05799 6.975334
vt -8.073343 6.974825
vt -4.09752 9.475768
vt -8.120661 9.475265
vt -4.13705 11.9762
vt -8.167978 11.9757
vt 7.640186 9.5
vt 7.640188 7
vt 3.570961 7
vt 3.570959 9.5
vt 7.640184 12
vt 3.570956 12
vt 3.570956 12
vt 3.570959 9.5
vt -0.3321773 9.5
vt -0.3321798 12
vt 5.093255 9.500003
vt 5.093257 7.000003
vt 0.9701511 7.000003
vt 0.9701492 9.500003
vt 3.999997 9.5
vt 0.9999974 9.5
vt 3.999998 12
vt 0.9999977 12
vt 0.9999974 9.5
vt -2.000001 9.5
vt 0.9999977 12
vt -2 12
vt 1.977612 12.18518
vt 2.027899 9.684737
vt -0.8380544 9.710277
vt -0.851378 12.211
vt 2.027899 9.684737
vt 2.078186 7.184298
vt -0.8247307 7.20955
vt -0.8380544 9.710277
vt -3.819741 12.18385
vt -0.851378 12.211
vt -0.8380544 9.710277
vt -3.819741 9.684521
vt -3.819741 9.684521
vt -0.8380544 9.710277
vt -0.8247307 7.20955
vt -3.819741 7.18519
vt -3.880566 9.499995
vt -3.880565 6.999996
vt -5.880566 9.499994
vt -5.880564 6.999996
vt -3.880564 7.000009
vt -3.880566 4.000009
vt -5.880564 7.000009
vt -5.880567 4.00001
vt 3.880564 6.999999
vt 3.880565 9.499999
vt 5.880564 6.999999
vt 5.880566 9.499998
vt -3.999993 -4.91326E-06
vt -4.999997 -4.000004
vt -5.940278 0.4850682
vt -6.940281 -3.514931
vt 4 -1.012766E-06
vt 6.940288 -3.514926
vt 5.940285 0.4850722
vt 3.880567 4.000001
vt 3.880564 7.000001
vt 5.880567 4.000002
vt 5.880564 7.000001
vt 1.79653 -4.156018
vt -1.118257 -4.092616
vt -0.9999977 0.999998
vt 2 -1.268591E-06
vt -5.000001 -4
vt -3.999998 -1.475367E-06
vt 1.794615 -8.187146
vt -1.058685 -9.240087
vt -4 -8
vt 2 -3.638557E-07
vt -0.9999974 0.9999989
vt 4 1.441518
vt -0.9999974 3.108184
vt 1.999998 -8.000001
vt 2 -4
vt 3.999997 -9.44152
vt 4 -4.000001
vt 2.000001 -4
vt 1.999999 -1.268592E-06
vt 4.000001 -4.000001
vt 3.999999 1.441517
vt -0.9999993 -9
vt 2.000001 -8.000001
vt -0.9999995 -11.10818
vt 4 -9.44152
vt -4 -8
vt -5.674007 -9.550182
vt -3.999999 -1.244067E-06
vt -5.000002 -4
vt -5.674006 1.550182
vt -7.061555 -3.999999
vt -4 -8
g submesh0
f 1/1/1 2/2/2 3/3/3
f 1/1/1 4/4/4 2/2/2
f 5/5/5 4/4/4 1/1/1
f 5/5/5 6/6/6 4/4/4
f 7/7/7 3/3/3 8/8/8
f 7/7/7 1/1/1 3/3/3
f 9/9/9 1/1/1 7/7/7
f 9/9/9 5/5/5 1/1/1
f 10/10/10 11/11/11 12/12/12
f 12/12/12 11/11/11 13/13/13
f 13/13/13 11/11/11 14/14/14
f 11/11/11 15/15/15 14/14/14
f 16/16/16 17/17/17 18/18/18
f 16/16/16 19/19/19 17/17/17
f 20/20/20 21/21/21 22/22/22
f 22/22/22 21/21/21 23/23/23
f 24/24/24 25/25/25 26/26/26
f 24/24/24 27/27/27 25/25/25
f 28/28/28 29/29/29 30/30/30
f 30/30/30 29/29/29 31/31/31
f 32/32/32 33/33/33 34/34/34
f 34/34/34 33/33/33 35/35/35
f 36/36/36 37/37/37 38/38/38
f 37/37/37 39/39/39 38/38/38
f 8/8/8 3/3/3 40/40/40
f 3/3/3 41/41/41 40/40/40
f 3/3/3 2/2/2 41/41/41
f 2/2/2 42/42/42 41/41/41
f 2/2/2 4/4/4 42/42/42
f 4/4/4 43/43/43 42/42/42
f 4/4/4 6/6/6 43/43/43
f 6/6/6 44/44/44 43/43/43
f 6/6/6 5/5/5 44/44/44
f 5/5/5 45/45/45 44/44/44
f 5/5/5 9/9/9 45/45/45
f 9/9/9 46/46/46 45/45/45
f 9/9/9 7/7/7 46/46/46
f 7/7/7 47/47/47 46/46/46
f 7/7/7 8/8/8 47/47/47
f 8/8/8 40/40/40 47/47/47
f 48/48/48 49/49/49 50/50/50
f 49/49/49 51/51/51 50/50/50
f 52/52/52 53/53/53 54/54/54
f 53/53/53 55/55/55 54/54/54
f 41/41/41 42/42/42 56/56/56
f 42/42/42 57/57/57 56/56/56
f 58/58/58 59/59/59 60/60/60
f 59/59/59 61/61/61 60/60/60
f 40/40/40 41/41/41 62/62/62
f 41/41/41 56/56/56 62/62/62
f 63/63/63 64/64/64 65/65/65
f 64/64/64 66/66/66 65/65/65
f 67/67/67 68/68/68 69/69/69
f 67/67/67 69/69/69 70/70/70
f 71/71/71 72/72/72 73/73/73
f 73/73/73 72/72/72 74/74/74
f 75/75/75 76/76/76 77/77/77
f 75/75/75 78/78/78 76/76/76
f 79/79/79 80/80/80 81/81/81
f 79/79/79 81/81/81 82/82/82
f 83/83/83 84/84/84 85/85/85
f 86/86/86 83/83/83 85/85/85
f 87/87/87 88/88/88 89/89/89
f 88/88/88 90/90/90 89/89/89
f 91/91/91 92/92/92 93/93/93
f 91/91/91 93/93/93 94/94/94
f 95/95/95 96/96/96 97/97/97
f 96/96/96 98/98/98 97/97/97
f 99/99/99 100/100/100 101/101/101
f 100/100/100 102/102/102 101/101/101
f 103/103/103 104/104/104 105/105/105
f 104/104/104 106/106/106 105/105/105
f 107/107/107 108/108/108 109/109/109
f 108/108/108 110/110/110 109/109/109
f 111/111/111 112/112/112 113/113/113
f 112/112/112 114/114/114 113/113/113
f 115/115/115 116/116/116 117/117/117
f 116/116/116 118/118/118 117/117/117
f 119/119/119 120/120/120 121/121/121
f 120/120/120 122/122/122 121/121/121
f 123/123/123 124/124/124 125/125/125
f 125/125/125 124/124/124 126/126/126
f 125/125/125 126/126/126 127/127/127
f 127/127/127 126/126/126 128/128/128
f 129/129/129 130/130/130 131/131/131
f 129/129/129 131/131/131 132/132/132
f 133/133/133 129/129/129 132/132/132
f 133/133/133 132/132/132 134/134/134
f 135/135/135 136/136/136 137/137/137
f 135/135/135 137/137/137 138/138/138
f 139/139/139 140/140/140 141/141/141
f 139/139/139 141/141/141 142/142/142
f 143/143/143 86/86/86 85/85/85
f 143/143/143 85/85/85 144/144/144
f 145/145/145 143/143/143 144/144/144
f 145/145/145 144/144/144 146/146/146
f 147/147/147 89/89/89 148/148/148
f 89/89/89 90/90/90 148/148/148
f 149/149/149 147/147/147 150/150/150
f 147/147/147 148/148/148 150/150/150
f 151/151/151 152/152/152 153/153/153
f 151/151/151 153/153/153 154/154/154
f 155/155/155 156/156/156 157/157/157
f 155/155/155 157/157/157 158/158/158
f 159/159/159 160/160/160 161/161/161
f 159/159/159 161/161/161 162/162/162
f 163/163/163 164/164/164 165/165/165
f 163/163/163 165/165/165 166/166/166
f 167/167/167 168/168/168 169/169/169
f 168/168/168 170/170/170 169/169/169
f 171/171/171 172/172/172 173/173/173
f 172/172/172 174/174/174 173/173/173
f 175/175/175 176/176/176 177/177/177
f 176/176/176 178/178/178 177/177/177
f 179/179/179 180/180/180 181/181/181
f 180/180/180 182/182/182 181/181/181
f 112/112/112 183/183/183 184/184/184
f 183/183/183 185/185/185 184/184/184
f 186/186/186 187/187/187 188/188/188
f 187/187/187 189/189/189 188/188/188
g submesh1
f 190/190/190 191/191/191 192/192/192
f 193/193/193 190/190/190 192/192/192
f 191/191/191 194/194/194 195/195/195
f 192/192/192 191/191/191 195/195/195
f 196/196/196 197/197/197 191/191/191
f 190/190/190 196/196/196 191/191/191
f 197/197/197 198/198/198 194/194/194
f 191/191/191 197/197/197 194/194/194
f 199/199/199 200/200/200 201/201/201
f 200/200/200 202/202/202 201/201/201
f 203/203/203 204/204/204 205/205/205
f 204/204/204 206/206/206 205/205/205
f 207/207/207 208/208/208 209/209/209
f 208/208/208 210/210/210 209/209/209
f 211/211/211 212/212/212 213/213/213
f 212/212/212 214/214/214 213/213/213
f 215/215/215 211/211/211 216/216/216
f 211/211/211 213/213/213 216/216/216
f 217/217/217 218/218/218 219/219/219
f 218/218/218 220/220/220 219/219/219
f 218/218/218 221/221/221 220/220/220
f 221/221/221 216/216/216 220/220/220
f 200/200/200 217/217/217 202/202/202
f 217/217/217 219/219/219 202/202/202
