v -3.999837 0.5 4.999781
v 7.484365 0.5 4.591213
v -3.999837 1 4.999781
v 7.484365 1 4.591213
v 7.755016 0.5 -9.483164
v -4 0.5 -9
v 7.755016 1 -9.483164
v -4 1 -9
v 7.484365 0.5 4.591213
v 7.393773 0.5 -1.383735
v 7.393773 1 -1.383735
v 7.484365 1 4.591213
v 7.393773 0.5 -1.383735
v 7.755016 0.5 -9.483164
v 7.755016 1 -9.483164
v 7.393773 1 -1.383735
v -4 1 -9
v -3.999974 0.5 -1.00022
v -3.999974 1 -1.00022
v -4 0.5 -9
v -3.999837 0.5 4.999781
v -3.999837 1 4.999781
v 7.393773 1 -1.383735
v -3.999974 1 -1.00022
v -3.999837 1 4.999781
v 7.484365 1 4.591213
v 7.755016 1 -9.483164
v -4 1 -9
v -3.999974 0.5 -1.00022
v 7.755016 0.5 -9.483164
v 7.393773 0.5 -1.383735
v -4 0.5 -9
v -3.999837 0.5 4.999781
v 7.484365 0.5 4.591213
vn 0.03555407 0 0.9993678
vn 0.03555407 0 0.9993678
vn 0.03555407 0 0.9993678
vn 0.03555407 0 0.9993678
vn -0.0410681 0 -0.9991564
vn -0.0410681 0 -0.9991564
vn -0.0410681 0 -0.9991564
vn -0.0410681 0 -0.9991564
vn 0.9998851 0 -0.01516022
vn 0.9998851 0 -0.01516022
vn 0.9998851 0 -0.01516022
vn 0.9998851 0 -0.01516022
vn 0.9990069 0 0.04455678
vn 0.9990069 0 0.04455678
vn 0.9990069 0 0.04455678
vn 0.9990069 0 0.04455678
vn -1 0 3.278346E-06
vn -1 0 3.278346E-06
vn -1 0 3.278346E-06
vn -1 0 3.278346E-06
vn -1 0 2.280871E-05
vn -1 0 2.280871E-05
vn 0 1 0
vn 0 1 0
vn 0 1 0
vn 0 1 0
vn 0 1 0
vn 0 1 0
vn 0 -1 0
vn 0 -1 0
vn 0 -1 0
vn 0 -1 0
vn 0 -1 0
vn 0 -1 0
vt 4.175071 0.5
vt -7.316397 0.5
vt 4.175071 1
vt -7.316397 1
vt 8.137929 0.5
vt -3.627012 0.5
vt 8.137929 1
vt -3.627012 1
vt 4.48066 0.5
vt -1.492309 0.5
vt -1.492309 1
vt 4.48066 1
vt -1.492309 0.5
vt -9.596175 0.5
vt -9.596175 1
vt -1.492309 1
vt 9.000052 1
vt 1.000272 0.5
vt 1.000272 1
vt 9.000052 0.5
vt -4.999729 0.5
vt -4.999729 1
vt 7.393773 -1.383735
vt -3.999974 -1.00022
vt -3.999837 4.999781
vt 7.484365 4.591213
vt 7.755016 -9.483164
vt -4 -9
vt 3.999974 -1.00022
vt -7.755016 -9.483164
vt -7.393773 -1.383735
vt 4 -9
vt 3.999837 4.999781
vt -7.484365 4.591213
g submesh0
f 1/1/1 2/2/2 3/3/3
f 2/2/2 4/4/4 3/3/3
f 5/5/5 6/6/6 7/7/7
f 6/6/6 8/8/8 7/7/7
f 9/9/9 10/10/10 11/11/11
f 12/12/12 9/9/9 11/11/11
f 13/13/13 14/14/14 15/15/15
f 16/16/16 13/13/13 15/15/15
f 17/17/17 18/18/18 19/19/19
f 17/17/17 20/20/20 18/18/18
f 19/19/19 21/21/21 22/22/22
f 19/19/19 18/18/18 21/21/21
f 23/23/23 24/24/24 25/25/25
f 26/26/26 23/23/23 25/25/25
f 27/27/27 28/28/28 24/24/24
f 23/23/23 27/27/27 24/24/24
f 29/29/29 30/30/30 31/31/31
f 29/29/29 32/32/32 30/30/30
f 33/33/33 31/31/31 34/34/34
f 33/33/33 29/29/29 31/31/31
