v 5.999726 0.5 5.000332
v 6.000058 0.5 4.550331
v 6.000058 0.9999999 4.550331
v 5.999726 1 5.000332
v -3.999974 0.9999999 4.549782
v -3.999837 0.5 4.999781
v -3.999837 1 4.999781
v -3.999974 0.5 4.549782
v -3.999837 0.5 4.999781
v -3.410273 0.5 5.000061
v -3.410273 0.9999999 5.000061
v -3.999837 1 4.999781
v -3.409504 0.9999999 -8.999836
v -4 0.5 -9
v -4 1 -9
v -3.409504 0.5 -8.999836
v -3.409943 0.9999999 4.549814
v -3.999837 1 4.999781
v -3.410273 0.9999999 5.000061
v -3.999974 0.9999999 4.549782
v -3.999836 -11.43 4.999784
v -3.999972 -11.43 4.549786
v -3.409941 -11.43 4.549818
v -3.410271 -11.43 5.000065
v -3.410273 0.9999999 5.000061
v -3.410273 0.5 5.000061
v 5.589728 0.5 5.000197
v 5.589728 0.9999999 5.000197
v 5.589728 0.9999999 5.000197
v 5.589728 0.5 5.000197
v 5.999726 0.5 5.000332
v 5.999726 1 5.000332
v 5.590497 0.9999999 -8.999757
v 5.590497 0.5 -8.999757
v -3.409504 0.9999999 -8.999836
v -3.409504 0.5 -8.999836
v 6.000495 1 -8.999674
v 6.000495 0.5 -8.999674
v 5.590497 0.9999999 -8.999757
v 5.590497 0.5 -8.999757
v 5.590062 0.9999999 4.550309
v 5.999726 1 5.000332
v 6.000058 0.9999999 4.550331
v 5.589728 0.9999999 5.000197
v 5.999728 -11.43 5.000336
v 5.589732 -11.43 5.000201
v 5.590065 -11.43 4.550311
v 6.000062 -11.43 4.550333
v 5.589728 0.5 5.000197
v -3.410273 0.5 5.000061
v -3.409943 0.5 4.549814
v 5.590062 0.5 4.550309
v 6.000058 0.5 4.550331
v 6.000273 0.5 -8.44967
v 6.000273 0.9999999 -8.44967
v 6.000058 0.9999999 4.550331
v 6.000273 0.5 -8.44967
v 6.000495 0.5 -8.999674
v 6.000495 1 -8.999674
v 6.000273 0.9999999 -8.44967
v -3.999974 0.9999999 4.549782
v -3.999986 0.9999999 -8.45022
v -3.999986 0.5 -8.45022
v -3.999974 0.5 4.549782
v -4 1 -9
v -4 0.5 -9
v -3.409723 0.9999999 -8.450188
v -3.999986 0.9999999 -8.45022
v -3.409504 0.9999999 -8.999836
v -4 1 -9
v -3.999974 0.5 4.549782
v -3.999986 0.5 -8.45022
v -3.409723 0.5 -8.450188
v -3.999984 -11.43 -8.45022
v -4 -11.43 -9.000002
v -3.409502 -11.43 -8.999836
v -3.409721 -11.43 -8.450188
v 6.000273 0.9999999 -8.44967
v 5.590277 0.9999999 -8.449693
v 6.000495 1 -8.999674
v 5.590497 0.9999999 -8.999757
v 6.000058 0.5 4.550331
v 6.000273 0.5 -8.44967
v 5.590277 0.5 -8.449693
v 6.000277 -11.43 -8.44967
v 5.590281 -11.43 -8.449693
v 6.000497 -11.43 -8.999674
v 5.590501 -11.43 -8.999757
v -3.409504 0.5 -8.999836
v 5.590497 0.5 -8.999757
v -3.999837 0.5 4.999781
v -3.999974 0.5 4.549782
v -3.999836 -11.43 4.999784
v -3.999972 -11.43 4.549786
v -3.999974 0.5 4.549782
v -3.409943 0.5 4.549814
v -3.999972 -11.43 4.549786
v -3.409941 -11.43 4.549818
v -3.410273 0.5 5.000061
v -3.999837 0.5 4.999781
v -3.410271 -11.43 5.000065
v -3.999836 -11.43 4.999784
v -3.409943 0.5 4.549814
v -3.410273 0.5 5.000061
v -3.409941 -11.43 4.549818
v -3.410271 -11.43 5.000065
v 5.999726 0.5 5.000332
v 5.589728 0.5 5.000197
v 5.999728 -11.43 5.000336
v 5.589732 -11.43 5.000201
v 5.589728 0.5 5.000197
v 5.590062 0.5 4.550309
v 5.589732 -11.43 5.000201
v 5.590065 -11.43 4.550311
v 6.000058 0.5 4.550331
v 5.999726 0.5 5.000332
v 6.000062 -11.43 4.550333
v 5.999728 -11.43 5.000336
v 5.590062 0.5 4.550309
v 6.000058 0.5 4.550331
v 5.590065 -11.43 4.550311
v 6.000062 -11.43 4.550333
v -3.999986 0.5 -8.45022
v -4 0.5 -9
v -3.999984 -11.43 -8.45022
v -4 -11.43 -9.000002
v -4 0.5 -9
v -3.409504 0.5 -8.999836
v -4 -11.43 -9.000002
v -3.409502 -11.43 -8.999836
v -3.409723 0.5 -8.450188
v -3.999986 0.5 -8.45022
v -3.409721 -11.43 -8.450188
v -3.999984 -11.43 -8.45022
v -3.409504 0.5 -8.999836
v -3.409723 0.5 -8.450188
v -3.409502 -11.43 -8.999836
v -3.409721 -11.43 -8.450188
v 6.000273 0.5 -8.44967
v 5.590277 0.5 -8.449693
v 6.000277 -11.43 -8.44967
v 5.590281 -11.43 -8.449693
v 6.000495 0.5 -8.999674
v 6.000273 0.5 -8.44967
v 6.000497 -11.43 -8.999674
v 6.000277 -11.43 -8.44967
v 5.590277 0.5 -8.449693
v 5.590497 0.5 -8.999757
v 5.590281 -11.43 -8.449693
v 5.590501 -11.43 -8.999757
v 5.590497 0.5 -8.999757
v 6.000495 0.5 -8.999674
v 5.590501 -11.43 -8.999757
v 6.000497 -11.43 -8.999674
vn 0.9999998 0 0.0007375059
vn 0.9999998 0 0.0007375059
vn 0.9999998 0 0.0007375059
vn 0.9999998 0 0.0007375059
vn -0.9999999 0 0.0003041166
vn -0.9999999 0 0.0003041166
vn -0.9999999 0 0.0003041166
vn -0.9999999 0 0.0003041166
vn -0.0004747635 0 0.9999999
vn -0.0004747635 0 0.9999999
vn -0.0004747635 0 0.9999999
vn -0.0004747635 0 0.9999999
vn 0.0002777866 0 -1
vn 0.0002777866 0 -1
vn 0.0002777866 0 -1
vn 0.0002777866 0 -1
vn 1.011068E-07 1 -1.323809E-07
vn 1.011068E-07 1 -1.323809E-07
vn 2.02199E-07 1 1.481851E-10
vn 1.455803E-11 1 -2.649099E-07
vn 0 -1 0
vn 0 -1 0
vn 0 -1 0
vn 0 -1 0
vn -1.509984E-05 0 1
vn -1.509984E-05 0 1
vn -1.509984E-05 0 1
vn -1.509984E-05 0 1
vn -0.000330299 0 0.9999999
vn -0.000330299 0 0.9999999
vn -0.000330299 0 0.9999999
vn -0.000330299 0 0.9999999
vn 8.794995E-06 0 -1
vn 8.794995E-06 0 -1
vn 8.794995E-06 0 -1
vn 8.794995E-06 0 -1
vn 0.000202366 0 -1
vn 0.000202366 0 -1
vn 0.000202366 0 -1
vn 0.000202366 0 -1
vn -1.453708E-07 1 -1.325621E-07
vn -1.453708E-07 1 -1.325621E-07
vn 1.448054E-11 1 -2.649088E-07
vn -2.907561E-07 1 -2.154128E-10
vn 0 -1 0
vn 0 -1 0
vn 0 -1 0
vn 0 -1 0
vn 0 -1 0
vn 0 -1 0
vn 0 -1 0
vn 0 -1 0
vn 1 0 1.654258E-05
vn 1 0 1.654258E-05
vn 1 0 1.654258E-05
vn 1 0 1.654258E-05
vn 0.9999999 0 0.0004048751
vn 0.9999999 0 0.0004048751
vn 0.9999999 0 0.0004048751
vn 0.9999999 0 0.0004048751
vn -1 0 9.536742E-07
vn -1 0 9.536742E-07
vn -1 0 9.536742E-07
vn -1 0 9.536742E-07
vn -1 0 2.515239E-05
vn -1 0 2.515239E-05
vn 0 1 0
vn 0 1 0
vn 1.009098E-07 1 1.084129E-07
vn 2.018196E-07 1 2.168259E-07
vn 0 -1 0
vn 0 -1 0
vn 0 -1 0
vn 0 -1 0
vn 0 -1 0
vn 0 -1 0
vn 0 -1 0
vn 0 1 0
vn 0 1 0
vn -1.45384E-07 1 1.083129E-07
vn -2.907558E-07 1 -1.166987E-10
vn 0 -1 0
vn 0 -1 0
vn 0 -1 0
vn 0 -1 0
vn 0 -1 0
vn 0 -1 0
vn 0 -1 0
vn 0 -1 0
vn 0 -1 0
vn -0.9999999 -3.988449E-08 0.0003041166
vn -0.9999999 -9.98333E-08 0.0003025273
vn -0.9999999 -9.98333E-08 0.0003025273
vn -0.9999999 -1.597821E-07 0.000300938
vn 5.495465E-05 -3.197479E-07 -1
vn 5.495465E-05 -3.197479E-07 -1
vn 5.495465E-05 -3.197479E-07 -1
vn 5.495465E-05 -3.197479E-07 -1
vn -0.0004747635 3.196807E-07 0.9999999
vn -0.0004751673 2.997244E-07 0.9999999
vn -0.0004751673 2.997244E-07 0.9999999
vn -0.0004755711 2.79768E-07 0.9999999
vn 0.9999998 1.601126E-07 0.0007328675
vn 0.9999998 1.601126E-07 0.0007328675
vn 0.9999998 1.601126E-07 0.0007328675
vn 0.9999998 1.601126E-07 0.0007328675
vn -0.000330299 2.797211E-07 0.9999999
vn -0.0003297181 2.996862E-07 0.9999999
vn -0.0003297181 2.996862E-07 0.9999999
vn -0.0003291371 3.196514E-07 0.9999999
vn -0.9999998 -3.199935E-07 -0.0007408709
vn -0.9999998 -3.199343E-07 -0.0007408693
vn -0.9999998 -3.199343E-07 -0.0007408693
vn -0.9999998 -3.198751E-07 -0.0007408677
vn 0.9999998 3.198745E-07 0.0007375059
vn 0.9999998 2.599648E-07 0.0007390942
vn 0.9999998 2.599648E-07 0.0007390942
vn 0.9999998 2.000551E-07 0.0007406824
vn 5.466235E-05 -1.598609E-07 -1
vn 5.466235E-05 -1.598609E-07 -1
vn 5.466235E-05 -1.598609E-07 -1
vn 5.466235E-05 -1.598609E-07 -1
vn -1 -1.598783E-07 2.515239E-05
vn -1 -8.993382E-08 2.667016E-05
vn -1 -8.993382E-08 2.667016E-05
vn -1 -1.99893E-08 2.818792E-05
vn 0.0002777866 1.598839E-07 -0.9999999
vn 0.0002794013 7.996441E-08 -0.9999999
vn 0.0002794013 7.996441E-08 -0.9999999
vn 0.0002810159 4.492836E-11 -0.9999999
vn -5.493296E-05 -8.78259E-12 1
vn -5.493296E-05 -8.78259E-12 1
vn -5.493296E-05 -8.78259E-12 1
vn -5.493296E-05 -8.78259E-12 1
vn 0.9999999 1.598783E-07 0.0003981969
vn 0.9999999 1.598783E-07 0.0003981969
vn 0.9999999 1.598783E-07 0.0003981969
vn 0.9999999 1.598783E-07 0.0003981969
vn -5.582537E-05 -1.785054E-11 1
vn -5.582537E-05 -1.785054E-11 1
vn -5.582537E-05 -1.785054E-11 1
vn -5.582537E-05 -1.785054E-11 1
vn 0.9999999 1.598783E-07 0.0004048751
vn 0.9999999 2.398175E-07 0.0004031412
vn 0.9999999 2.398175E-07 0.0004031412
vn 0.9999999 3.197567E-07 0.0004014073
vn -0.9999999 -3.197567E-07 -0.0004013634
vn -0.9999999 -3.197567E-07 -0.0004013634
vn -0.9999999 -3.197567E-07 -0.0004013634
vn -0.9999999 -3.197567E-07 -0.0004013634
vn 0.0002023661 6.47079E-11 -1
vn 0.0002023665 4.8531E-11 -1
vn 0.0002023665 4.8531E-11 -1
vn 0.000202367 3.23541E-11 -1
vt 4.998014 0.5
vt 4.548013 0.5
vt 4.548013 0.9999999
vt 4.998014 1
vt -4.549342 0.9999999
vt -4.999341 0.5
vt -4.999341 1
vt -4.549342 0.5
vt 3.99847 0.5
vt 3.408906 0.5
vt 3.408906 0.9999999
vt 3.99847 1
vt -3.41097 0.9999999
vt -4.001467 0.5
vt -4.001467 1
vt -3.41097 0.5
vt -3.409943 4.549814
vt -3.999837 4.999781
vt -3.410273 5.000061
vt -3.999974 4.549782
vt 3.999836 4.999784
vt 3.999972 4.549786
vt 3.409941 4.549818
vt 3.410271 5.000065
vt 3.408906 0.9999999
vt 3.408906 0.5
vt -5.591095 0.5
vt -5.591095 0.9999999
vt -5.591095 0.9999999
vt -5.591095 0.5
vt -6.001093 0.5
vt -6.001093 1
vt 5.589031 0.9999999
vt 5.589031 0.5
vt -3.41097 0.9999999
vt -3.41097 0.5
vt 5.999029 1
vt 5.999029 0.5
vt 5.589031 0.9999999
vt 5.589031 0.5
vt 5.590062 4.550309
vt 5.999726 5.000332
vt 6.000058 4.550331
vt 5.589728 5.000197
vt -5.999728 5.000336
vt -5.589732 5.000201
vt -5.590065 4.550311
vt -6.000062 4.550333
vt -5.589728 5.000197
vt 3.410273 5.000061
vt 3.409943 4.549814
vt -5.590062 4.550309
vt 4.548013 0.5
vt -8.451987 0.5
vt -8.451987 0.9999999
vt 4.548013 0.9999999
vt -8.451987 0.5
vt -9.001991 0.5
vt -9.001991 1
vt -8.451987 0.9999999
vt -4.549342 0.9999999
vt 8.450661 0.9999999
vt 8.450661 0.5
vt -4.549342 0.5
vt 9.000441 1
vt 9.000441 0.5
vt -3.409723 -8.450188
vt -3.999986 -8.45022
vt -3.409504 -8.999836
vt -4 -9
vt 3.999974 4.549782
vt 3.999986 -8.45022
vt 3.409723 -8.450188
vt 3.999984 -8.45022
vt 4 -9.000002
vt 3.409502 -8.999836
vt 3.409721 -8.450188
vt 6.000273 -8.44967
vt 5.590277 -8.449693
vt 6.000495 -8.999674
vt 5.590497 -8.999757
vt -6.000058 4.550331
vt -6.000273 -8.44967
vt -5.590277 -8.449693
vt -6.000277 -8.44967
vt -5.590281 -8.449693
vt -6.000497 -8.999674
vt -5.590501 -8.999757
vt 3.409504 -8.999836
vt -5.590497 -8.999757
vt -4.998564 0.5000002
vt -4.548565 0.5000002
vt -4.998568 -11.43
vt -4.548569 -11.43
vt -3.999724 0.4999985
vt -3.409693 0.4999985
vt -3.999722 -11.43
vt -3.409691 -11.43
vt 3.407899 0.4999984
vt 3.997463 0.4999984
vt 3.407897 -11.43
vt 3.997462 -11.43
vt 4.552312 0.5000005
vt 5.002559 0.5000005
vt 4.552316 -11.43
vt 5.002563 -11.43
vt -6.001377 0.4999986
vt -5.59138 0.4999986
vt -6.001379 -11.43
vt -5.591383 -11.43
vt -4.996055 0.4999982
vt -4.546166 0.4999982
vt -4.996058 -11.43
vt -4.546168 -11.43
vt 4.545905 0.4999981
vt 4.995906 0.4999981
vt 4.545907 -11.43
vt 4.99591 -11.43
vt 5.590311 0.4999993
vt 6.000307 0.4999993
vt 5.590314 -11.43
vt 6.00031 -11.43
vt 8.45032 0.5000007
vt 9.0001 0.5000007
vt 8.45032 -11.43
vt 9.000102 -11.43
vt -4.0025 0.4999986
vt -3.412004 0.4999986
vt -4.0025 -11.43
vt -3.412002 -11.43
vt 3.410187 0.5
vt 4.00045 0.5
vt 3.410185 -11.43
vt 4.000448 -11.43
vt -8.998478 0.5000005
vt -8.44883 0.5000005
vt -8.998478 -11.43
vt -8.44883 -11.43
vt -5.999801 0.5
vt -5.589805 0.5
vt -5.999805 -11.43
vt -5.589809 -11.43
vt -9.002103 0.499999
vt -8.452099 0.499999
vt -9.002103 -11.43
vt -8.452099 -11.43
vt 8.451936 0.4999982
vt 9.002 0.4999982
vt 8.451936 -11.43
vt 9.002 -11.43
vt 5.588676 0.5
vt 5.998674 0.5
vt 5.58868 -11.43
vt 5.998676 -11.43
g submesh0
f 1/1/1 2/2/2 3/3/3
f 4/4/4 1/1/1 3/3/3
f 5/5/5 6/6/6 7/7/7
f 5/5/5 8/8/8 6/6/6
f 9/9/9 10/10/10 11/11/11
f 12/12/12 9/9/9 11/11/11
f 13/13/13 14/14/14 15/15/15
f 13/13/13 16/16/16 14/14/14
f 17/17/17 18/18/18 19/19/19
f 17/17/17 20/20/20 18/18/18
f 21/21/21 22/22/22 23/23/23
f 24/24/24 21/21/21 23/23/23
f 25/25/25 26/26/26 27/27/27
f 25/25/25 27/27/27 28/28/28
f 29/29/29 30/30/30 31/31/31
f 29/29/29 31/31/31 32/32/32
f 33/33/33 34/34/34 35/35/35
f 34/34/34 36/36/36 35/35/35
f 37/37/37 38/38/38 39/39/39
f 38/38/38 40/40/40 39/39/39
f 41/41/41 42/42/42 43/43/43
f 41/41/41 44/44/44 42/42/42
f 17/17/17 44/44/44 41/41/41
f 17/17/17 19/19/19 44/44/44
f 45/45/45 46/46/46 47/47/47
f 48/48/48 45/45/45 47/47/47
f 49/49/49 50/50/50 51/51/51
f 52/52/52 49/49/49 51/51/51
f 53/53/53 54/54/54 55/55/55
f 56/56/56 53/53/53 55/55/55
f 57/57/57 58/58/58 59/59/59
f 60/60/60 57/57/57 59/59/59
f 61/61/61 62/62/62 63/63/63
f 61/61/61 63/63/63 64/64/64
f 65/65/65 63/63/63 62/62/62
f 65/65/65 66/66/66 63/63/63
f 67/67/67 20/20/20 17/17/17
f 67/67/67 68/68/68 20/20/20
f 69/69/69 68/68/68 67/67/67
f 69/69/69 70/70/70 68/68/68
f 71/71/71 72/72/72 73/73/73
f 51/51/51 71/71/71 73/73/73
f 74/74/74 75/75/75 76/76/76
f 77/77/77 74/74/74 76/76/76
f 78/78/78 79/79/79 41/41/41
f 78/78/78 41/41/41 43/43/43
f 80/80/80 81/81/81 79/79/79
f 80/80/80 79/79/79 78/78/78
f 79/79/79 67/67/67 41/41/41
f 41/41/41 67/67/67 17/17/17
f 81/81/81 69/69/69 79/79/79
f 79/79/79 69/69/69 67/67/67
f 82/82/82 52/52/52 83/83/83
f 52/52/52 84/84/84 83/83/83
f 85/85/85 86/86/86 87/87/87
f 86/86/86 88/88/88 87/87/87
f 51/51/51 73/73/73 52/52/52
f 52/52/52 73/73/73 84/84/84
f 73/73/73 89/89/89 84/84/84
f 84/84/84 89/89/89 90/90/90
f 91/91/91 92/92/92 93/93/93
f 92/92/92 94/94/94 93/93/93
f 95/95/95 96/96/96 97/97/97
f 96/96/96 98/98/98 97/97/97
f 99/99/99 100/100/100 101/101/101
f 100/100/100 102/102/102 101/101/101
f 103/103/103 104/104/104 105/105/105
f 104/104/104 106/106/106 105/105/105
f 107/107/107 108/108/108 109/109/109
f 108/108/108 110/110/110 109/109/109
f 111/111/111 112/112/112 113/113/113
f 112/112/112 114/114/114 113/113/113
f 115/115/115 116/116/116 117/117/117
f 116/116/116 118/118/118 117/117/117
f 119/119/119 120/120/120 121/121/121
f 120/120/120 122/122/122 121/121/121
f 123/123/123 124/124/124 125/125/125
f 124/124/124 126/126/126 125/125/125
f 127/127/127 128/128/128 129/129/129
f 128/128/128 130/130/130 129/129/129
f 131/131/131 132/132/132 133/133/133
f 132/132/132 134/134/134 133/133/133
f 135/135/135 136/136/136 137/137/137
f 136/136/136 138/138/138 137/137/137
f 139/139/139 140/140/140 141/141/141
f 140/140/140 142/142/142 141/141/141
f 143/143/143 144/144/144 145/145/145
f 144/144/144 146/146/146 145/145/145
f 147/147/147 148/148/148 149/149/149
f 148/148/148 150/150/150 149/149/149
f 151/151/151 152/152/152 153/153/153
f 152/152/152 154/154/154 153/153/153
