v 0.9996386 -0.25 7.000308
v 0.9999509 -0.25 0.4997628
v 0.9999509 0.25 0.4997628
v 0.9996386 0.25 7.000308
v -1.000141 0.25 0.4998341
v -0.9999089 -0.25 6.999473
v -0.9999089 0.25 6.999473
v -1.000141 -0.25 0.4998341
v 0.9999509 -0.25 0.4997628
v 1.000278 -0.25 -0.5002371
v 1.000278 0.25 -0.5002371
v 0.9999509 0.25 0.4997628
v 1.000278 -0.25 -0.5002371
v 1.000407 -0.2500021 -10.57649
v 1.000407 0.2499967 -10.2351
v 1.000278 0.25 -0.5002371
v -1.000176 0.25 -0.5001661
v -1.000176 -0.25 -0.5001661
v -1.000409 0.2499976 -10.38486
v -1.000409 -0.250003 -10.72625
v 0.5000906 -0.25 6.999874
v 0.9996386 -0.25 7.000308
v 0.9996386 0.25 7.000308
v 0.5000906 0.25 6.999874
v 1.000407 0.2499967 -10.2351
v 0.4995919 -0.2500023 -10.47591
v 0.4995919 0.2499959 -10.68613
v 1.000407 -0.2500021 -10.57649
v 0.9999509 0.25 0.4997628
v 0.4998598 0.25 0.4997807
v 0.5000906 0.25 6.999874
v 0.9996386 0.25 7.000308
v 0.9996386 -0.25 7.000308
v 0.5000906 -0.25 6.999874
v 0.9999509 -0.25 0.4997628
v 0.4998598 -0.25 0.4997807
v 1.000407 0.2499967 -10.2351
v 0.4998236 0.25 -0.5002195
v 1.000278 0.25 -0.5002371
v 0.4995919 0.2499959 -10.68613
v 1.000407 -0.2500021 -10.57649
v 0.4998236 -0.25 -0.5002195
v 0.4995919 -0.2500023 -10.47591
v 1.000278 -0.25 -0.5002371
v -0.9999089 -0.25 6.999473
v -0.4999094 -0.25 6.999682
v -0.4999094 0.25 6.999682
v -0.9999089 0.25 6.999473
v -0.4999094 -0.25 6.999682
v 0.5000906 -0.25 6.999874
v 0.5000906 0.25 6.999874
v -0.4999094 0.25 6.999682
v -0.5004086 0.2499964 -10.48529
v -1.000409 -0.250003 -10.72625
v -1.000409 0.2499976 -10.38486
v -0.5004081 -0.2500035 -10.27506
v 0.4995919 0.2499959 -10.68613
v -0.5004081 -0.2500035 -10.27506
v -0.5004086 0.2499964 -10.48529
v 0.4995919 -0.2500023 -10.47591
v -0.4999094 0.25 6.999682
v -0.5001407 0.25 0.4998162
v -0.9999089 0.25 6.999473
v -1.000141 0.25 0.4998341
v -0.9999089 -0.25 6.999473
v -1.000141 -0.25 0.4998341
v -0.5001407 -0.25 0.4998162
v -0.4999094 -0.25 6.999682
v -0.5001764 0.25 -0.5001837
v -0.5004086 0.2499964 -10.48529
v -1.000176 0.25 -0.5001661
v -1.000409 0.2499976 -10.38486
v -1.000176 -0.25 -0.5001661
v -1.000409 -0.250003 -10.72625
v -0.5004081 -0.2500035 -10.27506
v -0.5001764 -0.25 -0.5001837
v -1.152414 -9.358935 15.15197
v -1.194621 -9.632508 14.5013
v -0.4887752 -9.648858 14.46239
v -0.4465681 -9.375285 15.11306
v -0.5001407 -0.25 0.4998162
v -0.5001764 -0.25 -0.5001837
v -1.152414 -9.358935 15.15197
v -1.194621 -9.632508 14.5013
v -0.5001764 -0.25 -0.5001837
v 0.4998236 -0.25 -0.5002195
v -1.194621 -9.632508 14.5013
v -0.4887752 -9.648858 14.46239
v 0.4998236 -0.25 -0.5002195
v 0.4998598 -0.25 0.4997807
v -0.4887752 -9.648858 14.46239
v -0.4465681 -9.375285 15.11306
v 0.4998598 -0.25 0.4997807
v -0.5001407 -0.25 0.4998162
v -0.4465681 -9.375285 15.11306
v -1.152414 -9.358935 15.15197
vn 1 0 4.804648E-05
vn 1 0 4.804648E-05
vn 1 0 4.804648E-05
vn 1 0 4.804648E-05
vn -1 0 3.565473E-05
vn -1 0 3.565473E-05
vn -1 0 3.565473E-05
vn -1 0 3.565473E-05
vn 0.9999999 0 0.0003266335
vn 0.9999999 0 0.0003266335
vn 0.9999999 0 0.0003266335
vn 0.9999999 0 0.0003266335
vn 1 -4.394329E-06 1.309752E-05
vn 1 -8.788658E-06 1.287182E-05
vn 1 -4.394329E-06 1.309752E-05
vn 1 0 1.332322E-05
vn -1 0 3.552436E-05
vn -1 0 3.552436E-05
vn -1 -7.768398E-06 2.314814E-05
vn -1 -1.55368E-05 2.275519E-05
vn -0.0008686286 0 0.9999996
vn -0.0008686286 0 0.9999996
vn -0.0008686286 0 0.9999996
vn -0.0008686286 0 0.9999996
vn 0.2375633 0.1290354 -0.7619958
vn 0.2375633 0.1290354 -0.7619958
vn 0.6387582 -0.2982096 -0.7092665
vn -0.1636316 0.5562803 -0.8147251
vn 0 1 0
vn 0 1 0
vn 0 1 0
vn 0 1 0
vn 0 -1 0
vn 0 -1 0
vn 0 -1 0
vn 0 -1 0
vn -6.215582E-07 1 -3.717765E-07
vn -6.215582E-07 1 -3.717765E-07
vn -1.230362E-11 1 -3.398155E-07
vn -1.243104E-06 1 -4.037374E-07
vn 1.715726E-07 -1 2.185185E-07
vn 1.715726E-07 -1 2.185185E-07
vn 3.431377E-07 -1 2.270417E-07
vn 7.403158E-12 -1 2.099952E-07
vn -0.0004196171 0 0.9999999
vn -0.0004196171 0 0.9999999
vn -0.0004196171 0 0.9999999
vn -0.0004196171 0 0.9999999
vn -0.0001916885 0 1
vn -0.0001916885 0 1
vn -0.0001916885 0 1
vn -0.0001916885 0 1
vn 0.2379397 0.129156 -0.7617081
vn 0.2379397 0.129156 -0.7617081
vn -0.1636313 0.5562791 -0.814726
vn 0.6395106 -0.297967 -0.7086902
vn -0.1820511 -0.3811069 -0.9064298
vn -0.1820511 -0.3811069 -0.9064298
vn -0.1820509 -0.3811071 -0.9064297
vn -0.1820512 -0.3811066 -0.9064299
vn 0 1 0
vn 0 1 0
vn 0 1 0
vn 0 1 0
vn 0 -1 0
vn 0 -1 0
vn 0 -1 0
vn 0 -1 0
vn 2.398456E-07 1 -3.80223E-07
vn 4.797057E-07 1 -3.566803E-07
vn 1.122853E-06 1 -3.004683E-07
vn 2.245718E-06 1 -2.442675E-07
vn -6.679412E-07 -1 3.256156E-07
vn -1.335895E-06 -1 2.914646E-07
vn -6.679412E-07 -1 3.256156E-07
vn 1.269471E-11 -1 3.597665E-07
vn 1.367491E-05 -0.9218357 0.3875808
vn 1.36749E-05 -0.9218357 0.3875808
vn 1.367491E-05 -0.9218357 0.3875808
vn 1.367491E-05 -0.9218357 0.3875808
vn -0.9974419 0.07148229 3.567131E-05
vn -0.9958206 0.08857383 0.01004983
vn -0.9958206 0.08857383 0.01004983
vn -0.9941993 0.1056654 0.02006399
vn -1.896382E-05 -0.8478307 -0.5302669
vn -0.02449624 -0.8460745 -0.5319333
vn -0.02449624 -0.8460745 -0.5319333
vn -0.04897351 -0.8443182 -0.5335996
vn 0.9945078 -0.1046625 -3.604059E-05
vn 0.9934105 -0.1138853 -0.00632196
vn 0.9934105 -0.1138853 -0.00632196
vn 0.9923132 -0.123108 -0.01260788
vn 1.881601E-05 0.8482068 0.5296652
vn 0.02440106 0.847742 0.5292856
vn 0.02440106 0.847742 0.5292856
vn 0.0487833 0.8472772 0.5289059
vt 7.000179 -0.2499971
vt 0.4996336 -0.2499971
vt 0.4996336 0.2500029
vt 7.000179 0.2500029
vt -0.4998025 0.25
vt -6.999441 -0.25
vt -6.999441 0.25
vt -0.4998025 -0.25
vt 0.4996336 -0.2499971
vt -0.5003663 -0.2499971
vt -0.5003663 0.2500029
vt 0.4996336 0.2500029
vt -0.5003663 -0.2499971
vt -10.57662 -0.2499992
vt -10.23523 0.2499996
vt -0.5003663 0.2500029
vt 0.5001976 0.25
vt 0.5001976 -0.25
vt 10.3849 0.2499976
vt 10.72629 -0.250003
vt -0.5035436 -0.25
vt -1.003092 -0.25
vt -1.003092 0.25
vt -0.5035436 0.25
vt -0.2321253 0.7657646
vt -0.7581677 0.275387
vt -0.7833354 0.7852314
vt -0.2729963 0.2834095
vt 0.9999509 0.4997628
vt 0.4998598 0.4997807
vt 0.5000906 6.999874
vt 0.9996386 7.000308
vt -0.9996386 7.000308
vt -0.5000906 6.999874
vt -0.9999509 0.4997627
vt -0.4998598 0.4997806
vt 1.000407 -10.2351
vt 0.4998236 -0.5002194
vt 1.000278 -0.500237
vt 0.4995919 -10.68613
vt -1.000407 -10.57649
vt -0.4998236 -0.5002195
vt -0.4995919 -10.47591
vt -1.000278 -0.5002371
vt 0.9964558 -0.25
vt 0.4964563 -0.25
vt 0.4964563 0.25
vt 0.9964558 0.25
vt 0.4964563 -0.25
vt -0.5035436 -0.25
vt -0.5035436 0.25
vt 0.4964563 0.25
vt -1.752099 0.7692133
vt -2.277352 0.2788483
vt -2.236481 0.7612051
vt -1.72693 0.2593671
vt -0.7833354 0.7852314
vt -1.72693 0.2593671
vt -1.752099 0.7692133
vt -0.7581677 0.275387
vt -0.4999094 6.999682
vt -0.5001407 0.4998162
vt -0.9999089 6.999473
vt -1.000141 0.4998341
vt 0.9999089 6.999473
vt 1.000141 0.499834
vt 0.5001407 0.4998161
vt 0.4999094 6.999682
vt -0.5001764 -0.5001836
vt -0.5004086 -10.48529
vt -1.000176 -0.500166
vt -1.000409 -10.38486
vt 1.000176 -0.5001661
vt 1.000409 -10.72625
vt 0.5004081 -10.27506
vt 0.5001764 -0.5001837
vt 1.152553 10.34029
vt 1.194764 9.634448
vt 0.4889183 9.592237
vt 0.4467072 10.29808
vt -0.4997983 -0.2851129
vt 0.5002016 -0.2851129
vt -15.15193 -9.41741
vt -14.50126 -9.693298
vt 0.5001708 -0.2914984
vt -0.4998292 -0.2915406
vt 1.194406 17.40246
vt 0.4885593 17.37813
vt -0.5002013 -0.1963122
vt 0.4997988 -0.1963122
vt 14.46237 -9.647076
vt 15.11305 -9.37059
vt 0.4998654 0.5563278
vt -0.5001351 0.5563696
vt -0.4463601 17.78477
vt -1.152206 17.80912
g submesh0
f 1/1/1 2/2/2 3/3/3
f 4/4/4 1/1/1 3/3/3
f 5/5/5 6/6/6 7/7/7
f 5/5/5 8/8/8 6/6/6
f 9/9/9 10/10/10 11/11/11
f 12/12/12 9/9/9 11/11/11
f 13/13/13 14/14/14 15/15/15
f 16/16/16 13/13/13 15/15/15
f 17/17/17 8/8/8 5/5/5
f 17/17/17 18/18/18 8/8/8
f 19/19/19 18/18/18 17/17/17
f 19/19/19 20/20/20 18/18/18
f 21/21/21 22/22/22 23/23/23
f 24/24/24 21/21/21 23/23/23
f 25/25/25 26/26/26 27/27/27
f 25/25/25 28/28/28 26/26/26
f 29/29/29 30/30/30 31/31/31
f 29/29/29 31/31/31 32/32/32
f 33/33/33 34/34/34 35/35/35
f 34/34/34 36/36/36 35/35/35
f 37/37/37 38/38/38 39/39/39
f 40/40/40 38/38/38 37/37/37
f 38/38/38 30/30/30 39/39/39
f 39/39/39 30/30/30 29/29/29
f 41/41/41 42/42/42 43/43/43
f 44/44/44 42/42/42 41/41/41
f 35/35/35 36/36/36 44/44/44
f 44/44/44 36/36/36 42/42/42
f 45/45/45 46/46/46 47/47/47
f 48/48/48 45/45/45 47/47/47
f 49/49/49 50/50/50 51/51/51
f 52/52/52 49/49/49 51/51/51
f 53/53/53 54/54/54 55/55/55
f 53/53/53 56/56/56 54/54/54
f 57/57/57 58/58/58 59/59/59
f 57/57/57 60/60/60 58/58/58
f 61/61/61 62/62/62 63/63/63
f 62/62/62 64/64/64 63/63/63
f 31/31/31 30/30/30 61/61/61
f 30/30/30 62/62/62 61/61/61
f 65/65/65 66/66/66 67/67/67
f 65/65/65 67/67/67 68/68/68
f 68/68/68 67/67/67 36/36/36
f 68/68/68 36/36/36 34/34/34
f 38/38/38 40/40/40 69/69/69
f 40/40/40 70/70/70 69/69/69
f 69/69/69 70/70/70 71/71/71
f 70/70/70 72/72/72 71/71/71
f 62/62/62 69/69/69 64/64/64
f 69/69/69 71/71/71 64/64/64
f 30/30/30 38/38/38 62/62/62
f 38/38/38 69/69/69 62/62/62
f 73/73/73 74/74/74 75/75/75
f 73/73/73 75/75/75 76/76/76
f 76/76/76 75/75/75 43/43/43
f 76/76/76 43/43/43 42/42/42
f 66/66/66 73/73/73 76/76/76
f 66/66/66 76/76/76 67/67/67
f 77/77/77 78/78/78 79/79/79
f 77/77/77 79/79/79 80/80/80
f 81/81/81 82/82/82 83/83/83
f 82/82/82 84/84/84 83/83/83
f 85/85/85 86/86/86 87/87/87
f 86/86/86 88/88/88 87/87/87
f 89/89/89 90/90/90 91/91/91
f 90/90/90 92/92/92 91/91/91
f 93/93/93 94/94/94 95/95/95
f 94/94/94 96/96/96 95/95/95
