v -4 -4 -4.000002
v 3.999998 -4 -4
v -4 -4 -4.011999E-06
v 4 -4 -2.330198E-06
v -4 -4 6.191721
v 3.999998 -4 6.549189
v 4.000001 8.5 -2.007779E-06
v -3.999998 8.5 -3.68958E-06
v 4 0 6.549191
v -3.999998 0 6.191724
v -4 -4 6.191721
v 3.999998 -4 6.549189
v -3.999999 -2 6.191723
v 3.999999 -2 6.54919
v -3.999998 0 6.191724
v 4 0 6.549191
v 4 2.25 -2.168988E-06
v 4 -4 -2.330198E-06
v 4 5.5 -4
v 3.999998 -4 -4
v 4 8.5 -4
v 4.000001 8.5 -2.007779E-06
v 4 5.5 -4
v 3.999998 -4 -4
v -3.999997 5.5 -4.000001
v -4 -4 -4.000002
v 0.8816828 8.5 -23.40905
v 0.8816828 5.5 -23.40905
v -9.143449 8.5 -24.11385
v -9.143449 5.5 -24.11385
v -3.999997 5.5 -4.000001
v -4 -4 -4.011999E-06
v -3.999999 2.25 -3.85079E-06
v -4 -4 -4.000002
v -3.999998 8.5 -4.000001
v -3.999998 8.5 -3.68958E-06
v -3.999998 8.5 -3.68958E-06
v -3.999999 2.25 -3.85079E-06
v -3.999998 0 6.191724
v -3.999999 -2 6.191723
v -4 -4 -4.011999E-06
v -4 -4 6.191721
v 3.999998 -4 6.549189
v 3.999999 -2 6.54919
v 4 0 6.549191
v 4 8.5 -4
v 4 5.5 -4
v 4.000001 8.5 -12.72823
v 4.000001 5.5 -12.72823
v 4 5.5 -4
v -3.999997 5.5 -4.000001
v 4.000001 5.5 -12.72823
v -3.999998 5.5 -13.08569
v -3.999997 5.5 -4.000001
v -3.999998 8.5 -4.000001
v -3.999998 5.5 -13.08569
v -3.999998 8.5 -13.08569
v 4.000001 8.5 -12.72823
v 4.000001 5.5 -12.72823
v 4.08928 8.5 -17.78592
v 4.08928 5.5 -17.78592
v 4.000001 -2.5 -12.72823
v -3.999998 -2.5 -13.08569
v 4.089281 -2.5 -17.78592
v -3.910717 -2.5 -18.14339
v -9.594684 5.5 -15.56713
v -9.594684 8.5 -15.56713
v -9.143449 5.5 -24.11385
v -9.143449 8.5 -24.11385
v 4.000001 5.5 -12.72823
v -3.999998 5.5 -13.08569
v 4.000001 -2.5 -12.72823
v -3.999998 -2.5 -13.08569
v 4.08928 5.5 -17.78592
v 4.000001 5.5 -12.72823
v 4.089281 -2.5 -17.78592
v 4.000001 -2.5 -12.72823
v -9.594684 -2.5 -15.56713
v -9.143449 -2.5 -24.11385
v -7.215043 5 -20.7393
v -0.5623692 5 -20.61292
v -7.215042 -1.1544 -20.73931
v -0.5623676 -1.1544 -20.61292
v -3.999998 5.5 -13.08569
v -3.999998 8.5 -13.08569
v -9.594684 5.5 -15.56713
v -9.594684 8.5 -15.56713
v -3.999998 -2.5 -13.08569
v -9.594684 -2.5 -15.56713
v 4.08928 5.5 -17.78592
v 4.089281 -2.5 -17.78592
v 0.8816828 5.5 -23.40905
v 0.8816828 -2.5 -23.40905
v 4.08928 8.5 -17.78592
v 4.08928 5.5 -17.78592
v 0.8816828 8.5 -23.40905
v 0.8816828 5.5 -23.40905
v -9.143449 -2.5 -24.11385
v -9.594684 -2.5 -15.56713
v 0.8816828 -2.5 -23.40905
v -3.999998 8.5 -13.08569
v -3.910718 8.5 -18.14339
v -3.999998 11 -13.0857
v -3.910718 11 -18.14339
v -9.594683 11 -15.56713
v -3.999998 11 -13.0857
v 4.089281 11 -17.78592
v 0.8816825 11 -23.40906
v -9.143449 8.5 -24.11385
v -9.594684 8.5 -15.56713
v -9.143448 11 -24.11385
v -9.594683 11 -15.56713
v -3.910718 8.5 -18.14339
v 4.08928 8.5 -17.78592
v -3.910718 11 -18.14339
v 4.089281 11 -17.78592
v 0.8816825 11 -23.40906
v -9.143448 11 -24.11385
v -3.999998 11 -13.0857
v -3.910718 11 -18.14339
v -3.999997 14 -13.0857
v -3.910716 14 -18.14339
v -9.594682 14 -15.56713
v -3.999997 14 -13.0857
v -3.910718 11 -18.14339
v -9.143448 11 -24.11385
v -3.910716 14 -18.14339
v -9.143447 14 -24.11385
v -9.143447 14 -24.11385
v -9.594682 14 -15.56713
v -9.143449 5.5 -24.11385
v 0.8816828 5.5 -23.40905
v -7.316961 5 -23.90712
v -0.6642868 5 -23.56767
v -9.143449 -2.5 -24.11385
v -9.143449 5.5 -24.11385
v -7.31696 -1.1544 -23.90712
v -7.316961 5 -23.90712
v 0.8816828 5.5 -23.40905
v 0.8816828 -2.5 -23.40905
v -0.6642868 5 -23.56767
v -0.6642852 -1.1544 -23.56767
v 0.8816828 -2.5 -23.40905
v -9.143449 -2.5 -24.11385
v -0.6642852 -1.1544 -23.56767
v -7.31696 -1.1544 -23.90712
v -7.316961 5 -23.90712
v -0.6642868 5 -23.56767
v -7.215043 5 -20.7393
v -0.5623692 5 -20.61292
v -7.31696 -1.1544 -23.90712
v -7.316961 5 -23.90712
v -7.215042 -1.1544 -20.73931
v -7.215043 5 -20.7393
v -0.6642868 5 -23.56767
v -0.6642852 -1.1544 -23.56767
v -0.5623692 5 -20.61292
v -0.5623676 -1.1544 -20.61292
v -0.6642852 -1.1544 -23.56767
v -7.31696 -1.1544 -23.90712
v -0.5623676 -1.1544 -20.61292
v -7.215042 -1.1544 -20.73931
v -3.999998 8.5 -3.68958E-06
v 4.000001 8.5 -2.007779E-06
v -3.999998 8.5 -4.000001
v 4 8.5 -4
v -3.999998 8.5 -13.08569
v 4.000001 8.5 -12.72823
v -3.910718 8.5 -18.14339
v 4.08928 8.5 -17.78592
v -3.999997 14 -13.0857
v -3.910716 14 -18.14339
v -9.594682 14 -15.56713
v -9.143447 14 -24.11385
v -3.910718 11 -18.14339
v 4.089281 11 -17.78592
v -9.143448 11 -24.11385
v 0.8816825 11 -23.40906
vn 0 -1 0
vn 0 -1 0
vn 0 -1 0
vn 0 -1 0
vn 0 -1 0
vn 0 -1 0
vn -1.665279E-07 0.6103389 0.7921404
vn -0.01804684 0.5993716 0.7999507
vn -0.01804684 0.5993716 0.7999507
vn -0.03609351 0.5884042 0.8077609
vn -0.04463887 -6.985787E-07 0.9990032
vn -0.04463884 -5.768276E-07 0.9990032
vn -0.04463884 -5.768276E-07 0.9990032
vn -0.04463881 -4.550764E-07 0.9990032
vn -0.04463884 -5.794882E-07 0.9990032
vn -0.04463887 -7.039E-07 0.9990032
vn 1 -1.525879E-07 -2.431871E-07
vn 1 -1.766807E-07 -3.004076E-07
vn 1 -1.766807E-07 -3.004076E-07
vn 1 -2.007735E-07 -3.57628E-07
vn 1 -7.629394E-08 -2.384187E-07
vn 1 -1.525879E-07 -3.57628E-07
vn 1.78814E-07 5.019335E-08 -1
vn 1.78814E-07 5.019334E-08 -1
vn 1.78814E-07 5.019334E-08 -1
vn 1.78814E-07 5.019334E-08 -1
vn 0.07012981 0 -0.9975379
vn 0.07012981 0 -0.9975379
vn 0.07012981 0 -0.9975379
vn 0.07012981 0 -0.9975379
vn -1 2.143258E-07 -8.702283E-08
vn -1 2.143258E-07 -8.702283E-08
vn -1 1.525879E-07 -2.336503E-07
vn -1 2.760636E-07 5.960467E-08
vn -1 -4.291535E-08 -2.458693E-07
vn -1 1.525879E-07 5.960467E-08
vn -1 1.525879E-07 1.709666E-07
vn -1 3.147125E-07 2.298807E-07
vn -1 3.147125E-07 2.298807E-07
vn -1 4.76837E-07 2.887949E-07
vn -1 2.551079E-07 3.311515E-08
vn -1 3.576279E-07 0
vn 1 -3.57628E-07 2.184257E-07
vn 1 -2.551079E-07 1.87118E-07
vn 1 -2.551079E-07 5.797379E-08
vn 1 0 1.092633E-07
vn 1 0 1.092633E-07
vn 1 0 1.092633E-07
vn 1 0 1.092633E-07
vn 0 -1 0
vn 0 -1 0
vn 0 -1 0
vn 0 -1 0
vn -1 -2.384186E-07 2.624111E-08
vn -1 -1.192093E-07 -1.312055E-08
vn -1 -1.192093E-07 -1.312055E-08
vn -1 0 -5.248221E-08
vn 0.9998443 0 0.01764931
vn 0.9998443 0 0.01764931
vn 0.9998443 0 0.01764931
vn 0.9998443 0 0.01764931
vn 0 -1 0
vn 0 -1 0
vn 0 -1 0
vn 0 -1 0
vn -0.9986092 0 -0.05272284
vn -0.9986092 0 -0.05272284
vn -0.9986092 0 -0.05272284
vn -0.9986092 0 -0.05272284
vn -0.04463892 0 0.9990032
vn -0.04463892 0 0.9990032
vn -0.04463892 0 0.9990032
vn -0.04463892 0 0.9990032
vn 0.9998443 1.787861E-07 0.01764931
vn 0.9998443 8.939305E-08 0.01764945
vn 0.9998443 8.939305E-08 0.01764945
vn 0.9998443 0 0.01764959
vn -0.9986092 0 -0.05272284
vn -0.9986092 0 -0.05272284
vn 0.01899473 6.226641E-07 -0.9998196
vn 0.01899473 6.236759E-07 -0.9998196
vn 0.01899473 6.236759E-07 -0.9998196
vn 0.01899473 6.246877E-07 -0.9998196
vn -0.4054439 0 0.9141199
vn -0.4054439 0 0.9141199
vn -0.4054439 0 0.9141199
vn -0.4054439 0 0.9141199
vn -0.4054439 0 0.9141199
vn -0.4054439 0 0.9141199
vn 0.8686171 1.553208E-07 -0.495484
vn 0.8686171 7.766042E-08 -0.4954841
vn 0.8686171 7.766042E-08 -0.4954841
vn 0.8686169 0 -0.4954842
vn 0.8686171 0 -0.495484
vn 0.8686171 0 -0.495484
vn 0.8686171 0 -0.495484
vn 0.8686171 0 -0.495484
vn 0 -1 0
vn 0 -1 0
vn 0 -1 0
vn 0.9998443 1.222836E-07 0.0176495
vn 0.9998443 2.693107E-08 0.01764955
vn 0.9998443 2.693107E-08 0.01764955
vn 0.9998443 -6.842144E-08 0.01764959
vn -0.405444 1.452835E-06 0.9141199
vn -0.405444 1.35617E-06 0.9141199
vn 0.8686171 -9.527885E-07 -0.4954841
vn 0.868617 -6.525017E-07 -0.4954842
vn -0.9986092 3.004905E-07 -0.05272283
vn -0.9986092 3.004905E-07 -0.05272283
vn -0.9986092 3.004905E-07 -0.05272283
vn -0.9986092 3.004905E-07 -0.05272283
vn -0.04463893 1.528615E-06 0.9990032
vn -0.04463892 1.539258E-06 0.9990032
vn -0.04463892 1.539258E-06 0.9990032
vn -0.04463892 1.5499E-06 0.9990032
vn 0.07012981 -1.531318E-06 -0.9975379
vn 0.07012981 -1.548874E-06 -0.9975379
vn 0.9998443 -3.178419E-07 0.01764959
vn 0.9998443 -4.029131E-07 0.01764964
vn 0.9998443 -4.029131E-07 0.01764964
vn 0.9998443 -4.879843E-07 0.01764969
vn -0.4054441 1.288872E-07 0.9141199
vn -0.4054441 1.288872E-07 0.9141199
vn 0.7520412 6.045357E-08 -0.6591161
vn 0.7520412 -8.930695E-08 -0.6591161
vn 0.7520412 -8.930695E-08 -0.6591161
vn 0.7520412 -2.390675E-07 -0.6591161
vn -0.9986092 3.174493E-07 -0.05272284
vn -0.9986092 3.174493E-07 -0.05272284
vn 0.069289 -0.1543859 -0.985578
vn 0.05980694 0.001440398 -0.9859256
vn 0.05980694 0.001440398 -0.9859256
vn 0.05032488 0.1572667 -0.9862731
vn 0.1124642 0 -0.9936558
vn 0.1124653 3.166638E-07 -0.9936557
vn 0.1124653 3.166638E-07 -0.9936557
vn 0.1124665 6.333276E-07 -0.9936555
vn 0.1020609 0 -0.9947782
vn 0.1020624 3.201596E-07 -0.994778
vn 0.1020624 3.201596E-07 -0.994778
vn 0.102064 6.403192E-07 -0.9947779
vn 0.07008182 -0.03698874 -0.9968553
vn 0.06043044 0.02348731 -0.9960147
vn 0.06043044 0.02348731 -0.9960147
vn 0.05077905 0.08396336 -0.9951742
vn 0 -1 0
vn 0 -1 0
vn 0 -1 0
vn 0 -1 0
vn 0.9994829 1.748097E-07 -0.03215653
vn 0.9994829 1.748097E-07 -0.03215653
vn 0.9994829 1.748097E-07 -0.03215653
vn 0.9994829 1.748097E-07 -0.03215653
vn -0.9994057 -2.730244E-07 0.03447229
vn -0.9994057 -2.778639E-07 0.0344723
vn -0.9994057 -2.778639E-07 0.0344723
vn -0.9994057 -2.827035E-07 0.03447231
vn 0 1 0
vn 0 1 0
vn 0 1 0
vn 0 1 0
vn 0 1 0
vn 0 1 0
vn 0 1 0
vn 0 1 0
vn 0 1 0
vn 0 1 0
vn 0 1 0
vn 0 1 0
vn 0 1 0
vn 0 1 0
vn 0 1 0
vn 0 1 0
vn 0 1 0
vn 0 1 0
vn 0 1 0
vn 0 1 0
vt 4 -4.000002
vt -3.999998 -4
vt 4 -4.011999E-06
vt -4 -2.330198E-06
vt 4 6.191721
vt -3.999998 6.549189
vt -4.000001 6.733195
vt 3.999998 6.733195
vt -4.000001 -3.997225
vt 3.999997 -3.77905
vt 3.719621 -3.999996
vt -4.288359 -3.999996
vt 3.719621 -1.999996
vt -4.28836 -1.999996
vt 3.71962 3.670992E-06
vt -4.288361 3.670992E-06
vt -1.444195E-06 2.25
vt -1.605405E-06 -4
vt -3.999999 5.5
vt -4 -4
vt -3.999999 8.5
vt -1.282986E-06 8.5
vt 3.999999 5.5
vt 3.999997 -4
vt -3.999998 5.5
vt -4.000001 -4
vt -0.7621606 8.5
vt -0.7621606 5.5
vt -10.81204 8.5
vt -10.81204 5.5
vt 4 5.5
vt 2.442012E-06 -4
vt 2.280803E-06 2.25
vt 4 -4
vt 4 8.5
vt 2.119594E-06 8.5
vt 4.163974E-06 8.499999
vt 4.325183E-06 2.249999
vt -6.191723 -6.103514E-07
vt -6.191722 -2.000001
vt 4.486393E-06 -4
vt -6.191721 -4
vt 6.549188 -3.999999
vt 6.549189 -1.999999
vt 6.549191 1.430512E-06
vt -4 8.5
vt -4 5.5
vt -12.72823 8.5
vt -12.72823 5.5
vt -4 -4
vt 3.999997 -4.000001
vt -4.000001 -12.72823
vt 3.999998 -13.08569
vt 4.000001 5.500001
vt 4.000001 8.500001
vt 13.08569 5.500001
vt 13.08569 8.500001
vt -12.79684 8.5
vt -12.79684 5.5
vt -17.85532 8.5
vt -17.85532 5.5
vt -4.000001 -12.72823
vt 3.999998 -13.08569
vt -4.089281 -17.78592
vt 3.910717 -18.14339
vt 15.03962 5.5
vt 15.03962 8.5
vt 23.59824 5.5
vt 23.59824 8.5
vt -3.427839 5.5
vt 4.580142 5.5
vt -3.427839 -2.5
vt 4.580142 -2.5
vt -17.85532 5.5
vt -12.79684 5.5
vt -17.85532 -2.500001
vt -12.79684 -2.500001
vt 15.03962 -2.5
vt 23.59824 -2.5
vt -7.607678 4.999987
vt -0.9538046 4.999987
vt -7.607677 -1.154413
vt -0.953803 -1.154413
vt 8.961992 5.5
vt 8.961992 8.5
vt 15.08229 5.5
vt 15.08229 8.5
vt 8.961992 -2.5
vt 15.08229 -2.5
vt -13.42298 5.499998
vt -13.42298 -2.500002
vt -19.89664 5.499998
vt -19.89664 -2.500002
vt -13.42298 8.5
vt -13.42298 5.5
vt -19.89664 8.5
vt -19.89664 5.5
vt 9.143449 -24.11385
vt 9.594684 -15.56713
vt -0.8816828 -23.40905
vt -13.01306 8.500001
vt -18.07154 8.500001
vt -13.01306 11
vt -18.07154 11
vt 15.08229 11.00002
vt 8.961994 11.00002
vt -13.42298 11.00002
vt -19.89665 11.00002
vt 23.59824 8.499997
vt 15.03962 8.499997
vt 23.59825 11
vt 15.03963 11
vt 4.716721 8.500028
vt -3.291259 8.500028
vt 4.716721 11.00003
vt -3.29126 11.00003
vt -0.762161 11.00004
vt -10.81204 11.00004
vt -13.01306 11
vt -18.07154 11
vt -13.01306 14
vt -18.07154 14
vt 15.08229 14
vt 8.961995 14
vt -16.22219 11
vt -24.16121 11
vt -16.22219 14
vt -24.1612 14
vt 23.59825 14
vt 15.03963 14
vt -10.81204 9.048734
vt -0.7621605 9.048734
vt -8.975548 8.542666
vt -2.315447 8.562417
vt -11.79739 -2.5
vt -11.79739 5.5
vt -9.959236 -1.1544
vt -9.959236 5
vt -1.512071 5.5
vt -1.512071 -2.5
vt -3.066155 5
vt -3.066154 -1.1544
vt -0.7621605 -1.632263
vt -10.81204 -1.632263
vt -2.315446 -0.2857411
vt -8.975548 -0.2904731
vt 7.316961 -23.90712
vt 0.6642868 -23.56767
vt 7.215043 -20.7393
vt 0.5623692 -20.61292
vt -24.13005 -1.154399
vt -24.13004 5.000001
vt -20.96059 -1.154399
vt -20.96059 5.000001
vt 23.57656 5
vt 23.57656 -1.1544
vt 20.62005 5
vt 20.62005 -1.1544
vt -0.6642852 -23.56767
vt -7.31696 -23.90712
vt -0.5623676 -20.61292
vt -7.215042 -20.73931
vt -3.999998 -3.68958E-06
vt 4.000001 -2.007779E-06
vt -3.999998 -4.000001
vt 4 -4
vt -3.999998 -13.08569
vt 4.000001 -12.72823
vt -3.910718 -18.14339
vt 4.08928 -17.78592
vt -3.999997 -13.0857
vt -3.910716 -18.14339
vt -9.594682 -15.56713
vt -9.143447 -24.11385
vt -3.910718 -18.14339
vt 4.089281 -17.78592
vt -9.143448 -24.11385
vt 0.8816825 -23.40906
g submesh0
f 1/1/1 2/2/2 3/3/3
f 2/2/2 4/4/4 3/3/3
f 3/3/3 4/4/4 5/5/5
f 4/4/4 6/6/6 5/5/5
f 7/7/7 8/8/8 9/9/9
f 8/8/8 10/10/10 9/9/9
f 11/11/11 12/12/12 13/13/13
f 13/13/13 12/12/12 14/14/14
f 13/13/13 14/14/14 15/15/15
f 15/15/15 14/14/14 16/16/16
f 17/17/17 18/18/18 19/19/19
f 18/18/18 20/20/20 19/19/19
f 17/17/17 19/19/19 21/21/21
f 22/22/22 17/17/17 21/21/21
f 23/23/23 24/24/24 25/25/25
f 25/25/25 24/24/24 26/26/26
f 27/27/27 28/28/28 29/29/29
f 29/29/29 28/28/28 30/30/30
f 31/31/31 32/32/32 33/33/33
f 31/31/31 34/34/34 32/32/32
f 35/35/35 31/31/31 33/33/33
f 35/35/35 33/33/33 36/36/36
f 37/37/37 38/38/38 39/39/39
f 38/38/38 40/40/40 39/39/39
f 40/40/40 38/38/38 41/41/41
f 40/40/40 41/41/41 42/42/42
f 43/43/43 18/18/18 44/44/44
f 18/18/18 17/17/17 44/44/44
f 45/45/45 44/44/44 17/17/17
f 45/45/45 17/17/17 22/22/22
f 46/46/46 47/47/47 48/48/48
f 47/47/47 49/49/49 48/48/48
f 50/50/50 51/51/51 52/52/52
f 51/51/51 53/53/53 52/52/52
f 54/54/54 55/55/55 56/56/56
f 55/55/55 57/57/57 56/56/56
f 58/58/58 59/59/59 60/60/60
f 59/59/59 61/61/61 60/60/60
f 62/62/62 63/63/63 64/64/64
f 63/63/63 65/65/65 64/64/64
f 66/66/66 67/67/67 68/68/68
f 67/67/67 69/69/69 68/68/68
f 70/70/70 71/71/71 72/72/72
f 71/71/71 73/73/73 72/72/72
f 74/74/74 75/75/75 76/76/76
f 75/75/75 77/77/77 76/76/76
f 66/66/66 68/68/68 78/78/78
f 68/68/68 79/79/79 78/78/78
f 80/80/80 81/81/81 82/82/82
f 81/81/81 83/83/83 82/82/82
f 84/84/84 85/85/85 86/86/86
f 85/85/85 87/87/87 86/86/86
f 88/88/88 84/84/84 89/89/89
f 84/84/84 86/86/86 89/89/89
f 90/90/90 91/91/91 92/92/92
f 91/91/91 93/93/93 92/92/92
f 94/94/94 95/95/95 96/96/96
f 95/95/95 97/97/97 96/96/96
f 65/65/65 63/63/63 98/98/98
f 63/63/63 99/99/99 98/98/98
f 64/64/64 65/65/65 100/100/100
f 65/65/65 98/98/98 100/100/100
f 101/101/101 102/102/102 103/103/103
f 102/102/102 104/104/104 103/103/103
f 87/87/87 85/85/85 105/105/105
f 85/85/85 106/106/106 105/105/105
f 94/94/94 96/96/96 107/107/107
f 96/96/96 108/108/108 107/107/107
f 109/109/109 110/110/110 111/111/111
f 110/110/110 112/112/112 111/111/111
f 113/113/113 114/114/114 115/115/115
f 114/114/114 116/116/116 115/115/115
f 27/27/27 29/29/29 117/117/117
f 29/29/29 118/118/118 117/117/117
f 119/119/119 120/120/120 121/121/121
f 120/120/120 122/122/122 121/121/121
f 105/105/105 106/106/106 123/123/123
f 106/106/106 124/124/124 123/123/123
f 125/125/125 126/126/126 127/127/127
f 126/126/126 128/128/128 127/127/127
f 111/111/111 112/112/112 129/129/129
f 112/112/112 130/130/130 129/129/129
f 131/131/131 132/132/132 133/133/133
f 132/132/132 134/134/134 133/133/133
f 135/135/135 136/136/136 137/137/137
f 136/136/136 138/138/138 137/137/137
f 139/139/139 140/140/140 141/141/141
f 140/140/140 142/142/142 141/141/141
f 143/143/143 144/144/144 145/145/145
f 144/144/144 146/146/146 145/145/145
f 147/147/147 148/148/148 149/149/149
f 148/148/148 150/150/150 149/149/149
f 151/151/151 152/152/152 153/153/153
f 152/152/152 154/154/154 153/153/153
f 155/155/155 156/156/156 157/157/157
f 156/156/156 158/158/158 157/157/157
f 159/159/159 160/160/160 161/161/161
f 160/160/160 162/162/162 161/161/161
g submesh1
f 163/163/163 164/164/164 165/165/165
f 164/164/164 166/166/166 165/165/165
f 165/165/165 166/166/166 167/167/167
f 166/166/166 168/168/168 167/167/167
f 167/167/167 168/168/168 169/169/169
f 168/168/168 170/170/170 169/169/169
f 171/171/171 172/172/172 173/173/173
f 172/172/172 174/174/174 173/173/173
f 175/175/175 176/176/176 177/177/177
f 176/176/176 178/178/178 177/177/177
