v -2.980232E-06 -4 -2.000001
v 7.000005 -4 -1.999992
v 1.192093E-07 -4 9.999999
v 6.999969 -4 10.00001
v -1.000003 -4 -2
v -0.9999999 -4 10
v -9.000031 -4 9.999979
v -10.00003 -4 9.99998
v -8.999995 -4 -2.000021
v -9.999997 -4 -2.000021
v -2.000031 -4 9.999997
v -1.999995 -4 -2.000003
v -7.000031 -4 9.999983
v -6.999995 -4 -2.000017
v 1.192093E-07 -4 9.999999
v 6.999969 -4 10.00001
v 6.999969 2 10.00001
v 1.192149E-07 4 9.999997
v 6.999969 2 10.00001
v 6.999969 -4 10.00001
v 7.000005 2 -1.999992
v 7.000005 -4 -1.999992
v -2.980232E-06 4 -2.000001
v 7.000005 2 -1.999992
v -2.980232E-06 -4 -2.000001
v 7.000005 -4 -1.999992
v -9.999999 4 -2.000021
v -10.00003 -4 9.99998
v -10.00003 4 9.99998
v -9.999997 -4 -2.000021
v -1.000003 4 -2
v -1.000003 -4 -2
v -0.9999999 4 10
v -0.9999999 -4 10
v 1.192093E-07 -4 9.999999
v -8.999995 4 -2.000021
v -8.999995 -4 -2.000021
v -9.999999 4 -2.000021
v -9.999997 -4 -2.000021
v -10.00003 4 9.99998
v -10.00003 -4 9.99998
v -9.000031 -4 9.999979
v -9.000031 4 9.999979
v -1.999995 4 -2.000003
v -1.999995 -4 -2.000003
v -2.000031 -4 9.999997
v -0.9999999 -4 10
v -2.000031 4 9.999997
v -0.9999999 4 10
v -6.999995 4 -2.000017
v -6.999995 -4 -2.000017
v -7.000031 -4 9.999983
v -7.000031 4 9.999983
v 6.999969 4 10.00001
v 1.192149E-07 8.5 9.999997
v 6.999969 6 10.00001
v 1.192149E-07 13 9.999997
v 6.999969 6 10.00001
v 6.999969 4 10.00001
v 7.000005 6 -1.999992
v 7.000005 4 -1.999992
v 7.000005 4 -1.999992
v -2.980232E-06 8.5 -2.000001
v 7.000005 6 -1.999992
v -2.980232E-06 13 -2.000001
v -9.999999 13 -2.000021
v -10.00003 8.5 9.99998
v -10.00003 13 9.99998
v -9.999999 8.5 -2.000021
v -1.000003 7 -2
v -1.000003 13 -2
v -0.9999999 7 10
v -0.9999999 13 10
v -7.999995 13 -2.000018
v -8.999995 7 -2.000021
v -9.999999 13 -2.000021
v -9.999999 8.5 -2.000021
v -10.00003 13 9.99998
v -10.00003 8.5 9.99998
v -9.000031 7 9.999979
v -8.000031 13 9.999982
v -1.999995 13 -2.000003
v -1.999995 8.5 -2.000003
v -2.000031 8.5 9.999997
v -0.9999999 7 10
v -0.9999999 13 10
v -2.000031 13 9.999997
v -6.999988 10 -6.000022
v -1.999984 10 -6.000008
v -1.999984 9 -6.000008
v -6.999988 9 -6.000022
v -6.999995 13 -2.000017
v -6.999995 8.5 -2.000017
v -7.000031 8.5 9.999983
v -7.000031 13 9.999983
v -6.999995 8.5 -2.000017
v -1.999995 8.5 -2.000003
v -8.000031 8.5 9.999976
v -2.000031 8.5 9.999993
v -8.999995 7 -2.000021
v -6.999995 8.5 -2.000017
v -9.000031 7 9.999973
v -8.000031 8.5 9.999976
v -1.999995 8.5 -2.000003
v -1.000003 7 -2
v -2.000031 8.5 9.999993
v -1.000038 7 9.999996
v -1.000003 7 -2
v -1.000003 4 -2
v -1.000038 7 9.999996
v -1.000038 4 9.999996
v -9.000031 4 9.999979
v -7.000031 4 9.999983
v -7.000031 4 10.00008
v -8.000031 4 10.00008
v -10.00003 8.5 9.99998
v -9.999999 8.5 -2.000021
v -16.00003 8.5 9.999962
v -16 8.5 -2.00004
v -9.999999 4 -2.000021
v -10.00003 4 9.99998
v -16 4 -2.00004
v -16.00003 4 9.999962
v -18 6.25 -2.000046
v -18.00003 4 9.999956
v -18.00003 6.25 9.999956
v -18 4 -2.000046
v -16 8.5 -2.00004
v -16.00003 6.25 9.999962
v -16.00003 8.5 9.999962
v -16 6.25 -2.00004
v -9.999999 6.25 -2.000021
v -8.999995 5.5 -2.000021
v -10.00003 6.25 9.99998
v -9.000031 5.5 9.999979
v -9.000031 4 9.999973
v -8.999995 4 -2.000021
v -8.999995 5.5 -2.000021
v -9.000031 5.5 9.999973
v -8.999995 7 -2.000021
v -9.000031 7 9.999973
v -16.00003 4 9.999962
v -16.00003 6.25 9.999962
v -16.00003 8.5 9.999962
v -16 6.25 -2.00004
v -16 8.5 -2.00004
v -16 4 -2.00004
v -18.00003 4 9.999956
v -18.00003 6.25 9.999956
v -16.00003 6.25 9.999962
v -16 6.25 -2.00004
v -18.00003 6.25 9.999956
v -18 6.25 -2.000046
v -18 6.25 -2.000046
v -18 4 -2.000046
v -18 4 -2.000046
v -18.00003 4 9.999956
v -1.999995 13 -2.000003
v -1.999995 8.5 -2.000003
v -1.999984 10 -6.000008
v -1.999984 9 -6.000008
v -6.999995 8.5 -2.000017
v -6.999995 13 -2.000017
v -6.999988 9 -6.000022
v -6.999988 10 -6.000022
v -1.999995 8.5 -2.000003
v -6.999995 8.5 -2.000017
v -1.999984 9 -6.000008
v -6.999988 9 -6.000022
v 1.192149E-07 13 9.999997
v 6.999969 6 10.00001
v -2.980232E-06 13 -2.000001
v 7.000005 6 -1.999992
v 1.192149E-07 13 9.999997
v -2.980232E-06 13 -2.000001
v -0.9999999 13 10
v -1.000003 13 -2
v -7.999995 13 -2.000018
v -9.999999 13 -2.000021
v -10.00003 13 9.99998
v -8.000031 13 9.999982
v -1.999995 13 -2.000003
v -2.000031 13 9.999997
v -6.999995 13 -2.000017
v -7.000031 13 9.999983
v -6.999995 13 -2.000017
v -1.999995 13 -2.000003
v -6.999988 10 -6.000022
v -1.999984 10 -6.000008
vn 0 -1 0
vn 0 -1 0
vn 0 -1 0
vn 0 -1 0
vn 0 -1 0
vn 0 -1 0
vn 0 -1 0
vn 0 -1 0
vn 0 -1 0
vn 0 -1 0
vn 0 -1 0
vn 0 -1 0
vn 0 -1 0
vn 0 -1 0
vn -1.192098E-06 1.192093E-07 1
vn -1.089918E-06 0 1
vn -1.192098E-06 1.192093E-07 1
vn -1.294278E-06 2.384186E-07 1
vn 1 0 2.940496E-06
vn 1 0 2.940496E-06
vn 1 0 2.940496E-06
vn 1 0 2.940496E-06
vn 1.277241E-06 0 -1
vn 1.277241E-06 0 -1
vn 1.277241E-06 0 -1
vn 1.277241E-06 0 -1
vn -1 -2.384186E-07 -2.940496E-06
vn -1 -2.384186E-07 -2.940496E-06
vn -1 -2.384186E-07 -2.940496E-06
vn -1 -2.384186E-07 -2.940496E-06
vn -8.34465E-07 0 -1
vn -8.34465E-07 0 -1
vn 1.907349E-06 1.192093E-07 1
vn 9.536743E-07 0 1
vn 1.907349E-06 1.192093E-07 1
vn -9.536707E-07 0 -1
vn -9.536716E-07 -1.136866E-13 -1
vn -9.536716E-07 -1.136866E-13 -1
vn -9.536725E-07 -2.273732E-13 -1
vn 9.536716E-07 1.136866E-13 1
vn 9.536725E-07 2.273732E-13 1
vn 9.536716E-07 1.136866E-13 1
vn 9.536707E-07 0 1
vn 2.980255E-06 0 -1
vn 2.980255E-06 0 -1
vn -2.860935E-06 0 1
vn -2.860935E-06 0 1
vn -2.860935E-06 0 1
vn -2.860935E-06 0 1
vn 2.908707E-06 0 -1
vn 2.908707E-06 0 -1
vn -1.907349E-06 0 1
vn -1.907349E-06 0 1
vn -1.634877E-06 -4.768372E-07 1
vn -1.634877E-06 0 1
vn -1.634877E-06 0 1
vn -1.634877E-06 0 1
vn 1 0 2.940496E-06
vn 1 0 2.940496E-06
vn 1 0 2.940496E-06
vn 1 0 2.940496E-06
vn 1.277241E-06 0 -1
vn 1.277241E-06 0 -1
vn 1.277241E-06 0 -1
vn 1.277241E-06 0 -1
vn -1 0 -2.940496E-06
vn -1 0 -2.940496E-06
vn -1 0 -2.940496E-06
vn -1 0 -2.940496E-06
vn -8.34465E-07 0 -1
vn -8.34465E-07 0 -1
vn 2.861023E-06 0 1
vn 2.861023E-06 0 1
vn 1.072882E-06 3.3776E-07 -1
vn 5.960544E-08 1.6888E-07 -1
vn 5.960544E-08 1.6888E-07 -1
vn -9.536707E-07 0 -1
vn -9.094947E-13 -1.589459E-07 1
vn 9.536707E-07 0 1
vn -9.094947E-13 -1.589459E-07 1
vn -9.536725E-07 -3.178917E-07 1
vn 2.980255E-06 0 -1
vn 2.980255E-06 0 -1
vn -2.860935E-06 0 1
vn -2.860935E-06 0 1
vn -2.860935E-06 0 1
vn -2.860935E-06 0 1
vn 2.956388E-06 0 -1
vn 2.956388E-06 0 -1
vn 2.956388E-06 0 -1
vn 2.956388E-06 0 -1
vn 9.536743E-07 0 -1
vn 1.413482E-06 1.021794E-07 -1
vn -1.362392E-06 -9.082613E-08 1
vn -9.536743E-07 0 1
vn 0 -1 0
vn 0 -1 0
vn 0 -1 0
vn 0 -1 0
vn 0.6 -0.8 1.764298E-06
vn 0.7150286 -0.6766858 0.03458784
vn 0.7150286 -0.6766858 0.03458784
vn 0.8300572 -0.5533715 0.06917391
vn -0.8320523 -0.5546973 -2.438381E-06
vn -0.8320522 -0.5546973 -2.434248E-06
vn -0.8320522 -0.5546973 -2.434248E-06
vn -0.8320522 -0.5546973 -2.430116E-06
vn -1 0 -2.920629E-06
vn -1 0 -2.920629E-06
vn -1 0 -2.920629E-06
vn -1 0 -2.920629E-06
vn 0 -1 0
vn 0 0 0
vn 0 0 0
vn 0 1 0
vn 0 1 0
vn 0 1 0
vn 0 1 0
vn 0 1 0
vn 0 -1 0
vn 0 -1 0
vn 0 -1 0
vn 0 -1 0
vn -1 0 -2.861022E-06
vn -1 0 -2.861022E-06
vn -1 0 -2.861022E-06
vn -1 0 -2.861022E-06
vn -1 0 -2.940496E-06
vn -1 0 -2.940496E-06
vn -1 0 -2.940496E-06
vn -1 0 -2.940496E-06
vn -9.536707E-07 0 -1
vn -9.536707E-07 0 -1
vn 9.536707E-07 0 1
vn 9.536707E-07 0 1
vn 1 0 2.940497E-06
vn 1 0 2.940497E-06
vn 1 0 2.940497E-06
vn 1 0 2.940497E-06
vn 1 0 2.940497E-06
vn 1 0 2.940497E-06
vn -3.019971E-06 0 1
vn -3.019971E-06 0 1
vn -3.019971E-06 0 1
vn 3.218653E-06 0 -1
vn 3.218653E-06 0 -1
vn 3.218653E-06 0 -1
vn -2.861023E-06 0 1
vn -2.861023E-06 0 1
vn 0 1 0
vn 0 1 0
vn 0 1 0
vn 0 1 0
vn 2.980231E-06 0 -1
vn 2.980231E-06 0 -1
vn 0 -1 0
vn 0 -1 0
vn 1 0 2.920624E-06
vn 1 0 2.920624E-06
vn 1 0 2.920624E-06
vn 1 0 2.920624E-06
vn -1 0 -1.907346E-06
vn -1 0 -1.907346E-06
vn -1 0 -1.907346E-06
vn -1 0 -1.907346E-06
vn 3.607802E-07 -0.9922779 -0.1240346
vn 3.607801E-07 -0.9922779 -0.1240346
vn 3.607801E-07 -0.9922779 -0.1240346
vn 3.607799E-07 -0.9922779 -0.1240346
vn 0.7071083 0.7071053 -1.826371E-07
vn 0.7071074 0.7071062 9.483031E-07
vn 0.7071074 0.7071062 9.483031E-07
vn 0.7071064 0.7071071 2.079243E-06
vn 0 1 0
vn 0 1 0
vn 0 1 0
vn 0 1 0
vn 0 1 0
vn 0 1 0
vn 0 1 0
vn 0 1 0
vn 0 1 0
vn 0 1 0
vn 0 1 0
vn 0 1 0
vn 1.745223E-06 0.8000004 -0.5999995
vn 1.759527E-06 0.8000003 -0.5999995
vn 1.759527E-06 0.8000003 -0.5999995
vn 1.773831E-06 0.8000003 -0.5999995
vt 2.980232E-06 -2.000001
vt -7.000005 -1.999992
vt -1.192093E-07 9.999999
vt -6.999969 10.00001
vt 1.000003 -2
vt 0.9999999 10
vt 9.000031 9.999979
vt 10.00003 9.99998
vt 8.999995 -2.000021
vt 9.999997 -2.000021
vt 2.000031 9.999997
vt 1.999995 -2.000003
vt 7.000031 9.999983
vt 6.999995 -2.000017
vt -1.465145E-05 -3.999997
vt -6.999984 -3.999997
vt -6.999984 2.000003
vt -1.465145E-05 4.000003
vt 9.999986 2
vt 9.999986 -4
vt -2.000012 2
vt -2.000012 -4
vt -5.534715E-06 4
vt 7.000002 2
vt -5.534715E-06 -4
vt 7.000002 -4
vt 1.999991 4.000001
vt -10.00001 -3.999999
vt -10.00001 4.000001
vt 1.999991 -3.999999
vt -1.000001 4
vt -1.000001 -4
vt 1.000022 4
vt 1.000022 -4
vt 2.213319E-05 -4
vt -8.999997 4
vt -8.999997 -4
vt -10 4
vt -9.999999 -4
vt 10.00002 4
vt 10.00002 -4
vt 9.000019 -4
vt 9.000019 4
vt -1.999998 4
vt -1.999998 -4
vt 2.000019 -4
vt 0.9999886 -4
vt 2.000019 4
vt 0.9999886 4
vt -6.999998 4
vt -6.999998 -4
vt 7.000019 -4
vt 7.000019 4
vt -6.999984 4.000003
vt -1.465145E-05 8.500003
vt -6.999984 6.000003
vt -1.465145E-05 13
vt 9.999988 6
vt 9.999988 4
vt -2.000012 6
vt -2.000012 4
vt 7.000002 4
vt -5.534715E-06 8.5
vt 7.000002 6
vt -5.534715E-06 13
vt 1.999991 13
vt -10.00001 8.500001
vt -10.00001 13
vt 1.999991 8.500001
vt -1.000001 7
vt -1.000001 13
vt 1.000022 7
vt 1.000022 13
vt -7.999998 13
vt -8.999997 7
vt -10 13
vt -10 8.5
vt 10.00002 13
vt 10.00002 8.5
vt 9.000019 7
vt 8.000019 13
vt -1.999998 13
vt -1.999998 8.5
vt 2.000019 8.5
vt 0.9999886 7
vt 0.9999886 13
vt 2.000019 13
vt -7.000005 10
vt -2.000001 10
vt -2.000001 9
vt -7.000005 9
vt -6.999998 13
vt -6.999998 8.5
vt 7.000019 8.5
vt 7.000019 13
vt 6.999995 -2.000017
vt 1.999995 -2.000003
vt 8.000031 9.999976
vt 2.000031 9.999993
vt 2.999996 -2.000002
vt 0.4999956 -1.999998
vt 3.000024 9.999992
vt 1.300024 9.999996
vt 1.999997 8.181839
vt 1.999997 6.379068
vt -9.999999 8.181839
vt -9.999999 6.379068
vt 1.999997 7
vt 1.999997 4
vt -9.999999 7
vt -9.999999 4
vt 9.000031 9.999979
vt 7.000031 9.999983
vt 7.000031 10.00008
vt 8.000031 10.00008
vt -10.00003 9.99998
vt -9.999999 -2.000021
vt -16.00003 9.999962
vt -16 -2.00004
vt 9.999999 -2.000021
vt 10.00003 9.99998
vt 16 -2.00004
vt 16.00003 9.999962
vt 1.999994 6.25
vt -10.00001 4
vt -10.00001 6.25
vt 1.999994 4
vt 1.999993 8.5
vt -10.00001 6.25
vt -10.00001 8.5
vt 1.999993 6.25
vt -10 6.25
vt -8.999997 5.5
vt 10.00002 6.25
vt 9.000019 5.5
vt 10 4
vt -1.999995 4
vt -1.999995 5.5
vt 10 5.5
vt -1.999995 7
vt 10 7
vt 16 4
vt 16 6.25
vt 16 8.5
vt -16 6.25
vt -16 8.5
vt -16 4
vt 18 4
vt 18 6.25
vt -16.00003 9.999962
vt -16 -2.00004
vt -18.00003 9.999956
vt -18 -2.000046
vt -18 6.25
vt -18 4
vt 18 -2.000046
vt 18.00003 9.999956
vt -1.999997 13
vt -1.999997 8.5
vt -6.000002 10
vt -6.000002 9
vt 2.000004 8.5
vt 2.000004 13
vt 6.000009 9
vt 6.000009 10
vt 1.999992 -3.038853
vt 6.999992 -3.038867
vt 1.99998 -7.069986
vt 6.999984 -7.070002
vt -9.192408 9.999999
vt 0.7070655 10.00001
vt -9.19241 -1.999999
vt 0.7070904 -1.99999
vt 1.192149E-07 9.999997
vt -2.980232E-06 -2.000001
vt -0.9999999 10
vt -1.000003 -2
vt -7.999995 -2.000018
vt -9.999999 -2.000021
vt -10.00003 9.99998
vt -8.000031 9.999982
vt -1.999995 -2.000003
vt -2.000031 9.999997
vt -6.999995 -2.000017
vt -7.000031 9.999983
vt -7.000023 6.19997
vt -2.000024 6.199988
vt -7.00001 1.199966
vt -2.000005 1.199985
g submesh0
f 1/1/1 2/2/2 3/3/3
f 2/2/2 4/4/4 3/3/3
f 1/1/1 3/3/3 5/5/5
f 3/3/3 6/6/6 5/5/5
f 7/7/7 8/8/8 9/9/9
f 8/8/8 10/10/10 9/9/9
f 11/11/11 5/5/5 6/6/6
f 11/11/11 12/12/12 5/5/5
f 11/11/11 13/13/13 14/14/14
f 12/12/12 11/11/11 14/14/14
f 13/13/13 7/7/7 9/9/9
f 14/14/14 13/13/13 9/9/9
f 15/15/15 16/16/16 17/17/17
f 15/15/15 17/17/17 18/18/18
f 19/19/19 20/20/20 21/21/21
f 20/20/20 22/22/22 21/21/21
f 23/23/23 24/24/24 25/25/25
f 24/24/24 26/26/26 25/25/25
f 27/27/27 28/28/28 29/29/29
f 27/27/27 30/30/30 28/28/28
f 31/31/31 23/23/23 25/25/25
f 31/31/31 25/25/25 32/32/32
f 33/33/33 34/34/34 35/35/35
f 33/33/33 35/35/35 18/18/18
f 36/36/36 37/37/37 38/38/38
f 37/37/37 39/39/39 38/38/38
f 40/40/40 41/41/41 42/42/42
f 40/40/40 42/42/42 43/43/43
f 44/44/44 31/31/31 32/32/32
f 44/44/44 32/32/32 45/45/45
f 46/46/46 47/47/47 48/48/48
f 47/47/47 49/49/49 48/48/48
f 50/50/50 44/44/44 45/45/45
f 51/51/51 50/50/50 45/45/45
f 50/50/50 51/51/51 36/36/36
f 36/36/36 51/51/51 37/37/37
f 42/42/42 52/52/52 43/43/43
f 43/43/43 52/52/52 53/53/53
f 46/46/46 53/53/53 52/52/52
f 46/46/46 48/48/48 53/53/53
f 17/17/17 54/54/54 18/18/18
f 55/55/55 18/18/18 54/54/54
f 54/54/54 56/56/56 55/55/55
f 57/57/57 55/55/55 56/56/56
f 58/58/58 59/59/59 60/60/60
f 59/59/59 61/61/61 60/60/60
f 59/59/59 19/19/19 61/61/61
f 19/19/19 21/21/21 61/61/61
f 62/62/62 23/23/23 63/63/63
f 24/24/24 23/23/23 62/62/62
f 64/64/64 63/63/63 65/65/65
f 62/62/62 63/63/63 64/64/64
f 66/66/66 67/67/67 68/68/68
f 66/66/66 69/69/69 67/67/67
f 65/65/65 70/70/70 71/71/71
f 65/65/65 63/63/63 70/70/70
f 63/63/63 31/31/31 70/70/70
f 63/63/63 23/23/23 31/31/31
f 72/72/72 55/55/55 57/57/57
f 73/73/73 72/72/72 57/57/57
f 33/33/33 18/18/18 55/55/55
f 72/72/72 33/33/33 55/55/55
f 74/74/74 75/75/75 76/76/76
f 75/75/75 77/77/77 76/76/76
f 78/78/78 79/79/79 80/80/80
f 78/78/78 80/80/80 81/81/81
f 82/82/82 71/71/71 70/70/70
f 82/82/82 70/70/70 83/83/83
f 84/84/84 85/85/85 86/86/86
f 87/87/87 84/84/84 86/86/86
f 88/88/88 89/89/89 90/90/90
f 91/91/91 88/88/88 90/90/90
f 92/92/92 93/93/93 74/74/74
f 74/74/74 93/93/93 75/75/75
f 80/80/80 94/94/94 81/81/81
f 81/81/81 94/94/94 95/95/95
f 84/84/84 95/95/95 94/94/94
f 84/84/84 87/87/87 95/95/95
f 96/96/96 97/97/97 98/98/98
f 97/97/97 99/99/99 98/98/98
f 100/100/100 101/101/101 102/102/102
f 101/101/101 103/103/103 102/102/102
f 104/104/104 105/105/105 106/106/106
f 105/105/105 107/107/107 106/106/106
f 108/108/108 109/109/109 110/110/110
f 109/109/109 111/111/111 110/110/110
f 112/112/112 113/113/113 114/114/114
f 113/113/113 115/115/115 114/114/114
f 116/116/116 117/117/117 118/118/118
f 117/117/117 119/119/119 118/118/118
f 120/120/120 121/121/121 122/122/122
f 121/121/121 123/123/123 122/122/122
f 124/124/124 125/125/125 126/126/126
f 124/124/124 127/127/127 125/125/125
f 128/128/128 129/129/129 130/130/130
f 128/128/128 131/131/131 129/129/129
f 75/75/75 132/132/132 77/77/77
f 75/75/75 133/133/133 132/132/132
f 133/133/133 38/38/38 132/132/132
f 133/133/133 36/36/36 38/38/38
f 134/134/134 135/135/135 80/80/80
f 79/79/79 134/134/134 80/80/80
f 40/40/40 43/43/43 135/135/135
f 134/134/134 40/40/40 135/135/135
f 136/136/136 137/137/137 138/138/138
f 139/139/139 136/136/136 138/138/138
f 139/139/139 138/138/138 140/140/140
f 141/141/141 139/139/139 140/140/140
f 142/142/142 40/40/40 134/134/134
f 143/143/143 142/142/142 134/134/134
f 143/143/143 134/134/134 79/79/79
f 144/144/144 143/143/143 79/79/79
f 77/77/77 145/145/145 146/146/146
f 77/77/77 132/132/132 145/145/145
f 132/132/132 147/147/147 145/145/145
f 132/132/132 38/38/38 147/147/147
f 142/142/142 143/143/143 148/148/148
f 143/143/143 149/149/149 148/148/148
f 150/150/150 151/151/151 152/152/152
f 151/151/151 153/153/153 152/152/152
f 145/145/145 147/147/147 154/154/154
f 147/147/147 155/155/155 154/154/154
f 122/122/122 123/123/123 156/156/156
f 123/123/123 157/157/157 156/156/156
f 158/158/158 159/159/159 160/160/160
f 159/159/159 161/161/161 160/160/160
f 162/162/162 163/163/163 164/164/164
f 163/163/163 165/165/165 164/164/164
f 166/166/166 167/167/167 168/168/168
f 167/167/167 169/169/169 168/168/168
g submesh1
f 170/170/170 171/171/171 172/172/172
f 171/171/171 173/173/173 172/172/172
f 174/174/174 175/175/175 176/176/176
f 175/175/175 177/177/177 176/176/176
f 178/178/178 179/179/179 180/180/180
f 178/178/178 180/180/180 181/181/181
f 177/177/177 182/182/182 183/183/183
f 176/176/176 177/177/177 183/183/183
f 184/184/184 183/183/183 182/182/182
f 184/184/184 185/185/185 183/183/183
f 178/178/178 185/185/185 184/184/184
f 178/178/178 181/181/181 185/185/185
f 186/186/186 187/187/187 188/188/188
f 187/187/187 189/189/189 188/188/188
