v -4.000004 -2 3
v 3.999998 -2 3
v -4 3 3
v 4 3 3
v 3.999998 -2 4.105384E-07
v 3.448068 -2 -5.301963
v 4.586375 3 2.22826
v 3.448068 0 -5.301963
v 3.448068 -2 -5.301963
v -4.79774 -2 -5.383467
v 3.448068 0 -5.301963
v -4.79774 0 -5.383467
v -4.79774 -2 -5.383467
v -4.000003 -2 -2.913291E-07
v -4.79774 0 -5.383467
v -3.659433 3 2.146757
v -3.659433 3 2.146757
v 4.586375 3 2.22826
v -4.79774 0 -5.383467
v 3.448068 0 -5.301963
v -4.79774 -2 -5.383467
v 3.448068 -2 -5.301963
v -4.000003 -2 -2.913291E-07
v 3.999998 -2 4.105384E-07
v -4.000004 -2 3
v 3.999998 -2 3
v -3.659433 3 2.146757
v -4.000003 -2 -2.913291E-07
v -4 3 3
v -4.000004 -2 3
v 3.999998 -2 4.105384E-07
v 4.586375 3 2.22826
v 3.999998 -2 3
v 4 3 3
v 4.586375 3 2.22826
v -3.659433 3 2.146757
v 4 3 3
v -4 3 3
vn 2.980232E-08 -2.273736E-14 1
vn 1.490116E-08 -2.384187E-08 1
vn 1.490116E-08 -2.384187E-08 1
vn 0 -4.768372E-08 1
vn 0.9921626 -0.07032784 -0.1032833
vn 0.9904647 -0.03516392 -0.1263752
vn 0.9904647 -0.03516392 -0.1263752
vn 0.9887667 0 -0.149467
vn 0.009883796 0 -0.9999512
vn 0.009883796 0 -0.9999512
vn 0.009883796 0 -0.9999512
vn 0.009883796 0 -0.9999512
vn -0.9891985 0 0.1465823
vn -0.9890912 0.001915422 0.147278
vn -0.9890912 0.001915422 0.147278
vn -0.9889839 0.003830845 0.1479737
vn 0.003662904 0.9287934 -0.3705799
vn 0.00366291 0.9287934 -0.3705799
vn 0.00366291 0.9287934 -0.3705799
vn 0.003662915 0.9287934 -0.3705799
vn 0 -1 0
vn 0 -1 0
vn 0 -1 0
vn 0 -1 0
vn 0 -1 0
vn 0 -1 0
vn -0.9065958 0.2171177 -0.3618619
vn -0.9532979 0.1085592 -0.1809311
vn -0.9532979 0.1085592 -0.1809311
vn -1 7.629395E-07 -3.178914E-07
vn 0.9931934 -0.1164772 2.367958E-07
vn 0.8947144 -0.05823883 0.3024937
vn 0.8947144 -0.05823883 0.3024937
vn 0.7962353 -4.085226E-07 0.6049872
vn 0 1 0
vn 0 1 0
vn 0 1 0
vn 0 1 0
vt 4.000004 -2
vt -3.999998 -2
vt 4 3
vt -4 3
vt 0.4141589 -1.715249
vt -4.916455 -1.715249
vt 2.691156 3.297162
vt -4.916455 0.2797993
vt 3.395497 -2
vt -4.850715 -2
vt 3.395497 0
vt -4.850715 0
vt 6.028581 -2
vt 0.5863299 -2
vt 6.028581 0
vt -1.58716 3
vt -3.671236 3.100292
vt 4.574509 3.188043
vt -4.797703 -5.007179
vt 3.448042 -4.919427
vt 4.79774 -5.383467
vt -3.448068 -5.301963
vt 4.000003 -2.913291E-07
vt -3.999998 4.105384E-07
vt 4.000004 3
vt -3.999998 3
vt -3.350372 2.363303
vt -1.482821 -2.758884
vt -4.269072 2.363303
vt -4.269073 -2.517425
vt -5.431359E-07 -1.520478
vt 2.228259 3.513788
vt 2.999999 -1.520478
vt 2.999999 3.445489
vt 4.586375 2.22826
vt -3.659433 2.146757
vt 4 3
vt -4 3
g submesh0
f 1/1/1 2/2/2 3/3/3
f 2/2/2 4/4/4 3/3/3
f 5/5/5 6/6/6 7/7/7
f 6/6/6 8/8/8 7/7/7
f 9/9/9 10/10/10 11/11/11
f 10/10/10 12/12/12 11/11/11
f 13/13/13 14/14/14 15/15/15
f 14/14/14 16/16/16 15/15/15
f 17/17/17 18/18/18 19/19/19
f 18/18/18 20/20/20 19/19/19
f 21/21/21 22/22/22 23/23/23
f 22/22/22 24/24/24 23/23/23
f 23/23/23 24/24/24 25/25/25
f 24/24/24 26/26/26 25/25/25
f 27/27/27 28/28/28 29/29/29
f 28/28/28 30/30/30 29/29/29
f 31/31/31 32/32/32 33/33/33
f 32/32/32 34/34/34 33/33/33
f 35/35/35 36/36/36 37/37/37
f 36/36/36 38/38/38 37/37/37
