v 0.7499996 -3 0.2499999
v 0.9999996 -3 0.2499998
v 0.7500023 6 0.2499991
v 1.000003 6 0.249999
v 0.9999996 -3 0.2499998
v 0.9999995 -3 -2.384186E-07
v 1.000003 6 0.249999
v 1.000001 6 1.094374E-06
v 0.9999995 -3 -2.384186E-07
v 0.7499995 -3 -1.490116E-07
v 1.000001 6 1.094374E-06
v 0.7499998 6 1.162017E-06
v -1 -3 4.768372E-07
v -1 -3 0.2500005
v -0.9999979 6 3.580749E-06
v -0.9999983 6 0.2499991
v 0.7500023 6 0.2499991
v 1.000003 6 0.249999
v 0.7499998 6 1.162017E-06
v 1.000001 6 1.094374E-06
v 0.7499995 -3 -1.490116E-07
v 0.9999995 -3 -2.384186E-07
v 0.7499996 -3 0.2499999
v 0.9999996 -3 0.2499998
v -0.7500005 -3 3.874302E-07
v -0.7500004 -3 0.2500004
v -1 -3 4.768372E-07
v -1 -3 0.2500005
v -0.75 6 1.073982E-06
v -0.7500005 -3 3.874302E-07
v -0.9999979 6 3.580749E-06
v -1 -3 4.768372E-07
v -0.7500004 -3 0.2500004
v -0.7499999 6 0.2500019
v -1 -3 0.2500005
v -0.9999983 6 0.2499991
v -0.7499999 6 0.2500019
v -0.75 6 1.073982E-06
v -0.9999983 6 0.2499991
v -0.9999979 6 3.580749E-06
v 0.7499996 -3 0.2499999
v 0.7500023 6 0.2499991
v 0.7499995 -3 -1.490116E-07
v 0.7499998 6 1.162017E-06
v -0.7499999 6 0.2500019
v -0.7500004 -3 0.2500004
v -0.75 6 1.073982E-06
v -0.7500005 -3 3.874302E-07
v 0.7499996 -3 0.1249999
v 0.750001 6 0.1250001
v -0.7500004 -3 0.1250004
v -0.7499987 6 0.125
vn 3.576279E-07 8.60955E-08 1
vn 2.980228E-07 8.443982E-08 1
vn 2.980228E-07 8.443982E-08 1
vn 2.384178E-07 8.278413E-08 1
vn 1 -3.841189E-07 -4.768372E-07
vn 1 -2.516633E-07 -5.24525E-06
vn 1 -2.516633E-07 -5.24525E-06
vn 1 -1.192078E-07 -1.001366E-05
vn -3.576279E-07 1.480881E-07 -1
vn -3.14099E-07 1.46879E-07 -1
vn -3.14099E-07 1.46879E-07 -1
vn -2.705701E-07 1.456698E-07 -1
vn -1 2.847776E-07 4.768372E-07
vn -1 2.549752E-07 -5.960615E-07
vn -1 2.549752E-07 -5.960615E-07
vn -1 2.251728E-07 -1.66896E-06
vn 0 1 0
vn 0 1 0
vn 0 1 0
vn 0 1 0
vn 0 -1 0
vn 0 -1 0
vn 0 -1 0
vn 0 -1 0
vn 0 -1 0
vn 0 -1 0
vn 0 -1 0
vn 0 -1 0
vn -1.002715E-05 7.628405E-08 -1
vn -5.192391E-06 2.105816E-07 -1
vn -5.192391E-06 2.105816E-07 -1
vn -3.576279E-07 3.448792E-07 -1
vn 3.576279E-07 -1.721912E-07 1
vn -5.573072E-06 -7.449287E-09 1
vn -5.573072E-06 -7.449287E-09 1
vn -1.150377E-05 1.572926E-07 1
vn 0 1 0
vn 0 1 0
vn 0 1 0
vn 0 1 0
vn -1 2.914005E-07 4.768372E-07
vn -1 1.58945E-07 5.245251E-06
vn -1 1.58945E-07 5.245251E-06
vn -1 2.64895E-08 1.001366E-05
vn 1 -4.635913E-08 -2.384177E-07
vn 1 -4.96705E-08 -3.576274E-07
vn 1 -4.96705E-08 -3.576274E-07
vn 1 -5.298187E-08 -4.768372E-07
vn 3.576279E-07 -2.980238E-08 1
vn 1.490116E-07 4.967029E-09 1
vn 1.490116E-07 4.967029E-09 1
vn -5.960465E-08 3.973644E-08 1
vt -0.7499996 -3
vt -0.9999996 -3
vt -0.7500022 6
vt -1.000003 6
vt -1.875 -3
vt -2.125 -3
vt -1.875 6
vt -2.124998 6
vt 0.9999995 -3
vt 0.7499995 -3
vt 1.000001 6
vt 0.7499998 6
vt 2.125 -3
vt 1.875 -3
vt 2.124997 6
vt 1.875001 6
vt 0.7500023 -1.875001
vt 1.000003 -1.875001
vt 0.7499998 -2.124999
vt 1.000001 -2.124999
vt -0.7499995 -2.125
vt -0.9999995 -2.125
vt -0.7499996 -1.875
vt -0.9999996 -1.875
vt 0.7500005 -2.125
vt 0.7500004 -1.875
vt 1 -2.125
vt 1 -1.875
vt -0.75 6
vt -0.7500005 -3
vt -0.9999979 6
vt -1 -3
vt 0.7500005 -3
vt 0.7500001 6
vt 1 -3
vt 0.9999984 6
vt -0.7499999 -1.874998
vt -0.75 -2.124999
vt -0.9999983 -1.875001
vt -0.9999979 -2.124996
vt 1.875 -3
vt 1.875001 6
vt 2.125 -3
vt 2.124999 6
vt -1.874998 6
vt -1.875 -3
vt -2.124999 6
vt -2.125 -3
vt -0.7499995 -3
vt -0.750001 6
vt 0.7500005 -3
vt 0.7499988 6
g submesh0
f 1/1/1 2/2/2 3/3/3
f 2/2/2 4/4/4 3/3/3
f 5/5/5 6/6/6 7/7/7
f 6/6/6 8/8/8 7/7/7
f 9/9/9 10/10/10 11/11/11
f 10/10/10 12/12/12 11/11/11
f 13/13/13 14/14/14 15/15/15
f 14/14/14 16/16/16 15/15/15
f 17/17/17 18/18/18 19/19/19
f 18/18/18 20/20/20 19/19/19
f 21/21/21 22/22/22 23/23/23
f 22/22/22 24/24/24 23/23/23
f 25/25/25 26/26/26 27/27/27
f 26/26/26 28/28/28 27/27/27
f 29/29/29 30/30/30 31/31/31
f 30/30/30 32/32/32 31/31/31
f 33/33/33 34/34/34 35/35/35
f 34/34/34 36/36/36 35/35/35
f 37/37/37 38/38/38 39/39/39
f 38/38/38 40/40/40 39/39/39
f 41/41/41 42/42/42 43/43/43
f 42/42/42 44/44/44 43/43/43
f 45/45/45 46/46/46 47/47/47
f 46/46/46 48/48/48 47/47/47
g submesh1
f 49/49/49 50/50/50 51/51/51
f 50/50/50 52/52/52 51/51/51
