v 0.7499996 -3 0.2499999
v 0.9999996 -3 0.2499998
v 0.7499996 7 0.2499987
v 1 7 0.25
v 0.9999996 -3 0.2499998
v 0.9999995 -3 -2.384186E-07
v 1 7 0.25
v 0.9999974 7 -1.294528E-06
v 0.9999995 -3 -2.384186E-07
v 0.7499995 -3 -1.490116E-07
v 0.9999974 7 -1.294528E-06
v 0.7499998 7 -5.316131E-07
v -1 -3 4.768372E-07
v -1 -3 0.2500005
v -1.000003 7 -2.87773E-07
v -0.9999999 7 0.250001
v 0.7499996 7 0.2499987
v 1 7 0.25
v 0.7499998 7 -5.316131E-07
v 0.9999974 7 -1.294528E-06
v 0.7499995 -3 -1.490116E-07
v 0.9999995 -3 -2.384186E-07
v 0.7499996 -3 0.2499999
v 0.9999996 -3 0.2499998
v -0.7500005 -3 3.874302E-07
v -0.7500004 -3 0.2500004
v -1 -3 4.768372E-07
v -1 -3 0.2500005
v -0.750001 7 -6.816902E-07
v -0.7500005 -3 3.874302E-07
v -1.000003 7 -2.87773E-07
v -1 -3 4.768372E-07
v -0.7500004 -3 0.2500004
v -0.7500023 7 0.2500002
v -1 -3 0.2500005
v -0.9999999 7 0.250001
v -0.7500023 7 0.2500002
v -0.750001 7 -6.816902E-07
v -0.9999999 7 0.250001
v -1.000003 7 -2.87773E-07
v 0.7499996 -3 0.2499999
v 0.7499996 7 0.2499987
v 0.7499995 -3 -1.490116E-07
v 0.7499998 7 -5.316131E-07
v -0.7500023 7 0.2500002
v -0.7500004 -3 0.2500004
v -0.750001 7 -6.816902E-07
v -0.7500005 -3 3.874302E-07
v 0.7499996 -3 0.1249999
v 0.7499992 7 0.1249999
v -0.7500004 -3 0.1250004
v -0.7500016 7 0.1249998
vn 3.576279E-07 1.117587E-07 1
vn -2.264968E-06 4.61938E-08 1
vn -2.264968E-06 4.61938E-08 1
vn -4.887563E-06 -1.93711E-08 1
vn 1 -8.344649E-08 -4.768372E-07
vn 1 6.258424E-08 -6.318062E-06
vn 1 6.258424E-08 -6.318062E-06
vn 1 2.08615E-07 -1.215929E-05
vn -3.576279E-07 -1.056111E-07 -1
vn -1.704659E-06 -7.193556E-08 -1
vn -1.704659E-06 -7.193556E-08 -1
vn -3.05169E-06 -3.826005E-08 -1
vn -1 -2.384185E-07 4.768372E-07
vn -1 -9.53677E-08 6.198853E-06
vn -1 -9.53677E-08 6.198853E-06
vn -1 4.768315E-08 1.192087E-05
vn 0 1 0
vn 0 1 0
vn 0 1 0
vn 0 1 0
vn 0 -1 0
vn 0 -1 0
vn 0 -1 0
vn 0 -1 0
vn 0 -1 0
vn 0 -1 0
vn 0 -1 0
vn 0 -1 0
vn -1.575657E-06 -1.069121E-07 -1
vn -9.666423E-07 -9.16866E-08 -1
vn -9.666423E-07 -9.16866E-08 -1
vn -3.576279E-07 -7.64611E-08 -1
vn 3.576279E-07 1.788146E-08 1
vn 1.668944E-06 -1.49012E-08 1
vn 1.668944E-06 -1.49012E-08 1
vn 2.980261E-06 -4.768386E-08 1
vn 0 1 0
vn 0 1 0
vn 0 1 0
vn 0 1 0
vn -1 -5.960411E-09 4.768372E-07
vn -1 1.192094E-08 -2.3842E-07
vn -1 1.192094E-08 -2.3842E-07
vn -1 2.980229E-08 -9.536772E-07
vn 1 1.90735E-07 5.006772E-06
vn 1 1.221895E-07 2.264967E-06
vn 1 1.221895E-07 2.264967E-06
vn 1 5.364413E-08 -4.768372E-07
vn 3.576279E-07 -5.960449E-09 1
vn 1.291434E-07 2.831221E-08 1
vn 1.291434E-07 2.831221E-08 1
vn -9.934102E-08 6.258487E-08 1
vt -0.7499996 -3
vt -0.9999996 -3
vt -0.7499995 7
vt -1 7
vt -1.875 -3
vt -2.125 -3
vt -1.875 7
vt -2.125001 7
vt 0.9999995 -3
vt 0.7499995 -3
vt 0.9999974 7
vt 0.7499998 7
vt 2.125 -3
vt 1.875 -3
vt 2.125001 7
vt 1.875 7
vt 0.7499996 -1.875001
vt 1 -1.875
vt 0.7499998 -2.125
vt 0.9999974 -2.125001
vt -0.7499995 -2.125
vt -0.9999995 -2.125
vt -0.7499996 -1.875
vt -0.9999996 -1.875
vt 0.7500005 -2.125
vt 0.7500004 -1.875
vt 1 -2.125
vt 1 -1.875
vt -0.750001 7
vt -0.7500005 -3
vt -1.000003 7
vt -1 -3
vt 0.7500005 -3
vt 0.7500024 7
vt 1 -3
vt 1 7
vt -0.7500023 -1.875
vt -0.750001 -2.125001
vt -0.9999999 -1.874999
vt -1.000003 -2.125
vt 1.875 -3
vt 1.875001 7
vt 2.125 -3
vt 2.125 7
vt -1.874996 7
vt -1.874996 -3
vt -2.124997 7
vt -2.124996 -3
vt -0.7499995 -3
vt -0.7499991 7
vt 0.7500005 -3
vt 0.7500017 7
g submesh0
f 1/1/1 2/2/2 3/3/3
f 2/2/2 4/4/4 3/3/3
f 5/5/5 6/6/6 7/7/7
f 6/6/6 8/8/8 7/7/7
f 9/9/9 10/10/10 11/11/11
f 10/10/10 12/12/12 11/11/11
f 13/13/13 14/14/14 15/15/15
f 14/14/14 16/16/16 15/15/15
f 17/17/17 18/18/18 19/19/19
f 18/18/18 20/20/20 19/19/19
f 21/21/21 22/22/22 23/23/23
f 22/22/22 24/24/24 23/23/23
f 25/25/25 26/26/26 27/27/27
f 26/26/26 28/28/28 27/27/27
f 29/29/29 30/30/30 31/31/31
f 30/30/30 32/32/32 31/31/31
f 33/33/33 34/34/34 35/35/35
f 34/34/34 36/36/36 35/35/35
f 37/37/37 38/38/38 39/39/39
f 38/38/38 40/40/40 39/39/39
f 41/41/41 42/42/42 43/43/43
f 42/42/42 44/44/44 43/43/43
f 45/45/45 46/46/46 47/47/47
f 46/46/46 48/48/48 47/47/47
g submesh1
f 49/49/49 50/50/50 51/51/51
f 50/50/50 52/52/52 51/51/51
