v 0.7499996 -3 0.2499999
v 0.9999996 -3 0.2499998
v 0.749999 6 0.2500006
v 0.9999993 6 0.2500013
v 0.9999996 -3 0.2499998
v 0.9999995 -3 -2.384186E-07
v 0.9999993 6 0.2500013
v 0.9999992 6 1.188835E-06
v 0.9999995 -3 -2.384186E-07
v 0.7499995 -3 -1.490116E-07
v 0.9999992 6 1.188835E-06
v 0.7499987 6 4.568364E-07
v -1 -3 4.768372E-07
v -1 -3 0.2500005
v -1.000001 6 2.455457E-06
v -1.000001 6 0.2500026
v 0.749999 6 0.2500006
v 0.9999993 6 0.2500013
v 0.7499987 6 4.568364E-07
v 0.9999992 6 1.188835E-06
v 0.7499995 -3 -1.490116E-07
v 0.9999995 -3 -2.384186E-07
v 0.7499996 -3 0.2499999
v 0.9999996 -3 0.2499998
v -0.7500005 -3 3.874302E-07
v -0.7500004 -3 0.2500004
v -1 -3 4.768372E-07
v -1 -3 0.2500005
v -0.7500006 6 3.187455E-06
v -0.7500005 -3 3.874302E-07
v -1.000001 6 2.455457E-06
v -1 -3 4.768372E-07
v -0.7500004 -3 0.2500004
v -0.7500004 6 0.2500033
v -1 -3 0.2500005
v -1.000001 6 0.2500026
v -0.7500004 6 0.2500033
v -0.7500006 6 3.187455E-06
v -1.000001 6 0.2500026
v -1.000001 6 2.455457E-06
v 0.7499996 -3 0.2499999
v 0.749999 6 0.2500006
v 0.7499995 -3 -1.490116E-07
v 0.7499987 6 4.568364E-07
v -0.7500004 6 0.2500033
v -0.7500004 -3 0.2500004
v -0.7500006 6 3.187455E-06
v -0.7500005 -3 3.874302E-07
v 0.7499996 -3 0.1249999
v 0.7499998 6 0.1250022
v -0.7500004 -3 0.1250004
v -0.7500014 6 0.1250015
vn 3.576279E-07 -8.27842E-08 1
vn -1.251695E-06 -1.274877E-07 1
vn -1.251695E-06 -1.274877E-07 1
vn -2.861019E-06 -1.721913E-07 1
vn 1 3.311377E-08 -4.768372E-07
vn 1 3.642516E-08 -5.960462E-07
vn 1 3.642516E-08 -5.960462E-07
vn 1 3.973654E-08 -7.152553E-07
vn -3.576279E-07 1.585837E-07 -1
vn 1.285181E-06 1.129502E-07 -1
vn 1.285181E-06 1.129502E-07 -1
vn 2.927989E-06 6.73167E-08 -1
vn -1 -5.298201E-08 4.768372E-07
vn -1 -5.298202E-08 4.76837E-07
vn -1 -5.298202E-08 4.76837E-07
vn -1 -5.298202E-08 4.768369E-07
vn 0 1 0
vn 0 1 0
vn 0 1 0
vn 0 1 0
vn 0 -1 0
vn 0 -1 0
vn 0 -1 0
vn 0 -1 0
vn 0 -1 0
vn 0 -1 0
vn 0 -1 0
vn 0 -1 0
vn 2.927989E-06 3.111139E-07 -1
vn 1.285181E-06 2.654802E-07 -1
vn 1.285181E-06 2.654802E-07 -1
vn -3.576279E-07 2.198466E-07 -1
vn 3.576279E-07 -3.245142E-07 1
vn -1.251695E-06 -2.798108E-07 1
vn -1.251695E-06 -2.798108E-07 1
vn -2.861018E-06 -2.351074E-07 1
vn 0 1 0
vn 0 1 0
vn 0 1 0
vn 0 1 0
vn -1 -7.285016E-08 4.768372E-07
vn -1 -7.947291E-08 7.152554E-07
vn -1 -7.947291E-08 7.152554E-07
vn -1 -8.609566E-08 9.536737E-07
vn 1 6.622971E-09 -7.152555E-07
vn 1 9.934298E-09 -5.960463E-07
vn 1 9.934298E-09 -5.960463E-07
vn 1 1.324563E-08 -4.768372E-07
vn 3.576279E-07 -2.649095E-07 1
vn -5.463741E-08 -1.961987E-07 1
vn -5.463741E-08 -1.961987E-07 1
vn -4.669027E-07 -1.274878E-07 1
vt -0.7499996 -3
vt -0.9999996 -3
vt -0.7499989 6
vt -0.9999992 6
vt -1.875 -3
vt -2.125 -3
vt -1.874998 6
vt -2.124998 6
vt 0.9999995 -3
vt 0.7499995 -3
vt 0.9999992 6
vt 0.7499987 6
vt 2.125 -3
vt 1.875 -3
vt 2.124998 6
vt 1.874998 6
vt 0.749999 -1.874999
vt 0.9999993 -1.874999
vt 0.7499987 -2.125
vt 0.9999992 -2.124999
vt -0.7499995 -2.125
vt -0.9999995 -2.125
vt -0.7499996 -1.875
vt -0.9999996 -1.875
vt 0.7500005 -2.125
vt 0.7500004 -1.875
vt 1 -2.125
vt 1 -1.875
vt -0.7500006 6
vt -0.7500005 -3
vt -1.000001 6
vt -1 -3
vt 0.7500005 -3
vt 0.7500005 6
vt 1 -3
vt 1.000001 6
vt -0.7500004 -1.874997
vt -0.7500006 -2.124997
vt -1.000001 -1.874997
vt -1.000001 -2.124998
vt 1.875 -3
vt 1.874999 6
vt 2.125 -3
vt 2.124999 6
vt -1.874997 6
vt -1.875 -3
vt -2.124997 6
vt -2.125 -3
vt -0.7499995 -3
vt -0.7499998 6
vt 0.7500005 -3
vt 0.7500015 6
g submesh0
f 1/1/1 2/2/2 3/3/3
f 2/2/2 4/4/4 3/3/3
f 5/5/5 6/6/6 7/7/7
f 6/6/6 8/8/8 7/7/7
f 9/9/9 10/10/10 11/11/11
f 10/10/10 12/12/12 11/11/11
f 13/13/13 14/14/14 15/15/15
f 14/14/14 16/16/16 15/15/15
f 17/17/17 18/18/18 19/19/19
f 18/18/18 20/20/20 19/19/19
f 21/21/21 22/22/22 23/23/23
f 22/22/22 24/24/24 23/23/23
f 25/25/25 26/26/26 27/27/27
f 26/26/26 28/28/28 27/27/27
f 29/29/29 30/30/30 31/31/31
f 30/30/30 32/32/32 31/31/31
f 33/33/33 34/34/34 35/35/35
f 34/34/34 36/36/36 35/35/35
f 37/37/37 38/38/38 39/39/39
f 38/38/38 40/40/40 39/39/39
f 41/41/41 42/42/42 43/43/43
f 42/42/42 44/44/44 43/43/43
f 45/45/45 46/46/46 47/47/47
f 46/46/46 48/48/48 47/47/47
g submesh1
f 49/49/49 50/50/50 51/51/51
f 50/50/50 52/52/52 51/51/51
