v 0.7499996 -3 0.2499999
v 0.9999996 -3 0.2499998
v 0.7499982 4 0.2499984
v 0.9999982 4 0.2499994
v 0.9999996 -3 0.2499998
v 0.9999995 -3 -2.384186E-07
v 0.9999982 4 0.2499994
v 0.9999992 4 -6.2646E-07
v 0.9999995 -3 -2.384186E-07
v 0.7499995 -3 -1.490116E-07
v 0.9999992 4 -6.2646E-07
v 0.7499992 4 -1.587592E-06
v -1 -3 4.768372E-07
v -1 -3 0.2500005
v -1.000001 4 -6.861228E-07
v -1.000002 4 0.2499993
v 0.7499982 4 0.2499984
v 0.9999982 4 0.2499994
v 0.7499992 4 -1.587592E-06
v 0.9999992 4 -6.2646E-07
v 0.7499995 -3 -1.490116E-07
v 0.9999995 -3 -2.384186E-07
v 0.7499996 -3 0.2499999
v 0.9999996 -3 0.2499998
v -0.7500005 -3 3.874302E-07
v -0.7500004 -3 0.2500004
v -1 -3 4.768372E-07
v -1 -3 0.2500005
v -0.7500009 4 2.750094E-07
v -0.7500005 -3 3.874302E-07
v -1.000001 4 -6.861228E-07
v -1 -3 4.768372E-07
v -0.7500004 -3 0.2500004
v -0.7500018 4 0.2500003
v -1 -3 0.2500005
v -1.000002 4 0.2499993
v -0.7500018 4 0.2500003
v -0.7500009 4 2.750094E-07
v -1.000002 4 0.2499993
v -1.000001 4 -6.861228E-07
v 0.7499996 -3 0.2499999
v 0.7499982 4 0.2499984
v 0.7499995 -3 -1.490116E-07
v 0.7499992 4 -1.587592E-06
v -0.7500018 4 0.2500003
v -0.7500004 -3 0.2500004
v -0.7500009 4 2.750094E-07
v -0.7500005 -3 3.874302E-07
v 0.7499996 -3 0.1249999
v 0.7499996 4 0.1249984
v -0.7500004 -3 0.1250004
v -0.7500004 4 0.1250003
vn 3.576279E-07 2.043588E-07 1
vn -1.758337E-06 1.287882E-07 1
vn -1.758337E-06 1.287882E-07 1
vn -3.874302E-06 5.321764E-08 1
vn 1 2.043588E-07 -4.768372E-07
vn 1 1.277243E-07 1.66893E-06
vn 1 1.277243E-07 1.66893E-06
vn 1 5.108991E-08 3.814697E-06
vn -3.576279E-07 -5.54345E-08 -1
vn 1.74345E-06 -1.304729E-07 -1
vn 1.74345E-06 -1.304729E-07 -1
vn 3.844529E-06 -2.055113E-07 -1
vn -1 -6.811951E-08 4.768372E-07
vn -1 -1.447544E-07 -1.66893E-06
vn -1 -1.447544E-07 -1.66893E-06
vn -1 -2.213893E-07 -3.814697E-06
vn 0 1 0
vn 0 1 0
vn 0 1 0
vn 0 1 0
vn 0 -1 0
vn 0 -1 0
vn 0 -1 0
vn 0 -1 0
vn 0 -1 0
vn 0 -1 0
vn 0 -1 0
vn 0 -1 0
vn 3.844528E-06 -1.605989E-08 -1
vn 1.74345E-06 -9.109853E-08 -1
vn 1.74345E-06 -9.109853E-08 -1
vn -3.576279E-07 -1.661372E-07 -1
vn 3.576279E-07 1.27725E-08 1
vn -1.758337E-06 8.834221E-08 1
vn -1.758337E-06 8.834221E-08 1
vn -3.874301E-06 1.639119E-07 1
vn 0 1 0
vn 0 1 0
vn 0 1 0
vn 0 1 0
vn -1 -2.043587E-07 4.768372E-07
vn -1 -1.277246E-07 -1.66893E-06
vn -1 -1.277246E-07 -1.66893E-06
vn -1 -5.109047E-08 -3.814697E-06
vn 1 2.128738E-07 3.814697E-06
vn 1 1.362392E-07 1.66893E-06
vn 1 1.362392E-07 1.66893E-06
vn 1 5.960464E-08 -4.768372E-07
vn 3.576279E-07 2.054231E-07 1
vn 8.021792E-07 1.101622E-07 1
vn 8.021792E-07 1.101622E-07 1
vn 1.24673E-06 1.490116E-08 1
vt -0.7499996 -3
vt -0.9999996 -3
vt -0.7499982 4
vt -0.9999982 4
vt -1.875 -3
vt -2.125 -3
vt -1.875 4
vt -2.125 4
vt 0.9999995 -3
vt 0.7499995 -3
vt 0.9999992 4
vt 0.7499992 4
vt 2.125 -3
vt 1.875 -3
vt 2.125001 4
vt 1.875001 4
vt 0.7499982 -1.875002
vt 0.9999982 -1.875001
vt 0.7499992 -2.125002
vt 0.9999992 -2.125001
vt -0.7499995 -2.125
vt -0.9999995 -2.125
vt -0.7499996 -1.875
vt -0.9999996 -1.875
vt 0.7500005 -2.125
vt 0.7500004 -1.875
vt 1 -2.125
vt 1 -1.875
vt -0.7500009 4
vt -0.7500005 -3
vt -1.000001 4
vt -1 -3
vt 0.7500005 -3
vt 0.750002 4
vt 1 -3
vt 1.000002 4
vt -0.7500018 -1.875
vt -0.7500009 -2.125
vt -1.000002 -1.875001
vt -1.000001 -2.125001
vt 1.875 -3
vt 1.875001 4
vt 2.125 -3
vt 2.125001 4
vt -1.874997 4
vt -1.874997 -3
vt -2.124997 4
vt -2.124997 -3
vt -0.7499995 -3
vt -0.7499996 4
vt 0.7500005 -3
vt 0.7500005 4
g submesh0
f 1/1/1 2/2/2 3/3/3
f 2/2/2 4/4/4 3/3/3
f 5/5/5 6/6/6 7/7/7
f 6/6/6 8/8/8 7/7/7
f 9/9/9 10/10/10 11/11/11
f 10/10/10 12/12/12 11/11/11
f 13/13/13 14/14/14 15/15/15
f 14/14/14 16/16/16 15/15/15
f 17/17/17 18/18/18 19/19/19
f 18/18/18 20/20/20 19/19/19
f 21/21/21 22/22/22 23/23/23
f 22/22/22 24/24/24 23/23/23
f 25/25/25 26/26/26 27/27/27
f 26/26/26 28/28/28 27/27/27
f 29/29/29 30/30/30 31/31/31
f 30/30/30 32/32/32 31/31/31
f 33/33/33 34/34/34 35/35/35
f 34/34/34 36/36/36 35/35/35
f 37/37/37 38/38/38 39/39/39
f 38/38/38 40/40/40 39/39/39
f 41/41/41 42/42/42 43/43/43
f 42/42/42 44/44/44 43/43/43
f 45/45/45 46/46/46 47/47/47
f 46/46/46 48/48/48 47/47/47
g submesh1
f 49/49/49 50/50/50 51/51/51
f 50/50/50 52/52/52 51/51/51
