v -5 1 -1.728535E-06
v 7.152557E-07 1 2.557954E-13
v -5 3 -1.728535E-06
v 0 3 0
v 7.152557E-07 1 2.557954E-13
v 2.592802E-06 1 -3.5
v 0 3 0
v 2.115965E-06 3 -3.5
v 2.592802E-06 1 -3.5
v -4.999997 1 -3.500002
v 2.115965E-06 3 -3.5
v -4.999997 3 -3.500002
v -4.999997 1 -3.500002
v -5 1 -1.728535E-06
v -4.999997 3 -3.500002
v -5 3 -1.728535E-06
v -4.999997 1 -3.500002
v 2.592802E-06 1 -3.5
v -5 1 -1.728535E-06
v 7.152557E-07 1 2.557954E-13
v -5 3 -1.728535E-06
v 0 3 0
v -4.999997 3 -3.500002
v 2.115965E-06 3 -3.5
vn -3.45707E-07 0 1
vn -3.45707E-07 2.13162E-15 1
vn -3.45707E-07 2.13162E-15 1
vn -3.45707E-07 4.263241E-15 1
vn 1 3.576279E-07 5.364419E-07
vn 1 2.980232E-07 5.705016E-07
vn 1 2.980232E-07 5.705016E-07
vn 1 2.384186E-07 6.045614E-07
vn 5.245209E-07 1.250555E-13 -1
vn 5.245209E-07 6.252777E-14 -1
vn 5.245209E-07 6.252777E-14 -1
vn 5.24521E-07 0 -1
vn -1 0 -6.811958E-07
vn -1 0 -6.811958E-07
vn -1 0 -6.811958E-07
vn -1 0 -6.811958E-07
vn 0 -1 0
vn 0 -1 0
vn 0 -1 0
vn 0 -1 0
vn 0 1 0
vn 0 1 0
vn 0 1 0
vn 0 1 0
vt 5 1
vt -7.152557E-07 1
vt 5 3
vt 0 3
vt -1.278977E-13 1
vt -3.5 1
vt 0 3
vt -3.5 3
vt 7.569789E-07 1
vt -4.999999 1
vt 2.801417E-07 3
vt -4.999999 3
vt 3.499999 1
vt -1.677444E-06 1
vt 3.499999 3
vt -1.677444E-06 3
vt 4.999997 -3.500002
vt -2.592802E-06 -3.5
vt 5 -1.728535E-06
vt -7.152557E-07 2.557954E-13
vt -5 -1.728535E-06
vt 0 0
vt -4.999997 -3.500002
vt 2.115965E-06 -3.5
g submesh0
f 1/1/1 2/2/2 3/3/3
f 2/2/2 4/4/4 3/3/3
f 5/5/5 6/6/6 7/7/7
f 6/6/6 8/8/8 7/7/7
f 9/9/9 10/10/10 11/11/11
f 10/10/10 12/12/12 11/11/11
f 13/13/13 14/14/14 15/15/15
f 14/14/14 16/16/16 15/15/15
f 17/17/17 18/18/18 19/19/19
f 18/18/18 20/20/20 19/19/19
g submesh1
f 21/21/21 22/22/22 23/23/23
f 22/22/22 24/24/24 23/23/23
