v -2 0 0
v 4 0 0
v -2 3 0
v 2 3 0
v 4 0 0
v 4 0 -2
v 2 3 0
v 2 3 -2
v 4 0 -2
v -2 0 -2
v 2 3 -2
v -2 3 -2
v -2 0 -2
v -2 0 0
v -2 3 -2
v -2 3 0
v -2 0 -2
v 4 0 -2
v -2 0 0
v 4 0 0
v -2 3 0
v 2 3 0
v -2 3 -2
v 2 3 -2
vn 0 0 1
vn 0 0 1
vn 0 0 1
vn 0 0 1
vn 0.8320503 0.5547002 0
vn 0.8320503 0.5547002 0
vn 0.8320503 0.5547002 0
vn 0.8320503 0.5547002 0
vn 0 0 -1
vn 0 0 -1
vn 0 0 -1
vn 0 0 -1
vn -1 0 0
vn -1 0 0
vn -1 0 0
vn -1 0 0
vn 0 -1 0
vn 0 -1 0
vn 0 -1 0
vn 0 -1 0
vn 0 1 0
vn 0 1 0
vn 0 1 0
vn 0 1 0
vt 2 0
vt -4 0
vt 2 3
vt -2 3
vt 0 -2.218801
vt -2 -2.218801
vt 0 1.386751
vt -2 1.386751
vt 4 0
vt -2 0
vt 2 3
vt -2 3
vt 2 0
vt 0 0
vt 2 3
vt 0 3
vt 2 -2
vt -4 -2
vt 2 0
vt -4 0
vt -2 0
vt 2 0
vt -2 -2
vt 2 -2
g submesh0
f 1/1/1 2/2/2 3/3/3
f 2/2/2 4/4/4 3/3/3
f 5/5/5 6/6/6 7/7/7
f 6/6/6 8/8/8 7/7/7
f 9/9/9 10/10/10 11/11/11
f 10/10/10 12/12/12 11/11/11
f 13/13/13 14/14/14 15/15/15
f 14/14/14 16/16/16 15/15/15
f 17/17/17 18/18/18 19/19/19
f 18/18/18 20/20/20 19/19/19
g submesh1
f 21/21/21 22/22/22 23/23/23
f 22/22/22 24/24/24 23/23/23
