v -2 1 4
v 2 1 4
v 2 2 4
v -2 2 4
v 2 3 4
v -2 3 4
v 2 2 4
v 2 1 4
v 2 2 -1
v 2 3 -2
v 2 3 4
v 2 2 -1
v -2 1 4
v -2 2 -1
v 2 1 4
v 2 3 -2
v -2 2 -1
v -2 3 -2
v 2 2 -1
v -2 2 -1
v -2 1 4
v -2 2 4
v -7 3 3
v -7 2 4
v -7 3 4
v -7 2 4
v -7 3 4
v -2 3 -2
v -2 2 -1
v -7 3 3
v -7 2 4
v -2 2 -1
v -2 2 4
v -7 2 4
v -2 3 4
v 2 3 4
v -2 3 -2
v 2 3 -2
v -7 3 4
v -7 3 3
vn 0 0 1
vn 0 0 1
vn 0 0 1
vn 0 0 1
vn 0 0 1
vn 0 0 1
vn 1 0 0
vn 1 0 0
vn 1 0 0
vn 1 0 0
vn 1 0 0
vn 0 -0.9805807 -0.1961161
vn 0 -0.9805807 -0.1961161
vn 0 -0.9805807 -0.1961161
vn 0 -0.9805807 -0.1961161
vn 0 -0.7071068 -0.7071068
vn 0 -0.7071068 -0.7071068
vn 0 -0.7071068 -0.7071068
vn 0 -0.7071068 -0.7071068
vn -1 0 0
vn -1 0 0
vn -1 0 0
vn -1 0 0
vn -1 0 0
vn -1 0 0
vn 0 0 1
vn 0 0 1
vn -0.5773503 -0.5773503 -0.5773503
vn -0.5773503 -0.5773503 -0.5773503
vn -0.5773503 -0.5773503 -0.5773503
vn -0.5773503 -0.5773503 -0.5773503
vn 0 -1 0
vn 0 -1 0
vn 0 -1 0
vn 0 1 0
vn 0 1 0
vn 0 1 0
vn 0 1 0
vn 0 1 0
vn 0 1 0
vt 2 1
vt -2 1
vt -2 2
vt 2 2
vt -2 3
vt 2 3
vt 4 2
vt 4 1
vt -1 2
vt -2 3
vt 4 3
vt -2 -1.82539
vt 2 3.054841
vt 2 -1.82539
vt -2 3.054841
vt -2 -3.178923
vt 2 -1.82539
vt 2 -3.178923
vt -2 -1.82539
vt 1 2
vt -4 1
vt -4 2
vt -3 3
vt -4 2
vt -4 3
vt 7 2
vt 7 3
vt 0 4.082483
vt -0.7071068 2.857738
vt -7.071068 4.082483
vt -7.778174 2.857738
vt 2 -1
vt 2 4
vt 7 4
vt -2 4
vt 2 4
vt -2 -2
vt 2 -2
vt -7 4
vt -7 3
g submesh0
f 1/1/1 2/2/2 3/3/3
f 4/4/4 1/1/1 3/3/3
f 4/4/4 3/3/3 5/5/5
f 6/6/6 4/4/4 5/5/5
f 7/7/7 8/8/8 9/9/9
f 7/7/7 9/9/9 10/10/10
f 11/11/11 7/7/7 10/10/10
f 12/12/12 13/13/13 14/14/14
f 12/12/12 15/15/15 13/13/13
f 16/16/16 17/17/17 18/18/18
f 16/16/16 19/19/19 17/17/17
f 20/20/20 21/21/21 22/22/22
f 23/23/23 24/24/24 25/25/25
f 4/4/4 6/6/6 26/26/26
f 6/6/6 27/27/27 26/26/26
f 28/28/28 29/29/29 30/30/30
f 29/29/29 31/31/31 30/30/30
f 32/32/32 33/33/33 34/34/34
g submesh1
f 35/35/35 36/36/36 37/37/37
f 36/36/36 38/38/38 37/37/37
f 35/35/35 37/37/37 39/39/39
f 37/37/37 40/40/40 39/39/39
