v 2.980237E-07 0 -1.728534E-06
v 1.817942E-06 0 -3.5
v 0 3 0
v 1.460314E-06 3 -3.5
v -2.999997 0 -3.500002
v -2.999999 0 -5.245208E-06
v -2.999997 3 -3.500002
v -3 3 -3.33786E-06
v -3 3 -3.33786E-06
v -2.999999 0 -5.245208E-06
v -1.5 3 -1.66893E-06
v -1.5 0 -3.486871E-06
v 0 3 0
v 2.980237E-07 0 -1.728534E-06
v 1.460314E-06 3 -3.5
v 1.817942E-06 0 -3.5
v -1.499998 0 -3.500001
v -1.499998 3 -3.500001
v -2.999997 0 -3.500002
v -2.999997 3 -3.500002
v -1.5 0 -3.486871E-06
v -2.999999 0 -5.245208E-06
v -1.499998 0 -3.500001
v -2.999997 0 -3.500002
v 2.980237E-07 0 -1.728534E-06
v 1.817942E-06 0 -3.5
v -1.499998 5.5 -3.500001
v -2.999997 5.5 -3.500002
v -2.999997 3 -3.500002
v -3 3 -3.33786E-06
v -2.999997 5.5 -3.500002
v -2.999999 5.5 -4.291534E-06
v -1.5 3 -1.66893E-06
v -1.499998 3 -3.500001
v -1.5 5.5 -2.533197E-06
v -1.499998 5.5 -3.500001
v -1.499998 5.5 -3.500001
v -2.999997 5.5 -3.500002
v -2.999999 5.5 -4.291534E-06
v -1.5 5.5 -2.533197E-06
v 1.460314E-06 3 -3.5
v -1.499998 3 -3.500001
v -1.5 3 -1.66893E-06
v 0 3 0
v -3 3 -3.33786E-06
v -1.5 3 -1.66893E-06
v -2.999999 5.5 -4.291534E-06
v -1.5 5.5 -2.533197E-06
vn 1 9.9341E-08 4.342624E-07
vn 1 1.092751E-07 4.257474E-07
vn 1 1.092751E-07 4.257474E-07
vn 1 1.192093E-07 4.172324E-07
vn -1 -1.589457E-07 -6.811966E-07
vn -1 -1.589455E-07 -6.811964E-07
vn -1 -1.589455E-07 -6.811964E-07
vn -1 -1.589453E-07 -6.811962E-07
vn -1.11262E-06 -6.35783E-07 1
vn -1.142422E-06 -6.208818E-07 1
vn -1.142422E-06 -6.208818E-07 1
vn -1.172225E-06 -6.059806E-07 1
vn -1.142422E-06 -5.910795E-07 1
vn -1.172225E-06 -5.761783E-07 1
vn 6.357831E-07 7.579125E-14 -1
vn 6.357831E-07 7.579125E-14 -1
vn 6.357831E-07 7.579125E-14 -1
vn 6.357831E-07 7.579125E-14 -1
vn 4.768374E-07 6.631735E-14 -1
vn 4.768374E-07 7.579125E-14 -1
vn 0 -1 0
vn 0 -1 0
vn 0 -1 0
vn 0 -1 0
vn 0 -1 0
vn 0 -1 0
vn 4.768374E-07 -6.821213E-14 -1
vn 4.768374E-07 -9.094952E-14 -1
vn -1 1.907349E-07 -6.811962E-07
vn -1 1.907347E-07 -6.811963E-07
vn -1 1.907347E-07 -6.811963E-07
vn -1 1.907346E-07 -6.811964E-07
vn 1 -9.536725E-08 5.449568E-07
vn 1 -9.536734E-08 5.449569E-07
vn 1 -9.536734E-08 5.449569E-07
vn 1 -9.536743E-08 5.449569E-07
vn 0 1 0
vn 0 1 0
vn 0 1 0
vn 0 1 0
vn 0 1 0
vn 0 1 0
vn 0 1 0
vn 0 1 0
vn -1.11262E-06 3.814698E-07 1
vn -1.142422E-06 3.635884E-07 1
vn -1.142422E-06 3.635884E-07 1
vn -1.172225E-06 3.45707E-07 1
vt -1.728535E-06 -2.96059E-14
vt -3.5 -2.96059E-14
vt 0 3
vt -3.5 3
vt 3.5 4.768371E-07
vt 3.201619E-06 4.768371E-07
vt 3.5 3
vt 1.294271E-06 3
vt 3 3
vt 2.999999 -1.184238E-12
vt 1.5 3
vt 1.5 -1.128727E-12
vt 0 3
vt -2.980218E-07 -1.073216E-12
vt -4.867725E-07 3
vt -1.291446E-07 -2.321108E-13
vt -1.5 -2.321108E-13
vt -1.5 3
vt -2.999999 -2.321108E-13
vt -2.999999 3
vt 1.5 -3.486871E-06
vt 2.999999 -5.245208E-06
vt 1.499998 -3.500001
vt 2.999997 -3.500002
vt -2.980237E-07 -1.728534E-06
vt -1.817942E-06 -3.5
vt -1.499999 5.5
vt -2.999999 5.5
vt 3.5 3
vt 1.294272E-06 3
vt 3.5 5.5
vt 2.247946E-06 5.5
vt -8.514949E-07 3
vt -3.500001 3
vt -1.715762E-06 5.5
vt -3.500001 5.5
vt -1.499998 -3.500001
vt -2.999997 -3.500002
vt -2.999999 -4.291534E-06
vt -1.5 -2.533197E-06
vt 1.460314E-06 -3.5
vt -1.499998 -3.500001
vt -1.5 -1.66893E-06
vt 0 0
vt 3 3
vt 1.5 3
vt 2.999999 5.5
vt 1.5 5.5
g submesh0
f 1/1/1 2/2/2 3/3/3
f 2/2/2 4/4/4 3/3/3
f 5/5/5 6/6/6 7/7/7
f 6/6/6 8/8/8 7/7/7
f 9/9/9 10/10/10 11/11/11
f 10/10/10 12/12/12 11/11/11
f 11/11/11 12/12/12 13/13/13
f 12/12/12 14/14/14 13/13/13
f 15/15/15 16/16/16 17/17/17
f 15/15/15 17/17/17 18/18/18
f 18/18/18 17/17/17 19/19/19
f 18/18/18 19/19/19 20/20/20
f 21/21/21 22/22/22 23/23/23
f 22/22/22 24/24/24 23/23/23
f 25/25/25 21/21/21 26/26/26
f 21/21/21 23/23/23 26/26/26
f 18/18/18 20/20/20 27/27/27
f 20/20/20 28/28/28 27/27/27
f 29/29/29 30/30/30 31/31/31
f 30/30/30 32/32/32 31/31/31
f 33/33/33 34/34/34 35/35/35
f 34/34/34 36/36/36 35/35/35
g submesh1
f 37/37/37 38/38/38 39/39/39
f 37/37/37 39/39/39 40/40/40
f 41/41/41 42/42/42 43/43/43
f 41/41/41 43/43/43 44/44/44
f 45/45/45 46/46/46 47/47/47
f 46/46/46 48/48/48 47/47/47
