v -1.999998 0 -4.000002
v 2.000005 0 -3.999996
v -2 0 0
v 2.000001 0 -2.786512E-06
v -4 1.999997 2.000003
v -4 -2.726342E-06 2.000001
v 2 1.999998 1.999999
v 2.000002 -1.772666E-06 1.999997
v -2.000002 4 3.545333E-06
v -2.000001 2 1.772667E-06
v 1.999996 4 6.74435E-07
v 1.999999 2 -1.056039E-06
v 2.000001 0 -2.786512E-06
v 2.000005 0 -3.999996
v 2.000002 2 -3.999998
v 1.999999 2 -1.056039E-06
v 2 4 -3.999999
v 1.999996 4 6.74435E-07
v 2.000002 2 -3.999998
v 2.000005 0 -3.999996
v -1.999998 0 -4.000002
v -2.000002 2 -4.000003
v 2 4 -3.999999
v -2.000005 4 -4.000004
v -4 1.999997 2.000003
v -4.000002 1.999999 -4.000003
v -4 -2.726342E-06 2.000001
v -3.999999 -9.536747E-07 -4.000002
v -2.000002 4 3.545333E-06
v -2.000005 4 -4.000004
v -2.000001 2 1.772667E-06
v -2.000002 2 -4.000003
v -1.999998 0 -4.000002
v -4.000002 1.999999 -4.000003
v -3.999999 -9.536747E-07 -4.000002
v 1.999999 2 -1.056039E-06
v -2.000001 2 1.772667E-06
v 2 1.999998 1.999999
v -4 1.999997 2.000003
v -4 -2.726342E-06 2.000001
v 2.000002 -1.772666E-06 1.999997
v 2.000002 -1.772666E-06 1.999997
v 2 1.999998 1.999999
v -2.000001 2 1.772667E-06
v -2.000002 2 -4.000003
v -4 1.999997 2.000003
v -4.000002 1.999999 -4.000003
v -3.999999 -9.536747E-07 -4.000002
v -2.000002 4 3.545333E-06
v 1.999996 4 6.74435E-07
v -2.000005 4 -4.000004
v 2 4 -3.999999
vn 0 -1 0
vn 0 -1 0
vn 0 -1 0
vn 0 -1 0
vn 6.556512E-07 -8.344647E-07 1
vn 6.556511E-07 -8.344645E-07 1
vn 6.556511E-07 -8.344645E-07 1
vn 6.55651E-07 -8.344642E-07 1
vn 7.177249E-07 -8.86333E-07 1
vn 7.124506E-07 -8.757845E-07 1
vn 7.124506E-07 -8.757845E-07 1
vn 7.071764E-07 -8.65236E-07 1
vn 1 1.311302E-06 1.072885E-06
vn 1 1.549722E-06 1.192095E-06
vn 1 1.311302E-06 1.072885E-06
vn 1 1.072883E-06 9.536751E-07
vn 1 1.2815E-06 8.791689E-07
vn 1 1.132488E-06 8.046627E-07
vn 1.43051E-06 -5.960443E-07 -1
vn 1.490115E-06 -7.152535E-07 -1
vn 1.43051E-06 -5.960443E-07 -1
vn 1.370906E-06 -4.768352E-07 -1
vn 1.311301E-06 -5.960443E-07 -1
vn 1.251696E-06 -4.768348E-07 -1
vn -1 -4.768373E-07 2.384182E-07
vn -1 -1.072884E-06 3.973605E-08
vn -1 -1.072884E-06 3.973605E-08
vn -1 -1.66893E-06 -1.589461E-07
vn -1 -3.576286E-07 8.344634E-07
vn -1 -1.013279E-06 5.066386E-07
vn -1 -1.013279E-06 5.066386E-07
vn -1 -1.66893E-06 1.788137E-07
vn -2.384183E-07 -4.768376E-07 -1
vn -2.384183E-07 -4.768376E-07 -1
vn -2.384184E-07 -4.768376E-07 -1
vn 6.322649E-13 1 8.940697E-07
vn -7.947213E-08 1 1.053015E-06
vn -7.947213E-08 1 1.053015E-06
vn -1.589449E-07 1 1.211961E-06
vn 7.947218E-08 -1 -1.124752E-06
vn 1.589453E-07 -1 -8.863331E-07
vn 1 1.072884E-06 -7.152548E-07
vn 1 1.072884E-06 -7.152548E-07
vn -1.370907E-06 1 2.451369E-13
vn -9.238721E-07 1 1.490117E-07
vn -9.238721E-07 1 1.490117E-07
vn -4.76837E-07 1 2.980231E-07
vn 7.722821E-07 -1 -1.47722E-07
vn 0 1 0
vn 0 1 0
vn 0 1 0
vn 0 1 0
vt 1.999998 -4.000002
vt -2.000005 -3.999996
vt 2 0
vt -2.000001 -2.786512E-06
vt 4.000002 1.999999
vt 4.000001 -1.057413E-06
vt -1.999999 2
vt -2.000001 -1.037376E-07
vt 2.000002 4
vt 2.000001 2
vt -1.999996 4
vt -1.999999 2
vt -4.932283E-06 -2.980235E-06
vt -3.999999 -2.980236E-06
vt -4 1.999997
vt -3.201807E-06 1.999997
vt -4.000001 3.999997
vt -1.471331E-06 3.999997
vt 1.999997 2.000003
vt 2 2.861014E-06
vt -2.000004 2.861014E-06
vt -2.000007 2.000003
vt 1.999994 4.000003
vt -2.000011 4.000003
vt -2.000002 1.999999
vt 4.000004 2.000001
vt -2 -8.189922E-07
vt 4.000003 9.536735E-07
vt -1.876405E-06 4.000001
vt 4.000006 4.000001
vt -1.037389E-07 2.000001
vt 4.000005 2.000001
vt -1.999997 1.907352E-06
vt -4.000001 2.000001
vt -3.999998 9.536769E-07
vt 1.999999 -2.844178E-06
vt -2.000001 -1.547278E-08
vt 2 1.999997
vt -4 2.000001
vt 4 2.000001
vt -2.000002 1.999997
vt 1.999999 -3.918435E-06
vt 2 1.999996
vt -1.999998 1.772666E-06
vt -1.999999 -4.000003
vt -3.999998 2.000003
vt -3.999999 -4.000003
vt 3.999999 -4.000002
vt -2.000002 3.545333E-06
vt 1.999996 6.74435E-07
vt -2.000005 -4.000004
vt 2 -3.999999
g submesh0
f 1/1/1 2/2/2 3/3/3
f 2/2/2 4/4/4 3/3/3
f 5/5/5 6/6/6 7/7/7
f 6/6/6 8/8/8 7/7/7
f 9/9/9 10/10/10 11/11/11
f 10/10/10 12/12/12 11/11/11
f 13/13/13 14/14/14 15/15/15
f 13/13/13 15/15/15 16/16/16
f 16/16/16 15/15/15 17/17/17
f 16/16/16 17/17/17 18/18/18
f 19/19/19 20/20/20 21/21/21
f 19/19/19 21/21/21 22/22/22
f 23/23/23 19/19/19 22/22/22
f 23/23/23 22/22/22 24/24/24
f 25/25/25 26/26/26 27/27/27
f 26/26/26 28/28/28 27/27/27
f 29/29/29 30/30/30 31/31/31
f 30/30/30 32/32/32 31/31/31
f 22/22/22 33/33/33 34/34/34
f 33/33/33 35/35/35 34/34/34
f 36/36/36 37/37/37 38/38/38
f 37/37/37 39/39/39 38/38/38
f 3/3/3 4/4/4 40/40/40
f 4/4/4 41/41/41 40/40/40
f 13/13/13 16/16/16 42/42/42
f 16/16/16 43/43/43 42/42/42
f 44/44/44 45/45/45 46/46/46
f 45/45/45 47/47/47 46/46/46
f 1/1/1 3/3/3 48/48/48
f 3/3/3 40/40/40 48/48/48
g submesh1
f 49/49/49 50/50/50 51/51/51
f 50/50/50 52/52/52 51/51/51
