v -4 1.5 0.4999933
v 1.999999 1.5 1.500002
v -4 3 0.4999933
v 1.999998 3 1.500002
v 1.999999 1.5 1.500002
v 2.000006 1.5 -3.999998
v 1.999998 3 1.500002
v 2.000002 3 -3.999996
v 2.000006 1.5 -3.999998
v -3.999994 1.5 -4.000007
v 2.000002 3 -3.999996
v -3.999994 3 -4.000007
v -3.999994 1.5 -4.000007
v -4 1.5 0.4999933
v -3.999994 3 -4.000007
v -4 3 0.4999933
v -3.999994 1.5 -4.000007
v 2.000006 1.5 -3.999998
v -4 1.5 0.4999933
v 1.999999 1.5 1.500002
v -4 3 0.4999933
v 1.999998 3 1.500002
v -3.999994 3 -4.000007
v 2.000002 3 -3.999996
vn -0.1644004 0 0.9863936
vn -0.1644004 -3.919612E-08 0.9863937
vn -0.1644004 -3.919612E-08 0.9863937
vn -0.1644004 -7.839224E-08 0.9863937
vn 1 4.768372E-07 1.300465E-06
vn 1 1.589457E-06 9.970232E-07
vn 1 1.589457E-06 9.970232E-07
vn 1 2.702076E-06 6.935815E-07
vn 1.470248E-06 9.536783E-07 -1
vn 1.589458E-06 4.768391E-07 -1
vn 1.589458E-06 4.768391E-07 -1
vn 1.708668E-06 0 -1
vn -1 0 -1.430511E-06
vn -1 0 -1.430511E-06
vn -1 0 -1.430511E-06
vn -1 0 -1.430511E-06
vn 0 -1 0
vn 0 -1 0
vn 0 -1 0
vn 0 -1 0
vn 0 1 0
vn 0 1 0
vn 0 1 0
vn 0 1 0
vt 3.863376 1.5
vt -2.219387 1.5
vt 3.863376 3
vt -2.219386 3
vt 1.499999 1.499999
vt -4 1.499999
vt 1.499999 2.999999
vt -3.999999 2.999999
vt 2 1.499996
vt -4 1.499996
vt 1.999996 2.999996
vt -4 2.999996
vt 4.000001 1.5
vt -0.499999 1.5
vt 4.000001 3
vt -0.499999 3
vt 3.999994 -4.000007
vt -2.000006 -3.999998
vt 4 0.4999933
vt -1.999999 1.500002
vt -4 0.4999933
vt 1.999998 1.500002
vt -3.999994 -4.000007
vt 2.000002 -3.999996
g submesh0
f 1/1/1 2/2/2 3/3/3
f 2/2/2 4/4/4 3/3/3
f 5/5/5 6/6/6 7/7/7
f 6/6/6 8/8/8 7/7/7
f 9/9/9 10/10/10 11/11/11
f 10/10/10 12/12/12 11/11/11
f 13/13/13 14/14/14 15/15/15
f 14/14/14 16/16/16 15/15/15
f 17/17/17 18/18/18 19/19/19
f 18/18/18 20/20/20 19/19/19
g submesh1
f 21/21/21 22/22/22 23/23/23
f 22/22/22 24/24/24 23/23/23
