v -2 0 0
v 2.000001 0 -2.786512E-06
v -2 3 0
v 2 3 0
v 2.000001 0 -2.786512E-06
v 2.000005 0 -3.999996
v 2 3 0
v 2.000002 3 -3.999996
v 2.000005 0 -3.999996
v -1.999998 0 -4.000002
v 2.000002 3 -3.999996
v -1.999998 3 -4.000002
v -1.999998 0 -4.000002
v -2 0 0
v -1.999998 3 -4.000002
v -2 3 0
v -1.999998 0 -4.000002
v 2.000005 0 -3.999996
v -2 0 0
v 2.000001 0 -2.786512E-06
v -2 3 0
v 2 3 0
v -1.999998 3 -4.000002
v 2.000002 3 -3.999996
vn 6.966279E-07 0 1
vn 3.48314E-07 -4.644187E-07 1
vn 3.48314E-07 -4.644187E-07 1
vn 0 -9.288374E-07 1
vn 1 2.384175E-07 1.192095E-06
vn 1 7.549916E-07 8.046638E-07
vn 1 7.549916E-07 8.046638E-07
vn 1 1.271566E-06 4.172329E-07
vn 1.490115E-06 1.894779E-12 -1
vn 1.490115E-06 9.473894E-13 -1
vn 1.490115E-06 9.473894E-13 -1
vn 1.490116E-06 0 -1
vn -1 0 -3.874299E-07
vn -1 0 -3.874299E-07
vn -1 0 -3.874299E-07
vn -1 0 -3.874299E-07
vn 0 -1 0
vn 0 -1 0
vn 0 -1 0
vn 0 -1 0
vn 0 1 0
vn 0 1 0
vn 0 1 0
vn 0 1 0
vt 2 0
vt -2.000001 0
vt 2 3
vt -2 3
vt -5.170702E-06 -4.768351E-07
vt -3.999999 -4.768351E-07
vt -2.38419E-06 3
vt -3.999999 3
vt 2 -7.579114E-12
vt -2.000004 -7.579114E-12
vt 1.999996 3
vt -2.000004 3
vt 4.000001 0
vt -7.748599E-07 0
vt 4.000001 3
vt -7.748599E-07 3
vt 1.999998 -4.000002
vt -2.000005 -3.999996
vt 2 0
vt -2.000001 -2.786512E-06
vt -2 0
vt 2 0
vt -1.999998 -4.000002
vt 2.000002 -3.999996
g submesh0
f 1/1/1 2/2/2 3/3/3
f 2/2/2 4/4/4 3/3/3
f 5/5/5 6/6/6 7/7/7
f 6/6/6 8/8/8 7/7/7
f 9/9/9 10/10/10 11/11/11
f 10/10/10 12/12/12 11/11/11
f 13/13/13 14/14/14 15/15/15
f 14/14/14 16/16/16 15/15/15
f 17/17/17 18/18/18 19/19/19
f 18/18/18 20/20/20 19/19/19
g submesh1
f 21/21/21 22/22/22 23/23/23
f 22/22/22 24/24/24 23/23/23
