v -1.999998 0 -4.000002
v 2.000005 0 -3.999996
v -2 0 0
v 2.000001 0 -2.786512E-06
v -2 14 4.768372E-07
v -2 0 0
v 2 14 -1.66893E-06
v 2.000001 0 -2.786512E-06
v -2 17 9.536743E-07
v 2 17 -7.152557E-07
v 2.000001 0 -2.786512E-06
v 2.000005 0 -3.999996
v 2.000004 14 -3.999997
v 2 14 -1.66893E-06
v 21 15 2.384186E-07
v 21 15 -3.999995
v 21 16 -3.999995
v 21 16 1.192093E-06
v 2.000004 14 -3.999997
v 2.000005 0 -3.999996
v -1.999998 0 -4.000002
v -2 14 -4.000003
v 2 17 -3.999997
v -2 17 -4.000003
v -2 14 -4.000003
v -2 0 0
v -2 14 4.768372E-07
v -1.999998 0 -4.000002
v -2 17 -4.000003
v -2 17 9.536743E-07
v 2 14 -1.66893E-06
v 2.000004 14 -3.999997
v 21 15 2.384186E-07
v 21 15 -3.999995
v 2.000004 14 -3.999997
v 21 15 -3.999995
v 21 16 -3.999995
v 21 16 1.192093E-06
v 21 15 2.384186E-07
v -2 17 9.536743E-07
v 2 17 -7.152557E-07
v -2 17 -4.000003
v 2 17 -3.999997
v 2 17 -3.999997
v 2 17 -7.152557E-07
v 21 16 -3.999995
v 21 16 1.192093E-06
vn 0 -1 0
vn 0 -1 0
vn 0 -1 0
vn 0 -1 0
vn 5.364418E-07 -3.40598E-08 1
vn 6.165349E-07 -5.694352E-08 1
vn 6.165349E-07 -5.694352E-08 1
vn 6.966279E-07 -7.982724E-08 1
vn 4.172325E-07 -1.589457E-07 1
vn 4.768372E-07 -2.384186E-07 1
vn 1 8.514947E-08 1.072885E-06
vn 1 1.192093E-07 1.192095E-06
vn 1 8.514947E-08 1.072885E-06
vn 1 5.108962E-08 9.536755E-07
vn 1 0 0
vn 1 0 0
vn 1 0 0
vn 1 0 0
vn 1.519917E-06 -2.554468E-08 -1
vn 1.490115E-06 -1.702972E-08 -1
vn 1.519917E-06 -2.554468E-08 -1
vn 1.549719E-06 -3.405964E-08 -1
vn 1.490115E-06 -7.947187E-08 -1
vn 1.430511E-06 0 -1
vn -1 -5.534718E-08 -1.93715E-07
vn -1 -5.534718E-08 -1.93715E-07
vn -1 0 0
vn -1 -1.106944E-07 -3.8743E-07
vn -1 0 0
vn -1 0 0
vn 0.05255883 -0.9986179 5.012407E-08
vn 0.05255884 -0.9986179 2.506204E-08
vn 0.05255884 -0.9986179 2.506204E-08
vn 0.05255884 -0.9986179 0
vn 1.087523E-07 -1.589456E-07 -1
vn 9.202121E-08 -3.178914E-07 -1
vn 7.529007E-08 -4.768372E-07 -1
vn -8.365564E-08 -6.357829E-07 1
vn -5.019339E-08 -9.536743E-07 1
vn 0 1 0
vn 0 1 0
vn 0 1 0
vn 0 1 0
vn 0.05255884 0.9986179 0
vn 0.05255884 0.9986179 0
vn 0.05255884 0.9986179 0
vn 0.05255884 0.9986179 0
vt 1.999998 -4.000002
vt -2.000005 -3.999996
vt 2 0
vt -2.000001 -2.786512E-06
vt 2 14
vt 2 -9.20322E-14
vt -2 14
vt -2.000001 -1.768739E-13
vt 2 17
vt -2 17
vt -5.170702E-06 -2.384187E-07
vt -3.999999 -2.384187E-07
vt -3.999999 14
vt -4.053119E-06 14
vt 2.384186E-07 15
vt -3.999995 15
vt -3.999995 16
vt 1.192093E-06 16
vt 1.999998 14
vt 1.999999 3.519469E-07
vt -2.000005 3.519469E-07
vt -2.000006 14
vt 1.999994 17
vt -2.000006 17
vt 4.000003 14
vt 0 0
vt -4.768372E-07 14
vt 4.000002 0
vt 4.000003 17
vt -9.536743E-07 17
vt -2.733059 -9.73432E-07
vt -2.733063 -3.999996
vt -21.75936 9.339167E-07
vt -21.75936 -3.999994
vt 2.000003 14
vt 21 15
vt 21 16
vt -21 16
vt -21 15
vt -2 9.536743E-07
vt 2 -7.152557E-07
vt -2 -4.000003
vt 2 -3.999997
vt 1.103736 -3.999997
vt 1.103736 -7.152557E-07
vt 20.13003 -3.999995
vt 20.13003 1.192093E-06
g submesh0
f 1/1/1 2/2/2 3/3/3
f 2/2/2 4/4/4 3/3/3
f 5/5/5 6/6/6 7/7/7
f 6/6/6 8/8/8 7/7/7
f 9/9/9 5/5/5 10/10/10
f 5/5/5 7/7/7 10/10/10
f 11/11/11 12/12/12 13/13/13
f 14/14/14 11/11/11 13/13/13
f 15/15/15 16/16/16 17/17/17
f 15/15/15 17/17/17 18/18/18
f 19/19/19 20/20/20 21/21/21
f 19/19/19 21/21/21 22/22/22
f 23/23/23 19/19/19 22/22/22
f 23/23/23 22/22/22 24/24/24
f 25/25/25 26/26/26 27/27/27
f 25/25/25 28/28/28 26/26/26
f 29/29/29 27/27/27 30/30/30
f 29/29/29 25/25/25 27/27/27
f 31/31/31 32/32/32 33/33/33
f 32/32/32 34/34/34 33/33/33
f 35/35/35 23/23/23 36/36/36
f 23/23/23 37/37/37 36/36/36
f 10/10/10 7/7/7 38/38/38
f 7/7/7 39/39/39 38/38/38
g submesh1
f 40/40/40 41/41/41 42/42/42
f 41/41/41 43/43/43 42/42/42
f 44/44/44 45/45/45 46/46/46
f 45/45/45 47/47/47 46/46/46
