v 2.000001 0 -2.786512E-06
v 2.000008 0 -5.499997
v 2 3 0
v 2.000004 3 -5.499997
v -1.999996 0 -5.500003
v -2 0 0
v -1.999996 3 -5.500003
v -2 3 0
v -2 3 0
v -2 0 0
v 0 3 0
v 3.576279E-07 0 -1.393256E-06
v 2 3 0
v 2.000001 0 -2.786512E-06
v 2.000004 3 -5.499997
v 2.000008 0 -5.499997
v 5.781651E-06 0 -5.5
v 3.874302E-06 3 -5.5
v -1.999996 0 -5.500003
v -1.999996 3 -5.500003
v -2 0 0
v -1.999996 0 -5.500003
v 3.576279E-07 0 -1.393256E-06
v 5.781651E-06 0 -5.5
v 2.000001 0 -2.786512E-06
v 2.000008 0 -5.499997
v 3.874302E-06 3 -5.5
v -1.999996 3 -5.500003
v 3.874297E-06 5.5 -5.5
v -1.999996 5.5 -5.500003
v -1.999996 5.5 -5.500003
v -2 5.5 1.177192E-06
v 0 3 0
v 3.874302E-06 3 -5.5
v 1.489741E-08 5.5 2.831217E-07
v 3.874297E-06 5.5 -5.5
v 3.874297E-06 5.5 -5.5
v -1.999996 5.5 -5.500003
v -2 5.5 1.177192E-06
v 1.489741E-08 5.5 2.831217E-07
v 2.000004 3 -5.499997
v 3.874302E-06 3 -5.5
v 0 3 0
v 2 3 0
v -2 3 0
v 0 3 0
v -2 5.5 1.177192E-06
v 1.489741E-08 5.5 2.831217E-07
vn 1 2.384174E-07 1.300466E-06
vn 1 7.549915E-07 1.018699E-06
vn 1 7.549915E-07 1.018699E-06
vn 1 1.271566E-06 7.369306E-07
vn -1 0 -6.719066E-07
vn -1 0 -6.719066E-07
vn -1 0 -6.719066E-07
vn -1 0 -6.719066E-07
vn 0 0 1
vn 3.48314E-07 -2.322093E-07 1
vn 3.48314E-07 -2.322093E-07 1
vn 6.966279E-07 -4.644186E-07 1
vn 3.48314E-07 -6.966279E-07 1
vn 6.966279E-07 -9.288372E-07 1
vn 1.668929E-06 1.591614E-12 -1
vn 1.668928E-06 2.122152E-12 -1
vn 1.668929E-06 1.591614E-12 -1
vn 1.66893E-06 1.061077E-12 -1
vn 1.430511E-06 4.547468E-13 -1
vn 1.430511E-06 0 -1
vn 0 -1 0
vn 0 -1 0
vn 0 -1 0
vn 0 -1 0
vn 0 -1 0
vn 0 -1 0
vn 1.430511E-06 1.907349E-07 -1
vn 1.549721E-06 9.536743E-08 -1
vn 1.549721E-06 9.536743E-08 -1
vn 1.66893E-06 0 -1
vn -1 1.581926E-13 -6.719065E-07
vn -1 3.163851E-13 -6.719064E-07
vn 1 -5.959043E-09 7.044185E-07
vn 1 -2.978588E-09 7.030637E-07
vn 1 -2.978588E-09 7.030637E-07
vn 1 1.867048E-12 7.01709E-07
vn 0 1 0
vn 0 1 0
vn 0 1 0
vn 0 1 0
vn 0 1 0
vn 0 1 0
vn 0 1 0
vn 0 1 0
vn 0 -4.708767E-07 1
vn 2.235175E-07 -2.920627E-07 1
vn 2.235175E-07 -2.920627E-07 1
vn 4.470351E-07 -1.132487E-07 1
vt -5.387446E-06 -4.768349E-07
vt -5.499999 -4.768349E-07
vt -2.600933E-06 3
vt -5.499999 3
vt 5.500001 0
vt -1.343813E-06 0
vt 5.500001 3
vt -1.343813E-06 3
vt 2 3
vt 2 0
vt 0 3
vt -3.576279E-07 -3.235271E-13
vt -2 3
vt -2.000001 -6.470541E-13
vt 1.999996 3
vt 1.999999 -8.337025E-12
vt -2.741804E-06 -8.337025E-12
vt -4.649153E-06 3
vt -2.000005 -8.337025E-12
vt -2.000005 3
vt 2 0
vt 1.999996 -5.500003
vt -3.576279E-07 -1.393256E-06
vt -5.781651E-06 -5.5
vt -2.000001 -2.786512E-06
vt -2.000008 -5.499997
vt -3.993511E-06 2.999999
vt -2.000004 2.999999
vt -3.993515E-06 5.499999
vt -2.000004 5.499999
vt 5.500001 5.5
vt -2.521005E-06 5.5
vt 0 3
vt -5.5 3
vt 2.831217E-07 5.5
vt -5.5 5.5
vt 3.874297E-06 -5.5
vt -1.999996 -5.500003
vt -2 1.177192E-06
vt 1.489741E-08 2.831217E-07
vt 2.000004 -5.499997
vt 3.874302E-06 -5.5
vt 0 0
vt 2 0
vt 2 3
vt 0 3
vt 2 5.5
vt -1.489741E-08 5.5
g submesh0
f 1/1/1 2/2/2 3/3/3
f 2/2/2 4/4/4 3/3/3
f 5/5/5 6/6/6 7/7/7
f 6/6/6 8/8/8 7/7/7
f 9/9/9 10/10/10 11/11/11
f 10/10/10 12/12/12 11/11/11
f 11/11/11 12/12/12 13/13/13
f 12/12/12 14/14/14 13/13/13
f 15/15/15 16/16/16 17/17/17
f 15/15/15 17/17/17 18/18/18
f 18/18/18 17/17/17 19/19/19
f 18/18/18 19/19/19 20/20/20
f 21/21/21 22/22/22 23/23/23
f 23/23/23 22/22/22 24/24/24
f 23/23/23 24/24/24 25/25/25
f 25/25/25 24/24/24 26/26/26
f 27/27/27 28/28/28 29/29/29
f 28/28/28 30/30/30 29/29/29
f 7/7/7 8/8/8 31/31/31
f 8/8/8 32/32/32 31/31/31
f 33/33/33 34/34/34 35/35/35
f 34/34/34 36/36/36 35/35/35
g submesh1
f 37/37/37 38/38/38 39/39/39
f 37/37/37 39/39/39 40/40/40
f 41/41/41 42/42/42 43/43/43
f 41/41/41 43/43/43 44/44/44
f 45/45/45 46/46/46 47/47/47
f 46/46/46 48/48/48 47/47/47
