v -1 -2 -1
v 3 -2 -6
v 3 -2 -1
v -1 -2 -5
v 1 -2 2
v 3 -2 2
v 3 1 -1
v 0 1 -1
v 1 1 2
v 3 1 2
v 3 4 -4
v 1 4 -4
v 1 4 -1
v 3 4 -1
v 1 -2 2
v 3 -2 2
v 1 1 2
v 3 1 2
v 3 -2 -6
v -1 -2 -5
v 3 1 -5
v 0 1 -5
v 3 -2 2
v 3 -2 -1
v 3 1 -1
v 3 1 2
v 3 -2 -6
v 3 1 -5
v 0 1 -5
v -1 -2 -1
v 0 1 -1
v -1 -2 -5
v 0 1 -1
v 1 -2 2
v 1 1 2
v -1 -2 -1
v 3 1 -5
v 0 1 -5
v 3 4 -4
v 1 4 -4
v 0 1 -5
v 0 1 -1
v 1 4 -4
v 1 4 -1
v 3 4 -1
v 3 4 -4
v 0 1 -1
v 3 1 -1
v 1 4 -1
v 3 4 -1
vn 0 -1 0
vn 0 -1 0
vn 0 -1 0
vn 0 -1 0
vn 0 -1 0
vn 0 -1 0
vn 0 1 0
vn 0 1 0
vn 0 1 0
vn 0 1 0
vn 0 1 0
vn 0 1 0
vn 0 1 0
vn 0 1 0
vn 0 0 1
vn 0 0 1
vn 0 0 1
vn 0 0 1
vn -0.2307692 0.3076923 -0.9230769
vn -0.1153846 0.1538462 -0.9615384
vn -0.1153846 0.1538462 -0.9615384
vn 0 0 -1
vn 1 0 0
vn 1 0 0
vn 1 0 0
vn 1 0 0
vn 1 0 0
vn 1 0 0
vn -0.9486833 0.3162278 0
vn -0.9486833 0.3162278 0
vn -0.9486833 0.3162278 0
vn -0.9486833 0.3162278 0
vn -0.8752335 0.1336306 0.4253751
vn -0.8752335 0.1336306 0.4253751
vn -0.9486833 0 0.3162278
vn -0.8017837 0.2672612 0.5345225
vn 0 0.3162278 -0.9486833
vn 0 0.3162278 -0.9486833
vn 0 0.3162278 -0.9486833
vn 0 0.3162278 -0.9486833
vn -0.9486833 0.3162278 0
vn -0.9486833 0.3162278 0
vn -0.9486833 0.3162278 0
vn -0.9486833 0.3162278 0
vn 1 0 0
vn 1 0 0
vn 0 0 1
vn 0 0 1
vn 0 0 1
vn 0 0 1
vt 1 -1
vt -3 -6
vt -3 -1
vt 1 -5
vt -1 2
vt -3 2
vt 3 -1
vt 0 -1
vt 1 2
vt 3 2
vt 3 -4
vt 1 -4
vt 1 -1
vt 3 -1
vt -1 -2
vt -3 -2
vt -1 1
vt -3 1
vt 4.365641 -3.470125
vt 0.2425356 -3.470125
vt 4.123106 -0.317162
vt 1.212678 -0.541041
vt 2 -2
vt -1 -2
vt -1 1
vt 2 1
vt -6 -2
vt -5 1
vt 4.93197 1.1201
vt 1.150793 -2.106854
vt 0.9863939 1.013423
vt 5.096369 -2.000178
vt 0.9863939 1.013423
vt -2.137187 -1.866833
vt -2.137187 1.093431
vt 1.150793 -2.106854
vt 3 -0.6324555
vt 0 -0.6324555
vt 3 2.529822
vt 1 2.529822
vt 5 0.9486833
vt 1 0.9486833
vt 4 4.110961
vt 1 4.110961
vt -1 4
vt -4 4
vt 0 1
vt -3 1
vt -1 4
vt -3 4
g submesh0
f 1/1/1 2/2/2 3/3/3
f 1/1/1 4/4/4 2/2/2
f 5/5/5 3/3/3 6/6/6
f 5/5/5 1/1/1 3/3/3
g submesh1
f 7/7/7 8/8/8 9/9/9
f 10/10/10 7/7/7 9/9/9
f 11/11/11 12/12/12 13/13/13
f 14/14/14 11/11/11 13/13/13
g submesh2
f 15/15/15 16/16/16 17/17/17
f 16/16/16 18/18/18 17/17/17
f 19/19/19 20/20/20 21/21/21
f 20/20/20 22/22/22 21/21/21
f 23/23/23 24/24/24 25/25/25
f 26/26/26 23/23/23 25/25/25
f 24/24/24 27/27/27 28/28/28
f 25/25/25 24/24/24 28/28/28
f 29/29/29 30/30/30 31/31/31
f 29/29/29 32/32/32 30/30/30
f 33/33/33 34/34/34 35/35/35
f 33/33/33 36/36/36 34/34/34
f 37/37/37 38/38/38 39/39/39
f 38/38/38 40/40/40 39/39/39
f 41/41/41 42/42/42 43/43/43
f 42/42/42 44/44/44 43/43/43
f 25/25/25 28/28/28 45/45/45
f 28/28/28 46/46/46 45/45/45
f 47/47/47 48/48/48 49/49/49
f 48/48/48 50/50/50 49/49/49
