v -10 -14 10
v -10 -14 -10
v -10 -20 10
v -10 -20 -10
v 10 -14 -10
v 10 -14 10
v 10 -20 -10
v 10 -20 10
v -10 -20 10
v 0 -20 -10
v 0 -20 10
v -10 -20 -10
v 10 -20 -10
v 10 -20 10
v 0 -14 -10
v -10 -20 -10
v -10 -14 -10
v 0 -20 -10
v 10 -14 -10
v 10 -20 -10
v 0 -20 10
v 10 -20 10
v 10 -14 10
v 0 -14 10
v -10 -20 10
v -10 -14 10
v 0 -14 -10
v -10 -14 -10
v -10 -2 10
v 0 -2 10
v 10 -14 -10
v 2 -2 10
v 0 -2 10
v -10 -2 10
v 0 -2 18
v -10 -2 18
v 2 -2 10
v -10 -2 18
v -10 -2 10
v -30 2 18
v -30 2 10
v -30 2 18
v -30 2 10
v -35 2 18
v -35 2 10
v -30 2 -2
v -35 2 -2
v -30 2 -10
v -35 2 -10
v 10 -14 10
v 10 -14 -10
v 2 -2 10
v -10 -14 10
v -10 -2 10
v -10 -14 -10
v -10 -14 18
v 0 -14 18
v 0 -2 18
v -10 -2 18
v 10 -14 18
v -10 -14 10
v 0 -14 10
v -10 -14 18
v 0 -14 18
v 0 -14 10
v 0 -2 10
v 0 -14 18
v 0 -2 18
v -35 2 10
v -35 0 10
v -35 2 18
v -35 1 18
v 10 -14 10
v 10 -14 18
v 2 -2 10
v 10 -14 18
v 0 -2 18
v 0 -2 10
v 0 -14 10
v 0 -2 18
v 0 -14 18
v -10 -2 10
v -10 -14 10
v -30 2 10
v -27 -14 10
v -27 -14 10
v -25 -14 16
v -10 -14 18
v -10 -2 18
v -25 -14 16
v -30 2 18
v -30 -1 10
v -27 -14 10
v -25 -14 16
v -30 -1 10
v -30 -1 18
v -25 -14 16
v -30 2 18
v -30 -1 18
v -30 2 -10
v -30 1 -10
v -35 2 -10
v -35 1 -10
v -30 -1 10
v -30 -1 18
v -35 0 10
v -35 1 18
v -30 -1 18
v -30 2 18
v -35 1 18
v -35 2 18
v -30 -1 10
v -30 -1 -2
v -30 2 -2
v -30 2 10
v -30 1 -10
v -30 2 -10
v -35 0 10
v -30 -1 -2
v -30 -1 10
v -35 0 -2
v -35 0 -2
v -30 1 -10
v -30 -1 -2
v -35 1 -10
v -35 2 -2
v -35 0 -2
v -35 2 -10
v -35 1 -10
vn -1 0 0
vn -1 0 0
vn -1 0 0
vn -1 0 0
vn 1 0 0
vn 1 0 0
vn 1 0 0
vn 1 0 0
vn 0 -1 0
vn 0 -1 0
vn 0 -1 0
vn 0 -1 0
vn 0 -1 0
vn 0 -1 0
vn 0 0 -1
vn 0 0 -1
vn 0 0 -1
vn 0 0 -1
vn 0 0 -1
vn 0 0 -1
vn 0 0 1
vn 0 0 1
vn 0 0 1
vn 0 0 1
vn 0 0 1
vn 0 0 1
vn 0 0.8574929 -0.5144957
vn 0 0.8574929 -0.5144957
vn 0 0.8574929 -0.5144957
vn 0 0.8574929 -0.5144957
vn 0 0.8574929 -0.5144957
vn 0 0.8574929 -0.5144957
vn 0 1 0
vn 0 1 0
vn 0 1 0
vn 0 1 0
vn 0 1 0
vn 0.1961161 0.9805807 0
vn 0.1961161 0.9805807 0
vn 0.1961161 0.9805807 0
vn 0.1961161 0.9805807 0
vn 0 1 0
vn 0 1 0
vn 0 1 0
vn 0 1 0
vn 0 1 0
vn 0 1 0
vn 0 1 0
vn 0 1 0
vn 0.8320503 0.5547002 0
vn 0.8320503 0.5547002 0
vn 0.8320503 0.5547002 0
vn -1 0 0
vn -1 0 0
vn -1 0 0
vn 0 0 1
vn 0 0 1
vn 0 0 1
vn 0 0 1
vn 0 0 1
vn 0 -1 0
vn 0 -1 0
vn 0 -1 0
vn 0 -1 0
vn 1 0 0
vn 1 0 0
vn 1 0 0
vn 1 0 0
vn -1 0 0
vn -1 0 0
vn -1 0 0
vn -1 0 0
vn 0 -1 0
vn 0 -1 0
vn 0.793242 0.5916975 0.0943042
vn 0.793242 0.5916975 0.0943042
vn 0.7544336 0.6286947 0.1886084
vn -1 0 0
vn -1 0 0
vn -1 0 0
vn -1 0 0
vn 0 0 -1
vn 0 0 -1
vn 0 0 -1
vn 0 0 -1
vn 0 -1 0
vn 0 -1 0
vn -0.1321637 0 0.9912279
vn -0.07929362 -0.06605878 0.9910548
vn -0.07929362 -0.06605878 0.9910548
vn -0.02642351 -0.1321176 0.9908817
vn 0 0 -1
vn -0.9267345 -0.2138618 0.3089115
vn -0.9300401 -0.2864205 0.1544558
vn -0.9300401 -0.2864205 0.1544558
vn -0.9333456 -0.3589791 0
vn 0.3713907 0 0.9284767
vn 0.3713907 0 0.9284767
vn 0.3713907 0 0.9284767
vn 0 0 -1
vn 0 0 -1
vn 0 0 -1
vn 0 0 -1
vn -0.1961161 -0.9805807 0
vn -0.2825153 -0.9514333 0.05764287
vn -0.2825153 -0.9514333 0.05764287
vn -0.3689144 -0.922286 0.1152857
vn 0 0 1
vn 0 0 1
vn 0 0 1
vn 0 0 1
vn 1 0 0
vn 1 0 0
vn 1 0 0
vn 1 0 0
vn 1 0 0
vn 1 0 0
vn -0.1961161 -0.9805807 0
vn -0.1961161 -0.9805807 0
vn -0.1961161 -0.9805807 0
vn -0.1961161 -0.9805807 0
vn -0.0952381 -0.9723294 -0.181065
vn -0.0952381 -0.9723294 -0.181065
vn -0.1904762 -0.952381 -0.2380952
vn 0 -0.9922779 -0.1240347
vn -1 0 0
vn -1 0 0
vn -1 0 0
vn -1 0 0
vt -10 -14
vt 10 -14
vt -10 -20
vt 10 -20
vt -10 -14
vt 10 -14
vt -10 -20
vt 10 -20
vt 10 10
vt 0 -10
vt 0 10
vt 10 -10
vt -10 -10
vt -10 10
vt 0 -14
vt -10 -20
vt -10 -14
vt 0 -20
vt 10 -14
vt 10 -20
vt 0 -20
vt -10 -20
vt -10 -14
vt 0 -14
vt 10 -20
vt 10 -14
vt 0 -15.77787
vt -10 -15.77787
vt -10 7.545938
vt 0 7.545938
vt 10 -15.77787
vt 2 7.545938
vt 0 10
vt -10 10
vt 0 18
vt -10 18
vt 2 10
vt -9.413574 18
vt -9.413574 10
vt -29.80965 18
vt -29.80965 10
vt -30 18
vt -30 10
vt -35 18
vt -35 10
vt -30 -2
vt -35 -2
vt -30 -10
vt -35 -10
vt 10 -17.19571
vt -10 -17.19571
vt 10 -2.773501
vt -10 -14
vt -10 -2
vt 10 -14
vt 10 -14
vt 0 -14
vt 0 -2
vt 10 -2
vt -10 -14
vt 10 10
vt 0 10
vt 10 18
vt 0 18
vt 10 -14
vt 10 -2
vt 18 -14
vt 18 -2
vt -10 2
vt -10 0
vt -18 2
vt -18 1
vt -10 10
vt -10 18
vt 10 -2.773501
vt 18 -17.19571
vt 18 -1.664101
vt -10 -2
vt -10 -14
vt -18 -2
vt -18 -14
vt -10 -2
vt -10 -14
vt -30 2
vt -27 -14
vt 27 10
vt 25 16
vt 7.533332 -14
vt 7.533332 -2
vt 22.66608 -14
vt 27.35789 2
vt -30 -1
vt -0.9486828 -7.521852
vt -7.273238 -7.521852
vt 5.960464E-07 5.78604
vt -7.589466 6.327073
vt 29.15417 -14
vt 34.53933 2
vt 34.53933 -1
vt -30 2
vt -30 1
vt -35 2
vt -35 1
vt 29.2213 10
vt 29.2213 18
vt 34.32032 10
vt 34.51644 18
vt 30 -1
vt 30 2
vt 35 1
vt 35 2
vt 10 -1
vt -2 -1
vt -2 2
vt 10 2
vt -10 1
vt -10 2
vt 34.32032 10.75093
vt 29.2213 -1.162479
vt 29.2213 10.75093
vt 34.32032 -1.162479
vt 34.32032 -1.162479
vt 29.61354 -9.339923
vt 29.2213 -1.162479
vt 34.51644 -9.222339
vt 2 2
vt 2 0
vt 10 2
vt 10 1
g submesh0
f 1/1/1 2/2/2 3/3/3
f 2/2/2 4/4/4 3/3/3
f 5/5/5 6/6/6 7/7/7
f 6/6/6 8/8/8 7/7/7
f 9/9/9 10/10/10 11/11/11
f 9/9/9 12/12/12 10/10/10
f 11/11/11 13/13/13 14/14/14
f 11/11/11 10/10/10 13/13/13
f 15/15/15 16/16/16 17/17/17
f 15/15/15 18/18/18 16/16/16
f 19/19/19 18/18/18 15/15/15
f 19/19/19 20/20/20 18/18/18
f 21/21/21 22/22/22 23/23/23
f 24/24/24 21/21/21 23/23/23
f 25/25/25 21/21/21 24/24/24
f 26/26/26 25/25/25 24/24/24
g submesh1
f 27/27/27 28/28/28 29/29/29
f 30/30/30 27/27/27 29/29/29
f 31/31/31 27/27/27 30/30/30
f 32/32/32 31/31/31 30/30/30
f 33/33/33 34/34/34 35/35/35
f 34/34/34 36/36/36 35/35/35
f 37/37/37 33/33/33 35/35/35
f 38/38/38 39/39/39 40/40/40
f 39/39/39 41/41/41 40/40/40
f 42/42/42 43/43/43 44/44/44
f 43/43/43 45/45/45 44/44/44
f 46/46/46 47/47/47 45/45/45
f 43/43/43 46/46/46 45/45/45
f 48/48/48 49/49/49 47/47/47
f 46/46/46 48/48/48 47/47/47
g submesh2
f 50/50/50 51/51/51 52/52/52
f 53/53/53 54/54/54 55/55/55
f 56/56/56 57/57/57 58/58/58
f 59/59/59 56/56/56 58/58/58
f 57/57/57 60/60/60 58/58/58
f 61/61/61 62/62/62 63/63/63
f 62/62/62 64/64/64 63/63/63
f 65/65/65 66/66/66 67/67/67
f 66/66/66 68/68/68 67/67/67
f 69/69/69 70/70/70 71/71/71
f 70/70/70 72/72/72 71/71/71
f 62/62/62 73/73/73 64/64/64
f 73/73/73 74/74/74 64/64/64
f 50/50/50 75/75/75 76/76/76
f 75/75/75 77/77/77 76/76/76
f 78/78/78 79/79/79 80/80/80
f 79/79/79 81/81/81 80/80/80
f 82/82/82 83/83/83 84/84/84
f 83/83/83 85/85/85 84/84/84
f 61/61/61 63/63/63 86/86/86
f 63/63/63 87/87/87 86/86/86
f 88/88/88 89/89/89 90/90/90
f 89/89/89 91/91/91 90/90/90
f 85/85/85 92/92/92 84/84/84
f 93/93/93 94/94/94 95/95/95
f 94/94/94 96/96/96 95/95/95
f 97/97/97 98/98/98 99/99/99
f 100/100/100 101/101/101 102/102/102
f 101/101/101 103/103/103 102/102/102
f 104/104/104 105/105/105 106/106/106
f 105/105/105 107/107/107 106/106/106
f 108/108/108 109/109/109 110/110/110
f 109/109/109 111/111/111 110/110/110
f 112/112/112 113/113/113 114/114/114
f 115/115/115 112/112/112 114/114/114
f 113/113/113 116/116/116 117/117/117
f 114/114/114 113/113/113 117/117/117
f 118/118/118 119/119/119 120/120/120
f 118/118/118 121/121/121 119/119/119
f 122/122/122 123/123/123 124/124/124
f 122/122/122 125/125/125 123/123/123
f 126/126/126 70/70/70 69/69/69
f 126/126/126 127/127/127 70/70/70
f 128/128/128 127/127/127 126/126/126
f 128/128/128 129/129/129 127/127/127
