v -2 0 0
v 2.000001 0 -2.786512E-06
v -2.000002 7 1.224273E-06
v 1.999998 7 -1.293411E-06
v 2.000001 0 -2.786512E-06
v 2.000005 0 -3.999996
v 1.999998 7 -1.293411E-06
v 2.000001 7 -4
v 2.000005 0 -3.999996
v -1.999998 0 -4.000002
v 2.000001 7 -4
v -2.000003 7 -4.000005
v -1.999998 0 -4.000002
v -2 0 0
v -2.000003 7 -4.000005
v -2.000002 7 1.224273E-06
v -1.999998 0 -4.000002
v 2.000005 0 -3.999996
v -2 0 0
v 2.000001 0 -2.786512E-06
v -2.000002 7 1.224273E-06
v 1.999998 7 -1.293411E-06
v -2.000003 7 -4.000005
v 2.000001 7 -4
vn 6.966279E-07 -1.748959E-07 1
vn 6.630244E-07 -1.94098E-07 1
vn 6.630244E-07 -1.94098E-07 1
vn 6.294209E-07 -2.133E-07 1
vn 1 3.405977E-07 1.192095E-06
vn 1 4.598073E-07 9.834778E-07
vn 1 4.598073E-07 9.834778E-07
vn 1 5.790169E-07 7.748606E-07
vn 1.490115E-06 -5.108961E-07 -1
vn 1.400708E-06 -4.598064E-07 -1
vn 1.400708E-06 -4.598064E-07 -1
vn 1.311301E-06 -4.087167E-07 -1
vn -1 -6.301064E-07 -3.8743E-07
vn -1 -4.853522E-07 -1.341104E-07
vn -1 -4.853522E-07 -1.341104E-07
vn -1 -3.40598E-07 1.192091E-07
vn 0 -1 0
vn 0 -1 0
vn 0 -1 0
vn 0 -1 0
vn 0 1 0
vn 0 1 0
vn 0 1 0
vn 0 1 0
vt 2 -2.436747E-13
vt -2.000001 -2.436748E-13
vt 2.000002 7
vt -1.999998 7
vt -5.170702E-06 -6.811957E-07
vt -3.999999 -6.811957E-07
vt -3.677598E-06 7
vt -4.000002 7
vt 2 2.043584E-06
vt -2.000004 2.043584E-06
vt 1.999995 7.000002
vt -2.000009 7.000002
vt 4.000001 1.260213E-06
vt -7.748599E-07 1.260213E-06
vt 4.000004 7.000001
vt -1.999134E-06 7.000001
vt 1.999998 -4.000002
vt -2.000005 -3.999996
vt 2 0
vt -2.000001 -2.786512E-06
vt -2.000002 1.224273E-06
vt 1.999998 -1.293411E-06
vt -2.000003 -4.000005
vt 2.000001 -4
g submesh0
f 1/1/1 2/2/2 3/3/3
f 2/2/2 4/4/4 3/3/3
f 5/5/5 6/6/6 7/7/7
f 6/6/6 8/8/8 7/7/7
f 9/9/9 10/10/10 11/11/11
f 10/10/10 12/12/12 11/11/11
f 13/13/13 14/14/14 15/15/15
f 14/14/14 16/16/16 15/15/15
f 17/17/17 18/18/18 19/19/19
f 18/18/18 20/20/20 19/19/19
g submesh1
f 21/21/21 22/22/22 23/23/23
f 22/22/22 24/24/24 23/23/23
