v -8 12 -2
v -8 12 6
v -8 22 -2
v -8 22 6
v -2 12 6
v -2 12 -2
v -2 22 6
v -2 22 -2
v 0 9 8
v 0 6 -4
v 0 12 -4
v 0 12 8
v -10 12 -4
v -10 9 8
v -10 12 8
v -10 6 -4
v -10 -2 8
v -10 -2 14
v -16 -2 8
v -16 -2 14
v -10 -2 -4
v -16 -2 -4
v 0 -2 8
v 0 -2 -4
v 0 2 -4
v 0 3 8
v -10 2 -4
v -10 -2 8
v -10 3.5 8
v -10 -2 -4
v 11 -2 14
v 11 -2 8
v 11 0 8
v 11 0 14
v 0 3 14
v 0 9 14
v -16 9 8
v -16 3.5 14
v -16 9 14
v -16 3.5 8
v -16 -2 14
v -16 -2 8
v -10 0 -4
v -16 -1 -4
v -16 0 -4
v -10 -1 -4
v -16 -2 -4
v -10 -2 -4
v -16 -2 14
v -10 -2 14
v -10 3.5 14
v -16 3.5 14
v -10 9 14
v -16 9 14
v -10 -1 -4
v -10 0 -4
v -10 3.5 8
v -10 9 8
v -10 -2 8
v -10 -2 -4
v -16 -1 -4
v -16 -2 -4
v -16 0 -4
v 0 -2 14
v 0 -2 8
v 6 -2 14
v 6 -2 8
v 0 -2 -9
v 0 3 -9
v 6 -2 -9
v 6 3 -9
v 0 3 14
v 0 -2 14
v 6 3 14
v 6 -2 14
v 11 -2 14
v 11 -2 8
v 6 -2 8
v 6 3 8
v 11 -2 8
v 11 0 8
v 11 0 14
v 11 -2 14
v 0 -2 8
v 0 3 8
v 0 -2 -4
v 0 3 -4
v 6 -2 -4
v 0 -2 -4
v 6 3 8
v 6 -2 8
v 6 3 -4
v 6 -2 -4
v -8 -2 -4
v -6.5 -2 8
v -8 12 6
v -6.5 12 6
v -6.5 22 6
v -8 22 6
v -2 12 6
v -2 22 6
v -2 22 -2
v -6.5 12 -2
v -6.5 22 -2
v -2 12 -2
v -8 12 -2
v -8 22 -2
v -10 9 8
v -6.5 9 8
v -6.5 12 8
v -10 12 8
v 0 9 8
v 0 12 8
v -8 12 -4
v -10 6 -4
v -10 12 -4
v -8 6 -4
v 0 12 -4
v 0 6 -4
v -6.5 -2 14
v -6.5 -2 14
v -6.5 3.25 14
v -6.5 9 14
v 0 9 14
v -8 2 -4
v -10 2 -4
v -8 -2 -4
v 0 2 -9
v -8 -2 -9
v -8 2 -9
v 0 6 -9
v -8 6 -9
v -8 2 -4
v -8 6 -4
v -8 2 -9
v -8 6 -9
v 3.5 3 -4
v 3.5 2 -4
v 3.5 3 -9
v 3.5 2 -9
v 0 2 -9
v 0 -2 -9
v -8 -2 -4
v -8 -2 -9
v 0 -2 -9
v -8 -2 -9
v 0 -2 -9
v 0 3 -9
v 6 -2 -9
v 6 3 -9
v 6 -2 -9
v 0 6 -4
v 0 2 -4
v 3.5 3 -4
v 3.5 2 -4
v 0 2 -4
v 0 2 -9
v 3.5 2 -4
v 3.5 2 -9
v 3.5 2 -9
v 3.5 3 -9
v -10 12 -4
v -10 12 8
v -8 12 -2
v -8 12 6
v 0 12 8
v 0 12 -4
v -2 12 6
v -2 12 -2
v -10 9 14
v -10 9 8
v -16 9 14
v -16 9 8
v -16 9 8
v -10 9 8
v -16 0 -4
v -10 0 -4
v 0 3 8
v 0 3 14
v 6 3 8
v 6 3 14
v 6 3 8
v 6 3 14
v 11 0 8
v 11 0 14
v 0 3 -4
v 6 3 -4
v -6.5 22 -2
v -8 22 -2
v -8 22 6
v -6.5 22 6
v -2 22 -2
v -2 22 6
v -6.5 12 8
v -6.5 12 6
v -8 12 -4
v -6.5 12 -2
v 0 9 8
v -6.5 9 8
v -6.5 9 14
v 0 9 14
v -8 6 -4
v 0 6 -4
v -8 6 -9
v 0 6 -9
v 0 3 -9
v 6 3 -9
v 0 6 -9
v 0 6 -4
v 3.5 3 -9
v 3.5 3 -4
vn -1 0 0
vn -1 0 0
vn -1 0 0
vn -1 0 0
vn 1 0 0
vn 1 0 0
vn 1 0 0
vn 1 0 0
vn 1 0 0
vn 1 0 0
vn 1 0 0
vn 1 0 0
vn -1 0 0
vn -1 0 0
vn -1 0 0
vn -1 0 0
vn 0 -1 0
vn 0 -1 0
vn 0 -1 0
vn 0 -1 0
vn 0 -1 0
vn 0 -1 0
vn 1 0 0
vn 1 0 0
vn 1 0 0
vn 1 0 0
vn -1 0 0
vn -1 0 0
vn -1 0 0
vn -1 0 0
vn 1 0 0
vn 1 0 0
vn 1 0 0
vn 1 0 0
vn 1 0 0
vn 1 0 0
vn -1 0 0
vn -1 0 0
vn -1 0 0
vn -1 0 0
vn -1 0 0
vn -1 0 0
vn 0 0 -1
vn 0 0 -1
vn 0 0 -1
vn 0 0 -1
vn 0 0 -1
vn 0 0 -1
vn 0 0 1
vn 0 0 1
vn 0 0 1
vn 0 0 1
vn 0 0 1
vn 0 0 1
vn 1 0 0
vn 1 0 0
vn 1 0 0
vn 1 0 0
vn 1 0 0
vn 1 0 0
vn -1 0 0
vn -1 0 0
vn -1 0 0
vn 0 -1 0
vn 0 -1 0
vn 0 -1 0
vn 0 -1 0
vn 0 0 -1
vn 0 0 -1
vn 0 0 -1
vn 0 0 -1
vn 0 0 1
vn 0 0 1
vn 0 0 1
vn 0 0 1
vn 0 -1 0
vn 0 -1 0
vn 0 0 -1
vn 0 0 -1
vn 0 0 -1
vn 0 0 -1
vn 0 0 1
vn 0 0 1
vn -1 0 0
vn -1 0 0
vn -1 0 0
vn -1 0 0
vn 0 -1 0
vn 0 -1 0
vn 1 0 0
vn 1 0 0
vn 1 0 0
vn 1 0 0
vn 0 -1 0
vn 0 -1 0
vn 0 0 1
vn 0 0 1
vn 0 0 1
vn 0 0 1
vn 0 0 1
vn 0 0 1
vn 0 0 -1
vn 0 0 -1
vn 0 0 -1
vn 0 0 -1
vn 0 0 -1
vn 0 0 -1
vn 0 0 1
vn 0 0 1
vn 0 0 1
vn 0 0 1
vn 0 0 1
vn 0 0 1
vn 0 0 -1
vn 0 0 -1
vn 0 0 -1
vn 0 0 -1
vn 0 0 -1
vn 0 0 -1
vn 0 -1 0
vn 0 0 1
vn 0 0 1
vn 0 0 1
vn 0 0 1
vn 0 0 -1
vn 0 0 -1
vn 0 0 -1
vn 0 0 -1
vn 0 0 -1
vn 0 0 -1
vn 0 0 -1
vn 0 0 -1
vn -1 0 0
vn -1 0 0
vn -1 0 0
vn -1 0 0
vn 1 0 0
vn 1 0 0
vn 1 0 0
vn 1 0 0
vn 1 0 0
vn 1 0 0
vn -1 0 0
vn -1 0 0
vn 0 -1 0
vn 0 -1 0
vn -1 0 0
vn -1 0 0
vn 0 -1 0
vn 1 0 0
vn 1 0 0
vn 0 0 1
vn 0 0 1
vn 0 0 1
vn 0 0 1
vn 0 -1 0
vn 0 -1 0
vn 0 -1 0
vn 0 -1 0
vn 0 0 -1
vn 0 0 -1
vn 0 1 0
vn 0 1 0
vn 0 1 0
vn 0 1 0
vn 0 1 0
vn 0 1 0
vn 0 1 0
vn 0 1 0
vn 0 1 0
vn 0 1 0
vn 0 1 0
vn 0 1 0
vn 0 0.8 -0.6
vn 0 0.8 -0.6
vn 0 0.8 -0.6
vn 0 0.8 -0.6
vn 0 1 0
vn 0 1 0
vn 0 1 0
vn 0 1 0
vn 0.5144957 0.8574929 0
vn 0.5144957 0.8574929 0
vn 0.5144957 0.8574929 0
vn 0.5144957 0.8574929 0
vn 0 1 0
vn 0 1 0
vn 0 1 0
vn 0 1 0
vn 0 1 0
vn 0 1 0
vn 0 1 0
vn 0 1 0
vn 0 1 0
vn 0 1 0
vn 0 1 0
vn 0 1 0
vn 0 1 0
vn 0 1 0
vn 0 1 0
vn 0 1 0
vn 0 1 0
vn 0 1 0
vn 0 1 0
vn 0 1 0
vn 0 1 0
vn 0 1 0
vn 0.6507914 0.7592566 0
vn 0.6507914 0.7592566 0
vn 0.6507914 0.7592566 0
vn 0.6507914 0.7592566 0
vt 2 12
vt -6 12
vt 2 22
vt -6 22
vt 6 12
vt -2 12
vt 6 22
vt -2 22
vt 8 9
vt -4 6
vt -4 12
vt 8 12
vt 4 12
vt -8 9
vt -8 12
vt 4 6
vt 10 8
vt 10 14
vt 16 8
vt 16 14
vt 10 -4
vt 16 -4
vt 8 -2
vt -4 -2
vt -4 2
vt 8 3
vt 4 2
vt -8 -2
vt -8 3.5
vt 4 -2
vt 14 -2
vt 8 -2
vt 8 0
vt 14 0
vt 14 3
vt 14 9
vt -8 9
vt -14 3.5
vt -14 9
vt -8 3.5
vt -14 -2
vt -8 -2
vt -10 0
vt -16 -1
vt -16 0
vt -10 -1
vt -16 -2
vt -10 -2
vt 16 -2
vt 10 -2
vt 10 3.5
vt 16 3.5
vt 10 9
vt 16 9
vt -4 -1
vt -4 0
vt 8 3.5
vt 8 9
vt 8 -2
vt -4 -2
vt 4 -1
vt 4 -2
vt 4 0
vt 0 14
vt 0 8
vt -6 14
vt -6 8
vt 0 -2
vt 0 3
vt 6 -2
vt 6 3
vt 0 3
vt 0 -2
vt -6 3
vt -6 -2
vt -11 14
vt -11 8
vt 6 -2
vt 6 3
vt 11 -2
vt 11 0
vt -11 0
vt -11 -2
vt -8 -2
vt -8 3
vt 4 -2
vt 4 3
vt -6 -4
vt 0 -4
vt 8 3
vt 8 -2
vt -4 3
vt -4 -2
vt 8 -4
vt 6.5 8
vt 8 12
vt 6.5 12
vt 6.5 22
vt 8 22
vt 2 12
vt 2 22
vt -2 22
vt -6.5 12
vt -6.5 22
vt -2 12
vt -8 12
vt -8 22
vt 10 9
vt 6.5 9
vt 6.5 12
vt 10 12
vt 0 9
vt 0 12
vt -8 12
vt -10 6
vt -10 12
vt -8 6
vt 0 12
vt 0 6
vt 6.5 14
vt 6.5 -2
vt 6.5 3.25
vt 6.5 9
vt 0 9
vt -8 2
vt -10 2
vt -8 -2
vt 0 2
vt -8 -2
vt -8 2
vt 0 6
vt -8 6
vt 4 2
vt 4 6
vt 9 2
vt 9 6
vt -4 3
vt -4 2
vt -9 3
vt -9 2
vt -9 2
vt -9 -2
vt 4 -2
vt 9 -2
vt 0 -9
vt 8 -9
vt 9 -2
vt 9 3
vt -6 -9
vt -9 3
vt -9 -2
vt 0 6
vt 0 2
vt -3.5 3
vt -3.5 2
vt 0 -4
vt 0 -9
vt -3.5 -4
vt -3.5 -9
vt 3.5 2
vt 3.5 3
vt -10 -4
vt -10 8
vt -8 -2
vt -8 6
vt 0 8
vt 0 -4
vt -2 6
vt -2 -2
vt -10 14
vt -10 8
vt -16 14
vt -16 8
vt -16 11.8
vt -10 11.8
vt -16 -3.2
vt -10 -3.2
vt 0 8
vt 0 14
vt 6 8
vt 6 14
vt 3.60147 8
vt 3.60147 14
vt 9.432422 8
vt 9.432422 14
vt 0 -4
vt 6 -4
vt -6.5 -2
vt -8 -2
vt -8 6
vt -6.5 6
vt -2 -2
vt -2 6
vt -6.5 8
vt -6.5 6
vt -8 -4
vt -6.5 -2
vt 0 8
vt -6.5 8
vt -6.5 14
vt 0 14
vt -8 -4
vt 0 -4
vt -8 -9
vt 0 -9
vt 0 -9
vt 6 -9
vt -3.904748 -9
vt -3.904748 -4
vt 0.7050239 -9
vt 0.7050239 -4
g submesh0
f 1/1/1 2/2/2 3/3/3
f 2/2/2 4/4/4 3/3/3
f 5/5/5 6/6/6 7/7/7
f 6/6/6 8/8/8 7/7/7
f 9/9/9 10/10/10 11/11/11
f 12/12/12 9/9/9 11/11/11
f 13/13/13 14/14/14 15/15/15
f 13/13/13 16/16/16 14/14/14
f 17/17/17 18/18/18 19/19/19
f 18/18/18 20/20/20 19/19/19
f 17/17/17 19/19/19 21/21/21
f 19/19/19 22/22/22 21/21/21
f 23/23/23 24/24/24 25/25/25
f 26/26/26 23/23/23 25/25/25
f 26/26/26 25/25/25 10/10/10
f 9/9/9 26/26/26 10/10/10
f 27/27/27 28/28/28 29/29/29
f 27/27/27 30/30/30 28/28/28
f 16/16/16 29/29/29 14/14/14
f 16/16/16 27/27/27 29/29/29
f 31/31/31 32/32/32 33/33/33
f 34/34/34 31/31/31 33/33/33
f 35/35/35 26/26/26 9/9/9
f 36/36/36 35/35/35 9/9/9
f 37/37/37 38/38/38 39/39/39
f 37/37/37 40/40/40 38/38/38
f 40/40/40 41/41/41 38/38/38
f 40/40/40 42/42/42 41/41/41
f 43/43/43 44/44/44 45/45/45
f 43/43/43 46/46/46 44/44/44
f 46/46/46 47/47/47 44/44/44
f 46/46/46 48/48/48 47/47/47
f 49/49/49 50/50/50 51/51/51
f 52/52/52 49/49/49 51/51/51
f 52/52/52 51/51/51 53/53/53
f 54/54/54 52/52/52 53/53/53
f 55/55/55 56/56/56 57/57/57
f 58/58/58 57/57/57 56/56/56
f 59/59/59 60/60/60 55/55/55
f 57/57/57 59/59/59 55/55/55
f 61/61/61 42/42/42 40/40/40
f 61/61/61 62/62/62 42/42/42
f 63/63/63 40/40/40 37/37/37
f 40/40/40 63/63/63 61/61/61
f 64/64/64 65/65/65 66/66/66
f 65/65/65 67/67/67 66/66/66
f 68/68/68 69/69/69 70/70/70
f 69/69/69 71/71/71 70/70/70
f 72/72/72 73/73/73 74/74/74
f 73/73/73 75/75/75 74/74/74
f 66/66/66 67/67/67 76/76/76
f 67/67/67 77/77/77 76/76/76
f 78/78/78 79/79/79 80/80/80
f 79/79/79 81/81/81 80/80/80
f 74/74/74 75/75/75 82/82/82
f 75/75/75 83/83/83 82/82/82
f 84/84/84 85/85/85 86/86/86
f 85/85/85 87/87/87 86/86/86
f 67/67/67 65/65/65 88/88/88
f 65/65/65 89/89/89 88/88/88
f 90/90/90 91/91/91 92/92/92
f 91/91/91 93/93/93 92/92/92
f 17/17/17 94/94/94 95/95/95
f 17/17/17 21/21/21 94/94/94
f 95/95/95 89/89/89 65/65/65
f 95/95/95 94/94/94 89/89/89
f 96/96/96 97/97/97 98/98/98
f 99/99/99 96/96/96 98/98/98
f 97/97/97 100/100/100 101/101/101
f 98/98/98 97/97/97 101/101/101
f 102/102/102 103/103/103 104/104/104
f 102/102/102 105/105/105 103/103/103
f 104/104/104 106/106/106 107/107/107
f 104/104/104 103/103/103 106/106/106
f 108/108/108 109/109/109 110/110/110
f 111/111/111 108/108/108 110/110/110
f 109/109/109 112/112/112 113/113/113
f 110/110/110 109/109/109 113/113/113
f 114/114/114 115/115/115 116/116/116
f 114/114/114 117/117/117 115/115/115
f 118/118/118 117/117/117 114/114/114
f 118/118/118 119/119/119 117/117/117
f 18/18/18 95/95/95 120/120/120
f 18/18/18 17/17/17 95/95/95
f 120/120/120 65/65/65 64/64/64
f 120/120/120 95/95/95 65/65/65
f 50/50/50 121/121/121 122/122/122
f 51/51/51 50/50/50 122/122/122
f 121/121/121 73/73/73 72/72/72
f 122/122/122 121/121/121 72/72/72
f 51/51/51 122/122/122 123/123/123
f 53/53/53 51/51/51 123/123/123
f 122/122/122 72/72/72 124/124/124
f 123/123/123 122/122/122 124/124/124
f 125/125/125 48/48/48 126/126/126
f 125/125/125 127/127/127 48/48/48
f 128/128/128 129/129/129 130/130/130
f 128/128/128 68/68/68 129/129/129
f 117/117/117 126/126/126 115/115/115
f 117/117/117 125/125/125 126/126/126
f 131/131/131 130/130/130 132/132/132
f 131/131/131 128/128/128 130/130/130
f 133/133/133 134/134/134 135/135/135
f 134/134/134 136/136/136 135/135/135
f 137/137/137 138/138/138 139/139/139
f 138/138/138 140/140/140 139/139/139
f 25/25/25 24/24/24 141/141/141
f 24/24/24 142/142/142 141/141/141
f 143/143/143 133/133/133 144/144/144
f 133/133/133 135/135/135 144/144/144
f 89/89/89 94/94/94 145/145/145
f 94/94/94 146/146/146 145/145/145
f 86/86/86 87/87/87 147/147/147
f 87/87/87 148/148/148 147/147/147
f 88/88/88 89/89/89 149/149/149
f 89/89/89 145/145/145 149/149/149
f 92/92/92 93/93/93 150/150/150
f 93/93/93 151/151/151 150/150/150
f 152/152/152 153/153/153 154/154/154
f 153/153/153 155/155/155 154/154/154
f 156/156/156 157/157/157 158/158/158
f 157/157/157 159/159/159 158/158/158
f 128/128/128 131/131/131 160/160/160
f 131/131/131 161/161/161 160/160/160
g submesh1
f 162/162/162 163/163/163 164/164/164
f 163/163/163 165/165/165 164/164/164
f 166/166/166 167/167/167 168/168/168
f 167/167/167 169/169/169 168/168/168
f 170/170/170 171/171/171 172/172/172
f 171/171/171 173/173/173 172/172/172
f 174/174/174 175/175/175 176/176/176
f 175/175/175 177/177/177 176/176/176
f 178/178/178 179/179/179 180/180/180
f 179/179/179 181/181/181 180/180/180
f 182/182/182 183/183/183 184/184/184
f 183/183/183 185/185/185 184/184/184
f 178/178/178 180/180/180 186/186/186
f 180/180/180 187/187/187 186/186/186
f 188/188/188 189/189/189 190/190/190
f 191/191/191 188/188/188 190/190/190
f 192/192/192 188/188/188 191/191/191
f 193/193/193 192/192/192 191/191/191
f 194/194/194 195/195/195 165/165/165
f 194/194/194 165/165/165 163/163/163
f 168/168/168 195/195/195 194/194/194
f 166/166/166 168/168/168 194/194/194
f 196/196/196 169/169/169 167/167/167
f 196/196/196 197/197/197 169/169/169
f 197/197/197 196/196/196 164/164/164
f 196/196/196 162/162/162 164/164/164
f 198/198/198 199/199/199 200/200/200
f 201/201/201 198/198/198 200/200/200
f 199/199/199 171/171/171 170/170/170
f 200/200/200 199/199/199 170/170/170
f 202/202/202 203/203/203 204/204/204
f 203/203/203 205/205/205 204/204/204
f 186/186/186 187/187/187 206/206/206
f 187/187/187 207/207/207 206/206/206
f 208/208/208 209/209/209 210/210/210
f 209/209/209 211/211/211 210/210/210
