v -20 3 8
v -10 3 8
v -12 10 8
v -20 10 8
v -12 10 -2
v -20 4 -2
v -20 10 -2
v -10 4 -2
v -20 -3 8
v -10 -3 8
v -20 -3 12
v -10 -3 12
v 5 -1 -2
v 2 -3 -2
v 2 1 -2
v 5 -3 -2
v 5 0 -2
v 2 4 -2
v 5 -1 8
v 5 0 8
v 2 1 8
v 2 4 8
v 2 -3 8
v 5 -3 8
v -20 -3 12
v -10 -3 12
v -10 -1 12
v -20 -1 12
v -10 0 12
v -20 0 12
v -10 1 -2
v -20 -3 -2
v -20 1 -2
v -10 -3 -2
v -10 -1 12
v -10 -3 12
v -10 -3 8
v -10 1 8
v -10 0 12
v -10 3 8
v -20 3 8
v -20 1 8
v -20 0 12
v -20 -1 12
v -20 -3 8
v -20 -3 12
v 5 -3 8
v 5 1 8
v 5 -3 12
v 5 1 12
v -10 1 8
v -10 -3 8
v -10 1 12
v -10 -3 12
v 2 -3 8
v 2 1 8
v 5 -3 8
v 5 1 8
v 2 -3 12
v 2 -3 8
v 5 -3 12
v 5 -3 8
v 2 1 12
v 2 -3 12
v 5 1 12
v 5 -3 12
v 2 4 8
v 2 4 2
v 2 10 2
v 2 10 8
v 2 4 -2
v 2 10 -2
v -20 10 2
v -20 10 8
v -20 4 2
v -20 10 -2
v -20 4 -2
v 5 -3 2
v 2 -3 2
v 5 -3 -2
v 2 -3 -2
v -20 -3 2
v -10 -3 -2
v -10 -3 2
v -20 -3 -2
v 5 -3 2
v 5 -1 2
v 5 -1 8
v 5 -3 -2
v 5 -1 -2
v 5 0 2
v 5 0 8
v 5 0 -2
v -20 1 2
v -20 -3 2
v -20 1 -2
v -20 -3 -2
v -12 14 -2
v -20 14 -2
v -12 18 -2
v -20 18 -2
v -12 14 8
v -20 14 8
v -12 18 8
v -20 18 8
v -20 14 -2
v -20 14 2
v -20 18 -2
v -20 18 2
v -20 14 8
v -20 18 8
v -12 10 8
v -12 10 2
v -12 14 2
v -12 14 8
v -12 18 2
v -12 18 8
v -12 14 -2
v -12 18 -2
v -12 10 2
v -12 10 -2
v -8 10 2
v -8 10 -2
v -8 10 -2
v -8 14 -2
v -12 14 4
v -12 10 4
v -8 14 4
v -8 10 4
v -2 10 2
v -2 10 -2
v -2 10 -2
v -8 14 2
v -8 10 2
v -2 10 2
v -12 14 2
v -12 10 2
v -12 14 4
v -12 10 4
v -12 10 4
v -8 10 4
v -8 10 2
v -8 14 2
v -8 10 4
v -8 14 4
v -6 4 8
v -8 10 8
v 2 10 8
v -6 4 -2
v 2 10 -2
v -6 -3 12
v -6 1 12
v -10 1 12
v -10 1 8
v -6 1 8
v -6 1 -2
v -6 -3 -2
v -6 -3 8
v -6 -3 12
v -6 -3 2
v -6 -3 -2
v -10 7 8
v -10 7 12
v -6 1 12
v -6 1 8
v -6 7 12
v -6 7 8
v -10 7 12
v -6 7 12
v -10 3 8
v -20 3 8
v -10 0 12
v -20 0 12
v 2 1 8
v 2 1 12
v 5 1 8
v 5 1 12
v 5 0 2
v 5 0 -2
v 2 4 -2
v 2 4 2
v 5 0 8
v 2 4 8
v -12 18 -2
v -20 18 -2
v -20 18 2
v -12 18 2
v -20 18 8
v -12 18 8
v -12 14 -2
v -12 14 2
v -8 14 -2
v -8 14 2
v -8 14 -2
v -8 14 2
v -2 10 -2
v -2 10 2
v -8 14 4
v -12 14 4
v -6 1 8
v -6 1 12
v -6 7 8
v -10 7 8
v -10 7 12
v -6 7 12
v 2 10 -2
v -8 10 -2
v -8 10 2
v 2 10 2
v -12 10 -2
v -12 10 2
v -8 10 8
v 2 10 8
v -12 10 8
v -6 1 8
v -10 1 8
v -6 7 8
v -10 7 8
vn 0 0 1
vn 0 0 1
vn 0 0 1
vn 0 0 1
vn 0 0 -1
vn 0 0 -1
vn 0 0 -1
vn 0 0 -1
vn 0 -1 0
vn 0 -1 0
vn 0 -1 0
vn 0 -1 0
vn 0 0 -1
vn 0 0 -1
vn 0 0 -1
vn 0 0 -1
vn 0 0 -1
vn 0 0 -1
vn 0 0 1
vn 0 0 1
vn 0 0 1
vn 0 0 1
vn 0 0 1
vn 0 0 1
vn 0 0 1
vn 0 0 1
vn 0 0 1
vn 0 0 1
vn 0 0 1
vn 0 0 1
vn 0 0 -1
vn 0 0 -1
vn 0 0 -1
vn 0 0 -1
vn 1 0 0
vn 1 0 0
vn 1 0 0
vn 1 0 0
vn 1 0 0
vn 1 0 0
vn -1 0 0
vn -1 0 0
vn -1 0 0
vn -1 0 0
vn -1 0 0
vn -1 0 0
vn 1 0 0
vn 1 0 0
vn 1 0 0
vn 1 0 0
vn -1 0 0
vn -1 0 0
vn -1 0 0
vn -1 0 0
vn 0 0 -1
vn 0 0 -1
vn 0 0 -1
vn 0 0 -1
vn 0 -1 0
vn 0 -1 0
vn 0 -1 0
vn 0 -1 0
vn 0 0 1
vn 0 0 1
vn 0 0 1
vn 0 0 1
vn 1 0 0
vn 1 0 0
vn 1 0 0
vn 1 0 0
vn 1 0 0
vn 1 0 0
vn -1 0 0
vn -1 0 0
vn -1 0 0
vn -1 0 0
vn -1 0 0
vn 0 -1 0
vn 0 -1 0
vn 0 -1 0
vn 0 -1 0
vn 0 -1 0
vn 0 -1 0
vn 0 -1 0
vn 0 -1 0
vn 1 0 0
vn 1 0 0
vn 1 0 0
vn 1 0 0
vn 1 0 0
vn 1 0 0
vn 1 0 0
vn 1 0 0
vn -1 0 0
vn -1 0 0
vn -1 0 0
vn -1 0 0
vn 0 0 -1
vn 0 0 -1
vn 0 0 -1
vn 0 0 -1
vn 0 0 1
vn 0 0 1
vn 0 0 1
vn 0 0 1
vn -1 0 0
vn -1 0 0
vn -1 0 0
vn -1 0 0
vn -1 0 0
vn -1 0 0
vn 1 0 0
vn 1 0 0
vn 1 0 0
vn 1 0 0
vn 1 0 0
vn 1 0 0
vn 1 0 0
vn 1 0 0
vn 0 -1 0
vn 0 -1 0
vn 0 -1 0
vn 0 -1 0
vn 0 0 -1
vn 0 0 -1
vn 0 0 1
vn 0 0 1
vn 0 0 1
vn 0 0 1
vn 0 -1 0
vn 0 -1 0
vn 0 0 -1
vn 0 0 1
vn 0 0 1
vn 0 0 1
vn -1 0 0
vn -1 0 0
vn -1 0 0
vn -1 0 0
vn 0 -1 0
vn 0 -1 0
vn 1 0 0
vn 1 0 0
vn 1 0 0
vn 1 0 0
vn 0 0 1
vn 0 0 1
vn 0 0 1
vn 0 0 -1
vn 0 0 -1
vn 0 0 1
vn 0 0 1
vn 0 0 1
vn 0 0 1
vn 0 0 1
vn 0 0 -1
vn 0 0 -1
vn 0 -1 0
vn 0 -1 0
vn 0 -1 0
vn 0 -1 0
vn -1 0 0
vn -1 0 0
vn 1 0 0
vn 1 0 0
vn 1 0 0
vn 1 0 0
vn 0 0 1
vn 0 0 1
vn 0 0.8 0.6
vn 0 0.8 0.6
vn 0 0.8 0.6
vn 0 0.8 0.6
vn 0 1 0
vn 0 1 0
vn 0 1 0
vn 0 1 0
vn 0.8 0.6 0
vn 0.8 0.6 0
vn 0.8 0.6 0
vn 0.8 0.6 0
vn 0.8 0.6 0
vn 0.8 0.6 0
vn 0 1 0
vn 0 1 0
vn 0 1 0
vn 0 1 0
vn 0 1 0
vn 0 1 0
vn 0 1 0
vn 0 1 0
vn 0 1 0
vn 0 1 0
vn 0.5547002 0.8320503 0
vn 0.5547002 0.8320503 0
vn 0.5547002 0.8320503 0
vn 0.5547002 0.8320503 0
vn 0 1 0
vn 0 1 0
vn 0 1 0
vn 0 1 0
vn 0 1 0
vn 0 1 0
vn 0 1 0
vn 0 1 0
vn 0 1 0
vn 0 1 0
vn 0 1 0
vn 0 1 0
vn 0 1 0
vn 0 1 0
vn 0 1 0
vn 0 1 0
vn 0 1 0
vn 0 0 -1
vn 0 0 -1
vn 0 0 -1
vn 0 0 -1
vt 20 3
vt 10 3
vt 12 10
vt 20 10
vt -12 10
vt -20 4
vt -20 10
vt -10 4
vt 20 8
vt 10 8
vt 20 12
vt 10 12
vt 5 -1
vt 2 -3
vt 2 1
vt 5 -3
vt 5 0
vt 2 4
vt -5 -1
vt -5 0
vt -2 1
vt -2 4
vt -2 -3
vt -5 -3
vt 20 -3
vt 10 -3
vt 10 -1
vt 20 -1
vt 10 0
vt 20 0
vt -10 1
vt -20 -3
vt -20 1
vt -10 -3
vt 12 -1
vt 12 -3
vt 8 -3
vt 8 1
vt 12 0
vt 8 3
vt -8 3
vt -8 1
vt -12 0
vt -12 -1
vt -8 -3
vt -12 -3
vt 8 -3
vt 8 1
vt 12 -3
vt 12 1
vt -8 1
vt -8 -3
vt -12 1
vt -12 -3
vt 2 -3
vt 2 1
vt 5 -3
vt 5 1
vt -2 12
vt -2 8
vt -5 12
vt -5 8
vt -2 1
vt -2 -3
vt -5 1
vt -5 -3
vt 8 4
vt 2 4
vt 2 10
vt 8 10
vt -2 4
vt -2 10
vt -2 10
vt -8 10
vt -2 4
vt 2 10
vt 2 4
vt -5 2
vt -2 2
vt -5 -2
vt -2 -2
vt 20 2
vt 10 -2
vt 10 2
vt 20 -2
vt 2 -3
vt 2 -1
vt 8 -1
vt -2 -3
vt -2 -1
vt 2 0
vt 8 0
vt -2 0
vt -2 1
vt -2 -3
vt 2 1
vt 2 -3
vt -12 14
vt -20 14
vt -12 18
vt -20 18
vt 12 14
vt 20 14
vt 12 18
vt 20 18
vt 2 14
vt -2 14
vt 2 18
vt -2 18
vt -8 14
vt -8 18
vt 8 10
vt 2 10
vt 2 14
vt 8 14
vt 2 18
vt 8 18
vt -2 14
vt -2 18
vt 12 2
vt 12 -2
vt 8 2
vt 8 -2
vt -8 10
vt -8 14
vt 12 14
vt 12 10
vt 8 14
vt 8 10
vt 2 2
vt 2 -2
vt -2 10
vt 8 14
vt 8 10
vt 2 10
vt -2 14
vt -2 10
vt -4 14
vt -4 10
vt 12 4
vt 8 4
vt 2 10
vt 2 14
vt 4 10
vt 4 14
vt 6 4
vt 8 10
vt -2 10
vt -6 4
vt 2 10
vt 6 -3
vt 6 1
vt 10 1
vt 10 1
vt 6 1
vt -6 1
vt -6 -3
vt 6 8
vt 6 12
vt 6 2
vt 6 -2
vt -8 7
vt -12 7
vt 12 1
vt 8 1
vt 12 7
vt 8 7
vt 10 7
vt 6 7
vt -10 4.6
vt -20 4.6
vt -10 9.6
vt -20 9.6
vt 2 8
vt 2 12
vt 5 8
vt 5 12
vt 2 -3
vt -2 -3
vt -2 2
vt 2 2
vt 8 -3
vt 8 2
vt -12 -2
vt -20 -2
vt -20 2
vt -12 2
vt -20 8
vt -12 8
vt -12 -2
vt -12 2
vt -8 -2
vt -8 2
vt -14.4222 -2
vt -14.4222 2
vt -7.211102 -2
vt -7.211102 2
vt -8 4
vt -12 4
vt -6 8
vt -6 12
vt -6 8
vt -10 8
vt -10 12
vt -6 12
vt 2 -2
vt -8 -2
vt -8 2
vt 2 2
vt -12 -2
vt -12 2
vt -8 8
vt 2 8
vt -12 8
vt -6 1
vt -10 1
vt -6 7
vt -10 7
g submesh0
f 1/1/1 2/2/2 3/3/3
f 4/4/4 1/1/1 3/3/3
f 5/5/5 6/6/6 7/7/7
f 5/5/5 8/8/8 6/6/6
f 9/9/9 10/10/10 11/11/11
f 10/10/10 12/12/12 11/11/11
f 13/13/13 14/14/14 15/15/15
f 13/13/13 16/16/16 14/14/14
f 17/17/17 15/15/15 18/18/18
f 15/15/15 17/17/17 13/13/13
f 19/19/19 20/20/20 21/21/21
f 22/22/22 21/21/21 20/20/20
f 23/23/23 24/24/24 19/19/19
f 21/21/21 23/23/23 19/19/19
f 25/25/25 26/26/26 27/27/27
f 28/28/28 25/25/25 27/27/27
f 28/28/28 27/27/27 29/29/29
f 30/30/30 28/28/28 29/29/29
f 31/31/31 32/32/32 33/33/33
f 31/31/31 34/34/34 32/32/32
f 8/8/8 33/33/33 6/6/6
f 8/8/8 31/31/31 33/33/33
f 35/35/35 36/36/36 37/37/37
f 35/35/35 37/37/37 38/38/38
f 35/35/35 38/38/38 39/39/39
f 39/39/39 38/38/38 40/40/40
f 41/41/41 42/42/42 43/43/43
f 43/43/43 42/42/42 44/44/44
f 42/42/42 45/45/45 44/44/44
f 45/45/45 46/46/46 44/44/44
f 47/47/47 48/48/48 49/49/49
f 48/48/48 50/50/50 49/49/49
f 51/51/51 52/52/52 53/53/53
f 52/52/52 54/54/54 53/53/53
f 55/55/55 56/56/56 57/57/57
f 56/56/56 58/58/58 57/57/57
f 59/59/59 60/60/60 61/61/61
f 60/60/60 62/62/62 61/61/61
f 63/63/63 64/64/64 65/65/65
f 64/64/64 66/66/66 65/65/65
f 67/67/67 68/68/68 69/69/69
f 70/70/70 67/67/67 69/69/69
f 68/68/68 71/71/71 72/72/72
f 69/69/69 68/68/68 72/72/72
f 73/73/73 41/41/41 74/74/74
f 73/73/73 75/75/75 41/41/41
f 76/76/76 75/75/75 73/73/73
f 76/76/76 77/77/77 75/75/75
f 60/60/60 78/78/78 62/62/62
f 60/60/60 79/79/79 78/78/78
f 79/79/79 80/80/80 78/78/78
f 79/79/79 81/81/81 80/80/80
f 82/82/82 83/83/83 84/84/84
f 82/82/82 85/85/85 83/83/83
f 9/9/9 84/84/84 10/10/10
f 9/9/9 82/82/82 84/84/84
f 47/47/47 86/86/86 87/87/87
f 88/88/88 47/47/47 87/87/87
f 86/86/86 89/89/89 90/90/90
f 87/87/87 86/86/86 90/90/90
f 88/88/88 87/87/87 91/91/91
f 92/92/92 88/88/88 91/91/91
f 87/87/87 90/90/90 93/93/93
f 91/91/91 87/87/87 93/93/93
f 94/94/94 45/45/45 42/42/42
f 94/94/94 95/95/95 45/45/45
f 96/96/96 95/95/95 94/94/94
f 96/96/96 97/97/97 95/95/95
f 75/75/75 42/42/42 41/41/41
f 75/75/75 94/94/94 42/42/42
f 77/77/77 94/94/94 75/75/75
f 77/77/77 96/96/96 94/94/94
f 98/98/98 7/7/7 99/99/99
f 98/98/98 5/5/5 7/7/7
f 100/100/100 99/99/99 101/101/101
f 100/100/100 98/98/98 99/99/99
f 4/4/4 3/3/3 102/102/102
f 103/103/103 4/4/4 102/102/102
f 103/103/103 102/102/102 104/104/104
f 105/105/105 103/103/103 104/104/104
f 106/106/106 73/73/73 107/107/107
f 106/106/106 76/76/76 73/73/73
f 108/108/108 107/107/107 109/109/109
f 108/108/108 106/106/106 107/107/107
f 107/107/107 74/74/74 110/110/110
f 107/107/107 73/73/73 74/74/74
f 109/109/109 110/110/110 111/111/111
f 109/109/109 107/107/107 110/110/110
f 112/112/112 113/113/113 114/114/114
f 115/115/115 112/112/112 114/114/114
f 115/115/115 114/114/114 116/116/116
f 117/117/117 115/115/115 116/116/116
f 114/114/114 118/118/118 119/119/119
f 116/116/116 114/114/114 119/119/119
f 120/120/120 121/121/121 122/122/122
f 121/121/121 123/123/123 122/122/122
f 5/5/5 98/98/98 124/124/124
f 98/98/98 125/125/125 124/124/124
f 126/126/126 127/127/127 128/128/128
f 127/127/127 129/129/129 128/128/128
f 122/122/122 123/123/123 130/130/130
f 123/123/123 131/131/131 130/130/130
f 124/124/124 125/125/125 132/132/132
f 133/133/133 134/134/134 135/135/135
f 136/136/136 137/137/137 138/138/138
f 137/137/137 139/139/139 138/138/138
f 120/120/120 122/122/122 140/140/140
f 122/122/122 141/141/141 140/140/140
f 142/142/142 143/143/143 144/144/144
f 143/143/143 145/145/145 144/144/144
f 2/2/2 146/146/146 147/147/147
f 3/3/3 2/2/2 147/147/147
f 146/146/146 22/22/22 148/148/148
f 147/147/147 146/146/146 148/148/148
f 124/124/124 8/8/8 5/5/5
f 124/124/124 149/149/149 8/8/8
f 150/150/150 149/149/149 124/124/124
f 150/150/150 18/18/18 149/149/149
f 26/26/26 151/151/151 152/152/152
f 153/153/153 26/26/26 152/152/152
f 151/151/151 64/64/64 63/63/63
f 152/152/152 151/151/151 63/63/63
f 154/154/154 155/155/155 146/146/146
f 2/2/2 154/154/154 146/146/146
f 155/155/155 21/21/21 22/22/22
f 146/146/146 155/155/155 22/22/22
f 156/156/156 34/34/34 31/31/31
f 156/156/156 157/157/157 34/34/34
f 15/15/15 157/157/157 156/156/156
f 15/15/15 14/14/14 157/157/157
f 149/149/149 31/31/31 8/8/8
f 149/149/149 156/156/156 31/31/31
f 18/18/18 156/156/156 149/149/149
f 18/18/18 15/15/15 156/156/156
f 12/12/12 158/158/158 159/159/159
f 12/12/12 10/10/10 158/158/158
f 159/159/159 60/60/60 59/59/59
f 159/159/159 158/158/158 60/60/60
f 160/160/160 81/81/81 79/79/79
f 160/160/160 161/161/161 81/81/81
f 84/84/84 161/161/161 160/160/160
f 84/84/84 83/83/83 161/161/161
f 158/158/158 79/79/79 60/60/60
f 158/158/158 160/160/160 79/79/79
f 10/10/10 160/160/160 158/158/158
f 10/10/10 84/84/84 160/160/160
f 51/51/51 53/53/53 162/162/162
f 53/53/53 163/163/163 162/162/162
f 164/164/164 165/165/165 166/166/166
f 165/165/165 167/167/167 166/166/166
f 153/153/153 152/152/152 168/168/168
f 152/152/152 169/169/169 168/168/168
g submesh1
f 170/170/170 171/171/171 172/172/172
f 171/171/171 173/173/173 172/172/172
f 174/174/174 175/175/175 176/176/176
f 175/175/175 177/177/177 176/176/176
f 178/178/178 179/179/179 180/180/180
f 181/181/181 178/178/178 180/180/180
f 182/182/182 178/178/178 181/181/181
f 183/183/183 182/182/182 181/181/181
f 184/184/184 185/185/185 186/186/186
f 187/187/187 184/184/184 186/186/186
f 187/187/187 186/186/186 188/188/188
f 189/189/189 187/187/187 188/188/188
f 190/190/190 191/191/191 192/192/192
f 191/191/191 193/193/193 192/192/192
f 194/194/194 195/195/195 196/196/196
f 195/195/195 197/197/197 196/196/196
f 193/193/193 191/191/191 198/198/198
f 191/191/191 199/199/199 198/198/198
f 174/174/174 200/200/200 201/201/201
f 175/175/175 174/174/174 201/201/201
f 202/202/202 203/203/203 204/204/204
f 205/205/205 202/202/202 204/204/204
f 206/206/206 207/207/207 208/208/208
f 209/209/209 206/206/206 208/208/208
f 207/207/207 210/210/210 211/211/211
f 208/208/208 207/207/207 211/211/211
f 209/209/209 208/208/208 212/212/212
f 213/213/213 209/209/209 212/212/212
f 208/208/208 211/211/211 214/214/214
f 212/212/212 208/208/208 214/214/214
f 215/215/215 216/216/216 217/217/217
f 216/216/216 218/218/218 217/217/217
