v 0.7499996 -3 0.2499999
v 0.9999996 -3 0.2499998
v 0.7499994 7 0.2499998
v 0.9999994 7 0.2500001
v 0.9999996 -3 0.2499998
v 0.9999995 -3 -2.384186E-07
v 0.9999994 7 0.2500001
v 0.9999998 7 1.489889E-07
v 0.9999995 -3 -2.384186E-07
v 0.7499995 -3 -1.490116E-07
v 0.9999998 7 1.489889E-07
v 0.7499998 7 -2.30991E-07
v -1 -3 4.768372E-07
v -1 -3 0.2500005
v -1 7 9.238474E-07
v -1.000001 7 0.2500009
v 0.7499994 7 0.2499998
v 0.9999994 7 0.2500001
v 0.7499998 7 -2.30991E-07
v 0.9999998 7 1.489889E-07
v 0.7499995 -3 -1.490116E-07
v 0.9999995 -3 -2.384186E-07
v 0.7499996 -3 0.2499999
v 0.9999996 -3 0.2499998
v -0.7500005 -3 3.874302E-07
v -0.7500004 -3 0.2500004
v -1 -3 4.768372E-07
v -1 -3 0.2500005
v -0.7500002 7 1.303827E-06
v -0.7500005 -3 3.874302E-07
v -1 7 9.238474E-07
v -1 -3 4.768372E-07
v -0.7500004 -3 0.2500004
v -0.7500006 7 0.2500013
v -1 -3 0.2500005
v -1.000001 7 0.2500009
v -0.7500006 7 0.2500013
v -0.7500002 7 1.303827E-06
v -1.000001 7 0.2500009
v -1 7 9.238474E-07
v 0.7499996 -3 0.2499999
v 0.7499994 7 0.2499998
v 0.7499995 -3 -1.490116E-07
v 0.7499998 7 -2.30991E-07
v -0.7500006 7 0.2500013
v -0.7500004 -3 0.2500004
v -0.7500002 7 1.303827E-06
v -0.7500005 -3 3.874302E-07
v 0.7499996 -3 0.1249999
v 0.7499986 7 0.1249998
v -0.7500004 -3 0.1250004
v -0.7500014 7 0.1250013
vn 3.576279E-07 8.940705E-09 1
vn -5.960464E-07 -1.490118E-08 1
vn -5.960464E-07 -1.490118E-08 1
vn -1.549721E-06 -3.874306E-08 1
vn 1 2.384187E-08 -4.768372E-07
vn 1 -2.980256E-09 5.960464E-07
vn 1 -2.980256E-09 5.960464E-07
vn 1 -2.980239E-08 1.66893E-06
vn -3.576279E-07 3.874076E-08 -1
vn 5.811456E-07 1.527139E-08 -1
vn 5.811456E-07 1.527139E-08 -1
vn 1.519919E-06 -8.197972E-09 -1
vn -1 2.384184E-08 4.768372E-07
vn -1 2.131628E-14 -4.768372E-07
vn -1 2.131628E-14 -4.768372E-07
vn -1 -2.384179E-08 -1.430511E-06
vn 0 1 0
vn 0 1 0
vn 0 1 0
vn 0 1 0
vn 0 -1 0
vn 0 -1 0
vn 0 -1 0
vn 0 -1 0
vn 0 -1 0
vn 0 -1 0
vn 0 -1 0
vn 0 -1 0
vn 1.519919E-06 9.163968E-08 -1
vn 5.811457E-07 6.817036E-08 -1
vn 5.811457E-07 6.817036E-08 -1
vn -3.576279E-07 4.470104E-08 -1
vn 3.576279E-07 -9.238719E-08 1
vn -5.960464E-07 -6.854535E-08 1
vn -5.960464E-07 -6.854535E-08 1
vn -1.549721E-06 -4.470352E-08 1
vn 0 1 0
vn 0 1 0
vn 0 1 0
vn 0 1 0
vn -1 -2.384185E-08 4.768372E-07
vn -1 -3.552714E-15 -4.768372E-07
vn -1 -3.552714E-15 -4.768372E-07
vn -1 2.384185E-08 -1.430511E-06
vn 1 2.384173E-08 1.430511E-06
vn 1 -4.52971E-14 4.768372E-07
vn 1 -4.52971E-14 4.768372E-07
vn 1 -2.384182E-08 -4.768372E-07
vn 3.576279E-07 8.195673E-09 1
vn 6.87937E-07 -4.135066E-08 1
vn 6.87937E-07 -4.135066E-08 1
vn 1.018246E-06 -9.089698E-08 1
vt -0.7499996 -3
vt -0.9999996 -3
vt -0.7499993 7
vt -0.9999993 7
vt -1.875 -3
vt -2.125 -3
vt -1.874999 7
vt -2.124999 7
vt 0.9999995 -3
vt 0.7499995 -3
vt 0.9999998 7
vt 0.7499998 7
vt 2.125 -3
vt 1.875 -3
vt 2.125 7
vt 1.875 7
vt 0.7499994 -1.875
vt 0.9999994 -1.875
vt 0.7499998 -2.125
vt 0.9999998 -2.125
vt -0.7499995 -2.125
vt -0.9999995 -2.125
vt -0.7499996 -1.875
vt -0.9999996 -1.875
vt 0.7500005 -2.125
vt 0.7500004 -1.875
vt 1 -2.125
vt 1 -1.875
vt -0.7500002 7
vt -0.7500005 -3
vt -1 7
vt -1 -3
vt 0.7500005 -3
vt 0.7500007 7
vt 1 -3
vt 1.000001 7
vt -0.7500006 -1.874999
vt -0.7500002 -2.124999
vt -1.000001 -1.874999
vt -1 -2.124999
vt 1.875 -3
vt 1.875 7
vt 2.125 -3
vt 2.125 7
vt -1.874998 7
vt -1.874999 -3
vt -2.124998 7
vt -2.124999 -3
vt -0.7499995 -3
vt -0.7499986 7
vt 0.7500005 -3
vt 0.7500014 7
g submesh0
f 1/1/1 2/2/2 3/3/3
f 2/2/2 4/4/4 3/3/3
f 5/5/5 6/6/6 7/7/7
f 6/6/6 8/8/8 7/7/7
f 9/9/9 10/10/10 11/11/11
f 10/10/10 12/12/12 11/11/11
f 13/13/13 14/14/14 15/15/15
f 14/14/14 16/16/16 15/15/15
f 17/17/17 18/18/18 19/19/19
f 18/18/18 20/20/20 19/19/19
f 21/21/21 22/22/22 23/23/23
f 22/22/22 24/24/24 23/23/23
f 25/25/25 26/26/26 27/27/27
f 26/26/26 28/28/28 27/27/27
f 29/29/29 30/30/30 31/31/31
f 30/30/30 32/32/32 31/31/31
f 33/33/33 34/34/34 35/35/35
f 34/34/34 36/36/36 35/35/35
f 37/37/37 38/38/38 39/39/39
f 38/38/38 40/40/40 39/39/39
f 41/41/41 42/42/42 43/43/43
f 42/42/42 44/44/44 43/43/43
f 45/45/45 46/46/46 47/47/47
f 46/46/46 48/48/48 47/47/47
g submesh1
f 49/49/49 50/50/50 51/51/51
f 50/50/50 52/52/52 51/51/51
