v 0.7499996 -3 0.2499999
v 0.9999996 -3 0.2499998
v 0.7499997 5 0.25
v 0.9999997 5 0.2499996
v 0.9999996 -3 0.2499998
v 0.9999995 -3 -2.384186E-07
v 0.9999997 5 0.2499996
v 1 5 -3.576279E-07
v 0.9999995 -3 -2.384186E-07
v 0.7499995 -3 -1.490116E-07
v 1 5 -3.576279E-07
v 0.7500002 5 2.980232E-08
v -1 -3 4.768372E-07
v -1 -3 0.2500005
v -1.000001 5 8.344774E-07
v -1 5 0.2500008
v 0.7499997 5 0.25
v 0.9999997 5 0.2499996
v 0.7500002 5 2.980232E-08
v 1 5 -3.576279E-07
v 0.7499995 -3 -1.490116E-07
v 0.9999995 -3 -2.384186E-07
v 0.7499996 -3 0.2499999
v 0.9999996 -3 0.2499998
v -0.7500005 -3 3.874302E-07
v -0.7500004 -3 0.2500004
v -1 -3 4.768372E-07
v -1 -3 0.2500005
v -0.7500007 5 4.470472E-07
v -0.7500005 -3 3.874302E-07
v -1.000001 5 8.344774E-07
v -1 -3 4.768372E-07
v -0.7500004 -3 0.2500004
v -0.7500004 5 0.2500004
v -1 -3 0.2500005
v -1 5 0.2500008
v -0.7500004 5 0.2500004
v -0.7500007 5 4.470472E-07
v -1 5 0.2500008
v -1.000001 5 8.344774E-07
v 0.7499996 -3 0.2499999
v 0.7499997 5 0.25
v 0.7499995 -3 -1.490116E-07
v 0.7500002 5 2.980232E-08
v -0.7500004 5 0.2500004
v -0.7500004 -3 0.2500004
v -0.7500007 5 4.470472E-07
v -0.7500005 -3 3.874302E-07
v 0.7499996 -3 0.1249999
v 0.7499999 5 0.125
v -0.7500004 -3 0.1250004
v -0.7500001 5 0.1250004
vn 3.576279E-07 -2.235175E-08 1
vn 9.536743E-07 -3.725298E-09 1
vn 9.536743E-07 -3.725298E-09 1
vn 1.549721E-06 1.490115E-08 1
vn 1 -7.450588E-09 -4.768372E-07
vn 1 -4.842876E-08 8.34465E-07
vn 1 -4.842876E-08 8.34465E-07
vn 1 -8.940694E-08 2.145767E-06
vn -3.576279E-07 -1.490113E-08 -1
vn -9.536743E-07 3.725376E-09 -1
vn -9.536743E-07 3.725376E-09 -1
vn -1.549721E-06 2.235188E-08 -1
vn -1 -2.980234E-08 4.768372E-07
vn -1 -1.49012E-08 9.536743E-07
vn -1 -1.49012E-08 9.536743E-07
vn -1 -6.394885E-14 1.430511E-06
vn 0 1 0
vn 0 1 0
vn 0 1 0
vn 0 1 0
vn 0 -1 0
vn 0 -1 0
vn 0 -1 0
vn 0 -1 0
vn 0 -1 0
vn 0 -1 0
vn 0 -1 0
vn 0 -1 0
vn -1.549721E-06 7.452083E-09 -1
vn -9.536743E-07 2.607855E-08 -1
vn -9.536743E-07 2.607855E-08 -1
vn -3.576279E-07 4.470502E-08 -1
vn 3.576279E-07 -7.450581E-09 1
vn 9.536743E-07 -2.607703E-08 1
vn 9.536743E-07 -2.607703E-08 1
vn 1.549721E-06 -4.470348E-08 1
vn 0 1 0
vn 0 1 0
vn 0 1 0
vn 0 1 0
vn -1 7.45057E-09 4.768372E-07
vn -1 4.84288E-08 -8.34465E-07
vn -1 4.84288E-08 -8.34465E-07
vn -1 8.940702E-08 -2.145767E-06
vn 1 1.065814E-14 -1.430511E-06
vn 1 1.490117E-08 -9.536743E-07
vn 1 1.490117E-08 -9.536743E-07
vn 1 2.980233E-08 -4.768372E-07
vn 3.576279E-07 -2.235176E-08 1
vn 3.178914E-07 -1.490118E-08 1
vn 3.178914E-07 -1.490118E-08 1
vn 2.78155E-07 -7.450593E-09 1
vt -0.7499996 -3
vt -0.9999996 -3
vt -0.7499996 5
vt -0.9999996 5
vt -1.875 -3
vt -2.125 -3
vt -1.875 5
vt -2.125 5
vt 0.9999995 -3
vt 0.7499995 -3
vt 1 5
vt 0.7500002 5
vt 2.125 -3
vt 1.875 -3
vt 2.125 5
vt 1.875 5
vt 0.7499997 -1.875
vt 0.9999997 -1.875
vt 0.7500002 -2.125
vt 1 -2.125
vt -0.7499995 -2.125
vt -0.9999995 -2.125
vt -0.7499996 -1.875
vt -0.9999996 -1.875
vt 0.7500005 -2.125
vt 0.7500004 -1.875
vt 1 -2.125
vt 1 -1.875
vt -0.7500007 5
vt -0.7500005 -3
vt -1.000001 5
vt -1 -3
vt 0.7500005 -3
vt 0.7500005 5
vt 1 -3
vt 1 5
vt -0.7500004 -1.875
vt -0.7500007 -2.125
vt -1 -1.874999
vt -1.000001 -2.124999
vt 1.875 -3
vt 1.875 5
vt 2.125 -3
vt 2.125 5
vt -1.875001 5
vt -1.875001 -3
vt -2.125001 5
vt -2.125001 -3
vt -0.7499995 -3
vt -0.7499999 5
vt 0.7500005 -3
vt 0.7500001 5
g submesh0
f 1/1/1 2/2/2 3/3/3
f 2/2/2 4/4/4 3/3/3
f 5/5/5 6/6/6 7/7/7
f 6/6/6 8/8/8 7/7/7
f 9/9/9 10/10/10 11/11/11
f 10/10/10 12/12/12 11/11/11
f 13/13/13 14/14/14 15/15/15
f 14/14/14 16/16/16 15/15/15
f 17/17/17 18/18/18 19/19/19
f 18/18/18 20/20/20 19/19/19
f 21/21/21 22/22/22 23/23/23
f 22/22/22 24/24/24 23/23/23
f 25/25/25 26/26/26 27/27/27
f 26/26/26 28/28/28 27/27/27
f 29/29/29 30/30/30 31/31/31
f 30/30/30 32/32/32 31/31/31
f 33/33/33 34/34/34 35/35/35
f 34/34/34 36/36/36 35/35/35
f 37/37/37 38/38/38 39/39/39
f 38/38/38 40/40/40 39/39/39
f 41/41/41 42/42/42 43/43/43
f 42/42/42 44/44/44 43/43/43
f 45/45/45 46/46/46 47/47/47
f 46/46/46 48/48/48 47/47/47
g submesh1
f 49/49/49 50/50/50 51/51/51
f 50/50/50 52/52/52 51/51/51
