v 1 -12.25 -0.001139462
v 1 12.25 0.001141042
v 0.7071068 -12.25008 0.7059672
v 0.7071068 12.24992 0.7082477
v 0.7071068 -12.25008 0.7059672
v 0.7071068 12.24992 0.7082477
v 0 -12.25012 0.9988598
v 0 12.24989 1.00114
v 0 -12.25012 0.9988598
v 0 12.24989 1.00114
v -0.7071068 -12.25008 0.7059672
v -0.7071068 12.24992 0.7082477
v -0.7071068 -12.25008 0.7059672
v -0.7071068 12.24992 0.7082477
v -1 -12.25 -0.001139462
v -1 12.25 0.001141042
v -1 -12.25 -0.001139462
v -1 12.25 0.001141042
v -0.7071068 -12.24992 -0.7082471
v -0.7071068 12.25008 -0.7059665
v -0.7071068 -12.24992 -0.7082471
v -0.7071068 12.25008 -0.7059665
v 0 -12.24989 -1.001141
v 0 12.25012 -0.99886
v 0 -12.24989 -1.001141
v 0 12.25012 -0.99886
v 0.7071066 -12.24992 -0.7082471
v 0.7071066 12.25008 -0.7059675
v 0.7071066 -12.24992 -0.7082471
v 0.7071066 12.25008 -0.7059675
v 1 -12.25 -0.001139462
v 1 12.25 0.001141042
v 0.7071068 -12.25008 0.7059672
v 0 -12.25 -0.001139462
v 1 -12.25 -0.001139462
v 0 -12.25012 0.9988598
v -0.7071068 -12.25008 0.7059672
v -1 -12.25 -0.001139462
v -0.7071068 -12.24992 -0.7082471
v 0 -12.24989 -1.001141
v 0.7071066 -12.24992 -0.7082471
v 1 12.25 0.001141042
v 0 12.25 0.001141042
v 0.7071068 12.24992 0.7082477
v 0 12.24989 1.00114
v -0.7071068 12.24992 0.7082477
v -1 12.25 0.001141042
v -0.7071068 12.25008 -0.7059665
v 0 12.25012 -0.99886
v 0.7071066 12.25008 -0.7059675
vn 1 -3.803837E-09 2.741913E-07
vn 1 3.406127E-10 3.870936E-07
vn 0.7071065 -6.581804E-05 0.7071071
vn 0.7071064 -6.58167E-05 0.7071071
vn 0.7071065 -6.581804E-05 0.7071071
vn 0.7071064 -6.58167E-05 0.7071071
vn -3.225779E-08 -9.307691E-05 1
vn -3.225779E-08 -9.307691E-05 1
vn -3.225779E-08 -9.307691E-05 1
vn -3.225779E-08 -9.307691E-05 1
vn -0.7071065 -6.58167E-05 0.7071071
vn -0.7071064 -6.581817E-05 0.7071071
vn -0.7071065 -6.58167E-05 0.7071071
vn -0.7071064 -6.581817E-05 0.7071071
vn -1 -2.165746E-11 2.258046E-07
vn -1 -1.476645E-10 2.419335E-07
vn -1 -2.165746E-11 2.258046E-07
vn -1 -1.476645E-10 2.419335E-07
vn -0.7071071 6.581945E-05 -0.7071065
vn -0.7071071 6.582019E-05 -0.7071065
vn -0.7071071 6.581945E-05 -0.7071065
vn -0.7071071 6.582019E-05 -0.7071065
vn 8.064452E-08 9.30848E-05 -1
vn -2.258046E-07 9.307508E-05 -1
vn 8.064452E-08 9.30848E-05 -1
vn -2.258046E-07 9.307508E-05 -1
vn 0.7071068 6.580242E-05 -0.7071068
vn 0.7071066 6.579611E-05 -0.7071069
vn 0.7071068 6.580242E-05 -0.7071068
vn 0.7071066 6.579611E-05 -0.7071069
vn 1 -3.803837E-09 2.741913E-07
vn 1 3.406127E-10 3.870936E-07
vn 0 -1 -0.0001132907
vn 0 -1 -0.0001132907
vn 0 -1 -0.0001132907
vn 1.965913E-07 -1 -0.0001134873
vn -1.965913E-07 -1 -0.0001134873
vn 0 -1 -0.0001132907
vn 0 -1 -0.0001146393
vn -1.985037E-07 -1 -0.0001144408
vn 1.985065E-07 -1 -0.0001144408
vn 0 1 0.0001146394
vn 0 1 0.0001146394
vn 0 1 0.0001146394
vn 1.984221E-07 1 0.000114441
vn -1.984221E-07 1 0.000114441
vn 0 1 0.0001146394
vn 0 1 0.0001132906
vn -1.965251E-07 1 0.0001134871
vn 1.966782E-07 1 0.0001134871
vt -0.3837362 -12.24997
vt -0.3816293 12.25004
vt 0.3816306 -12.25005
vt 0.3837375 12.24995
vt -0.3831202 -12.25
vt -0.3822475 12.25
vt 0.3822464 -12.25004
vt 0.383119 12.24997
vt -0.3822463 -12.25004
vt -0.383119 12.24997
vt 0.3831203 -12.25
vt 0.3822476 12.25
vt -0.3816307 -12.25005
vt -0.3837376 12.24995
vt 0.3837361 -12.24997
vt 0.3816292 12.25004
vt -0.3816303 -12.25004
vt -0.3837372 12.24997
vt 0.3837374 -12.24995
vt 0.3816304 12.25005
vt -0.3822468 -12.25
vt -0.3831195 12.25
vt 0.3831202 -12.24997
vt 0.3822475 12.25004
vt -0.3831204 -12.24997
vt -0.3822476 12.25004
vt 0.3822465 -12.25
vt 0.3831189 12.25
vt -0.3837372 -12.24995
vt -0.3816311 12.25005
vt 0.3816305 -12.25004
vt 0.3837374 12.24997
vt -0.7071068 0.7073551
vt 0 0.0002483499
vt -1 0.0002483499
vt 2.408266E-06 1.00025
vt 0.7071044 0.7073575
vt 1 0.0002483499
vt 0.7071068 -0.7068427
vt -2.431648E-06 -0.9997387
vt -0.7071042 -0.7068452
vt 1 -0.0002632918
vt 0 -0.0002632918
vt 0.7071068 0.7068434
vt -2.430648E-06 0.9997382
vt -0.7071044 0.7068458
vt -1 -0.0002632918
vt -0.7071068 -0.7073544
vt 2.407455E-06 -1.00025
vt 0.7071043 -0.7073577
g submesh0
f 1/1/1 2/2/2 3/3/3
f 2/2/2 4/4/4 3/3/3
f 5/5/5 6/6/6 7/7/7
f 6/6/6 8/8/8 7/7/7
f 9/9/9 10/10/10 11/11/11
f 10/10/10 12/12/12 11/11/11
f 13/13/13 14/14/14 15/15/15
f 14/14/14 16/16/16 15/15/15
f 17/17/17 18/18/18 19/19/19
f 18/18/18 20/20/20 19/19/19
f 21/21/21 22/22/22 23/23/23
f 22/22/22 24/24/24 23/23/23
f 25/25/25 26/26/26 27/27/27
f 26/26/26 28/28/28 27/27/27
f 29/29/29 30/30/30 31/31/31
f 30/30/30 32/32/32 31/31/31
f 33/33/33 34/34/34 35/35/35
f 36/36/36 34/34/34 33/33/33
f 37/37/37 34/34/34 36/36/36
f 38/38/38 34/34/34 37/37/37
f 39/39/39 34/34/34 38/38/38
f 40/40/40 34/34/34 39/39/39
f 41/41/41 34/34/34 40/40/40
f 35/35/35 34/34/34 41/41/41
f 42/42/42 43/43/43 44/44/44
f 44/44/44 43/43/43 45/45/45
f 45/45/45 43/43/43 46/46/46
f 46/46/46 43/43/43 47/47/47
f 47/47/47 43/43/43 48/48/48
f 48/48/48 43/43/43 49/49/49
f 49/49/49 43/43/43 50/50/50
f 50/50/50 43/43/43 42/42/42
