v -6 -4 3
v 2 -4 3
v -6 0 3
v 2 0 3
v 2 -4 -18
v -6 -4 -18
v 2 4 -18
v -6 6 -18
v -6 -4 0
v 2 -4 0
v -6 -4 3
v 2 -4 3
v -6 4 0
v -6 -4 0
v -6 0 3
v -6 -4 3
v 2 -4 0
v 2 4 0
v 2 -4 3
v 2 0 3
v 2 4 0
v -6 4 0
v 2 0 3
v -6 0 3
v -6 4 0
v 2 4 0
v -6 8 0
v 2 8 0
v 2 8 -18
v -6 8 -18
v 2 -4 -14
v 2 4 -14
v 2 -4 -18
v 2 4 -18
v -20 6 -18
v -20 -4 -14
v -20 6 -14
v -20 -4 -18
v -6 4 -14
v -6 -4 -14
v 2 8 -14
v -6 8 -14
v -6 8 0
v 2 8 0
v 2 8 -18
v -6 8 -18
v -6 -4 -14
v 2 -4 -18
v 2 -4 -14
v -6 -4 -18
v -20 8 -18
v -20 8 -14
v -6 8 -14
v -6 8 0
v 2 8 -14
v 2 8 0
v 2 8 -18
v -16 6 -14
v -6 4 -14
v -6 8 -14
v -16 8 -14
v -20 6 0
v -16 6 0
v -16 8 0
v -20 8 0
v -16 8 -18
v -16 8 -14
v -20 8 -18
v -20 8 -14
v -16 6 -18
v -16 8 -18
v -20 6 -18
v -20 8 -18
v -16 -4 -18
v -20 -4 -18
v -16 -4 -14
v -6 -4 -14
v -20 -4 0
v -16 -4 0
v -16 -4 -14
v -16 -4 -18
v -20 -4 -14
v -20 -4 -18
v -16 6 -4
v -16 6 -14
v -16 8 -14
v -16 8 -4
v -6 6 0
v -6 6 -4
v -6 8 -4
v -6 8 0
v -20 6 -4
v -20 8 -4
v -20 6 0
v -20 8 0
v -20 8 -4
v -16 8 -4
v -20 8 0
v -16 8 0
v -20 -4 -4
v -16 -4 -4
v -20 -4 0
v -16 -4 0
v -6 -4 0
v -6 -4 -4
v -20 -4 0
v -20 -4 -4
v -16 6 -4
v -16 8 -4
v -6 6 -4
v -6 8 -4
v -6 6 0
v -6 8 -4
v -6 -4 -4
v -20 -4 -4
v -20 6 -4
v -16 -4 -4
v -20 6 -4
v -20 6 -14
v -16 6 -4
v -16 6 -14
v -20 6 -14
v -20 -4 -14
v -20 -4 -14
v -20 -4 -4
v -16 -4 -14
v -16 -4 -4
v -16 6 0
v -16 -4 0
v -16 -4 -4
v -6 6 0
v -16 6 0
v -6 6 -4
v -16 -4 0
v -6 -4 0
v -6 -4 -4
v -6 6 0
v -6 -4 -4
v -6 6 -4
vn 0 0 1
vn 0 0 1
vn 0 0 1
vn 0 0 1
vn 0 0 -1
vn 0 0 -1
vn 0 0 -1
vn 0 0 -1
vn 0 -1 0
vn 0 -1 0
vn 0 -1 0
vn 0 -1 0
vn -1 0 0
vn -1 0 0
vn -1 0 0
vn -1 0 0
vn 1 0 0
vn 1 0 0
vn 1 0 0
vn 1 0 0
vn 0 0.6 0.8
vn 0 0.6 0.8
vn 0 0.6 0.8
vn 0 0.6 0.8
vn 0 0 1
vn 0 0 1
vn 0 0 1
vn 0 0 1
vn 0 0 -1
vn 0 0 -1
vn 1 0 0
vn 1 0 0
vn 1 0 0
vn 1 0 0
vn -1 0 0
vn -1 0 0
vn -1 0 0
vn -1 0 0
vn -1 0 0
vn -1 0 0
vn 0 1 0
vn 0 1 0
vn 0 1 0
vn 0 1 0
vn 0 1 0
vn 0 1 0
vn 0 -1 0
vn 0 -1 0
vn 0 -1 0
vn 0 -1 0
vn -1 0 0
vn -1 0 0
vn -1 0 0
vn -1 0 0
vn 1 0 0
vn 1 0 0
vn 1 0 0
vn 0 0 1
vn 0 0 1
vn 0 0 1
vn 0 0 1
vn 0 0 1
vn 0 0 1
vn 0 0 1
vn 0 0 1
vn 0 1 0
vn 0 1 0
vn 0 1 0
vn 0 1 0
vn 0 0 -1
vn 0 0 -1
vn 0 0 -1
vn 0 0 -1
vn 0 0 -1
vn 0 0 -1
vn 0 0 1
vn 0 0 1
vn 0 0 1
vn 0 0 1
vn 0 -1 0
vn 0 -1 0
vn 0 -1 0
vn 0 -1 0
vn 1 0 0
vn 1 0 0
vn 1 0 0
vn 1 0 0
vn 1 0 0
vn 1 0 0
vn 1 0 0
vn 1 0 0
vn -1 0 0
vn -1 0 0
vn -1 0 0
vn -1 0 0
vn 0 1 0
vn 0 1 0
vn 0 1 0
vn 0 1 0
vn 0 -1 0
vn 0 -1 0
vn 0 -1 0
vn 0 -1 0
vn 1 0 0
vn 1 0 0
vn -1 0 0
vn -1 0 0
vn 0 0 -1
vn 0 0 -1
vn 0 0 -1
vn 0 0 -1
vn 0 0 1
vn 0 1 0
vn 0 -1 0
vn 0 0 -1
vn 0 0 -1
vn 0 0 -1
vn 0 -1 0
vn 0 -1 0
vn 0 -1 0
vn 0 -1 0
vn 0 0 1
vn 0 0 1
vn 0 1 0
vn 0 1 0
vn 0 1 0
vn 0 1 0
vn 1 0 0
vn 1 0 0
vn 1 0 0
vn 0 -1 0
vn 0 -1 0
vn 0 -1 0
vn 0 1 0
vn 0 1 0
vn 0 1 0
vn -1 0 0
vn -1 0 0
vn -1 0 0
vt 6 -4
vt -2 -4
vt 6 0
vt -2 0
vt 2 -4
vt -6 -4
vt 2 4
vt -6 6
vt 6 0
vt -2 0
vt 6 3
vt -2 3
vt 0 4
vt 0 -4
vt -3 0
vt -3 -4
vt 0 -4
vt 0 4
vt 3 -4
vt 3 0
vt -2 3.2
vt 6 3.2
vt -2 -1.8
vt 6 -1.8
vt 6 4
vt -2 4
vt 6 8
vt -2 8
vt 2 8
vt -6 8
vt -14 -4
vt -14 4
vt -18 -4
vt -18 4
vt 18 6
vt 14 -4
vt 14 6
vt 18 -4
vt 14 4
vt 14 -4
vt 2 -14
vt -6 -14
vt -6 0
vt 2 0
vt 2 -18
vt -6 -18
vt 6 -14
vt -2 -18
vt -2 -14
vt 6 -18
vt 18 8
vt 14 8
vt 14 8
vt 0 8
vt -14 8
vt 0 8
vt -18 8
vt 16 6
vt 6 4
vt 6 8
vt 16 8
vt 20 6
vt 16 6
vt 16 8
vt 20 8
vt -16 -18
vt -16 -14
vt -20 -18
vt -20 -14
vt -16 6
vt -16 8
vt -20 6
vt -20 8
vt -16 -4
vt -20 -4
vt 16 -4
vt 6 -4
vt 20 -4
vt 16 -4
vt 16 -14
vt 16 -18
vt 20 -14
vt 20 -18
vt -4 6
vt -14 6
vt -14 8
vt -4 8
vt 0 6
vt -4 6
vt -4 8
vt 0 8
vt 4 6
vt 4 8
vt 0 6
vt 0 8
vt -20 -4
vt -16 -4
vt -20 0
vt -16 0
vt 20 -4
vt 16 -4
vt 20 0
vt 16 0
vt 0 -4
vt -4 -4
vt 0 -4
vt 4 -4
vt -16 6
vt -16 8
vt -6 6
vt -6 8
vt 6 6
vt -6 -4
vt 6 -4
vt -20 -4
vt -20 6
vt -16 -4
vt 20 -4
vt 20 -14
vt 16 -4
vt 16 -14
vt 20 6
vt 20 -4
vt -20 -14
vt -20 -4
vt -16 -14
vt -16 -4
vt 0 6
vt 0 -4
vt -4 -4
vt 6 0
vt 16 0
vt 6 -4
vt -16 0
vt -6 0
vt -6 -4
vt 0 6
vt 4 -4
vt 4 6
g submesh0
f 1/1/1 2/2/2 3/3/3
f 2/2/2 4/4/4 3/3/3
f 5/5/5 6/6/6 7/7/7
f 6/6/6 8/8/8 7/7/7
f 9/9/9 10/10/10 11/11/11
f 10/10/10 12/12/12 11/11/11
f 13/13/13 14/14/14 15/15/15
f 14/14/14 16/16/16 15/15/15
f 17/17/17 18/18/18 19/19/19
f 18/18/18 20/20/20 19/19/19
f 21/21/21 22/22/22 23/23/23
f 22/22/22 24/24/24 23/23/23
f 25/25/25 26/26/26 27/27/27
f 26/26/26 28/28/28 27/27/27
f 7/7/7 8/8/8 29/29/29
f 8/8/8 30/30/30 29/29/29
f 17/17/17 31/31/31 32/32/32
f 18/18/18 17/17/17 32/32/32
f 31/31/31 33/33/33 34/34/34
f 32/32/32 31/31/31 34/34/34
f 35/35/35 36/36/36 37/37/37
f 35/35/35 38/38/38 36/36/36
f 39/39/39 14/14/14 13/13/13
f 39/39/39 40/40/40 14/14/14
f 41/41/41 42/42/42 43/43/43
f 44/44/44 41/41/41 43/43/43
f 45/45/45 46/46/46 42/42/42
f 41/41/41 45/45/45 42/42/42
f 47/47/47 48/48/48 49/49/49
f 47/47/47 50/50/50 48/48/48
f 9/9/9 49/49/49 10/10/10
f 9/9/9 47/47/47 49/49/49
f 51/51/51 37/37/37 52/52/52
f 51/51/51 35/35/35 37/37/37
f 53/53/53 13/13/13 54/54/54
f 53/53/53 39/39/39 13/13/13
f 18/18/18 32/32/32 55/55/55
f 56/56/56 18/18/18 55/55/55
f 32/32/32 34/34/34 57/57/57
f 55/55/55 32/32/32 57/57/57
f 58/58/58 59/59/59 60/60/60
f 61/61/61 58/58/58 60/60/60
f 62/62/62 63/63/63 64/64/64
f 65/65/65 62/62/62 64/64/64
f 46/46/46 66/66/66 67/67/67
f 42/42/42 46/46/46 67/67/67
f 66/66/66 68/68/68 69/69/69
f 67/67/67 66/66/66 69/69/69
f 30/30/30 70/70/70 71/71/71
f 30/30/30 8/8/8 70/70/70
f 71/71/71 72/72/72 73/73/73
f 71/71/71 70/70/70 72/72/72
f 8/8/8 74/74/74 70/70/70
f 8/8/8 6/6/6 74/74/74
f 70/70/70 75/75/75 72/72/72
f 70/70/70 74/74/74 75/75/75
f 76/76/76 77/77/77 59/59/59
f 58/58/58 76/76/76 59/59/59
f 78/78/78 79/79/79 63/63/63
f 62/62/62 78/78/78 63/63/63
f 80/80/80 50/50/50 47/47/47
f 80/80/80 81/81/81 50/50/50
f 82/82/82 81/81/81 80/80/80
f 82/82/82 83/83/83 81/81/81
f 84/84/84 85/85/85 86/86/86
f 87/87/87 84/84/84 86/86/86
f 88/88/88 89/89/89 90/90/90
f 91/91/91 88/88/88 90/90/90
f 52/52/52 92/92/92 93/93/93
f 52/52/52 37/37/37 92/92/92
f 93/93/93 94/94/94 95/95/95
f 93/93/93 92/92/92 94/94/94
f 67/67/67 69/69/69 96/96/96
f 97/97/97 67/67/67 96/96/96
f 97/97/97 96/96/96 98/98/98
f 99/99/99 97/97/97 98/98/98
f 100/100/100 80/80/80 101/101/101
f 100/100/100 82/82/82 80/80/80
f 102/102/102 101/101/101 103/103/103
f 102/102/102 100/100/100 101/101/101
f 104/104/104 105/105/105 89/89/89
f 88/88/88 104/104/104 89/89/89
f 92/92/92 106/106/106 94/94/94
f 92/92/92 107/107/107 106/106/106
f 108/108/108 109/109/109 110/110/110
f 109/109/109 111/111/111 110/110/110
f 64/64/64 63/63/63 27/27/27
f 63/63/63 112/112/112 27/27/27
f 97/97/97 99/99/99 113/113/113
f 99/99/99 43/43/43 113/113/113
f 103/103/103 101/101/101 9/9/9
f 101/101/101 114/114/114 9/9/9
f 115/115/115 116/116/116 117/117/117
f 116/116/116 108/108/108 117/117/117
f 118/118/118 119/119/119 120/120/120
f 119/119/119 121/121/121 120/120/120
f 122/122/122 123/123/123 58/58/58
f 123/123/123 76/76/76 58/58/58
f 124/124/124 125/125/125 126/126/126
f 125/125/125 127/127/127 126/126/126
f 128/128/128 129/129/129 84/84/84
f 129/129/129 130/130/130 84/84/84
f 131/131/131 132/132/132 133/133/133
f 132/132/132 120/120/120 133/133/133
f 134/134/134 135/135/135 127/127/127
f 135/135/135 136/136/136 127/127/127
f 14/14/14 137/137/137 138/138/138
f 137/137/137 139/139/139 138/138/138
