v -2 0 -4
v 0 0 -4
v 0 2 -4
v -2 2 -4
v -4 0 -4
v -4 2 -4
v -15 2 -2
v -15 0 0
v -15 2 0
v -15 0 -2
v -15 2 -4
v -15 0 -4
v -4 0 -2
v -4 0 -4
v -4 2 -4
v -4 2 -2
v -4 0 0
v -4 2 0
v -15 0 0
v -12.5 0 0
v -12.5 2 0
v -15 2 0
v -12.5 2 -15
v -15 0 -15
v -15 2 -15
v -12.5 0 -15
v -12.5 2 -4
v -15 2 -4
v -15 2 -2
v -12.5 2 -2
v -15 2 0
v -12.5 2 0
v -15 0 -2
v -12.5 0 -4
v -12.5 0 -2
v -15 0 -4
v -15 0 0
v -12.5 0 0
v 0 0 -4
v 0 0 -9
v 0 2 -9
v 0 2 -4
v 0 0 -15
v 0 2 -15
v -15 2 -9
v -15 0 -9
v -15 2 -15
v -15 0 -15
v 0 2 -15
v -2 2 -15
v -2 2 -9
v 0 2 -9
v -2 2 -4
v 0 2 -4
v -2.5 2 -15
v -4 2 -9
v -4 2 -4
v -2 0 -9
v 0 0 -15
v 0 0 -9
v -2 0 -15
v -2 0 -4
v 0 0 -4
v -4 0 -9
v -2.5 0 -15
v -4 0 -4
v -12.5 2 -15
v -15 2 -15
v -15 2 -9
v -12.5 2 -9
v -15 0 -9
v -12.5 0 -15
v -12.5 0 -9
v -15 0 -15
v 0 2 -15
v -2 0 -15
v -2 2 -15
v -2.5 0 -15
v -2.5 2 -15
v 0 0 -15
v -7 0 0
v -7 2 0
v -4 0 0
v -4 2 0
v -7 2 -15
v -7 0 -15
v -2.5 -12 -37.5
v -7 -14 -37.5
v -7 -12 -37.5
v -2.5 -14 -37.5
v -7 2 -4
v -7 2 -2
v -4 2 -2
v -7 2 0
v -4 2 0
v -7 0 -2
v -4 0 -2
v -7 0 -4
v -7 0 0
v -4 0 0
v -7 2 -15
v -7 2 -9
v -7 0 -9
v -7 0 -15
v -7 2 -22.5
v -7 0 -15
v -7 2 -15
v -7 0 -22.5
v -7 2 -25
v -7 0 -25
v -2.5 2 -22.5
v -7 2 -22.5
v -2.5 2 -25
v -7 2 -25
v -2.5 0 -15
v -2.5 0 -22.5
v -2.5 2 -22.5
v -2.5 2 -15
v -2.5 0 -25
v -2.5 2 -25
v -2.5 0 -22.5
v -7 0 -22.5
v -7 -17.5 -22.5
v -2.5 -17.5 -25
v -2.5 -17.5 -22.5
v -7 -17.5 -25
v -2.5 -17.5 -25
v -2.5 -17.5 -22.5
v -2.5 0 -22.5
v -7 0 -22.5
v -2.5 -17.5 -22.5
v -7 -17.5 -22.5
v -7 -17.5 -22.5
v -7 -17.5 -25
v -7 -17.5 -37.5
v -2.5 -17.5 -37.5
v -7 -14 -37.5
v -7 -12 -37.5
v -7 2 -25
v -2.5 2 -25
v -7 -12 -37.5
v -2.5 -12 -37.5
v -2.5 -12 -37.5
v -2.5 -14 -37.5
v -7 -17.5 -37.5
v -2.5 -17.5 -37.5
v -2.5 -17.5 -37.5
v -7 -17.5 -37.5
vn 0 0 1
vn 0 0 1
vn 0 0 1
vn 0 0 1
vn 0 0 1
vn 0 0 1
vn -1 0 0
vn -1 0 0
vn -1 0 0
vn -1 0 0
vn -1 0 0
vn -1 0 0
vn 1 0 0
vn 1 0 0
vn 1 0 0
vn 1 0 0
vn 1 0 0
vn 1 0 0
vn 0 0 1
vn 0 0 1
vn 0 0 1
vn 0 0 1
vn 0 0 -1
vn 0 0 -1
vn 0 0 -1
vn 0 0 -1
vn 0 1 0
vn 0 1 0
vn 0 1 0
vn 0 1 0
vn 0 1 0
vn 0 1 0
vn 0 -1 0
vn 0 -1 0
vn 0 -1 0
vn 0 -1 0
vn 0 -1 0
vn 0 -1 0
vn 1 0 0
vn 1 0 0
vn 1 0 0
vn 1 0 0
vn 1 0 0
vn 1 0 0
vn -1 0 0
vn -1 0 0
vn -1 0 0
vn -1 0 0
vn 0 1 0
vn 0 1 0
vn 0 1 0
vn 0 1 0
vn 0 1 0
vn 0 1 0
vn 0 1 0
vn 0 1 0
vn 0 1 0
vn 0 -1 0
vn 0 -1 0
vn 0 -1 0
vn 0 -1 0
vn 0 -1 0
vn 0 -1 0
vn 0 -1 0
vn 0 -1 0
vn 0 -1 0
vn 0 1 0
vn 0 1 0
vn 0 1 0
vn 0 1 0
vn 0 -1 0
vn 0 -1 0
vn 0 -1 0
vn 0 -1 0
vn 0 0 -1
vn 0 0 -1
vn 0 0 -1
vn 0 0 -1
vn 0 0 -1
vn 0 0 -1
vn 0 0 1
vn 0 0 1
vn 0 0 1
vn 0 0 1
vn 0 0 -1
vn 0 0 -1
vn 0 0 -1
vn 0 0 -1
vn 0 0 -1
vn 0 0 -1
vn 0 1 0
vn 0 1 0
vn 0 1 0
vn 0 1 0
vn 0 1 0
vn 0 -1 0
vn 0 -1 0
vn 0 -1 0
vn 0 -1 0
vn 0 -1 0
vn 0 1 0
vn 0 1 0
vn 0 -1 0
vn 0 -1 0
vn -1 0 0
vn -1 0 0
vn -1 0 0
vn -1 0 0
vn -1 0 0
vn -1 0 0
vn 0 1 0
vn 0 1 0
vn 0 1 0
vn 0 1 0
vn 1 0 0
vn 1 0 0
vn 1 0 0
vn 1 0 0
vn 1 0 0
vn 1 0 0
vn 0 -1 0
vn 0 -1 0
vn 0 -1 0
vn 0 -1 0
vn 0 -1 0
vn 0 -1 0
vn 1 0 0
vn 1 0 0
vn 0 0 1
vn 0 0 1
vn 0 0 1
vn 0 0 1
vn -1 0 0
vn -1 0 0
vn 0 0 -1
vn 0 0 -1
vn -1 0 0
vn -1 0 0
vn 0 0.6660158 -0.7459376
vn 0 0.6660158 -0.7459376
vn 0 0.6660158 -0.7459376
vn 0 0.6660158 -0.7459376
vn 1 0 0
vn 1 0 0
vn -1 0 0
vn 1 0 0
vn 0 -1 0
vn 0 -1 0
vt 2 0
vt 0 0
vt 0 2
vt 2 2
vt 4 0
vt 4 2
vt 2 2
vt 0 0
vt 0 2
vt 2 0
vt 4 2
vt 4 0
vt -2 0
vt -4 0
vt -4 2
vt -2 2
vt 0 0
vt 0 2
vt 15 0
vt 12.5 0
vt 12.5 2
vt 15 2
vt -12.5 2
vt -15 0
vt -15 2
vt -12.5 0
vt -12.5 -4
vt -15 -4
vt -15 -2
vt -12.5 -2
vt -15 0
vt -12.5 0
vt 15 -2
vt 12.5 -4
vt 12.5 -2
vt 15 -4
vt 15 0
vt 12.5 0
vt -4 0
vt -9 0
vt -9 2
vt -4 2
vt -15 0
vt -15 2
vt 9 2
vt 9 0
vt 15 2
vt 15 0
vt 0 -15
vt -2 -15
vt -2 -9
vt 0 -9
vt -2 -4
vt 0 -4
vt -2.5 -15
vt -4 -9
vt -4 -4
vt 2 -9
vt 0 -15
vt 0 -9
vt 2 -15
vt 2 -4
vt 0 -4
vt 4 -9
vt 2.5 -15
vt 4 -4
vt -12.5 -15
vt -15 -15
vt -15 -9
vt -12.5 -9
vt 15 -9
vt 12.5 -15
vt 12.5 -9
vt 15 -15
vt 0 2
vt -2 0
vt -2 2
vt -2.5 0
vt -2.5 2
vt 0 0
vt 7 0
vt 7 2
vt 4 0
vt 4 2
vt -7 2
vt -7 0
vt -2.5 -12
vt -7 -14
vt -7 -12
vt -2.5 -14
vt -7 -4
vt -7 -2
vt -4 -2
vt -7 0
vt -4 0
vt 7 -2
vt 4 -2
vt 7 -4
vt 7 0
vt 4 0
vt -7 -15
vt -7 -9
vt 7 -9
vt 7 -15
vt 22.5 2
vt 15 0
vt 15 2
vt 22.5 0
vt 25 2
vt 25 0
vt -2.5 -22.5
vt -7 -22.5
vt -2.5 -25
vt -7 -25
vt -15 0
vt -22.5 0
vt -22.5 2
vt -15 2
vt -25 0
vt -25 2
vt 2.5 -22.5
vt 7 -22.5
vt 7 -22.5
vt 2.5 -25
vt 2.5 -22.5
vt 7 -25
vt -25 -17.5
vt -22.5 -17.5
vt 2.5 0
vt 7 0
vt 2.5 -17.5
vt 7 -17.5
vt 22.5 -17.5
vt 25 -17.5
vt -7 -17.5
vt -2.5 -17.5
vt 37.5 -14
vt 37.5 -12
vt -7 -15.15852
vt -2.5 -15.15852
vt -7 -33.92685
vt -2.5 -33.92685
vt -37.5 -12
vt -37.5 -14
vt 37.5 -17.5
vt -37.5 -17.5
vt 2.5 -37.5
vt 7 -37.5
g submesh0
f 1/1/1 2/2/2 3/3/3
f 4/4/4 1/1/1 3/3/3
f 5/5/5 1/1/1 4/4/4
f 6/6/6 5/5/5 4/4/4
f 7/7/7 8/8/8 9/9/9
f 7/7/7 10/10/10 8/8/8
f 11/11/11 10/10/10 7/7/7
f 11/11/11 12/12/12 10/10/10
f 13/13/13 14/14/14 15/15/15
f 16/16/16 13/13/13 15/15/15
f 17/17/17 13/13/13 16/16/16
f 18/18/18 17/17/17 16/16/16
f 19/19/19 20/20/20 21/21/21
f 22/22/22 19/19/19 21/21/21
f 23/23/23 24/24/24 25/25/25
f 23/23/23 26/26/26 24/24/24
f 27/27/27 28/28/28 29/29/29
f 30/30/30 27/27/27 29/29/29
f 30/30/30 29/29/29 31/31/31
f 32/32/32 30/30/30 31/31/31
f 33/33/33 34/34/34 35/35/35
f 33/33/33 36/36/36 34/34/34
f 37/37/37 35/35/35 38/38/38
f 37/37/37 33/33/33 35/35/35
f 39/39/39 40/40/40 41/41/41
f 42/42/42 39/39/39 41/41/41
f 40/40/40 43/43/43 44/44/44
f 41/41/41 40/40/40 44/44/44
f 45/45/45 12/12/12 11/11/11
f 45/45/45 46/46/46 12/12/12
f 47/47/47 46/46/46 45/45/45
f 47/47/47 48/48/48 46/46/46
f 49/49/49 50/50/50 51/51/51
f 52/52/52 49/49/49 51/51/51
f 52/52/52 51/51/51 53/53/53
f 54/54/54 52/52/52 53/53/53
f 50/50/50 55/55/55 56/56/56
f 51/51/51 50/50/50 56/56/56
f 51/51/51 56/56/56 57/57/57
f 53/53/53 51/51/51 57/57/57
f 58/58/58 59/59/59 60/60/60
f 58/58/58 61/61/61 59/59/59
f 62/62/62 60/60/60 63/63/63
f 62/62/62 58/58/58 60/60/60
f 64/64/64 61/61/61 58/58/58
f 64/64/64 65/65/65 61/61/61
f 66/66/66 58/58/58 62/62/62
f 66/66/66 64/64/64 58/58/58
f 67/67/67 68/68/68 69/69/69
f 70/70/70 67/67/67 69/69/69
f 70/70/70 69/69/69 28/28/28
f 27/27/27 70/70/70 28/28/28
f 71/71/71 72/72/72 73/73/73
f 71/71/71 74/74/74 72/72/72
f 36/36/36 73/73/73 34/34/34
f 36/36/36 71/71/71 73/73/73
f 75/75/75 76/76/76 77/77/77
f 77/77/77 76/76/76 78/78/78
f 77/77/77 78/78/78 79/79/79
f 75/75/75 80/80/80 76/76/76
f 20/20/20 81/81/81 82/82/82
f 21/21/21 20/20/20 82/82/82
f 81/81/81 83/83/83 84/84/84
f 82/82/82 81/81/81 84/84/84
f 85/85/85 26/26/26 23/23/23
f 85/85/85 86/86/86 26/26/26
f 87/87/87 88/88/88 89/89/89
f 87/87/87 90/90/90 88/88/88
f 57/57/57 91/91/91 92/92/92
f 93/93/93 57/57/57 92/92/92
f 91/91/91 27/27/27 30/30/30
f 92/92/92 91/91/91 30/30/30
f 93/93/93 92/92/92 94/94/94
f 95/95/95 93/93/93 94/94/94
f 92/92/92 30/30/30 32/32/32
f 94/94/94 92/92/92 32/32/32
f 96/96/96 66/66/66 97/97/97
f 96/96/96 98/98/98 66/66/66
f 35/35/35 98/98/98 96/96/96
f 35/35/35 34/34/34 98/98/98
f 99/99/99 97/97/97 100/100/100
f 99/99/99 96/96/96 97/97/97
f 38/38/38 96/96/96 99/99/99
f 38/38/38 35/35/35 96/96/96
f 55/55/55 101/101/101 102/102/102
f 56/56/56 55/55/55 102/102/102
f 101/101/101 67/67/67 70/70/70
f 102/102/102 101/101/101 70/70/70
f 56/56/56 102/102/102 91/91/91
f 57/57/57 56/56/56 91/91/91
f 102/102/102 70/70/70 27/27/27
f 91/91/91 102/102/102 27/27/27
f 103/103/103 65/65/65 64/64/64
f 103/103/103 104/104/104 65/65/65
f 73/73/73 104/104/104 103/103/103
f 73/73/73 72/72/72 104/104/104
f 98/98/98 64/64/64 66/66/66
f 98/98/98 103/103/103 64/64/64
f 34/34/34 103/103/103 98/98/98
f 34/34/34 73/73/73 103/103/103
f 105/105/105 106/106/106 107/107/107
f 105/105/105 108/108/108 106/106/106
f 109/109/109 108/108/108 105/105/105
f 109/109/109 110/110/110 108/108/108
f 111/111/111 112/112/112 101/101/101
f 55/55/55 111/111/111 101/101/101
f 113/113/113 114/114/114 112/112/112
f 111/111/111 113/113/113 112/112/112
f 115/115/115 116/116/116 117/117/117
f 118/118/118 115/115/115 117/117/117
f 116/116/116 119/119/119 120/120/120
f 117/117/117 116/116/116 120/120/120
f 104/104/104 121/121/121 65/65/65
f 104/104/104 122/122/122 121/121/121
f 123/123/123 124/124/124 125/125/125
f 123/123/123 126/126/126 124/124/124
f 119/119/119 116/116/116 127/127/127
f 116/116/116 128/128/128 127/127/127
f 129/129/129 130/130/130 131/131/131
f 130/130/130 132/132/132 131/131/131
f 108/108/108 110/110/110 133/133/133
f 110/110/110 134/134/134 133/133/133
f 88/88/88 90/90/90 135/135/135
f 90/90/90 136/136/136 135/135/135
f 110/110/110 109/109/109 137/137/137
f 109/109/109 138/138/138 137/137/137
f 139/139/139 140/140/140 141/141/141
f 140/140/140 142/142/142 141/141/141
f 120/120/120 119/119/119 143/143/143
f 119/119/119 144/144/144 143/143/143
f 134/134/134 110/110/110 145/145/145
f 110/110/110 137/137/137 145/145/145
f 119/119/119 127/127/127 144/144/144
f 127/127/127 146/146/146 144/144/144
f 124/124/124 126/126/126 147/147/147
f 126/126/126 148/148/148 147/147/147
