v 13.5 5 -7
v 7 5 -7
v 7 5 0
v 13.5 5 0
v 0 5 -7
v 0 5 0
v 11.5 5 -11.5
v 7 5 -13.5
v 0 5 -13.5
v 7 -2.5 -7
v 11.5 -2.5 -11.5
v 13.5 -2.5 -7
v 7 -2.5 -13.5
v 0 -2.5 -7
v 0 -2.5 -13.5
v 7 -2.5 0
v 13.5 -2.5 0
v 0 -2.5 0
v 22 -2.5 0
v 22 -2.5 -7
v 13.5 5 -7
v 13.5 5 0
v 22 0 -7
v 22 0 0
v 0 5 -13.5
v 7 5 -13.5
v 0 0 -22
v 7 0 -22
v 7 -2.5 -22
v 0 -2.5 -22
v 22 -2.5 0
v 22 -2.5 -7
v 22 -1.25 -7
v 22 -1.25 0
v 22 0 -7
v 22 0 0
v 13.5 -2.5 -1
v 5 -2.5 -5
v 5 3.5 -5
v 13.5 3.5 -1
v 13.5 3.5 -7
v 11.5 3.5 -11.5
v 11.5 5 -11.5
v 13.5 5 -7
v 0 1.25 -13.5
v 0 -2.5 -7
v 0 1.25 -7
v 0 -2.5 -13.5
v 0 5 -13.5
v 0 5 -7
v 0 -2.5 0
v 0 1.25 0
v 0 5 0
v 0 -2.5 0
v 7 -2.5 0
v 7 1.25 0
v 0 1.25 0
v 7 5 0
v 0 5 0
v 13.5 -2.5 0
v 13.5 1.25 0
v 13.5 5 0
v 5 3.5 -5
v 1 -2.5 -13.5
v 1 3.5 -13.5
v 5 -2.5 -5
v 11.5 5 -11.5
v 7 3.5 -13.5
v 7 5 -13.5
v 11.5 3.5 -11.5
v 7 -1.25 -22
v 0 -2.5 -22
v 0 -1.25 -22
v 7 -2.5 -22
v 7 0 -22
v 0 0 -22
v 22 -1.25 -7
v 13.5 -2.5 -7
v 13.5 3.5 -7
v 22 -2.5 -7
v 22 0 -7
v 13.5 5 -7
v 22 -1.25 0
v 22 0 0
v 22 -2.5 0
v 0 -1.25 -22
v 0 -2.5 -22
v 0 0 -22
v 7 -1.25 -22
v 7 0 -22
v 7 3.5 -13.5
v 7 5 -13.5
v 7 -2.5 -13.5
v 7 -2.5 -22
v 13.5 -2.5 -7
v 11.5 -2.5 -11.5
v 13.5 -2.5 -1
v 5 -2.5 -5
v 7 -2.5 -13.5
v 1 -2.5 -13.5
v 13.5 3.5 -7
v 13.5 -2.5 -7
v 13.5 3.5 -1
v 13.5 -2.5 -1
v 11.5 3.5 -11.5
v 13.5 3.5 -7
v 5 3.5 -5
v 13.5 3.5 -1
v 7 -2.5 -13.5
v 7 3.5 -13.5
v 1 -2.5 -13.5
v 1 3.5 -13.5
v 7 3.5 -13.5
v 1 3.5 -13.5
vn 0 1 0
vn 0 1 0
vn 0 1 0
vn 0 1 0
vn 0 1 0
vn 0 1 0
vn 0 1 0
vn 0 1 0
vn 0 1 0
vn 0 -1 0
vn 0 -1 0
vn 0 -1 0
vn 0 -1 0
vn 0 -1 0
vn 0 -1 0
vn 0 -1 0
vn 0 -1 0
vn 0 -1 0
vn 0 -1 0
vn 0 -1 0
vn 0.5070202 0.8619342 0
vn 0.5070202 0.8619342 0
vn 0.5070202 0.8619342 0
vn 0.5070202 0.8619342 0
vn 0 0.8619342 -0.5070202
vn 0 0.8619342 -0.5070202
vn 0 0.8619342 -0.5070202
vn 0 0.8619342 -0.5070202
vn 0 -1 0
vn 0 -1 0
vn 1 0 0
vn 1 0 0
vn 1 0 0
vn 1 0 0
vn 1 0 0
vn 1 0 0
vn 0.425797 0 -0.9048187
vn 0.425797 0 -0.9048187
vn 0.425797 0 -0.9048187
vn 0.425797 0 -0.9048187
vn 0.9138116 0 -0.4061384
vn 0.9138116 0 -0.4061384
vn 0.9138116 0 -0.4061384
vn 0.9138116 0 -0.4061384
vn -1 0 0
vn -1 0 0
vn -1 0 0
vn -1 0 0
vn -1 0 0
vn -1 0 0
vn -1 0 0
vn -1 0 0
vn -1 0 0
vn 0 0 1
vn 0 0 1
vn 0 0 1
vn 0 0 1
vn 0 0 1
vn 0 0 1
vn 0 0 1
vn 0 0 1
vn 0 0 1
vn 0.9048187 0 -0.425797
vn 0.9048187 0 -0.425797
vn 0.9048187 0 -0.425797
vn 0.9048187 0 -0.425797
vn 0.4061384 0 -0.9138116
vn 0.4061384 0 -0.9138116
vn 0.4061384 0 -0.9138116
vn 0.4061384 0 -0.9138116
vn 0 0 -1
vn 0 0 -1
vn 0 0 -1
vn 0 0 -1
vn 0 0 -1
vn 0 0 -1
vn 0 0 -1
vn 0 0 -1
vn 0 0 -1
vn 0 0 -1
vn 0 0 -1
vn 0 0 -1
vn 0 0 1
vn 0 0 1
vn 0 0 1
vn -1 0 0
vn -1 0 0
vn -1 0 0
vn 1 0 0
vn 1 0 0
vn 1 0 0
vn 1 0 0
vn 1 0 0
vn 1 0 0
vn 0 1 0
vn 0 1 0
vn 0 1 0
vn 0 1 0
vn 0 1 0
vn 0 1 0
vn -1 0 0
vn -1 0 0
vn -1 0 0
vn -1 0 0
vn 0 -1 0
vn 0 -1 0
vn 0 -1 0
vn 0 -1 0
vn 0 0 1
vn 0 0 1
vn 0 0 1
vn 0 0 1
vn 0 -1 0
vn 0 -1 0
vt 13.5 -7
vt 7 -7
vt 7 0
vt 13.5 0
vt 0 -7
vt 0 0
vt 11.5 -11.5
vt 7 -13.5
vt 0 -13.5
vt -7 -7
vt -11.5 -11.5
vt -13.5 -7
vt -7 -13.5
vt 0 -7
vt 0 -13.5
vt -7 0
vt -13.5 0
vt 0 0
vt -22 0
vt -22 -7
vt 9.101011 -7
vt 9.101011 0
vt 18.96255 -7
vt 18.96255 0
vt 0 -9.101011
vt 7 -9.101011
vt 0 -18.96255
vt 7 -18.96255
vt -7 -22
vt 0 -22
vt 0 -2.5
vt -7 -2.5
vt -7 -1.25
vt 0 -1.25
vt -7 0
vt 0 0
vt 11.78926 -2.5
vt 2.395108 -2.5
vt 2.395108 3.5
vt 11.78926 3.5
vt -0.9138119 3.5
vt -5.838241 3.5
vt -5.838241 5
vt -0.9138119 5
vt 13.5 1.25
vt 7 -2.5
vt 7 1.25
vt 13.5 -2.5
vt 13.5 5
vt 7 5
vt 0 -2.5
vt 0 1.25
vt 0 5
vt 0 -2.5
vt -7 -2.5
vt -7 1.25
vt 0 1.25
vt -7 5
vt 0 5
vt -13.5 -2.5
vt -13.5 1.25
vt -13.5 5
vt -2.395108 3.5
vt -11.78926 -2.5
vt -11.78926 3.5
vt -2.395108 -2.5
vt 5.838241 5
vt 0.9138119 3.5
vt 0.9138119 5
vt 5.838241 3.5
vt 7 -1.25
vt 0 -2.5
vt 0 -1.25
vt 7 -2.5
vt 7 0
vt 0 0
vt 22 -1.25
vt 13.5 -2.5
vt 13.5 3.5
vt 22 -2.5
vt 22 0
vt 13.5 5
vt -22 -1.25
vt -22 0
vt -22 -2.5
vt 22 -1.25
vt 22 -2.5
vt 22 0
vt -22 -1.25
vt -22 0
vt -13.5 3.5
vt -13.5 5
vt -13.5 -2.5
vt -22 -2.5
vt 13.5 -7
vt 11.5 -11.5
vt 13.5 -1
vt 5 -5
vt 7 -13.5
vt 1 -13.5
vt 7 3.5
vt 7 -2.5
vt 1 3.5
vt 1 -2.5
vt -11.5 -11.5
vt -13.5 -7
vt -5 -5
vt -13.5 -1
vt -7 -2.5
vt -7 3.5
vt -1 -2.5
vt -1 3.5
vt -7 -13.5
vt -1 -13.5
g submesh0
f 1/1/1 2/2/2 3/3/3
f 4/4/4 1/1/1 3/3/3
f 2/2/2 5/5/5 6/6/6
f 3/3/3 2/2/2 6/6/6
f 7/7/7 8/8/8 2/2/2
f 1/1/1 7/7/7 2/2/2
f 8/8/8 9/9/9 5/5/5
f 2/2/2 8/8/8 5/5/5
f 10/10/10 11/11/11 12/12/12
f 10/10/10 13/13/13 11/11/11
f 14/14/14 13/13/13 10/10/10
f 14/14/14 15/15/15 13/13/13
f 16/16/16 12/12/12 17/17/17
f 16/16/16 10/10/10 12/12/12
f 18/18/18 10/10/10 16/16/16
f 18/18/18 14/14/14 10/10/10
f 17/17/17 12/12/12 19/19/19
f 12/12/12 20/20/20 19/19/19
f 21/21/21 22/22/22 23/23/23
f 22/22/22 24/24/24 23/23/23
f 25/25/25 26/26/26 27/27/27
f 26/26/26 28/28/28 27/27/27
f 13/13/13 15/15/15 29/29/29
f 15/15/15 30/30/30 29/29/29
f 31/31/31 32/32/32 33/33/33
f 34/34/34 31/31/31 33/33/33
f 34/34/34 33/33/33 35/35/35
f 36/36/36 34/34/34 35/35/35
f 37/37/37 38/38/38 39/39/39
f 40/40/40 37/37/37 39/39/39
f 41/41/41 42/42/42 43/43/43
f 44/44/44 41/41/41 43/43/43
f 45/45/45 46/46/46 47/47/47
f 45/45/45 48/48/48 46/46/46
f 49/49/49 47/47/47 50/50/50
f 49/49/49 45/45/45 47/47/47
f 47/47/47 51/51/51 52/52/52
f 47/47/47 46/46/46 51/51/51
f 50/50/50 52/52/52 53/53/53
f 50/50/50 47/47/47 52/52/52
f 54/54/54 55/55/55 56/56/56
f 57/57/57 54/54/54 56/56/56
f 57/57/57 56/56/56 58/58/58
f 59/59/59 57/57/57 58/58/58
f 55/55/55 60/60/60 61/61/61
f 56/56/56 55/55/55 61/61/61
f 56/56/56 61/61/61 62/62/62
f 58/58/58 56/56/56 62/62/62
f 63/63/63 64/64/64 65/65/65
f 63/63/63 66/66/66 64/64/64
f 67/67/67 68/68/68 69/69/69
f 67/67/67 70/70/70 68/68/68
f 71/71/71 72/72/72 73/73/73
f 71/71/71 74/74/74 72/72/72
f 75/75/75 73/73/73 76/76/76
f 75/75/75 71/71/71 73/73/73
f 77/77/77 78/78/78 79/79/79
f 77/77/77 80/80/80 78/78/78
f 81/81/81 79/79/79 82/82/82
f 79/79/79 81/81/81 77/77/77
f 83/83/83 84/84/84 61/61/61
f 62/62/62 61/61/61 84/84/84
f 60/60/60 85/85/85 83/83/83
f 61/61/61 60/60/60 83/83/83
f 86/86/86 48/48/48 45/45/45
f 86/86/86 87/87/87 48/48/48
f 88/88/88 45/45/45 49/49/49
f 45/45/45 88/88/88 86/86/86
f 89/89/89 90/90/90 91/91/91
f 92/92/92 91/91/91 90/90/90
f 93/93/93 94/94/94 89/89/89
f 91/91/91 93/93/93 89/89/89
f 95/95/95 96/96/96 97/97/97
f 96/96/96 98/98/98 97/97/97
f 96/96/96 99/99/99 98/98/98
f 99/99/99 100/100/100 98/98/98
f 101/101/101 102/102/102 103/103/103
f 102/102/102 104/104/104 103/103/103
f 105/105/105 106/106/106 107/107/107
f 106/106/106 108/108/108 107/107/107
f 109/109/109 110/110/110 111/111/111
f 110/110/110 112/112/112 111/111/111
f 113/113/113 105/105/105 114/114/114
f 105/105/105 107/107/107 114/114/114
