v 0.7499996 -3 0.2499999
v 0.9999996 -3 0.2499998
v 0.7499986 12 0.2500008
v 0.9999986 12 0.2499991
v 0.9999996 -3 0.2499998
v 0.9999995 -3 -2.384186E-07
v 0.9999986 12 0.2499991
v 0.9999988 12 -8.941897E-07
v 0.9999995 -3 -2.384186E-07
v 0.7499995 -3 -1.490116E-07
v 0.9999988 12 -8.941897E-07
v 0.7499988 12 7.896406E-07
v -1 -3 4.768372E-07
v -1 -3 0.2500005
v -1.000001 12 1.132361E-06
v -1.000001 12 0.2500011
v 0.7499986 12 0.2500008
v 0.9999986 12 0.2499991
v 0.7499988 12 7.896406E-07
v 0.9999988 12 -8.941897E-07
v 0.7499995 -3 -1.490116E-07
v 0.9999995 -3 -2.384186E-07
v 0.7499996 -3 0.2499999
v 0.9999996 -3 0.2499998
v -0.7500005 -3 3.874302E-07
v -0.7500004 -3 0.2500004
v -1 -3 4.768372E-07
v -1 -3 0.2500005
v -0.7500012 12 1.355879E-06
v -0.7500005 -3 3.874302E-07
v -1.000001 12 1.132361E-06
v -1 -3 4.768372E-07
v -0.7500004 -3 0.2500004
v -0.7500014 12 0.2500014
v -1 -3 0.2500005
v -1.000001 12 0.2500011
v -0.7500014 12 0.2500014
v -0.7500012 12 1.355879E-06
v -1.000001 12 0.2500011
v -1.000001 12 1.132361E-06
v 0.7499996 -3 0.2499999
v 0.7499986 12 0.2500008
v 0.7499995 -3 -1.490116E-07
v 0.7499988 12 7.896406E-07
v -0.7500014 12 0.2500014
v -0.7500004 -3 0.2500004
v -0.7500012 12 1.355879E-06
v -0.7500005 -3 3.874302E-07
v 0.7499996 -3 0.1249999
v 0.7499968 12 0.1250008
v -0.7500004 -3 0.1250004
v -0.7500032 12 0.1250014
vn 3.576279E-07 -6.357826E-08 1
vn 3.576279E-06 -9.933853E-09 1
vn 3.576279E-06 -9.933853E-09 1
vn 6.79493E-06 4.371056E-08 1
vn 1 7.152555E-08 -4.768372E-07
vn 1 5.960465E-08 2.384186E-07
vn 1 5.960465E-08 2.384186E-07
vn 1 4.768376E-08 9.536743E-07
vn -3.576279E-07 -4.371809E-08 -1
vn -3.546474E-06 9.429199E-09 -1
vn -3.546474E-06 9.429199E-09 -1
vn -6.735321E-06 6.257649E-08 -1
vn -1 -4.768373E-08 4.768372E-07
vn -1 -5.960463E-08 -2.384186E-07
vn -1 -5.960463E-08 -2.384186E-07
vn -1 -7.152553E-08 -9.536743E-07
vn 0 1 0
vn 0 1 0
vn 0 1 0
vn 0 1 0
vn 0 -1 0
vn 0 -1 0
vn 0 -1 0
vn 0 -1 0
vn 0 -1 0
vn 0 -1 0
vn 0 -1 0
vn 0 -1 0
vn 8.940733E-07 6.456332E-08 -1
vn 2.682227E-07 5.413244E-08 -1
vn 2.682227E-07 5.413244E-08 -1
vn -3.576279E-07 4.370157E-08 -1
vn 3.576279E-07 -6.556509E-08 1
vn -2.980232E-07 -5.463762E-08 1
vn -2.980232E-07 -5.463762E-08 1
vn -9.536743E-07 -4.371014E-08 1
vn 0 1 0
vn 0 1 0
vn 0 1 0
vn 0 1 0
vn -1 -7.15256E-08 4.768372E-07
vn -1 -5.960463E-08 -2.384185E-07
vn -1 -5.960463E-08 -2.384185E-07
vn -1 -4.768366E-08 -9.536742E-07
vn 1 7.152551E-08 9.536742E-07
vn 1 5.960463E-08 2.384185E-07
vn 1 5.960463E-08 2.384185E-07
vn 1 4.768374E-08 -4.768372E-07
vn 3.576279E-07 -6.258481E-08 1
vn 3.67562E-07 -6.357822E-08 1
vn 3.67562E-07 -6.357822E-08 1
vn 3.774961E-07 -6.457163E-08 1
vt -0.7499996 -3
vt -0.9999996 -3
vt -0.7499985 12
vt -0.9999985 12
vt -1.875 -3
vt -2.125 -3
vt -1.875 12
vt -2.125 12
vt 0.9999995 -3
vt 0.7499995 -3
vt 0.9999988 12
vt 0.7499988 12
vt 2.125 -3
vt 1.875 -3
vt 2.124999 12
vt 1.874999 12
vt 0.7499986 -1.874999
vt 0.9999986 -1.875001
vt 0.7499988 -2.124999
vt 0.9999988 -2.125001
vt -0.7499995 -2.125
vt -0.9999995 -2.125
vt -0.7499996 -1.875
vt -0.9999996 -1.875
vt 0.7500005 -2.125
vt 0.7500004 -1.875
vt 1 -2.125
vt 1 -1.875
vt -0.7500012 12
vt -0.7500005 -3
vt -1.000001 12
vt -1 -3
vt 0.7500005 -3
vt 0.7500015 12
vt 1 -3
vt 1.000002 12
vt -0.7500014 -1.874999
vt -0.7500012 -2.124999
vt -1.000001 -1.874999
vt -1.000001 -2.124999
vt 1.875 -3
vt 1.874999 12
vt 2.125 -3
vt 2.124999 12
vt -1.874998 12
vt -1.874999 -3
vt -2.124998 12
vt -2.124999 -3
vt -0.7499995 -3
vt -0.7499967 12
vt 0.7500005 -3
vt 0.7500033 12
g submesh0
f 1/1/1 2/2/2 3/3/3
f 2/2/2 4/4/4 3/3/3
f 5/5/5 6/6/6 7/7/7
f 6/6/6 8/8/8 7/7/7
f 9/9/9 10/10/10 11/11/11
f 10/10/10 12/12/12 11/11/11
f 13/13/13 14/14/14 15/15/15
f 14/14/14 16/16/16 15/15/15
f 17/17/17 18/18/18 19/19/19
f 18/18/18 20/20/20 19/19/19
f 21/21/21 22/22/22 23/23/23
f 22/22/22 24/24/24 23/23/23
f 25/25/25 26/26/26 27/27/27
f 26/26/26 28/28/28 27/27/27
f 29/29/29 30/30/30 31/31/31
f 30/30/30 32/32/32 31/31/31
f 33/33/33 34/34/34 35/35/35
f 34/34/34 36/36/36 35/35/35
f 37/37/37 38/38/38 39/39/39
f 38/38/38 40/40/40 39/39/39
f 41/41/41 42/42/42 43/43/43
f 42/42/42 44/44/44 43/43/43
f 45/45/45 46/46/46 47/47/47
f 46/46/46 48/48/48 47/47/47
g submesh1
f 49/49/49 50/50/50 51/51/51
f 50/50/50 52/52/52 51/51/51
